G04 (created by PCBNEW (2012-oct-18)-testing) date Wed 03 Jul 2013 04:57:35 PM EDT*
%MOIN*%
G04 Gerber Fmt 3.4, Leading zero omitted, Abs format*
%FSLAX34Y34*%
G01*
G70*
G90*
G04 APERTURE LIST*
%ADD10C,0.002*%
%ADD11C,0.00590551*%
%ADD12C,0.085*%
%ADD13R,0.01X0.01*%
%ADD14C,0.06*%
%ADD15R,0.06X0.06*%
%ADD16C,0.066*%
%ADD17R,0.055X0.055*%
%ADD18C,0.055*%
%ADD19R,0.065X0.065*%
%ADD20C,0.065*%
%ADD21C,0.1*%
%ADD22C,0.0629921*%
%ADD23C,0.0511811*%
%ADD24C,0.074*%
%ADD25C,0.16*%
%ADD26C,0.035*%
%ADD27C,0.01*%
G04 APERTURE END LIST*
G54D10*
G54D11*
X58750Y-75000D02*
X58750Y-58000D01*
X107250Y-76500D02*
X60250Y-76500D01*
X108750Y-58000D02*
X108750Y-75000D01*
X60250Y-56500D02*
X107250Y-56500D01*
X107250Y-76500D02*
G75*
G03X108750Y-75000I0J1500D01*
G74*
G01*
X108750Y-58000D02*
G75*
G03X107250Y-56500I-1500J0D01*
G74*
G01*
X58750Y-75000D02*
G75*
G03X60250Y-76500I1500J0D01*
G74*
G01*
X60250Y-56500D02*
G75*
G03X58750Y-58000I0J-1500D01*
G74*
G01*
G54D12*
X98210Y-64984D03*
X93290Y-64984D03*
X98210Y-63016D03*
X93290Y-63016D03*
X105210Y-64984D03*
X100290Y-64984D03*
X105210Y-63016D03*
X100290Y-63016D03*
G54D13*
X0Y0D03*
X0Y0D03*
X0Y0D03*
G54D14*
X60250Y-71500D03*
X60250Y-70500D03*
X60250Y-69500D03*
G54D12*
X93234Y-70290D03*
X93234Y-75210D03*
X91266Y-70290D03*
X91266Y-75210D03*
X98484Y-70290D03*
X98484Y-75210D03*
X96516Y-70290D03*
X96516Y-75210D03*
X103734Y-70290D03*
X103734Y-75210D03*
X101766Y-70290D03*
X101766Y-75210D03*
X66984Y-70290D03*
X66984Y-75210D03*
X65016Y-70290D03*
X65016Y-75210D03*
X72234Y-70290D03*
X72234Y-75210D03*
X70266Y-70290D03*
X70266Y-75210D03*
X77484Y-70290D03*
X77484Y-75210D03*
X75516Y-70290D03*
X75516Y-75210D03*
X82734Y-70290D03*
X82734Y-75210D03*
X80766Y-70290D03*
X80766Y-75210D03*
X87984Y-70290D03*
X87984Y-75210D03*
X86016Y-70290D03*
X86016Y-75210D03*
G54D14*
X66750Y-64500D03*
X66750Y-60500D03*
X62250Y-68500D03*
X62250Y-72500D03*
X68750Y-60500D03*
X68750Y-64500D03*
X90750Y-66000D03*
X86750Y-66000D03*
X84250Y-66000D03*
X80250Y-66000D03*
X107250Y-63500D03*
X107250Y-67500D03*
X74500Y-62500D03*
X74500Y-58500D03*
X73750Y-66000D03*
X77750Y-66000D03*
X96250Y-60750D03*
X92250Y-60750D03*
G54D15*
X86250Y-58750D03*
G54D14*
X86250Y-57750D03*
X87250Y-58750D03*
X87250Y-57750D03*
X88250Y-58750D03*
X88250Y-57750D03*
G54D16*
X96250Y-59500D03*
X96250Y-58500D03*
X71250Y-68500D03*
X71250Y-67500D03*
X66000Y-68500D03*
X66000Y-67500D03*
X76500Y-68500D03*
X76500Y-67500D03*
X107250Y-62000D03*
X107250Y-61000D03*
X87000Y-68500D03*
X87000Y-67500D03*
X97500Y-68500D03*
X97500Y-67500D03*
X102750Y-68500D03*
X102750Y-67500D03*
X92250Y-68500D03*
X92250Y-67500D03*
X81750Y-68500D03*
X81750Y-67500D03*
G54D17*
X73250Y-64000D03*
G54D18*
X73250Y-63000D03*
X73250Y-62000D03*
X73250Y-61000D03*
X70250Y-61000D03*
X70250Y-62000D03*
X70250Y-63000D03*
X70250Y-64000D03*
X77250Y-63500D03*
X78250Y-63500D03*
X79250Y-63500D03*
X80250Y-63500D03*
X81250Y-63500D03*
X82250Y-63500D03*
X83250Y-63500D03*
X84250Y-63500D03*
X85250Y-63500D03*
X86250Y-63500D03*
X87250Y-63500D03*
X88250Y-63500D03*
X89250Y-63500D03*
G54D17*
X76250Y-63500D03*
G54D18*
X89250Y-60500D03*
X88250Y-60500D03*
X87250Y-60500D03*
X86250Y-60500D03*
X85250Y-60500D03*
X84250Y-60500D03*
X83250Y-60500D03*
X82250Y-60500D03*
X81250Y-60500D03*
X80250Y-60500D03*
X79250Y-60500D03*
X78250Y-60500D03*
X77250Y-60500D03*
X76250Y-60500D03*
G54D19*
X65750Y-58500D03*
G54D20*
X64750Y-58500D03*
G54D19*
X99500Y-59250D03*
G54D20*
X99500Y-60250D03*
G54D18*
X70750Y-66000D03*
X71750Y-66000D03*
X67750Y-66000D03*
X68750Y-66000D03*
X84750Y-57750D03*
X83750Y-57750D03*
X70750Y-58500D03*
X71750Y-58500D03*
G54D21*
X60500Y-63500D03*
X62468Y-61531D03*
X62468Y-65468D03*
G54D22*
X62468Y-63500D03*
G54D23*
X60500Y-65468D03*
X60500Y-61531D03*
X59515Y-61531D03*
X59515Y-65468D03*
G54D14*
X104250Y-60500D03*
X102250Y-60500D03*
G54D24*
X104250Y-58750D03*
X102250Y-58750D03*
X104250Y-57250D03*
X102250Y-57250D03*
G54D25*
X107250Y-58000D03*
X107250Y-75000D03*
X60250Y-75000D03*
X60250Y-58000D03*
G54D26*
X76500Y-71000D03*
X72250Y-72500D03*
X78250Y-71500D03*
X79250Y-75250D03*
X82750Y-65000D03*
X80250Y-65000D03*
X79750Y-74250D03*
X93250Y-73750D03*
X84750Y-73750D03*
X98500Y-72750D03*
X89250Y-72750D03*
X89750Y-62500D03*
X91500Y-62500D03*
X103750Y-71750D03*
X92250Y-71750D03*
X99500Y-65000D03*
X99500Y-62000D03*
X77250Y-62000D03*
X88750Y-65000D03*
X88750Y-62500D03*
X76250Y-62500D03*
X75500Y-61250D03*
X75250Y-68500D03*
X68750Y-68500D03*
X68750Y-67500D03*
X78750Y-68500D03*
X78750Y-67500D03*
X90250Y-68500D03*
X90250Y-67500D03*
X85750Y-66750D03*
X85750Y-65250D03*
X86750Y-65250D03*
X86750Y-61500D03*
X80250Y-61500D03*
X81250Y-61250D03*
X83750Y-61250D03*
X83750Y-71250D03*
X100250Y-71250D03*
X100250Y-68500D03*
X100250Y-67500D03*
X87750Y-64500D03*
X76250Y-66000D03*
X87250Y-61500D03*
X88250Y-66000D03*
G54D27*
X66984Y-71234D02*
X66984Y-70290D01*
X67250Y-71500D02*
X66984Y-71234D01*
X76000Y-71500D02*
X67250Y-71500D01*
X76500Y-71000D02*
X76000Y-71500D01*
X77250Y-72500D02*
X72250Y-72500D01*
X78250Y-71500D02*
X77250Y-72500D01*
X79210Y-75210D02*
X77484Y-75210D01*
X79250Y-75250D02*
X79210Y-75210D01*
X80250Y-65000D02*
X82750Y-65000D01*
X87984Y-75210D02*
X87984Y-74516D01*
X87718Y-74250D02*
X87500Y-74250D01*
X87984Y-74516D02*
X87718Y-74250D01*
X79750Y-74250D02*
X87500Y-74250D01*
X84750Y-73750D02*
X93250Y-73750D01*
X89250Y-72750D02*
X98500Y-72750D01*
X89750Y-62500D02*
X91500Y-62500D01*
X92250Y-71750D02*
X103750Y-71750D01*
X99516Y-64984D02*
X100290Y-64984D01*
X99500Y-65000D02*
X99516Y-64984D01*
X77250Y-62000D02*
X99500Y-62000D01*
X105210Y-64984D02*
X100290Y-64984D01*
X88766Y-64984D02*
X93290Y-64984D01*
X88750Y-65000D02*
X88766Y-64984D01*
X76250Y-62500D02*
X88750Y-62500D01*
X98210Y-64984D02*
X93290Y-64984D01*
X71250Y-68500D02*
X75250Y-68500D01*
X78250Y-61000D02*
X78250Y-60500D01*
X78000Y-61250D02*
X78250Y-61000D01*
X75500Y-61250D02*
X78000Y-61250D01*
X66000Y-67500D02*
X68750Y-67500D01*
X68750Y-68500D02*
X71250Y-68500D01*
X76500Y-67500D02*
X78750Y-67500D01*
X78750Y-68500D02*
X81750Y-68500D01*
X87000Y-67500D02*
X90250Y-67500D01*
X90250Y-68500D02*
X92250Y-68500D01*
X85750Y-66750D02*
X86750Y-66750D01*
X87000Y-67000D02*
X87000Y-67500D01*
X86750Y-66750D02*
X87000Y-67000D01*
X86750Y-65250D02*
X85750Y-65250D01*
X86500Y-61750D02*
X86750Y-61500D01*
X80500Y-61750D02*
X86500Y-61750D01*
X80250Y-61500D02*
X80500Y-61750D01*
X83750Y-61250D02*
X81250Y-61250D01*
X100250Y-71250D02*
X83750Y-71250D01*
X97500Y-67500D02*
X100250Y-67500D01*
X100250Y-68500D02*
X102750Y-68500D01*
X73250Y-61000D02*
X73250Y-60000D01*
X87250Y-59750D02*
X87250Y-60500D01*
X86950Y-59450D02*
X87250Y-59750D01*
X73799Y-59450D02*
X86950Y-59450D01*
X73250Y-60000D02*
X73799Y-59450D01*
X77750Y-65000D02*
X77750Y-66000D01*
X78250Y-64500D02*
X77750Y-65000D01*
X87750Y-64500D02*
X78250Y-64500D01*
X77750Y-66000D02*
X76250Y-66000D01*
X85250Y-60000D02*
X85250Y-60500D01*
X85000Y-59750D02*
X85250Y-60000D01*
X74150Y-59750D02*
X85000Y-59750D01*
X74000Y-59900D02*
X74150Y-59750D01*
X74000Y-61750D02*
X74000Y-59900D01*
X73750Y-62000D02*
X74000Y-61750D01*
X73250Y-62000D02*
X73750Y-62000D01*
X72250Y-60000D02*
X72250Y-59750D01*
X88250Y-59500D02*
X88250Y-60500D01*
X88000Y-59250D02*
X88250Y-59500D01*
X72750Y-59250D02*
X88000Y-59250D01*
X72250Y-59750D02*
X72750Y-59250D01*
X73250Y-63000D02*
X72750Y-63000D01*
X72250Y-62500D02*
X72250Y-60000D01*
X72750Y-63000D02*
X72250Y-62500D01*
X67750Y-66000D02*
X65250Y-66000D01*
X63750Y-68500D02*
X62250Y-68500D01*
X64250Y-68000D02*
X63750Y-68500D01*
X64250Y-67000D02*
X64250Y-68000D01*
X65250Y-66000D02*
X64250Y-67000D01*
X68750Y-64500D02*
X68250Y-64500D01*
X67750Y-65000D02*
X67750Y-66000D01*
X68250Y-64500D02*
X67750Y-65000D01*
X68750Y-60500D02*
X68750Y-63000D01*
X69750Y-64000D02*
X70250Y-64000D01*
X68750Y-63000D02*
X69750Y-64000D01*
X61250Y-68000D02*
X61500Y-67750D01*
X61500Y-67750D02*
X61500Y-58500D01*
X60250Y-70500D02*
X60750Y-70500D01*
X61250Y-70000D02*
X61250Y-68000D01*
X60750Y-70500D02*
X61250Y-70000D01*
X65750Y-58000D02*
X65750Y-58500D01*
X65500Y-57750D02*
X65750Y-58000D01*
X62250Y-57750D02*
X65500Y-57750D01*
X61500Y-58500D02*
X62250Y-57750D01*
X60250Y-71500D02*
X61750Y-71500D01*
X62250Y-72000D02*
X62250Y-72500D01*
X61750Y-71500D02*
X62250Y-72000D01*
X107250Y-62000D02*
X105750Y-62000D01*
X105750Y-62000D02*
X105250Y-61500D01*
X105250Y-61500D02*
X87250Y-61500D01*
X86750Y-66000D02*
X88250Y-66000D01*
X84250Y-66000D02*
X86750Y-66000D01*
X62468Y-65468D02*
X66531Y-65468D01*
X66750Y-65250D02*
X66750Y-64500D01*
X66531Y-65468D02*
X66750Y-65250D01*
X62468Y-61531D02*
X63718Y-61531D01*
X64750Y-60500D02*
X64750Y-58500D01*
X63718Y-61531D02*
X64750Y-60500D01*
X74500Y-58500D02*
X73750Y-58500D01*
X73750Y-58500D02*
X71750Y-58500D01*
X70250Y-62000D02*
X71250Y-62000D01*
X71750Y-61500D02*
X71750Y-58500D01*
X71250Y-62000D02*
X71750Y-61500D01*
G54D10*
G36*
X107950Y-74356D02*
X107788Y-74195D01*
X107730Y-74170D01*
X107730Y-61904D01*
X107730Y-60904D01*
X107657Y-60728D01*
X107522Y-60593D01*
X107345Y-60520D01*
X107154Y-60519D01*
X106978Y-60592D01*
X106843Y-60727D01*
X106770Y-60904D01*
X106769Y-61095D01*
X106842Y-61271D01*
X106977Y-61406D01*
X107154Y-61479D01*
X107345Y-61480D01*
X107521Y-61407D01*
X107656Y-61272D01*
X107729Y-61095D01*
X107730Y-60904D01*
X107730Y-61904D01*
X107657Y-61728D01*
X107522Y-61593D01*
X107345Y-61520D01*
X107154Y-61519D01*
X106978Y-61592D01*
X106843Y-61727D01*
X106813Y-61800D01*
X105832Y-61800D01*
X105391Y-61358D01*
X105326Y-61315D01*
X105250Y-61300D01*
X104770Y-61300D01*
X104770Y-58647D01*
X104691Y-58455D01*
X104544Y-58309D01*
X104353Y-58230D01*
X104147Y-58229D01*
X103955Y-58308D01*
X103809Y-58455D01*
X103730Y-58646D01*
X103729Y-58852D01*
X103808Y-59044D01*
X103955Y-59190D01*
X104146Y-59269D01*
X104352Y-59270D01*
X104544Y-59191D01*
X104690Y-59044D01*
X104769Y-58853D01*
X104770Y-58647D01*
X104770Y-61300D01*
X104705Y-61300D01*
X104705Y-60557D01*
X104692Y-60379D01*
X104648Y-60272D01*
X104581Y-60239D01*
X104510Y-60310D01*
X104510Y-60168D01*
X104477Y-60101D01*
X104307Y-60044D01*
X104129Y-60057D01*
X104022Y-60101D01*
X103989Y-60168D01*
X104250Y-60429D01*
X104510Y-60168D01*
X104510Y-60310D01*
X104320Y-60500D01*
X104581Y-60760D01*
X104648Y-60727D01*
X104705Y-60557D01*
X104705Y-61300D01*
X104510Y-61300D01*
X104510Y-60831D01*
X104250Y-60570D01*
X104179Y-60641D01*
X104179Y-60500D01*
X103918Y-60239D01*
X103851Y-60272D01*
X103794Y-60442D01*
X103807Y-60620D01*
X103851Y-60727D01*
X103918Y-60760D01*
X104179Y-60500D01*
X104179Y-60641D01*
X103989Y-60831D01*
X104022Y-60898D01*
X104192Y-60955D01*
X104370Y-60942D01*
X104477Y-60898D01*
X104510Y-60831D01*
X104510Y-61300D01*
X102770Y-61300D01*
X102770Y-58647D01*
X102691Y-58455D01*
X102544Y-58309D01*
X102353Y-58230D01*
X102147Y-58229D01*
X101955Y-58308D01*
X101809Y-58455D01*
X101730Y-58646D01*
X101729Y-58852D01*
X101808Y-59044D01*
X101955Y-59190D01*
X102146Y-59269D01*
X102352Y-59270D01*
X102544Y-59191D01*
X102690Y-59044D01*
X102769Y-58853D01*
X102770Y-58647D01*
X102770Y-61300D01*
X102700Y-61300D01*
X102700Y-60410D01*
X102631Y-60245D01*
X102505Y-60118D01*
X102339Y-60050D01*
X102160Y-60049D01*
X101995Y-60118D01*
X101868Y-60244D01*
X101800Y-60410D01*
X101799Y-60589D01*
X101868Y-60754D01*
X101994Y-60881D01*
X102160Y-60949D01*
X102339Y-60950D01*
X102504Y-60881D01*
X102631Y-60755D01*
X102699Y-60589D01*
X102700Y-60410D01*
X102700Y-61300D01*
X99975Y-61300D01*
X99975Y-60155D01*
X99975Y-60155D01*
X99975Y-59604D01*
X99975Y-58895D01*
X99952Y-58840D01*
X99910Y-58797D01*
X99854Y-58775D01*
X99795Y-58774D01*
X99587Y-58775D01*
X99550Y-58812D01*
X99550Y-59200D01*
X99937Y-59200D01*
X99975Y-59162D01*
X99975Y-58895D01*
X99975Y-59604D01*
X99975Y-59337D01*
X99937Y-59300D01*
X99550Y-59300D01*
X99550Y-59687D01*
X99587Y-59725D01*
X99795Y-59725D01*
X99854Y-59724D01*
X99910Y-59702D01*
X99952Y-59659D01*
X99975Y-59604D01*
X99975Y-60155D01*
X99902Y-59981D01*
X99769Y-59847D01*
X99594Y-59775D01*
X99450Y-59774D01*
X99450Y-59687D01*
X99450Y-59300D01*
X99450Y-59200D01*
X99450Y-58812D01*
X99412Y-58775D01*
X99204Y-58774D01*
X99145Y-58775D01*
X99089Y-58797D01*
X99047Y-58840D01*
X99024Y-58895D01*
X99025Y-59162D01*
X99062Y-59200D01*
X99450Y-59200D01*
X99450Y-59300D01*
X99062Y-59300D01*
X99025Y-59337D01*
X99024Y-59604D01*
X99047Y-59659D01*
X99089Y-59702D01*
X99145Y-59724D01*
X99204Y-59725D01*
X99412Y-59725D01*
X99450Y-59687D01*
X99450Y-59774D01*
X99405Y-59774D01*
X99231Y-59847D01*
X99097Y-59980D01*
X99025Y-60155D01*
X99024Y-60344D01*
X99097Y-60518D01*
X99230Y-60652D01*
X99405Y-60724D01*
X99594Y-60725D01*
X99768Y-60652D01*
X99902Y-60519D01*
X99974Y-60344D01*
X99975Y-60155D01*
X99975Y-61300D01*
X96735Y-61300D01*
X96735Y-59565D01*
X96730Y-59486D01*
X96730Y-58404D01*
X96657Y-58228D01*
X96522Y-58093D01*
X96345Y-58020D01*
X96154Y-58019D01*
X95978Y-58092D01*
X95843Y-58227D01*
X95770Y-58404D01*
X95769Y-58595D01*
X95842Y-58771D01*
X95977Y-58906D01*
X96154Y-58979D01*
X96345Y-58980D01*
X96521Y-58907D01*
X96656Y-58772D01*
X96729Y-58595D01*
X96730Y-58404D01*
X96730Y-59486D01*
X96723Y-59374D01*
X96673Y-59254D01*
X96602Y-59217D01*
X96532Y-59288D01*
X96532Y-59147D01*
X96495Y-59076D01*
X96315Y-59014D01*
X96124Y-59026D01*
X96004Y-59076D01*
X95967Y-59147D01*
X96250Y-59429D01*
X96532Y-59147D01*
X96532Y-59288D01*
X96320Y-59500D01*
X96602Y-59782D01*
X96673Y-59745D01*
X96735Y-59565D01*
X96735Y-61300D01*
X96700Y-61300D01*
X96700Y-60660D01*
X96631Y-60495D01*
X96532Y-60395D01*
X96532Y-59852D01*
X96250Y-59570D01*
X96179Y-59641D01*
X96179Y-59500D01*
X95897Y-59217D01*
X95826Y-59254D01*
X95764Y-59434D01*
X95776Y-59625D01*
X95826Y-59745D01*
X95897Y-59782D01*
X96179Y-59500D01*
X96179Y-59641D01*
X95967Y-59852D01*
X96004Y-59923D01*
X96184Y-59985D01*
X96375Y-59973D01*
X96495Y-59923D01*
X96532Y-59852D01*
X96532Y-60395D01*
X96505Y-60368D01*
X96339Y-60300D01*
X96160Y-60299D01*
X95995Y-60368D01*
X95868Y-60494D01*
X95800Y-60660D01*
X95799Y-60839D01*
X95868Y-61004D01*
X95994Y-61131D01*
X96160Y-61199D01*
X96339Y-61200D01*
X96504Y-61131D01*
X96631Y-61005D01*
X96699Y-60839D01*
X96700Y-60660D01*
X96700Y-61300D01*
X92700Y-61300D01*
X92700Y-60660D01*
X92631Y-60495D01*
X92505Y-60368D01*
X92339Y-60300D01*
X92160Y-60299D01*
X91995Y-60368D01*
X91868Y-60494D01*
X91800Y-60660D01*
X91799Y-60839D01*
X91868Y-61004D01*
X91994Y-61131D01*
X92160Y-61199D01*
X92339Y-61200D01*
X92504Y-61131D01*
X92631Y-61005D01*
X92699Y-60839D01*
X92700Y-60660D01*
X92700Y-61300D01*
X89675Y-61300D01*
X89675Y-60415D01*
X89610Y-60259D01*
X89491Y-60139D01*
X89334Y-60075D01*
X89165Y-60074D01*
X89009Y-60139D01*
X88889Y-60258D01*
X88825Y-60415D01*
X88824Y-60584D01*
X88889Y-60740D01*
X89008Y-60860D01*
X89165Y-60924D01*
X89334Y-60925D01*
X89490Y-60860D01*
X89610Y-60741D01*
X89674Y-60584D01*
X89675Y-60415D01*
X89675Y-61300D01*
X88700Y-61300D01*
X88700Y-58660D01*
X88700Y-57660D01*
X88631Y-57495D01*
X88505Y-57368D01*
X88339Y-57300D01*
X88160Y-57299D01*
X87995Y-57368D01*
X87868Y-57494D01*
X87800Y-57660D01*
X87799Y-57839D01*
X87868Y-58004D01*
X87994Y-58131D01*
X88160Y-58199D01*
X88339Y-58200D01*
X88504Y-58131D01*
X88631Y-58005D01*
X88699Y-57839D01*
X88700Y-57660D01*
X88700Y-58660D01*
X88631Y-58495D01*
X88505Y-58368D01*
X88339Y-58300D01*
X88160Y-58299D01*
X87995Y-58368D01*
X87868Y-58494D01*
X87800Y-58660D01*
X87799Y-58839D01*
X87868Y-59004D01*
X87913Y-59050D01*
X87586Y-59050D01*
X87631Y-59005D01*
X87699Y-58839D01*
X87700Y-58660D01*
X87700Y-57660D01*
X87631Y-57495D01*
X87505Y-57368D01*
X87339Y-57300D01*
X87160Y-57299D01*
X86995Y-57368D01*
X86868Y-57494D01*
X86800Y-57660D01*
X86799Y-57839D01*
X86868Y-58004D01*
X86994Y-58131D01*
X87160Y-58199D01*
X87339Y-58200D01*
X87504Y-58131D01*
X87631Y-58005D01*
X87699Y-57839D01*
X87700Y-57660D01*
X87700Y-58660D01*
X87631Y-58495D01*
X87505Y-58368D01*
X87339Y-58300D01*
X87160Y-58299D01*
X86995Y-58368D01*
X86868Y-58494D01*
X86800Y-58660D01*
X86799Y-58839D01*
X86868Y-59004D01*
X86913Y-59050D01*
X86705Y-59050D01*
X86705Y-57807D01*
X86692Y-57629D01*
X86648Y-57522D01*
X86581Y-57489D01*
X86510Y-57560D01*
X86510Y-57418D01*
X86477Y-57351D01*
X86307Y-57294D01*
X86129Y-57307D01*
X86022Y-57351D01*
X85989Y-57418D01*
X86250Y-57679D01*
X86510Y-57418D01*
X86510Y-57560D01*
X86320Y-57750D01*
X86581Y-58010D01*
X86648Y-57977D01*
X86705Y-57807D01*
X86705Y-59050D01*
X86700Y-59050D01*
X86700Y-59020D01*
X86700Y-58420D01*
X86677Y-58365D01*
X86635Y-58322D01*
X86579Y-58300D01*
X86520Y-58299D01*
X86510Y-58299D01*
X86510Y-58081D01*
X86250Y-57820D01*
X86179Y-57891D01*
X86179Y-57750D01*
X85918Y-57489D01*
X85851Y-57522D01*
X85794Y-57692D01*
X85807Y-57870D01*
X85851Y-57977D01*
X85918Y-58010D01*
X86179Y-57750D01*
X86179Y-57891D01*
X85989Y-58081D01*
X86022Y-58148D01*
X86192Y-58205D01*
X86370Y-58192D01*
X86477Y-58148D01*
X86510Y-58081D01*
X86510Y-58299D01*
X85920Y-58299D01*
X85865Y-58322D01*
X85822Y-58364D01*
X85800Y-58420D01*
X85799Y-58479D01*
X85799Y-59050D01*
X85180Y-59050D01*
X85180Y-57801D01*
X85167Y-57633D01*
X85127Y-57537D01*
X85063Y-57507D01*
X84992Y-57578D01*
X84992Y-57436D01*
X84962Y-57372D01*
X84801Y-57319D01*
X84633Y-57332D01*
X84537Y-57372D01*
X84507Y-57436D01*
X84750Y-57679D01*
X84992Y-57436D01*
X84992Y-57578D01*
X84820Y-57750D01*
X85063Y-57992D01*
X85127Y-57962D01*
X85180Y-57801D01*
X85180Y-59050D01*
X84992Y-59050D01*
X84992Y-58063D01*
X84750Y-57820D01*
X84679Y-57891D01*
X84679Y-57750D01*
X84436Y-57507D01*
X84372Y-57537D01*
X84319Y-57698D01*
X84332Y-57866D01*
X84372Y-57962D01*
X84436Y-57992D01*
X84679Y-57750D01*
X84679Y-57891D01*
X84507Y-58063D01*
X84537Y-58127D01*
X84698Y-58180D01*
X84866Y-58167D01*
X84962Y-58127D01*
X84992Y-58063D01*
X84992Y-59050D01*
X84175Y-59050D01*
X84175Y-57665D01*
X84110Y-57509D01*
X83991Y-57389D01*
X83834Y-57325D01*
X83665Y-57324D01*
X83509Y-57389D01*
X83389Y-57508D01*
X83325Y-57665D01*
X83324Y-57834D01*
X83389Y-57990D01*
X83508Y-58110D01*
X83665Y-58174D01*
X83834Y-58175D01*
X83990Y-58110D01*
X84110Y-57991D01*
X84174Y-57834D01*
X84175Y-57665D01*
X84175Y-59050D01*
X74950Y-59050D01*
X74950Y-58410D01*
X74881Y-58245D01*
X74755Y-58118D01*
X74589Y-58050D01*
X74410Y-58049D01*
X74245Y-58118D01*
X74118Y-58244D01*
X74095Y-58300D01*
X73750Y-58300D01*
X72127Y-58300D01*
X72110Y-58259D01*
X71991Y-58139D01*
X71834Y-58075D01*
X71665Y-58074D01*
X71509Y-58139D01*
X71389Y-58258D01*
X71325Y-58415D01*
X71324Y-58584D01*
X71389Y-58740D01*
X71508Y-58860D01*
X71550Y-58877D01*
X71550Y-61417D01*
X71175Y-61792D01*
X71175Y-58415D01*
X71110Y-58259D01*
X70991Y-58139D01*
X70834Y-58075D01*
X70665Y-58074D01*
X70509Y-58139D01*
X70389Y-58258D01*
X70325Y-58415D01*
X70324Y-58584D01*
X70389Y-58740D01*
X70508Y-58860D01*
X70665Y-58924D01*
X70834Y-58925D01*
X70990Y-58860D01*
X71110Y-58741D01*
X71174Y-58584D01*
X71175Y-58415D01*
X71175Y-61792D01*
X71167Y-61800D01*
X70675Y-61800D01*
X70675Y-60915D01*
X70610Y-60759D01*
X70491Y-60639D01*
X70334Y-60575D01*
X70165Y-60574D01*
X70009Y-60639D01*
X69889Y-60758D01*
X69825Y-60915D01*
X69824Y-61084D01*
X69889Y-61240D01*
X70008Y-61360D01*
X70165Y-61424D01*
X70334Y-61425D01*
X70490Y-61360D01*
X70610Y-61241D01*
X70674Y-61084D01*
X70675Y-60915D01*
X70675Y-61800D01*
X70627Y-61800D01*
X70610Y-61759D01*
X70491Y-61639D01*
X70334Y-61575D01*
X70165Y-61574D01*
X70009Y-61639D01*
X69889Y-61758D01*
X69825Y-61915D01*
X69824Y-62084D01*
X69889Y-62240D01*
X70008Y-62360D01*
X70165Y-62424D01*
X70334Y-62425D01*
X70490Y-62360D01*
X70610Y-62241D01*
X70627Y-62200D01*
X71250Y-62200D01*
X71326Y-62184D01*
X71391Y-62141D01*
X71891Y-61641D01*
X71934Y-61576D01*
X71934Y-61576D01*
X71937Y-61563D01*
X71949Y-61500D01*
X71950Y-61500D01*
X71950Y-58877D01*
X71990Y-58860D01*
X72110Y-58741D01*
X72127Y-58700D01*
X73750Y-58700D01*
X74095Y-58700D01*
X74118Y-58754D01*
X74244Y-58881D01*
X74410Y-58949D01*
X74589Y-58950D01*
X74754Y-58881D01*
X74881Y-58755D01*
X74949Y-58589D01*
X74950Y-58410D01*
X74950Y-59050D01*
X72750Y-59050D01*
X72686Y-59062D01*
X72673Y-59065D01*
X72608Y-59108D01*
X72108Y-59608D01*
X72065Y-59673D01*
X72050Y-59750D01*
X72050Y-60000D01*
X72050Y-62500D01*
X72065Y-62576D01*
X72108Y-62641D01*
X72608Y-63141D01*
X72673Y-63184D01*
X72673Y-63184D01*
X72686Y-63187D01*
X72750Y-63200D01*
X72872Y-63200D01*
X72889Y-63240D01*
X73008Y-63360D01*
X73165Y-63424D01*
X73334Y-63425D01*
X73490Y-63360D01*
X73610Y-63241D01*
X73674Y-63084D01*
X73675Y-62915D01*
X73610Y-62759D01*
X73491Y-62639D01*
X73334Y-62575D01*
X73165Y-62574D01*
X73009Y-62639D01*
X72889Y-62758D01*
X72872Y-62800D01*
X72832Y-62800D01*
X72450Y-62417D01*
X72450Y-60000D01*
X72450Y-59832D01*
X72832Y-59450D01*
X73517Y-59450D01*
X73108Y-59858D01*
X73065Y-59923D01*
X73050Y-60000D01*
X73050Y-60622D01*
X73009Y-60639D01*
X72889Y-60758D01*
X72825Y-60915D01*
X72824Y-61084D01*
X72889Y-61240D01*
X73008Y-61360D01*
X73165Y-61424D01*
X73334Y-61425D01*
X73490Y-61360D01*
X73610Y-61241D01*
X73674Y-61084D01*
X73675Y-60915D01*
X73610Y-60759D01*
X73491Y-60639D01*
X73450Y-60622D01*
X73450Y-60082D01*
X73882Y-59650D01*
X73967Y-59650D01*
X73858Y-59758D01*
X73815Y-59823D01*
X73800Y-59900D01*
X73800Y-61667D01*
X73667Y-61800D01*
X73627Y-61800D01*
X73610Y-61759D01*
X73491Y-61639D01*
X73334Y-61575D01*
X73165Y-61574D01*
X73009Y-61639D01*
X72889Y-61758D01*
X72825Y-61915D01*
X72824Y-62084D01*
X72889Y-62240D01*
X73008Y-62360D01*
X73165Y-62424D01*
X73334Y-62425D01*
X73490Y-62360D01*
X73610Y-62241D01*
X73627Y-62200D01*
X73750Y-62200D01*
X73826Y-62184D01*
X73891Y-62141D01*
X74141Y-61891D01*
X74141Y-61891D01*
X74170Y-61848D01*
X74184Y-61826D01*
X74184Y-61826D01*
X74199Y-61750D01*
X74200Y-61750D01*
X74200Y-59982D01*
X74232Y-59950D01*
X84917Y-59950D01*
X85050Y-60082D01*
X85050Y-60122D01*
X85009Y-60139D01*
X84889Y-60258D01*
X84825Y-60415D01*
X84824Y-60584D01*
X84889Y-60740D01*
X85008Y-60860D01*
X85165Y-60924D01*
X85334Y-60925D01*
X85490Y-60860D01*
X85610Y-60741D01*
X85674Y-60584D01*
X85675Y-60415D01*
X85610Y-60259D01*
X85491Y-60139D01*
X85450Y-60122D01*
X85450Y-60000D01*
X85434Y-59923D01*
X85434Y-59923D01*
X85420Y-59901D01*
X85391Y-59858D01*
X85391Y-59858D01*
X85182Y-59650D01*
X86867Y-59650D01*
X87050Y-59832D01*
X87050Y-60122D01*
X87009Y-60139D01*
X86889Y-60258D01*
X86825Y-60415D01*
X86824Y-60584D01*
X86889Y-60740D01*
X87008Y-60860D01*
X87165Y-60924D01*
X87334Y-60925D01*
X87490Y-60860D01*
X87610Y-60741D01*
X87674Y-60584D01*
X87675Y-60415D01*
X87610Y-60259D01*
X87491Y-60139D01*
X87450Y-60122D01*
X87450Y-59750D01*
X87449Y-59749D01*
X87434Y-59673D01*
X87434Y-59673D01*
X87420Y-59651D01*
X87391Y-59608D01*
X87391Y-59608D01*
X87232Y-59450D01*
X87917Y-59450D01*
X88050Y-59582D01*
X88050Y-60122D01*
X88009Y-60139D01*
X87889Y-60258D01*
X87825Y-60415D01*
X87824Y-60584D01*
X87889Y-60740D01*
X88008Y-60860D01*
X88165Y-60924D01*
X88334Y-60925D01*
X88490Y-60860D01*
X88610Y-60741D01*
X88674Y-60584D01*
X88675Y-60415D01*
X88610Y-60259D01*
X88491Y-60139D01*
X88450Y-60122D01*
X88450Y-59500D01*
X88434Y-59423D01*
X88434Y-59423D01*
X88420Y-59401D01*
X88391Y-59358D01*
X88391Y-59358D01*
X88232Y-59199D01*
X88339Y-59200D01*
X88504Y-59131D01*
X88631Y-59005D01*
X88699Y-58839D01*
X88700Y-58660D01*
X88700Y-61300D01*
X87509Y-61300D01*
X87434Y-61224D01*
X87314Y-61175D01*
X87185Y-61174D01*
X87066Y-61224D01*
X86999Y-61290D01*
X86934Y-61224D01*
X86814Y-61175D01*
X86685Y-61174D01*
X86675Y-61179D01*
X86675Y-60415D01*
X86610Y-60259D01*
X86491Y-60139D01*
X86334Y-60075D01*
X86165Y-60074D01*
X86009Y-60139D01*
X85889Y-60258D01*
X85825Y-60415D01*
X85824Y-60584D01*
X85889Y-60740D01*
X86008Y-60860D01*
X86165Y-60924D01*
X86334Y-60925D01*
X86490Y-60860D01*
X86610Y-60741D01*
X86674Y-60584D01*
X86675Y-60415D01*
X86675Y-61179D01*
X86566Y-61224D01*
X86474Y-61315D01*
X86425Y-61435D01*
X86424Y-61542D01*
X86417Y-61550D01*
X84680Y-61550D01*
X84680Y-60551D01*
X84667Y-60383D01*
X84627Y-60287D01*
X84563Y-60257D01*
X84492Y-60328D01*
X84492Y-60186D01*
X84462Y-60122D01*
X84301Y-60069D01*
X84133Y-60082D01*
X84037Y-60122D01*
X84007Y-60186D01*
X84250Y-60429D01*
X84492Y-60186D01*
X84492Y-60328D01*
X84320Y-60500D01*
X84563Y-60742D01*
X84627Y-60712D01*
X84680Y-60551D01*
X84680Y-61550D01*
X84492Y-61550D01*
X84492Y-60813D01*
X84250Y-60570D01*
X84179Y-60641D01*
X84179Y-60500D01*
X83936Y-60257D01*
X83872Y-60287D01*
X83819Y-60448D01*
X83832Y-60616D01*
X83872Y-60712D01*
X83936Y-60742D01*
X84179Y-60500D01*
X84179Y-60641D01*
X84007Y-60813D01*
X84037Y-60877D01*
X84198Y-60930D01*
X84366Y-60917D01*
X84462Y-60877D01*
X84492Y-60813D01*
X84492Y-61550D01*
X83875Y-61550D01*
X83933Y-61525D01*
X84025Y-61434D01*
X84074Y-61314D01*
X84075Y-61185D01*
X84025Y-61066D01*
X83934Y-60974D01*
X83814Y-60925D01*
X83685Y-60924D01*
X83675Y-60929D01*
X83675Y-60415D01*
X83610Y-60259D01*
X83491Y-60139D01*
X83334Y-60075D01*
X83165Y-60074D01*
X83009Y-60139D01*
X82889Y-60258D01*
X82825Y-60415D01*
X82824Y-60584D01*
X82889Y-60740D01*
X83008Y-60860D01*
X83165Y-60924D01*
X83334Y-60925D01*
X83490Y-60860D01*
X83610Y-60741D01*
X83674Y-60584D01*
X83675Y-60415D01*
X83675Y-60929D01*
X83566Y-60974D01*
X83490Y-61050D01*
X82675Y-61050D01*
X82675Y-60415D01*
X82610Y-60259D01*
X82491Y-60139D01*
X82334Y-60075D01*
X82165Y-60074D01*
X82009Y-60139D01*
X81889Y-60258D01*
X81825Y-60415D01*
X81824Y-60584D01*
X81889Y-60740D01*
X82008Y-60860D01*
X82165Y-60924D01*
X82334Y-60925D01*
X82490Y-60860D01*
X82610Y-60741D01*
X82674Y-60584D01*
X82675Y-60415D01*
X82675Y-61050D01*
X81509Y-61050D01*
X81434Y-60974D01*
X81314Y-60925D01*
X81334Y-60925D01*
X81490Y-60860D01*
X81610Y-60741D01*
X81674Y-60584D01*
X81675Y-60415D01*
X81610Y-60259D01*
X81491Y-60139D01*
X81334Y-60075D01*
X81165Y-60074D01*
X81009Y-60139D01*
X80889Y-60258D01*
X80825Y-60415D01*
X80824Y-60584D01*
X80889Y-60740D01*
X81008Y-60860D01*
X81165Y-60924D01*
X81185Y-60924D01*
X81066Y-60974D01*
X80974Y-61065D01*
X80925Y-61185D01*
X80924Y-61314D01*
X80974Y-61433D01*
X81065Y-61525D01*
X81124Y-61550D01*
X80675Y-61550D01*
X80675Y-60415D01*
X80610Y-60259D01*
X80491Y-60139D01*
X80334Y-60075D01*
X80165Y-60074D01*
X80009Y-60139D01*
X79889Y-60258D01*
X79825Y-60415D01*
X79824Y-60584D01*
X79889Y-60740D01*
X80008Y-60860D01*
X80165Y-60924D01*
X80334Y-60925D01*
X80490Y-60860D01*
X80610Y-60741D01*
X80674Y-60584D01*
X80675Y-60415D01*
X80675Y-61550D01*
X80582Y-61550D01*
X80574Y-61542D01*
X80575Y-61435D01*
X80525Y-61316D01*
X80434Y-61224D01*
X80314Y-61175D01*
X80185Y-61174D01*
X80066Y-61224D01*
X79974Y-61315D01*
X79925Y-61435D01*
X79924Y-61564D01*
X79974Y-61683D01*
X80065Y-61775D01*
X80124Y-61800D01*
X79675Y-61800D01*
X79675Y-60415D01*
X79610Y-60259D01*
X79491Y-60139D01*
X79334Y-60075D01*
X79165Y-60074D01*
X79009Y-60139D01*
X78889Y-60258D01*
X78825Y-60415D01*
X78824Y-60584D01*
X78889Y-60740D01*
X79008Y-60860D01*
X79165Y-60924D01*
X79334Y-60925D01*
X79490Y-60860D01*
X79610Y-60741D01*
X79674Y-60584D01*
X79675Y-60415D01*
X79675Y-61800D01*
X78675Y-61800D01*
X78675Y-60415D01*
X78610Y-60259D01*
X78491Y-60139D01*
X78334Y-60075D01*
X78165Y-60074D01*
X78009Y-60139D01*
X77889Y-60258D01*
X77825Y-60415D01*
X77824Y-60584D01*
X77889Y-60740D01*
X78008Y-60860D01*
X78050Y-60877D01*
X78050Y-60917D01*
X77917Y-61050D01*
X77675Y-61050D01*
X77675Y-60415D01*
X77610Y-60259D01*
X77491Y-60139D01*
X77334Y-60075D01*
X77165Y-60074D01*
X77009Y-60139D01*
X76889Y-60258D01*
X76825Y-60415D01*
X76824Y-60584D01*
X76889Y-60740D01*
X77008Y-60860D01*
X77165Y-60924D01*
X77334Y-60925D01*
X77490Y-60860D01*
X77610Y-60741D01*
X77674Y-60584D01*
X77675Y-60415D01*
X77675Y-61050D01*
X76675Y-61050D01*
X76675Y-60415D01*
X76610Y-60259D01*
X76491Y-60139D01*
X76334Y-60075D01*
X76165Y-60074D01*
X76009Y-60139D01*
X75889Y-60258D01*
X75825Y-60415D01*
X75824Y-60584D01*
X75889Y-60740D01*
X76008Y-60860D01*
X76165Y-60924D01*
X76334Y-60925D01*
X76490Y-60860D01*
X76610Y-60741D01*
X76674Y-60584D01*
X76675Y-60415D01*
X76675Y-61050D01*
X75759Y-61050D01*
X75684Y-60974D01*
X75564Y-60925D01*
X75435Y-60924D01*
X75316Y-60974D01*
X75224Y-61065D01*
X75175Y-61185D01*
X75174Y-61314D01*
X75224Y-61433D01*
X75315Y-61525D01*
X75435Y-61574D01*
X75564Y-61575D01*
X75683Y-61525D01*
X75759Y-61450D01*
X78000Y-61450D01*
X78076Y-61434D01*
X78141Y-61391D01*
X78391Y-61141D01*
X78391Y-61141D01*
X78420Y-61098D01*
X78434Y-61076D01*
X78434Y-61076D01*
X78449Y-61000D01*
X78450Y-61000D01*
X78450Y-60877D01*
X78490Y-60860D01*
X78610Y-60741D01*
X78674Y-60584D01*
X78675Y-60415D01*
X78675Y-61800D01*
X77509Y-61800D01*
X77434Y-61724D01*
X77314Y-61675D01*
X77185Y-61674D01*
X77066Y-61724D01*
X76974Y-61815D01*
X76925Y-61935D01*
X76924Y-62064D01*
X76974Y-62183D01*
X77065Y-62275D01*
X77124Y-62300D01*
X76509Y-62300D01*
X76434Y-62224D01*
X76314Y-62175D01*
X76185Y-62174D01*
X76066Y-62224D01*
X75974Y-62315D01*
X75925Y-62435D01*
X75924Y-62564D01*
X75974Y-62683D01*
X76065Y-62775D01*
X76185Y-62824D01*
X76314Y-62825D01*
X76433Y-62775D01*
X76509Y-62700D01*
X88490Y-62700D01*
X88565Y-62775D01*
X88685Y-62824D01*
X88814Y-62825D01*
X88933Y-62775D01*
X89025Y-62684D01*
X89074Y-62564D01*
X89075Y-62435D01*
X89025Y-62316D01*
X88934Y-62224D01*
X88875Y-62200D01*
X89624Y-62200D01*
X89566Y-62224D01*
X89474Y-62315D01*
X89425Y-62435D01*
X89424Y-62564D01*
X89474Y-62683D01*
X89565Y-62775D01*
X89685Y-62824D01*
X89814Y-62825D01*
X89933Y-62775D01*
X90009Y-62700D01*
X91240Y-62700D01*
X91315Y-62775D01*
X91435Y-62824D01*
X91564Y-62825D01*
X91683Y-62775D01*
X91775Y-62684D01*
X91824Y-62564D01*
X91825Y-62435D01*
X91775Y-62316D01*
X91684Y-62224D01*
X91625Y-62200D01*
X99240Y-62200D01*
X99315Y-62275D01*
X99435Y-62324D01*
X99564Y-62325D01*
X99683Y-62275D01*
X99775Y-62184D01*
X99824Y-62064D01*
X99825Y-61935D01*
X99775Y-61816D01*
X99684Y-61724D01*
X99625Y-61700D01*
X105167Y-61700D01*
X105608Y-62141D01*
X105673Y-62184D01*
X105673Y-62184D01*
X105686Y-62187D01*
X105750Y-62200D01*
X106813Y-62200D01*
X106842Y-62271D01*
X106977Y-62406D01*
X107154Y-62479D01*
X107345Y-62480D01*
X107521Y-62407D01*
X107656Y-62272D01*
X107729Y-62095D01*
X107730Y-61904D01*
X107730Y-74170D01*
X107700Y-74158D01*
X107700Y-67410D01*
X107700Y-63410D01*
X107631Y-63245D01*
X107505Y-63118D01*
X107339Y-63050D01*
X107160Y-63049D01*
X106995Y-63118D01*
X106868Y-63244D01*
X106800Y-63410D01*
X106799Y-63589D01*
X106868Y-63754D01*
X106994Y-63881D01*
X107160Y-63949D01*
X107339Y-63950D01*
X107504Y-63881D01*
X107631Y-63755D01*
X107699Y-63589D01*
X107700Y-63410D01*
X107700Y-67410D01*
X107631Y-67245D01*
X107505Y-67118D01*
X107339Y-67050D01*
X107160Y-67049D01*
X106995Y-67118D01*
X106868Y-67244D01*
X106800Y-67410D01*
X106799Y-67589D01*
X106868Y-67754D01*
X106994Y-67881D01*
X107160Y-67949D01*
X107339Y-67950D01*
X107504Y-67881D01*
X107631Y-67755D01*
X107699Y-67589D01*
X107700Y-67410D01*
X107700Y-74158D01*
X107439Y-74050D01*
X107061Y-74049D01*
X106712Y-74194D01*
X106445Y-74461D01*
X106300Y-74810D01*
X106299Y-75188D01*
X106444Y-75537D01*
X106711Y-75804D01*
X107060Y-75949D01*
X107249Y-75950D01*
X105785Y-75950D01*
X105785Y-64870D01*
X105785Y-62902D01*
X105697Y-62690D01*
X105536Y-62528D01*
X105324Y-62441D01*
X105096Y-62440D01*
X104884Y-62528D01*
X104722Y-62689D01*
X104635Y-62901D01*
X104634Y-63129D01*
X104722Y-63341D01*
X104883Y-63503D01*
X105095Y-63590D01*
X105323Y-63591D01*
X105535Y-63503D01*
X105697Y-63342D01*
X105784Y-63130D01*
X105785Y-62902D01*
X105785Y-64870D01*
X105697Y-64658D01*
X105536Y-64496D01*
X105324Y-64409D01*
X105096Y-64408D01*
X104884Y-64496D01*
X104722Y-64657D01*
X104670Y-64784D01*
X100865Y-64784D01*
X100865Y-62902D01*
X100777Y-62690D01*
X100616Y-62528D01*
X100404Y-62441D01*
X100176Y-62440D01*
X99964Y-62528D01*
X99802Y-62689D01*
X99715Y-62901D01*
X99714Y-63129D01*
X99802Y-63341D01*
X99963Y-63503D01*
X100175Y-63590D01*
X100403Y-63591D01*
X100615Y-63503D01*
X100777Y-63342D01*
X100864Y-63130D01*
X100865Y-62902D01*
X100865Y-64784D01*
X100829Y-64784D01*
X100777Y-64658D01*
X100616Y-64496D01*
X100404Y-64409D01*
X100176Y-64408D01*
X99964Y-64496D01*
X99802Y-64657D01*
X99750Y-64784D01*
X99743Y-64784D01*
X99684Y-64724D01*
X99564Y-64675D01*
X99435Y-64674D01*
X99316Y-64724D01*
X99224Y-64815D01*
X99175Y-64935D01*
X99174Y-65064D01*
X99224Y-65183D01*
X99315Y-65275D01*
X99435Y-65324D01*
X99564Y-65325D01*
X99683Y-65275D01*
X99757Y-65201D01*
X99802Y-65309D01*
X99963Y-65471D01*
X100175Y-65558D01*
X100403Y-65559D01*
X100615Y-65471D01*
X100777Y-65310D01*
X100829Y-65184D01*
X104670Y-65184D01*
X104722Y-65309D01*
X104883Y-65471D01*
X105095Y-65558D01*
X105323Y-65559D01*
X105535Y-65471D01*
X105697Y-65310D01*
X105784Y-65098D01*
X105785Y-64870D01*
X105785Y-75950D01*
X104309Y-75950D01*
X104309Y-75096D01*
X104309Y-70176D01*
X104221Y-69964D01*
X104060Y-69802D01*
X103848Y-69715D01*
X103620Y-69714D01*
X103408Y-69802D01*
X103246Y-69963D01*
X103230Y-70004D01*
X103230Y-68404D01*
X103230Y-67404D01*
X103157Y-67228D01*
X103022Y-67093D01*
X102845Y-67020D01*
X102654Y-67019D01*
X102478Y-67092D01*
X102343Y-67227D01*
X102270Y-67404D01*
X102269Y-67595D01*
X102342Y-67771D01*
X102477Y-67906D01*
X102654Y-67979D01*
X102845Y-67980D01*
X103021Y-67907D01*
X103156Y-67772D01*
X103229Y-67595D01*
X103230Y-67404D01*
X103230Y-68404D01*
X103157Y-68228D01*
X103022Y-68093D01*
X102845Y-68020D01*
X102654Y-68019D01*
X102478Y-68092D01*
X102343Y-68227D01*
X102313Y-68300D01*
X100575Y-68300D01*
X100575Y-67435D01*
X100525Y-67316D01*
X100434Y-67224D01*
X100314Y-67175D01*
X100185Y-67174D01*
X100066Y-67224D01*
X99990Y-67300D01*
X98785Y-67300D01*
X98785Y-64870D01*
X98785Y-62902D01*
X98697Y-62690D01*
X98536Y-62528D01*
X98324Y-62441D01*
X98096Y-62440D01*
X97884Y-62528D01*
X97722Y-62689D01*
X97635Y-62901D01*
X97634Y-63129D01*
X97722Y-63341D01*
X97883Y-63503D01*
X98095Y-63590D01*
X98323Y-63591D01*
X98535Y-63503D01*
X98697Y-63342D01*
X98784Y-63130D01*
X98785Y-62902D01*
X98785Y-64870D01*
X98697Y-64658D01*
X98536Y-64496D01*
X98324Y-64409D01*
X98096Y-64408D01*
X97884Y-64496D01*
X97722Y-64657D01*
X97670Y-64784D01*
X93865Y-64784D01*
X93865Y-62902D01*
X93777Y-62690D01*
X93616Y-62528D01*
X93404Y-62441D01*
X93176Y-62440D01*
X92964Y-62528D01*
X92802Y-62689D01*
X92715Y-62901D01*
X92714Y-63129D01*
X92802Y-63341D01*
X92963Y-63503D01*
X93175Y-63590D01*
X93403Y-63591D01*
X93615Y-63503D01*
X93777Y-63342D01*
X93864Y-63130D01*
X93865Y-62902D01*
X93865Y-64784D01*
X93829Y-64784D01*
X93777Y-64658D01*
X93616Y-64496D01*
X93404Y-64409D01*
X93176Y-64408D01*
X92964Y-64496D01*
X92802Y-64657D01*
X92750Y-64784D01*
X89675Y-64784D01*
X89675Y-63415D01*
X89610Y-63259D01*
X89491Y-63139D01*
X89334Y-63075D01*
X89165Y-63074D01*
X89009Y-63139D01*
X88889Y-63258D01*
X88825Y-63415D01*
X88824Y-63584D01*
X88889Y-63740D01*
X89008Y-63860D01*
X89165Y-63924D01*
X89334Y-63925D01*
X89490Y-63860D01*
X89610Y-63741D01*
X89674Y-63584D01*
X89675Y-63415D01*
X89675Y-64784D01*
X88993Y-64784D01*
X88934Y-64724D01*
X88814Y-64675D01*
X88685Y-64674D01*
X88675Y-64679D01*
X88675Y-63415D01*
X88610Y-63259D01*
X88491Y-63139D01*
X88334Y-63075D01*
X88165Y-63074D01*
X88009Y-63139D01*
X87889Y-63258D01*
X87825Y-63415D01*
X87824Y-63584D01*
X87889Y-63740D01*
X88008Y-63860D01*
X88165Y-63924D01*
X88334Y-63925D01*
X88490Y-63860D01*
X88610Y-63741D01*
X88674Y-63584D01*
X88675Y-63415D01*
X88675Y-64679D01*
X88566Y-64724D01*
X88474Y-64815D01*
X88425Y-64935D01*
X88424Y-65064D01*
X88474Y-65183D01*
X88565Y-65275D01*
X88685Y-65324D01*
X88814Y-65325D01*
X88933Y-65275D01*
X89025Y-65184D01*
X89025Y-65184D01*
X92750Y-65184D01*
X92802Y-65309D01*
X92963Y-65471D01*
X93175Y-65558D01*
X93403Y-65559D01*
X93615Y-65471D01*
X93777Y-65310D01*
X93829Y-65184D01*
X97670Y-65184D01*
X97722Y-65309D01*
X97883Y-65471D01*
X98095Y-65558D01*
X98323Y-65559D01*
X98535Y-65471D01*
X98697Y-65310D01*
X98784Y-65098D01*
X98785Y-64870D01*
X98785Y-67300D01*
X97936Y-67300D01*
X97907Y-67228D01*
X97772Y-67093D01*
X97595Y-67020D01*
X97404Y-67019D01*
X97228Y-67092D01*
X97093Y-67227D01*
X97020Y-67404D01*
X97019Y-67595D01*
X97092Y-67771D01*
X97227Y-67906D01*
X97404Y-67979D01*
X97595Y-67980D01*
X97771Y-67907D01*
X97906Y-67772D01*
X97936Y-67700D01*
X99990Y-67700D01*
X100065Y-67775D01*
X100185Y-67824D01*
X100314Y-67825D01*
X100433Y-67775D01*
X100525Y-67684D01*
X100574Y-67564D01*
X100575Y-67435D01*
X100575Y-68300D01*
X100509Y-68300D01*
X100434Y-68224D01*
X100314Y-68175D01*
X100185Y-68174D01*
X100066Y-68224D01*
X99974Y-68315D01*
X99925Y-68435D01*
X99924Y-68564D01*
X99974Y-68683D01*
X100065Y-68775D01*
X100185Y-68824D01*
X100314Y-68825D01*
X100433Y-68775D01*
X100509Y-68700D01*
X102313Y-68700D01*
X102342Y-68771D01*
X102477Y-68906D01*
X102654Y-68979D01*
X102845Y-68980D01*
X103021Y-68907D01*
X103156Y-68772D01*
X103229Y-68595D01*
X103230Y-68404D01*
X103230Y-70004D01*
X103159Y-70175D01*
X103158Y-70403D01*
X103246Y-70615D01*
X103407Y-70777D01*
X103619Y-70864D01*
X103847Y-70865D01*
X104059Y-70777D01*
X104221Y-70616D01*
X104308Y-70404D01*
X104309Y-70176D01*
X104309Y-75096D01*
X104221Y-74884D01*
X104075Y-74737D01*
X104075Y-71685D01*
X104025Y-71566D01*
X103934Y-71474D01*
X103814Y-71425D01*
X103685Y-71424D01*
X103566Y-71474D01*
X103490Y-71550D01*
X102341Y-71550D01*
X102341Y-70176D01*
X102253Y-69964D01*
X102092Y-69802D01*
X101880Y-69715D01*
X101652Y-69714D01*
X101440Y-69802D01*
X101278Y-69963D01*
X101191Y-70175D01*
X101190Y-70403D01*
X101278Y-70615D01*
X101439Y-70777D01*
X101651Y-70864D01*
X101879Y-70865D01*
X102091Y-70777D01*
X102253Y-70616D01*
X102340Y-70404D01*
X102341Y-70176D01*
X102341Y-71550D01*
X100375Y-71550D01*
X100433Y-71525D01*
X100525Y-71434D01*
X100574Y-71314D01*
X100575Y-71185D01*
X100525Y-71066D01*
X100434Y-70974D01*
X100314Y-70925D01*
X100185Y-70924D01*
X100066Y-70974D01*
X99990Y-71050D01*
X99059Y-71050D01*
X99059Y-70176D01*
X98971Y-69964D01*
X98810Y-69802D01*
X98598Y-69715D01*
X98370Y-69714D01*
X98158Y-69802D01*
X97996Y-69963D01*
X97985Y-69992D01*
X97985Y-68565D01*
X97973Y-68374D01*
X97923Y-68254D01*
X97852Y-68217D01*
X97782Y-68288D01*
X97782Y-68147D01*
X97745Y-68076D01*
X97565Y-68014D01*
X97374Y-68026D01*
X97254Y-68076D01*
X97217Y-68147D01*
X97500Y-68429D01*
X97782Y-68147D01*
X97782Y-68288D01*
X97570Y-68500D01*
X97852Y-68782D01*
X97923Y-68745D01*
X97985Y-68565D01*
X97985Y-69992D01*
X97909Y-70175D01*
X97908Y-70403D01*
X97996Y-70615D01*
X98157Y-70777D01*
X98369Y-70864D01*
X98597Y-70865D01*
X98809Y-70777D01*
X98971Y-70616D01*
X99058Y-70404D01*
X99059Y-70176D01*
X99059Y-71050D01*
X97782Y-71050D01*
X97782Y-68852D01*
X97500Y-68570D01*
X97429Y-68641D01*
X97429Y-68500D01*
X97147Y-68217D01*
X97076Y-68254D01*
X97014Y-68434D01*
X97026Y-68625D01*
X97076Y-68745D01*
X97147Y-68782D01*
X97429Y-68500D01*
X97429Y-68641D01*
X97217Y-68852D01*
X97254Y-68923D01*
X97434Y-68985D01*
X97625Y-68973D01*
X97745Y-68923D01*
X97782Y-68852D01*
X97782Y-71050D01*
X97091Y-71050D01*
X97091Y-70176D01*
X97003Y-69964D01*
X96842Y-69802D01*
X96630Y-69715D01*
X96402Y-69714D01*
X96190Y-69802D01*
X96028Y-69963D01*
X95941Y-70175D01*
X95940Y-70403D01*
X96028Y-70615D01*
X96189Y-70777D01*
X96401Y-70864D01*
X96629Y-70865D01*
X96841Y-70777D01*
X97003Y-70616D01*
X97090Y-70404D01*
X97091Y-70176D01*
X97091Y-71050D01*
X93809Y-71050D01*
X93809Y-70176D01*
X93721Y-69964D01*
X93560Y-69802D01*
X93348Y-69715D01*
X93120Y-69714D01*
X92908Y-69802D01*
X92746Y-69963D01*
X92730Y-70004D01*
X92730Y-68404D01*
X92730Y-67404D01*
X92657Y-67228D01*
X92522Y-67093D01*
X92345Y-67020D01*
X92154Y-67019D01*
X91978Y-67092D01*
X91843Y-67227D01*
X91770Y-67404D01*
X91769Y-67595D01*
X91842Y-67771D01*
X91977Y-67906D01*
X92154Y-67979D01*
X92345Y-67980D01*
X92521Y-67907D01*
X92656Y-67772D01*
X92729Y-67595D01*
X92730Y-67404D01*
X92730Y-68404D01*
X92657Y-68228D01*
X92522Y-68093D01*
X92345Y-68020D01*
X92154Y-68019D01*
X91978Y-68092D01*
X91843Y-68227D01*
X91813Y-68300D01*
X91205Y-68300D01*
X91205Y-66057D01*
X91192Y-65879D01*
X91148Y-65772D01*
X91081Y-65739D01*
X91010Y-65810D01*
X91010Y-65668D01*
X90977Y-65601D01*
X90807Y-65544D01*
X90629Y-65557D01*
X90522Y-65601D01*
X90489Y-65668D01*
X90750Y-65929D01*
X91010Y-65668D01*
X91010Y-65810D01*
X90820Y-66000D01*
X91081Y-66260D01*
X91148Y-66227D01*
X91205Y-66057D01*
X91205Y-68300D01*
X91010Y-68300D01*
X91010Y-66331D01*
X90750Y-66070D01*
X90679Y-66141D01*
X90679Y-66000D01*
X90418Y-65739D01*
X90351Y-65772D01*
X90294Y-65942D01*
X90307Y-66120D01*
X90351Y-66227D01*
X90418Y-66260D01*
X90679Y-66000D01*
X90679Y-66141D01*
X90489Y-66331D01*
X90522Y-66398D01*
X90692Y-66455D01*
X90870Y-66442D01*
X90977Y-66398D01*
X91010Y-66331D01*
X91010Y-68300D01*
X90575Y-68300D01*
X90575Y-67435D01*
X90525Y-67316D01*
X90434Y-67224D01*
X90314Y-67175D01*
X90185Y-67174D01*
X90066Y-67224D01*
X89990Y-67300D01*
X88575Y-67300D01*
X88575Y-65935D01*
X88525Y-65816D01*
X88434Y-65724D01*
X88314Y-65675D01*
X88185Y-65674D01*
X88075Y-65720D01*
X88075Y-64435D01*
X88025Y-64316D01*
X87934Y-64224D01*
X87814Y-64175D01*
X87685Y-64174D01*
X87675Y-64179D01*
X87675Y-63415D01*
X87610Y-63259D01*
X87491Y-63139D01*
X87334Y-63075D01*
X87165Y-63074D01*
X87009Y-63139D01*
X86889Y-63258D01*
X86825Y-63415D01*
X86824Y-63584D01*
X86889Y-63740D01*
X87008Y-63860D01*
X87165Y-63924D01*
X87334Y-63925D01*
X87490Y-63860D01*
X87610Y-63741D01*
X87674Y-63584D01*
X87675Y-63415D01*
X87675Y-64179D01*
X87566Y-64224D01*
X87490Y-64300D01*
X86675Y-64300D01*
X86675Y-63415D01*
X86610Y-63259D01*
X86491Y-63139D01*
X86334Y-63075D01*
X86165Y-63074D01*
X86009Y-63139D01*
X85889Y-63258D01*
X85825Y-63415D01*
X85824Y-63584D01*
X85889Y-63740D01*
X86008Y-63860D01*
X86165Y-63924D01*
X86334Y-63925D01*
X86490Y-63860D01*
X86610Y-63741D01*
X86674Y-63584D01*
X86675Y-63415D01*
X86675Y-64300D01*
X85675Y-64300D01*
X85675Y-63415D01*
X85610Y-63259D01*
X85491Y-63139D01*
X85334Y-63075D01*
X85165Y-63074D01*
X85009Y-63139D01*
X84889Y-63258D01*
X84825Y-63415D01*
X84824Y-63584D01*
X84889Y-63740D01*
X85008Y-63860D01*
X85165Y-63924D01*
X85334Y-63925D01*
X85490Y-63860D01*
X85610Y-63741D01*
X85674Y-63584D01*
X85675Y-63415D01*
X85675Y-64300D01*
X84675Y-64300D01*
X84675Y-63415D01*
X84610Y-63259D01*
X84491Y-63139D01*
X84334Y-63075D01*
X84165Y-63074D01*
X84009Y-63139D01*
X83889Y-63258D01*
X83825Y-63415D01*
X83824Y-63584D01*
X83889Y-63740D01*
X84008Y-63860D01*
X84165Y-63924D01*
X84334Y-63925D01*
X84490Y-63860D01*
X84610Y-63741D01*
X84674Y-63584D01*
X84675Y-63415D01*
X84675Y-64300D01*
X83675Y-64300D01*
X83675Y-63415D01*
X83610Y-63259D01*
X83491Y-63139D01*
X83334Y-63075D01*
X83165Y-63074D01*
X83009Y-63139D01*
X82889Y-63258D01*
X82825Y-63415D01*
X82824Y-63584D01*
X82889Y-63740D01*
X83008Y-63860D01*
X83165Y-63924D01*
X83334Y-63925D01*
X83490Y-63860D01*
X83610Y-63741D01*
X83674Y-63584D01*
X83675Y-63415D01*
X83675Y-64300D01*
X82680Y-64300D01*
X82680Y-63551D01*
X82667Y-63383D01*
X82627Y-63287D01*
X82563Y-63257D01*
X82492Y-63328D01*
X82492Y-63186D01*
X82462Y-63122D01*
X82301Y-63069D01*
X82133Y-63082D01*
X82037Y-63122D01*
X82007Y-63186D01*
X82250Y-63429D01*
X82492Y-63186D01*
X82492Y-63328D01*
X82320Y-63500D01*
X82563Y-63742D01*
X82627Y-63712D01*
X82680Y-63551D01*
X82680Y-64300D01*
X82492Y-64300D01*
X82492Y-63813D01*
X82250Y-63570D01*
X82179Y-63641D01*
X82179Y-63500D01*
X81936Y-63257D01*
X81872Y-63287D01*
X81819Y-63448D01*
X81832Y-63616D01*
X81872Y-63712D01*
X81936Y-63742D01*
X82179Y-63500D01*
X82179Y-63641D01*
X82007Y-63813D01*
X82037Y-63877D01*
X82198Y-63930D01*
X82366Y-63917D01*
X82462Y-63877D01*
X82492Y-63813D01*
X82492Y-64300D01*
X81675Y-64300D01*
X81675Y-63415D01*
X81610Y-63259D01*
X81491Y-63139D01*
X81334Y-63075D01*
X81165Y-63074D01*
X81009Y-63139D01*
X80889Y-63258D01*
X80825Y-63415D01*
X80824Y-63584D01*
X80889Y-63740D01*
X81008Y-63860D01*
X81165Y-63924D01*
X81334Y-63925D01*
X81490Y-63860D01*
X81610Y-63741D01*
X81674Y-63584D01*
X81675Y-63415D01*
X81675Y-64300D01*
X80675Y-64300D01*
X80675Y-63415D01*
X80610Y-63259D01*
X80491Y-63139D01*
X80334Y-63075D01*
X80165Y-63074D01*
X80009Y-63139D01*
X79889Y-63258D01*
X79825Y-63415D01*
X79824Y-63584D01*
X79889Y-63740D01*
X80008Y-63860D01*
X80165Y-63924D01*
X80334Y-63925D01*
X80490Y-63860D01*
X80610Y-63741D01*
X80674Y-63584D01*
X80675Y-63415D01*
X80675Y-64300D01*
X79675Y-64300D01*
X79675Y-63415D01*
X79610Y-63259D01*
X79491Y-63139D01*
X79334Y-63075D01*
X79165Y-63074D01*
X79009Y-63139D01*
X78889Y-63258D01*
X78825Y-63415D01*
X78824Y-63584D01*
X78889Y-63740D01*
X79008Y-63860D01*
X79165Y-63924D01*
X79334Y-63925D01*
X79490Y-63860D01*
X79610Y-63741D01*
X79674Y-63584D01*
X79675Y-63415D01*
X79675Y-64300D01*
X78675Y-64300D01*
X78675Y-63415D01*
X78610Y-63259D01*
X78491Y-63139D01*
X78334Y-63075D01*
X78165Y-63074D01*
X78009Y-63139D01*
X77889Y-63258D01*
X77825Y-63415D01*
X77824Y-63584D01*
X77889Y-63740D01*
X78008Y-63860D01*
X78165Y-63924D01*
X78334Y-63925D01*
X78490Y-63860D01*
X78610Y-63741D01*
X78674Y-63584D01*
X78675Y-63415D01*
X78675Y-64300D01*
X78250Y-64300D01*
X78186Y-64312D01*
X78173Y-64315D01*
X78108Y-64358D01*
X77675Y-64792D01*
X77675Y-63415D01*
X77610Y-63259D01*
X77491Y-63139D01*
X77334Y-63075D01*
X77165Y-63074D01*
X77009Y-63139D01*
X76889Y-63258D01*
X76825Y-63415D01*
X76824Y-63584D01*
X76889Y-63740D01*
X77008Y-63860D01*
X77165Y-63924D01*
X77334Y-63925D01*
X77490Y-63860D01*
X77610Y-63741D01*
X77674Y-63584D01*
X77675Y-63415D01*
X77675Y-64792D01*
X77608Y-64858D01*
X77565Y-64923D01*
X77550Y-65000D01*
X77550Y-65595D01*
X77495Y-65618D01*
X77368Y-65744D01*
X77345Y-65800D01*
X76675Y-65800D01*
X76675Y-63745D01*
X76675Y-63195D01*
X76652Y-63140D01*
X76610Y-63097D01*
X76554Y-63075D01*
X76495Y-63074D01*
X75945Y-63074D01*
X75890Y-63097D01*
X75847Y-63139D01*
X75825Y-63195D01*
X75824Y-63254D01*
X75824Y-63804D01*
X75847Y-63859D01*
X75889Y-63902D01*
X75945Y-63924D01*
X76004Y-63925D01*
X76554Y-63925D01*
X76609Y-63902D01*
X76652Y-63860D01*
X76674Y-63804D01*
X76675Y-63745D01*
X76675Y-65800D01*
X76509Y-65800D01*
X76434Y-65724D01*
X76314Y-65675D01*
X76185Y-65674D01*
X76066Y-65724D01*
X75974Y-65815D01*
X75925Y-65935D01*
X75924Y-66064D01*
X75974Y-66183D01*
X76065Y-66275D01*
X76185Y-66324D01*
X76314Y-66325D01*
X76433Y-66275D01*
X76509Y-66200D01*
X77345Y-66200D01*
X77368Y-66254D01*
X77494Y-66381D01*
X77660Y-66449D01*
X77839Y-66450D01*
X78004Y-66381D01*
X78131Y-66255D01*
X78199Y-66089D01*
X78200Y-65910D01*
X78131Y-65745D01*
X78005Y-65618D01*
X77950Y-65595D01*
X77950Y-65082D01*
X78332Y-64700D01*
X80124Y-64700D01*
X80066Y-64724D01*
X79974Y-64815D01*
X79925Y-64935D01*
X79924Y-65064D01*
X79974Y-65183D01*
X80065Y-65275D01*
X80185Y-65324D01*
X80314Y-65325D01*
X80433Y-65275D01*
X80509Y-65200D01*
X82490Y-65200D01*
X82565Y-65275D01*
X82685Y-65324D01*
X82814Y-65325D01*
X82933Y-65275D01*
X83025Y-65184D01*
X83074Y-65064D01*
X83075Y-64935D01*
X83025Y-64816D01*
X82934Y-64724D01*
X82875Y-64700D01*
X87490Y-64700D01*
X87565Y-64775D01*
X87685Y-64824D01*
X87814Y-64825D01*
X87933Y-64775D01*
X88025Y-64684D01*
X88074Y-64564D01*
X88075Y-64435D01*
X88075Y-65720D01*
X88066Y-65724D01*
X87990Y-65800D01*
X87154Y-65800D01*
X87131Y-65745D01*
X87005Y-65618D01*
X86857Y-65557D01*
X86933Y-65525D01*
X87025Y-65434D01*
X87074Y-65314D01*
X87075Y-65185D01*
X87025Y-65066D01*
X86934Y-64974D01*
X86814Y-64925D01*
X86685Y-64924D01*
X86566Y-64974D01*
X86490Y-65050D01*
X86009Y-65050D01*
X85934Y-64974D01*
X85814Y-64925D01*
X85685Y-64924D01*
X85566Y-64974D01*
X85474Y-65065D01*
X85425Y-65185D01*
X85424Y-65314D01*
X85474Y-65433D01*
X85565Y-65525D01*
X85685Y-65574D01*
X85814Y-65575D01*
X85933Y-65525D01*
X86009Y-65450D01*
X86490Y-65450D01*
X86565Y-65525D01*
X86642Y-65557D01*
X86495Y-65618D01*
X86368Y-65744D01*
X86345Y-65800D01*
X84654Y-65800D01*
X84631Y-65745D01*
X84505Y-65618D01*
X84339Y-65550D01*
X84160Y-65549D01*
X83995Y-65618D01*
X83868Y-65744D01*
X83800Y-65910D01*
X83799Y-66089D01*
X83868Y-66254D01*
X83994Y-66381D01*
X84160Y-66449D01*
X84339Y-66450D01*
X84504Y-66381D01*
X84631Y-66255D01*
X84654Y-66200D01*
X86345Y-66200D01*
X86368Y-66254D01*
X86494Y-66381D01*
X86660Y-66449D01*
X86839Y-66450D01*
X87004Y-66381D01*
X87131Y-66255D01*
X87154Y-66200D01*
X87990Y-66200D01*
X88065Y-66275D01*
X88185Y-66324D01*
X88314Y-66325D01*
X88433Y-66275D01*
X88525Y-66184D01*
X88574Y-66064D01*
X88575Y-65935D01*
X88575Y-67300D01*
X87436Y-67300D01*
X87407Y-67228D01*
X87272Y-67093D01*
X87200Y-67063D01*
X87200Y-67000D01*
X87184Y-66923D01*
X87184Y-66923D01*
X87170Y-66901D01*
X87141Y-66858D01*
X87141Y-66858D01*
X86891Y-66608D01*
X86826Y-66565D01*
X86750Y-66550D01*
X86009Y-66550D01*
X85934Y-66474D01*
X85814Y-66425D01*
X85685Y-66424D01*
X85566Y-66474D01*
X85474Y-66565D01*
X85425Y-66685D01*
X85424Y-66814D01*
X85474Y-66933D01*
X85565Y-67025D01*
X85685Y-67074D01*
X85814Y-67075D01*
X85933Y-67025D01*
X86009Y-66950D01*
X86667Y-66950D01*
X86786Y-67068D01*
X86728Y-67092D01*
X86593Y-67227D01*
X86520Y-67404D01*
X86519Y-67595D01*
X86592Y-67771D01*
X86727Y-67906D01*
X86904Y-67979D01*
X87095Y-67980D01*
X87271Y-67907D01*
X87406Y-67772D01*
X87436Y-67700D01*
X89990Y-67700D01*
X90065Y-67775D01*
X90185Y-67824D01*
X90314Y-67825D01*
X90433Y-67775D01*
X90525Y-67684D01*
X90574Y-67564D01*
X90575Y-67435D01*
X90575Y-68300D01*
X90509Y-68300D01*
X90434Y-68224D01*
X90314Y-68175D01*
X90185Y-68174D01*
X90066Y-68224D01*
X89974Y-68315D01*
X89925Y-68435D01*
X89924Y-68564D01*
X89974Y-68683D01*
X90065Y-68775D01*
X90185Y-68824D01*
X90314Y-68825D01*
X90433Y-68775D01*
X90509Y-68700D01*
X91813Y-68700D01*
X91842Y-68771D01*
X91977Y-68906D01*
X92154Y-68979D01*
X92345Y-68980D01*
X92521Y-68907D01*
X92656Y-68772D01*
X92729Y-68595D01*
X92730Y-68404D01*
X92730Y-70004D01*
X92659Y-70175D01*
X92658Y-70403D01*
X92746Y-70615D01*
X92907Y-70777D01*
X93119Y-70864D01*
X93347Y-70865D01*
X93559Y-70777D01*
X93721Y-70616D01*
X93808Y-70404D01*
X93809Y-70176D01*
X93809Y-71050D01*
X91841Y-71050D01*
X91841Y-70176D01*
X91753Y-69964D01*
X91592Y-69802D01*
X91380Y-69715D01*
X91152Y-69714D01*
X90940Y-69802D01*
X90778Y-69963D01*
X90691Y-70175D01*
X90690Y-70403D01*
X90778Y-70615D01*
X90939Y-70777D01*
X91151Y-70864D01*
X91379Y-70865D01*
X91591Y-70777D01*
X91753Y-70616D01*
X91840Y-70404D01*
X91841Y-70176D01*
X91841Y-71050D01*
X88559Y-71050D01*
X88559Y-70176D01*
X88471Y-69964D01*
X88310Y-69802D01*
X88098Y-69715D01*
X87870Y-69714D01*
X87658Y-69802D01*
X87496Y-69963D01*
X87485Y-69992D01*
X87485Y-68565D01*
X87473Y-68374D01*
X87423Y-68254D01*
X87352Y-68217D01*
X87282Y-68288D01*
X87282Y-68147D01*
X87245Y-68076D01*
X87065Y-68014D01*
X86874Y-68026D01*
X86754Y-68076D01*
X86717Y-68147D01*
X87000Y-68429D01*
X87282Y-68147D01*
X87282Y-68288D01*
X87070Y-68500D01*
X87352Y-68782D01*
X87423Y-68745D01*
X87485Y-68565D01*
X87485Y-69992D01*
X87409Y-70175D01*
X87408Y-70403D01*
X87496Y-70615D01*
X87657Y-70777D01*
X87869Y-70864D01*
X88097Y-70865D01*
X88309Y-70777D01*
X88471Y-70616D01*
X88558Y-70404D01*
X88559Y-70176D01*
X88559Y-71050D01*
X87282Y-71050D01*
X87282Y-68852D01*
X87000Y-68570D01*
X86929Y-68641D01*
X86929Y-68500D01*
X86647Y-68217D01*
X86576Y-68254D01*
X86514Y-68434D01*
X86526Y-68625D01*
X86576Y-68745D01*
X86647Y-68782D01*
X86929Y-68500D01*
X86929Y-68641D01*
X86717Y-68852D01*
X86754Y-68923D01*
X86934Y-68985D01*
X87125Y-68973D01*
X87245Y-68923D01*
X87282Y-68852D01*
X87282Y-71050D01*
X86591Y-71050D01*
X86591Y-70176D01*
X86503Y-69964D01*
X86342Y-69802D01*
X86130Y-69715D01*
X85902Y-69714D01*
X85690Y-69802D01*
X85528Y-69963D01*
X85441Y-70175D01*
X85440Y-70403D01*
X85528Y-70615D01*
X85689Y-70777D01*
X85901Y-70864D01*
X86129Y-70865D01*
X86341Y-70777D01*
X86503Y-70616D01*
X86590Y-70404D01*
X86591Y-70176D01*
X86591Y-71050D01*
X84009Y-71050D01*
X83934Y-70974D01*
X83814Y-70925D01*
X83685Y-70924D01*
X83566Y-70974D01*
X83474Y-71065D01*
X83425Y-71185D01*
X83424Y-71314D01*
X83474Y-71433D01*
X83565Y-71525D01*
X83685Y-71574D01*
X83814Y-71575D01*
X83933Y-71525D01*
X84009Y-71450D01*
X92124Y-71450D01*
X92066Y-71474D01*
X91974Y-71565D01*
X91925Y-71685D01*
X91924Y-71814D01*
X91974Y-71933D01*
X92065Y-72025D01*
X92185Y-72074D01*
X92314Y-72075D01*
X92433Y-72025D01*
X92509Y-71950D01*
X103490Y-71950D01*
X103565Y-72025D01*
X103685Y-72074D01*
X103814Y-72075D01*
X103933Y-72025D01*
X104025Y-71934D01*
X104074Y-71814D01*
X104075Y-71685D01*
X104075Y-74737D01*
X104060Y-74722D01*
X103848Y-74635D01*
X103620Y-74634D01*
X103408Y-74722D01*
X103246Y-74883D01*
X103159Y-75095D01*
X103158Y-75323D01*
X103246Y-75535D01*
X103407Y-75697D01*
X103619Y-75784D01*
X103847Y-75785D01*
X104059Y-75697D01*
X104221Y-75536D01*
X104308Y-75324D01*
X104309Y-75096D01*
X104309Y-75950D01*
X102341Y-75950D01*
X102341Y-75096D01*
X102253Y-74884D01*
X102092Y-74722D01*
X101880Y-74635D01*
X101652Y-74634D01*
X101440Y-74722D01*
X101278Y-74883D01*
X101191Y-75095D01*
X101190Y-75323D01*
X101278Y-75535D01*
X101439Y-75697D01*
X101651Y-75784D01*
X101879Y-75785D01*
X102091Y-75697D01*
X102253Y-75536D01*
X102340Y-75324D01*
X102341Y-75096D01*
X102341Y-75950D01*
X99059Y-75950D01*
X99059Y-75096D01*
X98971Y-74884D01*
X98825Y-74737D01*
X98825Y-72685D01*
X98775Y-72566D01*
X98684Y-72474D01*
X98564Y-72425D01*
X98435Y-72424D01*
X98316Y-72474D01*
X98240Y-72550D01*
X89509Y-72550D01*
X89434Y-72474D01*
X89314Y-72425D01*
X89185Y-72424D01*
X89066Y-72474D01*
X88974Y-72565D01*
X88925Y-72685D01*
X88924Y-72814D01*
X88974Y-72933D01*
X89065Y-73025D01*
X89185Y-73074D01*
X89314Y-73075D01*
X89433Y-73025D01*
X89509Y-72950D01*
X98240Y-72950D01*
X98315Y-73025D01*
X98435Y-73074D01*
X98564Y-73075D01*
X98683Y-73025D01*
X98775Y-72934D01*
X98824Y-72814D01*
X98825Y-72685D01*
X98825Y-74737D01*
X98810Y-74722D01*
X98598Y-74635D01*
X98370Y-74634D01*
X98158Y-74722D01*
X97996Y-74883D01*
X97909Y-75095D01*
X97908Y-75323D01*
X97996Y-75535D01*
X98157Y-75697D01*
X98369Y-75784D01*
X98597Y-75785D01*
X98809Y-75697D01*
X98971Y-75536D01*
X99058Y-75324D01*
X99059Y-75096D01*
X99059Y-75950D01*
X97091Y-75950D01*
X97091Y-75096D01*
X97003Y-74884D01*
X96842Y-74722D01*
X96630Y-74635D01*
X96402Y-74634D01*
X96190Y-74722D01*
X96028Y-74883D01*
X95941Y-75095D01*
X95940Y-75323D01*
X96028Y-75535D01*
X96189Y-75697D01*
X96401Y-75784D01*
X96629Y-75785D01*
X96841Y-75697D01*
X97003Y-75536D01*
X97090Y-75324D01*
X97091Y-75096D01*
X97091Y-75950D01*
X93809Y-75950D01*
X93809Y-75096D01*
X93721Y-74884D01*
X93575Y-74737D01*
X93575Y-73685D01*
X93525Y-73566D01*
X93434Y-73474D01*
X93314Y-73425D01*
X93185Y-73424D01*
X93066Y-73474D01*
X92990Y-73550D01*
X85009Y-73550D01*
X84934Y-73474D01*
X84814Y-73425D01*
X84685Y-73424D01*
X84566Y-73474D01*
X84474Y-73565D01*
X84425Y-73685D01*
X84424Y-73814D01*
X84474Y-73933D01*
X84565Y-74025D01*
X84624Y-74050D01*
X83309Y-74050D01*
X83309Y-70176D01*
X83221Y-69964D01*
X83060Y-69802D01*
X82848Y-69715D01*
X82620Y-69714D01*
X82408Y-69802D01*
X82246Y-69963D01*
X82230Y-70004D01*
X82230Y-68404D01*
X82230Y-67404D01*
X82157Y-67228D01*
X82022Y-67093D01*
X81845Y-67020D01*
X81654Y-67019D01*
X81478Y-67092D01*
X81343Y-67227D01*
X81270Y-67404D01*
X81269Y-67595D01*
X81342Y-67771D01*
X81477Y-67906D01*
X81654Y-67979D01*
X81845Y-67980D01*
X82021Y-67907D01*
X82156Y-67772D01*
X82229Y-67595D01*
X82230Y-67404D01*
X82230Y-68404D01*
X82157Y-68228D01*
X82022Y-68093D01*
X81845Y-68020D01*
X81654Y-68019D01*
X81478Y-68092D01*
X81343Y-68227D01*
X81313Y-68300D01*
X80700Y-68300D01*
X80700Y-65910D01*
X80631Y-65745D01*
X80505Y-65618D01*
X80339Y-65550D01*
X80160Y-65549D01*
X79995Y-65618D01*
X79868Y-65744D01*
X79800Y-65910D01*
X79799Y-66089D01*
X79868Y-66254D01*
X79994Y-66381D01*
X80160Y-66449D01*
X80339Y-66450D01*
X80504Y-66381D01*
X80631Y-66255D01*
X80699Y-66089D01*
X80700Y-65910D01*
X80700Y-68300D01*
X79075Y-68300D01*
X79075Y-67435D01*
X79025Y-67316D01*
X78934Y-67224D01*
X78814Y-67175D01*
X78685Y-67174D01*
X78566Y-67224D01*
X78490Y-67300D01*
X76936Y-67300D01*
X76907Y-67228D01*
X76772Y-67093D01*
X76595Y-67020D01*
X76404Y-67019D01*
X76228Y-67092D01*
X76093Y-67227D01*
X76020Y-67404D01*
X76019Y-67595D01*
X76092Y-67771D01*
X76227Y-67906D01*
X76404Y-67979D01*
X76595Y-67980D01*
X76771Y-67907D01*
X76906Y-67772D01*
X76936Y-67700D01*
X78490Y-67700D01*
X78565Y-67775D01*
X78685Y-67824D01*
X78814Y-67825D01*
X78933Y-67775D01*
X79025Y-67684D01*
X79074Y-67564D01*
X79075Y-67435D01*
X79075Y-68300D01*
X79009Y-68300D01*
X78934Y-68224D01*
X78814Y-68175D01*
X78685Y-68174D01*
X78566Y-68224D01*
X78474Y-68315D01*
X78425Y-68435D01*
X78424Y-68564D01*
X78474Y-68683D01*
X78565Y-68775D01*
X78685Y-68824D01*
X78814Y-68825D01*
X78933Y-68775D01*
X79009Y-68700D01*
X81313Y-68700D01*
X81342Y-68771D01*
X81477Y-68906D01*
X81654Y-68979D01*
X81845Y-68980D01*
X82021Y-68907D01*
X82156Y-68772D01*
X82229Y-68595D01*
X82230Y-68404D01*
X82230Y-70004D01*
X82159Y-70175D01*
X82158Y-70403D01*
X82246Y-70615D01*
X82407Y-70777D01*
X82619Y-70864D01*
X82847Y-70865D01*
X83059Y-70777D01*
X83221Y-70616D01*
X83308Y-70404D01*
X83309Y-70176D01*
X83309Y-74050D01*
X81341Y-74050D01*
X81341Y-70176D01*
X81253Y-69964D01*
X81092Y-69802D01*
X80880Y-69715D01*
X80652Y-69714D01*
X80440Y-69802D01*
X80278Y-69963D01*
X80191Y-70175D01*
X80190Y-70403D01*
X80278Y-70615D01*
X80439Y-70777D01*
X80651Y-70864D01*
X80879Y-70865D01*
X81091Y-70777D01*
X81253Y-70616D01*
X81340Y-70404D01*
X81341Y-70176D01*
X81341Y-74050D01*
X80009Y-74050D01*
X79934Y-73974D01*
X79814Y-73925D01*
X79685Y-73924D01*
X79566Y-73974D01*
X79474Y-74065D01*
X79425Y-74185D01*
X79424Y-74314D01*
X79474Y-74433D01*
X79565Y-74525D01*
X79685Y-74574D01*
X79814Y-74575D01*
X79933Y-74525D01*
X80009Y-74450D01*
X87500Y-74450D01*
X87635Y-74450D01*
X87784Y-74598D01*
X87784Y-74670D01*
X87658Y-74722D01*
X87496Y-74883D01*
X87409Y-75095D01*
X87408Y-75323D01*
X87496Y-75535D01*
X87657Y-75697D01*
X87869Y-75784D01*
X88097Y-75785D01*
X88309Y-75697D01*
X88471Y-75536D01*
X88558Y-75324D01*
X88559Y-75096D01*
X88471Y-74884D01*
X88310Y-74722D01*
X88184Y-74670D01*
X88184Y-74516D01*
X88171Y-74452D01*
X88168Y-74439D01*
X88168Y-74439D01*
X88125Y-74374D01*
X87859Y-74108D01*
X87794Y-74065D01*
X87718Y-74050D01*
X87500Y-74050D01*
X84875Y-74050D01*
X84933Y-74025D01*
X85009Y-73950D01*
X92990Y-73950D01*
X93065Y-74025D01*
X93185Y-74074D01*
X93314Y-74075D01*
X93433Y-74025D01*
X93525Y-73934D01*
X93574Y-73814D01*
X93575Y-73685D01*
X93575Y-74737D01*
X93560Y-74722D01*
X93348Y-74635D01*
X93120Y-74634D01*
X92908Y-74722D01*
X92746Y-74883D01*
X92659Y-75095D01*
X92658Y-75323D01*
X92746Y-75535D01*
X92907Y-75697D01*
X93119Y-75784D01*
X93347Y-75785D01*
X93559Y-75697D01*
X93721Y-75536D01*
X93808Y-75324D01*
X93809Y-75096D01*
X93809Y-75950D01*
X91841Y-75950D01*
X91841Y-75096D01*
X91753Y-74884D01*
X91592Y-74722D01*
X91380Y-74635D01*
X91152Y-74634D01*
X90940Y-74722D01*
X90778Y-74883D01*
X90691Y-75095D01*
X90690Y-75323D01*
X90778Y-75535D01*
X90939Y-75697D01*
X91151Y-75784D01*
X91379Y-75785D01*
X91591Y-75697D01*
X91753Y-75536D01*
X91840Y-75324D01*
X91841Y-75096D01*
X91841Y-75950D01*
X86591Y-75950D01*
X86591Y-75096D01*
X86503Y-74884D01*
X86342Y-74722D01*
X86130Y-74635D01*
X85902Y-74634D01*
X85690Y-74722D01*
X85528Y-74883D01*
X85441Y-75095D01*
X85440Y-75323D01*
X85528Y-75535D01*
X85689Y-75697D01*
X85901Y-75784D01*
X86129Y-75785D01*
X86341Y-75697D01*
X86503Y-75536D01*
X86590Y-75324D01*
X86591Y-75096D01*
X86591Y-75950D01*
X83309Y-75950D01*
X83309Y-75096D01*
X83221Y-74884D01*
X83060Y-74722D01*
X82848Y-74635D01*
X82620Y-74634D01*
X82408Y-74722D01*
X82246Y-74883D01*
X82159Y-75095D01*
X82158Y-75323D01*
X82246Y-75535D01*
X82407Y-75697D01*
X82619Y-75784D01*
X82847Y-75785D01*
X83059Y-75697D01*
X83221Y-75536D01*
X83308Y-75324D01*
X83309Y-75096D01*
X83309Y-75950D01*
X81341Y-75950D01*
X81341Y-75096D01*
X81253Y-74884D01*
X81092Y-74722D01*
X80880Y-74635D01*
X80652Y-74634D01*
X80440Y-74722D01*
X80278Y-74883D01*
X80191Y-75095D01*
X80190Y-75323D01*
X80278Y-75535D01*
X80439Y-75697D01*
X80651Y-75784D01*
X80879Y-75785D01*
X81091Y-75697D01*
X81253Y-75536D01*
X81340Y-75324D01*
X81341Y-75096D01*
X81341Y-75950D01*
X79575Y-75950D01*
X79575Y-75185D01*
X79525Y-75066D01*
X79434Y-74974D01*
X79314Y-74925D01*
X79185Y-74924D01*
X79066Y-74974D01*
X79030Y-75010D01*
X78575Y-75010D01*
X78575Y-71435D01*
X78525Y-71316D01*
X78434Y-71224D01*
X78314Y-71175D01*
X78185Y-71174D01*
X78066Y-71224D01*
X78059Y-71231D01*
X78059Y-70176D01*
X77971Y-69964D01*
X77810Y-69802D01*
X77598Y-69715D01*
X77370Y-69714D01*
X77158Y-69802D01*
X76996Y-69963D01*
X76985Y-69992D01*
X76985Y-68565D01*
X76973Y-68374D01*
X76923Y-68254D01*
X76852Y-68217D01*
X76782Y-68288D01*
X76782Y-68147D01*
X76745Y-68076D01*
X76565Y-68014D01*
X76374Y-68026D01*
X76254Y-68076D01*
X76217Y-68147D01*
X76500Y-68429D01*
X76782Y-68147D01*
X76782Y-68288D01*
X76570Y-68500D01*
X76852Y-68782D01*
X76923Y-68745D01*
X76985Y-68565D01*
X76985Y-69992D01*
X76909Y-70175D01*
X76908Y-70403D01*
X76996Y-70615D01*
X77157Y-70777D01*
X77369Y-70864D01*
X77597Y-70865D01*
X77809Y-70777D01*
X77971Y-70616D01*
X78058Y-70404D01*
X78059Y-70176D01*
X78059Y-71231D01*
X77974Y-71315D01*
X77925Y-71435D01*
X77924Y-71542D01*
X77167Y-72300D01*
X76825Y-72300D01*
X76825Y-70935D01*
X76782Y-70831D01*
X76782Y-68852D01*
X76500Y-68570D01*
X76429Y-68641D01*
X76429Y-68500D01*
X76147Y-68217D01*
X76076Y-68254D01*
X76014Y-68434D01*
X76026Y-68625D01*
X76076Y-68745D01*
X76147Y-68782D01*
X76429Y-68500D01*
X76429Y-68641D01*
X76217Y-68852D01*
X76254Y-68923D01*
X76434Y-68985D01*
X76625Y-68973D01*
X76745Y-68923D01*
X76782Y-68852D01*
X76782Y-70831D01*
X76775Y-70816D01*
X76684Y-70724D01*
X76564Y-70675D01*
X76435Y-70674D01*
X76316Y-70724D01*
X76224Y-70815D01*
X76175Y-70935D01*
X76174Y-71042D01*
X76091Y-71126D01*
X76091Y-70176D01*
X76003Y-69964D01*
X75842Y-69802D01*
X75630Y-69715D01*
X75575Y-69715D01*
X75575Y-68435D01*
X75525Y-68316D01*
X75434Y-68224D01*
X75314Y-68175D01*
X75185Y-68174D01*
X75066Y-68224D01*
X74990Y-68300D01*
X74955Y-68300D01*
X74955Y-62557D01*
X74942Y-62379D01*
X74898Y-62272D01*
X74831Y-62239D01*
X74760Y-62310D01*
X74760Y-62168D01*
X74727Y-62101D01*
X74557Y-62044D01*
X74379Y-62057D01*
X74272Y-62101D01*
X74239Y-62168D01*
X74500Y-62429D01*
X74760Y-62168D01*
X74760Y-62310D01*
X74570Y-62500D01*
X74831Y-62760D01*
X74898Y-62727D01*
X74955Y-62557D01*
X74955Y-68300D01*
X74760Y-68300D01*
X74760Y-62831D01*
X74500Y-62570D01*
X74429Y-62641D01*
X74429Y-62500D01*
X74168Y-62239D01*
X74101Y-62272D01*
X74044Y-62442D01*
X74057Y-62620D01*
X74101Y-62727D01*
X74168Y-62760D01*
X74429Y-62500D01*
X74429Y-62641D01*
X74239Y-62831D01*
X74272Y-62898D01*
X74442Y-62955D01*
X74620Y-62942D01*
X74727Y-62898D01*
X74760Y-62831D01*
X74760Y-68300D01*
X74205Y-68300D01*
X74205Y-66057D01*
X74192Y-65879D01*
X74148Y-65772D01*
X74081Y-65739D01*
X74010Y-65810D01*
X74010Y-65668D01*
X73977Y-65601D01*
X73807Y-65544D01*
X73675Y-65554D01*
X73675Y-64304D01*
X73675Y-63695D01*
X73652Y-63640D01*
X73610Y-63597D01*
X73554Y-63575D01*
X73495Y-63574D01*
X73337Y-63575D01*
X73300Y-63612D01*
X73300Y-63950D01*
X73637Y-63950D01*
X73675Y-63912D01*
X73675Y-63695D01*
X73675Y-64304D01*
X73675Y-64087D01*
X73637Y-64050D01*
X73300Y-64050D01*
X73300Y-64387D01*
X73337Y-64425D01*
X73495Y-64425D01*
X73554Y-64424D01*
X73610Y-64402D01*
X73652Y-64359D01*
X73675Y-64304D01*
X73675Y-65554D01*
X73629Y-65557D01*
X73522Y-65601D01*
X73489Y-65668D01*
X73750Y-65929D01*
X74010Y-65668D01*
X74010Y-65810D01*
X73820Y-66000D01*
X74081Y-66260D01*
X74148Y-66227D01*
X74205Y-66057D01*
X74205Y-68300D01*
X74010Y-68300D01*
X74010Y-66331D01*
X73750Y-66070D01*
X73679Y-66141D01*
X73679Y-66000D01*
X73418Y-65739D01*
X73351Y-65772D01*
X73294Y-65942D01*
X73307Y-66120D01*
X73351Y-66227D01*
X73418Y-66260D01*
X73679Y-66000D01*
X73679Y-66141D01*
X73489Y-66331D01*
X73522Y-66398D01*
X73692Y-66455D01*
X73870Y-66442D01*
X73977Y-66398D01*
X74010Y-66331D01*
X74010Y-68300D01*
X73200Y-68300D01*
X73200Y-64387D01*
X73200Y-64050D01*
X73200Y-63950D01*
X73200Y-63612D01*
X73162Y-63575D01*
X73004Y-63574D01*
X72945Y-63575D01*
X72889Y-63597D01*
X72847Y-63640D01*
X72824Y-63695D01*
X72825Y-63912D01*
X72862Y-63950D01*
X73200Y-63950D01*
X73200Y-64050D01*
X72862Y-64050D01*
X72825Y-64087D01*
X72824Y-64304D01*
X72847Y-64359D01*
X72889Y-64402D01*
X72945Y-64424D01*
X73004Y-64425D01*
X73162Y-64425D01*
X73200Y-64387D01*
X73200Y-68300D01*
X72180Y-68300D01*
X72180Y-66051D01*
X72167Y-65883D01*
X72127Y-65787D01*
X72063Y-65757D01*
X71992Y-65828D01*
X71992Y-65686D01*
X71962Y-65622D01*
X71801Y-65569D01*
X71633Y-65582D01*
X71537Y-65622D01*
X71507Y-65686D01*
X71750Y-65929D01*
X71992Y-65686D01*
X71992Y-65828D01*
X71820Y-66000D01*
X72063Y-66242D01*
X72127Y-66212D01*
X72180Y-66051D01*
X72180Y-68300D01*
X71992Y-68300D01*
X71992Y-66313D01*
X71750Y-66070D01*
X71679Y-66141D01*
X71679Y-66000D01*
X71436Y-65757D01*
X71372Y-65787D01*
X71319Y-65948D01*
X71332Y-66116D01*
X71372Y-66212D01*
X71436Y-66242D01*
X71679Y-66000D01*
X71679Y-66141D01*
X71507Y-66313D01*
X71537Y-66377D01*
X71698Y-66430D01*
X71866Y-66417D01*
X71962Y-66377D01*
X71992Y-66313D01*
X71992Y-68300D01*
X71730Y-68300D01*
X71730Y-67404D01*
X71657Y-67228D01*
X71522Y-67093D01*
X71345Y-67020D01*
X71175Y-67019D01*
X71175Y-65915D01*
X71110Y-65759D01*
X70991Y-65639D01*
X70834Y-65575D01*
X70675Y-65574D01*
X70675Y-63915D01*
X70675Y-62915D01*
X70610Y-62759D01*
X70491Y-62639D01*
X70334Y-62575D01*
X70165Y-62574D01*
X70009Y-62639D01*
X69889Y-62758D01*
X69825Y-62915D01*
X69824Y-63084D01*
X69889Y-63240D01*
X70008Y-63360D01*
X70165Y-63424D01*
X70334Y-63425D01*
X70490Y-63360D01*
X70610Y-63241D01*
X70674Y-63084D01*
X70675Y-62915D01*
X70675Y-63915D01*
X70610Y-63759D01*
X70491Y-63639D01*
X70334Y-63575D01*
X70165Y-63574D01*
X70009Y-63639D01*
X69889Y-63758D01*
X69872Y-63800D01*
X69832Y-63800D01*
X68950Y-62917D01*
X68950Y-60904D01*
X69004Y-60881D01*
X69131Y-60755D01*
X69199Y-60589D01*
X69200Y-60410D01*
X69131Y-60245D01*
X69005Y-60118D01*
X68839Y-60050D01*
X68660Y-60049D01*
X68495Y-60118D01*
X68368Y-60244D01*
X68300Y-60410D01*
X68299Y-60589D01*
X68368Y-60754D01*
X68494Y-60881D01*
X68550Y-60904D01*
X68550Y-63000D01*
X68565Y-63076D01*
X68608Y-63141D01*
X69608Y-64141D01*
X69608Y-64141D01*
X69651Y-64170D01*
X69673Y-64184D01*
X69673Y-64184D01*
X69750Y-64200D01*
X69872Y-64200D01*
X69889Y-64240D01*
X70008Y-64360D01*
X70165Y-64424D01*
X70334Y-64425D01*
X70490Y-64360D01*
X70610Y-64241D01*
X70674Y-64084D01*
X70675Y-63915D01*
X70675Y-65574D01*
X70665Y-65574D01*
X70509Y-65639D01*
X70389Y-65758D01*
X70325Y-65915D01*
X70324Y-66084D01*
X70389Y-66240D01*
X70508Y-66360D01*
X70665Y-66424D01*
X70834Y-66425D01*
X70990Y-66360D01*
X71110Y-66241D01*
X71174Y-66084D01*
X71175Y-65915D01*
X71175Y-67019D01*
X71154Y-67019D01*
X70978Y-67092D01*
X70843Y-67227D01*
X70770Y-67404D01*
X70769Y-67595D01*
X70842Y-67771D01*
X70977Y-67906D01*
X71154Y-67979D01*
X71345Y-67980D01*
X71521Y-67907D01*
X71656Y-67772D01*
X71729Y-67595D01*
X71730Y-67404D01*
X71730Y-68300D01*
X71686Y-68300D01*
X71657Y-68228D01*
X71522Y-68093D01*
X71345Y-68020D01*
X71154Y-68019D01*
X70978Y-68092D01*
X70843Y-68227D01*
X70813Y-68300D01*
X69200Y-68300D01*
X69200Y-64410D01*
X69131Y-64245D01*
X69005Y-64118D01*
X68839Y-64050D01*
X68660Y-64049D01*
X68495Y-64118D01*
X68368Y-64244D01*
X68345Y-64300D01*
X68250Y-64300D01*
X68186Y-64312D01*
X68173Y-64315D01*
X68108Y-64358D01*
X67608Y-64858D01*
X67565Y-64923D01*
X67550Y-65000D01*
X67550Y-65622D01*
X67509Y-65639D01*
X67389Y-65758D01*
X67372Y-65800D01*
X67200Y-65800D01*
X67200Y-64410D01*
X67200Y-60410D01*
X67131Y-60245D01*
X67005Y-60118D01*
X66839Y-60050D01*
X66660Y-60049D01*
X66495Y-60118D01*
X66368Y-60244D01*
X66300Y-60410D01*
X66299Y-60589D01*
X66368Y-60754D01*
X66494Y-60881D01*
X66660Y-60949D01*
X66839Y-60950D01*
X67004Y-60881D01*
X67131Y-60755D01*
X67199Y-60589D01*
X67200Y-60410D01*
X67200Y-64410D01*
X67131Y-64245D01*
X67005Y-64118D01*
X66839Y-64050D01*
X66660Y-64049D01*
X66495Y-64118D01*
X66368Y-64244D01*
X66300Y-64410D01*
X66299Y-64589D01*
X66368Y-64754D01*
X66494Y-64881D01*
X66550Y-64904D01*
X66550Y-65167D01*
X66448Y-65268D01*
X66225Y-65268D01*
X66225Y-58795D01*
X66225Y-58145D01*
X66202Y-58090D01*
X66160Y-58047D01*
X66104Y-58025D01*
X66045Y-58024D01*
X65950Y-58024D01*
X65950Y-58000D01*
X65934Y-57923D01*
X65934Y-57923D01*
X65920Y-57901D01*
X65891Y-57858D01*
X65891Y-57858D01*
X65641Y-57608D01*
X65576Y-57565D01*
X65500Y-57550D01*
X62250Y-57550D01*
X62173Y-57565D01*
X62151Y-57579D01*
X62108Y-57608D01*
X61358Y-58358D01*
X61315Y-58423D01*
X61300Y-58500D01*
X61300Y-67667D01*
X61150Y-67817D01*
X61150Y-63371D01*
X61051Y-63132D01*
X60905Y-62986D01*
X60905Y-61451D01*
X60844Y-61301D01*
X60730Y-61187D01*
X60581Y-61125D01*
X60419Y-61125D01*
X60270Y-61187D01*
X60156Y-61301D01*
X60094Y-61450D01*
X60094Y-61611D01*
X60155Y-61761D01*
X60269Y-61875D01*
X60418Y-61937D01*
X60580Y-61937D01*
X60729Y-61875D01*
X60843Y-61761D01*
X60905Y-61612D01*
X60905Y-61451D01*
X60905Y-62986D01*
X60868Y-62949D01*
X60629Y-62850D01*
X60371Y-62849D01*
X60132Y-62948D01*
X59949Y-63131D01*
X59850Y-63370D01*
X59849Y-63628D01*
X59948Y-63867D01*
X60131Y-64050D01*
X60370Y-64149D01*
X60628Y-64150D01*
X60867Y-64051D01*
X61050Y-63868D01*
X61149Y-63629D01*
X61150Y-63371D01*
X61150Y-67817D01*
X61108Y-67858D01*
X61065Y-67923D01*
X61050Y-68000D01*
X61050Y-69917D01*
X60905Y-70061D01*
X60905Y-65388D01*
X60844Y-65238D01*
X60730Y-65124D01*
X60581Y-65062D01*
X60419Y-65062D01*
X60270Y-65124D01*
X60156Y-65238D01*
X60094Y-65387D01*
X60094Y-65548D01*
X60155Y-65698D01*
X60269Y-65812D01*
X60418Y-65874D01*
X60580Y-65874D01*
X60729Y-65812D01*
X60843Y-65698D01*
X60905Y-65549D01*
X60905Y-65388D01*
X60905Y-70061D01*
X60700Y-70267D01*
X60700Y-69410D01*
X60631Y-69245D01*
X60505Y-69118D01*
X60339Y-69050D01*
X60160Y-69049D01*
X59995Y-69118D01*
X59868Y-69244D01*
X59800Y-69410D01*
X59799Y-69589D01*
X59868Y-69754D01*
X59994Y-69881D01*
X60160Y-69949D01*
X60339Y-69950D01*
X60504Y-69881D01*
X60631Y-69755D01*
X60699Y-69589D01*
X60700Y-69410D01*
X60700Y-70267D01*
X60667Y-70300D01*
X60654Y-70300D01*
X60631Y-70245D01*
X60505Y-70118D01*
X60339Y-70050D01*
X60160Y-70049D01*
X59995Y-70118D01*
X59868Y-70244D01*
X59800Y-70410D01*
X59799Y-70589D01*
X59868Y-70754D01*
X59994Y-70881D01*
X60160Y-70949D01*
X60339Y-70950D01*
X60504Y-70881D01*
X60631Y-70755D01*
X60654Y-70700D01*
X60750Y-70700D01*
X60826Y-70684D01*
X60891Y-70641D01*
X61391Y-70141D01*
X61434Y-70076D01*
X61434Y-70076D01*
X61437Y-70063D01*
X61449Y-70000D01*
X61450Y-70000D01*
X61450Y-68082D01*
X61641Y-67891D01*
X61641Y-67891D01*
X61670Y-67848D01*
X61684Y-67826D01*
X61684Y-67826D01*
X61699Y-67750D01*
X61700Y-67750D01*
X61700Y-58582D01*
X62332Y-57950D01*
X65417Y-57950D01*
X65492Y-58024D01*
X65395Y-58024D01*
X65340Y-58047D01*
X65297Y-58089D01*
X65275Y-58145D01*
X65274Y-58204D01*
X65274Y-58854D01*
X65297Y-58909D01*
X65339Y-58952D01*
X65395Y-58974D01*
X65454Y-58975D01*
X66104Y-58975D01*
X66159Y-58952D01*
X66202Y-58910D01*
X66224Y-58854D01*
X66225Y-58795D01*
X66225Y-65268D01*
X65225Y-65268D01*
X65225Y-58405D01*
X65152Y-58231D01*
X65019Y-58097D01*
X64844Y-58025D01*
X64655Y-58024D01*
X64481Y-58097D01*
X64347Y-58230D01*
X64275Y-58405D01*
X64274Y-58594D01*
X64347Y-58768D01*
X64480Y-58902D01*
X64550Y-58931D01*
X64550Y-60417D01*
X63635Y-61331D01*
X63089Y-61331D01*
X63019Y-61163D01*
X62837Y-60980D01*
X62598Y-60881D01*
X62339Y-60881D01*
X62100Y-60980D01*
X61917Y-61162D01*
X61818Y-61401D01*
X61818Y-61660D01*
X61917Y-61899D01*
X62099Y-62082D01*
X62338Y-62181D01*
X62597Y-62181D01*
X62836Y-62082D01*
X63019Y-61900D01*
X63089Y-61731D01*
X63718Y-61731D01*
X63795Y-61716D01*
X63859Y-61672D01*
X64891Y-60641D01*
X64891Y-60641D01*
X64920Y-60598D01*
X64934Y-60576D01*
X64934Y-60576D01*
X64949Y-60500D01*
X64950Y-60500D01*
X64950Y-58931D01*
X65018Y-58902D01*
X65152Y-58769D01*
X65224Y-58594D01*
X65225Y-58405D01*
X65225Y-65268D01*
X63089Y-65268D01*
X63019Y-65100D01*
X62933Y-65014D01*
X62933Y-63407D01*
X62862Y-63236D01*
X62732Y-63106D01*
X62561Y-63035D01*
X62376Y-63034D01*
X62205Y-63105D01*
X62074Y-63236D01*
X62003Y-63407D01*
X62003Y-63592D01*
X62074Y-63763D01*
X62204Y-63893D01*
X62375Y-63964D01*
X62560Y-63965D01*
X62731Y-63894D01*
X62862Y-63763D01*
X62933Y-63592D01*
X62933Y-63407D01*
X62933Y-65014D01*
X62837Y-64917D01*
X62598Y-64818D01*
X62339Y-64818D01*
X62100Y-64917D01*
X61917Y-65099D01*
X61818Y-65338D01*
X61818Y-65597D01*
X61917Y-65836D01*
X62099Y-66019D01*
X62338Y-66118D01*
X62597Y-66118D01*
X62836Y-66019D01*
X63019Y-65837D01*
X63089Y-65668D01*
X66531Y-65668D01*
X66608Y-65653D01*
X66672Y-65609D01*
X66891Y-65391D01*
X66891Y-65391D01*
X66920Y-65348D01*
X66934Y-65326D01*
X66934Y-65326D01*
X66949Y-65250D01*
X66950Y-65250D01*
X66950Y-64904D01*
X67004Y-64881D01*
X67131Y-64755D01*
X67199Y-64589D01*
X67200Y-64410D01*
X67200Y-65800D01*
X65250Y-65800D01*
X65173Y-65815D01*
X65151Y-65829D01*
X65108Y-65858D01*
X64108Y-66858D01*
X64065Y-66923D01*
X64050Y-67000D01*
X64050Y-67917D01*
X63667Y-68300D01*
X62654Y-68300D01*
X62631Y-68245D01*
X62505Y-68118D01*
X62339Y-68050D01*
X62160Y-68049D01*
X61995Y-68118D01*
X61868Y-68244D01*
X61800Y-68410D01*
X61799Y-68589D01*
X61868Y-68754D01*
X61994Y-68881D01*
X62160Y-68949D01*
X62339Y-68950D01*
X62504Y-68881D01*
X62631Y-68755D01*
X62654Y-68700D01*
X63750Y-68700D01*
X63826Y-68684D01*
X63891Y-68641D01*
X64391Y-68141D01*
X64434Y-68076D01*
X64434Y-68076D01*
X64437Y-68063D01*
X64449Y-68000D01*
X64450Y-68000D01*
X64450Y-67082D01*
X65332Y-66200D01*
X67372Y-66200D01*
X67389Y-66240D01*
X67508Y-66360D01*
X67665Y-66424D01*
X67834Y-66425D01*
X67990Y-66360D01*
X68110Y-66241D01*
X68174Y-66084D01*
X68175Y-65915D01*
X68110Y-65759D01*
X67991Y-65639D01*
X67950Y-65622D01*
X67950Y-65082D01*
X68332Y-64700D01*
X68345Y-64700D01*
X68368Y-64754D01*
X68494Y-64881D01*
X68660Y-64949D01*
X68839Y-64950D01*
X69004Y-64881D01*
X69131Y-64755D01*
X69199Y-64589D01*
X69200Y-64410D01*
X69200Y-68300D01*
X69175Y-68300D01*
X69175Y-65915D01*
X69110Y-65759D01*
X68991Y-65639D01*
X68834Y-65575D01*
X68665Y-65574D01*
X68509Y-65639D01*
X68389Y-65758D01*
X68325Y-65915D01*
X68324Y-66084D01*
X68389Y-66240D01*
X68508Y-66360D01*
X68665Y-66424D01*
X68834Y-66425D01*
X68990Y-66360D01*
X69110Y-66241D01*
X69174Y-66084D01*
X69175Y-65915D01*
X69175Y-68300D01*
X69075Y-68300D01*
X69075Y-67435D01*
X69025Y-67316D01*
X68934Y-67224D01*
X68814Y-67175D01*
X68685Y-67174D01*
X68566Y-67224D01*
X68490Y-67300D01*
X66436Y-67300D01*
X66407Y-67228D01*
X66272Y-67093D01*
X66095Y-67020D01*
X65904Y-67019D01*
X65728Y-67092D01*
X65593Y-67227D01*
X65520Y-67404D01*
X65519Y-67595D01*
X65592Y-67771D01*
X65727Y-67906D01*
X65904Y-67979D01*
X66095Y-67980D01*
X66271Y-67907D01*
X66406Y-67772D01*
X66436Y-67700D01*
X68490Y-67700D01*
X68565Y-67775D01*
X68685Y-67824D01*
X68814Y-67825D01*
X68933Y-67775D01*
X69025Y-67684D01*
X69074Y-67564D01*
X69075Y-67435D01*
X69075Y-68300D01*
X69009Y-68300D01*
X68934Y-68224D01*
X68814Y-68175D01*
X68685Y-68174D01*
X68566Y-68224D01*
X68474Y-68315D01*
X68425Y-68435D01*
X68424Y-68564D01*
X68474Y-68683D01*
X68565Y-68775D01*
X68685Y-68824D01*
X68814Y-68825D01*
X68933Y-68775D01*
X69009Y-68700D01*
X70813Y-68700D01*
X70842Y-68771D01*
X70977Y-68906D01*
X71154Y-68979D01*
X71345Y-68980D01*
X71521Y-68907D01*
X71656Y-68772D01*
X71686Y-68700D01*
X74990Y-68700D01*
X75065Y-68775D01*
X75185Y-68824D01*
X75314Y-68825D01*
X75433Y-68775D01*
X75525Y-68684D01*
X75574Y-68564D01*
X75575Y-68435D01*
X75575Y-69715D01*
X75402Y-69714D01*
X75190Y-69802D01*
X75028Y-69963D01*
X74941Y-70175D01*
X74940Y-70403D01*
X75028Y-70615D01*
X75189Y-70777D01*
X75401Y-70864D01*
X75629Y-70865D01*
X75841Y-70777D01*
X76003Y-70616D01*
X76090Y-70404D01*
X76091Y-70176D01*
X76091Y-71126D01*
X75917Y-71300D01*
X72809Y-71300D01*
X72809Y-70176D01*
X72721Y-69964D01*
X72560Y-69802D01*
X72348Y-69715D01*
X72120Y-69714D01*
X71908Y-69802D01*
X71746Y-69963D01*
X71659Y-70175D01*
X71658Y-70403D01*
X71746Y-70615D01*
X71907Y-70777D01*
X72119Y-70864D01*
X72347Y-70865D01*
X72559Y-70777D01*
X72721Y-70616D01*
X72808Y-70404D01*
X72809Y-70176D01*
X72809Y-71300D01*
X70841Y-71300D01*
X70841Y-70176D01*
X70753Y-69964D01*
X70592Y-69802D01*
X70380Y-69715D01*
X70152Y-69714D01*
X69940Y-69802D01*
X69778Y-69963D01*
X69691Y-70175D01*
X69690Y-70403D01*
X69778Y-70615D01*
X69939Y-70777D01*
X70151Y-70864D01*
X70379Y-70865D01*
X70591Y-70777D01*
X70753Y-70616D01*
X70840Y-70404D01*
X70841Y-70176D01*
X70841Y-71300D01*
X67332Y-71300D01*
X67184Y-71151D01*
X67184Y-70829D01*
X67309Y-70777D01*
X67471Y-70616D01*
X67558Y-70404D01*
X67559Y-70176D01*
X67471Y-69964D01*
X67310Y-69802D01*
X67098Y-69715D01*
X66870Y-69714D01*
X66658Y-69802D01*
X66496Y-69963D01*
X66485Y-69992D01*
X66485Y-68565D01*
X66473Y-68374D01*
X66423Y-68254D01*
X66352Y-68217D01*
X66282Y-68288D01*
X66282Y-68147D01*
X66245Y-68076D01*
X66065Y-68014D01*
X65874Y-68026D01*
X65754Y-68076D01*
X65717Y-68147D01*
X66000Y-68429D01*
X66282Y-68147D01*
X66282Y-68288D01*
X66070Y-68500D01*
X66352Y-68782D01*
X66423Y-68745D01*
X66485Y-68565D01*
X66485Y-69992D01*
X66409Y-70175D01*
X66408Y-70403D01*
X66496Y-70615D01*
X66657Y-70777D01*
X66784Y-70829D01*
X66784Y-71234D01*
X66799Y-71310D01*
X66842Y-71375D01*
X67108Y-71641D01*
X67173Y-71684D01*
X67173Y-71684D01*
X67186Y-71687D01*
X67250Y-71700D01*
X76000Y-71700D01*
X76076Y-71684D01*
X76141Y-71641D01*
X76457Y-71324D01*
X76564Y-71325D01*
X76683Y-71275D01*
X76775Y-71184D01*
X76824Y-71064D01*
X76825Y-70935D01*
X76825Y-72300D01*
X72509Y-72300D01*
X72434Y-72224D01*
X72314Y-72175D01*
X72185Y-72174D01*
X72066Y-72224D01*
X71974Y-72315D01*
X71925Y-72435D01*
X71924Y-72564D01*
X71974Y-72683D01*
X72065Y-72775D01*
X72185Y-72824D01*
X72314Y-72825D01*
X72433Y-72775D01*
X72509Y-72700D01*
X77250Y-72700D01*
X77326Y-72684D01*
X77391Y-72641D01*
X78207Y-71824D01*
X78314Y-71825D01*
X78433Y-71775D01*
X78525Y-71684D01*
X78574Y-71564D01*
X78575Y-71435D01*
X78575Y-75010D01*
X78023Y-75010D01*
X77971Y-74884D01*
X77810Y-74722D01*
X77598Y-74635D01*
X77370Y-74634D01*
X77158Y-74722D01*
X76996Y-74883D01*
X76909Y-75095D01*
X76908Y-75323D01*
X76996Y-75535D01*
X77157Y-75697D01*
X77369Y-75784D01*
X77597Y-75785D01*
X77809Y-75697D01*
X77971Y-75536D01*
X78023Y-75410D01*
X78964Y-75410D01*
X78974Y-75433D01*
X79065Y-75525D01*
X79185Y-75574D01*
X79314Y-75575D01*
X79433Y-75525D01*
X79525Y-75434D01*
X79574Y-75314D01*
X79575Y-75185D01*
X79575Y-75950D01*
X76091Y-75950D01*
X76091Y-75096D01*
X76003Y-74884D01*
X75842Y-74722D01*
X75630Y-74635D01*
X75402Y-74634D01*
X75190Y-74722D01*
X75028Y-74883D01*
X74941Y-75095D01*
X74940Y-75323D01*
X75028Y-75535D01*
X75189Y-75697D01*
X75401Y-75784D01*
X75629Y-75785D01*
X75841Y-75697D01*
X76003Y-75536D01*
X76090Y-75324D01*
X76091Y-75096D01*
X76091Y-75950D01*
X72809Y-75950D01*
X72809Y-75096D01*
X72721Y-74884D01*
X72560Y-74722D01*
X72348Y-74635D01*
X72120Y-74634D01*
X71908Y-74722D01*
X71746Y-74883D01*
X71659Y-75095D01*
X71658Y-75323D01*
X71746Y-75535D01*
X71907Y-75697D01*
X72119Y-75784D01*
X72347Y-75785D01*
X72559Y-75697D01*
X72721Y-75536D01*
X72808Y-75324D01*
X72809Y-75096D01*
X72809Y-75950D01*
X70841Y-75950D01*
X70841Y-75096D01*
X70753Y-74884D01*
X70592Y-74722D01*
X70380Y-74635D01*
X70152Y-74634D01*
X69940Y-74722D01*
X69778Y-74883D01*
X69691Y-75095D01*
X69690Y-75323D01*
X69778Y-75535D01*
X69939Y-75697D01*
X70151Y-75784D01*
X70379Y-75785D01*
X70591Y-75697D01*
X70753Y-75536D01*
X70840Y-75324D01*
X70841Y-75096D01*
X70841Y-75950D01*
X67559Y-75950D01*
X67559Y-75096D01*
X67471Y-74884D01*
X67310Y-74722D01*
X67098Y-74635D01*
X66870Y-74634D01*
X66658Y-74722D01*
X66496Y-74883D01*
X66409Y-75095D01*
X66408Y-75323D01*
X66496Y-75535D01*
X66657Y-75697D01*
X66869Y-75784D01*
X67097Y-75785D01*
X67309Y-75697D01*
X67471Y-75536D01*
X67558Y-75324D01*
X67559Y-75096D01*
X67559Y-75950D01*
X66282Y-75950D01*
X66282Y-68852D01*
X66000Y-68570D01*
X65929Y-68641D01*
X65929Y-68500D01*
X65647Y-68217D01*
X65576Y-68254D01*
X65514Y-68434D01*
X65526Y-68625D01*
X65576Y-68745D01*
X65647Y-68782D01*
X65929Y-68500D01*
X65929Y-68641D01*
X65717Y-68852D01*
X65754Y-68923D01*
X65934Y-68985D01*
X66125Y-68973D01*
X66245Y-68923D01*
X66282Y-68852D01*
X66282Y-75950D01*
X65591Y-75950D01*
X65591Y-75096D01*
X65591Y-70176D01*
X65503Y-69964D01*
X65342Y-69802D01*
X65130Y-69715D01*
X64902Y-69714D01*
X64690Y-69802D01*
X64528Y-69963D01*
X64441Y-70175D01*
X64440Y-70403D01*
X64528Y-70615D01*
X64689Y-70777D01*
X64901Y-70864D01*
X65129Y-70865D01*
X65341Y-70777D01*
X65503Y-70616D01*
X65590Y-70404D01*
X65591Y-70176D01*
X65591Y-75096D01*
X65503Y-74884D01*
X65342Y-74722D01*
X65130Y-74635D01*
X64902Y-74634D01*
X64690Y-74722D01*
X64528Y-74883D01*
X64441Y-75095D01*
X64440Y-75323D01*
X64528Y-75535D01*
X64689Y-75697D01*
X64901Y-75784D01*
X65129Y-75785D01*
X65341Y-75697D01*
X65503Y-75536D01*
X65590Y-75324D01*
X65591Y-75096D01*
X65591Y-75950D01*
X62700Y-75950D01*
X62700Y-72410D01*
X62631Y-72245D01*
X62505Y-72118D01*
X62450Y-72095D01*
X62450Y-72000D01*
X62437Y-71936D01*
X62434Y-71923D01*
X62434Y-71923D01*
X62391Y-71858D01*
X61891Y-71358D01*
X61826Y-71315D01*
X61750Y-71300D01*
X60654Y-71300D01*
X60631Y-71245D01*
X60505Y-71118D01*
X60339Y-71050D01*
X60160Y-71049D01*
X59995Y-71118D01*
X59868Y-71244D01*
X59800Y-71410D01*
X59799Y-71589D01*
X59868Y-71754D01*
X59994Y-71881D01*
X60160Y-71949D01*
X60339Y-71950D01*
X60504Y-71881D01*
X60631Y-71755D01*
X60654Y-71700D01*
X61667Y-71700D01*
X62050Y-72082D01*
X62050Y-72095D01*
X61995Y-72118D01*
X61868Y-72244D01*
X61800Y-72410D01*
X61799Y-72589D01*
X61868Y-72754D01*
X61994Y-72881D01*
X62160Y-72949D01*
X62339Y-72950D01*
X62504Y-72881D01*
X62631Y-72755D01*
X62699Y-72589D01*
X62700Y-72410D01*
X62700Y-75950D01*
X60438Y-75950D01*
X60787Y-75805D01*
X61054Y-75538D01*
X61199Y-75189D01*
X61200Y-74811D01*
X61055Y-74462D01*
X60788Y-74195D01*
X60439Y-74050D01*
X60061Y-74049D01*
X59712Y-74194D01*
X59550Y-74356D01*
X59550Y-65874D01*
X59596Y-65874D01*
X59745Y-65812D01*
X59859Y-65698D01*
X59921Y-65549D01*
X59921Y-65388D01*
X59860Y-65238D01*
X59745Y-65124D01*
X59596Y-65062D01*
X59550Y-65062D01*
X59550Y-61937D01*
X59596Y-61937D01*
X59745Y-61875D01*
X59859Y-61761D01*
X59921Y-61612D01*
X59921Y-61451D01*
X59860Y-61301D01*
X59745Y-61187D01*
X59596Y-61125D01*
X59550Y-61125D01*
X59550Y-58643D01*
X59711Y-58804D01*
X60060Y-58949D01*
X60438Y-58950D01*
X60787Y-58805D01*
X61054Y-58538D01*
X61199Y-58189D01*
X61200Y-57811D01*
X61055Y-57462D01*
X60788Y-57195D01*
X60439Y-57050D01*
X60250Y-57050D01*
X101769Y-57050D01*
X101730Y-57146D01*
X101729Y-57352D01*
X101808Y-57544D01*
X101955Y-57690D01*
X102146Y-57769D01*
X102352Y-57770D01*
X102544Y-57691D01*
X102690Y-57544D01*
X102769Y-57353D01*
X102770Y-57147D01*
X102730Y-57050D01*
X103769Y-57050D01*
X103730Y-57146D01*
X103729Y-57352D01*
X103808Y-57544D01*
X103955Y-57690D01*
X104146Y-57769D01*
X104352Y-57770D01*
X104544Y-57691D01*
X104690Y-57544D01*
X104769Y-57353D01*
X104770Y-57147D01*
X104730Y-57050D01*
X107061Y-57050D01*
X106712Y-57194D01*
X106445Y-57461D01*
X106300Y-57810D01*
X106299Y-58188D01*
X106444Y-58537D01*
X106711Y-58804D01*
X107060Y-58949D01*
X107438Y-58950D01*
X107787Y-58805D01*
X107950Y-58643D01*
X107950Y-74356D01*
X107950Y-74356D01*
G37*
G54D27*
X107950Y-74356D02*
X107788Y-74195D01*
X107730Y-74170D01*
X107730Y-61904D01*
X107730Y-60904D01*
X107657Y-60728D01*
X107522Y-60593D01*
X107345Y-60520D01*
X107154Y-60519D01*
X106978Y-60592D01*
X106843Y-60727D01*
X106770Y-60904D01*
X106769Y-61095D01*
X106842Y-61271D01*
X106977Y-61406D01*
X107154Y-61479D01*
X107345Y-61480D01*
X107521Y-61407D01*
X107656Y-61272D01*
X107729Y-61095D01*
X107730Y-60904D01*
X107730Y-61904D01*
X107657Y-61728D01*
X107522Y-61593D01*
X107345Y-61520D01*
X107154Y-61519D01*
X106978Y-61592D01*
X106843Y-61727D01*
X106813Y-61800D01*
X105832Y-61800D01*
X105391Y-61358D01*
X105326Y-61315D01*
X105250Y-61300D01*
X104770Y-61300D01*
X104770Y-58647D01*
X104691Y-58455D01*
X104544Y-58309D01*
X104353Y-58230D01*
X104147Y-58229D01*
X103955Y-58308D01*
X103809Y-58455D01*
X103730Y-58646D01*
X103729Y-58852D01*
X103808Y-59044D01*
X103955Y-59190D01*
X104146Y-59269D01*
X104352Y-59270D01*
X104544Y-59191D01*
X104690Y-59044D01*
X104769Y-58853D01*
X104770Y-58647D01*
X104770Y-61300D01*
X104705Y-61300D01*
X104705Y-60557D01*
X104692Y-60379D01*
X104648Y-60272D01*
X104581Y-60239D01*
X104510Y-60310D01*
X104510Y-60168D01*
X104477Y-60101D01*
X104307Y-60044D01*
X104129Y-60057D01*
X104022Y-60101D01*
X103989Y-60168D01*
X104250Y-60429D01*
X104510Y-60168D01*
X104510Y-60310D01*
X104320Y-60500D01*
X104581Y-60760D01*
X104648Y-60727D01*
X104705Y-60557D01*
X104705Y-61300D01*
X104510Y-61300D01*
X104510Y-60831D01*
X104250Y-60570D01*
X104179Y-60641D01*
X104179Y-60500D01*
X103918Y-60239D01*
X103851Y-60272D01*
X103794Y-60442D01*
X103807Y-60620D01*
X103851Y-60727D01*
X103918Y-60760D01*
X104179Y-60500D01*
X104179Y-60641D01*
X103989Y-60831D01*
X104022Y-60898D01*
X104192Y-60955D01*
X104370Y-60942D01*
X104477Y-60898D01*
X104510Y-60831D01*
X104510Y-61300D01*
X102770Y-61300D01*
X102770Y-58647D01*
X102691Y-58455D01*
X102544Y-58309D01*
X102353Y-58230D01*
X102147Y-58229D01*
X101955Y-58308D01*
X101809Y-58455D01*
X101730Y-58646D01*
X101729Y-58852D01*
X101808Y-59044D01*
X101955Y-59190D01*
X102146Y-59269D01*
X102352Y-59270D01*
X102544Y-59191D01*
X102690Y-59044D01*
X102769Y-58853D01*
X102770Y-58647D01*
X102770Y-61300D01*
X102700Y-61300D01*
X102700Y-60410D01*
X102631Y-60245D01*
X102505Y-60118D01*
X102339Y-60050D01*
X102160Y-60049D01*
X101995Y-60118D01*
X101868Y-60244D01*
X101800Y-60410D01*
X101799Y-60589D01*
X101868Y-60754D01*
X101994Y-60881D01*
X102160Y-60949D01*
X102339Y-60950D01*
X102504Y-60881D01*
X102631Y-60755D01*
X102699Y-60589D01*
X102700Y-60410D01*
X102700Y-61300D01*
X99975Y-61300D01*
X99975Y-60155D01*
X99975Y-60155D01*
X99975Y-59604D01*
X99975Y-58895D01*
X99952Y-58840D01*
X99910Y-58797D01*
X99854Y-58775D01*
X99795Y-58774D01*
X99587Y-58775D01*
X99550Y-58812D01*
X99550Y-59200D01*
X99937Y-59200D01*
X99975Y-59162D01*
X99975Y-58895D01*
X99975Y-59604D01*
X99975Y-59337D01*
X99937Y-59300D01*
X99550Y-59300D01*
X99550Y-59687D01*
X99587Y-59725D01*
X99795Y-59725D01*
X99854Y-59724D01*
X99910Y-59702D01*
X99952Y-59659D01*
X99975Y-59604D01*
X99975Y-60155D01*
X99902Y-59981D01*
X99769Y-59847D01*
X99594Y-59775D01*
X99450Y-59774D01*
X99450Y-59687D01*
X99450Y-59300D01*
X99450Y-59200D01*
X99450Y-58812D01*
X99412Y-58775D01*
X99204Y-58774D01*
X99145Y-58775D01*
X99089Y-58797D01*
X99047Y-58840D01*
X99024Y-58895D01*
X99025Y-59162D01*
X99062Y-59200D01*
X99450Y-59200D01*
X99450Y-59300D01*
X99062Y-59300D01*
X99025Y-59337D01*
X99024Y-59604D01*
X99047Y-59659D01*
X99089Y-59702D01*
X99145Y-59724D01*
X99204Y-59725D01*
X99412Y-59725D01*
X99450Y-59687D01*
X99450Y-59774D01*
X99405Y-59774D01*
X99231Y-59847D01*
X99097Y-59980D01*
X99025Y-60155D01*
X99024Y-60344D01*
X99097Y-60518D01*
X99230Y-60652D01*
X99405Y-60724D01*
X99594Y-60725D01*
X99768Y-60652D01*
X99902Y-60519D01*
X99974Y-60344D01*
X99975Y-60155D01*
X99975Y-61300D01*
X96735Y-61300D01*
X96735Y-59565D01*
X96730Y-59486D01*
X96730Y-58404D01*
X96657Y-58228D01*
X96522Y-58093D01*
X96345Y-58020D01*
X96154Y-58019D01*
X95978Y-58092D01*
X95843Y-58227D01*
X95770Y-58404D01*
X95769Y-58595D01*
X95842Y-58771D01*
X95977Y-58906D01*
X96154Y-58979D01*
X96345Y-58980D01*
X96521Y-58907D01*
X96656Y-58772D01*
X96729Y-58595D01*
X96730Y-58404D01*
X96730Y-59486D01*
X96723Y-59374D01*
X96673Y-59254D01*
X96602Y-59217D01*
X96532Y-59288D01*
X96532Y-59147D01*
X96495Y-59076D01*
X96315Y-59014D01*
X96124Y-59026D01*
X96004Y-59076D01*
X95967Y-59147D01*
X96250Y-59429D01*
X96532Y-59147D01*
X96532Y-59288D01*
X96320Y-59500D01*
X96602Y-59782D01*
X96673Y-59745D01*
X96735Y-59565D01*
X96735Y-61300D01*
X96700Y-61300D01*
X96700Y-60660D01*
X96631Y-60495D01*
X96532Y-60395D01*
X96532Y-59852D01*
X96250Y-59570D01*
X96179Y-59641D01*
X96179Y-59500D01*
X95897Y-59217D01*
X95826Y-59254D01*
X95764Y-59434D01*
X95776Y-59625D01*
X95826Y-59745D01*
X95897Y-59782D01*
X96179Y-59500D01*
X96179Y-59641D01*
X95967Y-59852D01*
X96004Y-59923D01*
X96184Y-59985D01*
X96375Y-59973D01*
X96495Y-59923D01*
X96532Y-59852D01*
X96532Y-60395D01*
X96505Y-60368D01*
X96339Y-60300D01*
X96160Y-60299D01*
X95995Y-60368D01*
X95868Y-60494D01*
X95800Y-60660D01*
X95799Y-60839D01*
X95868Y-61004D01*
X95994Y-61131D01*
X96160Y-61199D01*
X96339Y-61200D01*
X96504Y-61131D01*
X96631Y-61005D01*
X96699Y-60839D01*
X96700Y-60660D01*
X96700Y-61300D01*
X92700Y-61300D01*
X92700Y-60660D01*
X92631Y-60495D01*
X92505Y-60368D01*
X92339Y-60300D01*
X92160Y-60299D01*
X91995Y-60368D01*
X91868Y-60494D01*
X91800Y-60660D01*
X91799Y-60839D01*
X91868Y-61004D01*
X91994Y-61131D01*
X92160Y-61199D01*
X92339Y-61200D01*
X92504Y-61131D01*
X92631Y-61005D01*
X92699Y-60839D01*
X92700Y-60660D01*
X92700Y-61300D01*
X89675Y-61300D01*
X89675Y-60415D01*
X89610Y-60259D01*
X89491Y-60139D01*
X89334Y-60075D01*
X89165Y-60074D01*
X89009Y-60139D01*
X88889Y-60258D01*
X88825Y-60415D01*
X88824Y-60584D01*
X88889Y-60740D01*
X89008Y-60860D01*
X89165Y-60924D01*
X89334Y-60925D01*
X89490Y-60860D01*
X89610Y-60741D01*
X89674Y-60584D01*
X89675Y-60415D01*
X89675Y-61300D01*
X88700Y-61300D01*
X88700Y-58660D01*
X88700Y-57660D01*
X88631Y-57495D01*
X88505Y-57368D01*
X88339Y-57300D01*
X88160Y-57299D01*
X87995Y-57368D01*
X87868Y-57494D01*
X87800Y-57660D01*
X87799Y-57839D01*
X87868Y-58004D01*
X87994Y-58131D01*
X88160Y-58199D01*
X88339Y-58200D01*
X88504Y-58131D01*
X88631Y-58005D01*
X88699Y-57839D01*
X88700Y-57660D01*
X88700Y-58660D01*
X88631Y-58495D01*
X88505Y-58368D01*
X88339Y-58300D01*
X88160Y-58299D01*
X87995Y-58368D01*
X87868Y-58494D01*
X87800Y-58660D01*
X87799Y-58839D01*
X87868Y-59004D01*
X87913Y-59050D01*
X87586Y-59050D01*
X87631Y-59005D01*
X87699Y-58839D01*
X87700Y-58660D01*
X87700Y-57660D01*
X87631Y-57495D01*
X87505Y-57368D01*
X87339Y-57300D01*
X87160Y-57299D01*
X86995Y-57368D01*
X86868Y-57494D01*
X86800Y-57660D01*
X86799Y-57839D01*
X86868Y-58004D01*
X86994Y-58131D01*
X87160Y-58199D01*
X87339Y-58200D01*
X87504Y-58131D01*
X87631Y-58005D01*
X87699Y-57839D01*
X87700Y-57660D01*
X87700Y-58660D01*
X87631Y-58495D01*
X87505Y-58368D01*
X87339Y-58300D01*
X87160Y-58299D01*
X86995Y-58368D01*
X86868Y-58494D01*
X86800Y-58660D01*
X86799Y-58839D01*
X86868Y-59004D01*
X86913Y-59050D01*
X86705Y-59050D01*
X86705Y-57807D01*
X86692Y-57629D01*
X86648Y-57522D01*
X86581Y-57489D01*
X86510Y-57560D01*
X86510Y-57418D01*
X86477Y-57351D01*
X86307Y-57294D01*
X86129Y-57307D01*
X86022Y-57351D01*
X85989Y-57418D01*
X86250Y-57679D01*
X86510Y-57418D01*
X86510Y-57560D01*
X86320Y-57750D01*
X86581Y-58010D01*
X86648Y-57977D01*
X86705Y-57807D01*
X86705Y-59050D01*
X86700Y-59050D01*
X86700Y-59020D01*
X86700Y-58420D01*
X86677Y-58365D01*
X86635Y-58322D01*
X86579Y-58300D01*
X86520Y-58299D01*
X86510Y-58299D01*
X86510Y-58081D01*
X86250Y-57820D01*
X86179Y-57891D01*
X86179Y-57750D01*
X85918Y-57489D01*
X85851Y-57522D01*
X85794Y-57692D01*
X85807Y-57870D01*
X85851Y-57977D01*
X85918Y-58010D01*
X86179Y-57750D01*
X86179Y-57891D01*
X85989Y-58081D01*
X86022Y-58148D01*
X86192Y-58205D01*
X86370Y-58192D01*
X86477Y-58148D01*
X86510Y-58081D01*
X86510Y-58299D01*
X85920Y-58299D01*
X85865Y-58322D01*
X85822Y-58364D01*
X85800Y-58420D01*
X85799Y-58479D01*
X85799Y-59050D01*
X85180Y-59050D01*
X85180Y-57801D01*
X85167Y-57633D01*
X85127Y-57537D01*
X85063Y-57507D01*
X84992Y-57578D01*
X84992Y-57436D01*
X84962Y-57372D01*
X84801Y-57319D01*
X84633Y-57332D01*
X84537Y-57372D01*
X84507Y-57436D01*
X84750Y-57679D01*
X84992Y-57436D01*
X84992Y-57578D01*
X84820Y-57750D01*
X85063Y-57992D01*
X85127Y-57962D01*
X85180Y-57801D01*
X85180Y-59050D01*
X84992Y-59050D01*
X84992Y-58063D01*
X84750Y-57820D01*
X84679Y-57891D01*
X84679Y-57750D01*
X84436Y-57507D01*
X84372Y-57537D01*
X84319Y-57698D01*
X84332Y-57866D01*
X84372Y-57962D01*
X84436Y-57992D01*
X84679Y-57750D01*
X84679Y-57891D01*
X84507Y-58063D01*
X84537Y-58127D01*
X84698Y-58180D01*
X84866Y-58167D01*
X84962Y-58127D01*
X84992Y-58063D01*
X84992Y-59050D01*
X84175Y-59050D01*
X84175Y-57665D01*
X84110Y-57509D01*
X83991Y-57389D01*
X83834Y-57325D01*
X83665Y-57324D01*
X83509Y-57389D01*
X83389Y-57508D01*
X83325Y-57665D01*
X83324Y-57834D01*
X83389Y-57990D01*
X83508Y-58110D01*
X83665Y-58174D01*
X83834Y-58175D01*
X83990Y-58110D01*
X84110Y-57991D01*
X84174Y-57834D01*
X84175Y-57665D01*
X84175Y-59050D01*
X74950Y-59050D01*
X74950Y-58410D01*
X74881Y-58245D01*
X74755Y-58118D01*
X74589Y-58050D01*
X74410Y-58049D01*
X74245Y-58118D01*
X74118Y-58244D01*
X74095Y-58300D01*
X73750Y-58300D01*
X72127Y-58300D01*
X72110Y-58259D01*
X71991Y-58139D01*
X71834Y-58075D01*
X71665Y-58074D01*
X71509Y-58139D01*
X71389Y-58258D01*
X71325Y-58415D01*
X71324Y-58584D01*
X71389Y-58740D01*
X71508Y-58860D01*
X71550Y-58877D01*
X71550Y-61417D01*
X71175Y-61792D01*
X71175Y-58415D01*
X71110Y-58259D01*
X70991Y-58139D01*
X70834Y-58075D01*
X70665Y-58074D01*
X70509Y-58139D01*
X70389Y-58258D01*
X70325Y-58415D01*
X70324Y-58584D01*
X70389Y-58740D01*
X70508Y-58860D01*
X70665Y-58924D01*
X70834Y-58925D01*
X70990Y-58860D01*
X71110Y-58741D01*
X71174Y-58584D01*
X71175Y-58415D01*
X71175Y-61792D01*
X71167Y-61800D01*
X70675Y-61800D01*
X70675Y-60915D01*
X70610Y-60759D01*
X70491Y-60639D01*
X70334Y-60575D01*
X70165Y-60574D01*
X70009Y-60639D01*
X69889Y-60758D01*
X69825Y-60915D01*
X69824Y-61084D01*
X69889Y-61240D01*
X70008Y-61360D01*
X70165Y-61424D01*
X70334Y-61425D01*
X70490Y-61360D01*
X70610Y-61241D01*
X70674Y-61084D01*
X70675Y-60915D01*
X70675Y-61800D01*
X70627Y-61800D01*
X70610Y-61759D01*
X70491Y-61639D01*
X70334Y-61575D01*
X70165Y-61574D01*
X70009Y-61639D01*
X69889Y-61758D01*
X69825Y-61915D01*
X69824Y-62084D01*
X69889Y-62240D01*
X70008Y-62360D01*
X70165Y-62424D01*
X70334Y-62425D01*
X70490Y-62360D01*
X70610Y-62241D01*
X70627Y-62200D01*
X71250Y-62200D01*
X71326Y-62184D01*
X71391Y-62141D01*
X71891Y-61641D01*
X71934Y-61576D01*
X71934Y-61576D01*
X71937Y-61563D01*
X71949Y-61500D01*
X71950Y-61500D01*
X71950Y-58877D01*
X71990Y-58860D01*
X72110Y-58741D01*
X72127Y-58700D01*
X73750Y-58700D01*
X74095Y-58700D01*
X74118Y-58754D01*
X74244Y-58881D01*
X74410Y-58949D01*
X74589Y-58950D01*
X74754Y-58881D01*
X74881Y-58755D01*
X74949Y-58589D01*
X74950Y-58410D01*
X74950Y-59050D01*
X72750Y-59050D01*
X72686Y-59062D01*
X72673Y-59065D01*
X72608Y-59108D01*
X72108Y-59608D01*
X72065Y-59673D01*
X72050Y-59750D01*
X72050Y-60000D01*
X72050Y-62500D01*
X72065Y-62576D01*
X72108Y-62641D01*
X72608Y-63141D01*
X72673Y-63184D01*
X72673Y-63184D01*
X72686Y-63187D01*
X72750Y-63200D01*
X72872Y-63200D01*
X72889Y-63240D01*
X73008Y-63360D01*
X73165Y-63424D01*
X73334Y-63425D01*
X73490Y-63360D01*
X73610Y-63241D01*
X73674Y-63084D01*
X73675Y-62915D01*
X73610Y-62759D01*
X73491Y-62639D01*
X73334Y-62575D01*
X73165Y-62574D01*
X73009Y-62639D01*
X72889Y-62758D01*
X72872Y-62800D01*
X72832Y-62800D01*
X72450Y-62417D01*
X72450Y-60000D01*
X72450Y-59832D01*
X72832Y-59450D01*
X73517Y-59450D01*
X73108Y-59858D01*
X73065Y-59923D01*
X73050Y-60000D01*
X73050Y-60622D01*
X73009Y-60639D01*
X72889Y-60758D01*
X72825Y-60915D01*
X72824Y-61084D01*
X72889Y-61240D01*
X73008Y-61360D01*
X73165Y-61424D01*
X73334Y-61425D01*
X73490Y-61360D01*
X73610Y-61241D01*
X73674Y-61084D01*
X73675Y-60915D01*
X73610Y-60759D01*
X73491Y-60639D01*
X73450Y-60622D01*
X73450Y-60082D01*
X73882Y-59650D01*
X73967Y-59650D01*
X73858Y-59758D01*
X73815Y-59823D01*
X73800Y-59900D01*
X73800Y-61667D01*
X73667Y-61800D01*
X73627Y-61800D01*
X73610Y-61759D01*
X73491Y-61639D01*
X73334Y-61575D01*
X73165Y-61574D01*
X73009Y-61639D01*
X72889Y-61758D01*
X72825Y-61915D01*
X72824Y-62084D01*
X72889Y-62240D01*
X73008Y-62360D01*
X73165Y-62424D01*
X73334Y-62425D01*
X73490Y-62360D01*
X73610Y-62241D01*
X73627Y-62200D01*
X73750Y-62200D01*
X73826Y-62184D01*
X73891Y-62141D01*
X74141Y-61891D01*
X74141Y-61891D01*
X74170Y-61848D01*
X74184Y-61826D01*
X74184Y-61826D01*
X74199Y-61750D01*
X74200Y-61750D01*
X74200Y-59982D01*
X74232Y-59950D01*
X84917Y-59950D01*
X85050Y-60082D01*
X85050Y-60122D01*
X85009Y-60139D01*
X84889Y-60258D01*
X84825Y-60415D01*
X84824Y-60584D01*
X84889Y-60740D01*
X85008Y-60860D01*
X85165Y-60924D01*
X85334Y-60925D01*
X85490Y-60860D01*
X85610Y-60741D01*
X85674Y-60584D01*
X85675Y-60415D01*
X85610Y-60259D01*
X85491Y-60139D01*
X85450Y-60122D01*
X85450Y-60000D01*
X85434Y-59923D01*
X85434Y-59923D01*
X85420Y-59901D01*
X85391Y-59858D01*
X85391Y-59858D01*
X85182Y-59650D01*
X86867Y-59650D01*
X87050Y-59832D01*
X87050Y-60122D01*
X87009Y-60139D01*
X86889Y-60258D01*
X86825Y-60415D01*
X86824Y-60584D01*
X86889Y-60740D01*
X87008Y-60860D01*
X87165Y-60924D01*
X87334Y-60925D01*
X87490Y-60860D01*
X87610Y-60741D01*
X87674Y-60584D01*
X87675Y-60415D01*
X87610Y-60259D01*
X87491Y-60139D01*
X87450Y-60122D01*
X87450Y-59750D01*
X87449Y-59749D01*
X87434Y-59673D01*
X87434Y-59673D01*
X87420Y-59651D01*
X87391Y-59608D01*
X87391Y-59608D01*
X87232Y-59450D01*
X87917Y-59450D01*
X88050Y-59582D01*
X88050Y-60122D01*
X88009Y-60139D01*
X87889Y-60258D01*
X87825Y-60415D01*
X87824Y-60584D01*
X87889Y-60740D01*
X88008Y-60860D01*
X88165Y-60924D01*
X88334Y-60925D01*
X88490Y-60860D01*
X88610Y-60741D01*
X88674Y-60584D01*
X88675Y-60415D01*
X88610Y-60259D01*
X88491Y-60139D01*
X88450Y-60122D01*
X88450Y-59500D01*
X88434Y-59423D01*
X88434Y-59423D01*
X88420Y-59401D01*
X88391Y-59358D01*
X88391Y-59358D01*
X88232Y-59199D01*
X88339Y-59200D01*
X88504Y-59131D01*
X88631Y-59005D01*
X88699Y-58839D01*
X88700Y-58660D01*
X88700Y-61300D01*
X87509Y-61300D01*
X87434Y-61224D01*
X87314Y-61175D01*
X87185Y-61174D01*
X87066Y-61224D01*
X86999Y-61290D01*
X86934Y-61224D01*
X86814Y-61175D01*
X86685Y-61174D01*
X86675Y-61179D01*
X86675Y-60415D01*
X86610Y-60259D01*
X86491Y-60139D01*
X86334Y-60075D01*
X86165Y-60074D01*
X86009Y-60139D01*
X85889Y-60258D01*
X85825Y-60415D01*
X85824Y-60584D01*
X85889Y-60740D01*
X86008Y-60860D01*
X86165Y-60924D01*
X86334Y-60925D01*
X86490Y-60860D01*
X86610Y-60741D01*
X86674Y-60584D01*
X86675Y-60415D01*
X86675Y-61179D01*
X86566Y-61224D01*
X86474Y-61315D01*
X86425Y-61435D01*
X86424Y-61542D01*
X86417Y-61550D01*
X84680Y-61550D01*
X84680Y-60551D01*
X84667Y-60383D01*
X84627Y-60287D01*
X84563Y-60257D01*
X84492Y-60328D01*
X84492Y-60186D01*
X84462Y-60122D01*
X84301Y-60069D01*
X84133Y-60082D01*
X84037Y-60122D01*
X84007Y-60186D01*
X84250Y-60429D01*
X84492Y-60186D01*
X84492Y-60328D01*
X84320Y-60500D01*
X84563Y-60742D01*
X84627Y-60712D01*
X84680Y-60551D01*
X84680Y-61550D01*
X84492Y-61550D01*
X84492Y-60813D01*
X84250Y-60570D01*
X84179Y-60641D01*
X84179Y-60500D01*
X83936Y-60257D01*
X83872Y-60287D01*
X83819Y-60448D01*
X83832Y-60616D01*
X83872Y-60712D01*
X83936Y-60742D01*
X84179Y-60500D01*
X84179Y-60641D01*
X84007Y-60813D01*
X84037Y-60877D01*
X84198Y-60930D01*
X84366Y-60917D01*
X84462Y-60877D01*
X84492Y-60813D01*
X84492Y-61550D01*
X83875Y-61550D01*
X83933Y-61525D01*
X84025Y-61434D01*
X84074Y-61314D01*
X84075Y-61185D01*
X84025Y-61066D01*
X83934Y-60974D01*
X83814Y-60925D01*
X83685Y-60924D01*
X83675Y-60929D01*
X83675Y-60415D01*
X83610Y-60259D01*
X83491Y-60139D01*
X83334Y-60075D01*
X83165Y-60074D01*
X83009Y-60139D01*
X82889Y-60258D01*
X82825Y-60415D01*
X82824Y-60584D01*
X82889Y-60740D01*
X83008Y-60860D01*
X83165Y-60924D01*
X83334Y-60925D01*
X83490Y-60860D01*
X83610Y-60741D01*
X83674Y-60584D01*
X83675Y-60415D01*
X83675Y-60929D01*
X83566Y-60974D01*
X83490Y-61050D01*
X82675Y-61050D01*
X82675Y-60415D01*
X82610Y-60259D01*
X82491Y-60139D01*
X82334Y-60075D01*
X82165Y-60074D01*
X82009Y-60139D01*
X81889Y-60258D01*
X81825Y-60415D01*
X81824Y-60584D01*
X81889Y-60740D01*
X82008Y-60860D01*
X82165Y-60924D01*
X82334Y-60925D01*
X82490Y-60860D01*
X82610Y-60741D01*
X82674Y-60584D01*
X82675Y-60415D01*
X82675Y-61050D01*
X81509Y-61050D01*
X81434Y-60974D01*
X81314Y-60925D01*
X81334Y-60925D01*
X81490Y-60860D01*
X81610Y-60741D01*
X81674Y-60584D01*
X81675Y-60415D01*
X81610Y-60259D01*
X81491Y-60139D01*
X81334Y-60075D01*
X81165Y-60074D01*
X81009Y-60139D01*
X80889Y-60258D01*
X80825Y-60415D01*
X80824Y-60584D01*
X80889Y-60740D01*
X81008Y-60860D01*
X81165Y-60924D01*
X81185Y-60924D01*
X81066Y-60974D01*
X80974Y-61065D01*
X80925Y-61185D01*
X80924Y-61314D01*
X80974Y-61433D01*
X81065Y-61525D01*
X81124Y-61550D01*
X80675Y-61550D01*
X80675Y-60415D01*
X80610Y-60259D01*
X80491Y-60139D01*
X80334Y-60075D01*
X80165Y-60074D01*
X80009Y-60139D01*
X79889Y-60258D01*
X79825Y-60415D01*
X79824Y-60584D01*
X79889Y-60740D01*
X80008Y-60860D01*
X80165Y-60924D01*
X80334Y-60925D01*
X80490Y-60860D01*
X80610Y-60741D01*
X80674Y-60584D01*
X80675Y-60415D01*
X80675Y-61550D01*
X80582Y-61550D01*
X80574Y-61542D01*
X80575Y-61435D01*
X80525Y-61316D01*
X80434Y-61224D01*
X80314Y-61175D01*
X80185Y-61174D01*
X80066Y-61224D01*
X79974Y-61315D01*
X79925Y-61435D01*
X79924Y-61564D01*
X79974Y-61683D01*
X80065Y-61775D01*
X80124Y-61800D01*
X79675Y-61800D01*
X79675Y-60415D01*
X79610Y-60259D01*
X79491Y-60139D01*
X79334Y-60075D01*
X79165Y-60074D01*
X79009Y-60139D01*
X78889Y-60258D01*
X78825Y-60415D01*
X78824Y-60584D01*
X78889Y-60740D01*
X79008Y-60860D01*
X79165Y-60924D01*
X79334Y-60925D01*
X79490Y-60860D01*
X79610Y-60741D01*
X79674Y-60584D01*
X79675Y-60415D01*
X79675Y-61800D01*
X78675Y-61800D01*
X78675Y-60415D01*
X78610Y-60259D01*
X78491Y-60139D01*
X78334Y-60075D01*
X78165Y-60074D01*
X78009Y-60139D01*
X77889Y-60258D01*
X77825Y-60415D01*
X77824Y-60584D01*
X77889Y-60740D01*
X78008Y-60860D01*
X78050Y-60877D01*
X78050Y-60917D01*
X77917Y-61050D01*
X77675Y-61050D01*
X77675Y-60415D01*
X77610Y-60259D01*
X77491Y-60139D01*
X77334Y-60075D01*
X77165Y-60074D01*
X77009Y-60139D01*
X76889Y-60258D01*
X76825Y-60415D01*
X76824Y-60584D01*
X76889Y-60740D01*
X77008Y-60860D01*
X77165Y-60924D01*
X77334Y-60925D01*
X77490Y-60860D01*
X77610Y-60741D01*
X77674Y-60584D01*
X77675Y-60415D01*
X77675Y-61050D01*
X76675Y-61050D01*
X76675Y-60415D01*
X76610Y-60259D01*
X76491Y-60139D01*
X76334Y-60075D01*
X76165Y-60074D01*
X76009Y-60139D01*
X75889Y-60258D01*
X75825Y-60415D01*
X75824Y-60584D01*
X75889Y-60740D01*
X76008Y-60860D01*
X76165Y-60924D01*
X76334Y-60925D01*
X76490Y-60860D01*
X76610Y-60741D01*
X76674Y-60584D01*
X76675Y-60415D01*
X76675Y-61050D01*
X75759Y-61050D01*
X75684Y-60974D01*
X75564Y-60925D01*
X75435Y-60924D01*
X75316Y-60974D01*
X75224Y-61065D01*
X75175Y-61185D01*
X75174Y-61314D01*
X75224Y-61433D01*
X75315Y-61525D01*
X75435Y-61574D01*
X75564Y-61575D01*
X75683Y-61525D01*
X75759Y-61450D01*
X78000Y-61450D01*
X78076Y-61434D01*
X78141Y-61391D01*
X78391Y-61141D01*
X78391Y-61141D01*
X78420Y-61098D01*
X78434Y-61076D01*
X78434Y-61076D01*
X78449Y-61000D01*
X78450Y-61000D01*
X78450Y-60877D01*
X78490Y-60860D01*
X78610Y-60741D01*
X78674Y-60584D01*
X78675Y-60415D01*
X78675Y-61800D01*
X77509Y-61800D01*
X77434Y-61724D01*
X77314Y-61675D01*
X77185Y-61674D01*
X77066Y-61724D01*
X76974Y-61815D01*
X76925Y-61935D01*
X76924Y-62064D01*
X76974Y-62183D01*
X77065Y-62275D01*
X77124Y-62300D01*
X76509Y-62300D01*
X76434Y-62224D01*
X76314Y-62175D01*
X76185Y-62174D01*
X76066Y-62224D01*
X75974Y-62315D01*
X75925Y-62435D01*
X75924Y-62564D01*
X75974Y-62683D01*
X76065Y-62775D01*
X76185Y-62824D01*
X76314Y-62825D01*
X76433Y-62775D01*
X76509Y-62700D01*
X88490Y-62700D01*
X88565Y-62775D01*
X88685Y-62824D01*
X88814Y-62825D01*
X88933Y-62775D01*
X89025Y-62684D01*
X89074Y-62564D01*
X89075Y-62435D01*
X89025Y-62316D01*
X88934Y-62224D01*
X88875Y-62200D01*
X89624Y-62200D01*
X89566Y-62224D01*
X89474Y-62315D01*
X89425Y-62435D01*
X89424Y-62564D01*
X89474Y-62683D01*
X89565Y-62775D01*
X89685Y-62824D01*
X89814Y-62825D01*
X89933Y-62775D01*
X90009Y-62700D01*
X91240Y-62700D01*
X91315Y-62775D01*
X91435Y-62824D01*
X91564Y-62825D01*
X91683Y-62775D01*
X91775Y-62684D01*
X91824Y-62564D01*
X91825Y-62435D01*
X91775Y-62316D01*
X91684Y-62224D01*
X91625Y-62200D01*
X99240Y-62200D01*
X99315Y-62275D01*
X99435Y-62324D01*
X99564Y-62325D01*
X99683Y-62275D01*
X99775Y-62184D01*
X99824Y-62064D01*
X99825Y-61935D01*
X99775Y-61816D01*
X99684Y-61724D01*
X99625Y-61700D01*
X105167Y-61700D01*
X105608Y-62141D01*
X105673Y-62184D01*
X105673Y-62184D01*
X105686Y-62187D01*
X105750Y-62200D01*
X106813Y-62200D01*
X106842Y-62271D01*
X106977Y-62406D01*
X107154Y-62479D01*
X107345Y-62480D01*
X107521Y-62407D01*
X107656Y-62272D01*
X107729Y-62095D01*
X107730Y-61904D01*
X107730Y-74170D01*
X107700Y-74158D01*
X107700Y-67410D01*
X107700Y-63410D01*
X107631Y-63245D01*
X107505Y-63118D01*
X107339Y-63050D01*
X107160Y-63049D01*
X106995Y-63118D01*
X106868Y-63244D01*
X106800Y-63410D01*
X106799Y-63589D01*
X106868Y-63754D01*
X106994Y-63881D01*
X107160Y-63949D01*
X107339Y-63950D01*
X107504Y-63881D01*
X107631Y-63755D01*
X107699Y-63589D01*
X107700Y-63410D01*
X107700Y-67410D01*
X107631Y-67245D01*
X107505Y-67118D01*
X107339Y-67050D01*
X107160Y-67049D01*
X106995Y-67118D01*
X106868Y-67244D01*
X106800Y-67410D01*
X106799Y-67589D01*
X106868Y-67754D01*
X106994Y-67881D01*
X107160Y-67949D01*
X107339Y-67950D01*
X107504Y-67881D01*
X107631Y-67755D01*
X107699Y-67589D01*
X107700Y-67410D01*
X107700Y-74158D01*
X107439Y-74050D01*
X107061Y-74049D01*
X106712Y-74194D01*
X106445Y-74461D01*
X106300Y-74810D01*
X106299Y-75188D01*
X106444Y-75537D01*
X106711Y-75804D01*
X107060Y-75949D01*
X107249Y-75950D01*
X105785Y-75950D01*
X105785Y-64870D01*
X105785Y-62902D01*
X105697Y-62690D01*
X105536Y-62528D01*
X105324Y-62441D01*
X105096Y-62440D01*
X104884Y-62528D01*
X104722Y-62689D01*
X104635Y-62901D01*
X104634Y-63129D01*
X104722Y-63341D01*
X104883Y-63503D01*
X105095Y-63590D01*
X105323Y-63591D01*
X105535Y-63503D01*
X105697Y-63342D01*
X105784Y-63130D01*
X105785Y-62902D01*
X105785Y-64870D01*
X105697Y-64658D01*
X105536Y-64496D01*
X105324Y-64409D01*
X105096Y-64408D01*
X104884Y-64496D01*
X104722Y-64657D01*
X104670Y-64784D01*
X100865Y-64784D01*
X100865Y-62902D01*
X100777Y-62690D01*
X100616Y-62528D01*
X100404Y-62441D01*
X100176Y-62440D01*
X99964Y-62528D01*
X99802Y-62689D01*
X99715Y-62901D01*
X99714Y-63129D01*
X99802Y-63341D01*
X99963Y-63503D01*
X100175Y-63590D01*
X100403Y-63591D01*
X100615Y-63503D01*
X100777Y-63342D01*
X100864Y-63130D01*
X100865Y-62902D01*
X100865Y-64784D01*
X100829Y-64784D01*
X100777Y-64658D01*
X100616Y-64496D01*
X100404Y-64409D01*
X100176Y-64408D01*
X99964Y-64496D01*
X99802Y-64657D01*
X99750Y-64784D01*
X99743Y-64784D01*
X99684Y-64724D01*
X99564Y-64675D01*
X99435Y-64674D01*
X99316Y-64724D01*
X99224Y-64815D01*
X99175Y-64935D01*
X99174Y-65064D01*
X99224Y-65183D01*
X99315Y-65275D01*
X99435Y-65324D01*
X99564Y-65325D01*
X99683Y-65275D01*
X99757Y-65201D01*
X99802Y-65309D01*
X99963Y-65471D01*
X100175Y-65558D01*
X100403Y-65559D01*
X100615Y-65471D01*
X100777Y-65310D01*
X100829Y-65184D01*
X104670Y-65184D01*
X104722Y-65309D01*
X104883Y-65471D01*
X105095Y-65558D01*
X105323Y-65559D01*
X105535Y-65471D01*
X105697Y-65310D01*
X105784Y-65098D01*
X105785Y-64870D01*
X105785Y-75950D01*
X104309Y-75950D01*
X104309Y-75096D01*
X104309Y-70176D01*
X104221Y-69964D01*
X104060Y-69802D01*
X103848Y-69715D01*
X103620Y-69714D01*
X103408Y-69802D01*
X103246Y-69963D01*
X103230Y-70004D01*
X103230Y-68404D01*
X103230Y-67404D01*
X103157Y-67228D01*
X103022Y-67093D01*
X102845Y-67020D01*
X102654Y-67019D01*
X102478Y-67092D01*
X102343Y-67227D01*
X102270Y-67404D01*
X102269Y-67595D01*
X102342Y-67771D01*
X102477Y-67906D01*
X102654Y-67979D01*
X102845Y-67980D01*
X103021Y-67907D01*
X103156Y-67772D01*
X103229Y-67595D01*
X103230Y-67404D01*
X103230Y-68404D01*
X103157Y-68228D01*
X103022Y-68093D01*
X102845Y-68020D01*
X102654Y-68019D01*
X102478Y-68092D01*
X102343Y-68227D01*
X102313Y-68300D01*
X100575Y-68300D01*
X100575Y-67435D01*
X100525Y-67316D01*
X100434Y-67224D01*
X100314Y-67175D01*
X100185Y-67174D01*
X100066Y-67224D01*
X99990Y-67300D01*
X98785Y-67300D01*
X98785Y-64870D01*
X98785Y-62902D01*
X98697Y-62690D01*
X98536Y-62528D01*
X98324Y-62441D01*
X98096Y-62440D01*
X97884Y-62528D01*
X97722Y-62689D01*
X97635Y-62901D01*
X97634Y-63129D01*
X97722Y-63341D01*
X97883Y-63503D01*
X98095Y-63590D01*
X98323Y-63591D01*
X98535Y-63503D01*
X98697Y-63342D01*
X98784Y-63130D01*
X98785Y-62902D01*
X98785Y-64870D01*
X98697Y-64658D01*
X98536Y-64496D01*
X98324Y-64409D01*
X98096Y-64408D01*
X97884Y-64496D01*
X97722Y-64657D01*
X97670Y-64784D01*
X93865Y-64784D01*
X93865Y-62902D01*
X93777Y-62690D01*
X93616Y-62528D01*
X93404Y-62441D01*
X93176Y-62440D01*
X92964Y-62528D01*
X92802Y-62689D01*
X92715Y-62901D01*
X92714Y-63129D01*
X92802Y-63341D01*
X92963Y-63503D01*
X93175Y-63590D01*
X93403Y-63591D01*
X93615Y-63503D01*
X93777Y-63342D01*
X93864Y-63130D01*
X93865Y-62902D01*
X93865Y-64784D01*
X93829Y-64784D01*
X93777Y-64658D01*
X93616Y-64496D01*
X93404Y-64409D01*
X93176Y-64408D01*
X92964Y-64496D01*
X92802Y-64657D01*
X92750Y-64784D01*
X89675Y-64784D01*
X89675Y-63415D01*
X89610Y-63259D01*
X89491Y-63139D01*
X89334Y-63075D01*
X89165Y-63074D01*
X89009Y-63139D01*
X88889Y-63258D01*
X88825Y-63415D01*
X88824Y-63584D01*
X88889Y-63740D01*
X89008Y-63860D01*
X89165Y-63924D01*
X89334Y-63925D01*
X89490Y-63860D01*
X89610Y-63741D01*
X89674Y-63584D01*
X89675Y-63415D01*
X89675Y-64784D01*
X88993Y-64784D01*
X88934Y-64724D01*
X88814Y-64675D01*
X88685Y-64674D01*
X88675Y-64679D01*
X88675Y-63415D01*
X88610Y-63259D01*
X88491Y-63139D01*
X88334Y-63075D01*
X88165Y-63074D01*
X88009Y-63139D01*
X87889Y-63258D01*
X87825Y-63415D01*
X87824Y-63584D01*
X87889Y-63740D01*
X88008Y-63860D01*
X88165Y-63924D01*
X88334Y-63925D01*
X88490Y-63860D01*
X88610Y-63741D01*
X88674Y-63584D01*
X88675Y-63415D01*
X88675Y-64679D01*
X88566Y-64724D01*
X88474Y-64815D01*
X88425Y-64935D01*
X88424Y-65064D01*
X88474Y-65183D01*
X88565Y-65275D01*
X88685Y-65324D01*
X88814Y-65325D01*
X88933Y-65275D01*
X89025Y-65184D01*
X89025Y-65184D01*
X92750Y-65184D01*
X92802Y-65309D01*
X92963Y-65471D01*
X93175Y-65558D01*
X93403Y-65559D01*
X93615Y-65471D01*
X93777Y-65310D01*
X93829Y-65184D01*
X97670Y-65184D01*
X97722Y-65309D01*
X97883Y-65471D01*
X98095Y-65558D01*
X98323Y-65559D01*
X98535Y-65471D01*
X98697Y-65310D01*
X98784Y-65098D01*
X98785Y-64870D01*
X98785Y-67300D01*
X97936Y-67300D01*
X97907Y-67228D01*
X97772Y-67093D01*
X97595Y-67020D01*
X97404Y-67019D01*
X97228Y-67092D01*
X97093Y-67227D01*
X97020Y-67404D01*
X97019Y-67595D01*
X97092Y-67771D01*
X97227Y-67906D01*
X97404Y-67979D01*
X97595Y-67980D01*
X97771Y-67907D01*
X97906Y-67772D01*
X97936Y-67700D01*
X99990Y-67700D01*
X100065Y-67775D01*
X100185Y-67824D01*
X100314Y-67825D01*
X100433Y-67775D01*
X100525Y-67684D01*
X100574Y-67564D01*
X100575Y-67435D01*
X100575Y-68300D01*
X100509Y-68300D01*
X100434Y-68224D01*
X100314Y-68175D01*
X100185Y-68174D01*
X100066Y-68224D01*
X99974Y-68315D01*
X99925Y-68435D01*
X99924Y-68564D01*
X99974Y-68683D01*
X100065Y-68775D01*
X100185Y-68824D01*
X100314Y-68825D01*
X100433Y-68775D01*
X100509Y-68700D01*
X102313Y-68700D01*
X102342Y-68771D01*
X102477Y-68906D01*
X102654Y-68979D01*
X102845Y-68980D01*
X103021Y-68907D01*
X103156Y-68772D01*
X103229Y-68595D01*
X103230Y-68404D01*
X103230Y-70004D01*
X103159Y-70175D01*
X103158Y-70403D01*
X103246Y-70615D01*
X103407Y-70777D01*
X103619Y-70864D01*
X103847Y-70865D01*
X104059Y-70777D01*
X104221Y-70616D01*
X104308Y-70404D01*
X104309Y-70176D01*
X104309Y-75096D01*
X104221Y-74884D01*
X104075Y-74737D01*
X104075Y-71685D01*
X104025Y-71566D01*
X103934Y-71474D01*
X103814Y-71425D01*
X103685Y-71424D01*
X103566Y-71474D01*
X103490Y-71550D01*
X102341Y-71550D01*
X102341Y-70176D01*
X102253Y-69964D01*
X102092Y-69802D01*
X101880Y-69715D01*
X101652Y-69714D01*
X101440Y-69802D01*
X101278Y-69963D01*
X101191Y-70175D01*
X101190Y-70403D01*
X101278Y-70615D01*
X101439Y-70777D01*
X101651Y-70864D01*
X101879Y-70865D01*
X102091Y-70777D01*
X102253Y-70616D01*
X102340Y-70404D01*
X102341Y-70176D01*
X102341Y-71550D01*
X100375Y-71550D01*
X100433Y-71525D01*
X100525Y-71434D01*
X100574Y-71314D01*
X100575Y-71185D01*
X100525Y-71066D01*
X100434Y-70974D01*
X100314Y-70925D01*
X100185Y-70924D01*
X100066Y-70974D01*
X99990Y-71050D01*
X99059Y-71050D01*
X99059Y-70176D01*
X98971Y-69964D01*
X98810Y-69802D01*
X98598Y-69715D01*
X98370Y-69714D01*
X98158Y-69802D01*
X97996Y-69963D01*
X97985Y-69992D01*
X97985Y-68565D01*
X97973Y-68374D01*
X97923Y-68254D01*
X97852Y-68217D01*
X97782Y-68288D01*
X97782Y-68147D01*
X97745Y-68076D01*
X97565Y-68014D01*
X97374Y-68026D01*
X97254Y-68076D01*
X97217Y-68147D01*
X97500Y-68429D01*
X97782Y-68147D01*
X97782Y-68288D01*
X97570Y-68500D01*
X97852Y-68782D01*
X97923Y-68745D01*
X97985Y-68565D01*
X97985Y-69992D01*
X97909Y-70175D01*
X97908Y-70403D01*
X97996Y-70615D01*
X98157Y-70777D01*
X98369Y-70864D01*
X98597Y-70865D01*
X98809Y-70777D01*
X98971Y-70616D01*
X99058Y-70404D01*
X99059Y-70176D01*
X99059Y-71050D01*
X97782Y-71050D01*
X97782Y-68852D01*
X97500Y-68570D01*
X97429Y-68641D01*
X97429Y-68500D01*
X97147Y-68217D01*
X97076Y-68254D01*
X97014Y-68434D01*
X97026Y-68625D01*
X97076Y-68745D01*
X97147Y-68782D01*
X97429Y-68500D01*
X97429Y-68641D01*
X97217Y-68852D01*
X97254Y-68923D01*
X97434Y-68985D01*
X97625Y-68973D01*
X97745Y-68923D01*
X97782Y-68852D01*
X97782Y-71050D01*
X97091Y-71050D01*
X97091Y-70176D01*
X97003Y-69964D01*
X96842Y-69802D01*
X96630Y-69715D01*
X96402Y-69714D01*
X96190Y-69802D01*
X96028Y-69963D01*
X95941Y-70175D01*
X95940Y-70403D01*
X96028Y-70615D01*
X96189Y-70777D01*
X96401Y-70864D01*
X96629Y-70865D01*
X96841Y-70777D01*
X97003Y-70616D01*
X97090Y-70404D01*
X97091Y-70176D01*
X97091Y-71050D01*
X93809Y-71050D01*
X93809Y-70176D01*
X93721Y-69964D01*
X93560Y-69802D01*
X93348Y-69715D01*
X93120Y-69714D01*
X92908Y-69802D01*
X92746Y-69963D01*
X92730Y-70004D01*
X92730Y-68404D01*
X92730Y-67404D01*
X92657Y-67228D01*
X92522Y-67093D01*
X92345Y-67020D01*
X92154Y-67019D01*
X91978Y-67092D01*
X91843Y-67227D01*
X91770Y-67404D01*
X91769Y-67595D01*
X91842Y-67771D01*
X91977Y-67906D01*
X92154Y-67979D01*
X92345Y-67980D01*
X92521Y-67907D01*
X92656Y-67772D01*
X92729Y-67595D01*
X92730Y-67404D01*
X92730Y-68404D01*
X92657Y-68228D01*
X92522Y-68093D01*
X92345Y-68020D01*
X92154Y-68019D01*
X91978Y-68092D01*
X91843Y-68227D01*
X91813Y-68300D01*
X91205Y-68300D01*
X91205Y-66057D01*
X91192Y-65879D01*
X91148Y-65772D01*
X91081Y-65739D01*
X91010Y-65810D01*
X91010Y-65668D01*
X90977Y-65601D01*
X90807Y-65544D01*
X90629Y-65557D01*
X90522Y-65601D01*
X90489Y-65668D01*
X90750Y-65929D01*
X91010Y-65668D01*
X91010Y-65810D01*
X90820Y-66000D01*
X91081Y-66260D01*
X91148Y-66227D01*
X91205Y-66057D01*
X91205Y-68300D01*
X91010Y-68300D01*
X91010Y-66331D01*
X90750Y-66070D01*
X90679Y-66141D01*
X90679Y-66000D01*
X90418Y-65739D01*
X90351Y-65772D01*
X90294Y-65942D01*
X90307Y-66120D01*
X90351Y-66227D01*
X90418Y-66260D01*
X90679Y-66000D01*
X90679Y-66141D01*
X90489Y-66331D01*
X90522Y-66398D01*
X90692Y-66455D01*
X90870Y-66442D01*
X90977Y-66398D01*
X91010Y-66331D01*
X91010Y-68300D01*
X90575Y-68300D01*
X90575Y-67435D01*
X90525Y-67316D01*
X90434Y-67224D01*
X90314Y-67175D01*
X90185Y-67174D01*
X90066Y-67224D01*
X89990Y-67300D01*
X88575Y-67300D01*
X88575Y-65935D01*
X88525Y-65816D01*
X88434Y-65724D01*
X88314Y-65675D01*
X88185Y-65674D01*
X88075Y-65720D01*
X88075Y-64435D01*
X88025Y-64316D01*
X87934Y-64224D01*
X87814Y-64175D01*
X87685Y-64174D01*
X87675Y-64179D01*
X87675Y-63415D01*
X87610Y-63259D01*
X87491Y-63139D01*
X87334Y-63075D01*
X87165Y-63074D01*
X87009Y-63139D01*
X86889Y-63258D01*
X86825Y-63415D01*
X86824Y-63584D01*
X86889Y-63740D01*
X87008Y-63860D01*
X87165Y-63924D01*
X87334Y-63925D01*
X87490Y-63860D01*
X87610Y-63741D01*
X87674Y-63584D01*
X87675Y-63415D01*
X87675Y-64179D01*
X87566Y-64224D01*
X87490Y-64300D01*
X86675Y-64300D01*
X86675Y-63415D01*
X86610Y-63259D01*
X86491Y-63139D01*
X86334Y-63075D01*
X86165Y-63074D01*
X86009Y-63139D01*
X85889Y-63258D01*
X85825Y-63415D01*
X85824Y-63584D01*
X85889Y-63740D01*
X86008Y-63860D01*
X86165Y-63924D01*
X86334Y-63925D01*
X86490Y-63860D01*
X86610Y-63741D01*
X86674Y-63584D01*
X86675Y-63415D01*
X86675Y-64300D01*
X85675Y-64300D01*
X85675Y-63415D01*
X85610Y-63259D01*
X85491Y-63139D01*
X85334Y-63075D01*
X85165Y-63074D01*
X85009Y-63139D01*
X84889Y-63258D01*
X84825Y-63415D01*
X84824Y-63584D01*
X84889Y-63740D01*
X85008Y-63860D01*
X85165Y-63924D01*
X85334Y-63925D01*
X85490Y-63860D01*
X85610Y-63741D01*
X85674Y-63584D01*
X85675Y-63415D01*
X85675Y-64300D01*
X84675Y-64300D01*
X84675Y-63415D01*
X84610Y-63259D01*
X84491Y-63139D01*
X84334Y-63075D01*
X84165Y-63074D01*
X84009Y-63139D01*
X83889Y-63258D01*
X83825Y-63415D01*
X83824Y-63584D01*
X83889Y-63740D01*
X84008Y-63860D01*
X84165Y-63924D01*
X84334Y-63925D01*
X84490Y-63860D01*
X84610Y-63741D01*
X84674Y-63584D01*
X84675Y-63415D01*
X84675Y-64300D01*
X83675Y-64300D01*
X83675Y-63415D01*
X83610Y-63259D01*
X83491Y-63139D01*
X83334Y-63075D01*
X83165Y-63074D01*
X83009Y-63139D01*
X82889Y-63258D01*
X82825Y-63415D01*
X82824Y-63584D01*
X82889Y-63740D01*
X83008Y-63860D01*
X83165Y-63924D01*
X83334Y-63925D01*
X83490Y-63860D01*
X83610Y-63741D01*
X83674Y-63584D01*
X83675Y-63415D01*
X83675Y-64300D01*
X82680Y-64300D01*
X82680Y-63551D01*
X82667Y-63383D01*
X82627Y-63287D01*
X82563Y-63257D01*
X82492Y-63328D01*
X82492Y-63186D01*
X82462Y-63122D01*
X82301Y-63069D01*
X82133Y-63082D01*
X82037Y-63122D01*
X82007Y-63186D01*
X82250Y-63429D01*
X82492Y-63186D01*
X82492Y-63328D01*
X82320Y-63500D01*
X82563Y-63742D01*
X82627Y-63712D01*
X82680Y-63551D01*
X82680Y-64300D01*
X82492Y-64300D01*
X82492Y-63813D01*
X82250Y-63570D01*
X82179Y-63641D01*
X82179Y-63500D01*
X81936Y-63257D01*
X81872Y-63287D01*
X81819Y-63448D01*
X81832Y-63616D01*
X81872Y-63712D01*
X81936Y-63742D01*
X82179Y-63500D01*
X82179Y-63641D01*
X82007Y-63813D01*
X82037Y-63877D01*
X82198Y-63930D01*
X82366Y-63917D01*
X82462Y-63877D01*
X82492Y-63813D01*
X82492Y-64300D01*
X81675Y-64300D01*
X81675Y-63415D01*
X81610Y-63259D01*
X81491Y-63139D01*
X81334Y-63075D01*
X81165Y-63074D01*
X81009Y-63139D01*
X80889Y-63258D01*
X80825Y-63415D01*
X80824Y-63584D01*
X80889Y-63740D01*
X81008Y-63860D01*
X81165Y-63924D01*
X81334Y-63925D01*
X81490Y-63860D01*
X81610Y-63741D01*
X81674Y-63584D01*
X81675Y-63415D01*
X81675Y-64300D01*
X80675Y-64300D01*
X80675Y-63415D01*
X80610Y-63259D01*
X80491Y-63139D01*
X80334Y-63075D01*
X80165Y-63074D01*
X80009Y-63139D01*
X79889Y-63258D01*
X79825Y-63415D01*
X79824Y-63584D01*
X79889Y-63740D01*
X80008Y-63860D01*
X80165Y-63924D01*
X80334Y-63925D01*
X80490Y-63860D01*
X80610Y-63741D01*
X80674Y-63584D01*
X80675Y-63415D01*
X80675Y-64300D01*
X79675Y-64300D01*
X79675Y-63415D01*
X79610Y-63259D01*
X79491Y-63139D01*
X79334Y-63075D01*
X79165Y-63074D01*
X79009Y-63139D01*
X78889Y-63258D01*
X78825Y-63415D01*
X78824Y-63584D01*
X78889Y-63740D01*
X79008Y-63860D01*
X79165Y-63924D01*
X79334Y-63925D01*
X79490Y-63860D01*
X79610Y-63741D01*
X79674Y-63584D01*
X79675Y-63415D01*
X79675Y-64300D01*
X78675Y-64300D01*
X78675Y-63415D01*
X78610Y-63259D01*
X78491Y-63139D01*
X78334Y-63075D01*
X78165Y-63074D01*
X78009Y-63139D01*
X77889Y-63258D01*
X77825Y-63415D01*
X77824Y-63584D01*
X77889Y-63740D01*
X78008Y-63860D01*
X78165Y-63924D01*
X78334Y-63925D01*
X78490Y-63860D01*
X78610Y-63741D01*
X78674Y-63584D01*
X78675Y-63415D01*
X78675Y-64300D01*
X78250Y-64300D01*
X78186Y-64312D01*
X78173Y-64315D01*
X78108Y-64358D01*
X77675Y-64792D01*
X77675Y-63415D01*
X77610Y-63259D01*
X77491Y-63139D01*
X77334Y-63075D01*
X77165Y-63074D01*
X77009Y-63139D01*
X76889Y-63258D01*
X76825Y-63415D01*
X76824Y-63584D01*
X76889Y-63740D01*
X77008Y-63860D01*
X77165Y-63924D01*
X77334Y-63925D01*
X77490Y-63860D01*
X77610Y-63741D01*
X77674Y-63584D01*
X77675Y-63415D01*
X77675Y-64792D01*
X77608Y-64858D01*
X77565Y-64923D01*
X77550Y-65000D01*
X77550Y-65595D01*
X77495Y-65618D01*
X77368Y-65744D01*
X77345Y-65800D01*
X76675Y-65800D01*
X76675Y-63745D01*
X76675Y-63195D01*
X76652Y-63140D01*
X76610Y-63097D01*
X76554Y-63075D01*
X76495Y-63074D01*
X75945Y-63074D01*
X75890Y-63097D01*
X75847Y-63139D01*
X75825Y-63195D01*
X75824Y-63254D01*
X75824Y-63804D01*
X75847Y-63859D01*
X75889Y-63902D01*
X75945Y-63924D01*
X76004Y-63925D01*
X76554Y-63925D01*
X76609Y-63902D01*
X76652Y-63860D01*
X76674Y-63804D01*
X76675Y-63745D01*
X76675Y-65800D01*
X76509Y-65800D01*
X76434Y-65724D01*
X76314Y-65675D01*
X76185Y-65674D01*
X76066Y-65724D01*
X75974Y-65815D01*
X75925Y-65935D01*
X75924Y-66064D01*
X75974Y-66183D01*
X76065Y-66275D01*
X76185Y-66324D01*
X76314Y-66325D01*
X76433Y-66275D01*
X76509Y-66200D01*
X77345Y-66200D01*
X77368Y-66254D01*
X77494Y-66381D01*
X77660Y-66449D01*
X77839Y-66450D01*
X78004Y-66381D01*
X78131Y-66255D01*
X78199Y-66089D01*
X78200Y-65910D01*
X78131Y-65745D01*
X78005Y-65618D01*
X77950Y-65595D01*
X77950Y-65082D01*
X78332Y-64700D01*
X80124Y-64700D01*
X80066Y-64724D01*
X79974Y-64815D01*
X79925Y-64935D01*
X79924Y-65064D01*
X79974Y-65183D01*
X80065Y-65275D01*
X80185Y-65324D01*
X80314Y-65325D01*
X80433Y-65275D01*
X80509Y-65200D01*
X82490Y-65200D01*
X82565Y-65275D01*
X82685Y-65324D01*
X82814Y-65325D01*
X82933Y-65275D01*
X83025Y-65184D01*
X83074Y-65064D01*
X83075Y-64935D01*
X83025Y-64816D01*
X82934Y-64724D01*
X82875Y-64700D01*
X87490Y-64700D01*
X87565Y-64775D01*
X87685Y-64824D01*
X87814Y-64825D01*
X87933Y-64775D01*
X88025Y-64684D01*
X88074Y-64564D01*
X88075Y-64435D01*
X88075Y-65720D01*
X88066Y-65724D01*
X87990Y-65800D01*
X87154Y-65800D01*
X87131Y-65745D01*
X87005Y-65618D01*
X86857Y-65557D01*
X86933Y-65525D01*
X87025Y-65434D01*
X87074Y-65314D01*
X87075Y-65185D01*
X87025Y-65066D01*
X86934Y-64974D01*
X86814Y-64925D01*
X86685Y-64924D01*
X86566Y-64974D01*
X86490Y-65050D01*
X86009Y-65050D01*
X85934Y-64974D01*
X85814Y-64925D01*
X85685Y-64924D01*
X85566Y-64974D01*
X85474Y-65065D01*
X85425Y-65185D01*
X85424Y-65314D01*
X85474Y-65433D01*
X85565Y-65525D01*
X85685Y-65574D01*
X85814Y-65575D01*
X85933Y-65525D01*
X86009Y-65450D01*
X86490Y-65450D01*
X86565Y-65525D01*
X86642Y-65557D01*
X86495Y-65618D01*
X86368Y-65744D01*
X86345Y-65800D01*
X84654Y-65800D01*
X84631Y-65745D01*
X84505Y-65618D01*
X84339Y-65550D01*
X84160Y-65549D01*
X83995Y-65618D01*
X83868Y-65744D01*
X83800Y-65910D01*
X83799Y-66089D01*
X83868Y-66254D01*
X83994Y-66381D01*
X84160Y-66449D01*
X84339Y-66450D01*
X84504Y-66381D01*
X84631Y-66255D01*
X84654Y-66200D01*
X86345Y-66200D01*
X86368Y-66254D01*
X86494Y-66381D01*
X86660Y-66449D01*
X86839Y-66450D01*
X87004Y-66381D01*
X87131Y-66255D01*
X87154Y-66200D01*
X87990Y-66200D01*
X88065Y-66275D01*
X88185Y-66324D01*
X88314Y-66325D01*
X88433Y-66275D01*
X88525Y-66184D01*
X88574Y-66064D01*
X88575Y-65935D01*
X88575Y-67300D01*
X87436Y-67300D01*
X87407Y-67228D01*
X87272Y-67093D01*
X87200Y-67063D01*
X87200Y-67000D01*
X87184Y-66923D01*
X87184Y-66923D01*
X87170Y-66901D01*
X87141Y-66858D01*
X87141Y-66858D01*
X86891Y-66608D01*
X86826Y-66565D01*
X86750Y-66550D01*
X86009Y-66550D01*
X85934Y-66474D01*
X85814Y-66425D01*
X85685Y-66424D01*
X85566Y-66474D01*
X85474Y-66565D01*
X85425Y-66685D01*
X85424Y-66814D01*
X85474Y-66933D01*
X85565Y-67025D01*
X85685Y-67074D01*
X85814Y-67075D01*
X85933Y-67025D01*
X86009Y-66950D01*
X86667Y-66950D01*
X86786Y-67068D01*
X86728Y-67092D01*
X86593Y-67227D01*
X86520Y-67404D01*
X86519Y-67595D01*
X86592Y-67771D01*
X86727Y-67906D01*
X86904Y-67979D01*
X87095Y-67980D01*
X87271Y-67907D01*
X87406Y-67772D01*
X87436Y-67700D01*
X89990Y-67700D01*
X90065Y-67775D01*
X90185Y-67824D01*
X90314Y-67825D01*
X90433Y-67775D01*
X90525Y-67684D01*
X90574Y-67564D01*
X90575Y-67435D01*
X90575Y-68300D01*
X90509Y-68300D01*
X90434Y-68224D01*
X90314Y-68175D01*
X90185Y-68174D01*
X90066Y-68224D01*
X89974Y-68315D01*
X89925Y-68435D01*
X89924Y-68564D01*
X89974Y-68683D01*
X90065Y-68775D01*
X90185Y-68824D01*
X90314Y-68825D01*
X90433Y-68775D01*
X90509Y-68700D01*
X91813Y-68700D01*
X91842Y-68771D01*
X91977Y-68906D01*
X92154Y-68979D01*
X92345Y-68980D01*
X92521Y-68907D01*
X92656Y-68772D01*
X92729Y-68595D01*
X92730Y-68404D01*
X92730Y-70004D01*
X92659Y-70175D01*
X92658Y-70403D01*
X92746Y-70615D01*
X92907Y-70777D01*
X93119Y-70864D01*
X93347Y-70865D01*
X93559Y-70777D01*
X93721Y-70616D01*
X93808Y-70404D01*
X93809Y-70176D01*
X93809Y-71050D01*
X91841Y-71050D01*
X91841Y-70176D01*
X91753Y-69964D01*
X91592Y-69802D01*
X91380Y-69715D01*
X91152Y-69714D01*
X90940Y-69802D01*
X90778Y-69963D01*
X90691Y-70175D01*
X90690Y-70403D01*
X90778Y-70615D01*
X90939Y-70777D01*
X91151Y-70864D01*
X91379Y-70865D01*
X91591Y-70777D01*
X91753Y-70616D01*
X91840Y-70404D01*
X91841Y-70176D01*
X91841Y-71050D01*
X88559Y-71050D01*
X88559Y-70176D01*
X88471Y-69964D01*
X88310Y-69802D01*
X88098Y-69715D01*
X87870Y-69714D01*
X87658Y-69802D01*
X87496Y-69963D01*
X87485Y-69992D01*
X87485Y-68565D01*
X87473Y-68374D01*
X87423Y-68254D01*
X87352Y-68217D01*
X87282Y-68288D01*
X87282Y-68147D01*
X87245Y-68076D01*
X87065Y-68014D01*
X86874Y-68026D01*
X86754Y-68076D01*
X86717Y-68147D01*
X87000Y-68429D01*
X87282Y-68147D01*
X87282Y-68288D01*
X87070Y-68500D01*
X87352Y-68782D01*
X87423Y-68745D01*
X87485Y-68565D01*
X87485Y-69992D01*
X87409Y-70175D01*
X87408Y-70403D01*
X87496Y-70615D01*
X87657Y-70777D01*
X87869Y-70864D01*
X88097Y-70865D01*
X88309Y-70777D01*
X88471Y-70616D01*
X88558Y-70404D01*
X88559Y-70176D01*
X88559Y-71050D01*
X87282Y-71050D01*
X87282Y-68852D01*
X87000Y-68570D01*
X86929Y-68641D01*
X86929Y-68500D01*
X86647Y-68217D01*
X86576Y-68254D01*
X86514Y-68434D01*
X86526Y-68625D01*
X86576Y-68745D01*
X86647Y-68782D01*
X86929Y-68500D01*
X86929Y-68641D01*
X86717Y-68852D01*
X86754Y-68923D01*
X86934Y-68985D01*
X87125Y-68973D01*
X87245Y-68923D01*
X87282Y-68852D01*
X87282Y-71050D01*
X86591Y-71050D01*
X86591Y-70176D01*
X86503Y-69964D01*
X86342Y-69802D01*
X86130Y-69715D01*
X85902Y-69714D01*
X85690Y-69802D01*
X85528Y-69963D01*
X85441Y-70175D01*
X85440Y-70403D01*
X85528Y-70615D01*
X85689Y-70777D01*
X85901Y-70864D01*
X86129Y-70865D01*
X86341Y-70777D01*
X86503Y-70616D01*
X86590Y-70404D01*
X86591Y-70176D01*
X86591Y-71050D01*
X84009Y-71050D01*
X83934Y-70974D01*
X83814Y-70925D01*
X83685Y-70924D01*
X83566Y-70974D01*
X83474Y-71065D01*
X83425Y-71185D01*
X83424Y-71314D01*
X83474Y-71433D01*
X83565Y-71525D01*
X83685Y-71574D01*
X83814Y-71575D01*
X83933Y-71525D01*
X84009Y-71450D01*
X92124Y-71450D01*
X92066Y-71474D01*
X91974Y-71565D01*
X91925Y-71685D01*
X91924Y-71814D01*
X91974Y-71933D01*
X92065Y-72025D01*
X92185Y-72074D01*
X92314Y-72075D01*
X92433Y-72025D01*
X92509Y-71950D01*
X103490Y-71950D01*
X103565Y-72025D01*
X103685Y-72074D01*
X103814Y-72075D01*
X103933Y-72025D01*
X104025Y-71934D01*
X104074Y-71814D01*
X104075Y-71685D01*
X104075Y-74737D01*
X104060Y-74722D01*
X103848Y-74635D01*
X103620Y-74634D01*
X103408Y-74722D01*
X103246Y-74883D01*
X103159Y-75095D01*
X103158Y-75323D01*
X103246Y-75535D01*
X103407Y-75697D01*
X103619Y-75784D01*
X103847Y-75785D01*
X104059Y-75697D01*
X104221Y-75536D01*
X104308Y-75324D01*
X104309Y-75096D01*
X104309Y-75950D01*
X102341Y-75950D01*
X102341Y-75096D01*
X102253Y-74884D01*
X102092Y-74722D01*
X101880Y-74635D01*
X101652Y-74634D01*
X101440Y-74722D01*
X101278Y-74883D01*
X101191Y-75095D01*
X101190Y-75323D01*
X101278Y-75535D01*
X101439Y-75697D01*
X101651Y-75784D01*
X101879Y-75785D01*
X102091Y-75697D01*
X102253Y-75536D01*
X102340Y-75324D01*
X102341Y-75096D01*
X102341Y-75950D01*
X99059Y-75950D01*
X99059Y-75096D01*
X98971Y-74884D01*
X98825Y-74737D01*
X98825Y-72685D01*
X98775Y-72566D01*
X98684Y-72474D01*
X98564Y-72425D01*
X98435Y-72424D01*
X98316Y-72474D01*
X98240Y-72550D01*
X89509Y-72550D01*
X89434Y-72474D01*
X89314Y-72425D01*
X89185Y-72424D01*
X89066Y-72474D01*
X88974Y-72565D01*
X88925Y-72685D01*
X88924Y-72814D01*
X88974Y-72933D01*
X89065Y-73025D01*
X89185Y-73074D01*
X89314Y-73075D01*
X89433Y-73025D01*
X89509Y-72950D01*
X98240Y-72950D01*
X98315Y-73025D01*
X98435Y-73074D01*
X98564Y-73075D01*
X98683Y-73025D01*
X98775Y-72934D01*
X98824Y-72814D01*
X98825Y-72685D01*
X98825Y-74737D01*
X98810Y-74722D01*
X98598Y-74635D01*
X98370Y-74634D01*
X98158Y-74722D01*
X97996Y-74883D01*
X97909Y-75095D01*
X97908Y-75323D01*
X97996Y-75535D01*
X98157Y-75697D01*
X98369Y-75784D01*
X98597Y-75785D01*
X98809Y-75697D01*
X98971Y-75536D01*
X99058Y-75324D01*
X99059Y-75096D01*
X99059Y-75950D01*
X97091Y-75950D01*
X97091Y-75096D01*
X97003Y-74884D01*
X96842Y-74722D01*
X96630Y-74635D01*
X96402Y-74634D01*
X96190Y-74722D01*
X96028Y-74883D01*
X95941Y-75095D01*
X95940Y-75323D01*
X96028Y-75535D01*
X96189Y-75697D01*
X96401Y-75784D01*
X96629Y-75785D01*
X96841Y-75697D01*
X97003Y-75536D01*
X97090Y-75324D01*
X97091Y-75096D01*
X97091Y-75950D01*
X93809Y-75950D01*
X93809Y-75096D01*
X93721Y-74884D01*
X93575Y-74737D01*
X93575Y-73685D01*
X93525Y-73566D01*
X93434Y-73474D01*
X93314Y-73425D01*
X93185Y-73424D01*
X93066Y-73474D01*
X92990Y-73550D01*
X85009Y-73550D01*
X84934Y-73474D01*
X84814Y-73425D01*
X84685Y-73424D01*
X84566Y-73474D01*
X84474Y-73565D01*
X84425Y-73685D01*
X84424Y-73814D01*
X84474Y-73933D01*
X84565Y-74025D01*
X84624Y-74050D01*
X83309Y-74050D01*
X83309Y-70176D01*
X83221Y-69964D01*
X83060Y-69802D01*
X82848Y-69715D01*
X82620Y-69714D01*
X82408Y-69802D01*
X82246Y-69963D01*
X82230Y-70004D01*
X82230Y-68404D01*
X82230Y-67404D01*
X82157Y-67228D01*
X82022Y-67093D01*
X81845Y-67020D01*
X81654Y-67019D01*
X81478Y-67092D01*
X81343Y-67227D01*
X81270Y-67404D01*
X81269Y-67595D01*
X81342Y-67771D01*
X81477Y-67906D01*
X81654Y-67979D01*
X81845Y-67980D01*
X82021Y-67907D01*
X82156Y-67772D01*
X82229Y-67595D01*
X82230Y-67404D01*
X82230Y-68404D01*
X82157Y-68228D01*
X82022Y-68093D01*
X81845Y-68020D01*
X81654Y-68019D01*
X81478Y-68092D01*
X81343Y-68227D01*
X81313Y-68300D01*
X80700Y-68300D01*
X80700Y-65910D01*
X80631Y-65745D01*
X80505Y-65618D01*
X80339Y-65550D01*
X80160Y-65549D01*
X79995Y-65618D01*
X79868Y-65744D01*
X79800Y-65910D01*
X79799Y-66089D01*
X79868Y-66254D01*
X79994Y-66381D01*
X80160Y-66449D01*
X80339Y-66450D01*
X80504Y-66381D01*
X80631Y-66255D01*
X80699Y-66089D01*
X80700Y-65910D01*
X80700Y-68300D01*
X79075Y-68300D01*
X79075Y-67435D01*
X79025Y-67316D01*
X78934Y-67224D01*
X78814Y-67175D01*
X78685Y-67174D01*
X78566Y-67224D01*
X78490Y-67300D01*
X76936Y-67300D01*
X76907Y-67228D01*
X76772Y-67093D01*
X76595Y-67020D01*
X76404Y-67019D01*
X76228Y-67092D01*
X76093Y-67227D01*
X76020Y-67404D01*
X76019Y-67595D01*
X76092Y-67771D01*
X76227Y-67906D01*
X76404Y-67979D01*
X76595Y-67980D01*
X76771Y-67907D01*
X76906Y-67772D01*
X76936Y-67700D01*
X78490Y-67700D01*
X78565Y-67775D01*
X78685Y-67824D01*
X78814Y-67825D01*
X78933Y-67775D01*
X79025Y-67684D01*
X79074Y-67564D01*
X79075Y-67435D01*
X79075Y-68300D01*
X79009Y-68300D01*
X78934Y-68224D01*
X78814Y-68175D01*
X78685Y-68174D01*
X78566Y-68224D01*
X78474Y-68315D01*
X78425Y-68435D01*
X78424Y-68564D01*
X78474Y-68683D01*
X78565Y-68775D01*
X78685Y-68824D01*
X78814Y-68825D01*
X78933Y-68775D01*
X79009Y-68700D01*
X81313Y-68700D01*
X81342Y-68771D01*
X81477Y-68906D01*
X81654Y-68979D01*
X81845Y-68980D01*
X82021Y-68907D01*
X82156Y-68772D01*
X82229Y-68595D01*
X82230Y-68404D01*
X82230Y-70004D01*
X82159Y-70175D01*
X82158Y-70403D01*
X82246Y-70615D01*
X82407Y-70777D01*
X82619Y-70864D01*
X82847Y-70865D01*
X83059Y-70777D01*
X83221Y-70616D01*
X83308Y-70404D01*
X83309Y-70176D01*
X83309Y-74050D01*
X81341Y-74050D01*
X81341Y-70176D01*
X81253Y-69964D01*
X81092Y-69802D01*
X80880Y-69715D01*
X80652Y-69714D01*
X80440Y-69802D01*
X80278Y-69963D01*
X80191Y-70175D01*
X80190Y-70403D01*
X80278Y-70615D01*
X80439Y-70777D01*
X80651Y-70864D01*
X80879Y-70865D01*
X81091Y-70777D01*
X81253Y-70616D01*
X81340Y-70404D01*
X81341Y-70176D01*
X81341Y-74050D01*
X80009Y-74050D01*
X79934Y-73974D01*
X79814Y-73925D01*
X79685Y-73924D01*
X79566Y-73974D01*
X79474Y-74065D01*
X79425Y-74185D01*
X79424Y-74314D01*
X79474Y-74433D01*
X79565Y-74525D01*
X79685Y-74574D01*
X79814Y-74575D01*
X79933Y-74525D01*
X80009Y-74450D01*
X87500Y-74450D01*
X87635Y-74450D01*
X87784Y-74598D01*
X87784Y-74670D01*
X87658Y-74722D01*
X87496Y-74883D01*
X87409Y-75095D01*
X87408Y-75323D01*
X87496Y-75535D01*
X87657Y-75697D01*
X87869Y-75784D01*
X88097Y-75785D01*
X88309Y-75697D01*
X88471Y-75536D01*
X88558Y-75324D01*
X88559Y-75096D01*
X88471Y-74884D01*
X88310Y-74722D01*
X88184Y-74670D01*
X88184Y-74516D01*
X88171Y-74452D01*
X88168Y-74439D01*
X88168Y-74439D01*
X88125Y-74374D01*
X87859Y-74108D01*
X87794Y-74065D01*
X87718Y-74050D01*
X87500Y-74050D01*
X84875Y-74050D01*
X84933Y-74025D01*
X85009Y-73950D01*
X92990Y-73950D01*
X93065Y-74025D01*
X93185Y-74074D01*
X93314Y-74075D01*
X93433Y-74025D01*
X93525Y-73934D01*
X93574Y-73814D01*
X93575Y-73685D01*
X93575Y-74737D01*
X93560Y-74722D01*
X93348Y-74635D01*
X93120Y-74634D01*
X92908Y-74722D01*
X92746Y-74883D01*
X92659Y-75095D01*
X92658Y-75323D01*
X92746Y-75535D01*
X92907Y-75697D01*
X93119Y-75784D01*
X93347Y-75785D01*
X93559Y-75697D01*
X93721Y-75536D01*
X93808Y-75324D01*
X93809Y-75096D01*
X93809Y-75950D01*
X91841Y-75950D01*
X91841Y-75096D01*
X91753Y-74884D01*
X91592Y-74722D01*
X91380Y-74635D01*
X91152Y-74634D01*
X90940Y-74722D01*
X90778Y-74883D01*
X90691Y-75095D01*
X90690Y-75323D01*
X90778Y-75535D01*
X90939Y-75697D01*
X91151Y-75784D01*
X91379Y-75785D01*
X91591Y-75697D01*
X91753Y-75536D01*
X91840Y-75324D01*
X91841Y-75096D01*
X91841Y-75950D01*
X86591Y-75950D01*
X86591Y-75096D01*
X86503Y-74884D01*
X86342Y-74722D01*
X86130Y-74635D01*
X85902Y-74634D01*
X85690Y-74722D01*
X85528Y-74883D01*
X85441Y-75095D01*
X85440Y-75323D01*
X85528Y-75535D01*
X85689Y-75697D01*
X85901Y-75784D01*
X86129Y-75785D01*
X86341Y-75697D01*
X86503Y-75536D01*
X86590Y-75324D01*
X86591Y-75096D01*
X86591Y-75950D01*
X83309Y-75950D01*
X83309Y-75096D01*
X83221Y-74884D01*
X83060Y-74722D01*
X82848Y-74635D01*
X82620Y-74634D01*
X82408Y-74722D01*
X82246Y-74883D01*
X82159Y-75095D01*
X82158Y-75323D01*
X82246Y-75535D01*
X82407Y-75697D01*
X82619Y-75784D01*
X82847Y-75785D01*
X83059Y-75697D01*
X83221Y-75536D01*
X83308Y-75324D01*
X83309Y-75096D01*
X83309Y-75950D01*
X81341Y-75950D01*
X81341Y-75096D01*
X81253Y-74884D01*
X81092Y-74722D01*
X80880Y-74635D01*
X80652Y-74634D01*
X80440Y-74722D01*
X80278Y-74883D01*
X80191Y-75095D01*
X80190Y-75323D01*
X80278Y-75535D01*
X80439Y-75697D01*
X80651Y-75784D01*
X80879Y-75785D01*
X81091Y-75697D01*
X81253Y-75536D01*
X81340Y-75324D01*
X81341Y-75096D01*
X81341Y-75950D01*
X79575Y-75950D01*
X79575Y-75185D01*
X79525Y-75066D01*
X79434Y-74974D01*
X79314Y-74925D01*
X79185Y-74924D01*
X79066Y-74974D01*
X79030Y-75010D01*
X78575Y-75010D01*
X78575Y-71435D01*
X78525Y-71316D01*
X78434Y-71224D01*
X78314Y-71175D01*
X78185Y-71174D01*
X78066Y-71224D01*
X78059Y-71231D01*
X78059Y-70176D01*
X77971Y-69964D01*
X77810Y-69802D01*
X77598Y-69715D01*
X77370Y-69714D01*
X77158Y-69802D01*
X76996Y-69963D01*
X76985Y-69992D01*
X76985Y-68565D01*
X76973Y-68374D01*
X76923Y-68254D01*
X76852Y-68217D01*
X76782Y-68288D01*
X76782Y-68147D01*
X76745Y-68076D01*
X76565Y-68014D01*
X76374Y-68026D01*
X76254Y-68076D01*
X76217Y-68147D01*
X76500Y-68429D01*
X76782Y-68147D01*
X76782Y-68288D01*
X76570Y-68500D01*
X76852Y-68782D01*
X76923Y-68745D01*
X76985Y-68565D01*
X76985Y-69992D01*
X76909Y-70175D01*
X76908Y-70403D01*
X76996Y-70615D01*
X77157Y-70777D01*
X77369Y-70864D01*
X77597Y-70865D01*
X77809Y-70777D01*
X77971Y-70616D01*
X78058Y-70404D01*
X78059Y-70176D01*
X78059Y-71231D01*
X77974Y-71315D01*
X77925Y-71435D01*
X77924Y-71542D01*
X77167Y-72300D01*
X76825Y-72300D01*
X76825Y-70935D01*
X76782Y-70831D01*
X76782Y-68852D01*
X76500Y-68570D01*
X76429Y-68641D01*
X76429Y-68500D01*
X76147Y-68217D01*
X76076Y-68254D01*
X76014Y-68434D01*
X76026Y-68625D01*
X76076Y-68745D01*
X76147Y-68782D01*
X76429Y-68500D01*
X76429Y-68641D01*
X76217Y-68852D01*
X76254Y-68923D01*
X76434Y-68985D01*
X76625Y-68973D01*
X76745Y-68923D01*
X76782Y-68852D01*
X76782Y-70831D01*
X76775Y-70816D01*
X76684Y-70724D01*
X76564Y-70675D01*
X76435Y-70674D01*
X76316Y-70724D01*
X76224Y-70815D01*
X76175Y-70935D01*
X76174Y-71042D01*
X76091Y-71126D01*
X76091Y-70176D01*
X76003Y-69964D01*
X75842Y-69802D01*
X75630Y-69715D01*
X75575Y-69715D01*
X75575Y-68435D01*
X75525Y-68316D01*
X75434Y-68224D01*
X75314Y-68175D01*
X75185Y-68174D01*
X75066Y-68224D01*
X74990Y-68300D01*
X74955Y-68300D01*
X74955Y-62557D01*
X74942Y-62379D01*
X74898Y-62272D01*
X74831Y-62239D01*
X74760Y-62310D01*
X74760Y-62168D01*
X74727Y-62101D01*
X74557Y-62044D01*
X74379Y-62057D01*
X74272Y-62101D01*
X74239Y-62168D01*
X74500Y-62429D01*
X74760Y-62168D01*
X74760Y-62310D01*
X74570Y-62500D01*
X74831Y-62760D01*
X74898Y-62727D01*
X74955Y-62557D01*
X74955Y-68300D01*
X74760Y-68300D01*
X74760Y-62831D01*
X74500Y-62570D01*
X74429Y-62641D01*
X74429Y-62500D01*
X74168Y-62239D01*
X74101Y-62272D01*
X74044Y-62442D01*
X74057Y-62620D01*
X74101Y-62727D01*
X74168Y-62760D01*
X74429Y-62500D01*
X74429Y-62641D01*
X74239Y-62831D01*
X74272Y-62898D01*
X74442Y-62955D01*
X74620Y-62942D01*
X74727Y-62898D01*
X74760Y-62831D01*
X74760Y-68300D01*
X74205Y-68300D01*
X74205Y-66057D01*
X74192Y-65879D01*
X74148Y-65772D01*
X74081Y-65739D01*
X74010Y-65810D01*
X74010Y-65668D01*
X73977Y-65601D01*
X73807Y-65544D01*
X73675Y-65554D01*
X73675Y-64304D01*
X73675Y-63695D01*
X73652Y-63640D01*
X73610Y-63597D01*
X73554Y-63575D01*
X73495Y-63574D01*
X73337Y-63575D01*
X73300Y-63612D01*
X73300Y-63950D01*
X73637Y-63950D01*
X73675Y-63912D01*
X73675Y-63695D01*
X73675Y-64304D01*
X73675Y-64087D01*
X73637Y-64050D01*
X73300Y-64050D01*
X73300Y-64387D01*
X73337Y-64425D01*
X73495Y-64425D01*
X73554Y-64424D01*
X73610Y-64402D01*
X73652Y-64359D01*
X73675Y-64304D01*
X73675Y-65554D01*
X73629Y-65557D01*
X73522Y-65601D01*
X73489Y-65668D01*
X73750Y-65929D01*
X74010Y-65668D01*
X74010Y-65810D01*
X73820Y-66000D01*
X74081Y-66260D01*
X74148Y-66227D01*
X74205Y-66057D01*
X74205Y-68300D01*
X74010Y-68300D01*
X74010Y-66331D01*
X73750Y-66070D01*
X73679Y-66141D01*
X73679Y-66000D01*
X73418Y-65739D01*
X73351Y-65772D01*
X73294Y-65942D01*
X73307Y-66120D01*
X73351Y-66227D01*
X73418Y-66260D01*
X73679Y-66000D01*
X73679Y-66141D01*
X73489Y-66331D01*
X73522Y-66398D01*
X73692Y-66455D01*
X73870Y-66442D01*
X73977Y-66398D01*
X74010Y-66331D01*
X74010Y-68300D01*
X73200Y-68300D01*
X73200Y-64387D01*
X73200Y-64050D01*
X73200Y-63950D01*
X73200Y-63612D01*
X73162Y-63575D01*
X73004Y-63574D01*
X72945Y-63575D01*
X72889Y-63597D01*
X72847Y-63640D01*
X72824Y-63695D01*
X72825Y-63912D01*
X72862Y-63950D01*
X73200Y-63950D01*
X73200Y-64050D01*
X72862Y-64050D01*
X72825Y-64087D01*
X72824Y-64304D01*
X72847Y-64359D01*
X72889Y-64402D01*
X72945Y-64424D01*
X73004Y-64425D01*
X73162Y-64425D01*
X73200Y-64387D01*
X73200Y-68300D01*
X72180Y-68300D01*
X72180Y-66051D01*
X72167Y-65883D01*
X72127Y-65787D01*
X72063Y-65757D01*
X71992Y-65828D01*
X71992Y-65686D01*
X71962Y-65622D01*
X71801Y-65569D01*
X71633Y-65582D01*
X71537Y-65622D01*
X71507Y-65686D01*
X71750Y-65929D01*
X71992Y-65686D01*
X71992Y-65828D01*
X71820Y-66000D01*
X72063Y-66242D01*
X72127Y-66212D01*
X72180Y-66051D01*
X72180Y-68300D01*
X71992Y-68300D01*
X71992Y-66313D01*
X71750Y-66070D01*
X71679Y-66141D01*
X71679Y-66000D01*
X71436Y-65757D01*
X71372Y-65787D01*
X71319Y-65948D01*
X71332Y-66116D01*
X71372Y-66212D01*
X71436Y-66242D01*
X71679Y-66000D01*
X71679Y-66141D01*
X71507Y-66313D01*
X71537Y-66377D01*
X71698Y-66430D01*
X71866Y-66417D01*
X71962Y-66377D01*
X71992Y-66313D01*
X71992Y-68300D01*
X71730Y-68300D01*
X71730Y-67404D01*
X71657Y-67228D01*
X71522Y-67093D01*
X71345Y-67020D01*
X71175Y-67019D01*
X71175Y-65915D01*
X71110Y-65759D01*
X70991Y-65639D01*
X70834Y-65575D01*
X70675Y-65574D01*
X70675Y-63915D01*
X70675Y-62915D01*
X70610Y-62759D01*
X70491Y-62639D01*
X70334Y-62575D01*
X70165Y-62574D01*
X70009Y-62639D01*
X69889Y-62758D01*
X69825Y-62915D01*
X69824Y-63084D01*
X69889Y-63240D01*
X70008Y-63360D01*
X70165Y-63424D01*
X70334Y-63425D01*
X70490Y-63360D01*
X70610Y-63241D01*
X70674Y-63084D01*
X70675Y-62915D01*
X70675Y-63915D01*
X70610Y-63759D01*
X70491Y-63639D01*
X70334Y-63575D01*
X70165Y-63574D01*
X70009Y-63639D01*
X69889Y-63758D01*
X69872Y-63800D01*
X69832Y-63800D01*
X68950Y-62917D01*
X68950Y-60904D01*
X69004Y-60881D01*
X69131Y-60755D01*
X69199Y-60589D01*
X69200Y-60410D01*
X69131Y-60245D01*
X69005Y-60118D01*
X68839Y-60050D01*
X68660Y-60049D01*
X68495Y-60118D01*
X68368Y-60244D01*
X68300Y-60410D01*
X68299Y-60589D01*
X68368Y-60754D01*
X68494Y-60881D01*
X68550Y-60904D01*
X68550Y-63000D01*
X68565Y-63076D01*
X68608Y-63141D01*
X69608Y-64141D01*
X69608Y-64141D01*
X69651Y-64170D01*
X69673Y-64184D01*
X69673Y-64184D01*
X69750Y-64200D01*
X69872Y-64200D01*
X69889Y-64240D01*
X70008Y-64360D01*
X70165Y-64424D01*
X70334Y-64425D01*
X70490Y-64360D01*
X70610Y-64241D01*
X70674Y-64084D01*
X70675Y-63915D01*
X70675Y-65574D01*
X70665Y-65574D01*
X70509Y-65639D01*
X70389Y-65758D01*
X70325Y-65915D01*
X70324Y-66084D01*
X70389Y-66240D01*
X70508Y-66360D01*
X70665Y-66424D01*
X70834Y-66425D01*
X70990Y-66360D01*
X71110Y-66241D01*
X71174Y-66084D01*
X71175Y-65915D01*
X71175Y-67019D01*
X71154Y-67019D01*
X70978Y-67092D01*
X70843Y-67227D01*
X70770Y-67404D01*
X70769Y-67595D01*
X70842Y-67771D01*
X70977Y-67906D01*
X71154Y-67979D01*
X71345Y-67980D01*
X71521Y-67907D01*
X71656Y-67772D01*
X71729Y-67595D01*
X71730Y-67404D01*
X71730Y-68300D01*
X71686Y-68300D01*
X71657Y-68228D01*
X71522Y-68093D01*
X71345Y-68020D01*
X71154Y-68019D01*
X70978Y-68092D01*
X70843Y-68227D01*
X70813Y-68300D01*
X69200Y-68300D01*
X69200Y-64410D01*
X69131Y-64245D01*
X69005Y-64118D01*
X68839Y-64050D01*
X68660Y-64049D01*
X68495Y-64118D01*
X68368Y-64244D01*
X68345Y-64300D01*
X68250Y-64300D01*
X68186Y-64312D01*
X68173Y-64315D01*
X68108Y-64358D01*
X67608Y-64858D01*
X67565Y-64923D01*
X67550Y-65000D01*
X67550Y-65622D01*
X67509Y-65639D01*
X67389Y-65758D01*
X67372Y-65800D01*
X67200Y-65800D01*
X67200Y-64410D01*
X67200Y-60410D01*
X67131Y-60245D01*
X67005Y-60118D01*
X66839Y-60050D01*
X66660Y-60049D01*
X66495Y-60118D01*
X66368Y-60244D01*
X66300Y-60410D01*
X66299Y-60589D01*
X66368Y-60754D01*
X66494Y-60881D01*
X66660Y-60949D01*
X66839Y-60950D01*
X67004Y-60881D01*
X67131Y-60755D01*
X67199Y-60589D01*
X67200Y-60410D01*
X67200Y-64410D01*
X67131Y-64245D01*
X67005Y-64118D01*
X66839Y-64050D01*
X66660Y-64049D01*
X66495Y-64118D01*
X66368Y-64244D01*
X66300Y-64410D01*
X66299Y-64589D01*
X66368Y-64754D01*
X66494Y-64881D01*
X66550Y-64904D01*
X66550Y-65167D01*
X66448Y-65268D01*
X66225Y-65268D01*
X66225Y-58795D01*
X66225Y-58145D01*
X66202Y-58090D01*
X66160Y-58047D01*
X66104Y-58025D01*
X66045Y-58024D01*
X65950Y-58024D01*
X65950Y-58000D01*
X65934Y-57923D01*
X65934Y-57923D01*
X65920Y-57901D01*
X65891Y-57858D01*
X65891Y-57858D01*
X65641Y-57608D01*
X65576Y-57565D01*
X65500Y-57550D01*
X62250Y-57550D01*
X62173Y-57565D01*
X62151Y-57579D01*
X62108Y-57608D01*
X61358Y-58358D01*
X61315Y-58423D01*
X61300Y-58500D01*
X61300Y-67667D01*
X61150Y-67817D01*
X61150Y-63371D01*
X61051Y-63132D01*
X60905Y-62986D01*
X60905Y-61451D01*
X60844Y-61301D01*
X60730Y-61187D01*
X60581Y-61125D01*
X60419Y-61125D01*
X60270Y-61187D01*
X60156Y-61301D01*
X60094Y-61450D01*
X60094Y-61611D01*
X60155Y-61761D01*
X60269Y-61875D01*
X60418Y-61937D01*
X60580Y-61937D01*
X60729Y-61875D01*
X60843Y-61761D01*
X60905Y-61612D01*
X60905Y-61451D01*
X60905Y-62986D01*
X60868Y-62949D01*
X60629Y-62850D01*
X60371Y-62849D01*
X60132Y-62948D01*
X59949Y-63131D01*
X59850Y-63370D01*
X59849Y-63628D01*
X59948Y-63867D01*
X60131Y-64050D01*
X60370Y-64149D01*
X60628Y-64150D01*
X60867Y-64051D01*
X61050Y-63868D01*
X61149Y-63629D01*
X61150Y-63371D01*
X61150Y-67817D01*
X61108Y-67858D01*
X61065Y-67923D01*
X61050Y-68000D01*
X61050Y-69917D01*
X60905Y-70061D01*
X60905Y-65388D01*
X60844Y-65238D01*
X60730Y-65124D01*
X60581Y-65062D01*
X60419Y-65062D01*
X60270Y-65124D01*
X60156Y-65238D01*
X60094Y-65387D01*
X60094Y-65548D01*
X60155Y-65698D01*
X60269Y-65812D01*
X60418Y-65874D01*
X60580Y-65874D01*
X60729Y-65812D01*
X60843Y-65698D01*
X60905Y-65549D01*
X60905Y-65388D01*
X60905Y-70061D01*
X60700Y-70267D01*
X60700Y-69410D01*
X60631Y-69245D01*
X60505Y-69118D01*
X60339Y-69050D01*
X60160Y-69049D01*
X59995Y-69118D01*
X59868Y-69244D01*
X59800Y-69410D01*
X59799Y-69589D01*
X59868Y-69754D01*
X59994Y-69881D01*
X60160Y-69949D01*
X60339Y-69950D01*
X60504Y-69881D01*
X60631Y-69755D01*
X60699Y-69589D01*
X60700Y-69410D01*
X60700Y-70267D01*
X60667Y-70300D01*
X60654Y-70300D01*
X60631Y-70245D01*
X60505Y-70118D01*
X60339Y-70050D01*
X60160Y-70049D01*
X59995Y-70118D01*
X59868Y-70244D01*
X59800Y-70410D01*
X59799Y-70589D01*
X59868Y-70754D01*
X59994Y-70881D01*
X60160Y-70949D01*
X60339Y-70950D01*
X60504Y-70881D01*
X60631Y-70755D01*
X60654Y-70700D01*
X60750Y-70700D01*
X60826Y-70684D01*
X60891Y-70641D01*
X61391Y-70141D01*
X61434Y-70076D01*
X61434Y-70076D01*
X61437Y-70063D01*
X61449Y-70000D01*
X61450Y-70000D01*
X61450Y-68082D01*
X61641Y-67891D01*
X61641Y-67891D01*
X61670Y-67848D01*
X61684Y-67826D01*
X61684Y-67826D01*
X61699Y-67750D01*
X61700Y-67750D01*
X61700Y-58582D01*
X62332Y-57950D01*
X65417Y-57950D01*
X65492Y-58024D01*
X65395Y-58024D01*
X65340Y-58047D01*
X65297Y-58089D01*
X65275Y-58145D01*
X65274Y-58204D01*
X65274Y-58854D01*
X65297Y-58909D01*
X65339Y-58952D01*
X65395Y-58974D01*
X65454Y-58975D01*
X66104Y-58975D01*
X66159Y-58952D01*
X66202Y-58910D01*
X66224Y-58854D01*
X66225Y-58795D01*
X66225Y-65268D01*
X65225Y-65268D01*
X65225Y-58405D01*
X65152Y-58231D01*
X65019Y-58097D01*
X64844Y-58025D01*
X64655Y-58024D01*
X64481Y-58097D01*
X64347Y-58230D01*
X64275Y-58405D01*
X64274Y-58594D01*
X64347Y-58768D01*
X64480Y-58902D01*
X64550Y-58931D01*
X64550Y-60417D01*
X63635Y-61331D01*
X63089Y-61331D01*
X63019Y-61163D01*
X62837Y-60980D01*
X62598Y-60881D01*
X62339Y-60881D01*
X62100Y-60980D01*
X61917Y-61162D01*
X61818Y-61401D01*
X61818Y-61660D01*
X61917Y-61899D01*
X62099Y-62082D01*
X62338Y-62181D01*
X62597Y-62181D01*
X62836Y-62082D01*
X63019Y-61900D01*
X63089Y-61731D01*
X63718Y-61731D01*
X63795Y-61716D01*
X63859Y-61672D01*
X64891Y-60641D01*
X64891Y-60641D01*
X64920Y-60598D01*
X64934Y-60576D01*
X64934Y-60576D01*
X64949Y-60500D01*
X64950Y-60500D01*
X64950Y-58931D01*
X65018Y-58902D01*
X65152Y-58769D01*
X65224Y-58594D01*
X65225Y-58405D01*
X65225Y-65268D01*
X63089Y-65268D01*
X63019Y-65100D01*
X62933Y-65014D01*
X62933Y-63407D01*
X62862Y-63236D01*
X62732Y-63106D01*
X62561Y-63035D01*
X62376Y-63034D01*
X62205Y-63105D01*
X62074Y-63236D01*
X62003Y-63407D01*
X62003Y-63592D01*
X62074Y-63763D01*
X62204Y-63893D01*
X62375Y-63964D01*
X62560Y-63965D01*
X62731Y-63894D01*
X62862Y-63763D01*
X62933Y-63592D01*
X62933Y-63407D01*
X62933Y-65014D01*
X62837Y-64917D01*
X62598Y-64818D01*
X62339Y-64818D01*
X62100Y-64917D01*
X61917Y-65099D01*
X61818Y-65338D01*
X61818Y-65597D01*
X61917Y-65836D01*
X62099Y-66019D01*
X62338Y-66118D01*
X62597Y-66118D01*
X62836Y-66019D01*
X63019Y-65837D01*
X63089Y-65668D01*
X66531Y-65668D01*
X66608Y-65653D01*
X66672Y-65609D01*
X66891Y-65391D01*
X66891Y-65391D01*
X66920Y-65348D01*
X66934Y-65326D01*
X66934Y-65326D01*
X66949Y-65250D01*
X66950Y-65250D01*
X66950Y-64904D01*
X67004Y-64881D01*
X67131Y-64755D01*
X67199Y-64589D01*
X67200Y-64410D01*
X67200Y-65800D01*
X65250Y-65800D01*
X65173Y-65815D01*
X65151Y-65829D01*
X65108Y-65858D01*
X64108Y-66858D01*
X64065Y-66923D01*
X64050Y-67000D01*
X64050Y-67917D01*
X63667Y-68300D01*
X62654Y-68300D01*
X62631Y-68245D01*
X62505Y-68118D01*
X62339Y-68050D01*
X62160Y-68049D01*
X61995Y-68118D01*
X61868Y-68244D01*
X61800Y-68410D01*
X61799Y-68589D01*
X61868Y-68754D01*
X61994Y-68881D01*
X62160Y-68949D01*
X62339Y-68950D01*
X62504Y-68881D01*
X62631Y-68755D01*
X62654Y-68700D01*
X63750Y-68700D01*
X63826Y-68684D01*
X63891Y-68641D01*
X64391Y-68141D01*
X64434Y-68076D01*
X64434Y-68076D01*
X64437Y-68063D01*
X64449Y-68000D01*
X64450Y-68000D01*
X64450Y-67082D01*
X65332Y-66200D01*
X67372Y-66200D01*
X67389Y-66240D01*
X67508Y-66360D01*
X67665Y-66424D01*
X67834Y-66425D01*
X67990Y-66360D01*
X68110Y-66241D01*
X68174Y-66084D01*
X68175Y-65915D01*
X68110Y-65759D01*
X67991Y-65639D01*
X67950Y-65622D01*
X67950Y-65082D01*
X68332Y-64700D01*
X68345Y-64700D01*
X68368Y-64754D01*
X68494Y-64881D01*
X68660Y-64949D01*
X68839Y-64950D01*
X69004Y-64881D01*
X69131Y-64755D01*
X69199Y-64589D01*
X69200Y-64410D01*
X69200Y-68300D01*
X69175Y-68300D01*
X69175Y-65915D01*
X69110Y-65759D01*
X68991Y-65639D01*
X68834Y-65575D01*
X68665Y-65574D01*
X68509Y-65639D01*
X68389Y-65758D01*
X68325Y-65915D01*
X68324Y-66084D01*
X68389Y-66240D01*
X68508Y-66360D01*
X68665Y-66424D01*
X68834Y-66425D01*
X68990Y-66360D01*
X69110Y-66241D01*
X69174Y-66084D01*
X69175Y-65915D01*
X69175Y-68300D01*
X69075Y-68300D01*
X69075Y-67435D01*
X69025Y-67316D01*
X68934Y-67224D01*
X68814Y-67175D01*
X68685Y-67174D01*
X68566Y-67224D01*
X68490Y-67300D01*
X66436Y-67300D01*
X66407Y-67228D01*
X66272Y-67093D01*
X66095Y-67020D01*
X65904Y-67019D01*
X65728Y-67092D01*
X65593Y-67227D01*
X65520Y-67404D01*
X65519Y-67595D01*
X65592Y-67771D01*
X65727Y-67906D01*
X65904Y-67979D01*
X66095Y-67980D01*
X66271Y-67907D01*
X66406Y-67772D01*
X66436Y-67700D01*
X68490Y-67700D01*
X68565Y-67775D01*
X68685Y-67824D01*
X68814Y-67825D01*
X68933Y-67775D01*
X69025Y-67684D01*
X69074Y-67564D01*
X69075Y-67435D01*
X69075Y-68300D01*
X69009Y-68300D01*
X68934Y-68224D01*
X68814Y-68175D01*
X68685Y-68174D01*
X68566Y-68224D01*
X68474Y-68315D01*
X68425Y-68435D01*
X68424Y-68564D01*
X68474Y-68683D01*
X68565Y-68775D01*
X68685Y-68824D01*
X68814Y-68825D01*
X68933Y-68775D01*
X69009Y-68700D01*
X70813Y-68700D01*
X70842Y-68771D01*
X70977Y-68906D01*
X71154Y-68979D01*
X71345Y-68980D01*
X71521Y-68907D01*
X71656Y-68772D01*
X71686Y-68700D01*
X74990Y-68700D01*
X75065Y-68775D01*
X75185Y-68824D01*
X75314Y-68825D01*
X75433Y-68775D01*
X75525Y-68684D01*
X75574Y-68564D01*
X75575Y-68435D01*
X75575Y-69715D01*
X75402Y-69714D01*
X75190Y-69802D01*
X75028Y-69963D01*
X74941Y-70175D01*
X74940Y-70403D01*
X75028Y-70615D01*
X75189Y-70777D01*
X75401Y-70864D01*
X75629Y-70865D01*
X75841Y-70777D01*
X76003Y-70616D01*
X76090Y-70404D01*
X76091Y-70176D01*
X76091Y-71126D01*
X75917Y-71300D01*
X72809Y-71300D01*
X72809Y-70176D01*
X72721Y-69964D01*
X72560Y-69802D01*
X72348Y-69715D01*
X72120Y-69714D01*
X71908Y-69802D01*
X71746Y-69963D01*
X71659Y-70175D01*
X71658Y-70403D01*
X71746Y-70615D01*
X71907Y-70777D01*
X72119Y-70864D01*
X72347Y-70865D01*
X72559Y-70777D01*
X72721Y-70616D01*
X72808Y-70404D01*
X72809Y-70176D01*
X72809Y-71300D01*
X70841Y-71300D01*
X70841Y-70176D01*
X70753Y-69964D01*
X70592Y-69802D01*
X70380Y-69715D01*
X70152Y-69714D01*
X69940Y-69802D01*
X69778Y-69963D01*
X69691Y-70175D01*
X69690Y-70403D01*
X69778Y-70615D01*
X69939Y-70777D01*
X70151Y-70864D01*
X70379Y-70865D01*
X70591Y-70777D01*
X70753Y-70616D01*
X70840Y-70404D01*
X70841Y-70176D01*
X70841Y-71300D01*
X67332Y-71300D01*
X67184Y-71151D01*
X67184Y-70829D01*
X67309Y-70777D01*
X67471Y-70616D01*
X67558Y-70404D01*
X67559Y-70176D01*
X67471Y-69964D01*
X67310Y-69802D01*
X67098Y-69715D01*
X66870Y-69714D01*
X66658Y-69802D01*
X66496Y-69963D01*
X66485Y-69992D01*
X66485Y-68565D01*
X66473Y-68374D01*
X66423Y-68254D01*
X66352Y-68217D01*
X66282Y-68288D01*
X66282Y-68147D01*
X66245Y-68076D01*
X66065Y-68014D01*
X65874Y-68026D01*
X65754Y-68076D01*
X65717Y-68147D01*
X66000Y-68429D01*
X66282Y-68147D01*
X66282Y-68288D01*
X66070Y-68500D01*
X66352Y-68782D01*
X66423Y-68745D01*
X66485Y-68565D01*
X66485Y-69992D01*
X66409Y-70175D01*
X66408Y-70403D01*
X66496Y-70615D01*
X66657Y-70777D01*
X66784Y-70829D01*
X66784Y-71234D01*
X66799Y-71310D01*
X66842Y-71375D01*
X67108Y-71641D01*
X67173Y-71684D01*
X67173Y-71684D01*
X67186Y-71687D01*
X67250Y-71700D01*
X76000Y-71700D01*
X76076Y-71684D01*
X76141Y-71641D01*
X76457Y-71324D01*
X76564Y-71325D01*
X76683Y-71275D01*
X76775Y-71184D01*
X76824Y-71064D01*
X76825Y-70935D01*
X76825Y-72300D01*
X72509Y-72300D01*
X72434Y-72224D01*
X72314Y-72175D01*
X72185Y-72174D01*
X72066Y-72224D01*
X71974Y-72315D01*
X71925Y-72435D01*
X71924Y-72564D01*
X71974Y-72683D01*
X72065Y-72775D01*
X72185Y-72824D01*
X72314Y-72825D01*
X72433Y-72775D01*
X72509Y-72700D01*
X77250Y-72700D01*
X77326Y-72684D01*
X77391Y-72641D01*
X78207Y-71824D01*
X78314Y-71825D01*
X78433Y-71775D01*
X78525Y-71684D01*
X78574Y-71564D01*
X78575Y-71435D01*
X78575Y-75010D01*
X78023Y-75010D01*
X77971Y-74884D01*
X77810Y-74722D01*
X77598Y-74635D01*
X77370Y-74634D01*
X77158Y-74722D01*
X76996Y-74883D01*
X76909Y-75095D01*
X76908Y-75323D01*
X76996Y-75535D01*
X77157Y-75697D01*
X77369Y-75784D01*
X77597Y-75785D01*
X77809Y-75697D01*
X77971Y-75536D01*
X78023Y-75410D01*
X78964Y-75410D01*
X78974Y-75433D01*
X79065Y-75525D01*
X79185Y-75574D01*
X79314Y-75575D01*
X79433Y-75525D01*
X79525Y-75434D01*
X79574Y-75314D01*
X79575Y-75185D01*
X79575Y-75950D01*
X76091Y-75950D01*
X76091Y-75096D01*
X76003Y-74884D01*
X75842Y-74722D01*
X75630Y-74635D01*
X75402Y-74634D01*
X75190Y-74722D01*
X75028Y-74883D01*
X74941Y-75095D01*
X74940Y-75323D01*
X75028Y-75535D01*
X75189Y-75697D01*
X75401Y-75784D01*
X75629Y-75785D01*
X75841Y-75697D01*
X76003Y-75536D01*
X76090Y-75324D01*
X76091Y-75096D01*
X76091Y-75950D01*
X72809Y-75950D01*
X72809Y-75096D01*
X72721Y-74884D01*
X72560Y-74722D01*
X72348Y-74635D01*
X72120Y-74634D01*
X71908Y-74722D01*
X71746Y-74883D01*
X71659Y-75095D01*
X71658Y-75323D01*
X71746Y-75535D01*
X71907Y-75697D01*
X72119Y-75784D01*
X72347Y-75785D01*
X72559Y-75697D01*
X72721Y-75536D01*
X72808Y-75324D01*
X72809Y-75096D01*
X72809Y-75950D01*
X70841Y-75950D01*
X70841Y-75096D01*
X70753Y-74884D01*
X70592Y-74722D01*
X70380Y-74635D01*
X70152Y-74634D01*
X69940Y-74722D01*
X69778Y-74883D01*
X69691Y-75095D01*
X69690Y-75323D01*
X69778Y-75535D01*
X69939Y-75697D01*
X70151Y-75784D01*
X70379Y-75785D01*
X70591Y-75697D01*
X70753Y-75536D01*
X70840Y-75324D01*
X70841Y-75096D01*
X70841Y-75950D01*
X67559Y-75950D01*
X67559Y-75096D01*
X67471Y-74884D01*
X67310Y-74722D01*
X67098Y-74635D01*
X66870Y-74634D01*
X66658Y-74722D01*
X66496Y-74883D01*
X66409Y-75095D01*
X66408Y-75323D01*
X66496Y-75535D01*
X66657Y-75697D01*
X66869Y-75784D01*
X67097Y-75785D01*
X67309Y-75697D01*
X67471Y-75536D01*
X67558Y-75324D01*
X67559Y-75096D01*
X67559Y-75950D01*
X66282Y-75950D01*
X66282Y-68852D01*
X66000Y-68570D01*
X65929Y-68641D01*
X65929Y-68500D01*
X65647Y-68217D01*
X65576Y-68254D01*
X65514Y-68434D01*
X65526Y-68625D01*
X65576Y-68745D01*
X65647Y-68782D01*
X65929Y-68500D01*
X65929Y-68641D01*
X65717Y-68852D01*
X65754Y-68923D01*
X65934Y-68985D01*
X66125Y-68973D01*
X66245Y-68923D01*
X66282Y-68852D01*
X66282Y-75950D01*
X65591Y-75950D01*
X65591Y-75096D01*
X65591Y-70176D01*
X65503Y-69964D01*
X65342Y-69802D01*
X65130Y-69715D01*
X64902Y-69714D01*
X64690Y-69802D01*
X64528Y-69963D01*
X64441Y-70175D01*
X64440Y-70403D01*
X64528Y-70615D01*
X64689Y-70777D01*
X64901Y-70864D01*
X65129Y-70865D01*
X65341Y-70777D01*
X65503Y-70616D01*
X65590Y-70404D01*
X65591Y-70176D01*
X65591Y-75096D01*
X65503Y-74884D01*
X65342Y-74722D01*
X65130Y-74635D01*
X64902Y-74634D01*
X64690Y-74722D01*
X64528Y-74883D01*
X64441Y-75095D01*
X64440Y-75323D01*
X64528Y-75535D01*
X64689Y-75697D01*
X64901Y-75784D01*
X65129Y-75785D01*
X65341Y-75697D01*
X65503Y-75536D01*
X65590Y-75324D01*
X65591Y-75096D01*
X65591Y-75950D01*
X62700Y-75950D01*
X62700Y-72410D01*
X62631Y-72245D01*
X62505Y-72118D01*
X62450Y-72095D01*
X62450Y-72000D01*
X62437Y-71936D01*
X62434Y-71923D01*
X62434Y-71923D01*
X62391Y-71858D01*
X61891Y-71358D01*
X61826Y-71315D01*
X61750Y-71300D01*
X60654Y-71300D01*
X60631Y-71245D01*
X60505Y-71118D01*
X60339Y-71050D01*
X60160Y-71049D01*
X59995Y-71118D01*
X59868Y-71244D01*
X59800Y-71410D01*
X59799Y-71589D01*
X59868Y-71754D01*
X59994Y-71881D01*
X60160Y-71949D01*
X60339Y-71950D01*
X60504Y-71881D01*
X60631Y-71755D01*
X60654Y-71700D01*
X61667Y-71700D01*
X62050Y-72082D01*
X62050Y-72095D01*
X61995Y-72118D01*
X61868Y-72244D01*
X61800Y-72410D01*
X61799Y-72589D01*
X61868Y-72754D01*
X61994Y-72881D01*
X62160Y-72949D01*
X62339Y-72950D01*
X62504Y-72881D01*
X62631Y-72755D01*
X62699Y-72589D01*
X62700Y-72410D01*
X62700Y-75950D01*
X60438Y-75950D01*
X60787Y-75805D01*
X61054Y-75538D01*
X61199Y-75189D01*
X61200Y-74811D01*
X61055Y-74462D01*
X60788Y-74195D01*
X60439Y-74050D01*
X60061Y-74049D01*
X59712Y-74194D01*
X59550Y-74356D01*
X59550Y-65874D01*
X59596Y-65874D01*
X59745Y-65812D01*
X59859Y-65698D01*
X59921Y-65549D01*
X59921Y-65388D01*
X59860Y-65238D01*
X59745Y-65124D01*
X59596Y-65062D01*
X59550Y-65062D01*
X59550Y-61937D01*
X59596Y-61937D01*
X59745Y-61875D01*
X59859Y-61761D01*
X59921Y-61612D01*
X59921Y-61451D01*
X59860Y-61301D01*
X59745Y-61187D01*
X59596Y-61125D01*
X59550Y-61125D01*
X59550Y-58643D01*
X59711Y-58804D01*
X60060Y-58949D01*
X60438Y-58950D01*
X60787Y-58805D01*
X61054Y-58538D01*
X61199Y-58189D01*
X61200Y-57811D01*
X61055Y-57462D01*
X60788Y-57195D01*
X60439Y-57050D01*
X60250Y-57050D01*
X101769Y-57050D01*
X101730Y-57146D01*
X101729Y-57352D01*
X101808Y-57544D01*
X101955Y-57690D01*
X102146Y-57769D01*
X102352Y-57770D01*
X102544Y-57691D01*
X102690Y-57544D01*
X102769Y-57353D01*
X102770Y-57147D01*
X102730Y-57050D01*
X103769Y-57050D01*
X103730Y-57146D01*
X103729Y-57352D01*
X103808Y-57544D01*
X103955Y-57690D01*
X104146Y-57769D01*
X104352Y-57770D01*
X104544Y-57691D01*
X104690Y-57544D01*
X104769Y-57353D01*
X104770Y-57147D01*
X104730Y-57050D01*
X107061Y-57050D01*
X106712Y-57194D01*
X106445Y-57461D01*
X106300Y-57810D01*
X106299Y-58188D01*
X106444Y-58537D01*
X106711Y-58804D01*
X107060Y-58949D01*
X107438Y-58950D01*
X107787Y-58805D01*
X107950Y-58643D01*
X107950Y-74356D01*
M02*
