M48
;DRILL file {Pcbnew (2012-oct-18)-testing} date Thu 11 Jul 2013 02:17:39 PM EDT
;FORMAT={2:4/ absolute / inch / suppress trailing zeros}
FMAT,2
INCH,LZ
T1C0.025
T2C0.032
T3C0.040
T4C0.047
T5C0.051
T6C0.062
T7C0.064
T8C0.071
T9C0.120
%
G90
G05
M72
T1
X06425Y-0675
X06875Y-0675
X06875Y-0685
X07225Y-0725
X07525Y-0685
X0755Y-06125
X07625Y-0625
X07625Y-066
X0765Y-071
X07725Y-062
X07825Y-0715
X07875Y-0675
X07875Y-0685
X07925Y-07525
X07975Y-06725
X07975Y-07425
X08025Y-0615
X08025Y-065
X08125Y-06125
X08125Y-0665
X08275Y-065
X08375Y-06125
X08375Y-07125
X08475Y-07375
X08575Y-06525
X08575Y-06675
X08675Y-0615
X08675Y-06525
X08725Y-0615
X08775Y-0645
X08825Y-066
X08875Y-0625
X08875Y-065
X08925Y-07275
X08975Y-0625
X09025Y-0675
X09025Y-0685
X0915Y-0625
X09225Y-07175
X09325Y-07375
X0985Y-07275
X0995Y-062
X0995Y-065
X10025Y-0675
X10025Y-0685
X10025Y-07125
X101Y-0615
X10375Y-07175
T2
X06075Y-0695
X06075Y-0705
X06075Y-0715
X06275Y-0685
X06275Y-0725
X06475Y-05925
X06575Y-05925
X066Y-0675
X066Y-0685
X06675Y-0605
X06675Y-0645
X06775Y-066
X06875Y-0605
X06875Y-0645
X06875Y-066
X069Y-058
X069Y-059
X07025Y-061
X07025Y-062
X07025Y-063
X07025Y-064
X0705Y-0585
X07075Y-066
X07125Y-0675
X07125Y-0685
X07175Y-066
X07325Y-061
X07325Y-062
X07325Y-063
X07325Y-064
X07375Y-066
X0745Y-0585
X07625Y-0605
X07625Y-0635
X0765Y-0675
X0765Y-0685
X07725Y-0605
X07725Y-0635
X07775Y-066
X07825Y-0605
X07825Y-0635
X07925Y-0605
X07925Y-0635
X08025Y-0605
X08025Y-0635
X08025Y-066
X08125Y-0605
X08125Y-0635
X08175Y-0675
X08175Y-0685
X08225Y-05825
X08225Y-0605
X08225Y-0635
X08325Y-05825
X08325Y-0605
X08325Y-0635
X08425Y-0605
X08425Y-0635
X08425Y-066
X08525Y-0605
X08525Y-0635
X08625Y-0605
X08625Y-0635
X08675Y-066
X087Y-0675
X087Y-0685
X08725Y-0605
X08725Y-0635
X08825Y-0605
X08825Y-0635
X08925Y-0605
X08925Y-0635
X09075Y-066
X09225Y-06075
X09225Y-0675
X09225Y-0685
X09625Y-0585
X09625Y-0595
X09625Y-06075
X0975Y-0675
X0975Y-0685
X0995Y-05925
X0995Y-06025
X10225Y-0605
X10275Y-0675
X10275Y-0685
X10425Y-0605
X10725Y-061
X10725Y-062
X10725Y-0635
X10725Y-0675
T3
X08625Y-05775
X08625Y-05875
X08725Y-05775
X08725Y-05875
X08825Y-05775
X08825Y-05875
T4
X065016Y-07029
X065016Y-07521
X066984Y-07029
X066984Y-07521
X070266Y-07029
X070266Y-07521
X072234Y-07029
X072234Y-07521
X075516Y-07029
X075516Y-07521
X077484Y-07029
X077484Y-07521
X080766Y-07029
X080766Y-07521
X082734Y-07029
X082734Y-07521
X086016Y-07029
X086016Y-07521
X087984Y-07029
X087984Y-07521
X091266Y-07029
X091266Y-07521
X093234Y-07029
X093234Y-07521
X09329Y-063016
X09329Y-064984
X096516Y-07029
X096516Y-07521
X09821Y-063016
X09821Y-064984
X098484Y-07029
X098484Y-07521
X10029Y-063016
X10029Y-064984
X101766Y-07029
X101766Y-07521
X103734Y-07029
X103734Y-07521
X10521Y-063016
X10521Y-064984
T5
X059516Y-061531
X059516Y-065469
X0605Y-061531
X0605Y-065469
T6
X062469Y-0635
T7
X10225Y-05725
X10225Y-05875
X10425Y-05725
X10425Y-05875
T8
X0605Y-0635
X062469Y-061531
X062469Y-065469
T9
X0605Y-058
X0605Y-075
X107Y-058
X107Y-075
T0
M30
