G04 This is an RS-274x file exported by *
G04 gerbv version 2.5.0 *
G04 More information is available about gerbv at *
G04 http://gerbv.gpleda.org/ *
G04 --End of header info--*
%MOIN*%
%FSLAX23Y23*%
%IPPOS*%
G04 --Define apertures--*
%ADD10C,0.0020*%
%ADD11C,0.0080*%
%ADD12C,0.0059*%
%ADD13C,0.0100*%
%ADD14C,0.0090*%
%ADD15C,0.0059*%
%ADD16C,0.0040*%
%ADD17C,0.0137*%
%ADD18C,0.0120*%
%ADD19C,0.0150*%
%ADD20C,0.0001*%
%ADD21C,0.1142*%
%ADD22C,0.0709*%
%ADD23C,0.0630*%
%ADD24C,0.0739*%
%ADD25C,0.0679*%
%ADD26C,0.0929*%
%ADD27R,0.0679X0.0679*%
%ADD28R,0.0629X0.0629*%
%ADD29C,0.0629*%
%ADD30R,0.0729X0.0729*%
%ADD31C,0.0729*%
%ADD32C,0.0819*%
%ADD33C,0.1679*%
G04 --Start main section--*
G54D11*
G01X10615Y-6270D02*
G01X10640Y-6270D01*
G01X10615Y-6295D02*
G01X10615Y-6270D01*
G01X10660Y-6295D02*
G01X10615Y-6295D01*
G54D12*
G01X10615Y-6295D02*
G01X10660Y-6295D01*
G54D11*
G01X10615Y-6235D02*
G01X10615Y-6295D01*
G01X10660Y-6235D02*
G01X10615Y-6235D01*
G54D12*
G01X10615Y-6235D02*
G01X10660Y-6235D01*
G54D13*
G01X10365Y-5975D02*
G01X10365Y-6015D01*
G01X10365Y-5935D02*
G01X10365Y-5975D01*
G54D12*
G01X10365Y-5975D02*
G01X10365Y-5935D01*
G54D13*
G01X10400Y-5975D02*
G01X10405Y-5975D01*
G01X10400Y-5975D02*
G01X10365Y-5975D01*
G01X10325Y-5975D02*
G01X10400Y-5975D01*
G54D12*
G01X06250Y-5945D02*
G01X06250Y-5915D01*
G01X06250Y-5925D02*
G01X06250Y-5945D01*
G01X06245Y-5925D02*
G01X06250Y-5925D01*
G01X06245Y-5940D02*
G01X06245Y-5925D01*
G01X06245Y-5930D02*
G01X06245Y-5940D01*
G01X06240Y-5935D02*
G01X06245Y-5930D01*
G01X06240Y-5915D02*
G01X06240Y-5935D01*
G01X06250Y-5915D02*
G01X06240Y-5915D01*
G01X06250Y-5920D02*
G01X06250Y-5915D01*
G01X06250Y-5905D02*
G01X06250Y-5920D01*
G01X06235Y-5920D02*
G01X06250Y-5905D01*
G01X06255Y-5920D02*
G01X06235Y-5920D01*
G54D13*
G01X06255Y-5925D02*
G01X06290Y-5925D01*
G54D12*
G01X06255Y-5950D02*
G01X06255Y-5925D01*
G01X06230Y-5925D02*
G01X06255Y-5950D01*
G01X06255Y-5925D02*
G01X06230Y-5925D01*
G01X06255Y-5900D02*
G01X06255Y-5925D01*
G01X06230Y-5925D02*
G01X06255Y-5900D01*
G01X10500Y-6050D02*
G01X10500Y-5650D01*
G01X10150Y-6050D02*
G01X10150Y-5650D01*
G54D14*
G01X06432Y-6558D02*
G01X06432Y-6530D01*
G01X06449Y-6564D02*
G01X06389Y-6544D01*
G01X06389Y-6544D02*
G01X06449Y-6524D01*
G01X06409Y-6478D02*
G01X06449Y-6478D01*
G01X06409Y-6504D02*
G01X06441Y-6504D01*
G01X06441Y-6504D02*
G01X06446Y-6501D01*
G01X06446Y-6501D02*
G01X06449Y-6496D01*
G01X06449Y-6496D02*
G01X06449Y-6487D01*
G01X06449Y-6487D02*
G01X06446Y-6481D01*
G01X06446Y-6481D02*
G01X06444Y-6478D01*
G01X06449Y-6424D02*
G01X06389Y-6424D01*
G01X06446Y-6424D02*
G01X06449Y-6430D01*
G01X06449Y-6430D02*
G01X06449Y-6441D01*
G01X06449Y-6441D02*
G01X06446Y-6447D01*
G01X06446Y-6447D02*
G01X06444Y-6450D01*
G01X06444Y-6450D02*
G01X06438Y-6453D01*
G01X06438Y-6453D02*
G01X06421Y-6453D01*
G01X06421Y-6453D02*
G01X06415Y-6450D01*
G01X06415Y-6450D02*
G01X06412Y-6447D01*
G01X06412Y-6447D02*
G01X06409Y-6441D01*
G01X06409Y-6441D02*
G01X06409Y-6430D01*
G01X06409Y-6430D02*
G01X06412Y-6424D01*
G01X06449Y-6396D02*
G01X06409Y-6396D01*
G01X06389Y-6396D02*
G01X06392Y-6398D01*
G01X06392Y-6398D02*
G01X06395Y-6396D01*
G01X06395Y-6396D02*
G01X06392Y-6393D01*
G01X06392Y-6393D02*
G01X06389Y-6396D01*
G01X06389Y-6396D02*
G01X06395Y-6396D01*
G01X06449Y-6358D02*
G01X06446Y-6364D01*
G01X06446Y-6364D02*
G01X06444Y-6367D01*
G01X06444Y-6367D02*
G01X06438Y-6370D01*
G01X06438Y-6370D02*
G01X06421Y-6370D01*
G01X06421Y-6370D02*
G01X06415Y-6367D01*
G01X06415Y-6367D02*
G01X06412Y-6364D01*
G01X06412Y-6364D02*
G01X06409Y-6358D01*
G01X06409Y-6358D02*
G01X06409Y-6350D01*
G01X06409Y-6350D02*
G01X06412Y-6344D01*
G01X06412Y-6344D02*
G01X06415Y-6341D01*
G01X06415Y-6341D02*
G01X06421Y-6338D01*
G01X06421Y-6338D02*
G01X06438Y-6338D01*
G01X06438Y-6338D02*
G01X06444Y-6341D01*
G01X06444Y-6341D02*
G01X06446Y-6344D01*
G01X06446Y-6344D02*
G01X06449Y-6350D01*
G01X06449Y-6350D02*
G01X06449Y-6358D01*
G01X06389Y-6256D02*
G01X06389Y-6244D01*
G01X06389Y-6244D02*
G01X06392Y-6238D01*
G01X06392Y-6238D02*
G01X06398Y-6233D01*
G01X06398Y-6233D02*
G01X06409Y-6230D01*
G01X06409Y-6230D02*
G01X06429Y-6230D01*
G01X06429Y-6230D02*
G01X06441Y-6233D01*
G01X06441Y-6233D02*
G01X06446Y-6238D01*
G01X06446Y-6238D02*
G01X06449Y-6244D01*
G01X06449Y-6244D02*
G01X06449Y-6256D01*
G01X06449Y-6256D02*
G01X06446Y-6261D01*
G01X06446Y-6261D02*
G01X06441Y-6267D01*
G01X06441Y-6267D02*
G01X06429Y-6270D01*
G01X06429Y-6270D02*
G01X06409Y-6270D01*
G01X06409Y-6270D02*
G01X06398Y-6267D01*
G01X06398Y-6267D02*
G01X06392Y-6261D01*
G01X06392Y-6261D02*
G01X06389Y-6256D01*
G01X06409Y-6178D02*
G01X06449Y-6178D01*
G01X06409Y-6204D02*
G01X06441Y-6204D01*
G01X06441Y-6204D02*
G01X06446Y-6201D01*
G01X06446Y-6201D02*
G01X06449Y-6196D01*
G01X06449Y-6196D02*
G01X06449Y-6187D01*
G01X06449Y-6187D02*
G01X06446Y-6181D01*
G01X06446Y-6181D02*
G01X06444Y-6178D01*
G01X06409Y-6158D02*
G01X06409Y-6136D01*
G01X06389Y-6150D02*
G01X06441Y-6150D01*
G01X06441Y-6150D02*
G01X06446Y-6147D01*
G01X06446Y-6147D02*
G01X06449Y-6141D01*
G01X06449Y-6141D02*
G01X06449Y-6136D01*
G54D11*
G01X09452Y-5873D02*
G75*
G03X09500Y-5875I00023J-0027D01*
G01X09475Y-5850D02*
G01X09475Y-5900D01*
G54D14*
G01X09245Y-5924D02*
G01X09245Y-5864D01*
G01X09245Y-5864D02*
G01X09268Y-5864D01*
G01X09268Y-5864D02*
G01X09274Y-5867D01*
G01X09274Y-5867D02*
G01X09276Y-5870D01*
G01X09276Y-5870D02*
G01X09279Y-5876D01*
G01X09279Y-5876D02*
G01X09279Y-5884D01*
G01X09279Y-5884D02*
G01X09276Y-5890D01*
G01X09276Y-5890D02*
G01X09274Y-5893D01*
G01X09274Y-5893D02*
G01X09268Y-5896D01*
G01X09268Y-5896D02*
G01X09245Y-5896D01*
G01X09299Y-5864D02*
G01X09314Y-5924D01*
G01X09314Y-5924D02*
G01X09325Y-5881D01*
G01X09325Y-5881D02*
G01X09336Y-5924D01*
G01X09336Y-5924D02*
G01X09351Y-5864D01*
G01X09408Y-5924D02*
G01X09388Y-5896D01*
G01X09374Y-5924D02*
G01X09374Y-5864D01*
G01X09374Y-5864D02*
G01X09396Y-5864D01*
G01X09396Y-5864D02*
G01X09402Y-5867D01*
G01X09402Y-5867D02*
G01X09405Y-5870D01*
G01X09405Y-5870D02*
G01X09408Y-5876D01*
G01X09408Y-5876D02*
G01X09408Y-5884D01*
G01X09408Y-5884D02*
G01X09405Y-5890D01*
G01X09405Y-5890D02*
G01X09402Y-5893D01*
G01X09402Y-5893D02*
G01X09396Y-5896D01*
G01X09396Y-5896D02*
G01X09374Y-5896D01*
G01X08988Y-5734D02*
G01X08988Y-5783D01*
G01X08988Y-5783D02*
G01X08985Y-5788D01*
G01X08985Y-5788D02*
G01X08982Y-5791D01*
G01X08982Y-5791D02*
G01X08976Y-5794D01*
G01X08976Y-5794D02*
G01X08968Y-5794D01*
G01X08968Y-5794D02*
G01X08962Y-5791D01*
G01X08988Y-5771D02*
G01X08982Y-5774D01*
G01X08982Y-5774D02*
G01X08971Y-5774D01*
G01X08971Y-5774D02*
G01X08965Y-5771D01*
G01X08965Y-5771D02*
G01X08962Y-5768D01*
G01X08962Y-5768D02*
G01X08959Y-5763D01*
G01X08959Y-5763D02*
G01X08959Y-5746D01*
G01X08959Y-5746D02*
G01X08962Y-5740D01*
G01X08962Y-5740D02*
G01X08965Y-5737D01*
G01X08965Y-5737D02*
G01X08971Y-5734D01*
G01X08971Y-5734D02*
G01X08982Y-5734D01*
G01X08982Y-5734D02*
G01X08988Y-5737D01*
G01X09025Y-5774D02*
G01X09019Y-5771D01*
G01X09019Y-5771D02*
G01X09016Y-5768D01*
G01X09016Y-5768D02*
G01X09014Y-5763D01*
G01X09014Y-5763D02*
G01X09014Y-5746D01*
G01X09014Y-5746D02*
G01X09016Y-5740D01*
G01X09016Y-5740D02*
G01X09019Y-5737D01*
G01X09019Y-5737D02*
G01X09025Y-5734D01*
G01X09025Y-5734D02*
G01X09034Y-5734D01*
G01X09034Y-5734D02*
G01X09039Y-5737D01*
G01X09039Y-5737D02*
G01X09042Y-5740D01*
G01X09042Y-5740D02*
G01X09045Y-5746D01*
G01X09045Y-5746D02*
G01X09045Y-5763D01*
G01X09045Y-5763D02*
G01X09042Y-5768D01*
G01X09042Y-5768D02*
G01X09039Y-5771D01*
G01X09039Y-5771D02*
G01X09034Y-5774D01*
G01X09034Y-5774D02*
G01X09025Y-5774D01*
G01X09108Y-5734D02*
G01X09131Y-5734D01*
G01X09116Y-5714D02*
G01X09116Y-5766D01*
G01X09116Y-5766D02*
G01X09119Y-5771D01*
G01X09119Y-5771D02*
G01X09125Y-5774D01*
G01X09125Y-5774D02*
G01X09131Y-5774D01*
G01X09159Y-5774D02*
G01X09154Y-5771D01*
G01X09154Y-5771D02*
G01X09151Y-5768D01*
G01X09151Y-5768D02*
G01X09148Y-5763D01*
G01X09148Y-5763D02*
G01X09148Y-5746D01*
G01X09148Y-5746D02*
G01X09151Y-5740D01*
G01X09151Y-5740D02*
G01X09154Y-5737D01*
G01X09154Y-5737D02*
G01X09159Y-5734D01*
G01X09159Y-5734D02*
G01X09168Y-5734D01*
G01X09168Y-5734D02*
G01X09174Y-5737D01*
G01X09174Y-5737D02*
G01X09176Y-5740D01*
G01X09176Y-5740D02*
G01X09179Y-5746D01*
G01X09179Y-5746D02*
G01X09179Y-5763D01*
G01X09179Y-5763D02*
G01X09176Y-5768D01*
G01X09176Y-5768D02*
G01X09174Y-5771D01*
G01X09174Y-5771D02*
G01X09168Y-5774D01*
G01X09168Y-5774D02*
G01X09159Y-5774D01*
G01X09274Y-5771D02*
G01X09268Y-5774D01*
G01X09268Y-5774D02*
G01X09256Y-5774D01*
G01X09256Y-5774D02*
G01X09251Y-5771D01*
G01X09251Y-5771D02*
G01X09248Y-5766D01*
G01X09248Y-5766D02*
G01X09248Y-5743D01*
G01X09248Y-5743D02*
G01X09251Y-5737D01*
G01X09251Y-5737D02*
G01X09256Y-5734D01*
G01X09256Y-5734D02*
G01X09268Y-5734D01*
G01X09268Y-5734D02*
G01X09274Y-5737D01*
G01X09274Y-5737D02*
G01X09276Y-5743D01*
G01X09276Y-5743D02*
G01X09276Y-5748D01*
G01X09276Y-5748D02*
G01X09248Y-5754D01*
G01X09328Y-5774D02*
G01X09328Y-5714D01*
G01X09328Y-5771D02*
G01X09322Y-5774D01*
G01X09322Y-5774D02*
G01X09311Y-5774D01*
G01X09311Y-5774D02*
G01X09305Y-5771D01*
G01X09305Y-5771D02*
G01X09302Y-5768D01*
G01X09302Y-5768D02*
G01X09299Y-5763D01*
G01X09299Y-5763D02*
G01X09299Y-5746D01*
G01X09299Y-5746D02*
G01X09302Y-5740D01*
G01X09302Y-5740D02*
G01X09305Y-5737D01*
G01X09305Y-5737D02*
G01X09311Y-5734D01*
G01X09311Y-5734D02*
G01X09322Y-5734D01*
G01X09322Y-5734D02*
G01X09328Y-5737D01*
G01X09348Y-5734D02*
G01X09371Y-5734D01*
G01X09356Y-5774D02*
G01X09356Y-5723D01*
G01X09356Y-5723D02*
G01X09359Y-5717D01*
G01X09359Y-5717D02*
G01X09365Y-5714D01*
G01X09365Y-5714D02*
G01X09371Y-5714D01*
G01X09391Y-5768D02*
G01X09394Y-5771D01*
G01X09394Y-5771D02*
G01X09391Y-5774D01*
G01X09391Y-5774D02*
G01X09388Y-5771D01*
G01X09388Y-5771D02*
G01X09391Y-5768D01*
G01X09391Y-5768D02*
G01X09391Y-5774D01*
G01X09419Y-5774D02*
G01X09419Y-5714D01*
G01X09419Y-5737D02*
G01X09425Y-5734D01*
G01X09425Y-5734D02*
G01X09436Y-5734D01*
G01X09436Y-5734D02*
G01X09442Y-5737D01*
G01X09442Y-5737D02*
G01X09445Y-5740D01*
G01X09445Y-5740D02*
G01X09448Y-5746D01*
G01X09448Y-5746D02*
G01X09448Y-5763D01*
G01X09448Y-5763D02*
G01X09445Y-5768D01*
G01X09445Y-5768D02*
G01X09442Y-5771D01*
G01X09442Y-5771D02*
G01X09436Y-5774D01*
G01X09436Y-5774D02*
G01X09425Y-5774D01*
G01X09425Y-5774D02*
G01X09419Y-5771D01*
G01X09499Y-5734D02*
G01X09499Y-5774D01*
G01X09474Y-5734D02*
G01X09474Y-5766D01*
G01X09474Y-5766D02*
G01X09476Y-5771D01*
G01X09476Y-5771D02*
G01X09482Y-5774D01*
G01X09482Y-5774D02*
G01X09491Y-5774D01*
G01X09491Y-5774D02*
G01X09496Y-5771D01*
G01X09496Y-5771D02*
G01X09499Y-5768D01*
G01X09528Y-5768D02*
G01X09531Y-5771D01*
G01X09531Y-5771D02*
G01X09528Y-5774D01*
G01X09528Y-5774D02*
G01X09525Y-5771D01*
G01X09525Y-5771D02*
G01X09528Y-5768D01*
G01X09528Y-5768D02*
G01X09528Y-5774D01*
G01X09579Y-5771D02*
G01X09574Y-5774D01*
G01X09574Y-5774D02*
G01X09562Y-5774D01*
G01X09562Y-5774D02*
G01X09556Y-5771D01*
G01X09556Y-5771D02*
G01X09554Y-5766D01*
G01X09554Y-5766D02*
G01X09554Y-5743D01*
G01X09554Y-5743D02*
G01X09556Y-5737D01*
G01X09556Y-5737D02*
G01X09562Y-5734D01*
G01X09562Y-5734D02*
G01X09574Y-5734D01*
G01X09574Y-5734D02*
G01X09579Y-5737D01*
G01X09579Y-5737D02*
G01X09582Y-5743D01*
G01X09582Y-5743D02*
G01X09582Y-5748D01*
G01X09582Y-5748D02*
G01X09554Y-5754D01*
G01X09634Y-5774D02*
G01X09634Y-5714D01*
G01X09634Y-5771D02*
G01X09628Y-5774D01*
G01X09628Y-5774D02*
G01X09616Y-5774D01*
G01X09616Y-5774D02*
G01X09611Y-5771D01*
G01X09611Y-5771D02*
G01X09608Y-5768D01*
G01X09608Y-5768D02*
G01X09605Y-5763D01*
G01X09605Y-5763D02*
G01X09605Y-5746D01*
G01X09605Y-5746D02*
G01X09608Y-5740D01*
G01X09608Y-5740D02*
G01X09611Y-5737D01*
G01X09611Y-5737D02*
G01X09616Y-5734D01*
G01X09616Y-5734D02*
G01X09628Y-5734D01*
G01X09628Y-5734D02*
G01X09634Y-5737D01*
G01X09688Y-5734D02*
G01X09688Y-5774D01*
G01X09662Y-5734D02*
G01X09662Y-5766D01*
G01X09662Y-5766D02*
G01X09665Y-5771D01*
G01X09665Y-5771D02*
G01X09671Y-5774D01*
G01X09671Y-5774D02*
G01X09679Y-5774D01*
G01X09679Y-5774D02*
G01X09685Y-5771D01*
G01X09685Y-5771D02*
G01X09688Y-5768D01*
G01X09759Y-5711D02*
G01X09708Y-5788D01*
G01X09776Y-5771D02*
G01X09782Y-5774D01*
G01X09782Y-5774D02*
G01X09794Y-5774D01*
G01X09794Y-5774D02*
G01X09799Y-5771D01*
G01X09799Y-5771D02*
G01X09802Y-5766D01*
G01X09802Y-5766D02*
G01X09802Y-5763D01*
G01X09802Y-5763D02*
G01X09799Y-5757D01*
G01X09799Y-5757D02*
G01X09794Y-5754D01*
G01X09794Y-5754D02*
G01X09785Y-5754D01*
G01X09785Y-5754D02*
G01X09779Y-5751D01*
G01X09779Y-5751D02*
G01X09776Y-5746D01*
G01X09776Y-5746D02*
G01X09776Y-5743D01*
G01X09776Y-5743D02*
G01X09779Y-5737D01*
G01X09779Y-5737D02*
G01X09785Y-5734D01*
G01X09785Y-5734D02*
G01X09794Y-5734D01*
G01X09794Y-5734D02*
G01X09799Y-5737D01*
G01X09822Y-5734D02*
G01X09836Y-5774D01*
G01X09851Y-5734D02*
G01X09836Y-5774D01*
G01X09836Y-5774D02*
G01X09831Y-5788D01*
G01X09831Y-5788D02*
G01X09828Y-5791D01*
G01X09828Y-5791D02*
G01X09822Y-5794D01*
G01X09874Y-5734D02*
G01X09874Y-5774D01*
G01X09874Y-5740D02*
G01X09876Y-5737D01*
G01X09876Y-5737D02*
G01X09882Y-5734D01*
G01X09882Y-5734D02*
G01X09891Y-5734D01*
G01X09891Y-5734D02*
G01X09896Y-5737D01*
G01X09896Y-5737D02*
G01X09899Y-5743D01*
G01X09899Y-5743D02*
G01X09899Y-5774D01*
G01X09919Y-5734D02*
G01X09942Y-5734D01*
G01X09928Y-5714D02*
G01X09928Y-5766D01*
G01X09928Y-5766D02*
G01X09931Y-5771D01*
G01X09931Y-5771D02*
G01X09936Y-5774D01*
G01X09936Y-5774D02*
G01X09942Y-5774D01*
G01X09962Y-5774D02*
G01X09962Y-5714D01*
G01X09988Y-5774D02*
G01X09988Y-5743D01*
G01X09988Y-5743D02*
G01X09985Y-5737D01*
G01X09985Y-5737D02*
G01X09979Y-5734D01*
G01X09979Y-5734D02*
G01X09971Y-5734D01*
G01X09971Y-5734D02*
G01X09965Y-5737D01*
G01X09965Y-5737D02*
G01X09962Y-5740D01*
G01X07511Y-5757D02*
G01X07540Y-5757D01*
G01X07506Y-5774D02*
G01X07526Y-5714D01*
G01X07526Y-5714D02*
G01X07546Y-5774D01*
G01X07566Y-5774D02*
G01X07566Y-5734D01*
G01X07566Y-5746D02*
G01X07569Y-5740D01*
G01X07569Y-5740D02*
G01X07571Y-5737D01*
G01X07571Y-5737D02*
G01X07577Y-5734D01*
G01X07577Y-5734D02*
G01X07583Y-5734D01*
G01X07594Y-5734D02*
G01X07617Y-5734D01*
G01X07603Y-5714D02*
G01X07603Y-5766D01*
G01X07603Y-5766D02*
G01X07606Y-5771D01*
G01X07606Y-5771D02*
G01X07611Y-5774D01*
G01X07611Y-5774D02*
G01X07617Y-5774D01*
G01X07660Y-5771D02*
G01X07654Y-5774D01*
G01X07654Y-5774D02*
G01X07643Y-5774D01*
G01X07643Y-5774D02*
G01X07637Y-5771D01*
G01X07637Y-5771D02*
G01X07634Y-5766D01*
G01X07634Y-5766D02*
G01X07634Y-5743D01*
G01X07634Y-5743D02*
G01X07637Y-5737D01*
G01X07637Y-5737D02*
G01X07643Y-5734D01*
G01X07643Y-5734D02*
G01X07654Y-5734D01*
G01X07654Y-5734D02*
G01X07660Y-5737D01*
G01X07660Y-5737D02*
G01X07663Y-5743D01*
G01X07663Y-5743D02*
G01X07663Y-5748D01*
G01X07663Y-5748D02*
G01X07634Y-5754D01*
G01X07689Y-5774D02*
G01X07689Y-5734D01*
G01X07689Y-5740D02*
G01X07691Y-5737D01*
G01X07691Y-5737D02*
G01X07697Y-5734D01*
G01X07697Y-5734D02*
G01X07706Y-5734D01*
G01X07706Y-5734D02*
G01X07711Y-5737D01*
G01X07711Y-5737D02*
G01X07714Y-5743D01*
G01X07714Y-5743D02*
G01X07714Y-5774D01*
G01X07714Y-5743D02*
G01X07717Y-5737D01*
G01X07717Y-5737D02*
G01X07723Y-5734D01*
G01X07723Y-5734D02*
G01X07731Y-5734D01*
G01X07731Y-5734D02*
G01X07737Y-5737D01*
G01X07737Y-5737D02*
G01X07740Y-5743D01*
G01X07740Y-5743D02*
G01X07740Y-5774D01*
G01X07769Y-5774D02*
G01X07769Y-5734D01*
G01X07769Y-5714D02*
G01X07766Y-5717D01*
G01X07766Y-5717D02*
G01X07769Y-5720D01*
G01X07769Y-5720D02*
G01X07771Y-5717D01*
G01X07771Y-5717D02*
G01X07769Y-5714D01*
G01X07769Y-5714D02*
G01X07769Y-5720D01*
G01X07794Y-5771D02*
G01X07800Y-5774D01*
G01X07800Y-5774D02*
G01X07811Y-5774D01*
G01X07811Y-5774D02*
G01X07817Y-5771D01*
G01X07817Y-5771D02*
G01X07820Y-5766D01*
G01X07820Y-5766D02*
G01X07820Y-5763D01*
G01X07820Y-5763D02*
G01X07817Y-5757D01*
G01X07817Y-5757D02*
G01X07811Y-5754D01*
G01X07811Y-5754D02*
G01X07803Y-5754D01*
G01X07803Y-5754D02*
G01X07797Y-5751D01*
G01X07797Y-5751D02*
G01X07794Y-5746D01*
G01X07794Y-5746D02*
G01X07794Y-5743D01*
G01X07794Y-5743D02*
G01X07797Y-5737D01*
G01X07797Y-5737D02*
G01X07803Y-5734D01*
G01X07803Y-5734D02*
G01X07811Y-5734D01*
G01X07811Y-5734D02*
G01X07817Y-5737D01*
G01X07889Y-5771D02*
G01X07897Y-5774D01*
G01X07897Y-5774D02*
G01X07911Y-5774D01*
G01X07911Y-5774D02*
G01X07917Y-5771D01*
G01X07917Y-5771D02*
G01X07920Y-5768D01*
G01X07920Y-5768D02*
G01X07923Y-5763D01*
G01X07923Y-5763D02*
G01X07923Y-5757D01*
G01X07923Y-5757D02*
G01X07920Y-5751D01*
G01X07920Y-5751D02*
G01X07917Y-5748D01*
G01X07917Y-5748D02*
G01X07911Y-5746D01*
G01X07911Y-5746D02*
G01X07900Y-5743D01*
G01X07900Y-5743D02*
G01X07894Y-5740D01*
G01X07894Y-5740D02*
G01X07891Y-5737D01*
G01X07891Y-5737D02*
G01X07889Y-5731D01*
G01X07889Y-5731D02*
G01X07889Y-5726D01*
G01X07889Y-5726D02*
G01X07891Y-5720D01*
G01X07891Y-5720D02*
G01X07894Y-5717D01*
G01X07894Y-5717D02*
G01X07900Y-5714D01*
G01X07900Y-5714D02*
G01X07914Y-5714D01*
G01X07914Y-5714D02*
G01X07923Y-5717D01*
G01X07943Y-5734D02*
G01X07957Y-5774D01*
G01X07971Y-5734D02*
G01X07957Y-5774D01*
G01X07957Y-5774D02*
G01X07951Y-5788D01*
G01X07951Y-5788D02*
G01X07949Y-5791D01*
G01X07949Y-5791D02*
G01X07943Y-5794D01*
G01X07994Y-5734D02*
G01X07994Y-5774D01*
G01X07994Y-5740D02*
G01X07997Y-5737D01*
G01X07997Y-5737D02*
G01X08003Y-5734D01*
G01X08003Y-5734D02*
G01X08011Y-5734D01*
G01X08011Y-5734D02*
G01X08017Y-5737D01*
G01X08017Y-5737D02*
G01X08020Y-5743D01*
G01X08020Y-5743D02*
G01X08020Y-5774D01*
G01X08040Y-5734D02*
G01X08063Y-5734D01*
G01X08049Y-5714D02*
G01X08049Y-5766D01*
G01X08049Y-5766D02*
G01X08051Y-5771D01*
G01X08051Y-5771D02*
G01X08057Y-5774D01*
G01X08057Y-5774D02*
G01X08063Y-5774D01*
G01X08083Y-5774D02*
G01X08083Y-5714D01*
G01X08108Y-5774D02*
G01X08108Y-5743D01*
G01X08108Y-5743D02*
G01X08106Y-5737D01*
G01X08106Y-5737D02*
G01X08100Y-5734D01*
G01X08100Y-5734D02*
G01X08091Y-5734D01*
G01X08091Y-5734D02*
G01X08086Y-5737D01*
G01X08086Y-5737D02*
G01X08083Y-5740D01*
G01X07549Y-5861D02*
G01X07546Y-5864D01*
G01X07546Y-5864D02*
G01X07537Y-5867D01*
G01X07537Y-5867D02*
G01X07531Y-5867D01*
G01X07531Y-5867D02*
G01X07523Y-5864D01*
G01X07523Y-5864D02*
G01X07517Y-5859D01*
G01X07517Y-5859D02*
G01X07514Y-5853D01*
G01X07514Y-5853D02*
G01X07511Y-5841D01*
G01X07511Y-5841D02*
G01X07511Y-5833D01*
G01X07511Y-5833D02*
G01X07514Y-5821D01*
G01X07514Y-5821D02*
G01X07517Y-5816D01*
G01X07517Y-5816D02*
G01X07523Y-5810D01*
G01X07523Y-5810D02*
G01X07531Y-5807D01*
G01X07531Y-5807D02*
G01X07537Y-5807D01*
G01X07537Y-5807D02*
G01X07546Y-5810D01*
G01X07546Y-5810D02*
G01X07549Y-5813D01*
G01X07574Y-5861D02*
G01X07577Y-5864D01*
G01X07577Y-5864D02*
G01X07574Y-5867D01*
G01X07574Y-5867D02*
G01X07571Y-5864D01*
G01X07571Y-5864D02*
G01X07574Y-5861D01*
G01X07574Y-5861D02*
G01X07574Y-5867D01*
G01X07643Y-5807D02*
G01X07657Y-5867D01*
G01X07657Y-5867D02*
G01X07669Y-5824D01*
G01X07669Y-5824D02*
G01X07680Y-5867D01*
G01X07680Y-5867D02*
G01X07694Y-5807D01*
G01X07726Y-5867D02*
G01X07720Y-5864D01*
G01X07720Y-5864D02*
G01X07717Y-5861D01*
G01X07717Y-5861D02*
G01X07714Y-5856D01*
G01X07714Y-5856D02*
G01X07714Y-5839D01*
G01X07714Y-5839D02*
G01X07717Y-5833D01*
G01X07717Y-5833D02*
G01X07720Y-5830D01*
G01X07720Y-5830D02*
G01X07726Y-5827D01*
G01X07726Y-5827D02*
G01X07734Y-5827D01*
G01X07734Y-5827D02*
G01X07740Y-5830D01*
G01X07740Y-5830D02*
G01X07743Y-5833D01*
G01X07743Y-5833D02*
G01X07746Y-5839D01*
G01X07746Y-5839D02*
G01X07746Y-5856D01*
G01X07746Y-5856D02*
G01X07743Y-5861D01*
G01X07743Y-5861D02*
G01X07740Y-5864D01*
G01X07740Y-5864D02*
G01X07734Y-5867D01*
G01X07734Y-5867D02*
G01X07726Y-5867D01*
G01X07780Y-5867D02*
G01X07774Y-5864D01*
G01X07774Y-5864D02*
G01X07771Y-5861D01*
G01X07771Y-5861D02*
G01X07769Y-5856D01*
G01X07769Y-5856D02*
G01X07769Y-5839D01*
G01X07769Y-5839D02*
G01X07771Y-5833D01*
G01X07771Y-5833D02*
G01X07774Y-5830D01*
G01X07774Y-5830D02*
G01X07780Y-5827D01*
G01X07780Y-5827D02*
G01X07789Y-5827D01*
G01X07789Y-5827D02*
G01X07794Y-5830D01*
G01X07794Y-5830D02*
G01X07797Y-5833D01*
G01X07797Y-5833D02*
G01X07800Y-5839D01*
G01X07800Y-5839D02*
G01X07800Y-5856D01*
G01X07800Y-5856D02*
G01X07797Y-5861D01*
G01X07797Y-5861D02*
G01X07794Y-5864D01*
G01X07794Y-5864D02*
G01X07789Y-5867D01*
G01X07789Y-5867D02*
G01X07780Y-5867D01*
G01X07851Y-5867D02*
G01X07851Y-5807D01*
G01X07851Y-5864D02*
G01X07846Y-5867D01*
G01X07846Y-5867D02*
G01X07834Y-5867D01*
G01X07834Y-5867D02*
G01X07829Y-5864D01*
G01X07829Y-5864D02*
G01X07826Y-5861D01*
G01X07826Y-5861D02*
G01X07823Y-5856D01*
G01X07823Y-5856D02*
G01X07823Y-5839D01*
G01X07823Y-5839D02*
G01X07826Y-5833D01*
G01X07826Y-5833D02*
G01X07829Y-5830D01*
G01X07829Y-5830D02*
G01X07834Y-5827D01*
G01X07834Y-5827D02*
G01X07846Y-5827D01*
G01X07846Y-5827D02*
G01X07851Y-5830D01*
G01X07906Y-5867D02*
G01X07906Y-5836D01*
G01X07906Y-5836D02*
G01X07903Y-5830D01*
G01X07903Y-5830D02*
G01X07897Y-5827D01*
G01X07897Y-5827D02*
G01X07886Y-5827D01*
G01X07886Y-5827D02*
G01X07880Y-5830D01*
G01X07906Y-5864D02*
G01X07900Y-5867D01*
G01X07900Y-5867D02*
G01X07886Y-5867D01*
G01X07886Y-5867D02*
G01X07880Y-5864D01*
G01X07880Y-5864D02*
G01X07877Y-5859D01*
G01X07877Y-5859D02*
G01X07877Y-5853D01*
G01X07877Y-5853D02*
G01X07880Y-5847D01*
G01X07880Y-5847D02*
G01X07886Y-5844D01*
G01X07886Y-5844D02*
G01X07900Y-5844D01*
G01X07900Y-5844D02*
G01X07906Y-5841D01*
G01X07943Y-5867D02*
G01X07937Y-5864D01*
G01X07937Y-5864D02*
G01X07934Y-5859D01*
G01X07934Y-5859D02*
G01X07934Y-5807D01*
G01X07974Y-5867D02*
G01X07969Y-5864D01*
G01X07969Y-5864D02*
G01X07966Y-5859D01*
G01X07966Y-5859D02*
G01X07966Y-5807D01*
G01X07549Y-5960D02*
G01X07529Y-5932D01*
G01X07514Y-5960D02*
G01X07514Y-5900D01*
G01X07514Y-5900D02*
G01X07537Y-5900D01*
G01X07537Y-5900D02*
G01X07543Y-5903D01*
G01X07543Y-5903D02*
G01X07546Y-5906D01*
G01X07546Y-5906D02*
G01X07549Y-5912D01*
G01X07549Y-5912D02*
G01X07549Y-5920D01*
G01X07549Y-5920D02*
G01X07546Y-5926D01*
G01X07546Y-5926D02*
G01X07543Y-5929D01*
G01X07543Y-5929D02*
G01X07537Y-5932D01*
G01X07537Y-5932D02*
G01X07514Y-5932D01*
G01X07597Y-5957D02*
G01X07591Y-5960D01*
G01X07591Y-5960D02*
G01X07580Y-5960D01*
G01X07580Y-5960D02*
G01X07574Y-5957D01*
G01X07574Y-5957D02*
G01X07571Y-5952D01*
G01X07571Y-5952D02*
G01X07571Y-5929D01*
G01X07571Y-5929D02*
G01X07574Y-5923D01*
G01X07574Y-5923D02*
G01X07580Y-5920D01*
G01X07580Y-5920D02*
G01X07591Y-5920D01*
G01X07591Y-5920D02*
G01X07597Y-5923D01*
G01X07597Y-5923D02*
G01X07600Y-5929D01*
G01X07600Y-5929D02*
G01X07600Y-5934D01*
G01X07600Y-5934D02*
G01X07571Y-5940D01*
G01X07620Y-5920D02*
G01X07634Y-5960D01*
G01X07634Y-5960D02*
G01X07649Y-5920D01*
G01X07671Y-5954D02*
G01X07674Y-5957D01*
G01X07674Y-5957D02*
G01X07671Y-5960D01*
G01X07671Y-5960D02*
G01X07669Y-5957D01*
G01X07669Y-5957D02*
G01X07671Y-5954D01*
G01X07671Y-5954D02*
G01X07671Y-5960D01*
G01X07780Y-5954D02*
G01X07777Y-5957D01*
G01X07777Y-5957D02*
G01X07769Y-5960D01*
G01X07769Y-5960D02*
G01X07763Y-5960D01*
G01X07763Y-5960D02*
G01X07754Y-5957D01*
G01X07754Y-5957D02*
G01X07749Y-5952D01*
G01X07749Y-5952D02*
G01X07746Y-5946D01*
G01X07746Y-5946D02*
G01X07743Y-5934D01*
G01X07743Y-5934D02*
G01X07743Y-5926D01*
G01X07743Y-5926D02*
G01X07746Y-5914D01*
G01X07746Y-5914D02*
G01X07749Y-5909D01*
G01X07749Y-5909D02*
G01X07754Y-5903D01*
G01X07754Y-5903D02*
G01X07763Y-5900D01*
G01X07763Y-5900D02*
G01X07769Y-5900D01*
G01X07769Y-5900D02*
G01X07777Y-5903D01*
G01X07777Y-5903D02*
G01X07780Y-5906D01*
G01X07866Y-5980D02*
G01X07866Y-5894D01*
G01X07951Y-5906D02*
G01X07954Y-5903D01*
G01X07954Y-5903D02*
G01X07960Y-5900D01*
G01X07960Y-5900D02*
G01X07974Y-5900D01*
G01X07974Y-5900D02*
G01X07980Y-5903D01*
G01X07980Y-5903D02*
G01X07983Y-5906D01*
G01X07983Y-5906D02*
G01X07986Y-5912D01*
G01X07986Y-5912D02*
G01X07986Y-5917D01*
G01X07986Y-5917D02*
G01X07983Y-5926D01*
G01X07983Y-5926D02*
G01X07949Y-5960D01*
G01X07949Y-5960D02*
G01X07986Y-5960D01*
G01X08023Y-5900D02*
G01X08028Y-5900D01*
G01X08028Y-5900D02*
G01X08034Y-5903D01*
G01X08034Y-5903D02*
G01X08037Y-5906D01*
G01X08037Y-5906D02*
G01X08040Y-5912D01*
G01X08040Y-5912D02*
G01X08043Y-5923D01*
G01X08043Y-5923D02*
G01X08043Y-5937D01*
G01X08043Y-5937D02*
G01X08040Y-5949D01*
G01X08040Y-5949D02*
G01X08037Y-5954D01*
G01X08037Y-5954D02*
G01X08034Y-5957D01*
G01X08034Y-5957D02*
G01X08028Y-5960D01*
G01X08028Y-5960D02*
G01X08023Y-5960D01*
G01X08023Y-5960D02*
G01X08017Y-5957D01*
G01X08017Y-5957D02*
G01X08014Y-5954D01*
G01X08014Y-5954D02*
G01X08011Y-5949D01*
G01X08011Y-5949D02*
G01X08009Y-5937D01*
G01X08009Y-5937D02*
G01X08009Y-5923D01*
G01X08009Y-5923D02*
G01X08011Y-5912D01*
G01X08011Y-5912D02*
G01X08014Y-5906D01*
G01X08014Y-5906D02*
G01X08017Y-5903D01*
G01X08017Y-5903D02*
G01X08023Y-5900D01*
G01X08100Y-5960D02*
G01X08066Y-5960D01*
G01X08083Y-5960D02*
G01X08083Y-5900D01*
G01X08083Y-5900D02*
G01X08077Y-5909D01*
G01X08077Y-5909D02*
G01X08071Y-5914D01*
G01X08071Y-5914D02*
G01X08066Y-5917D01*
G01X08120Y-5900D02*
G01X08157Y-5900D01*
G01X08157Y-5900D02*
G01X08137Y-5923D01*
G01X08137Y-5923D02*
G01X08146Y-5923D01*
G01X08146Y-5923D02*
G01X08151Y-5926D01*
G01X08151Y-5926D02*
G01X08154Y-5929D01*
G01X08154Y-5929D02*
G01X08157Y-5934D01*
G01X08157Y-5934D02*
G01X08157Y-5949D01*
G01X08157Y-5949D02*
G01X08154Y-5954D01*
G01X08154Y-5954D02*
G01X08151Y-5957D01*
G01X08151Y-5957D02*
G01X08146Y-5960D01*
G01X08146Y-5960D02*
G01X08129Y-5960D01*
G01X08129Y-5960D02*
G01X08123Y-5957D01*
G01X08123Y-5957D02*
G01X08120Y-5954D01*
G01X08183Y-5937D02*
G01X08229Y-5937D01*
G01X08269Y-5900D02*
G01X08274Y-5900D01*
G01X08274Y-5900D02*
G01X08280Y-5903D01*
G01X08280Y-5903D02*
G01X08283Y-5906D01*
G01X08283Y-5906D02*
G01X08286Y-5912D01*
G01X08286Y-5912D02*
G01X08289Y-5923D01*
G01X08289Y-5923D02*
G01X08289Y-5937D01*
G01X08289Y-5937D02*
G01X08286Y-5949D01*
G01X08286Y-5949D02*
G01X08283Y-5954D01*
G01X08283Y-5954D02*
G01X08280Y-5957D01*
G01X08280Y-5957D02*
G01X08274Y-5960D01*
G01X08274Y-5960D02*
G01X08269Y-5960D01*
G01X08269Y-5960D02*
G01X08263Y-5957D01*
G01X08263Y-5957D02*
G01X08260Y-5954D01*
G01X08260Y-5954D02*
G01X08257Y-5949D01*
G01X08257Y-5949D02*
G01X08254Y-5937D01*
G01X08254Y-5937D02*
G01X08254Y-5923D01*
G01X08254Y-5923D02*
G01X08257Y-5912D01*
G01X08257Y-5912D02*
G01X08260Y-5906D01*
G01X08260Y-5906D02*
G01X08263Y-5903D01*
G01X08263Y-5903D02*
G01X08269Y-5900D01*
G01X08309Y-5900D02*
G01X08349Y-5900D01*
G01X08349Y-5900D02*
G01X08323Y-5960D01*
G01X08371Y-5937D02*
G01X08417Y-5937D01*
G01X08457Y-5900D02*
G01X08463Y-5900D01*
G01X08463Y-5900D02*
G01X08469Y-5903D01*
G01X08469Y-5903D02*
G01X08471Y-5906D01*
G01X08471Y-5906D02*
G01X08474Y-5912D01*
G01X08474Y-5912D02*
G01X08477Y-5923D01*
G01X08477Y-5923D02*
G01X08477Y-5937D01*
G01X08477Y-5937D02*
G01X08474Y-5949D01*
G01X08474Y-5949D02*
G01X08471Y-5954D01*
G01X08471Y-5954D02*
G01X08469Y-5957D01*
G01X08469Y-5957D02*
G01X08463Y-5960D01*
G01X08463Y-5960D02*
G01X08457Y-5960D01*
G01X08457Y-5960D02*
G01X08451Y-5957D01*
G01X08451Y-5957D02*
G01X08449Y-5954D01*
G01X08449Y-5954D02*
G01X08446Y-5949D01*
G01X08446Y-5949D02*
G01X08443Y-5937D01*
G01X08443Y-5937D02*
G01X08443Y-5923D01*
G01X08443Y-5923D02*
G01X08446Y-5912D01*
G01X08446Y-5912D02*
G01X08449Y-5906D01*
G01X08449Y-5906D02*
G01X08451Y-5903D01*
G01X08451Y-5903D02*
G01X08457Y-5900D01*
G01X08497Y-5900D02*
G01X08534Y-5900D01*
G01X08534Y-5900D02*
G01X08514Y-5923D01*
G01X08514Y-5923D02*
G01X08523Y-5923D01*
G01X08523Y-5923D02*
G01X08529Y-5926D01*
G01X08529Y-5926D02*
G01X08531Y-5929D01*
G01X08531Y-5929D02*
G01X08534Y-5934D01*
G01X08534Y-5934D02*
G01X08534Y-5949D01*
G01X08534Y-5949D02*
G01X08531Y-5954D01*
G01X08531Y-5954D02*
G01X08529Y-5957D01*
G01X08529Y-5957D02*
G01X08523Y-5960D01*
G01X08523Y-5960D02*
G01X08506Y-5960D01*
G01X08506Y-5960D02*
G01X08500Y-5957D01*
G01X08500Y-5957D02*
G01X08497Y-5954D01*
G54D12*
G01X10150Y-6040D02*
G75*
G03X10215Y-6125I00075J-0010D01*
G01X10420Y-6125D02*
G75*
G03X10500Y-6055I00005J00075D01*
G01X10425Y-6125D02*
G01X10225Y-6125D01*
G01X10340Y-6100D02*
G01X10340Y-6000D01*
G01X10335Y-6100D02*
G01X10340Y-6100D01*
G01X10335Y-6000D02*
G01X10335Y-6100D01*
G01X10345Y-6000D02*
G01X10335Y-6000D01*
G01X05940Y-6780D02*
G01X05940Y-6765D01*
G01X05935Y-6785D02*
G01X05940Y-6780D01*
G01X05935Y-6770D02*
G01X05935Y-6785D01*
G01X05945Y-6760D02*
G01X05935Y-6770D01*
G01X05945Y-6785D02*
G01X05945Y-6760D01*
G01X05920Y-6785D02*
G01X05945Y-6785D01*
G01X05950Y-6755D02*
G01X05920Y-6785D01*
G01X05950Y-6780D02*
G01X05950Y-6755D01*
G01X05920Y-6780D02*
G01X05950Y-6780D01*
G01X05910Y-6790D02*
G01X05920Y-6780D01*
G01X05950Y-6790D02*
G01X05910Y-6790D01*
G01X05950Y-6795D02*
G01X05950Y-6790D01*
G01X05950Y-6750D02*
G01X05950Y-6795D01*
G01X05955Y-6745D02*
G01X05950Y-6750D01*
G01X05955Y-6795D02*
G01X05955Y-6745D01*
G01X05960Y-6795D02*
G01X05955Y-6795D01*
G01X05960Y-6740D02*
G01X05960Y-6795D01*
G01X05905Y-6795D02*
G01X05960Y-6740D01*
G01X05965Y-6795D02*
G01X05905Y-6795D01*
G01X05965Y-6735D02*
G01X05965Y-6795D01*
G01X05905Y-6795D02*
G01X05965Y-6735D01*
G54D14*
G01X05984Y-6734D02*
G01X06004Y-6794D01*
G01X06004Y-6794D02*
G01X06024Y-6734D01*
G01X06053Y-6794D02*
G01X06047Y-6791D01*
G01X06047Y-6791D02*
G01X06044Y-6788D01*
G01X06044Y-6788D02*
G01X06041Y-6783D01*
G01X06041Y-6783D02*
G01X06041Y-6766D01*
G01X06041Y-6766D02*
G01X06044Y-6760D01*
G01X06044Y-6760D02*
G01X06047Y-6757D01*
G01X06047Y-6757D02*
G01X06053Y-6754D01*
G01X06053Y-6754D02*
G01X06061Y-6754D01*
G01X06061Y-6754D02*
G01X06067Y-6757D01*
G01X06067Y-6757D02*
G01X06070Y-6760D01*
G01X06070Y-6760D02*
G01X06073Y-6766D01*
G01X06073Y-6766D02*
G01X06073Y-6783D01*
G01X06073Y-6783D02*
G01X06070Y-6788D01*
G01X06070Y-6788D02*
G01X06067Y-6791D01*
G01X06067Y-6791D02*
G01X06061Y-6794D01*
G01X06061Y-6794D02*
G01X06053Y-6794D01*
G01X06107Y-6794D02*
G01X06101Y-6791D01*
G01X06101Y-6791D02*
G01X06099Y-6786D01*
G01X06099Y-6786D02*
G01X06099Y-6734D01*
G01X06156Y-6754D02*
G01X06156Y-6794D01*
G01X06130Y-6754D02*
G01X06130Y-6786D01*
G01X06130Y-6786D02*
G01X06133Y-6791D01*
G01X06133Y-6791D02*
G01X06139Y-6794D01*
G01X06139Y-6794D02*
G01X06147Y-6794D01*
G01X06147Y-6794D02*
G01X06153Y-6791D01*
G01X06153Y-6791D02*
G01X06156Y-6788D01*
G01X06184Y-6794D02*
G01X06184Y-6754D01*
G01X06184Y-6760D02*
G01X06187Y-6757D01*
G01X06187Y-6757D02*
G01X06193Y-6754D01*
G01X06193Y-6754D02*
G01X06201Y-6754D01*
G01X06201Y-6754D02*
G01X06207Y-6757D01*
G01X06207Y-6757D02*
G01X06210Y-6763D01*
G01X06210Y-6763D02*
G01X06210Y-6794D01*
G01X06210Y-6763D02*
G01X06213Y-6757D01*
G01X06213Y-6757D02*
G01X06219Y-6754D01*
G01X06219Y-6754D02*
G01X06227Y-6754D01*
G01X06227Y-6754D02*
G01X06233Y-6757D01*
G01X06233Y-6757D02*
G01X06236Y-6763D01*
G01X06236Y-6763D02*
G01X06236Y-6794D01*
G01X06287Y-6791D02*
G01X06281Y-6794D01*
G01X06281Y-6794D02*
G01X06270Y-6794D01*
G01X06270Y-6794D02*
G01X06264Y-6791D01*
G01X06264Y-6791D02*
G01X06261Y-6786D01*
G01X06261Y-6786D02*
G01X06261Y-6763D01*
G01X06261Y-6763D02*
G01X06264Y-6757D01*
G01X06264Y-6757D02*
G01X06270Y-6754D01*
G01X06270Y-6754D02*
G01X06281Y-6754D01*
G01X06281Y-6754D02*
G01X06287Y-6757D01*
G01X06287Y-6757D02*
G01X06290Y-6763D01*
G01X06290Y-6763D02*
G01X06290Y-6768D01*
G01X06290Y-6768D02*
G01X06261Y-6774D01*
G54D13*
G01X06150Y-5850D02*
G75*
G03X06150Y-6000I00075J-0075D01*
G01X06200Y-5900D02*
G75*
G03X06200Y-5950I00025J-0025D01*
G01X06175Y-5875D02*
G75*
G03X06175Y-5975I00050J-0050D01*
G54D12*
G01X10310Y-6070D02*
G01X10310Y-6030D01*
G01X10305Y-6070D02*
G01X10310Y-6070D01*
G01X10315Y-6070D02*
G01X10305Y-6070D01*
G01X10315Y-6030D02*
G01X10315Y-6070D01*
G01X10305Y-6030D02*
G01X10315Y-6030D01*
G01X10345Y-6100D02*
G01X10345Y-6000D01*
G54D11*
G01X10345Y-6050D02*
G01X10375Y-6050D01*
G54D12*
G01X10305Y-6030D02*
G01X10305Y-6070D01*
G01X10305Y-6050D02*
G01X10305Y-6030D01*
G54D11*
G01X10275Y-6050D02*
G01X10305Y-6050D01*
G54D15*
G01X05875Y-7500D02*
G01X05875Y-5800D01*
G01X10725Y-7650D02*
G01X06025Y-7650D01*
G01X10875Y-5800D02*
G01X10875Y-7500D01*
G01X06025Y-5650D02*
G01X10725Y-5650D01*
G01X10725Y-7650D02*
G75*
G03X10875Y-7500I00000J00150D01*
G01X10875Y-5800D02*
G75*
G03X10725Y-5650I-0150J00000D01*
G01X05875Y-7500D02*
G75*
G03X06025Y-7650I00150J00000D01*
G01X06025Y-5650D02*
G75*
G03X05875Y-5800I00000J-0150D01*
G54D13*
G01X06325Y-6665D02*
G01X05900Y-6665D01*
G01X06050Y-6035D02*
G01X05900Y-6035D01*
G01X05900Y-6035D02*
G01X05920Y-6035D01*
G01X06365Y-6625D02*
G01X06365Y-6074D01*
G01X06365Y-6074D02*
G01X06365Y-6409D01*
G01X05898Y-6035D02*
G01X05898Y-6665D01*
G01X06326Y-6035D02*
G01X06050Y-6035D01*
G01X06326Y-6665D02*
G75*
G03X06365Y-6625I00000J00039D01*
G01X06365Y-6075D02*
G75*
G03X06326Y-6035I-0040J00000D01*
G01X10775Y-6078D02*
G01X10675Y-6078D01*
G01X10674Y-6079D02*
G75*
G03X10645Y-6140I00051J-0061D01*
G01X10645Y-6140D02*
G75*
G03X10687Y-6210I00080J00000D01*
G01X10805Y-6140D02*
G75*
G03X10777Y-6079I-0080J00000D01*
G01X10765Y-6209D02*
G75*
G03X10805Y-6140I-0040J00069D01*
G01X10687Y-6210D02*
G75*
G03X10725Y-6220I00038J00070D01*
G01X10725Y-6220D02*
G75*
G03X10767Y-6208I00000J00080D01*
G01X09675Y-5828D02*
G01X09575Y-5828D01*
G01X09574Y-5829D02*
G75*
G03X09545Y-5890I00051J-0061D01*
G01X09545Y-5890D02*
G75*
G03X09587Y-5960I00080J00000D01*
G01X09705Y-5890D02*
G75*
G03X09677Y-5829I-0080J00000D01*
G01X09665Y-5959D02*
G75*
G03X09705Y-5890I-0040J00069D01*
G01X09587Y-5960D02*
G75*
G03X09625Y-5970I00038J00070D01*
G01X09625Y-5970D02*
G75*
G03X09667Y-5958I00000J00080D01*
G01X05950Y-7050D02*
G01X05950Y-6825D01*
G01X05950Y-6825D02*
G01X05975Y-6825D01*
G01X05975Y-6825D02*
G01X06075Y-6900D01*
G01X05950Y-7050D02*
G01X05950Y-7275D01*
G01X05950Y-7275D02*
G01X05975Y-7275D01*
G01X05975Y-7275D02*
G01X06075Y-7200D01*
G01X06075Y-7200D02*
G01X06150Y-7200D01*
G01X06150Y-6900D02*
G01X06075Y-6900D01*
G01X06150Y-7200D02*
G01X06150Y-6900D01*
G54D11*
G01X09772Y-6451D02*
G01X09772Y-6427D01*
G01X09772Y-6427D02*
G01X09752Y-6408D01*
G01X09772Y-6392D02*
G01X09772Y-6361D01*
G01X09339Y-6243D02*
G01X09339Y-6203D01*
G01X09378Y-6164D02*
G01X09772Y-6164D01*
G01X09811Y-6203D02*
G01X09811Y-6243D01*
G01X09811Y-6361D02*
G01X09811Y-6439D01*
G01X09811Y-6557D02*
G01X09811Y-6597D01*
G01X09772Y-6636D02*
G01X09378Y-6636D01*
G01X09339Y-6597D02*
G01X09339Y-6557D01*
G01X09339Y-6439D02*
G01X09339Y-6361D01*
G54D16*
G01X09672Y-6400D02*
G75*
G03X09672Y-6400I-0097J00000D01*
G54D17*
G01X09406Y-6223D02*
G75*
G03X09406Y-6223I-0008J00000D01*
G01X09760Y-6223D02*
G75*
G03X09760Y-6223I-0008J00000D01*
G01X09760Y-6577D02*
G75*
G03X09760Y-6577I-0008J00000D01*
G01X09406Y-6577D02*
G75*
G03X09406Y-6577I-0008J00000D01*
G54D11*
G01X09378Y-6164D02*
G75*
G03X09339Y-6203I00000J-0039D01*
G01X09811Y-6203D02*
G75*
G03X09772Y-6164I-0039J00000D01*
G01X09772Y-6636D02*
G75*
G03X09811Y-6597I00000J00039D01*
G01X09339Y-6597D02*
G75*
G03X09378Y-6636I00039J00000D01*
G01X10472Y-6451D02*
G01X10472Y-6427D01*
G01X10472Y-6427D02*
G01X10452Y-6408D01*
G01X10472Y-6392D02*
G01X10472Y-6361D01*
G01X10039Y-6243D02*
G01X10039Y-6203D01*
G01X10078Y-6164D02*
G01X10472Y-6164D01*
G01X10511Y-6203D02*
G01X10511Y-6243D01*
G01X10511Y-6361D02*
G01X10511Y-6439D01*
G01X10511Y-6557D02*
G01X10511Y-6597D01*
G01X10472Y-6636D02*
G01X10078Y-6636D01*
G01X10039Y-6597D02*
G01X10039Y-6557D01*
G01X10039Y-6439D02*
G01X10039Y-6361D01*
G54D16*
G01X10372Y-6400D02*
G75*
G03X10372Y-6400I-0097J00000D01*
G54D17*
G01X10106Y-6223D02*
G75*
G03X10106Y-6223I-0008J00000D01*
G01X10460Y-6223D02*
G75*
G03X10460Y-6223I-0008J00000D01*
G01X10460Y-6577D02*
G75*
G03X10460Y-6577I-0008J00000D01*
G01X10106Y-6577D02*
G75*
G03X10106Y-6577I-0008J00000D01*
G54D11*
G01X10078Y-6164D02*
G75*
G03X10039Y-6203I00000J-0039D01*
G01X10511Y-6203D02*
G75*
G03X10472Y-6164I-0039J00000D01*
G01X10472Y-6636D02*
G75*
G03X10511Y-6597I00000J00039D01*
G01X10039Y-6597D02*
G75*
G03X10078Y-6636I00039J00000D01*
G01X09276Y-7078D02*
G01X09253Y-7078D01*
G01X09253Y-7078D02*
G01X09233Y-7098D01*
G01X09217Y-7078D02*
G01X09186Y-7078D01*
G01X09068Y-7511D02*
G01X09028Y-7511D01*
G01X08989Y-7472D02*
G01X08989Y-7078D01*
G01X09028Y-7039D02*
G01X09068Y-7039D01*
G01X09186Y-7039D02*
G01X09264Y-7039D01*
G01X09382Y-7039D02*
G01X09422Y-7039D01*
G01X09461Y-7078D02*
G01X09461Y-7472D01*
G01X09422Y-7511D02*
G01X09382Y-7511D01*
G01X09264Y-7511D02*
G01X09186Y-7511D01*
G54D16*
G01X09322Y-7275D02*
G75*
G03X09322Y-7275I-0097J00000D01*
G54D17*
G01X09056Y-7452D02*
G75*
G03X09056Y-7452I-0008J00000D01*
G01X09056Y-7098D02*
G75*
G03X09056Y-7098I-0008J00000D01*
G01X09410Y-7098D02*
G75*
G03X09410Y-7098I-0008J00000D01*
G01X09410Y-7452D02*
G75*
G03X09410Y-7452I-0008J00000D01*
G54D11*
G01X08989Y-7472D02*
G75*
G03X09028Y-7511I00039J00000D01*
G01X09028Y-7039D02*
G75*
G03X08989Y-7078I00000J-0039D01*
G01X09461Y-7078D02*
G75*
G03X09422Y-7039I-0039J00000D01*
G01X09422Y-7511D02*
G75*
G03X09461Y-7472I00000J00039D01*
G01X09801Y-7078D02*
G01X09778Y-7078D01*
G01X09778Y-7078D02*
G01X09758Y-7098D01*
G01X09742Y-7078D02*
G01X09711Y-7078D01*
G01X09593Y-7511D02*
G01X09553Y-7511D01*
G01X09514Y-7472D02*
G01X09514Y-7078D01*
G01X09553Y-7039D02*
G01X09593Y-7039D01*
G01X09711Y-7039D02*
G01X09789Y-7039D01*
G01X09907Y-7039D02*
G01X09947Y-7039D01*
G01X09986Y-7078D02*
G01X09986Y-7472D01*
G01X09947Y-7511D02*
G01X09907Y-7511D01*
G01X09789Y-7511D02*
G01X09711Y-7511D01*
G54D16*
G01X09847Y-7275D02*
G75*
G03X09847Y-7275I-0097J00000D01*
G54D17*
G01X09581Y-7452D02*
G75*
G03X09581Y-7452I-0008J00000D01*
G01X09581Y-7098D02*
G75*
G03X09581Y-7098I-0008J00000D01*
G01X09935Y-7098D02*
G75*
G03X09935Y-7098I-0008J00000D01*
G01X09935Y-7452D02*
G75*
G03X09935Y-7452I-0008J00000D01*
G54D11*
G01X09514Y-7472D02*
G75*
G03X09553Y-7511I00039J00000D01*
G01X09553Y-7039D02*
G75*
G03X09514Y-7078I00000J-0039D01*
G01X09986Y-7078D02*
G75*
G03X09947Y-7039I-0039J00000D01*
G01X09947Y-7511D02*
G75*
G03X09986Y-7472I00000J00039D01*
G01X10326Y-7078D02*
G01X10303Y-7078D01*
G01X10303Y-7078D02*
G01X10283Y-7098D01*
G01X10267Y-7078D02*
G01X10236Y-7078D01*
G01X10118Y-7511D02*
G01X10078Y-7511D01*
G01X10039Y-7472D02*
G01X10039Y-7078D01*
G01X10078Y-7039D02*
G01X10118Y-7039D01*
G01X10236Y-7039D02*
G01X10314Y-7039D01*
G01X10432Y-7039D02*
G01X10472Y-7039D01*
G01X10511Y-7078D02*
G01X10511Y-7472D01*
G01X10472Y-7511D02*
G01X10432Y-7511D01*
G01X10314Y-7511D02*
G01X10236Y-7511D01*
G54D16*
G01X10372Y-7275D02*
G75*
G03X10372Y-7275I-0097J00000D01*
G54D17*
G01X10106Y-7452D02*
G75*
G03X10106Y-7452I-0008J00000D01*
G01X10106Y-7098D02*
G75*
G03X10106Y-7098I-0008J00000D01*
G01X10460Y-7098D02*
G75*
G03X10460Y-7098I-0008J00000D01*
G01X10460Y-7452D02*
G75*
G03X10460Y-7452I-0008J00000D01*
G54D11*
G01X10039Y-7472D02*
G75*
G03X10078Y-7511I00039J00000D01*
G01X10078Y-7039D02*
G75*
G03X10039Y-7078I00000J-0039D01*
G01X10511Y-7078D02*
G75*
G03X10472Y-7039I-0039J00000D01*
G01X10472Y-7511D02*
G75*
G03X10511Y-7472I00000J00039D01*
G01X06651Y-7078D02*
G01X06628Y-7078D01*
G01X06628Y-7078D02*
G01X06608Y-7098D01*
G01X06592Y-7078D02*
G01X06561Y-7078D01*
G01X06443Y-7511D02*
G01X06403Y-7511D01*
G01X06364Y-7472D02*
G01X06364Y-7078D01*
G01X06403Y-7039D02*
G01X06443Y-7039D01*
G01X06561Y-7039D02*
G01X06639Y-7039D01*
G01X06757Y-7039D02*
G01X06797Y-7039D01*
G01X06836Y-7078D02*
G01X06836Y-7472D01*
G01X06797Y-7511D02*
G01X06757Y-7511D01*
G01X06639Y-7511D02*
G01X06561Y-7511D01*
G54D16*
G01X06697Y-7275D02*
G75*
G03X06697Y-7275I-0097J00000D01*
G54D17*
G01X06431Y-7452D02*
G75*
G03X06431Y-7452I-0008J00000D01*
G01X06431Y-7098D02*
G75*
G03X06431Y-7098I-0008J00000D01*
G01X06785Y-7098D02*
G75*
G03X06785Y-7098I-0008J00000D01*
G01X06785Y-7452D02*
G75*
G03X06785Y-7452I-0008J00000D01*
G54D11*
G01X06364Y-7472D02*
G75*
G03X06403Y-7511I00039J00000D01*
G01X06403Y-7039D02*
G75*
G03X06364Y-7078I00000J-0039D01*
G01X06836Y-7078D02*
G75*
G03X06797Y-7039I-0039J00000D01*
G01X06797Y-7511D02*
G75*
G03X06836Y-7472I00000J00039D01*
G01X07176Y-7078D02*
G01X07153Y-7078D01*
G01X07153Y-7078D02*
G01X07133Y-7098D01*
G01X07117Y-7078D02*
G01X07086Y-7078D01*
G01X06968Y-7511D02*
G01X06928Y-7511D01*
G01X06889Y-7472D02*
G01X06889Y-7078D01*
G01X06928Y-7039D02*
G01X06968Y-7039D01*
G01X07086Y-7039D02*
G01X07164Y-7039D01*
G01X07282Y-7039D02*
G01X07322Y-7039D01*
G01X07361Y-7078D02*
G01X07361Y-7472D01*
G01X07322Y-7511D02*
G01X07282Y-7511D01*
G01X07164Y-7511D02*
G01X07086Y-7511D01*
G54D16*
G01X07222Y-7275D02*
G75*
G03X07222Y-7275I-0097J00000D01*
G54D17*
G01X06956Y-7452D02*
G75*
G03X06956Y-7452I-0008J00000D01*
G01X06956Y-7098D02*
G75*
G03X06956Y-7098I-0008J00000D01*
G01X07310Y-7098D02*
G75*
G03X07310Y-7098I-0008J00000D01*
G01X07310Y-7452D02*
G75*
G03X07310Y-7452I-0008J00000D01*
G54D11*
G01X06889Y-7472D02*
G75*
G03X06928Y-7511I00039J00000D01*
G01X06928Y-7039D02*
G75*
G03X06889Y-7078I00000J-0039D01*
G01X07361Y-7078D02*
G75*
G03X07322Y-7039I-0039J00000D01*
G01X07322Y-7511D02*
G75*
G03X07361Y-7472I00000J00039D01*
G01X07701Y-7078D02*
G01X07678Y-7078D01*
G01X07678Y-7078D02*
G01X07658Y-7098D01*
G01X07642Y-7078D02*
G01X07611Y-7078D01*
G01X07493Y-7511D02*
G01X07453Y-7511D01*
G01X07414Y-7472D02*
G01X07414Y-7078D01*
G01X07453Y-7039D02*
G01X07493Y-7039D01*
G01X07611Y-7039D02*
G01X07689Y-7039D01*
G01X07807Y-7039D02*
G01X07847Y-7039D01*
G01X07886Y-7078D02*
G01X07886Y-7472D01*
G01X07847Y-7511D02*
G01X07807Y-7511D01*
G01X07689Y-7511D02*
G01X07611Y-7511D01*
G54D16*
G01X07747Y-7275D02*
G75*
G03X07747Y-7275I-0097J00000D01*
G54D17*
G01X07481Y-7452D02*
G75*
G03X07481Y-7452I-0008J00000D01*
G01X07481Y-7098D02*
G75*
G03X07481Y-7098I-0008J00000D01*
G01X07835Y-7098D02*
G75*
G03X07835Y-7098I-0008J00000D01*
G01X07835Y-7452D02*
G75*
G03X07835Y-7452I-0008J00000D01*
G54D11*
G01X07414Y-7472D02*
G75*
G03X07453Y-7511I00039J00000D01*
G01X07453Y-7039D02*
G75*
G03X07414Y-7078I00000J-0039D01*
G01X07886Y-7078D02*
G75*
G03X07847Y-7039I-0039J00000D01*
G01X07847Y-7511D02*
G75*
G03X07886Y-7472I00000J00039D01*
G01X08226Y-7078D02*
G01X08203Y-7078D01*
G01X08203Y-7078D02*
G01X08183Y-7098D01*
G01X08167Y-7078D02*
G01X08136Y-7078D01*
G01X08018Y-7511D02*
G01X07978Y-7511D01*
G01X07939Y-7472D02*
G01X07939Y-7078D01*
G01X07978Y-7039D02*
G01X08018Y-7039D01*
G01X08136Y-7039D02*
G01X08214Y-7039D01*
G01X08332Y-7039D02*
G01X08372Y-7039D01*
G01X08411Y-7078D02*
G01X08411Y-7472D01*
G01X08372Y-7511D02*
G01X08332Y-7511D01*
G01X08214Y-7511D02*
G01X08136Y-7511D01*
G54D16*
G01X08272Y-7275D02*
G75*
G03X08272Y-7275I-0097J00000D01*
G54D17*
G01X08006Y-7452D02*
G75*
G03X08006Y-7452I-0008J00000D01*
G01X08006Y-7098D02*
G75*
G03X08006Y-7098I-0008J00000D01*
G01X08360Y-7098D02*
G75*
G03X08360Y-7098I-0008J00000D01*
G01X08360Y-7452D02*
G75*
G03X08360Y-7452I-0008J00000D01*
G54D11*
G01X07939Y-7472D02*
G75*
G03X07978Y-7511I00039J00000D01*
G01X07978Y-7039D02*
G75*
G03X07939Y-7078I00000J-0039D01*
G01X08411Y-7078D02*
G75*
G03X08372Y-7039I-0039J00000D01*
G01X08372Y-7511D02*
G75*
G03X08411Y-7472I00000J00039D01*
G01X08751Y-7078D02*
G01X08728Y-7078D01*
G01X08728Y-7078D02*
G01X08708Y-7098D01*
G01X08692Y-7078D02*
G01X08661Y-7078D01*
G01X08543Y-7511D02*
G01X08503Y-7511D01*
G01X08464Y-7472D02*
G01X08464Y-7078D01*
G01X08503Y-7039D02*
G01X08543Y-7039D01*
G01X08661Y-7039D02*
G01X08739Y-7039D01*
G01X08857Y-7039D02*
G01X08897Y-7039D01*
G01X08936Y-7078D02*
G01X08936Y-7472D01*
G01X08897Y-7511D02*
G01X08857Y-7511D01*
G01X08739Y-7511D02*
G01X08661Y-7511D01*
G54D16*
G01X08797Y-7275D02*
G75*
G03X08797Y-7275I-0097J00000D01*
G54D17*
G01X08531Y-7452D02*
G75*
G03X08531Y-7452I-0008J00000D01*
G01X08531Y-7098D02*
G75*
G03X08531Y-7098I-0008J00000D01*
G01X08885Y-7098D02*
G75*
G03X08885Y-7098I-0008J00000D01*
G01X08885Y-7452D02*
G75*
G03X08885Y-7452I-0008J00000D01*
G54D11*
G01X08464Y-7472D02*
G75*
G03X08503Y-7511I00039J00000D01*
G01X08503Y-7039D02*
G75*
G03X08464Y-7078I00000J-0039D01*
G01X08936Y-7078D02*
G75*
G03X08897Y-7039I-0039J00000D01*
G01X08897Y-7511D02*
G75*
G03X08936Y-7472I00000J00039D01*
G54D18*
G01X06675Y-6450D02*
G01X06675Y-6410D01*
G01X06675Y-6410D02*
G01X06635Y-6410D01*
G01X06635Y-6410D02*
G01X06635Y-6090D01*
G01X06635Y-6090D02*
G01X06715Y-6090D01*
G01X06715Y-6090D02*
G01X06715Y-6410D01*
G01X06715Y-6410D02*
G01X06675Y-6410D01*
G01X06655Y-6410D02*
G01X06635Y-6390D01*
G01X06675Y-6050D02*
G01X06675Y-6090D01*
G01X06275Y-7250D02*
G01X06275Y-7210D01*
G01X06275Y-7210D02*
G01X06235Y-7210D01*
G01X06235Y-7210D02*
G01X06235Y-6890D01*
G01X06235Y-6890D02*
G01X06315Y-6890D01*
G01X06315Y-6890D02*
G01X06315Y-7210D01*
G01X06315Y-7210D02*
G01X06275Y-7210D01*
G01X06255Y-7210D02*
G01X06235Y-7190D01*
G01X06275Y-6850D02*
G01X06275Y-6890D01*
G01X06875Y-6050D02*
G01X06875Y-6090D01*
G01X06875Y-6090D02*
G01X06915Y-6090D01*
G01X06915Y-6090D02*
G01X06915Y-6410D01*
G01X06915Y-6410D02*
G01X06835Y-6410D01*
G01X06835Y-6410D02*
G01X06835Y-6090D01*
G01X06835Y-6090D02*
G01X06875Y-6090D01*
G01X06895Y-6090D02*
G01X06915Y-6110D01*
G01X06875Y-6450D02*
G01X06875Y-6410D01*
G01X09075Y-6600D02*
G01X09035Y-6600D01*
G01X09035Y-6600D02*
G01X09035Y-6640D01*
G01X09035Y-6640D02*
G01X08715Y-6640D01*
G01X08715Y-6640D02*
G01X08715Y-6560D01*
G01X08715Y-6560D02*
G01X09035Y-6560D01*
G01X09035Y-6560D02*
G01X09035Y-6600D01*
G01X09035Y-6620D02*
G01X09015Y-6640D01*
G01X08675Y-6600D02*
G01X08715Y-6600D01*
G01X08425Y-6600D02*
G01X08385Y-6600D01*
G01X08385Y-6600D02*
G01X08385Y-6640D01*
G01X08385Y-6640D02*
G01X08065Y-6640D01*
G01X08065Y-6640D02*
G01X08065Y-6560D01*
G01X08065Y-6560D02*
G01X08385Y-6560D01*
G01X08385Y-6560D02*
G01X08385Y-6600D01*
G01X08385Y-6620D02*
G01X08365Y-6640D01*
G01X08025Y-6600D02*
G01X08065Y-6600D01*
G01X10725Y-6350D02*
G01X10725Y-6390D01*
G01X10725Y-6390D02*
G01X10765Y-6390D01*
G01X10765Y-6390D02*
G01X10765Y-6710D01*
G01X10765Y-6710D02*
G01X10685Y-6710D01*
G01X10685Y-6710D02*
G01X10685Y-6390D01*
G01X10685Y-6390D02*
G01X10725Y-6390D01*
G01X10745Y-6390D02*
G01X10765Y-6410D01*
G01X10725Y-6750D02*
G01X10725Y-6710D01*
G01X07450Y-5850D02*
G01X07410Y-5850D01*
G01X07410Y-5850D02*
G01X07410Y-5890D01*
G01X07410Y-5890D02*
G01X07090Y-5890D01*
G01X07090Y-5890D02*
G01X07090Y-5810D01*
G01X07090Y-5810D02*
G01X07410Y-5810D01*
G01X07410Y-5810D02*
G01X07410Y-5850D01*
G01X07410Y-5870D02*
G01X07390Y-5890D01*
G01X07050Y-5850D02*
G01X07090Y-5850D01*
G01X07375Y-6600D02*
G01X07415Y-6600D01*
G01X07415Y-6600D02*
G01X07415Y-6560D01*
G01X07415Y-6560D02*
G01X07735Y-6560D01*
G01X07735Y-6560D02*
G01X07735Y-6640D01*
G01X07735Y-6640D02*
G01X07415Y-6640D01*
G01X07415Y-6640D02*
G01X07415Y-6600D01*
G01X07415Y-6580D02*
G01X07435Y-6560D01*
G01X07775Y-6600D02*
G01X07735Y-6600D01*
G01X09625Y-6075D02*
G01X09585Y-6075D01*
G01X09585Y-6075D02*
G01X09585Y-6115D01*
G01X09585Y-6115D02*
G01X09265Y-6115D01*
G01X09265Y-6115D02*
G01X09265Y-6035D01*
G01X09265Y-6035D02*
G01X09585Y-6035D01*
G01X09585Y-6035D02*
G01X09585Y-6075D01*
G01X09585Y-6095D02*
G01X09565Y-6115D01*
G01X09225Y-6075D02*
G01X09265Y-6075D01*
G54D11*
G01X08875Y-5925D02*
G01X08575Y-5925D01*
G01X08575Y-5725D02*
G01X08875Y-5725D01*
G01X08875Y-5725D02*
G01X08875Y-5925D01*
G01X08575Y-5925D02*
G01X08575Y-5725D01*
G54D13*
G01X07125Y-6450D02*
G01X07125Y-6400D01*
G01X07125Y-6400D02*
G01X07225Y-6400D01*
G01X07225Y-6400D02*
G01X07225Y-6450D01*
G01X07075Y-6450D02*
G01X07075Y-6050D01*
G01X07075Y-6050D02*
G01X07275Y-6050D01*
G01X07275Y-6050D02*
G01X07275Y-6450D01*
G01X07275Y-6450D02*
G01X07075Y-6450D01*
G54D19*
G01X07525Y-6100D02*
G01X09025Y-6100D01*
G01X09025Y-6100D02*
G01X09025Y-6300D01*
G01X09025Y-6300D02*
G01X07525Y-6300D01*
G01X07525Y-6300D02*
G01X07525Y-6100D01*
G01X07525Y-6150D02*
G01X07575Y-6150D01*
G01X07575Y-6150D02*
G01X07575Y-6250D01*
G01X07575Y-6250D02*
G01X07525Y-6250D01*
G54D11*
G01X10110Y-5975D02*
G75*
G03X10110Y-5975I-0160J00000D01*
G54D18*
G01X07027Y-6550D02*
G01X07225Y-6550D01*
G01X07225Y-6550D02*
G01X07225Y-6650D01*
G01X07225Y-6650D02*
G01X07025Y-6650D01*
G01X07025Y-6650D02*
G01X07025Y-6550D01*
G01X07025Y-6575D02*
G01X07050Y-6550D01*
G01X06727Y-6550D02*
G01X06925Y-6550D01*
G01X06925Y-6550D02*
G01X06925Y-6650D01*
G01X06925Y-6650D02*
G01X06725Y-6650D01*
G01X06725Y-6650D02*
G01X06725Y-6550D01*
G01X06725Y-6575D02*
G01X06750Y-6550D01*
G01X08373Y-5875D02*
G01X08175Y-5875D01*
G01X08175Y-5875D02*
G01X08175Y-5775D01*
G01X08175Y-5775D02*
G01X08375Y-5775D01*
G01X08375Y-5775D02*
G01X08375Y-5875D01*
G01X08375Y-5850D02*
G01X08350Y-5875D01*
G01X06850Y-5948D02*
G01X06850Y-5750D01*
G01X06850Y-5750D02*
G01X06950Y-5750D01*
G01X06950Y-5750D02*
G01X06950Y-5950D01*
G01X06950Y-5950D02*
G01X06850Y-5950D01*
G01X06875Y-5950D02*
G01X06850Y-5925D01*
G54D15*
G01X06410Y-6795D02*
G01X06410Y-6780D01*
G01X06410Y-6780D02*
G01X06425Y-6780D01*
G01X06425Y-6780D02*
G01X06410Y-6795D01*
G01X06410Y-6795D02*
G01X06410Y-6780D01*
G01X06410Y-6780D02*
G01X06430Y-6800D01*
G01X06430Y-6800D02*
G01X06430Y-6790D01*
G01X06430Y-6790D02*
G01X06445Y-6805D01*
G01X06455Y-6820D02*
G01X06495Y-6820D01*
G01X06495Y-6820D02*
G01X06490Y-6815D01*
G01X06490Y-6815D02*
G01X06455Y-6815D01*
G01X06455Y-6815D02*
G01X06460Y-6805D01*
G01X06460Y-6805D02*
G01X06490Y-6805D01*
G01X06490Y-6805D02*
G01X06490Y-6810D01*
G01X06490Y-6810D02*
G01X06460Y-6810D01*
G01X06460Y-6810D02*
G01X06465Y-6800D01*
G01X06465Y-6800D02*
G01X06485Y-6800D01*
G01X06485Y-6800D02*
G01X06480Y-6795D01*
G01X06480Y-6795D02*
G01X06470Y-6795D01*
G01X06470Y-6795D02*
G01X06475Y-6785D01*
G01X06475Y-6785D02*
G01X06485Y-6795D01*
G01X06485Y-6795D02*
G01X06465Y-6795D01*
G01X06465Y-6795D02*
G01X06480Y-6805D01*
G01X06450Y-6825D02*
G01X06475Y-6775D01*
G01X06475Y-6775D02*
G01X06475Y-6825D01*
G01X06475Y-6825D02*
G01X06450Y-6825D01*
G01X06450Y-6825D02*
G01X06500Y-6825D01*
G01X06500Y-6825D02*
G01X06475Y-6775D01*
G01X06475Y-6775D02*
G01X06450Y-6775D01*
G01X06450Y-6775D02*
G01X06500Y-6775D01*
G01X06475Y-6850D02*
G01X06475Y-6750D01*
G54D13*
G01X06650Y-6728D02*
G01X06550Y-6728D01*
G01X06549Y-6729D02*
G75*
G03X06520Y-6790I00051J-0061D01*
G01X06520Y-6790D02*
G75*
G03X06562Y-6860I00080J00000D01*
G01X06680Y-6790D02*
G75*
G03X06652Y-6729I-0080J00000D01*
G01X06640Y-6859D02*
G75*
G03X06680Y-6790I-0040J00069D01*
G01X06562Y-6860D02*
G75*
G03X06600Y-6870I00038J00070D01*
G01X06600Y-6870D02*
G75*
G03X06642Y-6858I00000J00080D01*
G54D15*
G01X06935Y-6795D02*
G01X06935Y-6780D01*
G01X06935Y-6780D02*
G01X06950Y-6780D01*
G01X06950Y-6780D02*
G01X06935Y-6795D01*
G01X06935Y-6795D02*
G01X06935Y-6780D01*
G01X06935Y-6780D02*
G01X06955Y-6800D01*
G01X06955Y-6800D02*
G01X06955Y-6790D01*
G01X06955Y-6790D02*
G01X06970Y-6805D01*
G01X06980Y-6820D02*
G01X07020Y-6820D01*
G01X07020Y-6820D02*
G01X07015Y-6815D01*
G01X07015Y-6815D02*
G01X06980Y-6815D01*
G01X06980Y-6815D02*
G01X06985Y-6805D01*
G01X06985Y-6805D02*
G01X07015Y-6805D01*
G01X07015Y-6805D02*
G01X07015Y-6810D01*
G01X07015Y-6810D02*
G01X06985Y-6810D01*
G01X06985Y-6810D02*
G01X06990Y-6800D01*
G01X06990Y-6800D02*
G01X07010Y-6800D01*
G01X07010Y-6800D02*
G01X07005Y-6795D01*
G01X07005Y-6795D02*
G01X06995Y-6795D01*
G01X06995Y-6795D02*
G01X07000Y-6785D01*
G01X07000Y-6785D02*
G01X07010Y-6795D01*
G01X07010Y-6795D02*
G01X06990Y-6795D01*
G01X06990Y-6795D02*
G01X07005Y-6805D01*
G01X06975Y-6825D02*
G01X07000Y-6775D01*
G01X07000Y-6775D02*
G01X07000Y-6825D01*
G01X07000Y-6825D02*
G01X06975Y-6825D01*
G01X06975Y-6825D02*
G01X07025Y-6825D01*
G01X07025Y-6825D02*
G01X07000Y-6775D01*
G01X07000Y-6775D02*
G01X06975Y-6775D01*
G01X06975Y-6775D02*
G01X07025Y-6775D01*
G01X07000Y-6850D02*
G01X07000Y-6750D01*
G54D13*
G01X07175Y-6728D02*
G01X07075Y-6728D01*
G01X07074Y-6729D02*
G75*
G03X07045Y-6790I00051J-0061D01*
G01X07045Y-6790D02*
G75*
G03X07087Y-6860I00080J00000D01*
G01X07205Y-6790D02*
G75*
G03X07177Y-6729I-0080J00000D01*
G01X07165Y-6859D02*
G75*
G03X07205Y-6790I-0040J00069D01*
G01X07087Y-6860D02*
G75*
G03X07125Y-6870I00038J00070D01*
G01X07125Y-6870D02*
G75*
G03X07167Y-6858I00000J00080D01*
G54D15*
G01X07460Y-6795D02*
G01X07460Y-6780D01*
G01X07460Y-6780D02*
G01X07475Y-6780D01*
G01X07475Y-6780D02*
G01X07460Y-6795D01*
G01X07460Y-6795D02*
G01X07460Y-6780D01*
G01X07460Y-6780D02*
G01X07480Y-6800D01*
G01X07480Y-6800D02*
G01X07480Y-6790D01*
G01X07480Y-6790D02*
G01X07495Y-6805D01*
G01X07505Y-6820D02*
G01X07545Y-6820D01*
G01X07545Y-6820D02*
G01X07540Y-6815D01*
G01X07540Y-6815D02*
G01X07505Y-6815D01*
G01X07505Y-6815D02*
G01X07510Y-6805D01*
G01X07510Y-6805D02*
G01X07540Y-6805D01*
G01X07540Y-6805D02*
G01X07540Y-6810D01*
G01X07540Y-6810D02*
G01X07510Y-6810D01*
G01X07510Y-6810D02*
G01X07515Y-6800D01*
G01X07515Y-6800D02*
G01X07535Y-6800D01*
G01X07535Y-6800D02*
G01X07530Y-6795D01*
G01X07530Y-6795D02*
G01X07520Y-6795D01*
G01X07520Y-6795D02*
G01X07525Y-6785D01*
G01X07525Y-6785D02*
G01X07535Y-6795D01*
G01X07535Y-6795D02*
G01X07515Y-6795D01*
G01X07515Y-6795D02*
G01X07530Y-6805D01*
G01X07500Y-6825D02*
G01X07525Y-6775D01*
G01X07525Y-6775D02*
G01X07525Y-6825D01*
G01X07525Y-6825D02*
G01X07500Y-6825D01*
G01X07500Y-6825D02*
G01X07550Y-6825D01*
G01X07550Y-6825D02*
G01X07525Y-6775D01*
G01X07525Y-6775D02*
G01X07500Y-6775D01*
G01X07500Y-6775D02*
G01X07550Y-6775D01*
G01X07525Y-6850D02*
G01X07525Y-6750D01*
G54D13*
G01X07700Y-6728D02*
G01X07600Y-6728D01*
G01X07599Y-6729D02*
G75*
G03X07570Y-6790I00051J-0061D01*
G01X07570Y-6790D02*
G75*
G03X07612Y-6860I00080J00000D01*
G01X07730Y-6790D02*
G75*
G03X07702Y-6729I-0080J00000D01*
G01X07690Y-6859D02*
G75*
G03X07730Y-6790I-0040J00069D01*
G01X07612Y-6860D02*
G75*
G03X07650Y-6870I00038J00070D01*
G01X07650Y-6870D02*
G75*
G03X07692Y-6858I00000J00080D01*
G54D15*
G01X08510Y-6795D02*
G01X08510Y-6780D01*
G01X08510Y-6780D02*
G01X08525Y-6780D01*
G01X08525Y-6780D02*
G01X08510Y-6795D01*
G01X08510Y-6795D02*
G01X08510Y-6780D01*
G01X08510Y-6780D02*
G01X08530Y-6800D01*
G01X08530Y-6800D02*
G01X08530Y-6790D01*
G01X08530Y-6790D02*
G01X08545Y-6805D01*
G01X08555Y-6820D02*
G01X08595Y-6820D01*
G01X08595Y-6820D02*
G01X08590Y-6815D01*
G01X08590Y-6815D02*
G01X08555Y-6815D01*
G01X08555Y-6815D02*
G01X08560Y-6805D01*
G01X08560Y-6805D02*
G01X08590Y-6805D01*
G01X08590Y-6805D02*
G01X08590Y-6810D01*
G01X08590Y-6810D02*
G01X08560Y-6810D01*
G01X08560Y-6810D02*
G01X08565Y-6800D01*
G01X08565Y-6800D02*
G01X08585Y-6800D01*
G01X08585Y-6800D02*
G01X08580Y-6795D01*
G01X08580Y-6795D02*
G01X08570Y-6795D01*
G01X08570Y-6795D02*
G01X08575Y-6785D01*
G01X08575Y-6785D02*
G01X08585Y-6795D01*
G01X08585Y-6795D02*
G01X08565Y-6795D01*
G01X08565Y-6795D02*
G01X08580Y-6805D01*
G01X08550Y-6825D02*
G01X08575Y-6775D01*
G01X08575Y-6775D02*
G01X08575Y-6825D01*
G01X08575Y-6825D02*
G01X08550Y-6825D01*
G01X08550Y-6825D02*
G01X08600Y-6825D01*
G01X08600Y-6825D02*
G01X08575Y-6775D01*
G01X08575Y-6775D02*
G01X08550Y-6775D01*
G01X08550Y-6775D02*
G01X08600Y-6775D01*
G01X08575Y-6850D02*
G01X08575Y-6750D01*
G54D13*
G01X08750Y-6728D02*
G01X08650Y-6728D01*
G01X08649Y-6729D02*
G75*
G03X08620Y-6790I00051J-0061D01*
G01X08620Y-6790D02*
G75*
G03X08662Y-6860I00080J00000D01*
G01X08780Y-6790D02*
G75*
G03X08752Y-6729I-0080J00000D01*
G01X08740Y-6859D02*
G75*
G03X08780Y-6790I-0040J00069D01*
G01X08662Y-6860D02*
G75*
G03X08700Y-6870I00038J00070D01*
G01X08700Y-6870D02*
G75*
G03X08742Y-6858I00000J00080D01*
G54D15*
G01X09560Y-6795D02*
G01X09560Y-6780D01*
G01X09560Y-6780D02*
G01X09575Y-6780D01*
G01X09575Y-6780D02*
G01X09560Y-6795D01*
G01X09560Y-6795D02*
G01X09560Y-6780D01*
G01X09560Y-6780D02*
G01X09580Y-6800D01*
G01X09580Y-6800D02*
G01X09580Y-6790D01*
G01X09580Y-6790D02*
G01X09595Y-6805D01*
G01X09605Y-6820D02*
G01X09645Y-6820D01*
G01X09645Y-6820D02*
G01X09640Y-6815D01*
G01X09640Y-6815D02*
G01X09605Y-6815D01*
G01X09605Y-6815D02*
G01X09610Y-6805D01*
G01X09610Y-6805D02*
G01X09640Y-6805D01*
G01X09640Y-6805D02*
G01X09640Y-6810D01*
G01X09640Y-6810D02*
G01X09610Y-6810D01*
G01X09610Y-6810D02*
G01X09615Y-6800D01*
G01X09615Y-6800D02*
G01X09635Y-6800D01*
G01X09635Y-6800D02*
G01X09630Y-6795D01*
G01X09630Y-6795D02*
G01X09620Y-6795D01*
G01X09620Y-6795D02*
G01X09625Y-6785D01*
G01X09625Y-6785D02*
G01X09635Y-6795D01*
G01X09635Y-6795D02*
G01X09615Y-6795D01*
G01X09615Y-6795D02*
G01X09630Y-6805D01*
G01X09600Y-6825D02*
G01X09625Y-6775D01*
G01X09625Y-6775D02*
G01X09625Y-6825D01*
G01X09625Y-6825D02*
G01X09600Y-6825D01*
G01X09600Y-6825D02*
G01X09650Y-6825D01*
G01X09650Y-6825D02*
G01X09625Y-6775D01*
G01X09625Y-6775D02*
G01X09600Y-6775D01*
G01X09600Y-6775D02*
G01X09650Y-6775D01*
G01X09625Y-6850D02*
G01X09625Y-6750D01*
G54D13*
G01X09800Y-6728D02*
G01X09700Y-6728D01*
G01X09699Y-6729D02*
G75*
G03X09670Y-6790I00051J-0061D01*
G01X09670Y-6790D02*
G75*
G03X09712Y-6860I00080J00000D01*
G01X09830Y-6790D02*
G75*
G03X09802Y-6729I-0080J00000D01*
G01X09790Y-6859D02*
G75*
G03X09830Y-6790I-0040J00069D01*
G01X09712Y-6860D02*
G75*
G03X09750Y-6870I00038J00070D01*
G01X09750Y-6870D02*
G75*
G03X09792Y-6858I00000J00080D01*
G54D15*
G01X10085Y-6795D02*
G01X10085Y-6780D01*
G01X10085Y-6780D02*
G01X10100Y-6780D01*
G01X10100Y-6780D02*
G01X10085Y-6795D01*
G01X10085Y-6795D02*
G01X10085Y-6780D01*
G01X10085Y-6780D02*
G01X10105Y-6800D01*
G01X10105Y-6800D02*
G01X10105Y-6790D01*
G01X10105Y-6790D02*
G01X10120Y-6805D01*
G01X10130Y-6820D02*
G01X10170Y-6820D01*
G01X10170Y-6820D02*
G01X10165Y-6815D01*
G01X10165Y-6815D02*
G01X10130Y-6815D01*
G01X10130Y-6815D02*
G01X10135Y-6805D01*
G01X10135Y-6805D02*
G01X10165Y-6805D01*
G01X10165Y-6805D02*
G01X10165Y-6810D01*
G01X10165Y-6810D02*
G01X10135Y-6810D01*
G01X10135Y-6810D02*
G01X10140Y-6800D01*
G01X10140Y-6800D02*
G01X10160Y-6800D01*
G01X10160Y-6800D02*
G01X10155Y-6795D01*
G01X10155Y-6795D02*
G01X10145Y-6795D01*
G01X10145Y-6795D02*
G01X10150Y-6785D01*
G01X10150Y-6785D02*
G01X10160Y-6795D01*
G01X10160Y-6795D02*
G01X10140Y-6795D01*
G01X10140Y-6795D02*
G01X10155Y-6805D01*
G01X10125Y-6825D02*
G01X10150Y-6775D01*
G01X10150Y-6775D02*
G01X10150Y-6825D01*
G01X10150Y-6825D02*
G01X10125Y-6825D01*
G01X10125Y-6825D02*
G01X10175Y-6825D01*
G01X10175Y-6825D02*
G01X10150Y-6775D01*
G01X10150Y-6775D02*
G01X10125Y-6775D01*
G01X10125Y-6775D02*
G01X10175Y-6775D01*
G01X10150Y-6850D02*
G01X10150Y-6750D01*
G54D13*
G01X10325Y-6728D02*
G01X10225Y-6728D01*
G01X10224Y-6729D02*
G75*
G03X10195Y-6790I00051J-0061D01*
G01X10195Y-6790D02*
G75*
G03X10237Y-6860I00080J00000D01*
G01X10355Y-6790D02*
G75*
G03X10327Y-6729I-0080J00000D01*
G01X10315Y-6859D02*
G75*
G03X10355Y-6790I-0040J00069D01*
G01X10237Y-6860D02*
G75*
G03X10275Y-6870I00038J00070D01*
G01X10275Y-6870D02*
G75*
G03X10317Y-6858I00000J00080D01*
G54D15*
G01X09035Y-6795D02*
G01X09035Y-6780D01*
G01X09035Y-6780D02*
G01X09050Y-6780D01*
G01X09050Y-6780D02*
G01X09035Y-6795D01*
G01X09035Y-6795D02*
G01X09035Y-6780D01*
G01X09035Y-6780D02*
G01X09055Y-6800D01*
G01X09055Y-6800D02*
G01X09055Y-6790D01*
G01X09055Y-6790D02*
G01X09070Y-6805D01*
G01X09080Y-6820D02*
G01X09120Y-6820D01*
G01X09120Y-6820D02*
G01X09115Y-6815D01*
G01X09115Y-6815D02*
G01X09080Y-6815D01*
G01X09080Y-6815D02*
G01X09085Y-6805D01*
G01X09085Y-6805D02*
G01X09115Y-6805D01*
G01X09115Y-6805D02*
G01X09115Y-6810D01*
G01X09115Y-6810D02*
G01X09085Y-6810D01*
G01X09085Y-6810D02*
G01X09090Y-6800D01*
G01X09090Y-6800D02*
G01X09110Y-6800D01*
G01X09110Y-6800D02*
G01X09105Y-6795D01*
G01X09105Y-6795D02*
G01X09095Y-6795D01*
G01X09095Y-6795D02*
G01X09100Y-6785D01*
G01X09100Y-6785D02*
G01X09110Y-6795D01*
G01X09110Y-6795D02*
G01X09090Y-6795D01*
G01X09090Y-6795D02*
G01X09105Y-6805D01*
G01X09075Y-6825D02*
G01X09100Y-6775D01*
G01X09100Y-6775D02*
G01X09100Y-6825D01*
G01X09100Y-6825D02*
G01X09075Y-6825D01*
G01X09075Y-6825D02*
G01X09125Y-6825D01*
G01X09125Y-6825D02*
G01X09100Y-6775D01*
G01X09100Y-6775D02*
G01X09075Y-6775D01*
G01X09075Y-6775D02*
G01X09125Y-6775D01*
G01X09100Y-6850D02*
G01X09100Y-6750D01*
G54D13*
G01X09275Y-6728D02*
G01X09175Y-6728D01*
G01X09174Y-6729D02*
G75*
G03X09145Y-6790I00051J-0061D01*
G01X09145Y-6790D02*
G75*
G03X09187Y-6860I00080J00000D01*
G01X09305Y-6790D02*
G75*
G03X09277Y-6729I-0080J00000D01*
G01X09265Y-6859D02*
G75*
G03X09305Y-6790I-0040J00069D01*
G01X09187Y-6860D02*
G75*
G03X09225Y-6870I00038J00070D01*
G01X09225Y-6870D02*
G75*
G03X09267Y-6858I00000J00080D01*
G54D15*
G01X07985Y-6795D02*
G01X07985Y-6780D01*
G01X07985Y-6780D02*
G01X08000Y-6780D01*
G01X08000Y-6780D02*
G01X07985Y-6795D01*
G01X07985Y-6795D02*
G01X07985Y-6780D01*
G01X07985Y-6780D02*
G01X08005Y-6800D01*
G01X08005Y-6800D02*
G01X08005Y-6790D01*
G01X08005Y-6790D02*
G01X08020Y-6805D01*
G01X08030Y-6820D02*
G01X08070Y-6820D01*
G01X08070Y-6820D02*
G01X08065Y-6815D01*
G01X08065Y-6815D02*
G01X08030Y-6815D01*
G01X08030Y-6815D02*
G01X08035Y-6805D01*
G01X08035Y-6805D02*
G01X08065Y-6805D01*
G01X08065Y-6805D02*
G01X08065Y-6810D01*
G01X08065Y-6810D02*
G01X08035Y-6810D01*
G01X08035Y-6810D02*
G01X08040Y-6800D01*
G01X08040Y-6800D02*
G01X08060Y-6800D01*
G01X08060Y-6800D02*
G01X08055Y-6795D01*
G01X08055Y-6795D02*
G01X08045Y-6795D01*
G01X08045Y-6795D02*
G01X08050Y-6785D01*
G01X08050Y-6785D02*
G01X08060Y-6795D01*
G01X08060Y-6795D02*
G01X08040Y-6795D01*
G01X08040Y-6795D02*
G01X08055Y-6805D01*
G01X08025Y-6825D02*
G01X08050Y-6775D01*
G01X08050Y-6775D02*
G01X08050Y-6825D01*
G01X08050Y-6825D02*
G01X08025Y-6825D01*
G01X08025Y-6825D02*
G01X08075Y-6825D01*
G01X08075Y-6825D02*
G01X08050Y-6775D01*
G01X08050Y-6775D02*
G01X08025Y-6775D01*
G01X08025Y-6775D02*
G01X08075Y-6775D01*
G01X08050Y-6850D02*
G01X08050Y-6750D01*
G54D13*
G01X08225Y-6728D02*
G01X08125Y-6728D01*
G01X08124Y-6729D02*
G75*
G03X08095Y-6790I00051J-0061D01*
G01X08095Y-6790D02*
G75*
G03X08137Y-6860I00080J00000D01*
G01X08255Y-6790D02*
G75*
G03X08227Y-6729I-0080J00000D01*
G01X08215Y-6859D02*
G75*
G03X08255Y-6790I-0040J00069D01*
G01X08137Y-6860D02*
G75*
G03X08175Y-6870I00038J00070D01*
G01X08175Y-6870D02*
G75*
G03X08217Y-6858I00000J00080D01*
G54D18*
G01X06623Y-5975D02*
G01X06425Y-5975D01*
G01X06425Y-5975D02*
G01X06425Y-5875D01*
G01X06425Y-5875D02*
G01X06625Y-5875D01*
G01X06625Y-5875D02*
G01X06625Y-5975D01*
G01X06625Y-5950D02*
G01X06600Y-5975D01*
G54D19*
G01X10790Y-5800D02*
G75*
G03X10790Y-5800I-0090J00000D01*
G01X10790Y-7500D02*
G75*
G03X10790Y-7500I-0090J00000D01*
G01X06140Y-7500D02*
G75*
G03X06140Y-7500I-0090J00000D01*
G01X06140Y-5800D02*
G75*
G03X06140Y-5800I-0090J00000D01*
G54D20*
G36*
G01X10617Y-7274D02*
G01X10618Y-7273D01*
G01X10621Y-7271D01*
G01X10626Y-7268D01*
G01X10631Y-7264D01*
G01X10637Y-7261D01*
G01X10641Y-7258D01*
G01X10644Y-7256D01*
G01X10646Y-7255D01*
G01X10646Y-7255D01*
G01X10649Y-7256D01*
G01X10653Y-7258D01*
G01X10655Y-7259D01*
G01X10658Y-7261D01*
G01X10660Y-7261D01*
G01X10660Y-7261D01*
G01X10662Y-7258D01*
G01X10664Y-7254D01*
G01X10666Y-7248D01*
G01X10669Y-7241D01*
G01X10672Y-7233D01*
G01X10676Y-7225D01*
G01X10679Y-7218D01*
G01X10681Y-7211D01*
G01X10683Y-7206D01*
G01X10685Y-7202D01*
G01X10685Y-7201D01*
G01X10685Y-7200D01*
G01X10684Y-7199D01*
G01X10681Y-7196D01*
G01X10674Y-7191D01*
G01X10668Y-7183D01*
G01X10664Y-7174D01*
G01X10662Y-7164D01*
G01X10663Y-7154D01*
G01X10667Y-7145D01*
G01X10673Y-7137D01*
G01X10681Y-7131D01*
G01X10690Y-7127D01*
G01X10700Y-7126D01*
G01X10710Y-7127D01*
G01X10719Y-7131D01*
G01X10727Y-7137D01*
G01X10730Y-7141D01*
G01X10735Y-7149D01*
G01X10738Y-7158D01*
G01X10738Y-7160D01*
G01X10738Y-7170D01*
G01X10735Y-7179D01*
G01X10730Y-7188D01*
G01X10723Y-7194D01*
G01X10722Y-7195D01*
G01X10718Y-7198D01*
G01X10716Y-7199D01*
G01X10715Y-7201D01*
G01X10727Y-7230D01*
G01X10729Y-7235D01*
G01X10732Y-7243D01*
G01X10735Y-7250D01*
G01X10738Y-7256D01*
G01X10739Y-7259D01*
G01X10740Y-7261D01*
G01X10740Y-7261D01*
G01X10741Y-7261D01*
G01X10743Y-7260D01*
G01X10748Y-7258D01*
G01X10750Y-7257D01*
G01X10753Y-7255D01*
G01X10755Y-7255D01*
G01X10756Y-7255D01*
G01X10759Y-7257D01*
G01X10763Y-7260D01*
G01X10769Y-7264D01*
G01X10774Y-7267D01*
G01X10778Y-7270D01*
G01X10782Y-7273D01*
G01X10783Y-7274D01*
G01X10784Y-7274D01*
G01X10785Y-7273D01*
G01X10788Y-7270D01*
G01X10792Y-7267D01*
G01X10798Y-7261D01*
G01X10799Y-7260D01*
G01X10803Y-7255D01*
G01X10807Y-7251D01*
G01X10810Y-7249D01*
G01X10811Y-7247D01*
G01X10811Y-7247D01*
G01X10810Y-7246D01*
G01X10808Y-7242D01*
G01X10804Y-7238D01*
G01X10801Y-7232D01*
G01X10791Y-7218D01*
G01X10796Y-7204D01*
G01X10798Y-7200D01*
G01X10800Y-7195D01*
G01X10802Y-7192D01*
G01X10802Y-7190D01*
G01X10804Y-7189D01*
G01X10808Y-7189D01*
G01X10813Y-7188D01*
G01X10819Y-7186D01*
G01X10825Y-7185D01*
G01X10831Y-7184D01*
G01X10835Y-7183D01*
G01X10837Y-7183D01*
G01X10837Y-7183D01*
G01X10837Y-7182D01*
G01X10838Y-7180D01*
G01X10838Y-7177D01*
G01X10838Y-7171D01*
G01X10838Y-7164D01*
G01X10838Y-7163D01*
G01X10838Y-7156D01*
G01X10838Y-7150D01*
G01X10837Y-7146D01*
G01X10837Y-7145D01*
G01X10837Y-7145D01*
G01X10835Y-7144D01*
G01X10832Y-7144D01*
G01X10826Y-7142D01*
G01X10820Y-7141D01*
G01X10819Y-7141D01*
G01X10813Y-7140D01*
G01X10807Y-7139D01*
G01X10803Y-7138D01*
G01X10802Y-7137D01*
G01X10801Y-7137D01*
G01X10800Y-7134D01*
G01X10798Y-7130D01*
G01X10796Y-7125D01*
G01X10794Y-7120D01*
G01X10792Y-7116D01*
G01X10791Y-7112D01*
G01X10790Y-7111D01*
G01X10790Y-7111D01*
G01X10791Y-7109D01*
G01X10794Y-7106D01*
G01X10797Y-7101D01*
G01X10801Y-7095D01*
G01X10801Y-7095D01*
G01X10805Y-7090D01*
G01X10808Y-7085D01*
G01X10810Y-7082D01*
G01X10811Y-7080D01*
G01X10810Y-7080D01*
G01X10809Y-7078D01*
G01X10806Y-7075D01*
G01X10802Y-7071D01*
G01X10798Y-7066D01*
G01X10796Y-7065D01*
G01X10791Y-7059D01*
G01X10787Y-7056D01*
G01X10785Y-7054D01*
G01X10784Y-7054D01*
G01X10784Y-7054D01*
G01X10782Y-7055D01*
G01X10778Y-7057D01*
G01X10774Y-7060D01*
G01X10768Y-7064D01*
G01X10768Y-7064D01*
G01X10762Y-7068D01*
G01X10758Y-7071D01*
G01X10754Y-7073D01*
G01X10753Y-7074D01*
G01X10753Y-7074D01*
G01X10750Y-7074D01*
G01X10747Y-7072D01*
G01X10742Y-7070D01*
G01X10737Y-7068D01*
G01X10732Y-7066D01*
G01X10728Y-7065D01*
G01X10727Y-7064D01*
G01X10727Y-7064D01*
G01X10726Y-7062D01*
G01X10725Y-7058D01*
G01X10724Y-7052D01*
G01X10723Y-7045D01*
G01X10723Y-7044D01*
G01X10721Y-7038D01*
G01X10720Y-7032D01*
G01X10720Y-7028D01*
G01X10719Y-7027D01*
G01X10718Y-7027D01*
G01X10715Y-7026D01*
G01X10710Y-7026D01*
G01X10704Y-7026D01*
G01X10698Y-7026D01*
G01X10692Y-7026D01*
G01X10687Y-7027D01*
G01X10683Y-7027D01*
G01X10681Y-7027D01*
G01X10681Y-7027D01*
G01X10681Y-7029D01*
G01X10680Y-7033D01*
G01X10679Y-7039D01*
G01X10677Y-7046D01*
G01X10677Y-7047D01*
G01X10676Y-7054D01*
G01X10675Y-7059D01*
G01X10674Y-7063D01*
G01X10674Y-7064D01*
G01X10673Y-7064D01*
G01X10670Y-7066D01*
G01X10666Y-7067D01*
G01X10661Y-7070D01*
G01X10648Y-7075D01*
G01X10632Y-7064D01*
G01X10631Y-7063D01*
G01X10625Y-7059D01*
G01X10621Y-7056D01*
G01X10618Y-7054D01*
G01X10616Y-7053D01*
G01X10616Y-7054D01*
G01X10615Y-7055D01*
G01X10612Y-7058D01*
G01X10608Y-7062D01*
G01X10603Y-7067D01*
G01X10599Y-7070D01*
G01X10595Y-7075D01*
G01X10592Y-7078D01*
G01X10591Y-7079D01*
G01X10590Y-7081D01*
G01X10590Y-7081D01*
G01X10591Y-7083D01*
G01X10593Y-7086D01*
G01X10597Y-7091D01*
G01X10600Y-7096D01*
G01X10604Y-7101D01*
G01X10607Y-7106D01*
G01X10609Y-7110D01*
G01X10610Y-7112D01*
G01X10610Y-7112D01*
G01X10609Y-7116D01*
G01X10607Y-7120D01*
G01X10604Y-7126D01*
G01X10599Y-7138D01*
G01X10591Y-7139D01*
G01X10586Y-7140D01*
G01X10579Y-7142D01*
G01X10573Y-7143D01*
G01X10563Y-7145D01*
G01X10562Y-7182D01*
G01X10564Y-7183D01*
G01X10565Y-7183D01*
G01X10569Y-7184D01*
G01X10575Y-7185D01*
G01X10581Y-7186D01*
G01X10586Y-7187D01*
G01X10592Y-7188D01*
G01X10596Y-7189D01*
G01X10597Y-7189D01*
G01X10598Y-7190D01*
G01X10599Y-7193D01*
G01X10601Y-7197D01*
G01X10603Y-7202D01*
G01X10605Y-7207D01*
G01X10607Y-7212D01*
G01X10609Y-7216D01*
G01X10609Y-7218D01*
G01X10608Y-7219D01*
G01X10606Y-7222D01*
G01X10603Y-7227D01*
G01X10600Y-7232D01*
G01X10596Y-7238D01*
G01X10593Y-7242D01*
G01X10591Y-7245D01*
G01X10590Y-7247D01*
G01X10590Y-7248D01*
G01X10592Y-7251D01*
G01X10596Y-7255D01*
G01X10603Y-7261D01*
G01X10604Y-7262D01*
G01X10608Y-7266D01*
G01X10612Y-7270D01*
G01X10615Y-7273D01*
G01X10617Y-7274D01*
G01X10617Y-7274D01*
G37*
G54D18*
G01X06405Y-6039D02*
G01X06405Y-6082D01*
G01X06405Y-6082D02*
G01X06402Y-6091D01*
G01X06402Y-6091D02*
G01X06396Y-6096D01*
G01X06396Y-6096D02*
G01X06388Y-6099D01*
G01X06388Y-6099D02*
G01X06382Y-6099D01*
G01X06431Y-6045D02*
G01X06434Y-6042D01*
G01X06434Y-6042D02*
G01X06439Y-6039D01*
G01X06439Y-6039D02*
G01X06454Y-6039D01*
G01X06454Y-6039D02*
G01X06459Y-6042D01*
G01X06459Y-6042D02*
G01X06462Y-6045D01*
G01X06462Y-6045D02*
G01X06465Y-6051D01*
G01X06465Y-6051D02*
G01X06465Y-6056D01*
G01X06465Y-6056D02*
G01X06462Y-6065D01*
G01X06462Y-6065D02*
G01X06428Y-6099D01*
G01X06428Y-6099D02*
G01X06465Y-6099D01*
G54D11*
G01X10548Y-6180D02*
G01X10548Y-6130D01*
G01X10548Y-6130D02*
G01X10560Y-6130D01*
G01X10560Y-6130D02*
G01X10567Y-6133D01*
G01X10567Y-6133D02*
G01X10572Y-6137D01*
G01X10572Y-6137D02*
G01X10574Y-6142D01*
G01X10574Y-6142D02*
G01X10577Y-6152D01*
G01X10577Y-6152D02*
G01X10577Y-6159D01*
G01X10577Y-6159D02*
G01X10574Y-6168D01*
G01X10574Y-6168D02*
G01X10572Y-6173D01*
G01X10572Y-6173D02*
G01X10567Y-6178D01*
G01X10567Y-6178D02*
G01X10560Y-6180D01*
G01X10560Y-6180D02*
G01X10548Y-6180D01*
G01X10596Y-6135D02*
G01X10598Y-6133D01*
G01X10598Y-6133D02*
G01X10603Y-6130D01*
G01X10603Y-6130D02*
G01X10615Y-6130D01*
G01X10615Y-6130D02*
G01X10620Y-6133D01*
G01X10620Y-6133D02*
G01X10622Y-6135D01*
G01X10622Y-6135D02*
G01X10624Y-6140D01*
G01X10624Y-6140D02*
G01X10624Y-6144D01*
G01X10624Y-6144D02*
G01X10622Y-6152D01*
G01X10622Y-6152D02*
G01X10593Y-6180D01*
G01X10593Y-6180D02*
G01X10624Y-6180D01*
G01X09713Y-5870D02*
G01X09713Y-5820D01*
G01X09713Y-5820D02*
G01X09725Y-5820D01*
G01X09725Y-5820D02*
G01X09732Y-5823D01*
G01X09732Y-5823D02*
G01X09737Y-5827D01*
G01X09737Y-5827D02*
G01X09739Y-5832D01*
G01X09739Y-5832D02*
G01X09742Y-5842D01*
G01X09742Y-5842D02*
G01X09742Y-5849D01*
G01X09742Y-5849D02*
G01X09739Y-5858D01*
G01X09739Y-5858D02*
G01X09737Y-5863D01*
G01X09737Y-5863D02*
G01X09732Y-5868D01*
G01X09732Y-5868D02*
G01X09725Y-5870D01*
G01X09725Y-5870D02*
G01X09713Y-5870D01*
G01X09789Y-5870D02*
G01X09761Y-5870D01*
G01X09775Y-5870D02*
G01X09775Y-5820D01*
G01X09775Y-5820D02*
G01X09770Y-5827D01*
G01X09770Y-5827D02*
G01X09765Y-5832D01*
G01X09765Y-5832D02*
G01X09761Y-5834D01*
G01X06095Y-7295D02*
G01X06079Y-7271D01*
G01X06067Y-7295D02*
G01X06067Y-7245D01*
G01X06067Y-7245D02*
G01X06086Y-7245D01*
G01X06086Y-7245D02*
G01X06090Y-7248D01*
G01X06090Y-7248D02*
G01X06093Y-7250D01*
G01X06093Y-7250D02*
G01X06095Y-7255D01*
G01X06095Y-7255D02*
G01X06095Y-7262D01*
G01X06095Y-7262D02*
G01X06093Y-7267D01*
G01X06093Y-7267D02*
G01X06090Y-7269D01*
G01X06090Y-7269D02*
G01X06086Y-7271D01*
G01X06086Y-7271D02*
G01X06067Y-7271D01*
G01X06110Y-7245D02*
G01X06126Y-7295D01*
G01X06126Y-7295D02*
G01X06143Y-7245D01*
G01X06186Y-7295D02*
G01X06157Y-7295D01*
G01X06171Y-7295D02*
G01X06171Y-7245D01*
G01X06171Y-7245D02*
G01X06167Y-7252D01*
G01X06167Y-7252D02*
G01X06162Y-7257D01*
G01X06162Y-7257D02*
G01X06157Y-7259D01*
G01X09360Y-6718D02*
G01X09367Y-6720D01*
G01X09367Y-6720D02*
G01X09379Y-6720D01*
G01X09379Y-6720D02*
G01X09383Y-6718D01*
G01X09383Y-6718D02*
G01X09386Y-6715D01*
G01X09386Y-6715D02*
G01X09388Y-6711D01*
G01X09388Y-6711D02*
G01X09388Y-6706D01*
G01X09388Y-6706D02*
G01X09386Y-6701D01*
G01X09386Y-6701D02*
G01X09383Y-6699D01*
G01X09383Y-6699D02*
G01X09379Y-6696D01*
G01X09379Y-6696D02*
G01X09369Y-6694D01*
G01X09369Y-6694D02*
G01X09364Y-6692D01*
G01X09364Y-6692D02*
G01X09362Y-6689D01*
G01X09362Y-6689D02*
G01X09360Y-6684D01*
G01X09360Y-6684D02*
G01X09360Y-6680D01*
G01X09360Y-6680D02*
G01X09362Y-6675D01*
G01X09362Y-6675D02*
G01X09364Y-6673D01*
G01X09364Y-6673D02*
G01X09369Y-6670D01*
G01X09369Y-6670D02*
G01X09381Y-6670D01*
G01X09381Y-6670D02*
G01X09388Y-6673D01*
G01X09405Y-6670D02*
G01X09417Y-6720D01*
G01X09417Y-6720D02*
G01X09426Y-6684D01*
G01X09426Y-6684D02*
G01X09436Y-6720D01*
G01X09436Y-6720D02*
G01X09448Y-6670D01*
G01X09493Y-6720D02*
G01X09464Y-6720D01*
G01X09479Y-6720D02*
G01X09479Y-6670D01*
G01X09479Y-6670D02*
G01X09474Y-6677D01*
G01X09474Y-6677D02*
G01X09469Y-6682D01*
G01X09469Y-6682D02*
G01X09464Y-6684D01*
G01X09524Y-6670D02*
G01X09529Y-6670D01*
G01X09529Y-6670D02*
G01X09533Y-6673D01*
G01X09533Y-6673D02*
G01X09536Y-6675D01*
G01X09536Y-6675D02*
G01X09538Y-6680D01*
G01X09538Y-6680D02*
G01X09540Y-6689D01*
G01X09540Y-6689D02*
G01X09540Y-6701D01*
G01X09540Y-6701D02*
G01X09538Y-6711D01*
G01X09538Y-6711D02*
G01X09536Y-6715D01*
G01X09536Y-6715D02*
G01X09533Y-6718D01*
G01X09533Y-6718D02*
G01X09529Y-6720D01*
G01X09529Y-6720D02*
G01X09524Y-6720D01*
G01X09524Y-6720D02*
G01X09519Y-6718D01*
G01X09519Y-6718D02*
G01X09517Y-6715D01*
G01X09517Y-6715D02*
G01X09514Y-6711D01*
G01X09514Y-6711D02*
G01X09512Y-6701D01*
G01X09512Y-6701D02*
G01X09512Y-6689D01*
G01X09512Y-6689D02*
G01X09514Y-6680D01*
G01X09514Y-6680D02*
G01X09517Y-6675D01*
G01X09517Y-6675D02*
G01X09519Y-6673D01*
G01X09519Y-6673D02*
G01X09524Y-6670D01*
G01X10433Y-6718D02*
G01X10440Y-6720D01*
G01X10440Y-6720D02*
G01X10452Y-6720D01*
G01X10452Y-6720D02*
G01X10457Y-6718D01*
G01X10457Y-6718D02*
G01X10460Y-6715D01*
G01X10460Y-6715D02*
G01X10462Y-6711D01*
G01X10462Y-6711D02*
G01X10462Y-6706D01*
G01X10462Y-6706D02*
G01X10460Y-6701D01*
G01X10460Y-6701D02*
G01X10457Y-6699D01*
G01X10457Y-6699D02*
G01X10452Y-6696D01*
G01X10452Y-6696D02*
G01X10443Y-6694D01*
G01X10443Y-6694D02*
G01X10438Y-6692D01*
G01X10438Y-6692D02*
G01X10436Y-6689D01*
G01X10436Y-6689D02*
G01X10433Y-6684D01*
G01X10433Y-6684D02*
G01X10433Y-6680D01*
G01X10433Y-6680D02*
G01X10436Y-6675D01*
G01X10436Y-6675D02*
G01X10438Y-6673D01*
G01X10438Y-6673D02*
G01X10443Y-6670D01*
G01X10443Y-6670D02*
G01X10455Y-6670D01*
G01X10455Y-6670D02*
G01X10462Y-6673D01*
G01X10479Y-6670D02*
G01X10490Y-6720D01*
G01X10490Y-6720D02*
G01X10500Y-6684D01*
G01X10500Y-6684D02*
G01X10510Y-6720D01*
G01X10510Y-6720D02*
G01X10521Y-6670D01*
G01X10543Y-6720D02*
G01X10552Y-6720D01*
G01X10552Y-6720D02*
G01X10557Y-6718D01*
G01X10557Y-6718D02*
G01X10560Y-6715D01*
G01X10560Y-6715D02*
G01X10564Y-6708D01*
G01X10564Y-6708D02*
G01X10567Y-6699D01*
G01X10567Y-6699D02*
G01X10567Y-6680D01*
G01X10567Y-6680D02*
G01X10564Y-6675D01*
G01X10564Y-6675D02*
G01X10562Y-6673D01*
G01X10562Y-6673D02*
G01X10557Y-6670D01*
G01X10557Y-6670D02*
G01X10548Y-6670D01*
G01X10548Y-6670D02*
G01X10543Y-6673D01*
G01X10543Y-6673D02*
G01X10540Y-6675D01*
G01X10540Y-6675D02*
G01X10538Y-6680D01*
G01X10538Y-6680D02*
G01X10538Y-6692D01*
G01X10538Y-6692D02*
G01X10540Y-6696D01*
G01X10540Y-6696D02*
G01X10543Y-6699D01*
G01X10543Y-6699D02*
G01X10548Y-6701D01*
G01X10548Y-6701D02*
G01X10557Y-6701D01*
G01X10557Y-6701D02*
G01X10562Y-6699D01*
G01X10562Y-6699D02*
G01X10564Y-6696D01*
G01X10564Y-6696D02*
G01X10567Y-6692D01*
G01X09158Y-7293D02*
G01X09165Y-7295D01*
G01X09165Y-7295D02*
G01X09177Y-7295D01*
G01X09177Y-7295D02*
G01X09182Y-7293D01*
G01X09182Y-7293D02*
G01X09185Y-7290D01*
G01X09185Y-7290D02*
G01X09187Y-7286D01*
G01X09187Y-7286D02*
G01X09187Y-7281D01*
G01X09187Y-7281D02*
G01X09185Y-7276D01*
G01X09185Y-7276D02*
G01X09182Y-7274D01*
G01X09182Y-7274D02*
G01X09177Y-7271D01*
G01X09177Y-7271D02*
G01X09168Y-7269D01*
G01X09168Y-7269D02*
G01X09163Y-7267D01*
G01X09163Y-7267D02*
G01X09161Y-7264D01*
G01X09161Y-7264D02*
G01X09158Y-7259D01*
G01X09158Y-7259D02*
G01X09158Y-7255D01*
G01X09158Y-7255D02*
G01X09161Y-7250D01*
G01X09161Y-7250D02*
G01X09163Y-7248D01*
G01X09163Y-7248D02*
G01X09168Y-7245D01*
G01X09168Y-7245D02*
G01X09180Y-7245D01*
G01X09180Y-7245D02*
G01X09187Y-7248D01*
G01X09204Y-7245D02*
G01X09215Y-7295D01*
G01X09215Y-7295D02*
G01X09225Y-7259D01*
G01X09225Y-7259D02*
G01X09235Y-7295D01*
G01X09235Y-7295D02*
G01X09246Y-7245D01*
G01X09287Y-7245D02*
G01X09277Y-7245D01*
G01X09277Y-7245D02*
G01X09273Y-7248D01*
G01X09273Y-7248D02*
G01X09270Y-7250D01*
G01X09270Y-7250D02*
G01X09265Y-7257D01*
G01X09265Y-7257D02*
G01X09263Y-7267D01*
G01X09263Y-7267D02*
G01X09263Y-7286D01*
G01X09263Y-7286D02*
G01X09265Y-7290D01*
G01X09265Y-7290D02*
G01X09268Y-7293D01*
G01X09268Y-7293D02*
G01X09273Y-7295D01*
G01X09273Y-7295D02*
G01X09282Y-7295D01*
G01X09282Y-7295D02*
G01X09287Y-7293D01*
G01X09287Y-7293D02*
G01X09289Y-7290D01*
G01X09289Y-7290D02*
G01X09292Y-7286D01*
G01X09292Y-7286D02*
G01X09292Y-7274D01*
G01X09292Y-7274D02*
G01X09289Y-7269D01*
G01X09289Y-7269D02*
G01X09287Y-7267D01*
G01X09287Y-7267D02*
G01X09282Y-7264D01*
G01X09282Y-7264D02*
G01X09273Y-7264D01*
G01X09273Y-7264D02*
G01X09268Y-7267D01*
G01X09268Y-7267D02*
G01X09265Y-7269D01*
G01X09265Y-7269D02*
G01X09263Y-7274D01*
G01X09683Y-7293D02*
G01X09690Y-7295D01*
G01X09690Y-7295D02*
G01X09702Y-7295D01*
G01X09702Y-7295D02*
G01X09707Y-7293D01*
G01X09707Y-7293D02*
G01X09710Y-7290D01*
G01X09710Y-7290D02*
G01X09712Y-7286D01*
G01X09712Y-7286D02*
G01X09712Y-7281D01*
G01X09712Y-7281D02*
G01X09710Y-7276D01*
G01X09710Y-7276D02*
G01X09707Y-7274D01*
G01X09707Y-7274D02*
G01X09702Y-7271D01*
G01X09702Y-7271D02*
G01X09693Y-7269D01*
G01X09693Y-7269D02*
G01X09688Y-7267D01*
G01X09688Y-7267D02*
G01X09686Y-7264D01*
G01X09686Y-7264D02*
G01X09683Y-7259D01*
G01X09683Y-7259D02*
G01X09683Y-7255D01*
G01X09683Y-7255D02*
G01X09686Y-7250D01*
G01X09686Y-7250D02*
G01X09688Y-7248D01*
G01X09688Y-7248D02*
G01X09693Y-7245D01*
G01X09693Y-7245D02*
G01X09705Y-7245D01*
G01X09705Y-7245D02*
G01X09712Y-7248D01*
G01X09729Y-7245D02*
G01X09740Y-7295D01*
G01X09740Y-7295D02*
G01X09750Y-7259D01*
G01X09750Y-7259D02*
G01X09760Y-7295D01*
G01X09760Y-7295D02*
G01X09771Y-7245D01*
G01X09786Y-7245D02*
G01X09819Y-7245D01*
G01X09819Y-7245D02*
G01X09798Y-7295D01*
G01X10208Y-7293D02*
G01X10215Y-7295D01*
G01X10215Y-7295D02*
G01X10227Y-7295D01*
G01X10227Y-7295D02*
G01X10232Y-7293D01*
G01X10232Y-7293D02*
G01X10235Y-7290D01*
G01X10235Y-7290D02*
G01X10237Y-7286D01*
G01X10237Y-7286D02*
G01X10237Y-7281D01*
G01X10237Y-7281D02*
G01X10235Y-7276D01*
G01X10235Y-7276D02*
G01X10232Y-7274D01*
G01X10232Y-7274D02*
G01X10227Y-7271D01*
G01X10227Y-7271D02*
G01X10218Y-7269D01*
G01X10218Y-7269D02*
G01X10213Y-7267D01*
G01X10213Y-7267D02*
G01X10211Y-7264D01*
G01X10211Y-7264D02*
G01X10208Y-7259D01*
G01X10208Y-7259D02*
G01X10208Y-7255D01*
G01X10208Y-7255D02*
G01X10211Y-7250D01*
G01X10211Y-7250D02*
G01X10213Y-7248D01*
G01X10213Y-7248D02*
G01X10218Y-7245D01*
G01X10218Y-7245D02*
G01X10230Y-7245D01*
G01X10230Y-7245D02*
G01X10237Y-7248D01*
G01X10254Y-7245D02*
G01X10265Y-7295D01*
G01X10265Y-7295D02*
G01X10275Y-7259D01*
G01X10275Y-7259D02*
G01X10285Y-7295D01*
G01X10285Y-7295D02*
G01X10296Y-7245D01*
G01X10323Y-7267D02*
G01X10318Y-7264D01*
G01X10318Y-7264D02*
G01X10315Y-7262D01*
G01X10315Y-7262D02*
G01X10313Y-7257D01*
G01X10313Y-7257D02*
G01X10313Y-7255D01*
G01X10313Y-7255D02*
G01X10315Y-7250D01*
G01X10315Y-7250D02*
G01X10318Y-7248D01*
G01X10318Y-7248D02*
G01X10323Y-7245D01*
G01X10323Y-7245D02*
G01X10332Y-7245D01*
G01X10332Y-7245D02*
G01X10337Y-7248D01*
G01X10337Y-7248D02*
G01X10339Y-7250D01*
G01X10339Y-7250D02*
G01X10342Y-7255D01*
G01X10342Y-7255D02*
G01X10342Y-7257D01*
G01X10342Y-7257D02*
G01X10339Y-7262D01*
G01X10339Y-7262D02*
G01X10337Y-7264D01*
G01X10337Y-7264D02*
G01X10332Y-7267D01*
G01X10332Y-7267D02*
G01X10323Y-7267D01*
G01X10323Y-7267D02*
G01X10318Y-7269D01*
G01X10318Y-7269D02*
G01X10315Y-7271D01*
G01X10315Y-7271D02*
G01X10313Y-7276D01*
G01X10313Y-7276D02*
G01X10313Y-7286D01*
G01X10313Y-7286D02*
G01X10315Y-7290D01*
G01X10315Y-7290D02*
G01X10318Y-7293D01*
G01X10318Y-7293D02*
G01X10323Y-7295D01*
G01X10323Y-7295D02*
G01X10332Y-7295D01*
G01X10332Y-7295D02*
G01X10337Y-7293D01*
G01X10337Y-7293D02*
G01X10339Y-7290D01*
G01X10339Y-7290D02*
G01X10342Y-7286D01*
G01X10342Y-7286D02*
G01X10342Y-7276D01*
G01X10342Y-7276D02*
G01X10339Y-7271D01*
G01X10339Y-7271D02*
G01X10337Y-7269D01*
G01X10337Y-7269D02*
G01X10332Y-7267D01*
G01X06533Y-7293D02*
G01X06540Y-7295D01*
G01X06540Y-7295D02*
G01X06552Y-7295D01*
G01X06552Y-7295D02*
G01X06557Y-7293D01*
G01X06557Y-7293D02*
G01X06560Y-7290D01*
G01X06560Y-7290D02*
G01X06562Y-7286D01*
G01X06562Y-7286D02*
G01X06562Y-7281D01*
G01X06562Y-7281D02*
G01X06560Y-7276D01*
G01X06560Y-7276D02*
G01X06557Y-7274D01*
G01X06557Y-7274D02*
G01X06552Y-7271D01*
G01X06552Y-7271D02*
G01X06543Y-7269D01*
G01X06543Y-7269D02*
G01X06538Y-7267D01*
G01X06538Y-7267D02*
G01X06536Y-7264D01*
G01X06536Y-7264D02*
G01X06533Y-7259D01*
G01X06533Y-7259D02*
G01X06533Y-7255D01*
G01X06533Y-7255D02*
G01X06536Y-7250D01*
G01X06536Y-7250D02*
G01X06538Y-7248D01*
G01X06538Y-7248D02*
G01X06543Y-7245D01*
G01X06543Y-7245D02*
G01X06555Y-7245D01*
G01X06555Y-7245D02*
G01X06562Y-7248D01*
G01X06579Y-7245D02*
G01X06590Y-7295D01*
G01X06590Y-7295D02*
G01X06600Y-7259D01*
G01X06600Y-7259D02*
G01X06610Y-7295D01*
G01X06610Y-7295D02*
G01X06621Y-7245D01*
G01X06667Y-7295D02*
G01X06638Y-7295D01*
G01X06652Y-7295D02*
G01X06652Y-7245D01*
G01X06652Y-7245D02*
G01X06648Y-7252D01*
G01X06648Y-7252D02*
G01X06643Y-7257D01*
G01X06643Y-7257D02*
G01X06638Y-7259D01*
G01X07058Y-7293D02*
G01X07065Y-7295D01*
G01X07065Y-7295D02*
G01X07077Y-7295D01*
G01X07077Y-7295D02*
G01X07082Y-7293D01*
G01X07082Y-7293D02*
G01X07085Y-7290D01*
G01X07085Y-7290D02*
G01X07087Y-7286D01*
G01X07087Y-7286D02*
G01X07087Y-7281D01*
G01X07087Y-7281D02*
G01X07085Y-7276D01*
G01X07085Y-7276D02*
G01X07082Y-7274D01*
G01X07082Y-7274D02*
G01X07077Y-7271D01*
G01X07077Y-7271D02*
G01X07068Y-7269D01*
G01X07068Y-7269D02*
G01X07063Y-7267D01*
G01X07063Y-7267D02*
G01X07061Y-7264D01*
G01X07061Y-7264D02*
G01X07058Y-7259D01*
G01X07058Y-7259D02*
G01X07058Y-7255D01*
G01X07058Y-7255D02*
G01X07061Y-7250D01*
G01X07061Y-7250D02*
G01X07063Y-7248D01*
G01X07063Y-7248D02*
G01X07068Y-7245D01*
G01X07068Y-7245D02*
G01X07080Y-7245D01*
G01X07080Y-7245D02*
G01X07087Y-7248D01*
G01X07104Y-7245D02*
G01X07115Y-7295D01*
G01X07115Y-7295D02*
G01X07125Y-7259D01*
G01X07125Y-7259D02*
G01X07135Y-7295D01*
G01X07135Y-7295D02*
G01X07146Y-7245D01*
G01X07163Y-7250D02*
G01X07165Y-7248D01*
G01X07165Y-7248D02*
G01X07170Y-7245D01*
G01X07170Y-7245D02*
G01X07182Y-7245D01*
G01X07182Y-7245D02*
G01X07187Y-7248D01*
G01X07187Y-7248D02*
G01X07189Y-7250D01*
G01X07189Y-7250D02*
G01X07192Y-7255D01*
G01X07192Y-7255D02*
G01X07192Y-7259D01*
G01X07192Y-7259D02*
G01X07189Y-7267D01*
G01X07189Y-7267D02*
G01X07161Y-7295D01*
G01X07161Y-7295D02*
G01X07192Y-7295D01*
G01X07583Y-7293D02*
G01X07590Y-7295D01*
G01X07590Y-7295D02*
G01X07602Y-7295D01*
G01X07602Y-7295D02*
G01X07607Y-7293D01*
G01X07607Y-7293D02*
G01X07610Y-7290D01*
G01X07610Y-7290D02*
G01X07612Y-7286D01*
G01X07612Y-7286D02*
G01X07612Y-7281D01*
G01X07612Y-7281D02*
G01X07610Y-7276D01*
G01X07610Y-7276D02*
G01X07607Y-7274D01*
G01X07607Y-7274D02*
G01X07602Y-7271D01*
G01X07602Y-7271D02*
G01X07593Y-7269D01*
G01X07593Y-7269D02*
G01X07588Y-7267D01*
G01X07588Y-7267D02*
G01X07586Y-7264D01*
G01X07586Y-7264D02*
G01X07583Y-7259D01*
G01X07583Y-7259D02*
G01X07583Y-7255D01*
G01X07583Y-7255D02*
G01X07586Y-7250D01*
G01X07586Y-7250D02*
G01X07588Y-7248D01*
G01X07588Y-7248D02*
G01X07593Y-7245D01*
G01X07593Y-7245D02*
G01X07605Y-7245D01*
G01X07605Y-7245D02*
G01X07612Y-7248D01*
G01X07629Y-7245D02*
G01X07640Y-7295D01*
G01X07640Y-7295D02*
G01X07650Y-7259D01*
G01X07650Y-7259D02*
G01X07660Y-7295D01*
G01X07660Y-7295D02*
G01X07671Y-7245D01*
G01X07686Y-7245D02*
G01X07717Y-7245D01*
G01X07717Y-7245D02*
G01X07700Y-7264D01*
G01X07700Y-7264D02*
G01X07707Y-7264D01*
G01X07707Y-7264D02*
G01X07712Y-7267D01*
G01X07712Y-7267D02*
G01X07714Y-7269D01*
G01X07714Y-7269D02*
G01X07717Y-7274D01*
G01X07717Y-7274D02*
G01X07717Y-7286D01*
G01X07717Y-7286D02*
G01X07714Y-7290D01*
G01X07714Y-7290D02*
G01X07712Y-7293D01*
G01X07712Y-7293D02*
G01X07707Y-7295D01*
G01X07707Y-7295D02*
G01X07693Y-7295D01*
G01X07693Y-7295D02*
G01X07688Y-7293D01*
G01X07688Y-7293D02*
G01X07686Y-7290D01*
G01X08108Y-7293D02*
G01X08115Y-7295D01*
G01X08115Y-7295D02*
G01X08127Y-7295D01*
G01X08127Y-7295D02*
G01X08132Y-7293D01*
G01X08132Y-7293D02*
G01X08134Y-7290D01*
G01X08134Y-7290D02*
G01X08137Y-7286D01*
G01X08137Y-7286D02*
G01X08137Y-7281D01*
G01X08137Y-7281D02*
G01X08134Y-7276D01*
G01X08134Y-7276D02*
G01X08132Y-7274D01*
G01X08132Y-7274D02*
G01X08127Y-7271D01*
G01X08127Y-7271D02*
G01X08118Y-7269D01*
G01X08118Y-7269D02*
G01X08113Y-7267D01*
G01X08113Y-7267D02*
G01X08111Y-7264D01*
G01X08111Y-7264D02*
G01X08108Y-7259D01*
G01X08108Y-7259D02*
G01X08108Y-7255D01*
G01X08108Y-7255D02*
G01X08111Y-7250D01*
G01X08111Y-7250D02*
G01X08113Y-7248D01*
G01X08113Y-7248D02*
G01X08118Y-7245D01*
G01X08118Y-7245D02*
G01X08130Y-7245D01*
G01X08130Y-7245D02*
G01X08137Y-7248D01*
G01X08153Y-7245D02*
G01X08165Y-7295D01*
G01X08165Y-7295D02*
G01X08175Y-7259D01*
G01X08175Y-7259D02*
G01X08185Y-7295D01*
G01X08185Y-7295D02*
G01X08196Y-7245D01*
G01X08237Y-7262D02*
G01X08237Y-7295D01*
G01X08225Y-7243D02*
G01X08213Y-7278D01*
G01X08213Y-7278D02*
G01X08244Y-7278D01*
G01X08633Y-7293D02*
G01X08640Y-7295D01*
G01X08640Y-7295D02*
G01X08652Y-7295D01*
G01X08652Y-7295D02*
G01X08657Y-7293D01*
G01X08657Y-7293D02*
G01X08660Y-7290D01*
G01X08660Y-7290D02*
G01X08662Y-7286D01*
G01X08662Y-7286D02*
G01X08662Y-7281D01*
G01X08662Y-7281D02*
G01X08660Y-7276D01*
G01X08660Y-7276D02*
G01X08657Y-7274D01*
G01X08657Y-7274D02*
G01X08652Y-7271D01*
G01X08652Y-7271D02*
G01X08643Y-7269D01*
G01X08643Y-7269D02*
G01X08638Y-7267D01*
G01X08638Y-7267D02*
G01X08636Y-7264D01*
G01X08636Y-7264D02*
G01X08633Y-7259D01*
G01X08633Y-7259D02*
G01X08633Y-7255D01*
G01X08633Y-7255D02*
G01X08636Y-7250D01*
G01X08636Y-7250D02*
G01X08638Y-7248D01*
G01X08638Y-7248D02*
G01X08643Y-7245D01*
G01X08643Y-7245D02*
G01X08655Y-7245D01*
G01X08655Y-7245D02*
G01X08662Y-7248D01*
G01X08679Y-7245D02*
G01X08690Y-7295D01*
G01X08690Y-7295D02*
G01X08700Y-7259D01*
G01X08700Y-7259D02*
G01X08710Y-7295D01*
G01X08710Y-7295D02*
G01X08721Y-7245D01*
G01X08764Y-7245D02*
G01X08740Y-7245D01*
G01X08740Y-7245D02*
G01X08738Y-7269D01*
G01X08738Y-7269D02*
G01X08740Y-7267D01*
G01X08740Y-7267D02*
G01X08745Y-7264D01*
G01X08745Y-7264D02*
G01X08757Y-7264D01*
G01X08757Y-7264D02*
G01X08762Y-7267D01*
G01X08762Y-7267D02*
G01X08764Y-7269D01*
G01X08764Y-7269D02*
G01X08767Y-7274D01*
G01X08767Y-7274D02*
G01X08767Y-7286D01*
G01X08767Y-7286D02*
G01X08764Y-7290D01*
G01X08764Y-7290D02*
G01X08762Y-7293D01*
G01X08762Y-7293D02*
G01X08757Y-7295D01*
G01X08757Y-7295D02*
G01X08745Y-7295D01*
G01X08745Y-7295D02*
G01X08740Y-7293D01*
G01X08740Y-7293D02*
G01X08738Y-7290D01*
G01X06695Y-6258D02*
G01X06671Y-6275D01*
G01X06695Y-6287D02*
G01X06645Y-6287D01*
G01X06645Y-6287D02*
G01X06645Y-6268D01*
G01X06645Y-6268D02*
G01X06648Y-6263D01*
G01X06648Y-6263D02*
G01X06650Y-6261D01*
G01X06650Y-6261D02*
G01X06655Y-6258D01*
G01X06655Y-6258D02*
G01X06662Y-6258D01*
G01X06662Y-6258D02*
G01X06667Y-6261D01*
G01X06667Y-6261D02*
G01X06669Y-6263D01*
G01X06669Y-6263D02*
G01X06671Y-6268D01*
G01X06671Y-6268D02*
G01X06671Y-6287D01*
G01X06695Y-6234D02*
G01X06695Y-6225D01*
G01X06695Y-6225D02*
G01X06693Y-6220D01*
G01X06693Y-6220D02*
G01X06690Y-6218D01*
G01X06690Y-6218D02*
G01X06683Y-6213D01*
G01X06683Y-6213D02*
G01X06674Y-6211D01*
G01X06674Y-6211D02*
G01X06655Y-6211D01*
G01X06655Y-6211D02*
G01X06650Y-6213D01*
G01X06650Y-6213D02*
G01X06648Y-6215D01*
G01X06648Y-6215D02*
G01X06645Y-6220D01*
G01X06645Y-6220D02*
G01X06645Y-6230D01*
G01X06645Y-6230D02*
G01X06648Y-6234D01*
G01X06648Y-6234D02*
G01X06650Y-6237D01*
G01X06650Y-6237D02*
G01X06655Y-6239D01*
G01X06655Y-6239D02*
G01X06667Y-6239D01*
G01X06667Y-6239D02*
G01X06671Y-6237D01*
G01X06671Y-6237D02*
G01X06674Y-6234D01*
G01X06674Y-6234D02*
G01X06676Y-6230D01*
G01X06676Y-6230D02*
G01X06676Y-6220D01*
G01X06676Y-6220D02*
G01X06674Y-6215D01*
G01X06674Y-6215D02*
G01X06671Y-6213D01*
G01X06671Y-6213D02*
G01X06667Y-6211D01*
G01X06295Y-7058D02*
G01X06271Y-7075D01*
G01X06295Y-7087D02*
G01X06245Y-7087D01*
G01X06245Y-7087D02*
G01X06245Y-7068D01*
G01X06245Y-7068D02*
G01X06248Y-7063D01*
G01X06248Y-7063D02*
G01X06250Y-7061D01*
G01X06250Y-7061D02*
G01X06255Y-7058D01*
G01X06255Y-7058D02*
G01X06262Y-7058D01*
G01X06262Y-7058D02*
G01X06267Y-7061D01*
G01X06267Y-7061D02*
G01X06269Y-7063D01*
G01X06269Y-7063D02*
G01X06271Y-7068D01*
G01X06271Y-7068D02*
G01X06271Y-7087D01*
G01X06267Y-7030D02*
G01X06264Y-7034D01*
G01X06264Y-7034D02*
G01X06262Y-7037D01*
G01X06262Y-7037D02*
G01X06257Y-7039D01*
G01X06257Y-7039D02*
G01X06255Y-7039D01*
G01X06255Y-7039D02*
G01X06250Y-7037D01*
G01X06250Y-7037D02*
G01X06248Y-7034D01*
G01X06248Y-7034D02*
G01X06245Y-7030D01*
G01X06245Y-7030D02*
G01X06245Y-7020D01*
G01X06245Y-7020D02*
G01X06248Y-7015D01*
G01X06248Y-7015D02*
G01X06250Y-7013D01*
G01X06250Y-7013D02*
G01X06255Y-7011D01*
G01X06255Y-7011D02*
G01X06257Y-7011D01*
G01X06257Y-7011D02*
G01X06262Y-7013D01*
G01X06262Y-7013D02*
G01X06264Y-7015D01*
G01X06264Y-7015D02*
G01X06267Y-7020D01*
G01X06267Y-7020D02*
G01X06267Y-7030D01*
G01X06267Y-7030D02*
G01X06269Y-7034D01*
G01X06269Y-7034D02*
G01X06271Y-7037D01*
G01X06271Y-7037D02*
G01X06276Y-7039D01*
G01X06276Y-7039D02*
G01X06286Y-7039D01*
G01X06286Y-7039D02*
G01X06290Y-7037D01*
G01X06290Y-7037D02*
G01X06293Y-7034D01*
G01X06293Y-7034D02*
G01X06295Y-7030D01*
G01X06295Y-7030D02*
G01X06295Y-7020D01*
G01X06295Y-7020D02*
G01X06293Y-7015D01*
G01X06293Y-7015D02*
G01X06290Y-7013D01*
G01X06290Y-7013D02*
G01X06286Y-7011D01*
G01X06286Y-7011D02*
G01X06276Y-7011D01*
G01X06276Y-7011D02*
G01X06271Y-7013D01*
G01X06271Y-7013D02*
G01X06269Y-7015D01*
G01X06269Y-7015D02*
G01X06267Y-7020D01*
G01X06895Y-6258D02*
G01X06871Y-6275D01*
G01X06895Y-6287D02*
G01X06845Y-6287D01*
G01X06845Y-6287D02*
G01X06845Y-6268D01*
G01X06845Y-6268D02*
G01X06848Y-6263D01*
G01X06848Y-6263D02*
G01X06850Y-6261D01*
G01X06850Y-6261D02*
G01X06855Y-6258D01*
G01X06855Y-6258D02*
G01X06862Y-6258D01*
G01X06862Y-6258D02*
G01X06867Y-6261D01*
G01X06867Y-6261D02*
G01X06869Y-6263D01*
G01X06869Y-6263D02*
G01X06871Y-6268D01*
G01X06871Y-6268D02*
G01X06871Y-6287D01*
G01X06845Y-6242D02*
G01X06845Y-6208D01*
G01X06845Y-6208D02*
G01X06895Y-6230D01*
G01X08867Y-6620D02*
G01X08850Y-6596D01*
G01X08838Y-6620D02*
G01X08838Y-6570D01*
G01X08838Y-6570D02*
G01X08857Y-6570D01*
G01X08857Y-6570D02*
G01X08862Y-6573D01*
G01X08862Y-6573D02*
G01X08864Y-6575D01*
G01X08864Y-6575D02*
G01X08867Y-6580D01*
G01X08867Y-6580D02*
G01X08867Y-6587D01*
G01X08867Y-6587D02*
G01X08864Y-6592D01*
G01X08864Y-6592D02*
G01X08862Y-6594D01*
G01X08862Y-6594D02*
G01X08857Y-6596D01*
G01X08857Y-6596D02*
G01X08838Y-6596D01*
G01X08886Y-6575D02*
G01X08888Y-6573D01*
G01X08888Y-6573D02*
G01X08893Y-6570D01*
G01X08893Y-6570D02*
G01X08905Y-6570D01*
G01X08905Y-6570D02*
G01X08910Y-6573D01*
G01X08910Y-6573D02*
G01X08912Y-6575D01*
G01X08912Y-6575D02*
G01X08914Y-6580D01*
G01X08914Y-6580D02*
G01X08914Y-6584D01*
G01X08914Y-6584D02*
G01X08912Y-6592D01*
G01X08912Y-6592D02*
G01X08883Y-6620D01*
G01X08883Y-6620D02*
G01X08914Y-6620D01*
G01X08217Y-6620D02*
G01X08200Y-6596D01*
G01X08188Y-6620D02*
G01X08188Y-6570D01*
G01X08188Y-6570D02*
G01X08207Y-6570D01*
G01X08207Y-6570D02*
G01X08212Y-6573D01*
G01X08212Y-6573D02*
G01X08214Y-6575D01*
G01X08214Y-6575D02*
G01X08217Y-6580D01*
G01X08217Y-6580D02*
G01X08217Y-6587D01*
G01X08217Y-6587D02*
G01X08214Y-6592D01*
G01X08214Y-6592D02*
G01X08212Y-6594D01*
G01X08212Y-6594D02*
G01X08207Y-6596D01*
G01X08207Y-6596D02*
G01X08188Y-6596D01*
G01X08233Y-6570D02*
G01X08264Y-6570D01*
G01X08264Y-6570D02*
G01X08248Y-6589D01*
G01X08248Y-6589D02*
G01X08255Y-6589D01*
G01X08255Y-6589D02*
G01X08260Y-6592D01*
G01X08260Y-6592D02*
G01X08262Y-6594D01*
G01X08262Y-6594D02*
G01X08264Y-6599D01*
G01X08264Y-6599D02*
G01X08264Y-6611D01*
G01X08264Y-6611D02*
G01X08262Y-6615D01*
G01X08262Y-6615D02*
G01X08260Y-6618D01*
G01X08260Y-6618D02*
G01X08255Y-6620D01*
G01X08255Y-6620D02*
G01X08240Y-6620D01*
G01X08240Y-6620D02*
G01X08236Y-6618D01*
G01X08236Y-6618D02*
G01X08233Y-6615D01*
G01X10745Y-6558D02*
G01X10721Y-6575D01*
G01X10745Y-6587D02*
G01X10695Y-6587D01*
G01X10695Y-6587D02*
G01X10695Y-6568D01*
G01X10695Y-6568D02*
G01X10698Y-6563D01*
G01X10698Y-6563D02*
G01X10700Y-6561D01*
G01X10700Y-6561D02*
G01X10705Y-6558D01*
G01X10705Y-6558D02*
G01X10712Y-6558D01*
G01X10712Y-6558D02*
G01X10717Y-6561D01*
G01X10717Y-6561D02*
G01X10719Y-6563D01*
G01X10719Y-6563D02*
G01X10721Y-6568D01*
G01X10721Y-6568D02*
G01X10721Y-6587D01*
G01X10695Y-6513D02*
G01X10695Y-6537D01*
G01X10695Y-6537D02*
G01X10719Y-6539D01*
G01X10719Y-6539D02*
G01X10717Y-6537D01*
G01X10717Y-6537D02*
G01X10714Y-6532D01*
G01X10714Y-6532D02*
G01X10714Y-6520D01*
G01X10714Y-6520D02*
G01X10717Y-6515D01*
G01X10717Y-6515D02*
G01X10719Y-6513D01*
G01X10719Y-6513D02*
G01X10724Y-6511D01*
G01X10724Y-6511D02*
G01X10736Y-6511D01*
G01X10736Y-6511D02*
G01X10740Y-6513D01*
G01X10740Y-6513D02*
G01X10743Y-6515D01*
G01X10743Y-6515D02*
G01X10745Y-6520D01*
G01X10745Y-6520D02*
G01X10745Y-6532D01*
G01X10745Y-6532D02*
G01X10743Y-6537D01*
G01X10743Y-6537D02*
G01X10740Y-6539D01*
G01X07242Y-5872D02*
G01X07225Y-5846D01*
G01X07213Y-5872D02*
G01X07213Y-5817D01*
G01X07213Y-5817D02*
G01X07232Y-5817D01*
G01X07232Y-5817D02*
G01X07237Y-5820D01*
G01X07237Y-5820D02*
G01X07239Y-5822D01*
G01X07239Y-5822D02*
G01X07242Y-5828D01*
G01X07242Y-5828D02*
G01X07242Y-5835D01*
G01X07242Y-5835D02*
G01X07239Y-5841D01*
G01X07239Y-5841D02*
G01X07237Y-5843D01*
G01X07237Y-5843D02*
G01X07232Y-5846D01*
G01X07232Y-5846D02*
G01X07213Y-5846D01*
G01X07285Y-5817D02*
G01X07275Y-5817D01*
G01X07275Y-5817D02*
G01X07270Y-5820D01*
G01X07270Y-5820D02*
G01X07268Y-5822D01*
G01X07268Y-5822D02*
G01X07263Y-5830D01*
G01X07263Y-5830D02*
G01X07261Y-5841D01*
G01X07261Y-5841D02*
G01X07261Y-5862D01*
G01X07261Y-5862D02*
G01X07263Y-5867D01*
G01X07263Y-5867D02*
G01X07265Y-5870D01*
G01X07265Y-5870D02*
G01X07270Y-5872D01*
G01X07270Y-5872D02*
G01X07280Y-5872D01*
G01X07280Y-5872D02*
G01X07285Y-5870D01*
G01X07285Y-5870D02*
G01X07287Y-5867D01*
G01X07287Y-5867D02*
G01X07289Y-5862D01*
G01X07289Y-5862D02*
G01X07289Y-5849D01*
G01X07289Y-5849D02*
G01X07287Y-5843D01*
G01X07287Y-5843D02*
G01X07285Y-5841D01*
G01X07285Y-5841D02*
G01X07280Y-5838D01*
G01X07280Y-5838D02*
G01X07270Y-5838D01*
G01X07270Y-5838D02*
G01X07265Y-5841D01*
G01X07265Y-5841D02*
G01X07263Y-5843D01*
G01X07263Y-5843D02*
G01X07261Y-5849D01*
G01X07567Y-6620D02*
G01X07550Y-6596D01*
G01X07538Y-6620D02*
G01X07538Y-6570D01*
G01X07538Y-6570D02*
G01X07557Y-6570D01*
G01X07557Y-6570D02*
G01X07562Y-6573D01*
G01X07562Y-6573D02*
G01X07564Y-6575D01*
G01X07564Y-6575D02*
G01X07567Y-6580D01*
G01X07567Y-6580D02*
G01X07567Y-6587D01*
G01X07567Y-6587D02*
G01X07564Y-6592D01*
G01X07564Y-6592D02*
G01X07562Y-6594D01*
G01X07562Y-6594D02*
G01X07557Y-6596D01*
G01X07557Y-6596D02*
G01X07538Y-6596D01*
G01X07610Y-6587D02*
G01X07610Y-6620D01*
G01X07598Y-6568D02*
G01X07586Y-6603D01*
G01X07586Y-6603D02*
G01X07617Y-6603D01*
G01X09417Y-6095D02*
G01X09400Y-6071D01*
G01X09388Y-6095D02*
G01X09388Y-6045D01*
G01X09388Y-6045D02*
G01X09407Y-6045D01*
G01X09407Y-6045D02*
G01X09412Y-6048D01*
G01X09412Y-6048D02*
G01X09414Y-6050D01*
G01X09414Y-6050D02*
G01X09417Y-6055D01*
G01X09417Y-6055D02*
G01X09417Y-6062D01*
G01X09417Y-6062D02*
G01X09414Y-6067D01*
G01X09414Y-6067D02*
G01X09412Y-6069D01*
G01X09412Y-6069D02*
G01X09407Y-6071D01*
G01X09407Y-6071D02*
G01X09388Y-6071D01*
G01X09464Y-6095D02*
G01X09436Y-6095D01*
G01X09450Y-6095D02*
G01X09450Y-6045D01*
G01X09450Y-6045D02*
G01X09445Y-6052D01*
G01X09445Y-6052D02*
G01X09440Y-6057D01*
G01X09440Y-6057D02*
G01X09436Y-6059D01*
G01X08933Y-5870D02*
G01X08933Y-5906D01*
G01X08933Y-5906D02*
G01X08931Y-5913D01*
G01X08931Y-5913D02*
G01X08926Y-5918D01*
G01X08926Y-5918D02*
G01X08919Y-5920D01*
G01X08919Y-5920D02*
G01X08914Y-5920D01*
G01X08983Y-5920D02*
G01X08955Y-5920D01*
G01X08969Y-5920D02*
G01X08969Y-5870D01*
G01X08969Y-5870D02*
G01X08964Y-5877D01*
G01X08964Y-5877D02*
G01X08960Y-5882D01*
G01X08960Y-5882D02*
G01X08955Y-5884D01*
G01X07141Y-5970D02*
G01X07141Y-6011D01*
G01X07141Y-6011D02*
G01X07143Y-6015D01*
G01X07143Y-6015D02*
G01X07145Y-6018D01*
G01X07145Y-6018D02*
G01X07149Y-6020D01*
G01X07149Y-6020D02*
G01X07158Y-6020D01*
G01X07158Y-6020D02*
G01X07162Y-6018D01*
G01X07162Y-6018D02*
G01X07164Y-6015D01*
G01X07164Y-6015D02*
G01X07166Y-6011D01*
G01X07166Y-6011D02*
G01X07166Y-5970D01*
G01X07211Y-6020D02*
G01X07186Y-6020D01*
G01X07199Y-6020D02*
G01X07199Y-5970D01*
G01X07199Y-5970D02*
G01X07194Y-5977D01*
G01X07194Y-5977D02*
G01X07190Y-5982D01*
G01X07190Y-5982D02*
G01X07186Y-5984D01*
G01X07787Y-6170D02*
G01X07787Y-6211D01*
G01X07787Y-6211D02*
G01X07789Y-6215D01*
G01X07789Y-6215D02*
G01X07792Y-6218D01*
G01X07792Y-6218D02*
G01X07796Y-6220D01*
G01X07796Y-6220D02*
G01X07806Y-6220D01*
G01X07806Y-6220D02*
G01X07811Y-6218D01*
G01X07811Y-6218D02*
G01X07813Y-6215D01*
G01X07813Y-6215D02*
G01X07815Y-6211D01*
G01X07815Y-6211D02*
G01X07815Y-6170D01*
G01X07837Y-6175D02*
G01X07839Y-6173D01*
G01X07839Y-6173D02*
G01X07844Y-6170D01*
G01X07844Y-6170D02*
G01X07856Y-6170D01*
G01X07856Y-6170D02*
G01X07861Y-6173D01*
G01X07861Y-6173D02*
G01X07863Y-6175D01*
G01X07863Y-6175D02*
G01X07865Y-6180D01*
G01X07865Y-6180D02*
G01X07865Y-6184D01*
G01X07865Y-6184D02*
G01X07863Y-6192D01*
G01X07863Y-6192D02*
G01X07835Y-6220D01*
G01X07835Y-6220D02*
G01X07865Y-6220D01*
G01X09842Y-5990D02*
G01X09839Y-5993D01*
G01X09839Y-5993D02*
G01X09832Y-5995D01*
G01X09832Y-5995D02*
G01X09827Y-5995D01*
G01X09827Y-5995D02*
G01X09820Y-5993D01*
G01X09820Y-5993D02*
G01X09815Y-5988D01*
G01X09815Y-5988D02*
G01X09813Y-5983D01*
G01X09813Y-5983D02*
G01X09811Y-5974D01*
G01X09811Y-5974D02*
G01X09811Y-5967D01*
G01X09811Y-5967D02*
G01X09813Y-5957D01*
G01X09813Y-5957D02*
G01X09815Y-5952D01*
G01X09815Y-5952D02*
G01X09820Y-5948D01*
G01X09820Y-5948D02*
G01X09827Y-5945D01*
G01X09827Y-5945D02*
G01X09832Y-5945D01*
G01X09832Y-5945D02*
G01X09839Y-5948D01*
G01X09839Y-5948D02*
G01X09842Y-5950D01*
G01X09889Y-5995D02*
G01X09861Y-5995D01*
G01X09875Y-5995D02*
G01X09875Y-5945D01*
G01X09875Y-5945D02*
G01X09870Y-5952D01*
G01X09870Y-5952D02*
G01X09865Y-5957D01*
G01X09865Y-5957D02*
G01X09861Y-5959D01*
G01X07290Y-6608D02*
G01X07293Y-6611D01*
G01X07293Y-6611D02*
G01X07295Y-6618D01*
G01X07295Y-6618D02*
G01X07295Y-6623D01*
G01X07295Y-6623D02*
G01X07293Y-6630D01*
G01X07293Y-6630D02*
G01X07288Y-6634D01*
G01X07288Y-6634D02*
G01X07283Y-6637D01*
G01X07283Y-6637D02*
G01X07274Y-6639D01*
G01X07274Y-6639D02*
G01X07267Y-6639D01*
G01X07267Y-6639D02*
G01X07257Y-6637D01*
G01X07257Y-6637D02*
G01X07252Y-6634D01*
G01X07252Y-6634D02*
G01X07248Y-6630D01*
G01X07248Y-6630D02*
G01X07245Y-6623D01*
G01X07245Y-6623D02*
G01X07245Y-6618D01*
G01X07245Y-6618D02*
G01X07248Y-6611D01*
G01X07248Y-6611D02*
G01X07250Y-6608D01*
G01X07262Y-6565D02*
G01X07295Y-6565D01*
G01X07243Y-6577D02*
G01X07279Y-6589D01*
G01X07279Y-6589D02*
G01X07279Y-6558D01*
G01X06690Y-6583D02*
G01X06693Y-6586D01*
G01X06693Y-6586D02*
G01X06695Y-6593D01*
G01X06695Y-6593D02*
G01X06695Y-6598D01*
G01X06695Y-6598D02*
G01X06693Y-6605D01*
G01X06693Y-6605D02*
G01X06688Y-6609D01*
G01X06688Y-6609D02*
G01X06683Y-6612D01*
G01X06683Y-6612D02*
G01X06674Y-6614D01*
G01X06674Y-6614D02*
G01X06667Y-6614D01*
G01X06667Y-6614D02*
G01X06657Y-6612D01*
G01X06657Y-6612D02*
G01X06652Y-6609D01*
G01X06652Y-6609D02*
G01X06648Y-6605D01*
G01X06648Y-6605D02*
G01X06645Y-6598D01*
G01X06645Y-6598D02*
G01X06645Y-6593D01*
G01X06645Y-6593D02*
G01X06648Y-6586D01*
G01X06648Y-6586D02*
G01X06650Y-6583D01*
G01X06645Y-6538D02*
G01X06645Y-6562D01*
G01X06645Y-6562D02*
G01X06669Y-6564D01*
G01X06669Y-6564D02*
G01X06667Y-6562D01*
G01X06667Y-6562D02*
G01X06664Y-6557D01*
G01X06664Y-6557D02*
G01X06664Y-6545D01*
G01X06664Y-6545D02*
G01X06667Y-6540D01*
G01X06667Y-6540D02*
G01X06669Y-6538D01*
G01X06669Y-6538D02*
G01X06674Y-6536D01*
G01X06674Y-6536D02*
G01X06686Y-6536D01*
G01X06686Y-6536D02*
G01X06690Y-6538D01*
G01X06690Y-6538D02*
G01X06693Y-6540D01*
G01X06693Y-6540D02*
G01X06695Y-6545D01*
G01X06695Y-6545D02*
G01X06695Y-6557D01*
G01X06695Y-6557D02*
G01X06693Y-6562D01*
G01X06693Y-6562D02*
G01X06690Y-6564D01*
G01X08442Y-5815D02*
G01X08439Y-5818D01*
G01X08439Y-5818D02*
G01X08432Y-5820D01*
G01X08432Y-5820D02*
G01X08427Y-5820D01*
G01X08427Y-5820D02*
G01X08420Y-5818D01*
G01X08420Y-5818D02*
G01X08415Y-5813D01*
G01X08415Y-5813D02*
G01X08413Y-5808D01*
G01X08413Y-5808D02*
G01X08411Y-5799D01*
G01X08411Y-5799D02*
G01X08411Y-5792D01*
G01X08411Y-5792D02*
G01X08413Y-5782D01*
G01X08413Y-5782D02*
G01X08415Y-5777D01*
G01X08415Y-5777D02*
G01X08420Y-5773D01*
G01X08420Y-5773D02*
G01X08427Y-5770D01*
G01X08427Y-5770D02*
G01X08432Y-5770D01*
G01X08432Y-5770D02*
G01X08439Y-5773D01*
G01X08439Y-5773D02*
G01X08442Y-5775D01*
G01X08461Y-5775D02*
G01X08463Y-5773D01*
G01X08463Y-5773D02*
G01X08468Y-5770D01*
G01X08468Y-5770D02*
G01X08480Y-5770D01*
G01X08480Y-5770D02*
G01X08485Y-5773D01*
G01X08485Y-5773D02*
G01X08487Y-5775D01*
G01X08487Y-5775D02*
G01X08489Y-5780D01*
G01X08489Y-5780D02*
G01X08489Y-5784D01*
G01X08489Y-5784D02*
G01X08487Y-5792D01*
G01X08487Y-5792D02*
G01X08458Y-5820D01*
G01X08458Y-5820D02*
G01X08489Y-5820D01*
G01X06825Y-5848D02*
G01X06828Y-5851D01*
G01X06828Y-5851D02*
G01X06830Y-5858D01*
G01X06830Y-5858D02*
G01X06830Y-5863D01*
G01X06830Y-5863D02*
G01X06828Y-5870D01*
G01X06828Y-5870D02*
G01X06823Y-5874D01*
G01X06823Y-5874D02*
G01X06818Y-5877D01*
G01X06818Y-5877D02*
G01X06809Y-5879D01*
G01X06809Y-5879D02*
G01X06802Y-5879D01*
G01X06802Y-5879D02*
G01X06792Y-5877D01*
G01X06792Y-5877D02*
G01X06787Y-5874D01*
G01X06787Y-5874D02*
G01X06783Y-5870D01*
G01X06783Y-5870D02*
G01X06780Y-5863D01*
G01X06780Y-5863D02*
G01X06780Y-5858D01*
G01X06780Y-5858D02*
G01X06783Y-5851D01*
G01X06783Y-5851D02*
G01X06785Y-5848D01*
G01X06780Y-5832D02*
G01X06780Y-5801D01*
G01X06780Y-5801D02*
G01X06799Y-5817D01*
G01X06799Y-5817D02*
G01X06799Y-5810D01*
G01X06799Y-5810D02*
G01X06802Y-5805D01*
G01X06802Y-5805D02*
G01X06804Y-5803D01*
G01X06804Y-5803D02*
G01X06809Y-5801D01*
G01X06809Y-5801D02*
G01X06821Y-5801D01*
G01X06821Y-5801D02*
G01X06825Y-5803D01*
G01X06825Y-5803D02*
G01X06828Y-5805D01*
G01X06828Y-5805D02*
G01X06830Y-5810D01*
G01X06830Y-5810D02*
G01X06830Y-5824D01*
G01X06830Y-5824D02*
G01X06828Y-5829D01*
G01X06828Y-5829D02*
G01X06825Y-5832D01*
G01X10539Y-5944D02*
G01X10546Y-5946D01*
G01X10546Y-5946D02*
G01X10549Y-5949D01*
G01X10549Y-5949D02*
G01X10551Y-5953D01*
G01X10551Y-5953D02*
G01X10551Y-5961D01*
G01X10551Y-5961D02*
G01X10549Y-5965D01*
G01X10549Y-5965D02*
G01X10546Y-5968D01*
G01X10546Y-5968D02*
G01X10542Y-5970D01*
G01X10542Y-5970D02*
G01X10523Y-5970D01*
G01X10523Y-5970D02*
G01X10523Y-5920D01*
G01X10523Y-5920D02*
G01X10539Y-5920D01*
G01X10539Y-5920D02*
G01X10544Y-5923D01*
G01X10544Y-5923D02*
G01X10546Y-5925D01*
G01X10546Y-5925D02*
G01X10549Y-5930D01*
G01X10549Y-5930D02*
G01X10549Y-5934D01*
G01X10549Y-5934D02*
G01X10546Y-5939D01*
G01X10546Y-5939D02*
G01X10544Y-5942D01*
G01X10544Y-5942D02*
G01X10539Y-5944D01*
G01X10539Y-5944D02*
G01X10523Y-5944D01*
G01X10570Y-5956D02*
G01X10594Y-5956D01*
G01X10565Y-5970D02*
G01X10582Y-5920D01*
G01X10582Y-5920D02*
G01X10599Y-5970D01*
G01X10608Y-5920D02*
G01X10637Y-5920D01*
G01X10623Y-5970D02*
G01X10623Y-5920D01*
G01X10680Y-5970D02*
G01X10651Y-5970D01*
G01X10665Y-5970D02*
G01X10665Y-5920D01*
G01X10665Y-5920D02*
G01X10661Y-5927D01*
G01X10661Y-5927D02*
G01X10656Y-5932D01*
G01X10656Y-5932D02*
G01X10651Y-5934D01*
G01X06688Y-6920D02*
G01X06688Y-6870D01*
G01X06688Y-6870D02*
G01X06700Y-6870D01*
G01X06700Y-6870D02*
G01X06707Y-6873D01*
G01X06707Y-6873D02*
G01X06712Y-6877D01*
G01X06712Y-6877D02*
G01X06714Y-6882D01*
G01X06714Y-6882D02*
G01X06717Y-6892D01*
G01X06717Y-6892D02*
G01X06717Y-6899D01*
G01X06717Y-6899D02*
G01X06714Y-6908D01*
G01X06714Y-6908D02*
G01X06712Y-6913D01*
G01X06712Y-6913D02*
G01X06707Y-6918D01*
G01X06707Y-6918D02*
G01X06700Y-6920D01*
G01X06700Y-6920D02*
G01X06688Y-6920D01*
G01X06733Y-6870D02*
G01X06764Y-6870D01*
G01X06764Y-6870D02*
G01X06748Y-6889D01*
G01X06748Y-6889D02*
G01X06755Y-6889D01*
G01X06755Y-6889D02*
G01X06760Y-6892D01*
G01X06760Y-6892D02*
G01X06762Y-6894D01*
G01X06762Y-6894D02*
G01X06764Y-6899D01*
G01X06764Y-6899D02*
G01X06764Y-6911D01*
G01X06764Y-6911D02*
G01X06762Y-6915D01*
G01X06762Y-6915D02*
G01X06760Y-6918D01*
G01X06760Y-6918D02*
G01X06755Y-6920D01*
G01X06755Y-6920D02*
G01X06740Y-6920D01*
G01X06740Y-6920D02*
G01X06736Y-6918D01*
G01X06736Y-6918D02*
G01X06733Y-6915D01*
G01X07213Y-6920D02*
G01X07213Y-6870D01*
G01X07213Y-6870D02*
G01X07225Y-6870D01*
G01X07225Y-6870D02*
G01X07232Y-6873D01*
G01X07232Y-6873D02*
G01X07237Y-6877D01*
G01X07237Y-6877D02*
G01X07239Y-6882D01*
G01X07239Y-6882D02*
G01X07242Y-6892D01*
G01X07242Y-6892D02*
G01X07242Y-6899D01*
G01X07242Y-6899D02*
G01X07239Y-6908D01*
G01X07239Y-6908D02*
G01X07237Y-6913D01*
G01X07237Y-6913D02*
G01X07232Y-6918D01*
G01X07232Y-6918D02*
G01X07225Y-6920D01*
G01X07225Y-6920D02*
G01X07213Y-6920D01*
G01X07285Y-6887D02*
G01X07285Y-6920D01*
G01X07273Y-6868D02*
G01X07261Y-6903D01*
G01X07261Y-6903D02*
G01X07292Y-6903D01*
G01X07738Y-6920D02*
G01X07738Y-6870D01*
G01X07738Y-6870D02*
G01X07750Y-6870D01*
G01X07750Y-6870D02*
G01X07757Y-6873D01*
G01X07757Y-6873D02*
G01X07762Y-6877D01*
G01X07762Y-6877D02*
G01X07764Y-6882D01*
G01X07764Y-6882D02*
G01X07767Y-6892D01*
G01X07767Y-6892D02*
G01X07767Y-6899D01*
G01X07767Y-6899D02*
G01X07764Y-6908D01*
G01X07764Y-6908D02*
G01X07762Y-6913D01*
G01X07762Y-6913D02*
G01X07757Y-6918D01*
G01X07757Y-6918D02*
G01X07750Y-6920D01*
G01X07750Y-6920D02*
G01X07738Y-6920D01*
G01X07812Y-6870D02*
G01X07788Y-6870D01*
G01X07788Y-6870D02*
G01X07786Y-6894D01*
G01X07786Y-6894D02*
G01X07788Y-6892D01*
G01X07788Y-6892D02*
G01X07793Y-6889D01*
G01X07793Y-6889D02*
G01X07805Y-6889D01*
G01X07805Y-6889D02*
G01X07810Y-6892D01*
G01X07810Y-6892D02*
G01X07812Y-6894D01*
G01X07812Y-6894D02*
G01X07814Y-6899D01*
G01X07814Y-6899D02*
G01X07814Y-6911D01*
G01X07814Y-6911D02*
G01X07812Y-6915D01*
G01X07812Y-6915D02*
G01X07810Y-6918D01*
G01X07810Y-6918D02*
G01X07805Y-6920D01*
G01X07805Y-6920D02*
G01X07793Y-6920D01*
G01X07793Y-6920D02*
G01X07788Y-6918D01*
G01X07788Y-6918D02*
G01X07786Y-6915D01*
G01X08788Y-6920D02*
G01X08788Y-6870D01*
G01X08788Y-6870D02*
G01X08800Y-6870D01*
G01X08800Y-6870D02*
G01X08807Y-6873D01*
G01X08807Y-6873D02*
G01X08812Y-6877D01*
G01X08812Y-6877D02*
G01X08814Y-6882D01*
G01X08814Y-6882D02*
G01X08817Y-6892D01*
G01X08817Y-6892D02*
G01X08817Y-6899D01*
G01X08817Y-6899D02*
G01X08814Y-6908D01*
G01X08814Y-6908D02*
G01X08812Y-6913D01*
G01X08812Y-6913D02*
G01X08807Y-6918D01*
G01X08807Y-6918D02*
G01X08800Y-6920D01*
G01X08800Y-6920D02*
G01X08788Y-6920D01*
G01X08833Y-6870D02*
G01X08867Y-6870D01*
G01X08867Y-6870D02*
G01X08845Y-6920D01*
G01X09838Y-6920D02*
G01X09838Y-6870D01*
G01X09838Y-6870D02*
G01X09850Y-6870D01*
G01X09850Y-6870D02*
G01X09857Y-6873D01*
G01X09857Y-6873D02*
G01X09862Y-6877D01*
G01X09862Y-6877D02*
G01X09864Y-6882D01*
G01X09864Y-6882D02*
G01X09867Y-6892D01*
G01X09867Y-6892D02*
G01X09867Y-6899D01*
G01X09867Y-6899D02*
G01X09864Y-6908D01*
G01X09864Y-6908D02*
G01X09862Y-6913D01*
G01X09862Y-6913D02*
G01X09857Y-6918D01*
G01X09857Y-6918D02*
G01X09850Y-6920D01*
G01X09850Y-6920D02*
G01X09838Y-6920D01*
G01X09890Y-6920D02*
G01X09900Y-6920D01*
G01X09900Y-6920D02*
G01X09905Y-6918D01*
G01X09905Y-6918D02*
G01X09907Y-6915D01*
G01X09907Y-6915D02*
G01X09912Y-6908D01*
G01X09912Y-6908D02*
G01X09914Y-6899D01*
G01X09914Y-6899D02*
G01X09914Y-6880D01*
G01X09914Y-6880D02*
G01X09912Y-6875D01*
G01X09912Y-6875D02*
G01X09910Y-6873D01*
G01X09910Y-6873D02*
G01X09905Y-6870D01*
G01X09905Y-6870D02*
G01X09895Y-6870D01*
G01X09895Y-6870D02*
G01X09890Y-6873D01*
G01X09890Y-6873D02*
G01X09888Y-6875D01*
G01X09888Y-6875D02*
G01X09886Y-6880D01*
G01X09886Y-6880D02*
G01X09886Y-6892D01*
G01X09886Y-6892D02*
G01X09888Y-6896D01*
G01X09888Y-6896D02*
G01X09890Y-6899D01*
G01X09890Y-6899D02*
G01X09895Y-6901D01*
G01X09895Y-6901D02*
G01X09905Y-6901D01*
G01X09905Y-6901D02*
G01X09910Y-6899D01*
G01X09910Y-6899D02*
G01X09912Y-6896D01*
G01X09912Y-6896D02*
G01X09914Y-6892D01*
G01X10339Y-6920D02*
G01X10339Y-6870D01*
G01X10339Y-6870D02*
G01X10351Y-6870D01*
G01X10351Y-6870D02*
G01X10358Y-6873D01*
G01X10358Y-6873D02*
G01X10363Y-6877D01*
G01X10363Y-6877D02*
G01X10365Y-6882D01*
G01X10365Y-6882D02*
G01X10368Y-6892D01*
G01X10368Y-6892D02*
G01X10368Y-6899D01*
G01X10368Y-6899D02*
G01X10365Y-6908D01*
G01X10365Y-6908D02*
G01X10363Y-6913D01*
G01X10363Y-6913D02*
G01X10358Y-6918D01*
G01X10358Y-6918D02*
G01X10351Y-6920D01*
G01X10351Y-6920D02*
G01X10339Y-6920D01*
G01X10415Y-6920D02*
G01X10387Y-6920D01*
G01X10401Y-6920D02*
G01X10401Y-6870D01*
G01X10401Y-6870D02*
G01X10396Y-6877D01*
G01X10396Y-6877D02*
G01X10392Y-6882D01*
G01X10392Y-6882D02*
G01X10387Y-6884D01*
G01X10446Y-6870D02*
G01X10451Y-6870D01*
G01X10451Y-6870D02*
G01X10456Y-6873D01*
G01X10456Y-6873D02*
G01X10458Y-6875D01*
G01X10458Y-6875D02*
G01X10461Y-6880D01*
G01X10461Y-6880D02*
G01X10463Y-6889D01*
G01X10463Y-6889D02*
G01X10463Y-6901D01*
G01X10463Y-6901D02*
G01X10461Y-6911D01*
G01X10461Y-6911D02*
G01X10458Y-6915D01*
G01X10458Y-6915D02*
G01X10456Y-6918D01*
G01X10456Y-6918D02*
G01X10451Y-6920D01*
G01X10451Y-6920D02*
G01X10446Y-6920D01*
G01X10446Y-6920D02*
G01X10442Y-6918D01*
G01X10442Y-6918D02*
G01X10439Y-6915D01*
G01X10439Y-6915D02*
G01X10437Y-6911D01*
G01X10437Y-6911D02*
G01X10435Y-6901D01*
G01X10435Y-6901D02*
G01X10435Y-6889D01*
G01X10435Y-6889D02*
G01X10437Y-6880D01*
G01X10437Y-6880D02*
G01X10439Y-6875D01*
G01X10439Y-6875D02*
G01X10442Y-6873D01*
G01X10442Y-6873D02*
G01X10446Y-6870D01*
G01X09313Y-6920D02*
G01X09313Y-6870D01*
G01X09313Y-6870D02*
G01X09325Y-6870D01*
G01X09325Y-6870D02*
G01X09332Y-6873D01*
G01X09332Y-6873D02*
G01X09337Y-6877D01*
G01X09337Y-6877D02*
G01X09339Y-6882D01*
G01X09339Y-6882D02*
G01X09342Y-6892D01*
G01X09342Y-6892D02*
G01X09342Y-6899D01*
G01X09342Y-6899D02*
G01X09339Y-6908D01*
G01X09339Y-6908D02*
G01X09337Y-6913D01*
G01X09337Y-6913D02*
G01X09332Y-6918D01*
G01X09332Y-6918D02*
G01X09325Y-6920D01*
G01X09325Y-6920D02*
G01X09313Y-6920D01*
G01X09370Y-6892D02*
G01X09365Y-6889D01*
G01X09365Y-6889D02*
G01X09363Y-6887D01*
G01X09363Y-6887D02*
G01X09361Y-6882D01*
G01X09361Y-6882D02*
G01X09361Y-6880D01*
G01X09361Y-6880D02*
G01X09363Y-6875D01*
G01X09363Y-6875D02*
G01X09365Y-6873D01*
G01X09365Y-6873D02*
G01X09370Y-6870D01*
G01X09370Y-6870D02*
G01X09380Y-6870D01*
G01X09380Y-6870D02*
G01X09385Y-6873D01*
G01X09385Y-6873D02*
G01X09387Y-6875D01*
G01X09387Y-6875D02*
G01X09389Y-6880D01*
G01X09389Y-6880D02*
G01X09389Y-6882D01*
G01X09389Y-6882D02*
G01X09387Y-6887D01*
G01X09387Y-6887D02*
G01X09385Y-6889D01*
G01X09385Y-6889D02*
G01X09380Y-6892D01*
G01X09380Y-6892D02*
G01X09370Y-6892D01*
G01X09370Y-6892D02*
G01X09365Y-6894D01*
G01X09365Y-6894D02*
G01X09363Y-6896D01*
G01X09363Y-6896D02*
G01X09361Y-6901D01*
G01X09361Y-6901D02*
G01X09361Y-6911D01*
G01X09361Y-6911D02*
G01X09363Y-6915D01*
G01X09363Y-6915D02*
G01X09365Y-6918D01*
G01X09365Y-6918D02*
G01X09370Y-6920D01*
G01X09370Y-6920D02*
G01X09380Y-6920D01*
G01X09380Y-6920D02*
G01X09385Y-6918D01*
G01X09385Y-6918D02*
G01X09387Y-6915D01*
G01X09387Y-6915D02*
G01X09389Y-6911D01*
G01X09389Y-6911D02*
G01X09389Y-6901D01*
G01X09389Y-6901D02*
G01X09387Y-6896D01*
G01X09387Y-6896D02*
G01X09385Y-6894D01*
G01X09385Y-6894D02*
G01X09380Y-6892D01*
G01X08263Y-6920D02*
G01X08263Y-6870D01*
G01X08263Y-6870D02*
G01X08275Y-6870D01*
G01X08275Y-6870D02*
G01X08282Y-6873D01*
G01X08282Y-6873D02*
G01X08287Y-6877D01*
G01X08287Y-6877D02*
G01X08289Y-6882D01*
G01X08289Y-6882D02*
G01X08292Y-6892D01*
G01X08292Y-6892D02*
G01X08292Y-6899D01*
G01X08292Y-6899D02*
G01X08289Y-6908D01*
G01X08289Y-6908D02*
G01X08287Y-6913D01*
G01X08287Y-6913D02*
G01X08282Y-6918D01*
G01X08282Y-6918D02*
G01X08275Y-6920D01*
G01X08275Y-6920D02*
G01X08263Y-6920D01*
G01X08335Y-6870D02*
G01X08325Y-6870D01*
G01X08325Y-6870D02*
G01X08320Y-6873D01*
G01X08320Y-6873D02*
G01X08318Y-6875D01*
G01X08318Y-6875D02*
G01X08313Y-6882D01*
G01X08313Y-6882D02*
G01X08311Y-6892D01*
G01X08311Y-6892D02*
G01X08311Y-6911D01*
G01X08311Y-6911D02*
G01X08313Y-6915D01*
G01X08313Y-6915D02*
G01X08315Y-6918D01*
G01X08315Y-6918D02*
G01X08320Y-6920D01*
G01X08320Y-6920D02*
G01X08330Y-6920D01*
G01X08330Y-6920D02*
G01X08335Y-6918D01*
G01X08335Y-6918D02*
G01X08337Y-6915D01*
G01X08337Y-6915D02*
G01X08339Y-6911D01*
G01X08339Y-6911D02*
G01X08339Y-6899D01*
G01X08339Y-6899D02*
G01X08337Y-6894D01*
G01X08337Y-6894D02*
G01X08335Y-6892D01*
G01X08335Y-6892D02*
G01X08330Y-6889D01*
G01X08330Y-6889D02*
G01X08320Y-6889D01*
G01X08320Y-6889D02*
G01X08315Y-6892D01*
G01X08315Y-6892D02*
G01X08313Y-6894D01*
G01X08313Y-6894D02*
G01X08311Y-6899D01*
G01X06518Y-5837D02*
G01X06516Y-5839D01*
G01X06516Y-5839D02*
G01X06511Y-5841D01*
G01X06511Y-5841D02*
G01X06507Y-5841D01*
G01X06507Y-5841D02*
G01X06501Y-5839D01*
G01X06501Y-5839D02*
G01X06497Y-5835D01*
G01X06497Y-5835D02*
G01X06495Y-5832D01*
G01X06495Y-5832D02*
G01X06494Y-5824D01*
G01X06494Y-5824D02*
G01X06494Y-5818D01*
G01X06494Y-5818D02*
G01X06495Y-5811D01*
G01X06495Y-5811D02*
G01X06497Y-5807D01*
G01X06497Y-5807D02*
G01X06501Y-5803D01*
G01X06501Y-5803D02*
G01X06507Y-5801D01*
G01X06507Y-5801D02*
G01X06511Y-5801D01*
G01X06511Y-5801D02*
G01X06516Y-5803D01*
G01X06516Y-5803D02*
G01X06518Y-5805D01*
G01X06553Y-5801D02*
G01X06545Y-5801D01*
G01X06545Y-5801D02*
G01X06541Y-5803D01*
G01X06541Y-5803D02*
G01X06539Y-5805D01*
G01X06539Y-5805D02*
G01X06535Y-5811D01*
G01X06535Y-5811D02*
G01X06534Y-5818D01*
G01X06534Y-5818D02*
G01X06534Y-5833D01*
G01X06534Y-5833D02*
G01X06535Y-5837D01*
G01X06535Y-5837D02*
G01X06537Y-5839D01*
G01X06537Y-5839D02*
G01X06541Y-5841D01*
G01X06541Y-5841D02*
G01X06549Y-5841D01*
G01X06549Y-5841D02*
G01X06553Y-5839D01*
G01X06553Y-5839D02*
G01X06555Y-5837D01*
G01X06555Y-5837D02*
G01X06556Y-5833D01*
G01X06556Y-5833D02*
G01X06556Y-5824D01*
G01X06556Y-5824D02*
G01X06555Y-5820D01*
G01X06555Y-5820D02*
G01X06553Y-5818D01*
G01X06553Y-5818D02*
G01X06549Y-5816D01*
G01X06549Y-5816D02*
G01X06541Y-5816D01*
G01X06541Y-5816D02*
G01X06537Y-5818D01*
G01X06537Y-5818D02*
G01X06535Y-5820D01*
G01X06535Y-5820D02*
G01X06534Y-5824D01*
%LPC*%
G54D21*
G01X06050Y-6350D03*
G01X06247Y-6153D03*
G01X06247Y-6547D03*
G54D22*
G01X06247Y-6350D03*
G54D23*
G01X06050Y-6547D03*
G01X06050Y-6153D03*
G01X05952Y-6153D03*
G01X05952Y-6547D03*
G54D24*
G01X10725Y-6200D03*
G01X10725Y-6100D03*
G01X09625Y-5950D03*
G01X09625Y-5850D03*
G54D25*
G01X06075Y-7150D03*
G01X06075Y-7050D03*
G01X06075Y-6950D03*
G54D26*
G01X09821Y-6498D03*
G01X09329Y-6498D03*
G01X09821Y-6302D03*
G01X09329Y-6302D03*
G01X10521Y-6498D03*
G01X10029Y-6498D03*
G01X10521Y-6302D03*
G01X10029Y-6302D03*
G01X09323Y-7029D03*
G01X09323Y-7521D03*
G01X09127Y-7029D03*
G01X09127Y-7521D03*
G01X09848Y-7029D03*
G01X09848Y-7521D03*
G01X09652Y-7029D03*
G01X09652Y-7521D03*
G01X10373Y-7029D03*
G01X10373Y-7521D03*
G01X10177Y-7029D03*
G01X10177Y-7521D03*
G01X06698Y-7029D03*
G01X06698Y-7521D03*
G01X06502Y-7029D03*
G01X06502Y-7521D03*
G01X07223Y-7029D03*
G01X07223Y-7521D03*
G01X07027Y-7029D03*
G01X07027Y-7521D03*
G01X07748Y-7029D03*
G01X07748Y-7521D03*
G01X07552Y-7029D03*
G01X07552Y-7521D03*
G01X08273Y-7029D03*
G01X08273Y-7521D03*
G01X08077Y-7029D03*
G01X08077Y-7521D03*
G01X08798Y-7029D03*
G01X08798Y-7521D03*
G01X08602Y-7029D03*
G01X08602Y-7521D03*
G54D25*
G01X06675Y-6450D03*
G01X06675Y-6050D03*
G01X06275Y-7250D03*
G01X06275Y-6850D03*
G01X06875Y-6050D03*
G01X06875Y-6450D03*
G01X09075Y-6600D03*
G01X08675Y-6600D03*
G01X08425Y-6600D03*
G01X08025Y-6600D03*
G01X10725Y-6350D03*
G01X10725Y-6750D03*
G01X07450Y-5850D03*
G01X07050Y-5850D03*
G01X07375Y-6600D03*
G01X07775Y-6600D03*
G01X09625Y-6075D03*
G01X09225Y-6075D03*
G54D27*
G01X08625Y-5875D03*
G54D25*
G01X08625Y-5775D03*
G01X08725Y-5875D03*
G01X08725Y-5775D03*
G01X08825Y-5875D03*
G01X08825Y-5775D03*
G54D28*
G01X07325Y-6400D03*
G54D29*
G01X07325Y-6300D03*
G01X07325Y-6200D03*
G01X07325Y-6100D03*
G01X07025Y-6100D03*
G01X07025Y-6200D03*
G01X07025Y-6300D03*
G01X07025Y-6400D03*
G01X07725Y-6350D03*
G01X07825Y-6350D03*
G01X07925Y-6350D03*
G01X08025Y-6350D03*
G01X08125Y-6350D03*
G01X08225Y-6350D03*
G01X08325Y-6350D03*
G01X08425Y-6350D03*
G01X08525Y-6350D03*
G01X08625Y-6350D03*
G01X08725Y-6350D03*
G01X08825Y-6350D03*
G01X08925Y-6350D03*
G54D28*
G01X07625Y-6350D03*
G54D29*
G01X08925Y-6050D03*
G01X08825Y-6050D03*
G01X08725Y-6050D03*
G01X08625Y-6050D03*
G01X08525Y-6050D03*
G01X08425Y-6050D03*
G01X08325Y-6050D03*
G01X08225Y-6050D03*
G01X08125Y-6050D03*
G01X08025Y-6050D03*
G01X07925Y-6050D03*
G01X07825Y-6050D03*
G01X07725Y-6050D03*
G01X07625Y-6050D03*
G54D30*
G01X09950Y-5925D03*
G54D31*
G01X09950Y-6025D03*
G54D29*
G01X07075Y-6600D03*
G01X07175Y-6600D03*
G01X06775Y-6600D03*
G01X06875Y-6600D03*
G01X08325Y-5825D03*
G01X08225Y-5825D03*
G01X06900Y-5900D03*
G01X06900Y-5800D03*
G54D25*
G01X10425Y-6050D03*
G01X10225Y-6050D03*
G54D32*
G01X10425Y-5875D03*
G01X10225Y-5875D03*
G01X10425Y-5725D03*
G01X10225Y-5725D03*
G54D24*
G01X06600Y-6850D03*
G01X06600Y-6750D03*
G01X07125Y-6850D03*
G01X07125Y-6750D03*
G01X07650Y-6850D03*
G01X07650Y-6750D03*
G01X08700Y-6850D03*
G01X08700Y-6750D03*
G01X09750Y-6850D03*
G01X09750Y-6750D03*
G01X10275Y-6850D03*
G01X10275Y-6750D03*
G01X09225Y-6850D03*
G01X09225Y-6750D03*
G01X08175Y-6850D03*
G01X08175Y-6750D03*
G54D29*
G01X06575Y-5925D03*
G01X06475Y-5925D03*
G54D33*
G01X10700Y-5800D03*
G01X10700Y-7500D03*
G01X06050Y-7500D03*
G01X06050Y-5800D03*
M02*
