M48
;DRILL file {Pcbnew (2011-nov-30)-testing} date Tue 03 Jul 2012 02:42:14 PM EDT
;FORMAT={2:4/ absolute / inch / suppress trailing zeros}
FMAT,2
INCH,LZ
T1C0.025
T2C0.030
T3C0.032
T4C0.040
T5C0.047
T6C0.064
T7C0.091
T8C0.130
%
G90
G05
M72
T1
X0065Y003
X00725Y01775
X0075Y004
X00875Y017
X0095Y017
X0095Y01025
X01Y003
X012Y012
X012Y009
X012Y0075
X01225Y0175
X0135Y01725
X01475Y0065
X0155Y008
X0155Y00725
X01625Y00475
X017Y0075
X017Y0025
X018Y0165
X0185Y0175
X0195Y01725
X02125Y00725
X02125Y00325
X02225Y009
X02225Y008
X02225Y00475
X023Y004
X02375Y01375
X024Y01425
X02425Y01725
X02425Y01225
X02475Y01475
X025Y0155
X025Y01025
X02525Y019
X02525Y018
X0255Y01275
X026Y018
X026Y01725
X02625Y0025
X026647Y017129
X027Y01325
X0272Y0186
X0275Y00325
X02975Y01425
X0305Y0165
X03075Y01775
X03075Y01375
X03125Y009
X03125Y008
X032Y0165
X032Y00325
X03275Y01025
X0335Y0145
X034Y01925
X035Y0165
X03575Y01475
X0365Y01275
X0375Y01925
X0375Y018
X038Y01325
X0385Y0175
X041Y01225
X04225Y009
X04225Y008
X04325Y01375
X04475Y01475
X04625Y01925
T2
X021Y0135
X023Y0135
T3
X001Y0155
X001Y014
X001Y00575
X001Y00475
X001Y00375
X0015Y0125
X0015Y0095
X002Y014
X002Y008
X002Y007
X0025Y0125
X0025Y0095
X00325Y008
X00325Y007
X0035Y014
X0035Y0125
X0035Y0095
X004Y017
X004Y0055
X004Y0015
X0045Y014
X0045Y0125
X0045Y0095
X0045Y008
X0045Y007
X005Y017
X005Y0155
X006Y0095
X006Y0085
X0065Y019
X0065Y015
X008Y019
X008Y015
X008Y013
X008Y012
X0085Y009
X0085Y008
X0105Y0185
X0105Y0155
X01075Y014
X01075Y01
X0115Y0185
X0115Y0155
X012Y014
X012Y01
X0125Y0185
X0125Y0155
X01325Y013
X01325Y012
X0135Y0185
X0135Y0155
X01375Y009
X01375Y008
X0145Y0185
X0145Y0155
X015Y013
X015Y012
X015Y011
X015Y01
X0155Y0185
X0155Y0155
X0165Y0185
X0165Y0155
X01675Y01425
X0175Y0185
X0175Y0155
X01775Y01425
X018Y013
X018Y012
X018Y011
X018Y01
X0185Y0185
X0185Y0155
X019Y009
X019Y008
X0195Y0185
X0195Y0155
X0195Y0115
X0195Y0105
X0205Y0185
X0205Y0155
X021Y0115
X021Y0105
X0215Y0185
X0215Y0155
X0225Y0185
X0225Y0155
X023Y0115
X023Y0105
X0235Y0185
X0235Y0155
X02425Y009
X02425Y008
X026Y0155
X026Y0115
X0275Y0155
X0275Y0115
X0295Y009
X0295Y008
X0305Y0155
X0305Y0115
X032Y0155
X032Y0115
X033Y017937
X033Y01715
X0335Y0155
X0335Y0115
X034Y017937
X034Y01715
X03475Y009
X03475Y008
X0365Y0155
X0365Y0115
X0385Y0185
X0385Y0175
X04Y0185
X04Y0175
X04Y009
X04Y008
X0425Y0185
X0425Y0175
X04525Y009
X04525Y008
T4
X02825Y019
X02825Y018
X02825Y017
X029Y0155
X029Y0115
X02925Y019
X02925Y018
X02925Y017
X035Y0155
X035Y0115
T5
X006516Y00646
X006516Y00154
X008484Y00646
X008484Y00154
X011766Y00646
X011766Y00154
X013734Y00646
X013734Y00154
X017016Y00646
X017016Y00154
X018984Y00646
X018984Y00154
X022266Y00646
X022266Y00154
X024234Y00646
X024234Y00154
X027516Y00646
X027516Y00154
X029484Y00646
X029484Y00154
X032766Y00646
X032766Y00154
X034734Y00646
X034734Y00154
X038016Y00646
X038016Y00154
X039016Y01596
X039016Y01104
X039984Y00646
X039984Y00154
X040984Y01596
X040984Y01104
X043266Y00646
X043266Y00154
X044266Y01596
X044266Y01104
X045234Y00646
X045234Y00154
X046234Y01596
X046234Y01104
T6
X004Y019
X004Y018
X005Y019
X005Y018
X0435Y0185
X0435Y0175
X0445Y0185
X0445Y0175
T7
X031138Y019
X035862Y019
T8
X00175Y01825
X00175Y00175
X04825Y01825
X04825Y002
T0
M30
