G04 (created by PCBNEW (2012-oct-18)-testing) date Thu 11 Jul 2013 02:17:37 PM EDT*
%MOIN*%
G04 Gerber Fmt 3.4, Leading zero omitted, Abs format*
%FSLAX34Y34*%
G01*
G70*
G90*
G04 APERTURE LIST*
%ADD10C,0.002*%
%ADD11C,0.00590551*%
%ADD12C,0.106299*%
%ADD13C,0.0629921*%
%ADD14C,0.0551181*%
%ADD15C,0.066*%
%ADD16C,0.06*%
%ADD17C,0.085*%
%ADD18R,0.06X0.06*%
%ADD19R,0.055X0.055*%
%ADD20C,0.055*%
%ADD21R,0.065X0.065*%
%ADD22C,0.065*%
%ADD23C,0.074*%
%ADD24C,0.16*%
%ADD25C,0.035*%
%ADD26C,0.01*%
G04 APERTURE END LIST*
G54D10*
G54D11*
X58750Y-75000D02*
X58750Y-58000D01*
X107250Y-76500D02*
X60250Y-76500D01*
X108750Y-58000D02*
X108750Y-75000D01*
X60250Y-56500D02*
X107250Y-56500D01*
X107250Y-76500D02*
G75*
G03X108750Y-75000I0J1500D01*
G74*
G01*
X108750Y-58000D02*
G75*
G03X107250Y-56500I-1500J0D01*
G74*
G01*
X58750Y-75000D02*
G75*
G03X60250Y-76500I1500J0D01*
G74*
G01*
X60250Y-56500D02*
G75*
G03X58750Y-58000I0J-1500D01*
G74*
G01*
G54D12*
X60500Y-63500D03*
X62468Y-61531D03*
X62468Y-65468D03*
G54D13*
X62468Y-63500D03*
G54D14*
X60500Y-65468D03*
X60500Y-61531D03*
X59515Y-61531D03*
X59515Y-65468D03*
G54D15*
X107250Y-62000D03*
X107250Y-61000D03*
X96250Y-59500D03*
X96250Y-58500D03*
G54D16*
X60750Y-71500D03*
X60750Y-70500D03*
X60750Y-69500D03*
G54D17*
X98210Y-64984D03*
X93290Y-64984D03*
X98210Y-63016D03*
X93290Y-63016D03*
X105210Y-64984D03*
X100290Y-64984D03*
X105210Y-63016D03*
X100290Y-63016D03*
X93234Y-70290D03*
X93234Y-75210D03*
X91266Y-70290D03*
X91266Y-75210D03*
X98484Y-70290D03*
X98484Y-75210D03*
X96516Y-70290D03*
X96516Y-75210D03*
X103734Y-70290D03*
X103734Y-75210D03*
X101766Y-70290D03*
X101766Y-75210D03*
X66984Y-70290D03*
X66984Y-75210D03*
X65016Y-70290D03*
X65016Y-75210D03*
X72234Y-70290D03*
X72234Y-75210D03*
X70266Y-70290D03*
X70266Y-75210D03*
X77484Y-70290D03*
X77484Y-75210D03*
X75516Y-70290D03*
X75516Y-75210D03*
X82734Y-70290D03*
X82734Y-75210D03*
X80766Y-70290D03*
X80766Y-75210D03*
X87984Y-70290D03*
X87984Y-75210D03*
X86016Y-70290D03*
X86016Y-75210D03*
G54D16*
X66750Y-64500D03*
X66750Y-60500D03*
X62750Y-72500D03*
X62750Y-68500D03*
X68750Y-60500D03*
X68750Y-64500D03*
X90750Y-66000D03*
X86750Y-66000D03*
X84250Y-66000D03*
X80250Y-66000D03*
X107250Y-63500D03*
X107250Y-67500D03*
X74500Y-58500D03*
X70500Y-58500D03*
X73750Y-66000D03*
X77750Y-66000D03*
X96250Y-60750D03*
X92250Y-60750D03*
G54D18*
X86250Y-58750D03*
G54D16*
X86250Y-57750D03*
X87250Y-58750D03*
X87250Y-57750D03*
X88250Y-58750D03*
X88250Y-57750D03*
G54D19*
X73250Y-64000D03*
G54D20*
X73250Y-63000D03*
X73250Y-62000D03*
X73250Y-61000D03*
X70250Y-61000D03*
X70250Y-62000D03*
X70250Y-63000D03*
X70250Y-64000D03*
X77250Y-63500D03*
X78250Y-63500D03*
X79250Y-63500D03*
X80250Y-63500D03*
X81250Y-63500D03*
X82250Y-63500D03*
X83250Y-63500D03*
X84250Y-63500D03*
X85250Y-63500D03*
X86250Y-63500D03*
X87250Y-63500D03*
X88250Y-63500D03*
X89250Y-63500D03*
G54D19*
X76250Y-63500D03*
G54D20*
X89250Y-60500D03*
X88250Y-60500D03*
X87250Y-60500D03*
X86250Y-60500D03*
X85250Y-60500D03*
X84250Y-60500D03*
X83250Y-60500D03*
X82250Y-60500D03*
X81250Y-60500D03*
X80250Y-60500D03*
X79250Y-60500D03*
X78250Y-60500D03*
X77250Y-60500D03*
X76250Y-60500D03*
G54D21*
X99500Y-59250D03*
G54D22*
X99500Y-60250D03*
G54D20*
X70750Y-66000D03*
X71750Y-66000D03*
X67750Y-66000D03*
X68750Y-66000D03*
X83250Y-58250D03*
X82250Y-58250D03*
X69000Y-59000D03*
X69000Y-58000D03*
G54D16*
X104250Y-60500D03*
X102250Y-60500D03*
G54D23*
X104250Y-58750D03*
X102250Y-58750D03*
X104250Y-57250D03*
X102250Y-57250D03*
G54D15*
X66000Y-68500D03*
X66000Y-67500D03*
X71250Y-68500D03*
X71250Y-67500D03*
X76500Y-68500D03*
X76500Y-67500D03*
X87000Y-68500D03*
X87000Y-67500D03*
X97500Y-68500D03*
X97500Y-67500D03*
X102750Y-68500D03*
X102750Y-67500D03*
X92250Y-68500D03*
X92250Y-67500D03*
X81750Y-68500D03*
X81750Y-67500D03*
G54D20*
X65750Y-59250D03*
X64750Y-59250D03*
G54D24*
X107000Y-58000D03*
X107000Y-75000D03*
X60500Y-75000D03*
X60500Y-58000D03*
G54D25*
X76500Y-71000D03*
X78250Y-71500D03*
X72250Y-72500D03*
X79250Y-75250D03*
X80250Y-65000D03*
X82750Y-65000D03*
X81250Y-66500D03*
X79750Y-67250D03*
X79750Y-74250D03*
X93250Y-73750D03*
X84750Y-73750D03*
X98500Y-72750D03*
X89250Y-72750D03*
X103750Y-71750D03*
X89750Y-62500D03*
X91500Y-62500D03*
X92250Y-71750D03*
X99500Y-65000D03*
X99500Y-62000D03*
X77250Y-62000D03*
X88750Y-65000D03*
X88750Y-62500D03*
X76250Y-62500D03*
X75500Y-61250D03*
X75250Y-68500D03*
X68750Y-68500D03*
X68750Y-67500D03*
X78750Y-68500D03*
X78750Y-67500D03*
X90250Y-68500D03*
X90250Y-67500D03*
X85750Y-66750D03*
X85750Y-65250D03*
X86750Y-65250D03*
X86750Y-61500D03*
X80250Y-61500D03*
X100250Y-71250D03*
X83750Y-71250D03*
X81250Y-61250D03*
X83750Y-61250D03*
X100250Y-68500D03*
X100250Y-67500D03*
X87750Y-64500D03*
X76250Y-66000D03*
X64250Y-67500D03*
X101000Y-61500D03*
X87250Y-61500D03*
X88250Y-66000D03*
G54D26*
X66984Y-71234D02*
X66984Y-70290D01*
X67250Y-71500D02*
X66984Y-71234D01*
X76000Y-71500D02*
X67250Y-71500D01*
X76500Y-71000D02*
X76000Y-71500D01*
X77250Y-72500D02*
X72250Y-72500D01*
X78250Y-71500D02*
X77250Y-72500D01*
X79210Y-75210D02*
X77484Y-75210D01*
X79250Y-75250D02*
X79210Y-75210D01*
X80250Y-65000D02*
X82750Y-65000D01*
X80500Y-67250D02*
X81250Y-66500D01*
X79750Y-67250D02*
X80500Y-67250D01*
X87984Y-75210D02*
X87984Y-74516D01*
X87718Y-74250D02*
X87500Y-74250D01*
X87984Y-74516D02*
X87718Y-74250D01*
X79750Y-74250D02*
X87500Y-74250D01*
X84750Y-73750D02*
X93250Y-73750D01*
X89250Y-72750D02*
X98500Y-72750D01*
X92250Y-71750D02*
X103750Y-71750D01*
X89750Y-62500D02*
X91500Y-62500D01*
X99516Y-64984D02*
X100290Y-64984D01*
X99500Y-65000D02*
X99516Y-64984D01*
X77250Y-62000D02*
X99500Y-62000D01*
X105210Y-64984D02*
X100290Y-64984D01*
X88766Y-64984D02*
X93290Y-64984D01*
X88750Y-65000D02*
X88766Y-64984D01*
X76250Y-62500D02*
X88750Y-62500D01*
X98210Y-64984D02*
X93290Y-64984D01*
X71250Y-68500D02*
X75250Y-68500D01*
X78250Y-61000D02*
X78250Y-60500D01*
X78000Y-61250D02*
X78250Y-61000D01*
X75500Y-61250D02*
X78000Y-61250D01*
X66000Y-67500D02*
X68750Y-67500D01*
X68750Y-68500D02*
X71250Y-68500D01*
X76500Y-67500D02*
X78750Y-67500D01*
X78750Y-68500D02*
X81750Y-68500D01*
X87000Y-67500D02*
X90250Y-67500D01*
X90250Y-68500D02*
X92250Y-68500D01*
X85750Y-66750D02*
X86750Y-66750D01*
X87000Y-67000D02*
X87000Y-67500D01*
X86750Y-66750D02*
X87000Y-67000D01*
X86750Y-65250D02*
X85750Y-65250D01*
X86500Y-61750D02*
X86750Y-61500D01*
X80500Y-61750D02*
X86500Y-61750D01*
X80250Y-61500D02*
X80500Y-61750D01*
X100250Y-71250D02*
X83750Y-71250D01*
X83750Y-61250D02*
X81250Y-61250D01*
X97500Y-67500D02*
X100250Y-67500D01*
X100250Y-68500D02*
X102750Y-68500D01*
X73250Y-61000D02*
X73250Y-60000D01*
X87250Y-59750D02*
X87250Y-60500D01*
X86950Y-59450D02*
X87250Y-59750D01*
X73799Y-59450D02*
X86950Y-59450D01*
X73250Y-60000D02*
X73799Y-59450D01*
X77750Y-65000D02*
X77750Y-66000D01*
X78250Y-64500D02*
X77750Y-65000D01*
X87750Y-64500D02*
X78250Y-64500D01*
X77750Y-66000D02*
X76250Y-66000D01*
X85250Y-60000D02*
X85250Y-60500D01*
X85000Y-59750D02*
X85250Y-60000D01*
X74150Y-59750D02*
X85000Y-59750D01*
X74000Y-59900D02*
X74150Y-59750D01*
X74000Y-61750D02*
X74000Y-59900D01*
X73750Y-62000D02*
X74000Y-61750D01*
X73250Y-62000D02*
X73750Y-62000D01*
X73250Y-63000D02*
X73000Y-63000D01*
X72750Y-59750D02*
X73250Y-59250D01*
X72750Y-62750D02*
X72750Y-59750D01*
X73000Y-63000D02*
X72750Y-62750D01*
X88250Y-59500D02*
X88250Y-60500D01*
X88000Y-59250D02*
X88250Y-59500D01*
X73250Y-59250D02*
X88000Y-59250D01*
X64650Y-61450D02*
X64850Y-61450D01*
X64850Y-61450D02*
X64931Y-61531D01*
X64750Y-61350D02*
X64931Y-61531D01*
X64900Y-61500D02*
X64900Y-61531D01*
X64931Y-61531D02*
X64900Y-61500D01*
X64500Y-61531D02*
X64568Y-61531D01*
X64568Y-61531D02*
X64650Y-61450D01*
X64650Y-61450D02*
X64750Y-61350D01*
X64750Y-61531D02*
X64750Y-61350D01*
X64750Y-61350D02*
X64750Y-60250D01*
X62468Y-61531D02*
X64500Y-61531D01*
X64500Y-61531D02*
X64750Y-61531D01*
X64750Y-61531D02*
X64900Y-61531D01*
X64900Y-61531D02*
X66281Y-61531D01*
X66281Y-61531D02*
X66750Y-62000D01*
X66750Y-62000D02*
X66750Y-64500D01*
X62468Y-65468D02*
X66531Y-65468D01*
X66531Y-65468D02*
X66750Y-65250D01*
X66750Y-65250D02*
X66750Y-64500D01*
X64750Y-60250D02*
X64750Y-59250D01*
X68750Y-60500D02*
X68750Y-63000D01*
X69750Y-64000D02*
X70250Y-64000D01*
X68750Y-63000D02*
X69750Y-64000D01*
X63000Y-58500D02*
X61500Y-60000D01*
X61500Y-60000D02*
X61500Y-60500D01*
X61500Y-66750D02*
X61500Y-60500D01*
X65500Y-58500D02*
X63000Y-58500D01*
X65750Y-58750D02*
X65500Y-58500D01*
X65750Y-59250D02*
X65750Y-58750D01*
X62750Y-68500D02*
X62750Y-68000D01*
X62750Y-68000D02*
X61500Y-66750D01*
X60750Y-70500D02*
X62250Y-70500D01*
X62750Y-68000D02*
X61500Y-66750D01*
X62750Y-70000D02*
X62750Y-68000D01*
X62250Y-70500D02*
X62750Y-70000D01*
X64250Y-67500D02*
X64250Y-67000D01*
X67000Y-66000D02*
X67750Y-66000D01*
X66500Y-66500D02*
X67000Y-66000D01*
X64750Y-66500D02*
X66500Y-66500D01*
X64250Y-67000D02*
X64750Y-66500D01*
X68750Y-64500D02*
X68250Y-64500D01*
X68250Y-64500D02*
X67750Y-65000D01*
X67750Y-65000D02*
X67750Y-66000D01*
X101000Y-61500D02*
X87250Y-61500D01*
X86750Y-66000D02*
X88250Y-66000D01*
X84250Y-66000D02*
X86750Y-66000D01*
X70500Y-58500D02*
X71250Y-58500D01*
X71500Y-61250D02*
X71250Y-61500D01*
X71500Y-58750D02*
X71500Y-61250D01*
X71250Y-58500D02*
X71500Y-58750D01*
X69000Y-58000D02*
X69500Y-58000D01*
X70000Y-58500D02*
X70500Y-58500D01*
X69500Y-58000D02*
X70000Y-58500D01*
X71250Y-61500D02*
X71000Y-61750D01*
X70250Y-62000D02*
X70750Y-62000D01*
X70750Y-62000D02*
X71000Y-61750D01*
G54D10*
G36*
X107950Y-74549D02*
X107890Y-74406D01*
X107830Y-74345D01*
X107830Y-61885D01*
X107741Y-61671D01*
X107735Y-61664D01*
X107735Y-61065D01*
X107723Y-60874D01*
X107673Y-60754D01*
X107602Y-60717D01*
X107532Y-60788D01*
X107532Y-60647D01*
X107495Y-60576D01*
X107315Y-60514D01*
X107124Y-60526D01*
X107004Y-60576D01*
X106967Y-60647D01*
X107250Y-60929D01*
X107532Y-60647D01*
X107532Y-60788D01*
X107320Y-61000D01*
X107602Y-61282D01*
X107673Y-61245D01*
X107735Y-61065D01*
X107735Y-61664D01*
X107578Y-61508D01*
X107434Y-61448D01*
X107495Y-61423D01*
X107532Y-61352D01*
X107250Y-61070D01*
X107179Y-61141D01*
X107179Y-61000D01*
X106897Y-60717D01*
X106826Y-60754D01*
X106764Y-60934D01*
X106776Y-61125D01*
X106826Y-61245D01*
X106897Y-61282D01*
X107179Y-61000D01*
X107179Y-61141D01*
X106967Y-61352D01*
X107004Y-61423D01*
X107071Y-61446D01*
X106921Y-61508D01*
X106758Y-61671D01*
X106670Y-61884D01*
X106669Y-62114D01*
X106758Y-62328D01*
X106921Y-62491D01*
X107134Y-62579D01*
X107364Y-62580D01*
X107578Y-62491D01*
X107741Y-62328D01*
X107829Y-62115D01*
X107830Y-61885D01*
X107830Y-74345D01*
X107800Y-74315D01*
X107800Y-67391D01*
X107800Y-63391D01*
X107716Y-63188D01*
X107561Y-63034D01*
X107359Y-62950D01*
X107141Y-62949D01*
X106938Y-63033D01*
X106784Y-63188D01*
X106700Y-63390D01*
X106699Y-63608D01*
X106783Y-63811D01*
X106938Y-63965D01*
X107140Y-64049D01*
X107358Y-64050D01*
X107561Y-63966D01*
X107715Y-63811D01*
X107799Y-63609D01*
X107800Y-63391D01*
X107800Y-67391D01*
X107716Y-67188D01*
X107561Y-67034D01*
X107359Y-66950D01*
X107141Y-66949D01*
X106938Y-67033D01*
X106784Y-67188D01*
X106700Y-67390D01*
X106699Y-67608D01*
X106783Y-67811D01*
X106938Y-67965D01*
X107140Y-68049D01*
X107358Y-68050D01*
X107561Y-67966D01*
X107715Y-67811D01*
X107799Y-67609D01*
X107800Y-67391D01*
X107800Y-74315D01*
X107595Y-74110D01*
X107209Y-73950D01*
X106792Y-73949D01*
X106406Y-74109D01*
X106110Y-74404D01*
X105950Y-74790D01*
X105949Y-75207D01*
X106109Y-75594D01*
X106404Y-75889D01*
X106549Y-75950D01*
X105885Y-75950D01*
X105885Y-64850D01*
X105885Y-62882D01*
X105782Y-62634D01*
X105592Y-62444D01*
X105344Y-62341D01*
X105076Y-62340D01*
X104870Y-62426D01*
X104870Y-58627D01*
X104775Y-58399D01*
X104601Y-58224D01*
X104373Y-58130D01*
X104127Y-58129D01*
X103899Y-58224D01*
X103724Y-58398D01*
X103630Y-58626D01*
X103629Y-58872D01*
X103724Y-59100D01*
X103898Y-59275D01*
X104126Y-59369D01*
X104372Y-59370D01*
X104600Y-59275D01*
X104775Y-59101D01*
X104869Y-58873D01*
X104870Y-58627D01*
X104870Y-62426D01*
X104828Y-62443D01*
X104705Y-62566D01*
X104705Y-60557D01*
X104692Y-60379D01*
X104648Y-60272D01*
X104581Y-60239D01*
X104510Y-60310D01*
X104510Y-60168D01*
X104477Y-60101D01*
X104307Y-60044D01*
X104129Y-60057D01*
X104022Y-60101D01*
X103989Y-60168D01*
X104250Y-60429D01*
X104510Y-60168D01*
X104510Y-60310D01*
X104320Y-60500D01*
X104581Y-60760D01*
X104648Y-60727D01*
X104705Y-60557D01*
X104705Y-62566D01*
X104638Y-62633D01*
X104535Y-62881D01*
X104534Y-63149D01*
X104637Y-63397D01*
X104827Y-63587D01*
X105075Y-63690D01*
X105343Y-63691D01*
X105591Y-63588D01*
X105781Y-63398D01*
X105884Y-63150D01*
X105885Y-62882D01*
X105885Y-64850D01*
X105782Y-64602D01*
X105592Y-64412D01*
X105344Y-64309D01*
X105076Y-64308D01*
X104828Y-64411D01*
X104638Y-64601D01*
X104603Y-64684D01*
X104510Y-64684D01*
X104510Y-60831D01*
X104250Y-60570D01*
X104179Y-60641D01*
X104179Y-60500D01*
X103918Y-60239D01*
X103851Y-60272D01*
X103794Y-60442D01*
X103807Y-60620D01*
X103851Y-60727D01*
X103918Y-60760D01*
X104179Y-60500D01*
X104179Y-60641D01*
X103989Y-60831D01*
X104022Y-60898D01*
X104192Y-60955D01*
X104370Y-60942D01*
X104477Y-60898D01*
X104510Y-60831D01*
X104510Y-64684D01*
X102870Y-64684D01*
X102870Y-58627D01*
X102775Y-58399D01*
X102601Y-58224D01*
X102373Y-58130D01*
X102127Y-58129D01*
X101899Y-58224D01*
X101724Y-58398D01*
X101630Y-58626D01*
X101629Y-58872D01*
X101724Y-59100D01*
X101898Y-59275D01*
X102126Y-59369D01*
X102372Y-59370D01*
X102600Y-59275D01*
X102775Y-59101D01*
X102869Y-58873D01*
X102870Y-58627D01*
X102870Y-64684D01*
X102800Y-64684D01*
X102800Y-60391D01*
X102716Y-60188D01*
X102561Y-60034D01*
X102359Y-59950D01*
X102141Y-59949D01*
X101938Y-60033D01*
X101784Y-60188D01*
X101700Y-60390D01*
X101699Y-60608D01*
X101783Y-60811D01*
X101938Y-60965D01*
X102140Y-61049D01*
X102358Y-61050D01*
X102561Y-60966D01*
X102715Y-60811D01*
X102799Y-60609D01*
X102800Y-60391D01*
X102800Y-64684D01*
X101425Y-64684D01*
X101425Y-61415D01*
X101360Y-61259D01*
X101241Y-61139D01*
X101084Y-61075D01*
X100915Y-61074D01*
X100759Y-61139D01*
X100698Y-61200D01*
X100075Y-61200D01*
X100075Y-60136D01*
X99987Y-59924D01*
X99826Y-59762D01*
X99735Y-59725D01*
X99795Y-59725D01*
X99854Y-59724D01*
X99910Y-59702D01*
X99952Y-59659D01*
X99975Y-59604D01*
X99975Y-58895D01*
X99952Y-58840D01*
X99910Y-58797D01*
X99854Y-58775D01*
X99795Y-58774D01*
X99587Y-58775D01*
X99550Y-58812D01*
X99550Y-59200D01*
X99937Y-59200D01*
X99975Y-59162D01*
X99975Y-58895D01*
X99975Y-59604D01*
X99975Y-59337D01*
X99937Y-59300D01*
X99600Y-59300D01*
X99550Y-59300D01*
X99450Y-59300D01*
X99450Y-59200D01*
X99450Y-58812D01*
X99412Y-58775D01*
X99204Y-58774D01*
X99145Y-58775D01*
X99089Y-58797D01*
X99047Y-58840D01*
X99024Y-58895D01*
X99025Y-59162D01*
X99062Y-59200D01*
X99450Y-59200D01*
X99450Y-59300D01*
X99400Y-59300D01*
X99062Y-59300D01*
X99025Y-59337D01*
X99024Y-59604D01*
X99047Y-59659D01*
X99089Y-59702D01*
X99145Y-59724D01*
X99204Y-59725D01*
X99264Y-59725D01*
X99174Y-59762D01*
X99012Y-59923D01*
X98925Y-60135D01*
X98924Y-60363D01*
X99012Y-60575D01*
X99173Y-60737D01*
X99385Y-60824D01*
X99613Y-60825D01*
X99825Y-60737D01*
X99987Y-60576D01*
X100074Y-60364D01*
X100075Y-60136D01*
X100075Y-61200D01*
X96830Y-61200D01*
X96830Y-58385D01*
X96741Y-58171D01*
X96578Y-58008D01*
X96365Y-57920D01*
X96135Y-57919D01*
X95921Y-58008D01*
X95758Y-58171D01*
X95670Y-58384D01*
X95669Y-58614D01*
X95758Y-58828D01*
X95921Y-58991D01*
X96065Y-59051D01*
X96004Y-59076D01*
X95967Y-59147D01*
X96250Y-59429D01*
X96532Y-59147D01*
X96495Y-59076D01*
X96428Y-59053D01*
X96578Y-58991D01*
X96741Y-58828D01*
X96829Y-58615D01*
X96830Y-58385D01*
X96830Y-61200D01*
X96577Y-61200D01*
X96715Y-61061D01*
X96799Y-60859D01*
X96800Y-60641D01*
X96735Y-60483D01*
X96735Y-59565D01*
X96723Y-59374D01*
X96673Y-59254D01*
X96602Y-59217D01*
X96320Y-59500D01*
X96602Y-59782D01*
X96673Y-59745D01*
X96735Y-59565D01*
X96735Y-60483D01*
X96716Y-60438D01*
X96561Y-60284D01*
X96532Y-60271D01*
X96532Y-59852D01*
X96250Y-59570D01*
X96179Y-59641D01*
X96179Y-59500D01*
X95897Y-59217D01*
X95826Y-59254D01*
X95764Y-59434D01*
X95776Y-59625D01*
X95826Y-59745D01*
X95897Y-59782D01*
X96179Y-59500D01*
X96179Y-59641D01*
X95967Y-59852D01*
X96004Y-59923D01*
X96184Y-59985D01*
X96375Y-59973D01*
X96495Y-59923D01*
X96532Y-59852D01*
X96532Y-60271D01*
X96359Y-60200D01*
X96141Y-60199D01*
X95938Y-60283D01*
X95784Y-60438D01*
X95700Y-60640D01*
X95699Y-60858D01*
X95783Y-61061D01*
X95922Y-61200D01*
X92577Y-61200D01*
X92715Y-61061D01*
X92799Y-60859D01*
X92800Y-60641D01*
X92716Y-60438D01*
X92561Y-60284D01*
X92359Y-60200D01*
X92141Y-60199D01*
X91938Y-60283D01*
X91784Y-60438D01*
X91700Y-60640D01*
X91699Y-60858D01*
X91783Y-61061D01*
X91922Y-61200D01*
X87551Y-61200D01*
X87491Y-61139D01*
X87334Y-61075D01*
X87165Y-61074D01*
X87009Y-61139D01*
X87000Y-61148D01*
X86991Y-61139D01*
X86834Y-61075D01*
X86665Y-61074D01*
X86509Y-61139D01*
X86389Y-61258D01*
X86325Y-61415D01*
X86325Y-61450D01*
X84680Y-61450D01*
X84680Y-60551D01*
X84667Y-60383D01*
X84627Y-60287D01*
X84563Y-60257D01*
X84492Y-60328D01*
X84492Y-60186D01*
X84462Y-60122D01*
X84301Y-60069D01*
X84133Y-60082D01*
X84037Y-60122D01*
X84007Y-60186D01*
X84250Y-60429D01*
X84492Y-60186D01*
X84492Y-60328D01*
X84320Y-60500D01*
X84563Y-60742D01*
X84627Y-60712D01*
X84680Y-60551D01*
X84680Y-61450D01*
X84492Y-61450D01*
X84492Y-60813D01*
X84250Y-60570D01*
X84179Y-60641D01*
X84179Y-60500D01*
X83936Y-60257D01*
X83872Y-60287D01*
X83819Y-60448D01*
X83832Y-60616D01*
X83872Y-60712D01*
X83936Y-60742D01*
X84179Y-60500D01*
X84179Y-60641D01*
X84007Y-60813D01*
X84037Y-60877D01*
X84198Y-60930D01*
X84366Y-60917D01*
X84462Y-60877D01*
X84492Y-60813D01*
X84492Y-61450D01*
X84127Y-61450D01*
X84174Y-61334D01*
X84175Y-61165D01*
X84110Y-61009D01*
X83991Y-60889D01*
X83834Y-60825D01*
X83667Y-60824D01*
X83694Y-60797D01*
X83774Y-60604D01*
X83775Y-60396D01*
X83695Y-60203D01*
X83547Y-60055D01*
X83535Y-60050D01*
X84875Y-60050D01*
X84916Y-60090D01*
X84805Y-60202D01*
X84725Y-60395D01*
X84724Y-60603D01*
X84804Y-60797D01*
X84952Y-60944D01*
X85145Y-61024D01*
X85353Y-61025D01*
X85547Y-60945D01*
X85694Y-60797D01*
X85750Y-60664D01*
X85804Y-60797D01*
X85952Y-60944D01*
X86145Y-61024D01*
X86353Y-61025D01*
X86547Y-60945D01*
X86694Y-60797D01*
X86750Y-60664D01*
X86804Y-60797D01*
X86952Y-60944D01*
X87145Y-61024D01*
X87353Y-61025D01*
X87547Y-60945D01*
X87694Y-60797D01*
X87750Y-60664D01*
X87804Y-60797D01*
X87952Y-60944D01*
X88145Y-61024D01*
X88353Y-61025D01*
X88547Y-60945D01*
X88694Y-60797D01*
X88750Y-60664D01*
X88804Y-60797D01*
X88952Y-60944D01*
X89145Y-61024D01*
X89353Y-61025D01*
X89547Y-60945D01*
X89694Y-60797D01*
X89774Y-60604D01*
X89775Y-60396D01*
X89695Y-60203D01*
X89547Y-60055D01*
X89354Y-59975D01*
X89146Y-59974D01*
X88953Y-60054D01*
X88805Y-60202D01*
X88749Y-60335D01*
X88695Y-60203D01*
X88550Y-60057D01*
X88550Y-59500D01*
X88527Y-59385D01*
X88462Y-59287D01*
X88462Y-59287D01*
X88440Y-59266D01*
X88561Y-59216D01*
X88715Y-59061D01*
X88799Y-58859D01*
X88800Y-58641D01*
X88716Y-58438D01*
X88561Y-58284D01*
X88480Y-58250D01*
X88561Y-58216D01*
X88715Y-58061D01*
X88799Y-57859D01*
X88800Y-57641D01*
X88716Y-57438D01*
X88561Y-57284D01*
X88359Y-57200D01*
X88141Y-57199D01*
X87938Y-57283D01*
X87784Y-57438D01*
X87750Y-57519D01*
X87716Y-57438D01*
X87561Y-57284D01*
X87359Y-57200D01*
X87141Y-57199D01*
X86938Y-57283D01*
X86784Y-57438D01*
X86700Y-57640D01*
X86700Y-57734D01*
X86692Y-57629D01*
X86648Y-57522D01*
X86581Y-57489D01*
X86510Y-57560D01*
X86510Y-57418D01*
X86477Y-57351D01*
X86307Y-57294D01*
X86129Y-57307D01*
X86022Y-57351D01*
X85989Y-57418D01*
X86250Y-57679D01*
X86510Y-57418D01*
X86510Y-57560D01*
X86320Y-57750D01*
X86581Y-58010D01*
X86648Y-57977D01*
X86699Y-57823D01*
X86699Y-57858D01*
X86783Y-58061D01*
X86938Y-58215D01*
X87019Y-58249D01*
X86938Y-58283D01*
X86800Y-58422D01*
X86800Y-58400D01*
X86762Y-58308D01*
X86691Y-58238D01*
X86599Y-58200D01*
X86500Y-58199D01*
X86266Y-58199D01*
X86370Y-58192D01*
X86477Y-58148D01*
X86510Y-58081D01*
X86250Y-57820D01*
X86179Y-57891D01*
X86179Y-57750D01*
X85918Y-57489D01*
X85851Y-57522D01*
X85794Y-57692D01*
X85807Y-57870D01*
X85851Y-57977D01*
X85918Y-58010D01*
X86179Y-57750D01*
X86179Y-57891D01*
X85989Y-58081D01*
X86022Y-58148D01*
X86176Y-58199D01*
X85900Y-58199D01*
X85808Y-58237D01*
X85738Y-58308D01*
X85700Y-58400D01*
X85699Y-58499D01*
X85699Y-58950D01*
X83680Y-58950D01*
X83680Y-58301D01*
X83667Y-58133D01*
X83627Y-58037D01*
X83563Y-58007D01*
X83492Y-58078D01*
X83492Y-57936D01*
X83462Y-57872D01*
X83301Y-57819D01*
X83133Y-57832D01*
X83037Y-57872D01*
X83007Y-57936D01*
X83250Y-58179D01*
X83492Y-57936D01*
X83492Y-58078D01*
X83320Y-58250D01*
X83563Y-58492D01*
X83627Y-58462D01*
X83680Y-58301D01*
X83680Y-58950D01*
X83492Y-58950D01*
X83492Y-58563D01*
X83250Y-58320D01*
X83179Y-58391D01*
X83179Y-58250D01*
X82936Y-58007D01*
X82872Y-58037D01*
X82819Y-58198D01*
X82832Y-58366D01*
X82872Y-58462D01*
X82936Y-58492D01*
X83179Y-58250D01*
X83179Y-58391D01*
X83007Y-58563D01*
X83037Y-58627D01*
X83198Y-58680D01*
X83366Y-58667D01*
X83462Y-58627D01*
X83492Y-58563D01*
X83492Y-58950D01*
X82775Y-58950D01*
X82775Y-58146D01*
X82695Y-57953D01*
X82547Y-57805D01*
X82354Y-57725D01*
X82146Y-57724D01*
X81953Y-57804D01*
X81805Y-57952D01*
X81725Y-58145D01*
X81724Y-58353D01*
X81804Y-58547D01*
X81952Y-58694D01*
X82145Y-58774D01*
X82353Y-58775D01*
X82547Y-58695D01*
X82694Y-58547D01*
X82774Y-58354D01*
X82775Y-58146D01*
X82775Y-58950D01*
X74955Y-58950D01*
X74955Y-58557D01*
X74942Y-58379D01*
X74898Y-58272D01*
X74831Y-58239D01*
X74760Y-58310D01*
X74760Y-58168D01*
X74727Y-58101D01*
X74557Y-58044D01*
X74379Y-58057D01*
X74272Y-58101D01*
X74239Y-58168D01*
X74500Y-58429D01*
X74760Y-58168D01*
X74760Y-58310D01*
X74570Y-58500D01*
X74831Y-58760D01*
X74898Y-58727D01*
X74955Y-58557D01*
X74955Y-58950D01*
X74515Y-58950D01*
X74620Y-58942D01*
X74727Y-58898D01*
X74760Y-58831D01*
X74500Y-58570D01*
X74429Y-58641D01*
X74429Y-58500D01*
X74168Y-58239D01*
X74101Y-58272D01*
X74044Y-58442D01*
X74057Y-58620D01*
X74101Y-58727D01*
X74168Y-58760D01*
X74429Y-58500D01*
X74429Y-58641D01*
X74239Y-58831D01*
X74272Y-58898D01*
X74426Y-58950D01*
X73250Y-58950D01*
X73135Y-58972D01*
X73037Y-59037D01*
X72537Y-59537D01*
X72472Y-59635D01*
X72450Y-59750D01*
X72450Y-62750D01*
X72472Y-62864D01*
X72537Y-62962D01*
X72756Y-63181D01*
X72804Y-63297D01*
X72952Y-63444D01*
X73145Y-63524D01*
X73353Y-63525D01*
X73547Y-63445D01*
X73694Y-63297D01*
X73774Y-63104D01*
X73775Y-62896D01*
X73695Y-62703D01*
X73547Y-62555D01*
X73414Y-62499D01*
X73547Y-62445D01*
X73692Y-62300D01*
X73750Y-62300D01*
X73750Y-62299D01*
X73864Y-62277D01*
X73864Y-62277D01*
X73962Y-62212D01*
X74212Y-61962D01*
X74212Y-61962D01*
X74277Y-61864D01*
X74299Y-61750D01*
X74300Y-61750D01*
X74300Y-60050D01*
X75964Y-60050D01*
X75953Y-60054D01*
X75805Y-60202D01*
X75725Y-60395D01*
X75724Y-60603D01*
X75804Y-60797D01*
X75952Y-60944D01*
X75964Y-60950D01*
X75801Y-60950D01*
X75741Y-60889D01*
X75584Y-60825D01*
X75415Y-60824D01*
X75259Y-60889D01*
X75139Y-61008D01*
X75075Y-61165D01*
X75074Y-61334D01*
X75139Y-61490D01*
X75258Y-61610D01*
X75415Y-61674D01*
X75584Y-61675D01*
X75740Y-61610D01*
X75801Y-61550D01*
X78000Y-61550D01*
X78000Y-61549D01*
X78114Y-61527D01*
X78114Y-61527D01*
X78212Y-61462D01*
X78462Y-61212D01*
X78462Y-61212D01*
X78527Y-61114D01*
X78549Y-61000D01*
X78550Y-61000D01*
X78550Y-60942D01*
X78694Y-60797D01*
X78750Y-60664D01*
X78804Y-60797D01*
X78952Y-60944D01*
X79145Y-61024D01*
X79353Y-61025D01*
X79547Y-60945D01*
X79694Y-60797D01*
X79750Y-60664D01*
X79804Y-60797D01*
X79952Y-60944D01*
X80145Y-61024D01*
X80353Y-61025D01*
X80547Y-60945D01*
X80694Y-60797D01*
X80750Y-60664D01*
X80804Y-60797D01*
X80952Y-60944D01*
X80953Y-60945D01*
X80889Y-61008D01*
X80825Y-61165D01*
X80824Y-61334D01*
X80872Y-61450D01*
X80675Y-61450D01*
X80675Y-61415D01*
X80610Y-61259D01*
X80491Y-61139D01*
X80334Y-61075D01*
X80165Y-61074D01*
X80009Y-61139D01*
X79889Y-61258D01*
X79825Y-61415D01*
X79824Y-61584D01*
X79872Y-61700D01*
X77551Y-61700D01*
X77491Y-61639D01*
X77334Y-61575D01*
X77165Y-61574D01*
X77009Y-61639D01*
X76889Y-61758D01*
X76825Y-61915D01*
X76824Y-62084D01*
X76872Y-62200D01*
X76551Y-62200D01*
X76491Y-62139D01*
X76334Y-62075D01*
X76165Y-62074D01*
X76009Y-62139D01*
X75889Y-62258D01*
X75825Y-62415D01*
X75824Y-62584D01*
X75889Y-62740D01*
X76008Y-62860D01*
X76165Y-62924D01*
X76334Y-62925D01*
X76490Y-62860D01*
X76551Y-62800D01*
X88448Y-62800D01*
X88508Y-62860D01*
X88665Y-62924D01*
X88834Y-62925D01*
X88990Y-62860D01*
X89110Y-62741D01*
X89174Y-62584D01*
X89175Y-62415D01*
X89127Y-62300D01*
X89372Y-62300D01*
X89325Y-62415D01*
X89324Y-62584D01*
X89389Y-62740D01*
X89508Y-62860D01*
X89665Y-62924D01*
X89834Y-62925D01*
X89990Y-62860D01*
X90051Y-62800D01*
X91198Y-62800D01*
X91258Y-62860D01*
X91415Y-62924D01*
X91584Y-62925D01*
X91740Y-62860D01*
X91860Y-62741D01*
X91924Y-62584D01*
X91925Y-62415D01*
X91877Y-62300D01*
X99198Y-62300D01*
X99258Y-62360D01*
X99415Y-62424D01*
X99584Y-62425D01*
X99740Y-62360D01*
X99860Y-62241D01*
X99924Y-62084D01*
X99925Y-61915D01*
X99877Y-61800D01*
X100698Y-61800D01*
X100758Y-61860D01*
X100915Y-61924D01*
X101084Y-61925D01*
X101240Y-61860D01*
X101360Y-61741D01*
X101424Y-61584D01*
X101425Y-61415D01*
X101425Y-64684D01*
X100965Y-64684D01*
X100965Y-62882D01*
X100862Y-62634D01*
X100672Y-62444D01*
X100424Y-62341D01*
X100156Y-62340D01*
X99908Y-62443D01*
X99718Y-62633D01*
X99615Y-62881D01*
X99614Y-63149D01*
X99717Y-63397D01*
X99907Y-63587D01*
X100155Y-63690D01*
X100423Y-63691D01*
X100671Y-63588D01*
X100861Y-63398D01*
X100964Y-63150D01*
X100965Y-62882D01*
X100965Y-64684D01*
X100896Y-64684D01*
X100862Y-64602D01*
X100672Y-64412D01*
X100424Y-64309D01*
X100156Y-64308D01*
X99908Y-64411D01*
X99718Y-64601D01*
X99707Y-64626D01*
X99584Y-64575D01*
X99415Y-64574D01*
X99259Y-64639D01*
X99139Y-64758D01*
X99075Y-64915D01*
X99074Y-65084D01*
X99139Y-65240D01*
X99258Y-65360D01*
X99415Y-65424D01*
X99584Y-65425D01*
X99720Y-65368D01*
X99907Y-65555D01*
X100155Y-65658D01*
X100423Y-65659D01*
X100671Y-65556D01*
X100861Y-65366D01*
X100896Y-65284D01*
X104603Y-65284D01*
X104637Y-65365D01*
X104827Y-65555D01*
X105075Y-65658D01*
X105343Y-65659D01*
X105591Y-65556D01*
X105781Y-65366D01*
X105884Y-65118D01*
X105885Y-64850D01*
X105885Y-75950D01*
X104409Y-75950D01*
X104409Y-75076D01*
X104409Y-70156D01*
X104306Y-69908D01*
X104116Y-69718D01*
X103868Y-69615D01*
X103600Y-69614D01*
X103352Y-69717D01*
X103330Y-69739D01*
X103330Y-68385D01*
X103241Y-68171D01*
X103078Y-68008D01*
X103058Y-68000D01*
X103078Y-67991D01*
X103241Y-67828D01*
X103329Y-67615D01*
X103330Y-67385D01*
X103241Y-67171D01*
X103078Y-67008D01*
X102865Y-66920D01*
X102635Y-66919D01*
X102421Y-67008D01*
X102258Y-67171D01*
X102170Y-67384D01*
X102169Y-67614D01*
X102258Y-67828D01*
X102421Y-67991D01*
X102441Y-67999D01*
X102421Y-68008D01*
X102258Y-68171D01*
X102246Y-68200D01*
X100675Y-68200D01*
X100675Y-67415D01*
X100610Y-67259D01*
X100491Y-67139D01*
X100334Y-67075D01*
X100165Y-67074D01*
X100009Y-67139D01*
X99948Y-67200D01*
X98885Y-67200D01*
X98885Y-64850D01*
X98885Y-62882D01*
X98782Y-62634D01*
X98592Y-62444D01*
X98344Y-62341D01*
X98076Y-62340D01*
X97828Y-62443D01*
X97638Y-62633D01*
X97535Y-62881D01*
X97534Y-63149D01*
X97637Y-63397D01*
X97827Y-63587D01*
X98075Y-63690D01*
X98343Y-63691D01*
X98591Y-63588D01*
X98781Y-63398D01*
X98884Y-63150D01*
X98885Y-62882D01*
X98885Y-64850D01*
X98782Y-64602D01*
X98592Y-64412D01*
X98344Y-64309D01*
X98076Y-64308D01*
X97828Y-64411D01*
X97638Y-64601D01*
X97603Y-64684D01*
X93965Y-64684D01*
X93965Y-62882D01*
X93862Y-62634D01*
X93672Y-62444D01*
X93424Y-62341D01*
X93156Y-62340D01*
X92908Y-62443D01*
X92718Y-62633D01*
X92615Y-62881D01*
X92614Y-63149D01*
X92717Y-63397D01*
X92907Y-63587D01*
X93155Y-63690D01*
X93423Y-63691D01*
X93671Y-63588D01*
X93861Y-63398D01*
X93964Y-63150D01*
X93965Y-62882D01*
X93965Y-64684D01*
X93896Y-64684D01*
X93862Y-64602D01*
X93672Y-64412D01*
X93424Y-64309D01*
X93156Y-64308D01*
X92908Y-64411D01*
X92718Y-64601D01*
X92683Y-64684D01*
X89775Y-64684D01*
X89775Y-63396D01*
X89695Y-63203D01*
X89547Y-63055D01*
X89354Y-62975D01*
X89146Y-62974D01*
X88953Y-63054D01*
X88805Y-63202D01*
X88749Y-63335D01*
X88695Y-63203D01*
X88547Y-63055D01*
X88354Y-62975D01*
X88146Y-62974D01*
X87953Y-63054D01*
X87805Y-63202D01*
X87749Y-63335D01*
X87695Y-63203D01*
X87547Y-63055D01*
X87354Y-62975D01*
X87146Y-62974D01*
X86953Y-63054D01*
X86805Y-63202D01*
X86749Y-63335D01*
X86695Y-63203D01*
X86547Y-63055D01*
X86354Y-62975D01*
X86146Y-62974D01*
X85953Y-63054D01*
X85805Y-63202D01*
X85749Y-63335D01*
X85695Y-63203D01*
X85547Y-63055D01*
X85354Y-62975D01*
X85146Y-62974D01*
X84953Y-63054D01*
X84805Y-63202D01*
X84749Y-63335D01*
X84695Y-63203D01*
X84547Y-63055D01*
X84354Y-62975D01*
X84146Y-62974D01*
X83953Y-63054D01*
X83805Y-63202D01*
X83749Y-63335D01*
X83695Y-63203D01*
X83547Y-63055D01*
X83354Y-62975D01*
X83146Y-62974D01*
X82953Y-63054D01*
X82805Y-63202D01*
X82725Y-63395D01*
X82724Y-63603D01*
X82804Y-63797D01*
X82952Y-63944D01*
X83145Y-64024D01*
X83353Y-64025D01*
X83547Y-63945D01*
X83694Y-63797D01*
X83750Y-63664D01*
X83804Y-63797D01*
X83952Y-63944D01*
X84145Y-64024D01*
X84353Y-64025D01*
X84547Y-63945D01*
X84694Y-63797D01*
X84750Y-63664D01*
X84804Y-63797D01*
X84952Y-63944D01*
X85145Y-64024D01*
X85353Y-64025D01*
X85547Y-63945D01*
X85694Y-63797D01*
X85750Y-63664D01*
X85804Y-63797D01*
X85952Y-63944D01*
X86145Y-64024D01*
X86353Y-64025D01*
X86547Y-63945D01*
X86694Y-63797D01*
X86750Y-63664D01*
X86804Y-63797D01*
X86952Y-63944D01*
X87145Y-64024D01*
X87353Y-64025D01*
X87547Y-63945D01*
X87694Y-63797D01*
X87750Y-63664D01*
X87804Y-63797D01*
X87952Y-63944D01*
X88145Y-64024D01*
X88353Y-64025D01*
X88547Y-63945D01*
X88694Y-63797D01*
X88750Y-63664D01*
X88804Y-63797D01*
X88952Y-63944D01*
X89145Y-64024D01*
X89353Y-64025D01*
X89547Y-63945D01*
X89694Y-63797D01*
X89774Y-63604D01*
X89775Y-63396D01*
X89775Y-64684D01*
X89035Y-64684D01*
X88991Y-64639D01*
X88834Y-64575D01*
X88665Y-64574D01*
X88509Y-64639D01*
X88389Y-64758D01*
X88325Y-64915D01*
X88324Y-65084D01*
X88389Y-65240D01*
X88508Y-65360D01*
X88665Y-65424D01*
X88834Y-65425D01*
X88990Y-65360D01*
X89067Y-65284D01*
X92683Y-65284D01*
X92717Y-65365D01*
X92907Y-65555D01*
X93155Y-65658D01*
X93423Y-65659D01*
X93671Y-65556D01*
X93861Y-65366D01*
X93896Y-65284D01*
X97603Y-65284D01*
X97637Y-65365D01*
X97827Y-65555D01*
X98075Y-65658D01*
X98343Y-65659D01*
X98591Y-65556D01*
X98781Y-65366D01*
X98884Y-65118D01*
X98885Y-64850D01*
X98885Y-67200D01*
X98003Y-67200D01*
X97991Y-67171D01*
X97828Y-67008D01*
X97615Y-66920D01*
X97385Y-66919D01*
X97171Y-67008D01*
X97008Y-67171D01*
X96920Y-67384D01*
X96919Y-67614D01*
X97008Y-67828D01*
X97171Y-67991D01*
X97315Y-68051D01*
X97254Y-68076D01*
X97217Y-68147D01*
X97500Y-68429D01*
X97782Y-68147D01*
X97745Y-68076D01*
X97678Y-68053D01*
X97828Y-67991D01*
X97991Y-67828D01*
X98003Y-67800D01*
X99948Y-67800D01*
X100008Y-67860D01*
X100165Y-67924D01*
X100334Y-67925D01*
X100490Y-67860D01*
X100610Y-67741D01*
X100674Y-67584D01*
X100675Y-67415D01*
X100675Y-68200D01*
X100551Y-68200D01*
X100491Y-68139D01*
X100334Y-68075D01*
X100165Y-68074D01*
X100009Y-68139D01*
X99889Y-68258D01*
X99825Y-68415D01*
X99824Y-68584D01*
X99889Y-68740D01*
X100008Y-68860D01*
X100165Y-68924D01*
X100334Y-68925D01*
X100490Y-68860D01*
X100551Y-68800D01*
X102246Y-68800D01*
X102258Y-68828D01*
X102421Y-68991D01*
X102634Y-69079D01*
X102864Y-69080D01*
X103078Y-68991D01*
X103241Y-68828D01*
X103329Y-68615D01*
X103330Y-68385D01*
X103330Y-69739D01*
X103162Y-69907D01*
X103059Y-70155D01*
X103058Y-70423D01*
X103161Y-70671D01*
X103351Y-70861D01*
X103599Y-70964D01*
X103867Y-70965D01*
X104115Y-70862D01*
X104305Y-70672D01*
X104408Y-70424D01*
X104409Y-70156D01*
X104409Y-75076D01*
X104306Y-74828D01*
X104175Y-74696D01*
X104175Y-71665D01*
X104110Y-71509D01*
X103991Y-71389D01*
X103834Y-71325D01*
X103665Y-71324D01*
X103509Y-71389D01*
X103448Y-71450D01*
X102441Y-71450D01*
X102441Y-70156D01*
X102338Y-69908D01*
X102148Y-69718D01*
X101900Y-69615D01*
X101632Y-69614D01*
X101384Y-69717D01*
X101194Y-69907D01*
X101091Y-70155D01*
X101090Y-70423D01*
X101193Y-70671D01*
X101383Y-70861D01*
X101631Y-70964D01*
X101899Y-70965D01*
X102147Y-70862D01*
X102337Y-70672D01*
X102440Y-70424D01*
X102441Y-70156D01*
X102441Y-71450D01*
X100627Y-71450D01*
X100674Y-71334D01*
X100675Y-71165D01*
X100610Y-71009D01*
X100491Y-70889D01*
X100334Y-70825D01*
X100165Y-70824D01*
X100009Y-70889D01*
X99948Y-70950D01*
X98654Y-70950D01*
X98865Y-70862D01*
X99055Y-70672D01*
X99158Y-70424D01*
X99159Y-70156D01*
X99056Y-69908D01*
X98866Y-69718D01*
X98618Y-69615D01*
X98350Y-69614D01*
X98102Y-69717D01*
X97985Y-69834D01*
X97985Y-68565D01*
X97973Y-68374D01*
X97923Y-68254D01*
X97852Y-68217D01*
X97570Y-68500D01*
X97852Y-68782D01*
X97923Y-68745D01*
X97985Y-68565D01*
X97985Y-69834D01*
X97912Y-69907D01*
X97809Y-70155D01*
X97808Y-70423D01*
X97911Y-70671D01*
X98101Y-70861D01*
X98313Y-70950D01*
X97782Y-70950D01*
X97782Y-68852D01*
X97500Y-68570D01*
X97429Y-68641D01*
X97429Y-68500D01*
X97147Y-68217D01*
X97076Y-68254D01*
X97014Y-68434D01*
X97026Y-68625D01*
X97076Y-68745D01*
X97147Y-68782D01*
X97429Y-68500D01*
X97429Y-68641D01*
X97217Y-68852D01*
X97254Y-68923D01*
X97434Y-68985D01*
X97625Y-68973D01*
X97745Y-68923D01*
X97782Y-68852D01*
X97782Y-70950D01*
X96686Y-70950D01*
X96897Y-70862D01*
X97087Y-70672D01*
X97190Y-70424D01*
X97191Y-70156D01*
X97088Y-69908D01*
X96898Y-69718D01*
X96650Y-69615D01*
X96382Y-69614D01*
X96134Y-69717D01*
X95944Y-69907D01*
X95841Y-70155D01*
X95840Y-70423D01*
X95943Y-70671D01*
X96133Y-70861D01*
X96345Y-70950D01*
X93404Y-70950D01*
X93615Y-70862D01*
X93805Y-70672D01*
X93908Y-70424D01*
X93909Y-70156D01*
X93806Y-69908D01*
X93616Y-69718D01*
X93368Y-69615D01*
X93100Y-69614D01*
X92852Y-69717D01*
X92830Y-69739D01*
X92830Y-68385D01*
X92741Y-68171D01*
X92578Y-68008D01*
X92558Y-68000D01*
X92578Y-67991D01*
X92741Y-67828D01*
X92829Y-67615D01*
X92830Y-67385D01*
X92741Y-67171D01*
X92578Y-67008D01*
X92365Y-66920D01*
X92135Y-66919D01*
X91921Y-67008D01*
X91758Y-67171D01*
X91670Y-67384D01*
X91669Y-67614D01*
X91758Y-67828D01*
X91921Y-67991D01*
X91941Y-67999D01*
X91921Y-68008D01*
X91758Y-68171D01*
X91746Y-68200D01*
X91205Y-68200D01*
X91205Y-66057D01*
X91192Y-65879D01*
X91148Y-65772D01*
X91081Y-65739D01*
X91010Y-65810D01*
X91010Y-65668D01*
X90977Y-65601D01*
X90807Y-65544D01*
X90629Y-65557D01*
X90522Y-65601D01*
X90489Y-65668D01*
X90750Y-65929D01*
X91010Y-65668D01*
X91010Y-65810D01*
X90820Y-66000D01*
X91081Y-66260D01*
X91148Y-66227D01*
X91205Y-66057D01*
X91205Y-68200D01*
X91010Y-68200D01*
X91010Y-66331D01*
X90750Y-66070D01*
X90679Y-66141D01*
X90679Y-66000D01*
X90418Y-65739D01*
X90351Y-65772D01*
X90294Y-65942D01*
X90307Y-66120D01*
X90351Y-66227D01*
X90418Y-66260D01*
X90679Y-66000D01*
X90679Y-66141D01*
X90489Y-66331D01*
X90522Y-66398D01*
X90692Y-66455D01*
X90870Y-66442D01*
X90977Y-66398D01*
X91010Y-66331D01*
X91010Y-68200D01*
X90675Y-68200D01*
X90675Y-67415D01*
X90610Y-67259D01*
X90491Y-67139D01*
X90334Y-67075D01*
X90165Y-67074D01*
X90009Y-67139D01*
X89948Y-67200D01*
X87503Y-67200D01*
X87491Y-67171D01*
X87328Y-67008D01*
X87299Y-66996D01*
X87277Y-66885D01*
X87212Y-66787D01*
X87212Y-66787D01*
X86962Y-66537D01*
X86934Y-66519D01*
X87061Y-66466D01*
X87215Y-66311D01*
X87220Y-66300D01*
X87948Y-66300D01*
X88008Y-66360D01*
X88165Y-66424D01*
X88334Y-66425D01*
X88490Y-66360D01*
X88610Y-66241D01*
X88674Y-66084D01*
X88675Y-65915D01*
X88610Y-65759D01*
X88491Y-65639D01*
X88334Y-65575D01*
X88175Y-65574D01*
X88175Y-64415D01*
X88110Y-64259D01*
X87991Y-64139D01*
X87834Y-64075D01*
X87665Y-64074D01*
X87509Y-64139D01*
X87448Y-64200D01*
X82680Y-64200D01*
X82680Y-63551D01*
X82667Y-63383D01*
X82627Y-63287D01*
X82563Y-63257D01*
X82492Y-63328D01*
X82492Y-63186D01*
X82462Y-63122D01*
X82301Y-63069D01*
X82133Y-63082D01*
X82037Y-63122D01*
X82007Y-63186D01*
X82250Y-63429D01*
X82492Y-63186D01*
X82492Y-63328D01*
X82320Y-63500D01*
X82563Y-63742D01*
X82627Y-63712D01*
X82680Y-63551D01*
X82680Y-64200D01*
X82492Y-64200D01*
X82492Y-63813D01*
X82250Y-63570D01*
X82179Y-63641D01*
X82179Y-63500D01*
X81936Y-63257D01*
X81872Y-63287D01*
X81819Y-63448D01*
X81832Y-63616D01*
X81872Y-63712D01*
X81936Y-63742D01*
X82179Y-63500D01*
X82179Y-63641D01*
X82007Y-63813D01*
X82037Y-63877D01*
X82198Y-63930D01*
X82366Y-63917D01*
X82462Y-63877D01*
X82492Y-63813D01*
X82492Y-64200D01*
X81775Y-64200D01*
X81775Y-63396D01*
X81695Y-63203D01*
X81547Y-63055D01*
X81354Y-62975D01*
X81146Y-62974D01*
X80953Y-63054D01*
X80805Y-63202D01*
X80749Y-63335D01*
X80695Y-63203D01*
X80547Y-63055D01*
X80354Y-62975D01*
X80146Y-62974D01*
X79953Y-63054D01*
X79805Y-63202D01*
X79749Y-63335D01*
X79695Y-63203D01*
X79547Y-63055D01*
X79354Y-62975D01*
X79146Y-62974D01*
X78953Y-63054D01*
X78805Y-63202D01*
X78749Y-63335D01*
X78695Y-63203D01*
X78547Y-63055D01*
X78354Y-62975D01*
X78146Y-62974D01*
X77953Y-63054D01*
X77805Y-63202D01*
X77749Y-63335D01*
X77695Y-63203D01*
X77547Y-63055D01*
X77354Y-62975D01*
X77146Y-62974D01*
X76953Y-63054D01*
X76805Y-63202D01*
X76775Y-63274D01*
X76775Y-63175D01*
X76737Y-63083D01*
X76666Y-63013D01*
X76574Y-62975D01*
X76475Y-62974D01*
X75925Y-62974D01*
X75833Y-63012D01*
X75763Y-63083D01*
X75725Y-63175D01*
X75724Y-63274D01*
X75724Y-63824D01*
X75762Y-63916D01*
X75833Y-63986D01*
X75925Y-64024D01*
X76024Y-64025D01*
X76574Y-64025D01*
X76666Y-63987D01*
X76736Y-63916D01*
X76774Y-63824D01*
X76775Y-63725D01*
X76775Y-63725D01*
X76804Y-63797D01*
X76952Y-63944D01*
X77145Y-64024D01*
X77353Y-64025D01*
X77547Y-63945D01*
X77694Y-63797D01*
X77750Y-63664D01*
X77804Y-63797D01*
X77952Y-63944D01*
X78145Y-64024D01*
X78353Y-64025D01*
X78547Y-63945D01*
X78694Y-63797D01*
X78750Y-63664D01*
X78804Y-63797D01*
X78952Y-63944D01*
X79145Y-64024D01*
X79353Y-64025D01*
X79547Y-63945D01*
X79694Y-63797D01*
X79750Y-63664D01*
X79804Y-63797D01*
X79952Y-63944D01*
X80145Y-64024D01*
X80353Y-64025D01*
X80547Y-63945D01*
X80694Y-63797D01*
X80750Y-63664D01*
X80804Y-63797D01*
X80952Y-63944D01*
X81145Y-64024D01*
X81353Y-64025D01*
X81547Y-63945D01*
X81694Y-63797D01*
X81774Y-63604D01*
X81775Y-63396D01*
X81775Y-64200D01*
X78250Y-64200D01*
X78135Y-64222D01*
X78037Y-64287D01*
X77537Y-64787D01*
X77472Y-64885D01*
X77450Y-65000D01*
X77450Y-65528D01*
X77438Y-65533D01*
X77284Y-65688D01*
X77279Y-65700D01*
X76551Y-65700D01*
X76491Y-65639D01*
X76334Y-65575D01*
X76165Y-65574D01*
X76009Y-65639D01*
X75889Y-65758D01*
X75825Y-65915D01*
X75824Y-66084D01*
X75889Y-66240D01*
X76008Y-66360D01*
X76165Y-66424D01*
X76334Y-66425D01*
X76490Y-66360D01*
X76551Y-66300D01*
X77278Y-66300D01*
X77283Y-66311D01*
X77438Y-66465D01*
X77640Y-66549D01*
X77858Y-66550D01*
X78061Y-66466D01*
X78215Y-66311D01*
X78299Y-66109D01*
X78300Y-65891D01*
X78216Y-65688D01*
X78061Y-65534D01*
X78050Y-65529D01*
X78050Y-65124D01*
X78374Y-64800D01*
X79872Y-64800D01*
X79825Y-64915D01*
X79824Y-65084D01*
X79889Y-65240D01*
X80008Y-65360D01*
X80165Y-65424D01*
X80334Y-65425D01*
X80490Y-65360D01*
X80551Y-65300D01*
X82448Y-65300D01*
X82508Y-65360D01*
X82665Y-65424D01*
X82834Y-65425D01*
X82990Y-65360D01*
X83110Y-65241D01*
X83174Y-65084D01*
X83175Y-64915D01*
X83127Y-64800D01*
X87448Y-64800D01*
X87508Y-64860D01*
X87665Y-64924D01*
X87834Y-64925D01*
X87990Y-64860D01*
X88110Y-64741D01*
X88174Y-64584D01*
X88175Y-64415D01*
X88175Y-65574D01*
X88165Y-65574D01*
X88009Y-65639D01*
X87948Y-65700D01*
X87221Y-65700D01*
X87216Y-65688D01*
X87064Y-65536D01*
X87110Y-65491D01*
X87174Y-65334D01*
X87175Y-65165D01*
X87110Y-65009D01*
X86991Y-64889D01*
X86834Y-64825D01*
X86665Y-64824D01*
X86509Y-64889D01*
X86448Y-64950D01*
X86051Y-64950D01*
X85991Y-64889D01*
X85834Y-64825D01*
X85665Y-64824D01*
X85509Y-64889D01*
X85389Y-65008D01*
X85325Y-65165D01*
X85324Y-65334D01*
X85389Y-65490D01*
X85508Y-65610D01*
X85665Y-65674D01*
X85834Y-65675D01*
X85990Y-65610D01*
X86051Y-65550D01*
X86422Y-65550D01*
X86284Y-65688D01*
X86279Y-65700D01*
X84721Y-65700D01*
X84716Y-65688D01*
X84561Y-65534D01*
X84359Y-65450D01*
X84141Y-65449D01*
X83938Y-65533D01*
X83784Y-65688D01*
X83700Y-65890D01*
X83699Y-66108D01*
X83783Y-66311D01*
X83938Y-66465D01*
X84140Y-66549D01*
X84358Y-66550D01*
X84561Y-66466D01*
X84715Y-66311D01*
X84720Y-66300D01*
X86278Y-66300D01*
X86283Y-66311D01*
X86422Y-66450D01*
X86051Y-66450D01*
X85991Y-66389D01*
X85834Y-66325D01*
X85665Y-66324D01*
X85509Y-66389D01*
X85389Y-66508D01*
X85325Y-66665D01*
X85324Y-66834D01*
X85389Y-66990D01*
X85508Y-67110D01*
X85665Y-67174D01*
X85834Y-67175D01*
X85990Y-67110D01*
X86051Y-67050D01*
X86625Y-67050D01*
X86627Y-67052D01*
X86508Y-67171D01*
X86420Y-67384D01*
X86419Y-67614D01*
X86508Y-67828D01*
X86671Y-67991D01*
X86815Y-68051D01*
X86754Y-68076D01*
X86717Y-68147D01*
X87000Y-68429D01*
X87282Y-68147D01*
X87245Y-68076D01*
X87178Y-68053D01*
X87328Y-67991D01*
X87491Y-67828D01*
X87503Y-67800D01*
X89948Y-67800D01*
X90008Y-67860D01*
X90165Y-67924D01*
X90334Y-67925D01*
X90490Y-67860D01*
X90610Y-67741D01*
X90674Y-67584D01*
X90675Y-67415D01*
X90675Y-68200D01*
X90551Y-68200D01*
X90491Y-68139D01*
X90334Y-68075D01*
X90165Y-68074D01*
X90009Y-68139D01*
X89889Y-68258D01*
X89825Y-68415D01*
X89824Y-68584D01*
X89889Y-68740D01*
X90008Y-68860D01*
X90165Y-68924D01*
X90334Y-68925D01*
X90490Y-68860D01*
X90551Y-68800D01*
X91746Y-68800D01*
X91758Y-68828D01*
X91921Y-68991D01*
X92134Y-69079D01*
X92364Y-69080D01*
X92578Y-68991D01*
X92741Y-68828D01*
X92829Y-68615D01*
X92830Y-68385D01*
X92830Y-69739D01*
X92662Y-69907D01*
X92559Y-70155D01*
X92558Y-70423D01*
X92661Y-70671D01*
X92851Y-70861D01*
X93063Y-70950D01*
X91436Y-70950D01*
X91647Y-70862D01*
X91837Y-70672D01*
X91940Y-70424D01*
X91941Y-70156D01*
X91838Y-69908D01*
X91648Y-69718D01*
X91400Y-69615D01*
X91132Y-69614D01*
X90884Y-69717D01*
X90694Y-69907D01*
X90591Y-70155D01*
X90590Y-70423D01*
X90693Y-70671D01*
X90883Y-70861D01*
X91095Y-70950D01*
X88154Y-70950D01*
X88365Y-70862D01*
X88555Y-70672D01*
X88658Y-70424D01*
X88659Y-70156D01*
X88556Y-69908D01*
X88366Y-69718D01*
X88118Y-69615D01*
X87850Y-69614D01*
X87602Y-69717D01*
X87485Y-69834D01*
X87485Y-68565D01*
X87473Y-68374D01*
X87423Y-68254D01*
X87352Y-68217D01*
X87070Y-68500D01*
X87352Y-68782D01*
X87423Y-68745D01*
X87485Y-68565D01*
X87485Y-69834D01*
X87412Y-69907D01*
X87309Y-70155D01*
X87308Y-70423D01*
X87411Y-70671D01*
X87601Y-70861D01*
X87813Y-70950D01*
X87282Y-70950D01*
X87282Y-68852D01*
X87000Y-68570D01*
X86929Y-68641D01*
X86929Y-68500D01*
X86647Y-68217D01*
X86576Y-68254D01*
X86514Y-68434D01*
X86526Y-68625D01*
X86576Y-68745D01*
X86647Y-68782D01*
X86929Y-68500D01*
X86929Y-68641D01*
X86717Y-68852D01*
X86754Y-68923D01*
X86934Y-68985D01*
X87125Y-68973D01*
X87245Y-68923D01*
X87282Y-68852D01*
X87282Y-70950D01*
X86186Y-70950D01*
X86397Y-70862D01*
X86587Y-70672D01*
X86690Y-70424D01*
X86691Y-70156D01*
X86588Y-69908D01*
X86398Y-69718D01*
X86150Y-69615D01*
X85882Y-69614D01*
X85634Y-69717D01*
X85444Y-69907D01*
X85341Y-70155D01*
X85340Y-70423D01*
X85443Y-70671D01*
X85633Y-70861D01*
X85845Y-70950D01*
X84051Y-70950D01*
X83991Y-70889D01*
X83834Y-70825D01*
X83665Y-70824D01*
X83509Y-70889D01*
X83409Y-70989D01*
X83409Y-70156D01*
X83306Y-69908D01*
X83116Y-69718D01*
X82868Y-69615D01*
X82600Y-69614D01*
X82352Y-69717D01*
X82330Y-69739D01*
X82330Y-68385D01*
X82241Y-68171D01*
X82078Y-68008D01*
X82058Y-68000D01*
X82078Y-67991D01*
X82241Y-67828D01*
X82329Y-67615D01*
X82330Y-67385D01*
X82241Y-67171D01*
X82078Y-67008D01*
X81865Y-66920D01*
X81675Y-66919D01*
X81675Y-66415D01*
X81610Y-66259D01*
X81491Y-66139D01*
X81334Y-66075D01*
X81165Y-66074D01*
X81009Y-66139D01*
X80889Y-66258D01*
X80825Y-66415D01*
X80824Y-66500D01*
X80800Y-66525D01*
X80800Y-65891D01*
X80716Y-65688D01*
X80561Y-65534D01*
X80359Y-65450D01*
X80141Y-65449D01*
X79938Y-65533D01*
X79784Y-65688D01*
X79700Y-65890D01*
X79699Y-66108D01*
X79783Y-66311D01*
X79938Y-66465D01*
X80140Y-66549D01*
X80358Y-66550D01*
X80561Y-66466D01*
X80715Y-66311D01*
X80799Y-66109D01*
X80800Y-65891D01*
X80800Y-66525D01*
X80375Y-66950D01*
X80051Y-66950D01*
X79991Y-66889D01*
X79834Y-66825D01*
X79665Y-66824D01*
X79509Y-66889D01*
X79389Y-67008D01*
X79325Y-67165D01*
X79324Y-67334D01*
X79389Y-67490D01*
X79508Y-67610D01*
X79665Y-67674D01*
X79834Y-67675D01*
X79990Y-67610D01*
X80051Y-67550D01*
X80500Y-67550D01*
X80500Y-67549D01*
X80614Y-67527D01*
X80614Y-67527D01*
X80712Y-67462D01*
X81249Y-66924D01*
X81334Y-66925D01*
X81490Y-66860D01*
X81610Y-66741D01*
X81674Y-66584D01*
X81675Y-66415D01*
X81675Y-66919D01*
X81635Y-66919D01*
X81421Y-67008D01*
X81258Y-67171D01*
X81170Y-67384D01*
X81169Y-67614D01*
X81258Y-67828D01*
X81421Y-67991D01*
X81441Y-67999D01*
X81421Y-68008D01*
X81258Y-68171D01*
X81246Y-68200D01*
X79175Y-68200D01*
X79175Y-67415D01*
X79110Y-67259D01*
X78991Y-67139D01*
X78834Y-67075D01*
X78665Y-67074D01*
X78509Y-67139D01*
X78448Y-67200D01*
X77003Y-67200D01*
X76991Y-67171D01*
X76828Y-67008D01*
X76615Y-66920D01*
X76385Y-66919D01*
X76171Y-67008D01*
X76008Y-67171D01*
X75920Y-67384D01*
X75919Y-67614D01*
X76008Y-67828D01*
X76171Y-67991D01*
X76315Y-68051D01*
X76254Y-68076D01*
X76217Y-68147D01*
X76500Y-68429D01*
X76782Y-68147D01*
X76745Y-68076D01*
X76678Y-68053D01*
X76828Y-67991D01*
X76991Y-67828D01*
X77003Y-67800D01*
X78448Y-67800D01*
X78508Y-67860D01*
X78665Y-67924D01*
X78834Y-67925D01*
X78990Y-67860D01*
X79110Y-67741D01*
X79174Y-67584D01*
X79175Y-67415D01*
X79175Y-68200D01*
X79051Y-68200D01*
X78991Y-68139D01*
X78834Y-68075D01*
X78665Y-68074D01*
X78509Y-68139D01*
X78389Y-68258D01*
X78325Y-68415D01*
X78324Y-68584D01*
X78389Y-68740D01*
X78508Y-68860D01*
X78665Y-68924D01*
X78834Y-68925D01*
X78990Y-68860D01*
X79051Y-68800D01*
X81246Y-68800D01*
X81258Y-68828D01*
X81421Y-68991D01*
X81634Y-69079D01*
X81864Y-69080D01*
X82078Y-68991D01*
X82241Y-68828D01*
X82329Y-68615D01*
X82330Y-68385D01*
X82330Y-69739D01*
X82162Y-69907D01*
X82059Y-70155D01*
X82058Y-70423D01*
X82161Y-70671D01*
X82351Y-70861D01*
X82599Y-70964D01*
X82867Y-70965D01*
X83115Y-70862D01*
X83305Y-70672D01*
X83408Y-70424D01*
X83409Y-70156D01*
X83409Y-70989D01*
X83389Y-71008D01*
X83325Y-71165D01*
X83324Y-71334D01*
X83389Y-71490D01*
X83508Y-71610D01*
X83665Y-71674D01*
X83834Y-71675D01*
X83990Y-71610D01*
X84051Y-71550D01*
X91872Y-71550D01*
X91825Y-71665D01*
X91824Y-71834D01*
X91889Y-71990D01*
X92008Y-72110D01*
X92165Y-72174D01*
X92334Y-72175D01*
X92490Y-72110D01*
X92551Y-72050D01*
X103448Y-72050D01*
X103508Y-72110D01*
X103665Y-72174D01*
X103834Y-72175D01*
X103990Y-72110D01*
X104110Y-71991D01*
X104174Y-71834D01*
X104175Y-71665D01*
X104175Y-74696D01*
X104116Y-74638D01*
X103868Y-74535D01*
X103600Y-74534D01*
X103352Y-74637D01*
X103162Y-74827D01*
X103059Y-75075D01*
X103058Y-75343D01*
X103161Y-75591D01*
X103351Y-75781D01*
X103599Y-75884D01*
X103867Y-75885D01*
X104115Y-75782D01*
X104305Y-75592D01*
X104408Y-75344D01*
X104409Y-75076D01*
X104409Y-75950D01*
X102441Y-75950D01*
X102441Y-75076D01*
X102338Y-74828D01*
X102148Y-74638D01*
X101900Y-74535D01*
X101632Y-74534D01*
X101384Y-74637D01*
X101194Y-74827D01*
X101091Y-75075D01*
X101090Y-75343D01*
X101193Y-75591D01*
X101383Y-75781D01*
X101631Y-75884D01*
X101899Y-75885D01*
X102147Y-75782D01*
X102337Y-75592D01*
X102440Y-75344D01*
X102441Y-75076D01*
X102441Y-75950D01*
X99159Y-75950D01*
X99159Y-75076D01*
X99056Y-74828D01*
X98925Y-74696D01*
X98925Y-72665D01*
X98860Y-72509D01*
X98741Y-72389D01*
X98584Y-72325D01*
X98415Y-72324D01*
X98259Y-72389D01*
X98198Y-72450D01*
X89551Y-72450D01*
X89491Y-72389D01*
X89334Y-72325D01*
X89165Y-72324D01*
X89009Y-72389D01*
X88889Y-72508D01*
X88825Y-72665D01*
X88824Y-72834D01*
X88889Y-72990D01*
X89008Y-73110D01*
X89165Y-73174D01*
X89334Y-73175D01*
X89490Y-73110D01*
X89551Y-73050D01*
X98198Y-73050D01*
X98258Y-73110D01*
X98415Y-73174D01*
X98584Y-73175D01*
X98740Y-73110D01*
X98860Y-72991D01*
X98924Y-72834D01*
X98925Y-72665D01*
X98925Y-74696D01*
X98866Y-74638D01*
X98618Y-74535D01*
X98350Y-74534D01*
X98102Y-74637D01*
X97912Y-74827D01*
X97809Y-75075D01*
X97808Y-75343D01*
X97911Y-75591D01*
X98101Y-75781D01*
X98349Y-75884D01*
X98617Y-75885D01*
X98865Y-75782D01*
X99055Y-75592D01*
X99158Y-75344D01*
X99159Y-75076D01*
X99159Y-75950D01*
X97191Y-75950D01*
X97191Y-75076D01*
X97088Y-74828D01*
X96898Y-74638D01*
X96650Y-74535D01*
X96382Y-74534D01*
X96134Y-74637D01*
X95944Y-74827D01*
X95841Y-75075D01*
X95840Y-75343D01*
X95943Y-75591D01*
X96133Y-75781D01*
X96381Y-75884D01*
X96649Y-75885D01*
X96897Y-75782D01*
X97087Y-75592D01*
X97190Y-75344D01*
X97191Y-75076D01*
X97191Y-75950D01*
X93909Y-75950D01*
X93909Y-75076D01*
X93806Y-74828D01*
X93675Y-74696D01*
X93675Y-73665D01*
X93610Y-73509D01*
X93491Y-73389D01*
X93334Y-73325D01*
X93165Y-73324D01*
X93009Y-73389D01*
X92948Y-73450D01*
X85051Y-73450D01*
X84991Y-73389D01*
X84834Y-73325D01*
X84665Y-73324D01*
X84509Y-73389D01*
X84389Y-73508D01*
X84325Y-73665D01*
X84324Y-73834D01*
X84372Y-73950D01*
X81441Y-73950D01*
X81441Y-70156D01*
X81338Y-69908D01*
X81148Y-69718D01*
X80900Y-69615D01*
X80632Y-69614D01*
X80384Y-69717D01*
X80194Y-69907D01*
X80091Y-70155D01*
X80090Y-70423D01*
X80193Y-70671D01*
X80383Y-70861D01*
X80631Y-70964D01*
X80899Y-70965D01*
X81147Y-70862D01*
X81337Y-70672D01*
X81440Y-70424D01*
X81441Y-70156D01*
X81441Y-73950D01*
X80051Y-73950D01*
X79991Y-73889D01*
X79834Y-73825D01*
X79665Y-73824D01*
X79509Y-73889D01*
X79389Y-74008D01*
X79325Y-74165D01*
X79324Y-74334D01*
X79389Y-74490D01*
X79508Y-74610D01*
X79665Y-74674D01*
X79834Y-74675D01*
X79990Y-74610D01*
X80051Y-74550D01*
X80595Y-74550D01*
X80384Y-74637D01*
X80194Y-74827D01*
X80091Y-75075D01*
X80090Y-75343D01*
X80193Y-75591D01*
X80383Y-75781D01*
X80631Y-75884D01*
X80899Y-75885D01*
X81147Y-75782D01*
X81337Y-75592D01*
X81440Y-75344D01*
X81441Y-75076D01*
X81338Y-74828D01*
X81148Y-74638D01*
X80936Y-74550D01*
X82563Y-74550D01*
X82352Y-74637D01*
X82162Y-74827D01*
X82059Y-75075D01*
X82058Y-75343D01*
X82161Y-75591D01*
X82351Y-75781D01*
X82599Y-75884D01*
X82867Y-75885D01*
X83115Y-75782D01*
X83305Y-75592D01*
X83408Y-75344D01*
X83409Y-75076D01*
X83306Y-74828D01*
X83116Y-74638D01*
X82904Y-74550D01*
X85845Y-74550D01*
X85634Y-74637D01*
X85444Y-74827D01*
X85341Y-75075D01*
X85340Y-75343D01*
X85443Y-75591D01*
X85633Y-75781D01*
X85881Y-75884D01*
X86149Y-75885D01*
X86397Y-75782D01*
X86587Y-75592D01*
X86690Y-75344D01*
X86691Y-75076D01*
X86588Y-74828D01*
X86398Y-74638D01*
X86186Y-74550D01*
X87500Y-74550D01*
X87593Y-74550D01*
X87658Y-74614D01*
X87602Y-74637D01*
X87412Y-74827D01*
X87309Y-75075D01*
X87308Y-75343D01*
X87411Y-75591D01*
X87601Y-75781D01*
X87849Y-75884D01*
X88117Y-75885D01*
X88365Y-75782D01*
X88555Y-75592D01*
X88658Y-75344D01*
X88659Y-75076D01*
X88556Y-74828D01*
X88366Y-74638D01*
X88284Y-74603D01*
X88284Y-74516D01*
X88261Y-74401D01*
X88196Y-74303D01*
X88196Y-74303D01*
X87942Y-74050D01*
X92948Y-74050D01*
X93008Y-74110D01*
X93165Y-74174D01*
X93334Y-74175D01*
X93490Y-74110D01*
X93610Y-73991D01*
X93674Y-73834D01*
X93675Y-73665D01*
X93675Y-74696D01*
X93616Y-74638D01*
X93368Y-74535D01*
X93100Y-74534D01*
X92852Y-74637D01*
X92662Y-74827D01*
X92559Y-75075D01*
X92558Y-75343D01*
X92661Y-75591D01*
X92851Y-75781D01*
X93099Y-75884D01*
X93367Y-75885D01*
X93615Y-75782D01*
X93805Y-75592D01*
X93908Y-75344D01*
X93909Y-75076D01*
X93909Y-75950D01*
X91941Y-75950D01*
X91941Y-75076D01*
X91838Y-74828D01*
X91648Y-74638D01*
X91400Y-74535D01*
X91132Y-74534D01*
X90884Y-74637D01*
X90694Y-74827D01*
X90591Y-75075D01*
X90590Y-75343D01*
X90693Y-75591D01*
X90883Y-75781D01*
X91131Y-75884D01*
X91399Y-75885D01*
X91647Y-75782D01*
X91837Y-75592D01*
X91940Y-75344D01*
X91941Y-75076D01*
X91941Y-75950D01*
X79675Y-75950D01*
X79675Y-75165D01*
X79610Y-75009D01*
X79491Y-74889D01*
X79334Y-74825D01*
X79165Y-74824D01*
X79009Y-74889D01*
X78989Y-74910D01*
X78675Y-74910D01*
X78675Y-71415D01*
X78610Y-71259D01*
X78491Y-71139D01*
X78334Y-71075D01*
X78165Y-71074D01*
X78159Y-71077D01*
X78159Y-70156D01*
X78056Y-69908D01*
X77866Y-69718D01*
X77618Y-69615D01*
X77350Y-69614D01*
X77102Y-69717D01*
X76985Y-69834D01*
X76985Y-68565D01*
X76973Y-68374D01*
X76923Y-68254D01*
X76852Y-68217D01*
X76570Y-68500D01*
X76852Y-68782D01*
X76923Y-68745D01*
X76985Y-68565D01*
X76985Y-69834D01*
X76912Y-69907D01*
X76809Y-70155D01*
X76808Y-70423D01*
X76911Y-70671D01*
X77101Y-70861D01*
X77349Y-70964D01*
X77617Y-70965D01*
X77865Y-70862D01*
X78055Y-70672D01*
X78158Y-70424D01*
X78159Y-70156D01*
X78159Y-71077D01*
X78009Y-71139D01*
X77889Y-71258D01*
X77825Y-71415D01*
X77824Y-71500D01*
X77125Y-72200D01*
X76925Y-72200D01*
X76925Y-70915D01*
X76860Y-70759D01*
X76782Y-70681D01*
X76782Y-68852D01*
X76500Y-68570D01*
X76429Y-68641D01*
X76429Y-68500D01*
X76147Y-68217D01*
X76076Y-68254D01*
X76014Y-68434D01*
X76026Y-68625D01*
X76076Y-68745D01*
X76147Y-68782D01*
X76429Y-68500D01*
X76429Y-68641D01*
X76217Y-68852D01*
X76254Y-68923D01*
X76434Y-68985D01*
X76625Y-68973D01*
X76745Y-68923D01*
X76782Y-68852D01*
X76782Y-70681D01*
X76741Y-70639D01*
X76584Y-70575D01*
X76415Y-70574D01*
X76259Y-70639D01*
X76191Y-70707D01*
X76191Y-70156D01*
X76088Y-69908D01*
X75898Y-69718D01*
X75675Y-69625D01*
X75675Y-68415D01*
X75610Y-68259D01*
X75491Y-68139D01*
X75334Y-68075D01*
X75165Y-68074D01*
X75009Y-68139D01*
X74948Y-68200D01*
X74205Y-68200D01*
X74205Y-66057D01*
X74192Y-65879D01*
X74148Y-65772D01*
X74081Y-65739D01*
X74010Y-65810D01*
X74010Y-65668D01*
X73977Y-65601D01*
X73807Y-65544D01*
X73675Y-65554D01*
X73675Y-64304D01*
X73675Y-63695D01*
X73652Y-63640D01*
X73610Y-63597D01*
X73554Y-63575D01*
X73495Y-63574D01*
X73337Y-63575D01*
X73300Y-63612D01*
X73300Y-63950D01*
X73637Y-63950D01*
X73675Y-63912D01*
X73675Y-63695D01*
X73675Y-64304D01*
X73675Y-64087D01*
X73637Y-64050D01*
X73300Y-64050D01*
X73300Y-64387D01*
X73337Y-64425D01*
X73495Y-64425D01*
X73554Y-64424D01*
X73610Y-64402D01*
X73652Y-64359D01*
X73675Y-64304D01*
X73675Y-65554D01*
X73629Y-65557D01*
X73522Y-65601D01*
X73489Y-65668D01*
X73750Y-65929D01*
X74010Y-65668D01*
X74010Y-65810D01*
X73820Y-66000D01*
X74081Y-66260D01*
X74148Y-66227D01*
X74205Y-66057D01*
X74205Y-68200D01*
X74010Y-68200D01*
X74010Y-66331D01*
X73750Y-66070D01*
X73679Y-66141D01*
X73679Y-66000D01*
X73418Y-65739D01*
X73351Y-65772D01*
X73294Y-65942D01*
X73307Y-66120D01*
X73351Y-66227D01*
X73418Y-66260D01*
X73679Y-66000D01*
X73679Y-66141D01*
X73489Y-66331D01*
X73522Y-66398D01*
X73692Y-66455D01*
X73870Y-66442D01*
X73977Y-66398D01*
X74010Y-66331D01*
X74010Y-68200D01*
X73200Y-68200D01*
X73200Y-64387D01*
X73200Y-64050D01*
X73200Y-63950D01*
X73200Y-63612D01*
X73162Y-63575D01*
X73004Y-63574D01*
X72945Y-63575D01*
X72889Y-63597D01*
X72847Y-63640D01*
X72824Y-63695D01*
X72825Y-63912D01*
X72862Y-63950D01*
X73200Y-63950D01*
X73200Y-64050D01*
X72862Y-64050D01*
X72825Y-64087D01*
X72824Y-64304D01*
X72847Y-64359D01*
X72889Y-64402D01*
X72945Y-64424D01*
X73004Y-64425D01*
X73162Y-64425D01*
X73200Y-64387D01*
X73200Y-68200D01*
X72180Y-68200D01*
X72180Y-66051D01*
X72167Y-65883D01*
X72127Y-65787D01*
X72063Y-65757D01*
X71992Y-65828D01*
X71992Y-65686D01*
X71962Y-65622D01*
X71801Y-65569D01*
X71800Y-65569D01*
X71800Y-61250D01*
X71800Y-58750D01*
X71777Y-58635D01*
X71712Y-58537D01*
X71712Y-58537D01*
X71462Y-58287D01*
X71364Y-58222D01*
X71250Y-58200D01*
X70971Y-58200D01*
X70966Y-58188D01*
X70811Y-58034D01*
X70609Y-57950D01*
X70391Y-57949D01*
X70188Y-58033D01*
X70073Y-58148D01*
X69712Y-57787D01*
X69614Y-57722D01*
X69500Y-57700D01*
X69442Y-57700D01*
X69297Y-57555D01*
X69104Y-57475D01*
X68896Y-57474D01*
X68703Y-57554D01*
X68555Y-57702D01*
X68475Y-57895D01*
X68474Y-58103D01*
X68554Y-58297D01*
X68702Y-58444D01*
X68835Y-58500D01*
X68703Y-58554D01*
X68555Y-58702D01*
X68475Y-58895D01*
X68474Y-59103D01*
X68554Y-59297D01*
X68702Y-59444D01*
X68895Y-59524D01*
X69103Y-59525D01*
X69297Y-59445D01*
X69444Y-59297D01*
X69524Y-59104D01*
X69525Y-58896D01*
X69445Y-58703D01*
X69297Y-58555D01*
X69164Y-58499D01*
X69297Y-58445D01*
X69409Y-58333D01*
X69787Y-58712D01*
X69787Y-58712D01*
X69885Y-58777D01*
X70000Y-58800D01*
X70028Y-58800D01*
X70033Y-58811D01*
X70188Y-58965D01*
X70390Y-59049D01*
X70608Y-59050D01*
X70811Y-58966D01*
X70965Y-58811D01*
X70970Y-58800D01*
X71125Y-58800D01*
X71200Y-58874D01*
X71200Y-61125D01*
X71037Y-61287D01*
X71037Y-61287D01*
X70787Y-61537D01*
X70787Y-61537D01*
X70659Y-61666D01*
X70547Y-61555D01*
X70414Y-61499D01*
X70547Y-61445D01*
X70694Y-61297D01*
X70774Y-61104D01*
X70775Y-60896D01*
X70695Y-60703D01*
X70547Y-60555D01*
X70354Y-60475D01*
X70146Y-60474D01*
X69953Y-60554D01*
X69805Y-60702D01*
X69725Y-60895D01*
X69724Y-61103D01*
X69804Y-61297D01*
X69952Y-61444D01*
X70085Y-61500D01*
X69953Y-61554D01*
X69805Y-61702D01*
X69725Y-61895D01*
X69724Y-62103D01*
X69804Y-62297D01*
X69952Y-62444D01*
X70085Y-62500D01*
X69953Y-62554D01*
X69805Y-62702D01*
X69725Y-62895D01*
X69724Y-63103D01*
X69804Y-63297D01*
X69952Y-63444D01*
X70085Y-63500D01*
X69953Y-63554D01*
X69840Y-63666D01*
X69050Y-62875D01*
X69050Y-60971D01*
X69061Y-60966D01*
X69215Y-60811D01*
X69299Y-60609D01*
X69300Y-60391D01*
X69216Y-60188D01*
X69061Y-60034D01*
X68859Y-59950D01*
X68641Y-59949D01*
X68438Y-60033D01*
X68284Y-60188D01*
X68200Y-60390D01*
X68199Y-60608D01*
X68283Y-60811D01*
X68438Y-60965D01*
X68450Y-60970D01*
X68450Y-63000D01*
X68472Y-63114D01*
X68537Y-63212D01*
X69537Y-64212D01*
X69537Y-64212D01*
X69635Y-64277D01*
X69750Y-64300D01*
X69807Y-64300D01*
X69952Y-64444D01*
X70145Y-64524D01*
X70353Y-64525D01*
X70547Y-64445D01*
X70694Y-64297D01*
X70774Y-64104D01*
X70775Y-63896D01*
X70695Y-63703D01*
X70547Y-63555D01*
X70414Y-63499D01*
X70547Y-63445D01*
X70694Y-63297D01*
X70774Y-63104D01*
X70775Y-62896D01*
X70695Y-62703D01*
X70547Y-62555D01*
X70414Y-62499D01*
X70547Y-62445D01*
X70692Y-62300D01*
X70750Y-62300D01*
X70750Y-62299D01*
X70864Y-62277D01*
X70864Y-62277D01*
X70962Y-62212D01*
X71212Y-61962D01*
X71212Y-61962D01*
X71212Y-61962D01*
X71462Y-61712D01*
X71462Y-61712D01*
X71462Y-61712D01*
X71712Y-61462D01*
X71712Y-61462D01*
X71777Y-61364D01*
X71799Y-61250D01*
X71800Y-61250D01*
X71800Y-65569D01*
X71633Y-65582D01*
X71537Y-65622D01*
X71507Y-65686D01*
X71750Y-65929D01*
X71992Y-65686D01*
X71992Y-65828D01*
X71820Y-66000D01*
X72063Y-66242D01*
X72127Y-66212D01*
X72180Y-66051D01*
X72180Y-68200D01*
X71992Y-68200D01*
X71992Y-66313D01*
X71750Y-66070D01*
X71679Y-66141D01*
X71679Y-66000D01*
X71436Y-65757D01*
X71372Y-65787D01*
X71319Y-65948D01*
X71332Y-66116D01*
X71372Y-66212D01*
X71436Y-66242D01*
X71679Y-66000D01*
X71679Y-66141D01*
X71507Y-66313D01*
X71537Y-66377D01*
X71698Y-66430D01*
X71866Y-66417D01*
X71962Y-66377D01*
X71992Y-66313D01*
X71992Y-68200D01*
X71753Y-68200D01*
X71741Y-68171D01*
X71578Y-68008D01*
X71558Y-68000D01*
X71578Y-67991D01*
X71741Y-67828D01*
X71829Y-67615D01*
X71830Y-67385D01*
X71741Y-67171D01*
X71578Y-67008D01*
X71365Y-66920D01*
X71275Y-66920D01*
X71275Y-65896D01*
X71195Y-65703D01*
X71047Y-65555D01*
X70854Y-65475D01*
X70646Y-65474D01*
X70453Y-65554D01*
X70305Y-65702D01*
X70225Y-65895D01*
X70224Y-66103D01*
X70304Y-66297D01*
X70452Y-66444D01*
X70645Y-66524D01*
X70853Y-66525D01*
X71047Y-66445D01*
X71194Y-66297D01*
X71274Y-66104D01*
X71275Y-65896D01*
X71275Y-66920D01*
X71135Y-66919D01*
X70921Y-67008D01*
X70758Y-67171D01*
X70670Y-67384D01*
X70669Y-67614D01*
X70758Y-67828D01*
X70921Y-67991D01*
X70941Y-67999D01*
X70921Y-68008D01*
X70758Y-68171D01*
X70746Y-68200D01*
X69300Y-68200D01*
X69300Y-64391D01*
X69216Y-64188D01*
X69061Y-64034D01*
X68859Y-63950D01*
X68641Y-63949D01*
X68438Y-64033D01*
X68284Y-64188D01*
X68279Y-64200D01*
X68250Y-64200D01*
X68135Y-64222D01*
X68037Y-64287D01*
X67537Y-64787D01*
X67472Y-64885D01*
X67450Y-65000D01*
X67450Y-65557D01*
X67307Y-65700D01*
X67300Y-65700D01*
X67300Y-64391D01*
X67300Y-60391D01*
X67216Y-60188D01*
X67061Y-60034D01*
X66859Y-59950D01*
X66641Y-59949D01*
X66438Y-60033D01*
X66284Y-60188D01*
X66200Y-60390D01*
X66199Y-60608D01*
X66283Y-60811D01*
X66438Y-60965D01*
X66640Y-61049D01*
X66858Y-61050D01*
X67061Y-60966D01*
X67215Y-60811D01*
X67299Y-60609D01*
X67300Y-60391D01*
X67300Y-64391D01*
X67216Y-64188D01*
X67061Y-64034D01*
X67050Y-64029D01*
X67050Y-62000D01*
X67027Y-61885D01*
X66962Y-61787D01*
X66493Y-61319D01*
X66396Y-61254D01*
X66281Y-61231D01*
X65055Y-61231D01*
X65050Y-61225D01*
X65050Y-60250D01*
X65050Y-59692D01*
X65194Y-59547D01*
X65250Y-59414D01*
X65304Y-59547D01*
X65452Y-59694D01*
X65645Y-59774D01*
X65853Y-59775D01*
X66047Y-59695D01*
X66194Y-59547D01*
X66274Y-59354D01*
X66275Y-59146D01*
X66195Y-58953D01*
X66050Y-58807D01*
X66050Y-58750D01*
X66027Y-58635D01*
X65962Y-58537D01*
X65962Y-58537D01*
X65712Y-58287D01*
X65614Y-58222D01*
X65500Y-58200D01*
X63000Y-58200D01*
X62885Y-58222D01*
X62787Y-58287D01*
X61287Y-59787D01*
X61222Y-59885D01*
X61200Y-60000D01*
X61200Y-60500D01*
X61200Y-63147D01*
X61162Y-63057D01*
X60943Y-62837D01*
X60656Y-62718D01*
X60345Y-62718D01*
X60057Y-62837D01*
X59837Y-63056D01*
X59718Y-63343D01*
X59718Y-63654D01*
X59837Y-63942D01*
X60056Y-64162D01*
X60343Y-64281D01*
X60654Y-64281D01*
X60942Y-64162D01*
X61162Y-63943D01*
X61200Y-63852D01*
X61200Y-66750D01*
X61222Y-66864D01*
X61287Y-66962D01*
X62398Y-68073D01*
X62284Y-68188D01*
X62200Y-68390D01*
X62199Y-68608D01*
X62283Y-68811D01*
X62438Y-68965D01*
X62450Y-68970D01*
X62450Y-69875D01*
X62125Y-70200D01*
X61221Y-70200D01*
X61216Y-70188D01*
X61061Y-70034D01*
X60980Y-70000D01*
X61061Y-69966D01*
X61215Y-69811D01*
X61299Y-69609D01*
X61300Y-69391D01*
X61216Y-69188D01*
X61061Y-69034D01*
X60859Y-68950D01*
X60641Y-68949D01*
X60438Y-69033D01*
X60284Y-69188D01*
X60200Y-69390D01*
X60199Y-69608D01*
X60283Y-69811D01*
X60438Y-69965D01*
X60519Y-69999D01*
X60438Y-70033D01*
X60284Y-70188D01*
X60200Y-70390D01*
X60199Y-70608D01*
X60283Y-70811D01*
X60438Y-70965D01*
X60519Y-70999D01*
X60438Y-71033D01*
X60284Y-71188D01*
X60200Y-71390D01*
X60199Y-71608D01*
X60283Y-71811D01*
X60438Y-71965D01*
X60640Y-72049D01*
X60858Y-72050D01*
X61061Y-71966D01*
X61215Y-71811D01*
X61299Y-71609D01*
X61300Y-71391D01*
X61216Y-71188D01*
X61061Y-71034D01*
X60980Y-71000D01*
X61061Y-70966D01*
X61215Y-70811D01*
X61220Y-70800D01*
X62250Y-70800D01*
X62250Y-70799D01*
X62364Y-70777D01*
X62364Y-70777D01*
X62462Y-70712D01*
X62962Y-70212D01*
X62962Y-70212D01*
X63027Y-70114D01*
X63049Y-70000D01*
X63050Y-70000D01*
X63050Y-68971D01*
X63061Y-68966D01*
X63215Y-68811D01*
X63299Y-68609D01*
X63300Y-68391D01*
X63216Y-68188D01*
X63061Y-68034D01*
X63050Y-68029D01*
X63050Y-68000D01*
X63027Y-67885D01*
X62962Y-67787D01*
X61800Y-66625D01*
X61800Y-65897D01*
X61805Y-65910D01*
X62025Y-66130D01*
X62312Y-66249D01*
X62623Y-66250D01*
X62910Y-66131D01*
X63130Y-65911D01*
X63190Y-65768D01*
X66531Y-65768D01*
X66531Y-65768D01*
X66646Y-65745D01*
X66646Y-65745D01*
X66743Y-65680D01*
X66962Y-65462D01*
X66962Y-65462D01*
X67027Y-65364D01*
X67049Y-65250D01*
X67050Y-65250D01*
X67050Y-64971D01*
X67061Y-64966D01*
X67215Y-64811D01*
X67299Y-64609D01*
X67300Y-64391D01*
X67300Y-65700D01*
X67000Y-65700D01*
X66885Y-65722D01*
X66787Y-65787D01*
X66375Y-66200D01*
X64750Y-66200D01*
X64635Y-66222D01*
X64537Y-66287D01*
X64037Y-66787D01*
X63972Y-66885D01*
X63950Y-67000D01*
X63950Y-67198D01*
X63889Y-67258D01*
X63825Y-67415D01*
X63824Y-67584D01*
X63889Y-67740D01*
X64008Y-67860D01*
X64165Y-67924D01*
X64334Y-67925D01*
X64490Y-67860D01*
X64610Y-67741D01*
X64674Y-67584D01*
X64675Y-67415D01*
X64610Y-67259D01*
X64550Y-67198D01*
X64550Y-67124D01*
X64874Y-66800D01*
X66500Y-66800D01*
X66500Y-66799D01*
X66614Y-66777D01*
X66614Y-66777D01*
X66712Y-66712D01*
X67124Y-66300D01*
X67307Y-66300D01*
X67452Y-66444D01*
X67645Y-66524D01*
X67853Y-66525D01*
X68047Y-66445D01*
X68194Y-66297D01*
X68250Y-66164D01*
X68304Y-66297D01*
X68452Y-66444D01*
X68645Y-66524D01*
X68853Y-66525D01*
X69047Y-66445D01*
X69194Y-66297D01*
X69274Y-66104D01*
X69275Y-65896D01*
X69195Y-65703D01*
X69047Y-65555D01*
X68854Y-65475D01*
X68646Y-65474D01*
X68453Y-65554D01*
X68305Y-65702D01*
X68249Y-65835D01*
X68195Y-65703D01*
X68050Y-65557D01*
X68050Y-65124D01*
X68323Y-64851D01*
X68438Y-64965D01*
X68640Y-65049D01*
X68858Y-65050D01*
X69061Y-64966D01*
X69215Y-64811D01*
X69299Y-64609D01*
X69300Y-64391D01*
X69300Y-68200D01*
X69175Y-68200D01*
X69175Y-67415D01*
X69110Y-67259D01*
X68991Y-67139D01*
X68834Y-67075D01*
X68665Y-67074D01*
X68509Y-67139D01*
X68448Y-67200D01*
X66503Y-67200D01*
X66491Y-67171D01*
X66328Y-67008D01*
X66115Y-66920D01*
X65885Y-66919D01*
X65671Y-67008D01*
X65508Y-67171D01*
X65420Y-67384D01*
X65419Y-67614D01*
X65508Y-67828D01*
X65671Y-67991D01*
X65815Y-68051D01*
X65754Y-68076D01*
X65717Y-68147D01*
X66000Y-68429D01*
X66282Y-68147D01*
X66245Y-68076D01*
X66178Y-68053D01*
X66328Y-67991D01*
X66491Y-67828D01*
X66503Y-67800D01*
X68448Y-67800D01*
X68508Y-67860D01*
X68665Y-67924D01*
X68834Y-67925D01*
X68990Y-67860D01*
X69110Y-67741D01*
X69174Y-67584D01*
X69175Y-67415D01*
X69175Y-68200D01*
X69051Y-68200D01*
X68991Y-68139D01*
X68834Y-68075D01*
X68665Y-68074D01*
X68509Y-68139D01*
X68389Y-68258D01*
X68325Y-68415D01*
X68324Y-68584D01*
X68389Y-68740D01*
X68508Y-68860D01*
X68665Y-68924D01*
X68834Y-68925D01*
X68990Y-68860D01*
X69051Y-68800D01*
X70746Y-68800D01*
X70758Y-68828D01*
X70921Y-68991D01*
X71134Y-69079D01*
X71364Y-69080D01*
X71578Y-68991D01*
X71741Y-68828D01*
X71753Y-68800D01*
X74948Y-68800D01*
X75008Y-68860D01*
X75165Y-68924D01*
X75334Y-68925D01*
X75490Y-68860D01*
X75610Y-68741D01*
X75674Y-68584D01*
X75675Y-68415D01*
X75675Y-69625D01*
X75650Y-69615D01*
X75382Y-69614D01*
X75134Y-69717D01*
X74944Y-69907D01*
X74841Y-70155D01*
X74840Y-70423D01*
X74943Y-70671D01*
X75133Y-70861D01*
X75381Y-70964D01*
X75649Y-70965D01*
X75897Y-70862D01*
X76087Y-70672D01*
X76190Y-70424D01*
X76191Y-70156D01*
X76191Y-70707D01*
X76139Y-70758D01*
X76075Y-70915D01*
X76074Y-71000D01*
X75875Y-71200D01*
X72909Y-71200D01*
X72909Y-70156D01*
X72806Y-69908D01*
X72616Y-69718D01*
X72368Y-69615D01*
X72100Y-69614D01*
X71852Y-69717D01*
X71662Y-69907D01*
X71559Y-70155D01*
X71558Y-70423D01*
X71661Y-70671D01*
X71851Y-70861D01*
X72099Y-70964D01*
X72367Y-70965D01*
X72615Y-70862D01*
X72805Y-70672D01*
X72908Y-70424D01*
X72909Y-70156D01*
X72909Y-71200D01*
X70941Y-71200D01*
X70941Y-70156D01*
X70838Y-69908D01*
X70648Y-69718D01*
X70400Y-69615D01*
X70132Y-69614D01*
X69884Y-69717D01*
X69694Y-69907D01*
X69591Y-70155D01*
X69590Y-70423D01*
X69693Y-70671D01*
X69883Y-70861D01*
X70131Y-70964D01*
X70399Y-70965D01*
X70647Y-70862D01*
X70837Y-70672D01*
X70940Y-70424D01*
X70941Y-70156D01*
X70941Y-71200D01*
X67374Y-71200D01*
X67284Y-71109D01*
X67284Y-70896D01*
X67365Y-70862D01*
X67555Y-70672D01*
X67658Y-70424D01*
X67659Y-70156D01*
X67556Y-69908D01*
X67366Y-69718D01*
X67118Y-69615D01*
X66850Y-69614D01*
X66602Y-69717D01*
X66485Y-69834D01*
X66485Y-68565D01*
X66473Y-68374D01*
X66423Y-68254D01*
X66352Y-68217D01*
X66070Y-68500D01*
X66352Y-68782D01*
X66423Y-68745D01*
X66485Y-68565D01*
X66485Y-69834D01*
X66412Y-69907D01*
X66309Y-70155D01*
X66308Y-70423D01*
X66411Y-70671D01*
X66601Y-70861D01*
X66684Y-70896D01*
X66684Y-71234D01*
X66706Y-71348D01*
X66771Y-71446D01*
X67037Y-71712D01*
X67037Y-71712D01*
X67135Y-71777D01*
X67250Y-71800D01*
X76000Y-71800D01*
X76000Y-71799D01*
X76114Y-71777D01*
X76114Y-71777D01*
X76212Y-71712D01*
X76499Y-71424D01*
X76584Y-71425D01*
X76740Y-71360D01*
X76860Y-71241D01*
X76924Y-71084D01*
X76925Y-70915D01*
X76925Y-72200D01*
X72551Y-72200D01*
X72491Y-72139D01*
X72334Y-72075D01*
X72165Y-72074D01*
X72009Y-72139D01*
X71889Y-72258D01*
X71825Y-72415D01*
X71824Y-72584D01*
X71889Y-72740D01*
X72008Y-72860D01*
X72165Y-72924D01*
X72334Y-72925D01*
X72490Y-72860D01*
X72551Y-72800D01*
X77250Y-72800D01*
X77250Y-72799D01*
X77364Y-72777D01*
X77364Y-72777D01*
X77462Y-72712D01*
X78249Y-71924D01*
X78334Y-71925D01*
X78490Y-71860D01*
X78610Y-71741D01*
X78674Y-71584D01*
X78675Y-71415D01*
X78675Y-74910D01*
X78090Y-74910D01*
X78056Y-74828D01*
X77866Y-74638D01*
X77618Y-74535D01*
X77350Y-74534D01*
X77102Y-74637D01*
X76912Y-74827D01*
X76809Y-75075D01*
X76808Y-75343D01*
X76911Y-75591D01*
X77101Y-75781D01*
X77349Y-75884D01*
X77617Y-75885D01*
X77865Y-75782D01*
X78055Y-75592D01*
X78090Y-75510D01*
X78909Y-75510D01*
X79008Y-75610D01*
X79165Y-75674D01*
X79334Y-75675D01*
X79490Y-75610D01*
X79610Y-75491D01*
X79674Y-75334D01*
X79675Y-75165D01*
X79675Y-75950D01*
X76191Y-75950D01*
X76191Y-75076D01*
X76088Y-74828D01*
X75898Y-74638D01*
X75650Y-74535D01*
X75382Y-74534D01*
X75134Y-74637D01*
X74944Y-74827D01*
X74841Y-75075D01*
X74840Y-75343D01*
X74943Y-75591D01*
X75133Y-75781D01*
X75381Y-75884D01*
X75649Y-75885D01*
X75897Y-75782D01*
X76087Y-75592D01*
X76190Y-75344D01*
X76191Y-75076D01*
X76191Y-75950D01*
X72909Y-75950D01*
X72909Y-75076D01*
X72806Y-74828D01*
X72616Y-74638D01*
X72368Y-74535D01*
X72100Y-74534D01*
X71852Y-74637D01*
X71662Y-74827D01*
X71559Y-75075D01*
X71558Y-75343D01*
X71661Y-75591D01*
X71851Y-75781D01*
X72099Y-75884D01*
X72367Y-75885D01*
X72615Y-75782D01*
X72805Y-75592D01*
X72908Y-75344D01*
X72909Y-75076D01*
X72909Y-75950D01*
X70941Y-75950D01*
X70941Y-75076D01*
X70838Y-74828D01*
X70648Y-74638D01*
X70400Y-74535D01*
X70132Y-74534D01*
X69884Y-74637D01*
X69694Y-74827D01*
X69591Y-75075D01*
X69590Y-75343D01*
X69693Y-75591D01*
X69883Y-75781D01*
X70131Y-75884D01*
X70399Y-75885D01*
X70647Y-75782D01*
X70837Y-75592D01*
X70940Y-75344D01*
X70941Y-75076D01*
X70941Y-75950D01*
X67659Y-75950D01*
X67659Y-75076D01*
X67556Y-74828D01*
X67366Y-74638D01*
X67118Y-74535D01*
X66850Y-74534D01*
X66602Y-74637D01*
X66412Y-74827D01*
X66309Y-75075D01*
X66308Y-75343D01*
X66411Y-75591D01*
X66601Y-75781D01*
X66849Y-75884D01*
X67117Y-75885D01*
X67365Y-75782D01*
X67555Y-75592D01*
X67658Y-75344D01*
X67659Y-75076D01*
X67659Y-75950D01*
X66282Y-75950D01*
X66282Y-68852D01*
X66000Y-68570D01*
X65929Y-68641D01*
X65929Y-68500D01*
X65647Y-68217D01*
X65576Y-68254D01*
X65514Y-68434D01*
X65526Y-68625D01*
X65576Y-68745D01*
X65647Y-68782D01*
X65929Y-68500D01*
X65929Y-68641D01*
X65717Y-68852D01*
X65754Y-68923D01*
X65934Y-68985D01*
X66125Y-68973D01*
X66245Y-68923D01*
X66282Y-68852D01*
X66282Y-75950D01*
X65691Y-75950D01*
X65691Y-75076D01*
X65691Y-70156D01*
X65588Y-69908D01*
X65398Y-69718D01*
X65150Y-69615D01*
X64882Y-69614D01*
X64634Y-69717D01*
X64444Y-69907D01*
X64341Y-70155D01*
X64340Y-70423D01*
X64443Y-70671D01*
X64633Y-70861D01*
X64881Y-70964D01*
X65149Y-70965D01*
X65397Y-70862D01*
X65587Y-70672D01*
X65690Y-70424D01*
X65691Y-70156D01*
X65691Y-75076D01*
X65588Y-74828D01*
X65398Y-74638D01*
X65150Y-74535D01*
X64882Y-74534D01*
X64634Y-74637D01*
X64444Y-74827D01*
X64341Y-75075D01*
X64340Y-75343D01*
X64443Y-75591D01*
X64633Y-75781D01*
X64881Y-75884D01*
X65149Y-75885D01*
X65397Y-75782D01*
X65587Y-75592D01*
X65690Y-75344D01*
X65691Y-75076D01*
X65691Y-75950D01*
X63300Y-75950D01*
X63300Y-72391D01*
X63216Y-72188D01*
X63061Y-72034D01*
X62859Y-71950D01*
X62641Y-71949D01*
X62438Y-72033D01*
X62284Y-72188D01*
X62200Y-72390D01*
X62199Y-72608D01*
X62283Y-72811D01*
X62438Y-72965D01*
X62640Y-73049D01*
X62858Y-73050D01*
X63061Y-72966D01*
X63215Y-72811D01*
X63299Y-72609D01*
X63300Y-72391D01*
X63300Y-75950D01*
X60950Y-75950D01*
X61094Y-75890D01*
X61389Y-75595D01*
X61549Y-75209D01*
X61550Y-74792D01*
X61390Y-74406D01*
X61095Y-74110D01*
X60709Y-73950D01*
X60292Y-73949D01*
X59906Y-74109D01*
X59610Y-74404D01*
X59550Y-74549D01*
X59550Y-65994D01*
X59619Y-65994D01*
X59813Y-65914D01*
X59961Y-65766D01*
X60007Y-65653D01*
X60054Y-65765D01*
X60201Y-65913D01*
X60394Y-65994D01*
X60604Y-65994D01*
X60797Y-65914D01*
X60945Y-65766D01*
X61025Y-65573D01*
X61025Y-65364D01*
X60945Y-65171D01*
X60798Y-65023D01*
X60605Y-64943D01*
X60395Y-64942D01*
X60202Y-65022D01*
X60054Y-65170D01*
X60007Y-65283D01*
X59961Y-65171D01*
X59813Y-65023D01*
X59620Y-64943D01*
X59550Y-64942D01*
X59550Y-62057D01*
X59619Y-62057D01*
X59813Y-61977D01*
X59961Y-61829D01*
X60007Y-61716D01*
X60054Y-61828D01*
X60201Y-61976D01*
X60394Y-62056D01*
X60604Y-62057D01*
X60797Y-61977D01*
X60945Y-61829D01*
X61025Y-61636D01*
X61025Y-61427D01*
X60945Y-61234D01*
X60798Y-61086D01*
X60605Y-61005D01*
X60395Y-61005D01*
X60202Y-61085D01*
X60054Y-61233D01*
X60007Y-61346D01*
X59961Y-61234D01*
X59813Y-61086D01*
X59620Y-61005D01*
X59550Y-61005D01*
X59550Y-58450D01*
X59609Y-58594D01*
X59904Y-58889D01*
X60290Y-59049D01*
X60707Y-59050D01*
X61094Y-58890D01*
X61389Y-58595D01*
X61549Y-58209D01*
X61550Y-57792D01*
X61390Y-57406D01*
X61095Y-57110D01*
X60950Y-57050D01*
X101661Y-57050D01*
X101630Y-57126D01*
X101629Y-57372D01*
X101724Y-57600D01*
X101898Y-57775D01*
X102126Y-57869D01*
X102372Y-57870D01*
X102600Y-57775D01*
X102775Y-57601D01*
X102869Y-57373D01*
X102870Y-57127D01*
X102838Y-57050D01*
X103661Y-57050D01*
X103630Y-57126D01*
X103629Y-57372D01*
X103724Y-57600D01*
X103898Y-57775D01*
X104126Y-57869D01*
X104372Y-57870D01*
X104600Y-57775D01*
X104775Y-57601D01*
X104869Y-57373D01*
X104870Y-57127D01*
X104838Y-57050D01*
X106549Y-57050D01*
X106406Y-57109D01*
X106110Y-57404D01*
X105950Y-57790D01*
X105949Y-58207D01*
X106109Y-58594D01*
X106404Y-58889D01*
X106790Y-59049D01*
X107207Y-59050D01*
X107594Y-58890D01*
X107889Y-58595D01*
X107950Y-58450D01*
X107950Y-74549D01*
X107950Y-74549D01*
G37*
G54D26*
X107950Y-74549D02*
X107890Y-74406D01*
X107830Y-74345D01*
X107830Y-61885D01*
X107741Y-61671D01*
X107735Y-61664D01*
X107735Y-61065D01*
X107723Y-60874D01*
X107673Y-60754D01*
X107602Y-60717D01*
X107532Y-60788D01*
X107532Y-60647D01*
X107495Y-60576D01*
X107315Y-60514D01*
X107124Y-60526D01*
X107004Y-60576D01*
X106967Y-60647D01*
X107250Y-60929D01*
X107532Y-60647D01*
X107532Y-60788D01*
X107320Y-61000D01*
X107602Y-61282D01*
X107673Y-61245D01*
X107735Y-61065D01*
X107735Y-61664D01*
X107578Y-61508D01*
X107434Y-61448D01*
X107495Y-61423D01*
X107532Y-61352D01*
X107250Y-61070D01*
X107179Y-61141D01*
X107179Y-61000D01*
X106897Y-60717D01*
X106826Y-60754D01*
X106764Y-60934D01*
X106776Y-61125D01*
X106826Y-61245D01*
X106897Y-61282D01*
X107179Y-61000D01*
X107179Y-61141D01*
X106967Y-61352D01*
X107004Y-61423D01*
X107071Y-61446D01*
X106921Y-61508D01*
X106758Y-61671D01*
X106670Y-61884D01*
X106669Y-62114D01*
X106758Y-62328D01*
X106921Y-62491D01*
X107134Y-62579D01*
X107364Y-62580D01*
X107578Y-62491D01*
X107741Y-62328D01*
X107829Y-62115D01*
X107830Y-61885D01*
X107830Y-74345D01*
X107800Y-74315D01*
X107800Y-67391D01*
X107800Y-63391D01*
X107716Y-63188D01*
X107561Y-63034D01*
X107359Y-62950D01*
X107141Y-62949D01*
X106938Y-63033D01*
X106784Y-63188D01*
X106700Y-63390D01*
X106699Y-63608D01*
X106783Y-63811D01*
X106938Y-63965D01*
X107140Y-64049D01*
X107358Y-64050D01*
X107561Y-63966D01*
X107715Y-63811D01*
X107799Y-63609D01*
X107800Y-63391D01*
X107800Y-67391D01*
X107716Y-67188D01*
X107561Y-67034D01*
X107359Y-66950D01*
X107141Y-66949D01*
X106938Y-67033D01*
X106784Y-67188D01*
X106700Y-67390D01*
X106699Y-67608D01*
X106783Y-67811D01*
X106938Y-67965D01*
X107140Y-68049D01*
X107358Y-68050D01*
X107561Y-67966D01*
X107715Y-67811D01*
X107799Y-67609D01*
X107800Y-67391D01*
X107800Y-74315D01*
X107595Y-74110D01*
X107209Y-73950D01*
X106792Y-73949D01*
X106406Y-74109D01*
X106110Y-74404D01*
X105950Y-74790D01*
X105949Y-75207D01*
X106109Y-75594D01*
X106404Y-75889D01*
X106549Y-75950D01*
X105885Y-75950D01*
X105885Y-64850D01*
X105885Y-62882D01*
X105782Y-62634D01*
X105592Y-62444D01*
X105344Y-62341D01*
X105076Y-62340D01*
X104870Y-62426D01*
X104870Y-58627D01*
X104775Y-58399D01*
X104601Y-58224D01*
X104373Y-58130D01*
X104127Y-58129D01*
X103899Y-58224D01*
X103724Y-58398D01*
X103630Y-58626D01*
X103629Y-58872D01*
X103724Y-59100D01*
X103898Y-59275D01*
X104126Y-59369D01*
X104372Y-59370D01*
X104600Y-59275D01*
X104775Y-59101D01*
X104869Y-58873D01*
X104870Y-58627D01*
X104870Y-62426D01*
X104828Y-62443D01*
X104705Y-62566D01*
X104705Y-60557D01*
X104692Y-60379D01*
X104648Y-60272D01*
X104581Y-60239D01*
X104510Y-60310D01*
X104510Y-60168D01*
X104477Y-60101D01*
X104307Y-60044D01*
X104129Y-60057D01*
X104022Y-60101D01*
X103989Y-60168D01*
X104250Y-60429D01*
X104510Y-60168D01*
X104510Y-60310D01*
X104320Y-60500D01*
X104581Y-60760D01*
X104648Y-60727D01*
X104705Y-60557D01*
X104705Y-62566D01*
X104638Y-62633D01*
X104535Y-62881D01*
X104534Y-63149D01*
X104637Y-63397D01*
X104827Y-63587D01*
X105075Y-63690D01*
X105343Y-63691D01*
X105591Y-63588D01*
X105781Y-63398D01*
X105884Y-63150D01*
X105885Y-62882D01*
X105885Y-64850D01*
X105782Y-64602D01*
X105592Y-64412D01*
X105344Y-64309D01*
X105076Y-64308D01*
X104828Y-64411D01*
X104638Y-64601D01*
X104603Y-64684D01*
X104510Y-64684D01*
X104510Y-60831D01*
X104250Y-60570D01*
X104179Y-60641D01*
X104179Y-60500D01*
X103918Y-60239D01*
X103851Y-60272D01*
X103794Y-60442D01*
X103807Y-60620D01*
X103851Y-60727D01*
X103918Y-60760D01*
X104179Y-60500D01*
X104179Y-60641D01*
X103989Y-60831D01*
X104022Y-60898D01*
X104192Y-60955D01*
X104370Y-60942D01*
X104477Y-60898D01*
X104510Y-60831D01*
X104510Y-64684D01*
X102870Y-64684D01*
X102870Y-58627D01*
X102775Y-58399D01*
X102601Y-58224D01*
X102373Y-58130D01*
X102127Y-58129D01*
X101899Y-58224D01*
X101724Y-58398D01*
X101630Y-58626D01*
X101629Y-58872D01*
X101724Y-59100D01*
X101898Y-59275D01*
X102126Y-59369D01*
X102372Y-59370D01*
X102600Y-59275D01*
X102775Y-59101D01*
X102869Y-58873D01*
X102870Y-58627D01*
X102870Y-64684D01*
X102800Y-64684D01*
X102800Y-60391D01*
X102716Y-60188D01*
X102561Y-60034D01*
X102359Y-59950D01*
X102141Y-59949D01*
X101938Y-60033D01*
X101784Y-60188D01*
X101700Y-60390D01*
X101699Y-60608D01*
X101783Y-60811D01*
X101938Y-60965D01*
X102140Y-61049D01*
X102358Y-61050D01*
X102561Y-60966D01*
X102715Y-60811D01*
X102799Y-60609D01*
X102800Y-60391D01*
X102800Y-64684D01*
X101425Y-64684D01*
X101425Y-61415D01*
X101360Y-61259D01*
X101241Y-61139D01*
X101084Y-61075D01*
X100915Y-61074D01*
X100759Y-61139D01*
X100698Y-61200D01*
X100075Y-61200D01*
X100075Y-60136D01*
X99987Y-59924D01*
X99826Y-59762D01*
X99735Y-59725D01*
X99795Y-59725D01*
X99854Y-59724D01*
X99910Y-59702D01*
X99952Y-59659D01*
X99975Y-59604D01*
X99975Y-58895D01*
X99952Y-58840D01*
X99910Y-58797D01*
X99854Y-58775D01*
X99795Y-58774D01*
X99587Y-58775D01*
X99550Y-58812D01*
X99550Y-59200D01*
X99937Y-59200D01*
X99975Y-59162D01*
X99975Y-58895D01*
X99975Y-59604D01*
X99975Y-59337D01*
X99937Y-59300D01*
X99600Y-59300D01*
X99550Y-59300D01*
X99450Y-59300D01*
X99450Y-59200D01*
X99450Y-58812D01*
X99412Y-58775D01*
X99204Y-58774D01*
X99145Y-58775D01*
X99089Y-58797D01*
X99047Y-58840D01*
X99024Y-58895D01*
X99025Y-59162D01*
X99062Y-59200D01*
X99450Y-59200D01*
X99450Y-59300D01*
X99400Y-59300D01*
X99062Y-59300D01*
X99025Y-59337D01*
X99024Y-59604D01*
X99047Y-59659D01*
X99089Y-59702D01*
X99145Y-59724D01*
X99204Y-59725D01*
X99264Y-59725D01*
X99174Y-59762D01*
X99012Y-59923D01*
X98925Y-60135D01*
X98924Y-60363D01*
X99012Y-60575D01*
X99173Y-60737D01*
X99385Y-60824D01*
X99613Y-60825D01*
X99825Y-60737D01*
X99987Y-60576D01*
X100074Y-60364D01*
X100075Y-60136D01*
X100075Y-61200D01*
X96830Y-61200D01*
X96830Y-58385D01*
X96741Y-58171D01*
X96578Y-58008D01*
X96365Y-57920D01*
X96135Y-57919D01*
X95921Y-58008D01*
X95758Y-58171D01*
X95670Y-58384D01*
X95669Y-58614D01*
X95758Y-58828D01*
X95921Y-58991D01*
X96065Y-59051D01*
X96004Y-59076D01*
X95967Y-59147D01*
X96250Y-59429D01*
X96532Y-59147D01*
X96495Y-59076D01*
X96428Y-59053D01*
X96578Y-58991D01*
X96741Y-58828D01*
X96829Y-58615D01*
X96830Y-58385D01*
X96830Y-61200D01*
X96577Y-61200D01*
X96715Y-61061D01*
X96799Y-60859D01*
X96800Y-60641D01*
X96735Y-60483D01*
X96735Y-59565D01*
X96723Y-59374D01*
X96673Y-59254D01*
X96602Y-59217D01*
X96320Y-59500D01*
X96602Y-59782D01*
X96673Y-59745D01*
X96735Y-59565D01*
X96735Y-60483D01*
X96716Y-60438D01*
X96561Y-60284D01*
X96532Y-60271D01*
X96532Y-59852D01*
X96250Y-59570D01*
X96179Y-59641D01*
X96179Y-59500D01*
X95897Y-59217D01*
X95826Y-59254D01*
X95764Y-59434D01*
X95776Y-59625D01*
X95826Y-59745D01*
X95897Y-59782D01*
X96179Y-59500D01*
X96179Y-59641D01*
X95967Y-59852D01*
X96004Y-59923D01*
X96184Y-59985D01*
X96375Y-59973D01*
X96495Y-59923D01*
X96532Y-59852D01*
X96532Y-60271D01*
X96359Y-60200D01*
X96141Y-60199D01*
X95938Y-60283D01*
X95784Y-60438D01*
X95700Y-60640D01*
X95699Y-60858D01*
X95783Y-61061D01*
X95922Y-61200D01*
X92577Y-61200D01*
X92715Y-61061D01*
X92799Y-60859D01*
X92800Y-60641D01*
X92716Y-60438D01*
X92561Y-60284D01*
X92359Y-60200D01*
X92141Y-60199D01*
X91938Y-60283D01*
X91784Y-60438D01*
X91700Y-60640D01*
X91699Y-60858D01*
X91783Y-61061D01*
X91922Y-61200D01*
X87551Y-61200D01*
X87491Y-61139D01*
X87334Y-61075D01*
X87165Y-61074D01*
X87009Y-61139D01*
X87000Y-61148D01*
X86991Y-61139D01*
X86834Y-61075D01*
X86665Y-61074D01*
X86509Y-61139D01*
X86389Y-61258D01*
X86325Y-61415D01*
X86325Y-61450D01*
X84680Y-61450D01*
X84680Y-60551D01*
X84667Y-60383D01*
X84627Y-60287D01*
X84563Y-60257D01*
X84492Y-60328D01*
X84492Y-60186D01*
X84462Y-60122D01*
X84301Y-60069D01*
X84133Y-60082D01*
X84037Y-60122D01*
X84007Y-60186D01*
X84250Y-60429D01*
X84492Y-60186D01*
X84492Y-60328D01*
X84320Y-60500D01*
X84563Y-60742D01*
X84627Y-60712D01*
X84680Y-60551D01*
X84680Y-61450D01*
X84492Y-61450D01*
X84492Y-60813D01*
X84250Y-60570D01*
X84179Y-60641D01*
X84179Y-60500D01*
X83936Y-60257D01*
X83872Y-60287D01*
X83819Y-60448D01*
X83832Y-60616D01*
X83872Y-60712D01*
X83936Y-60742D01*
X84179Y-60500D01*
X84179Y-60641D01*
X84007Y-60813D01*
X84037Y-60877D01*
X84198Y-60930D01*
X84366Y-60917D01*
X84462Y-60877D01*
X84492Y-60813D01*
X84492Y-61450D01*
X84127Y-61450D01*
X84174Y-61334D01*
X84175Y-61165D01*
X84110Y-61009D01*
X83991Y-60889D01*
X83834Y-60825D01*
X83667Y-60824D01*
X83694Y-60797D01*
X83774Y-60604D01*
X83775Y-60396D01*
X83695Y-60203D01*
X83547Y-60055D01*
X83535Y-60050D01*
X84875Y-60050D01*
X84916Y-60090D01*
X84805Y-60202D01*
X84725Y-60395D01*
X84724Y-60603D01*
X84804Y-60797D01*
X84952Y-60944D01*
X85145Y-61024D01*
X85353Y-61025D01*
X85547Y-60945D01*
X85694Y-60797D01*
X85750Y-60664D01*
X85804Y-60797D01*
X85952Y-60944D01*
X86145Y-61024D01*
X86353Y-61025D01*
X86547Y-60945D01*
X86694Y-60797D01*
X86750Y-60664D01*
X86804Y-60797D01*
X86952Y-60944D01*
X87145Y-61024D01*
X87353Y-61025D01*
X87547Y-60945D01*
X87694Y-60797D01*
X87750Y-60664D01*
X87804Y-60797D01*
X87952Y-60944D01*
X88145Y-61024D01*
X88353Y-61025D01*
X88547Y-60945D01*
X88694Y-60797D01*
X88750Y-60664D01*
X88804Y-60797D01*
X88952Y-60944D01*
X89145Y-61024D01*
X89353Y-61025D01*
X89547Y-60945D01*
X89694Y-60797D01*
X89774Y-60604D01*
X89775Y-60396D01*
X89695Y-60203D01*
X89547Y-60055D01*
X89354Y-59975D01*
X89146Y-59974D01*
X88953Y-60054D01*
X88805Y-60202D01*
X88749Y-60335D01*
X88695Y-60203D01*
X88550Y-60057D01*
X88550Y-59500D01*
X88527Y-59385D01*
X88462Y-59287D01*
X88462Y-59287D01*
X88440Y-59266D01*
X88561Y-59216D01*
X88715Y-59061D01*
X88799Y-58859D01*
X88800Y-58641D01*
X88716Y-58438D01*
X88561Y-58284D01*
X88480Y-58250D01*
X88561Y-58216D01*
X88715Y-58061D01*
X88799Y-57859D01*
X88800Y-57641D01*
X88716Y-57438D01*
X88561Y-57284D01*
X88359Y-57200D01*
X88141Y-57199D01*
X87938Y-57283D01*
X87784Y-57438D01*
X87750Y-57519D01*
X87716Y-57438D01*
X87561Y-57284D01*
X87359Y-57200D01*
X87141Y-57199D01*
X86938Y-57283D01*
X86784Y-57438D01*
X86700Y-57640D01*
X86700Y-57734D01*
X86692Y-57629D01*
X86648Y-57522D01*
X86581Y-57489D01*
X86510Y-57560D01*
X86510Y-57418D01*
X86477Y-57351D01*
X86307Y-57294D01*
X86129Y-57307D01*
X86022Y-57351D01*
X85989Y-57418D01*
X86250Y-57679D01*
X86510Y-57418D01*
X86510Y-57560D01*
X86320Y-57750D01*
X86581Y-58010D01*
X86648Y-57977D01*
X86699Y-57823D01*
X86699Y-57858D01*
X86783Y-58061D01*
X86938Y-58215D01*
X87019Y-58249D01*
X86938Y-58283D01*
X86800Y-58422D01*
X86800Y-58400D01*
X86762Y-58308D01*
X86691Y-58238D01*
X86599Y-58200D01*
X86500Y-58199D01*
X86266Y-58199D01*
X86370Y-58192D01*
X86477Y-58148D01*
X86510Y-58081D01*
X86250Y-57820D01*
X86179Y-57891D01*
X86179Y-57750D01*
X85918Y-57489D01*
X85851Y-57522D01*
X85794Y-57692D01*
X85807Y-57870D01*
X85851Y-57977D01*
X85918Y-58010D01*
X86179Y-57750D01*
X86179Y-57891D01*
X85989Y-58081D01*
X86022Y-58148D01*
X86176Y-58199D01*
X85900Y-58199D01*
X85808Y-58237D01*
X85738Y-58308D01*
X85700Y-58400D01*
X85699Y-58499D01*
X85699Y-58950D01*
X83680Y-58950D01*
X83680Y-58301D01*
X83667Y-58133D01*
X83627Y-58037D01*
X83563Y-58007D01*
X83492Y-58078D01*
X83492Y-57936D01*
X83462Y-57872D01*
X83301Y-57819D01*
X83133Y-57832D01*
X83037Y-57872D01*
X83007Y-57936D01*
X83250Y-58179D01*
X83492Y-57936D01*
X83492Y-58078D01*
X83320Y-58250D01*
X83563Y-58492D01*
X83627Y-58462D01*
X83680Y-58301D01*
X83680Y-58950D01*
X83492Y-58950D01*
X83492Y-58563D01*
X83250Y-58320D01*
X83179Y-58391D01*
X83179Y-58250D01*
X82936Y-58007D01*
X82872Y-58037D01*
X82819Y-58198D01*
X82832Y-58366D01*
X82872Y-58462D01*
X82936Y-58492D01*
X83179Y-58250D01*
X83179Y-58391D01*
X83007Y-58563D01*
X83037Y-58627D01*
X83198Y-58680D01*
X83366Y-58667D01*
X83462Y-58627D01*
X83492Y-58563D01*
X83492Y-58950D01*
X82775Y-58950D01*
X82775Y-58146D01*
X82695Y-57953D01*
X82547Y-57805D01*
X82354Y-57725D01*
X82146Y-57724D01*
X81953Y-57804D01*
X81805Y-57952D01*
X81725Y-58145D01*
X81724Y-58353D01*
X81804Y-58547D01*
X81952Y-58694D01*
X82145Y-58774D01*
X82353Y-58775D01*
X82547Y-58695D01*
X82694Y-58547D01*
X82774Y-58354D01*
X82775Y-58146D01*
X82775Y-58950D01*
X74955Y-58950D01*
X74955Y-58557D01*
X74942Y-58379D01*
X74898Y-58272D01*
X74831Y-58239D01*
X74760Y-58310D01*
X74760Y-58168D01*
X74727Y-58101D01*
X74557Y-58044D01*
X74379Y-58057D01*
X74272Y-58101D01*
X74239Y-58168D01*
X74500Y-58429D01*
X74760Y-58168D01*
X74760Y-58310D01*
X74570Y-58500D01*
X74831Y-58760D01*
X74898Y-58727D01*
X74955Y-58557D01*
X74955Y-58950D01*
X74515Y-58950D01*
X74620Y-58942D01*
X74727Y-58898D01*
X74760Y-58831D01*
X74500Y-58570D01*
X74429Y-58641D01*
X74429Y-58500D01*
X74168Y-58239D01*
X74101Y-58272D01*
X74044Y-58442D01*
X74057Y-58620D01*
X74101Y-58727D01*
X74168Y-58760D01*
X74429Y-58500D01*
X74429Y-58641D01*
X74239Y-58831D01*
X74272Y-58898D01*
X74426Y-58950D01*
X73250Y-58950D01*
X73135Y-58972D01*
X73037Y-59037D01*
X72537Y-59537D01*
X72472Y-59635D01*
X72450Y-59750D01*
X72450Y-62750D01*
X72472Y-62864D01*
X72537Y-62962D01*
X72756Y-63181D01*
X72804Y-63297D01*
X72952Y-63444D01*
X73145Y-63524D01*
X73353Y-63525D01*
X73547Y-63445D01*
X73694Y-63297D01*
X73774Y-63104D01*
X73775Y-62896D01*
X73695Y-62703D01*
X73547Y-62555D01*
X73414Y-62499D01*
X73547Y-62445D01*
X73692Y-62300D01*
X73750Y-62300D01*
X73750Y-62299D01*
X73864Y-62277D01*
X73864Y-62277D01*
X73962Y-62212D01*
X74212Y-61962D01*
X74212Y-61962D01*
X74277Y-61864D01*
X74299Y-61750D01*
X74300Y-61750D01*
X74300Y-60050D01*
X75964Y-60050D01*
X75953Y-60054D01*
X75805Y-60202D01*
X75725Y-60395D01*
X75724Y-60603D01*
X75804Y-60797D01*
X75952Y-60944D01*
X75964Y-60950D01*
X75801Y-60950D01*
X75741Y-60889D01*
X75584Y-60825D01*
X75415Y-60824D01*
X75259Y-60889D01*
X75139Y-61008D01*
X75075Y-61165D01*
X75074Y-61334D01*
X75139Y-61490D01*
X75258Y-61610D01*
X75415Y-61674D01*
X75584Y-61675D01*
X75740Y-61610D01*
X75801Y-61550D01*
X78000Y-61550D01*
X78000Y-61549D01*
X78114Y-61527D01*
X78114Y-61527D01*
X78212Y-61462D01*
X78462Y-61212D01*
X78462Y-61212D01*
X78527Y-61114D01*
X78549Y-61000D01*
X78550Y-61000D01*
X78550Y-60942D01*
X78694Y-60797D01*
X78750Y-60664D01*
X78804Y-60797D01*
X78952Y-60944D01*
X79145Y-61024D01*
X79353Y-61025D01*
X79547Y-60945D01*
X79694Y-60797D01*
X79750Y-60664D01*
X79804Y-60797D01*
X79952Y-60944D01*
X80145Y-61024D01*
X80353Y-61025D01*
X80547Y-60945D01*
X80694Y-60797D01*
X80750Y-60664D01*
X80804Y-60797D01*
X80952Y-60944D01*
X80953Y-60945D01*
X80889Y-61008D01*
X80825Y-61165D01*
X80824Y-61334D01*
X80872Y-61450D01*
X80675Y-61450D01*
X80675Y-61415D01*
X80610Y-61259D01*
X80491Y-61139D01*
X80334Y-61075D01*
X80165Y-61074D01*
X80009Y-61139D01*
X79889Y-61258D01*
X79825Y-61415D01*
X79824Y-61584D01*
X79872Y-61700D01*
X77551Y-61700D01*
X77491Y-61639D01*
X77334Y-61575D01*
X77165Y-61574D01*
X77009Y-61639D01*
X76889Y-61758D01*
X76825Y-61915D01*
X76824Y-62084D01*
X76872Y-62200D01*
X76551Y-62200D01*
X76491Y-62139D01*
X76334Y-62075D01*
X76165Y-62074D01*
X76009Y-62139D01*
X75889Y-62258D01*
X75825Y-62415D01*
X75824Y-62584D01*
X75889Y-62740D01*
X76008Y-62860D01*
X76165Y-62924D01*
X76334Y-62925D01*
X76490Y-62860D01*
X76551Y-62800D01*
X88448Y-62800D01*
X88508Y-62860D01*
X88665Y-62924D01*
X88834Y-62925D01*
X88990Y-62860D01*
X89110Y-62741D01*
X89174Y-62584D01*
X89175Y-62415D01*
X89127Y-62300D01*
X89372Y-62300D01*
X89325Y-62415D01*
X89324Y-62584D01*
X89389Y-62740D01*
X89508Y-62860D01*
X89665Y-62924D01*
X89834Y-62925D01*
X89990Y-62860D01*
X90051Y-62800D01*
X91198Y-62800D01*
X91258Y-62860D01*
X91415Y-62924D01*
X91584Y-62925D01*
X91740Y-62860D01*
X91860Y-62741D01*
X91924Y-62584D01*
X91925Y-62415D01*
X91877Y-62300D01*
X99198Y-62300D01*
X99258Y-62360D01*
X99415Y-62424D01*
X99584Y-62425D01*
X99740Y-62360D01*
X99860Y-62241D01*
X99924Y-62084D01*
X99925Y-61915D01*
X99877Y-61800D01*
X100698Y-61800D01*
X100758Y-61860D01*
X100915Y-61924D01*
X101084Y-61925D01*
X101240Y-61860D01*
X101360Y-61741D01*
X101424Y-61584D01*
X101425Y-61415D01*
X101425Y-64684D01*
X100965Y-64684D01*
X100965Y-62882D01*
X100862Y-62634D01*
X100672Y-62444D01*
X100424Y-62341D01*
X100156Y-62340D01*
X99908Y-62443D01*
X99718Y-62633D01*
X99615Y-62881D01*
X99614Y-63149D01*
X99717Y-63397D01*
X99907Y-63587D01*
X100155Y-63690D01*
X100423Y-63691D01*
X100671Y-63588D01*
X100861Y-63398D01*
X100964Y-63150D01*
X100965Y-62882D01*
X100965Y-64684D01*
X100896Y-64684D01*
X100862Y-64602D01*
X100672Y-64412D01*
X100424Y-64309D01*
X100156Y-64308D01*
X99908Y-64411D01*
X99718Y-64601D01*
X99707Y-64626D01*
X99584Y-64575D01*
X99415Y-64574D01*
X99259Y-64639D01*
X99139Y-64758D01*
X99075Y-64915D01*
X99074Y-65084D01*
X99139Y-65240D01*
X99258Y-65360D01*
X99415Y-65424D01*
X99584Y-65425D01*
X99720Y-65368D01*
X99907Y-65555D01*
X100155Y-65658D01*
X100423Y-65659D01*
X100671Y-65556D01*
X100861Y-65366D01*
X100896Y-65284D01*
X104603Y-65284D01*
X104637Y-65365D01*
X104827Y-65555D01*
X105075Y-65658D01*
X105343Y-65659D01*
X105591Y-65556D01*
X105781Y-65366D01*
X105884Y-65118D01*
X105885Y-64850D01*
X105885Y-75950D01*
X104409Y-75950D01*
X104409Y-75076D01*
X104409Y-70156D01*
X104306Y-69908D01*
X104116Y-69718D01*
X103868Y-69615D01*
X103600Y-69614D01*
X103352Y-69717D01*
X103330Y-69739D01*
X103330Y-68385D01*
X103241Y-68171D01*
X103078Y-68008D01*
X103058Y-68000D01*
X103078Y-67991D01*
X103241Y-67828D01*
X103329Y-67615D01*
X103330Y-67385D01*
X103241Y-67171D01*
X103078Y-67008D01*
X102865Y-66920D01*
X102635Y-66919D01*
X102421Y-67008D01*
X102258Y-67171D01*
X102170Y-67384D01*
X102169Y-67614D01*
X102258Y-67828D01*
X102421Y-67991D01*
X102441Y-67999D01*
X102421Y-68008D01*
X102258Y-68171D01*
X102246Y-68200D01*
X100675Y-68200D01*
X100675Y-67415D01*
X100610Y-67259D01*
X100491Y-67139D01*
X100334Y-67075D01*
X100165Y-67074D01*
X100009Y-67139D01*
X99948Y-67200D01*
X98885Y-67200D01*
X98885Y-64850D01*
X98885Y-62882D01*
X98782Y-62634D01*
X98592Y-62444D01*
X98344Y-62341D01*
X98076Y-62340D01*
X97828Y-62443D01*
X97638Y-62633D01*
X97535Y-62881D01*
X97534Y-63149D01*
X97637Y-63397D01*
X97827Y-63587D01*
X98075Y-63690D01*
X98343Y-63691D01*
X98591Y-63588D01*
X98781Y-63398D01*
X98884Y-63150D01*
X98885Y-62882D01*
X98885Y-64850D01*
X98782Y-64602D01*
X98592Y-64412D01*
X98344Y-64309D01*
X98076Y-64308D01*
X97828Y-64411D01*
X97638Y-64601D01*
X97603Y-64684D01*
X93965Y-64684D01*
X93965Y-62882D01*
X93862Y-62634D01*
X93672Y-62444D01*
X93424Y-62341D01*
X93156Y-62340D01*
X92908Y-62443D01*
X92718Y-62633D01*
X92615Y-62881D01*
X92614Y-63149D01*
X92717Y-63397D01*
X92907Y-63587D01*
X93155Y-63690D01*
X93423Y-63691D01*
X93671Y-63588D01*
X93861Y-63398D01*
X93964Y-63150D01*
X93965Y-62882D01*
X93965Y-64684D01*
X93896Y-64684D01*
X93862Y-64602D01*
X93672Y-64412D01*
X93424Y-64309D01*
X93156Y-64308D01*
X92908Y-64411D01*
X92718Y-64601D01*
X92683Y-64684D01*
X89775Y-64684D01*
X89775Y-63396D01*
X89695Y-63203D01*
X89547Y-63055D01*
X89354Y-62975D01*
X89146Y-62974D01*
X88953Y-63054D01*
X88805Y-63202D01*
X88749Y-63335D01*
X88695Y-63203D01*
X88547Y-63055D01*
X88354Y-62975D01*
X88146Y-62974D01*
X87953Y-63054D01*
X87805Y-63202D01*
X87749Y-63335D01*
X87695Y-63203D01*
X87547Y-63055D01*
X87354Y-62975D01*
X87146Y-62974D01*
X86953Y-63054D01*
X86805Y-63202D01*
X86749Y-63335D01*
X86695Y-63203D01*
X86547Y-63055D01*
X86354Y-62975D01*
X86146Y-62974D01*
X85953Y-63054D01*
X85805Y-63202D01*
X85749Y-63335D01*
X85695Y-63203D01*
X85547Y-63055D01*
X85354Y-62975D01*
X85146Y-62974D01*
X84953Y-63054D01*
X84805Y-63202D01*
X84749Y-63335D01*
X84695Y-63203D01*
X84547Y-63055D01*
X84354Y-62975D01*
X84146Y-62974D01*
X83953Y-63054D01*
X83805Y-63202D01*
X83749Y-63335D01*
X83695Y-63203D01*
X83547Y-63055D01*
X83354Y-62975D01*
X83146Y-62974D01*
X82953Y-63054D01*
X82805Y-63202D01*
X82725Y-63395D01*
X82724Y-63603D01*
X82804Y-63797D01*
X82952Y-63944D01*
X83145Y-64024D01*
X83353Y-64025D01*
X83547Y-63945D01*
X83694Y-63797D01*
X83750Y-63664D01*
X83804Y-63797D01*
X83952Y-63944D01*
X84145Y-64024D01*
X84353Y-64025D01*
X84547Y-63945D01*
X84694Y-63797D01*
X84750Y-63664D01*
X84804Y-63797D01*
X84952Y-63944D01*
X85145Y-64024D01*
X85353Y-64025D01*
X85547Y-63945D01*
X85694Y-63797D01*
X85750Y-63664D01*
X85804Y-63797D01*
X85952Y-63944D01*
X86145Y-64024D01*
X86353Y-64025D01*
X86547Y-63945D01*
X86694Y-63797D01*
X86750Y-63664D01*
X86804Y-63797D01*
X86952Y-63944D01*
X87145Y-64024D01*
X87353Y-64025D01*
X87547Y-63945D01*
X87694Y-63797D01*
X87750Y-63664D01*
X87804Y-63797D01*
X87952Y-63944D01*
X88145Y-64024D01*
X88353Y-64025D01*
X88547Y-63945D01*
X88694Y-63797D01*
X88750Y-63664D01*
X88804Y-63797D01*
X88952Y-63944D01*
X89145Y-64024D01*
X89353Y-64025D01*
X89547Y-63945D01*
X89694Y-63797D01*
X89774Y-63604D01*
X89775Y-63396D01*
X89775Y-64684D01*
X89035Y-64684D01*
X88991Y-64639D01*
X88834Y-64575D01*
X88665Y-64574D01*
X88509Y-64639D01*
X88389Y-64758D01*
X88325Y-64915D01*
X88324Y-65084D01*
X88389Y-65240D01*
X88508Y-65360D01*
X88665Y-65424D01*
X88834Y-65425D01*
X88990Y-65360D01*
X89067Y-65284D01*
X92683Y-65284D01*
X92717Y-65365D01*
X92907Y-65555D01*
X93155Y-65658D01*
X93423Y-65659D01*
X93671Y-65556D01*
X93861Y-65366D01*
X93896Y-65284D01*
X97603Y-65284D01*
X97637Y-65365D01*
X97827Y-65555D01*
X98075Y-65658D01*
X98343Y-65659D01*
X98591Y-65556D01*
X98781Y-65366D01*
X98884Y-65118D01*
X98885Y-64850D01*
X98885Y-67200D01*
X98003Y-67200D01*
X97991Y-67171D01*
X97828Y-67008D01*
X97615Y-66920D01*
X97385Y-66919D01*
X97171Y-67008D01*
X97008Y-67171D01*
X96920Y-67384D01*
X96919Y-67614D01*
X97008Y-67828D01*
X97171Y-67991D01*
X97315Y-68051D01*
X97254Y-68076D01*
X97217Y-68147D01*
X97500Y-68429D01*
X97782Y-68147D01*
X97745Y-68076D01*
X97678Y-68053D01*
X97828Y-67991D01*
X97991Y-67828D01*
X98003Y-67800D01*
X99948Y-67800D01*
X100008Y-67860D01*
X100165Y-67924D01*
X100334Y-67925D01*
X100490Y-67860D01*
X100610Y-67741D01*
X100674Y-67584D01*
X100675Y-67415D01*
X100675Y-68200D01*
X100551Y-68200D01*
X100491Y-68139D01*
X100334Y-68075D01*
X100165Y-68074D01*
X100009Y-68139D01*
X99889Y-68258D01*
X99825Y-68415D01*
X99824Y-68584D01*
X99889Y-68740D01*
X100008Y-68860D01*
X100165Y-68924D01*
X100334Y-68925D01*
X100490Y-68860D01*
X100551Y-68800D01*
X102246Y-68800D01*
X102258Y-68828D01*
X102421Y-68991D01*
X102634Y-69079D01*
X102864Y-69080D01*
X103078Y-68991D01*
X103241Y-68828D01*
X103329Y-68615D01*
X103330Y-68385D01*
X103330Y-69739D01*
X103162Y-69907D01*
X103059Y-70155D01*
X103058Y-70423D01*
X103161Y-70671D01*
X103351Y-70861D01*
X103599Y-70964D01*
X103867Y-70965D01*
X104115Y-70862D01*
X104305Y-70672D01*
X104408Y-70424D01*
X104409Y-70156D01*
X104409Y-75076D01*
X104306Y-74828D01*
X104175Y-74696D01*
X104175Y-71665D01*
X104110Y-71509D01*
X103991Y-71389D01*
X103834Y-71325D01*
X103665Y-71324D01*
X103509Y-71389D01*
X103448Y-71450D01*
X102441Y-71450D01*
X102441Y-70156D01*
X102338Y-69908D01*
X102148Y-69718D01*
X101900Y-69615D01*
X101632Y-69614D01*
X101384Y-69717D01*
X101194Y-69907D01*
X101091Y-70155D01*
X101090Y-70423D01*
X101193Y-70671D01*
X101383Y-70861D01*
X101631Y-70964D01*
X101899Y-70965D01*
X102147Y-70862D01*
X102337Y-70672D01*
X102440Y-70424D01*
X102441Y-70156D01*
X102441Y-71450D01*
X100627Y-71450D01*
X100674Y-71334D01*
X100675Y-71165D01*
X100610Y-71009D01*
X100491Y-70889D01*
X100334Y-70825D01*
X100165Y-70824D01*
X100009Y-70889D01*
X99948Y-70950D01*
X98654Y-70950D01*
X98865Y-70862D01*
X99055Y-70672D01*
X99158Y-70424D01*
X99159Y-70156D01*
X99056Y-69908D01*
X98866Y-69718D01*
X98618Y-69615D01*
X98350Y-69614D01*
X98102Y-69717D01*
X97985Y-69834D01*
X97985Y-68565D01*
X97973Y-68374D01*
X97923Y-68254D01*
X97852Y-68217D01*
X97570Y-68500D01*
X97852Y-68782D01*
X97923Y-68745D01*
X97985Y-68565D01*
X97985Y-69834D01*
X97912Y-69907D01*
X97809Y-70155D01*
X97808Y-70423D01*
X97911Y-70671D01*
X98101Y-70861D01*
X98313Y-70950D01*
X97782Y-70950D01*
X97782Y-68852D01*
X97500Y-68570D01*
X97429Y-68641D01*
X97429Y-68500D01*
X97147Y-68217D01*
X97076Y-68254D01*
X97014Y-68434D01*
X97026Y-68625D01*
X97076Y-68745D01*
X97147Y-68782D01*
X97429Y-68500D01*
X97429Y-68641D01*
X97217Y-68852D01*
X97254Y-68923D01*
X97434Y-68985D01*
X97625Y-68973D01*
X97745Y-68923D01*
X97782Y-68852D01*
X97782Y-70950D01*
X96686Y-70950D01*
X96897Y-70862D01*
X97087Y-70672D01*
X97190Y-70424D01*
X97191Y-70156D01*
X97088Y-69908D01*
X96898Y-69718D01*
X96650Y-69615D01*
X96382Y-69614D01*
X96134Y-69717D01*
X95944Y-69907D01*
X95841Y-70155D01*
X95840Y-70423D01*
X95943Y-70671D01*
X96133Y-70861D01*
X96345Y-70950D01*
X93404Y-70950D01*
X93615Y-70862D01*
X93805Y-70672D01*
X93908Y-70424D01*
X93909Y-70156D01*
X93806Y-69908D01*
X93616Y-69718D01*
X93368Y-69615D01*
X93100Y-69614D01*
X92852Y-69717D01*
X92830Y-69739D01*
X92830Y-68385D01*
X92741Y-68171D01*
X92578Y-68008D01*
X92558Y-68000D01*
X92578Y-67991D01*
X92741Y-67828D01*
X92829Y-67615D01*
X92830Y-67385D01*
X92741Y-67171D01*
X92578Y-67008D01*
X92365Y-66920D01*
X92135Y-66919D01*
X91921Y-67008D01*
X91758Y-67171D01*
X91670Y-67384D01*
X91669Y-67614D01*
X91758Y-67828D01*
X91921Y-67991D01*
X91941Y-67999D01*
X91921Y-68008D01*
X91758Y-68171D01*
X91746Y-68200D01*
X91205Y-68200D01*
X91205Y-66057D01*
X91192Y-65879D01*
X91148Y-65772D01*
X91081Y-65739D01*
X91010Y-65810D01*
X91010Y-65668D01*
X90977Y-65601D01*
X90807Y-65544D01*
X90629Y-65557D01*
X90522Y-65601D01*
X90489Y-65668D01*
X90750Y-65929D01*
X91010Y-65668D01*
X91010Y-65810D01*
X90820Y-66000D01*
X91081Y-66260D01*
X91148Y-66227D01*
X91205Y-66057D01*
X91205Y-68200D01*
X91010Y-68200D01*
X91010Y-66331D01*
X90750Y-66070D01*
X90679Y-66141D01*
X90679Y-66000D01*
X90418Y-65739D01*
X90351Y-65772D01*
X90294Y-65942D01*
X90307Y-66120D01*
X90351Y-66227D01*
X90418Y-66260D01*
X90679Y-66000D01*
X90679Y-66141D01*
X90489Y-66331D01*
X90522Y-66398D01*
X90692Y-66455D01*
X90870Y-66442D01*
X90977Y-66398D01*
X91010Y-66331D01*
X91010Y-68200D01*
X90675Y-68200D01*
X90675Y-67415D01*
X90610Y-67259D01*
X90491Y-67139D01*
X90334Y-67075D01*
X90165Y-67074D01*
X90009Y-67139D01*
X89948Y-67200D01*
X87503Y-67200D01*
X87491Y-67171D01*
X87328Y-67008D01*
X87299Y-66996D01*
X87277Y-66885D01*
X87212Y-66787D01*
X87212Y-66787D01*
X86962Y-66537D01*
X86934Y-66519D01*
X87061Y-66466D01*
X87215Y-66311D01*
X87220Y-66300D01*
X87948Y-66300D01*
X88008Y-66360D01*
X88165Y-66424D01*
X88334Y-66425D01*
X88490Y-66360D01*
X88610Y-66241D01*
X88674Y-66084D01*
X88675Y-65915D01*
X88610Y-65759D01*
X88491Y-65639D01*
X88334Y-65575D01*
X88175Y-65574D01*
X88175Y-64415D01*
X88110Y-64259D01*
X87991Y-64139D01*
X87834Y-64075D01*
X87665Y-64074D01*
X87509Y-64139D01*
X87448Y-64200D01*
X82680Y-64200D01*
X82680Y-63551D01*
X82667Y-63383D01*
X82627Y-63287D01*
X82563Y-63257D01*
X82492Y-63328D01*
X82492Y-63186D01*
X82462Y-63122D01*
X82301Y-63069D01*
X82133Y-63082D01*
X82037Y-63122D01*
X82007Y-63186D01*
X82250Y-63429D01*
X82492Y-63186D01*
X82492Y-63328D01*
X82320Y-63500D01*
X82563Y-63742D01*
X82627Y-63712D01*
X82680Y-63551D01*
X82680Y-64200D01*
X82492Y-64200D01*
X82492Y-63813D01*
X82250Y-63570D01*
X82179Y-63641D01*
X82179Y-63500D01*
X81936Y-63257D01*
X81872Y-63287D01*
X81819Y-63448D01*
X81832Y-63616D01*
X81872Y-63712D01*
X81936Y-63742D01*
X82179Y-63500D01*
X82179Y-63641D01*
X82007Y-63813D01*
X82037Y-63877D01*
X82198Y-63930D01*
X82366Y-63917D01*
X82462Y-63877D01*
X82492Y-63813D01*
X82492Y-64200D01*
X81775Y-64200D01*
X81775Y-63396D01*
X81695Y-63203D01*
X81547Y-63055D01*
X81354Y-62975D01*
X81146Y-62974D01*
X80953Y-63054D01*
X80805Y-63202D01*
X80749Y-63335D01*
X80695Y-63203D01*
X80547Y-63055D01*
X80354Y-62975D01*
X80146Y-62974D01*
X79953Y-63054D01*
X79805Y-63202D01*
X79749Y-63335D01*
X79695Y-63203D01*
X79547Y-63055D01*
X79354Y-62975D01*
X79146Y-62974D01*
X78953Y-63054D01*
X78805Y-63202D01*
X78749Y-63335D01*
X78695Y-63203D01*
X78547Y-63055D01*
X78354Y-62975D01*
X78146Y-62974D01*
X77953Y-63054D01*
X77805Y-63202D01*
X77749Y-63335D01*
X77695Y-63203D01*
X77547Y-63055D01*
X77354Y-62975D01*
X77146Y-62974D01*
X76953Y-63054D01*
X76805Y-63202D01*
X76775Y-63274D01*
X76775Y-63175D01*
X76737Y-63083D01*
X76666Y-63013D01*
X76574Y-62975D01*
X76475Y-62974D01*
X75925Y-62974D01*
X75833Y-63012D01*
X75763Y-63083D01*
X75725Y-63175D01*
X75724Y-63274D01*
X75724Y-63824D01*
X75762Y-63916D01*
X75833Y-63986D01*
X75925Y-64024D01*
X76024Y-64025D01*
X76574Y-64025D01*
X76666Y-63987D01*
X76736Y-63916D01*
X76774Y-63824D01*
X76775Y-63725D01*
X76775Y-63725D01*
X76804Y-63797D01*
X76952Y-63944D01*
X77145Y-64024D01*
X77353Y-64025D01*
X77547Y-63945D01*
X77694Y-63797D01*
X77750Y-63664D01*
X77804Y-63797D01*
X77952Y-63944D01*
X78145Y-64024D01*
X78353Y-64025D01*
X78547Y-63945D01*
X78694Y-63797D01*
X78750Y-63664D01*
X78804Y-63797D01*
X78952Y-63944D01*
X79145Y-64024D01*
X79353Y-64025D01*
X79547Y-63945D01*
X79694Y-63797D01*
X79750Y-63664D01*
X79804Y-63797D01*
X79952Y-63944D01*
X80145Y-64024D01*
X80353Y-64025D01*
X80547Y-63945D01*
X80694Y-63797D01*
X80750Y-63664D01*
X80804Y-63797D01*
X80952Y-63944D01*
X81145Y-64024D01*
X81353Y-64025D01*
X81547Y-63945D01*
X81694Y-63797D01*
X81774Y-63604D01*
X81775Y-63396D01*
X81775Y-64200D01*
X78250Y-64200D01*
X78135Y-64222D01*
X78037Y-64287D01*
X77537Y-64787D01*
X77472Y-64885D01*
X77450Y-65000D01*
X77450Y-65528D01*
X77438Y-65533D01*
X77284Y-65688D01*
X77279Y-65700D01*
X76551Y-65700D01*
X76491Y-65639D01*
X76334Y-65575D01*
X76165Y-65574D01*
X76009Y-65639D01*
X75889Y-65758D01*
X75825Y-65915D01*
X75824Y-66084D01*
X75889Y-66240D01*
X76008Y-66360D01*
X76165Y-66424D01*
X76334Y-66425D01*
X76490Y-66360D01*
X76551Y-66300D01*
X77278Y-66300D01*
X77283Y-66311D01*
X77438Y-66465D01*
X77640Y-66549D01*
X77858Y-66550D01*
X78061Y-66466D01*
X78215Y-66311D01*
X78299Y-66109D01*
X78300Y-65891D01*
X78216Y-65688D01*
X78061Y-65534D01*
X78050Y-65529D01*
X78050Y-65124D01*
X78374Y-64800D01*
X79872Y-64800D01*
X79825Y-64915D01*
X79824Y-65084D01*
X79889Y-65240D01*
X80008Y-65360D01*
X80165Y-65424D01*
X80334Y-65425D01*
X80490Y-65360D01*
X80551Y-65300D01*
X82448Y-65300D01*
X82508Y-65360D01*
X82665Y-65424D01*
X82834Y-65425D01*
X82990Y-65360D01*
X83110Y-65241D01*
X83174Y-65084D01*
X83175Y-64915D01*
X83127Y-64800D01*
X87448Y-64800D01*
X87508Y-64860D01*
X87665Y-64924D01*
X87834Y-64925D01*
X87990Y-64860D01*
X88110Y-64741D01*
X88174Y-64584D01*
X88175Y-64415D01*
X88175Y-65574D01*
X88165Y-65574D01*
X88009Y-65639D01*
X87948Y-65700D01*
X87221Y-65700D01*
X87216Y-65688D01*
X87064Y-65536D01*
X87110Y-65491D01*
X87174Y-65334D01*
X87175Y-65165D01*
X87110Y-65009D01*
X86991Y-64889D01*
X86834Y-64825D01*
X86665Y-64824D01*
X86509Y-64889D01*
X86448Y-64950D01*
X86051Y-64950D01*
X85991Y-64889D01*
X85834Y-64825D01*
X85665Y-64824D01*
X85509Y-64889D01*
X85389Y-65008D01*
X85325Y-65165D01*
X85324Y-65334D01*
X85389Y-65490D01*
X85508Y-65610D01*
X85665Y-65674D01*
X85834Y-65675D01*
X85990Y-65610D01*
X86051Y-65550D01*
X86422Y-65550D01*
X86284Y-65688D01*
X86279Y-65700D01*
X84721Y-65700D01*
X84716Y-65688D01*
X84561Y-65534D01*
X84359Y-65450D01*
X84141Y-65449D01*
X83938Y-65533D01*
X83784Y-65688D01*
X83700Y-65890D01*
X83699Y-66108D01*
X83783Y-66311D01*
X83938Y-66465D01*
X84140Y-66549D01*
X84358Y-66550D01*
X84561Y-66466D01*
X84715Y-66311D01*
X84720Y-66300D01*
X86278Y-66300D01*
X86283Y-66311D01*
X86422Y-66450D01*
X86051Y-66450D01*
X85991Y-66389D01*
X85834Y-66325D01*
X85665Y-66324D01*
X85509Y-66389D01*
X85389Y-66508D01*
X85325Y-66665D01*
X85324Y-66834D01*
X85389Y-66990D01*
X85508Y-67110D01*
X85665Y-67174D01*
X85834Y-67175D01*
X85990Y-67110D01*
X86051Y-67050D01*
X86625Y-67050D01*
X86627Y-67052D01*
X86508Y-67171D01*
X86420Y-67384D01*
X86419Y-67614D01*
X86508Y-67828D01*
X86671Y-67991D01*
X86815Y-68051D01*
X86754Y-68076D01*
X86717Y-68147D01*
X87000Y-68429D01*
X87282Y-68147D01*
X87245Y-68076D01*
X87178Y-68053D01*
X87328Y-67991D01*
X87491Y-67828D01*
X87503Y-67800D01*
X89948Y-67800D01*
X90008Y-67860D01*
X90165Y-67924D01*
X90334Y-67925D01*
X90490Y-67860D01*
X90610Y-67741D01*
X90674Y-67584D01*
X90675Y-67415D01*
X90675Y-68200D01*
X90551Y-68200D01*
X90491Y-68139D01*
X90334Y-68075D01*
X90165Y-68074D01*
X90009Y-68139D01*
X89889Y-68258D01*
X89825Y-68415D01*
X89824Y-68584D01*
X89889Y-68740D01*
X90008Y-68860D01*
X90165Y-68924D01*
X90334Y-68925D01*
X90490Y-68860D01*
X90551Y-68800D01*
X91746Y-68800D01*
X91758Y-68828D01*
X91921Y-68991D01*
X92134Y-69079D01*
X92364Y-69080D01*
X92578Y-68991D01*
X92741Y-68828D01*
X92829Y-68615D01*
X92830Y-68385D01*
X92830Y-69739D01*
X92662Y-69907D01*
X92559Y-70155D01*
X92558Y-70423D01*
X92661Y-70671D01*
X92851Y-70861D01*
X93063Y-70950D01*
X91436Y-70950D01*
X91647Y-70862D01*
X91837Y-70672D01*
X91940Y-70424D01*
X91941Y-70156D01*
X91838Y-69908D01*
X91648Y-69718D01*
X91400Y-69615D01*
X91132Y-69614D01*
X90884Y-69717D01*
X90694Y-69907D01*
X90591Y-70155D01*
X90590Y-70423D01*
X90693Y-70671D01*
X90883Y-70861D01*
X91095Y-70950D01*
X88154Y-70950D01*
X88365Y-70862D01*
X88555Y-70672D01*
X88658Y-70424D01*
X88659Y-70156D01*
X88556Y-69908D01*
X88366Y-69718D01*
X88118Y-69615D01*
X87850Y-69614D01*
X87602Y-69717D01*
X87485Y-69834D01*
X87485Y-68565D01*
X87473Y-68374D01*
X87423Y-68254D01*
X87352Y-68217D01*
X87070Y-68500D01*
X87352Y-68782D01*
X87423Y-68745D01*
X87485Y-68565D01*
X87485Y-69834D01*
X87412Y-69907D01*
X87309Y-70155D01*
X87308Y-70423D01*
X87411Y-70671D01*
X87601Y-70861D01*
X87813Y-70950D01*
X87282Y-70950D01*
X87282Y-68852D01*
X87000Y-68570D01*
X86929Y-68641D01*
X86929Y-68500D01*
X86647Y-68217D01*
X86576Y-68254D01*
X86514Y-68434D01*
X86526Y-68625D01*
X86576Y-68745D01*
X86647Y-68782D01*
X86929Y-68500D01*
X86929Y-68641D01*
X86717Y-68852D01*
X86754Y-68923D01*
X86934Y-68985D01*
X87125Y-68973D01*
X87245Y-68923D01*
X87282Y-68852D01*
X87282Y-70950D01*
X86186Y-70950D01*
X86397Y-70862D01*
X86587Y-70672D01*
X86690Y-70424D01*
X86691Y-70156D01*
X86588Y-69908D01*
X86398Y-69718D01*
X86150Y-69615D01*
X85882Y-69614D01*
X85634Y-69717D01*
X85444Y-69907D01*
X85341Y-70155D01*
X85340Y-70423D01*
X85443Y-70671D01*
X85633Y-70861D01*
X85845Y-70950D01*
X84051Y-70950D01*
X83991Y-70889D01*
X83834Y-70825D01*
X83665Y-70824D01*
X83509Y-70889D01*
X83409Y-70989D01*
X83409Y-70156D01*
X83306Y-69908D01*
X83116Y-69718D01*
X82868Y-69615D01*
X82600Y-69614D01*
X82352Y-69717D01*
X82330Y-69739D01*
X82330Y-68385D01*
X82241Y-68171D01*
X82078Y-68008D01*
X82058Y-68000D01*
X82078Y-67991D01*
X82241Y-67828D01*
X82329Y-67615D01*
X82330Y-67385D01*
X82241Y-67171D01*
X82078Y-67008D01*
X81865Y-66920D01*
X81675Y-66919D01*
X81675Y-66415D01*
X81610Y-66259D01*
X81491Y-66139D01*
X81334Y-66075D01*
X81165Y-66074D01*
X81009Y-66139D01*
X80889Y-66258D01*
X80825Y-66415D01*
X80824Y-66500D01*
X80800Y-66525D01*
X80800Y-65891D01*
X80716Y-65688D01*
X80561Y-65534D01*
X80359Y-65450D01*
X80141Y-65449D01*
X79938Y-65533D01*
X79784Y-65688D01*
X79700Y-65890D01*
X79699Y-66108D01*
X79783Y-66311D01*
X79938Y-66465D01*
X80140Y-66549D01*
X80358Y-66550D01*
X80561Y-66466D01*
X80715Y-66311D01*
X80799Y-66109D01*
X80800Y-65891D01*
X80800Y-66525D01*
X80375Y-66950D01*
X80051Y-66950D01*
X79991Y-66889D01*
X79834Y-66825D01*
X79665Y-66824D01*
X79509Y-66889D01*
X79389Y-67008D01*
X79325Y-67165D01*
X79324Y-67334D01*
X79389Y-67490D01*
X79508Y-67610D01*
X79665Y-67674D01*
X79834Y-67675D01*
X79990Y-67610D01*
X80051Y-67550D01*
X80500Y-67550D01*
X80500Y-67549D01*
X80614Y-67527D01*
X80614Y-67527D01*
X80712Y-67462D01*
X81249Y-66924D01*
X81334Y-66925D01*
X81490Y-66860D01*
X81610Y-66741D01*
X81674Y-66584D01*
X81675Y-66415D01*
X81675Y-66919D01*
X81635Y-66919D01*
X81421Y-67008D01*
X81258Y-67171D01*
X81170Y-67384D01*
X81169Y-67614D01*
X81258Y-67828D01*
X81421Y-67991D01*
X81441Y-67999D01*
X81421Y-68008D01*
X81258Y-68171D01*
X81246Y-68200D01*
X79175Y-68200D01*
X79175Y-67415D01*
X79110Y-67259D01*
X78991Y-67139D01*
X78834Y-67075D01*
X78665Y-67074D01*
X78509Y-67139D01*
X78448Y-67200D01*
X77003Y-67200D01*
X76991Y-67171D01*
X76828Y-67008D01*
X76615Y-66920D01*
X76385Y-66919D01*
X76171Y-67008D01*
X76008Y-67171D01*
X75920Y-67384D01*
X75919Y-67614D01*
X76008Y-67828D01*
X76171Y-67991D01*
X76315Y-68051D01*
X76254Y-68076D01*
X76217Y-68147D01*
X76500Y-68429D01*
X76782Y-68147D01*
X76745Y-68076D01*
X76678Y-68053D01*
X76828Y-67991D01*
X76991Y-67828D01*
X77003Y-67800D01*
X78448Y-67800D01*
X78508Y-67860D01*
X78665Y-67924D01*
X78834Y-67925D01*
X78990Y-67860D01*
X79110Y-67741D01*
X79174Y-67584D01*
X79175Y-67415D01*
X79175Y-68200D01*
X79051Y-68200D01*
X78991Y-68139D01*
X78834Y-68075D01*
X78665Y-68074D01*
X78509Y-68139D01*
X78389Y-68258D01*
X78325Y-68415D01*
X78324Y-68584D01*
X78389Y-68740D01*
X78508Y-68860D01*
X78665Y-68924D01*
X78834Y-68925D01*
X78990Y-68860D01*
X79051Y-68800D01*
X81246Y-68800D01*
X81258Y-68828D01*
X81421Y-68991D01*
X81634Y-69079D01*
X81864Y-69080D01*
X82078Y-68991D01*
X82241Y-68828D01*
X82329Y-68615D01*
X82330Y-68385D01*
X82330Y-69739D01*
X82162Y-69907D01*
X82059Y-70155D01*
X82058Y-70423D01*
X82161Y-70671D01*
X82351Y-70861D01*
X82599Y-70964D01*
X82867Y-70965D01*
X83115Y-70862D01*
X83305Y-70672D01*
X83408Y-70424D01*
X83409Y-70156D01*
X83409Y-70989D01*
X83389Y-71008D01*
X83325Y-71165D01*
X83324Y-71334D01*
X83389Y-71490D01*
X83508Y-71610D01*
X83665Y-71674D01*
X83834Y-71675D01*
X83990Y-71610D01*
X84051Y-71550D01*
X91872Y-71550D01*
X91825Y-71665D01*
X91824Y-71834D01*
X91889Y-71990D01*
X92008Y-72110D01*
X92165Y-72174D01*
X92334Y-72175D01*
X92490Y-72110D01*
X92551Y-72050D01*
X103448Y-72050D01*
X103508Y-72110D01*
X103665Y-72174D01*
X103834Y-72175D01*
X103990Y-72110D01*
X104110Y-71991D01*
X104174Y-71834D01*
X104175Y-71665D01*
X104175Y-74696D01*
X104116Y-74638D01*
X103868Y-74535D01*
X103600Y-74534D01*
X103352Y-74637D01*
X103162Y-74827D01*
X103059Y-75075D01*
X103058Y-75343D01*
X103161Y-75591D01*
X103351Y-75781D01*
X103599Y-75884D01*
X103867Y-75885D01*
X104115Y-75782D01*
X104305Y-75592D01*
X104408Y-75344D01*
X104409Y-75076D01*
X104409Y-75950D01*
X102441Y-75950D01*
X102441Y-75076D01*
X102338Y-74828D01*
X102148Y-74638D01*
X101900Y-74535D01*
X101632Y-74534D01*
X101384Y-74637D01*
X101194Y-74827D01*
X101091Y-75075D01*
X101090Y-75343D01*
X101193Y-75591D01*
X101383Y-75781D01*
X101631Y-75884D01*
X101899Y-75885D01*
X102147Y-75782D01*
X102337Y-75592D01*
X102440Y-75344D01*
X102441Y-75076D01*
X102441Y-75950D01*
X99159Y-75950D01*
X99159Y-75076D01*
X99056Y-74828D01*
X98925Y-74696D01*
X98925Y-72665D01*
X98860Y-72509D01*
X98741Y-72389D01*
X98584Y-72325D01*
X98415Y-72324D01*
X98259Y-72389D01*
X98198Y-72450D01*
X89551Y-72450D01*
X89491Y-72389D01*
X89334Y-72325D01*
X89165Y-72324D01*
X89009Y-72389D01*
X88889Y-72508D01*
X88825Y-72665D01*
X88824Y-72834D01*
X88889Y-72990D01*
X89008Y-73110D01*
X89165Y-73174D01*
X89334Y-73175D01*
X89490Y-73110D01*
X89551Y-73050D01*
X98198Y-73050D01*
X98258Y-73110D01*
X98415Y-73174D01*
X98584Y-73175D01*
X98740Y-73110D01*
X98860Y-72991D01*
X98924Y-72834D01*
X98925Y-72665D01*
X98925Y-74696D01*
X98866Y-74638D01*
X98618Y-74535D01*
X98350Y-74534D01*
X98102Y-74637D01*
X97912Y-74827D01*
X97809Y-75075D01*
X97808Y-75343D01*
X97911Y-75591D01*
X98101Y-75781D01*
X98349Y-75884D01*
X98617Y-75885D01*
X98865Y-75782D01*
X99055Y-75592D01*
X99158Y-75344D01*
X99159Y-75076D01*
X99159Y-75950D01*
X97191Y-75950D01*
X97191Y-75076D01*
X97088Y-74828D01*
X96898Y-74638D01*
X96650Y-74535D01*
X96382Y-74534D01*
X96134Y-74637D01*
X95944Y-74827D01*
X95841Y-75075D01*
X95840Y-75343D01*
X95943Y-75591D01*
X96133Y-75781D01*
X96381Y-75884D01*
X96649Y-75885D01*
X96897Y-75782D01*
X97087Y-75592D01*
X97190Y-75344D01*
X97191Y-75076D01*
X97191Y-75950D01*
X93909Y-75950D01*
X93909Y-75076D01*
X93806Y-74828D01*
X93675Y-74696D01*
X93675Y-73665D01*
X93610Y-73509D01*
X93491Y-73389D01*
X93334Y-73325D01*
X93165Y-73324D01*
X93009Y-73389D01*
X92948Y-73450D01*
X85051Y-73450D01*
X84991Y-73389D01*
X84834Y-73325D01*
X84665Y-73324D01*
X84509Y-73389D01*
X84389Y-73508D01*
X84325Y-73665D01*
X84324Y-73834D01*
X84372Y-73950D01*
X81441Y-73950D01*
X81441Y-70156D01*
X81338Y-69908D01*
X81148Y-69718D01*
X80900Y-69615D01*
X80632Y-69614D01*
X80384Y-69717D01*
X80194Y-69907D01*
X80091Y-70155D01*
X80090Y-70423D01*
X80193Y-70671D01*
X80383Y-70861D01*
X80631Y-70964D01*
X80899Y-70965D01*
X81147Y-70862D01*
X81337Y-70672D01*
X81440Y-70424D01*
X81441Y-70156D01*
X81441Y-73950D01*
X80051Y-73950D01*
X79991Y-73889D01*
X79834Y-73825D01*
X79665Y-73824D01*
X79509Y-73889D01*
X79389Y-74008D01*
X79325Y-74165D01*
X79324Y-74334D01*
X79389Y-74490D01*
X79508Y-74610D01*
X79665Y-74674D01*
X79834Y-74675D01*
X79990Y-74610D01*
X80051Y-74550D01*
X80595Y-74550D01*
X80384Y-74637D01*
X80194Y-74827D01*
X80091Y-75075D01*
X80090Y-75343D01*
X80193Y-75591D01*
X80383Y-75781D01*
X80631Y-75884D01*
X80899Y-75885D01*
X81147Y-75782D01*
X81337Y-75592D01*
X81440Y-75344D01*
X81441Y-75076D01*
X81338Y-74828D01*
X81148Y-74638D01*
X80936Y-74550D01*
X82563Y-74550D01*
X82352Y-74637D01*
X82162Y-74827D01*
X82059Y-75075D01*
X82058Y-75343D01*
X82161Y-75591D01*
X82351Y-75781D01*
X82599Y-75884D01*
X82867Y-75885D01*
X83115Y-75782D01*
X83305Y-75592D01*
X83408Y-75344D01*
X83409Y-75076D01*
X83306Y-74828D01*
X83116Y-74638D01*
X82904Y-74550D01*
X85845Y-74550D01*
X85634Y-74637D01*
X85444Y-74827D01*
X85341Y-75075D01*
X85340Y-75343D01*
X85443Y-75591D01*
X85633Y-75781D01*
X85881Y-75884D01*
X86149Y-75885D01*
X86397Y-75782D01*
X86587Y-75592D01*
X86690Y-75344D01*
X86691Y-75076D01*
X86588Y-74828D01*
X86398Y-74638D01*
X86186Y-74550D01*
X87500Y-74550D01*
X87593Y-74550D01*
X87658Y-74614D01*
X87602Y-74637D01*
X87412Y-74827D01*
X87309Y-75075D01*
X87308Y-75343D01*
X87411Y-75591D01*
X87601Y-75781D01*
X87849Y-75884D01*
X88117Y-75885D01*
X88365Y-75782D01*
X88555Y-75592D01*
X88658Y-75344D01*
X88659Y-75076D01*
X88556Y-74828D01*
X88366Y-74638D01*
X88284Y-74603D01*
X88284Y-74516D01*
X88261Y-74401D01*
X88196Y-74303D01*
X88196Y-74303D01*
X87942Y-74050D01*
X92948Y-74050D01*
X93008Y-74110D01*
X93165Y-74174D01*
X93334Y-74175D01*
X93490Y-74110D01*
X93610Y-73991D01*
X93674Y-73834D01*
X93675Y-73665D01*
X93675Y-74696D01*
X93616Y-74638D01*
X93368Y-74535D01*
X93100Y-74534D01*
X92852Y-74637D01*
X92662Y-74827D01*
X92559Y-75075D01*
X92558Y-75343D01*
X92661Y-75591D01*
X92851Y-75781D01*
X93099Y-75884D01*
X93367Y-75885D01*
X93615Y-75782D01*
X93805Y-75592D01*
X93908Y-75344D01*
X93909Y-75076D01*
X93909Y-75950D01*
X91941Y-75950D01*
X91941Y-75076D01*
X91838Y-74828D01*
X91648Y-74638D01*
X91400Y-74535D01*
X91132Y-74534D01*
X90884Y-74637D01*
X90694Y-74827D01*
X90591Y-75075D01*
X90590Y-75343D01*
X90693Y-75591D01*
X90883Y-75781D01*
X91131Y-75884D01*
X91399Y-75885D01*
X91647Y-75782D01*
X91837Y-75592D01*
X91940Y-75344D01*
X91941Y-75076D01*
X91941Y-75950D01*
X79675Y-75950D01*
X79675Y-75165D01*
X79610Y-75009D01*
X79491Y-74889D01*
X79334Y-74825D01*
X79165Y-74824D01*
X79009Y-74889D01*
X78989Y-74910D01*
X78675Y-74910D01*
X78675Y-71415D01*
X78610Y-71259D01*
X78491Y-71139D01*
X78334Y-71075D01*
X78165Y-71074D01*
X78159Y-71077D01*
X78159Y-70156D01*
X78056Y-69908D01*
X77866Y-69718D01*
X77618Y-69615D01*
X77350Y-69614D01*
X77102Y-69717D01*
X76985Y-69834D01*
X76985Y-68565D01*
X76973Y-68374D01*
X76923Y-68254D01*
X76852Y-68217D01*
X76570Y-68500D01*
X76852Y-68782D01*
X76923Y-68745D01*
X76985Y-68565D01*
X76985Y-69834D01*
X76912Y-69907D01*
X76809Y-70155D01*
X76808Y-70423D01*
X76911Y-70671D01*
X77101Y-70861D01*
X77349Y-70964D01*
X77617Y-70965D01*
X77865Y-70862D01*
X78055Y-70672D01*
X78158Y-70424D01*
X78159Y-70156D01*
X78159Y-71077D01*
X78009Y-71139D01*
X77889Y-71258D01*
X77825Y-71415D01*
X77824Y-71500D01*
X77125Y-72200D01*
X76925Y-72200D01*
X76925Y-70915D01*
X76860Y-70759D01*
X76782Y-70681D01*
X76782Y-68852D01*
X76500Y-68570D01*
X76429Y-68641D01*
X76429Y-68500D01*
X76147Y-68217D01*
X76076Y-68254D01*
X76014Y-68434D01*
X76026Y-68625D01*
X76076Y-68745D01*
X76147Y-68782D01*
X76429Y-68500D01*
X76429Y-68641D01*
X76217Y-68852D01*
X76254Y-68923D01*
X76434Y-68985D01*
X76625Y-68973D01*
X76745Y-68923D01*
X76782Y-68852D01*
X76782Y-70681D01*
X76741Y-70639D01*
X76584Y-70575D01*
X76415Y-70574D01*
X76259Y-70639D01*
X76191Y-70707D01*
X76191Y-70156D01*
X76088Y-69908D01*
X75898Y-69718D01*
X75675Y-69625D01*
X75675Y-68415D01*
X75610Y-68259D01*
X75491Y-68139D01*
X75334Y-68075D01*
X75165Y-68074D01*
X75009Y-68139D01*
X74948Y-68200D01*
X74205Y-68200D01*
X74205Y-66057D01*
X74192Y-65879D01*
X74148Y-65772D01*
X74081Y-65739D01*
X74010Y-65810D01*
X74010Y-65668D01*
X73977Y-65601D01*
X73807Y-65544D01*
X73675Y-65554D01*
X73675Y-64304D01*
X73675Y-63695D01*
X73652Y-63640D01*
X73610Y-63597D01*
X73554Y-63575D01*
X73495Y-63574D01*
X73337Y-63575D01*
X73300Y-63612D01*
X73300Y-63950D01*
X73637Y-63950D01*
X73675Y-63912D01*
X73675Y-63695D01*
X73675Y-64304D01*
X73675Y-64087D01*
X73637Y-64050D01*
X73300Y-64050D01*
X73300Y-64387D01*
X73337Y-64425D01*
X73495Y-64425D01*
X73554Y-64424D01*
X73610Y-64402D01*
X73652Y-64359D01*
X73675Y-64304D01*
X73675Y-65554D01*
X73629Y-65557D01*
X73522Y-65601D01*
X73489Y-65668D01*
X73750Y-65929D01*
X74010Y-65668D01*
X74010Y-65810D01*
X73820Y-66000D01*
X74081Y-66260D01*
X74148Y-66227D01*
X74205Y-66057D01*
X74205Y-68200D01*
X74010Y-68200D01*
X74010Y-66331D01*
X73750Y-66070D01*
X73679Y-66141D01*
X73679Y-66000D01*
X73418Y-65739D01*
X73351Y-65772D01*
X73294Y-65942D01*
X73307Y-66120D01*
X73351Y-66227D01*
X73418Y-66260D01*
X73679Y-66000D01*
X73679Y-66141D01*
X73489Y-66331D01*
X73522Y-66398D01*
X73692Y-66455D01*
X73870Y-66442D01*
X73977Y-66398D01*
X74010Y-66331D01*
X74010Y-68200D01*
X73200Y-68200D01*
X73200Y-64387D01*
X73200Y-64050D01*
X73200Y-63950D01*
X73200Y-63612D01*
X73162Y-63575D01*
X73004Y-63574D01*
X72945Y-63575D01*
X72889Y-63597D01*
X72847Y-63640D01*
X72824Y-63695D01*
X72825Y-63912D01*
X72862Y-63950D01*
X73200Y-63950D01*
X73200Y-64050D01*
X72862Y-64050D01*
X72825Y-64087D01*
X72824Y-64304D01*
X72847Y-64359D01*
X72889Y-64402D01*
X72945Y-64424D01*
X73004Y-64425D01*
X73162Y-64425D01*
X73200Y-64387D01*
X73200Y-68200D01*
X72180Y-68200D01*
X72180Y-66051D01*
X72167Y-65883D01*
X72127Y-65787D01*
X72063Y-65757D01*
X71992Y-65828D01*
X71992Y-65686D01*
X71962Y-65622D01*
X71801Y-65569D01*
X71800Y-65569D01*
X71800Y-61250D01*
X71800Y-58750D01*
X71777Y-58635D01*
X71712Y-58537D01*
X71712Y-58537D01*
X71462Y-58287D01*
X71364Y-58222D01*
X71250Y-58200D01*
X70971Y-58200D01*
X70966Y-58188D01*
X70811Y-58034D01*
X70609Y-57950D01*
X70391Y-57949D01*
X70188Y-58033D01*
X70073Y-58148D01*
X69712Y-57787D01*
X69614Y-57722D01*
X69500Y-57700D01*
X69442Y-57700D01*
X69297Y-57555D01*
X69104Y-57475D01*
X68896Y-57474D01*
X68703Y-57554D01*
X68555Y-57702D01*
X68475Y-57895D01*
X68474Y-58103D01*
X68554Y-58297D01*
X68702Y-58444D01*
X68835Y-58500D01*
X68703Y-58554D01*
X68555Y-58702D01*
X68475Y-58895D01*
X68474Y-59103D01*
X68554Y-59297D01*
X68702Y-59444D01*
X68895Y-59524D01*
X69103Y-59525D01*
X69297Y-59445D01*
X69444Y-59297D01*
X69524Y-59104D01*
X69525Y-58896D01*
X69445Y-58703D01*
X69297Y-58555D01*
X69164Y-58499D01*
X69297Y-58445D01*
X69409Y-58333D01*
X69787Y-58712D01*
X69787Y-58712D01*
X69885Y-58777D01*
X70000Y-58800D01*
X70028Y-58800D01*
X70033Y-58811D01*
X70188Y-58965D01*
X70390Y-59049D01*
X70608Y-59050D01*
X70811Y-58966D01*
X70965Y-58811D01*
X70970Y-58800D01*
X71125Y-58800D01*
X71200Y-58874D01*
X71200Y-61125D01*
X71037Y-61287D01*
X71037Y-61287D01*
X70787Y-61537D01*
X70787Y-61537D01*
X70659Y-61666D01*
X70547Y-61555D01*
X70414Y-61499D01*
X70547Y-61445D01*
X70694Y-61297D01*
X70774Y-61104D01*
X70775Y-60896D01*
X70695Y-60703D01*
X70547Y-60555D01*
X70354Y-60475D01*
X70146Y-60474D01*
X69953Y-60554D01*
X69805Y-60702D01*
X69725Y-60895D01*
X69724Y-61103D01*
X69804Y-61297D01*
X69952Y-61444D01*
X70085Y-61500D01*
X69953Y-61554D01*
X69805Y-61702D01*
X69725Y-61895D01*
X69724Y-62103D01*
X69804Y-62297D01*
X69952Y-62444D01*
X70085Y-62500D01*
X69953Y-62554D01*
X69805Y-62702D01*
X69725Y-62895D01*
X69724Y-63103D01*
X69804Y-63297D01*
X69952Y-63444D01*
X70085Y-63500D01*
X69953Y-63554D01*
X69840Y-63666D01*
X69050Y-62875D01*
X69050Y-60971D01*
X69061Y-60966D01*
X69215Y-60811D01*
X69299Y-60609D01*
X69300Y-60391D01*
X69216Y-60188D01*
X69061Y-60034D01*
X68859Y-59950D01*
X68641Y-59949D01*
X68438Y-60033D01*
X68284Y-60188D01*
X68200Y-60390D01*
X68199Y-60608D01*
X68283Y-60811D01*
X68438Y-60965D01*
X68450Y-60970D01*
X68450Y-63000D01*
X68472Y-63114D01*
X68537Y-63212D01*
X69537Y-64212D01*
X69537Y-64212D01*
X69635Y-64277D01*
X69750Y-64300D01*
X69807Y-64300D01*
X69952Y-64444D01*
X70145Y-64524D01*
X70353Y-64525D01*
X70547Y-64445D01*
X70694Y-64297D01*
X70774Y-64104D01*
X70775Y-63896D01*
X70695Y-63703D01*
X70547Y-63555D01*
X70414Y-63499D01*
X70547Y-63445D01*
X70694Y-63297D01*
X70774Y-63104D01*
X70775Y-62896D01*
X70695Y-62703D01*
X70547Y-62555D01*
X70414Y-62499D01*
X70547Y-62445D01*
X70692Y-62300D01*
X70750Y-62300D01*
X70750Y-62299D01*
X70864Y-62277D01*
X70864Y-62277D01*
X70962Y-62212D01*
X71212Y-61962D01*
X71212Y-61962D01*
X71212Y-61962D01*
X71462Y-61712D01*
X71462Y-61712D01*
X71462Y-61712D01*
X71712Y-61462D01*
X71712Y-61462D01*
X71777Y-61364D01*
X71799Y-61250D01*
X71800Y-61250D01*
X71800Y-65569D01*
X71633Y-65582D01*
X71537Y-65622D01*
X71507Y-65686D01*
X71750Y-65929D01*
X71992Y-65686D01*
X71992Y-65828D01*
X71820Y-66000D01*
X72063Y-66242D01*
X72127Y-66212D01*
X72180Y-66051D01*
X72180Y-68200D01*
X71992Y-68200D01*
X71992Y-66313D01*
X71750Y-66070D01*
X71679Y-66141D01*
X71679Y-66000D01*
X71436Y-65757D01*
X71372Y-65787D01*
X71319Y-65948D01*
X71332Y-66116D01*
X71372Y-66212D01*
X71436Y-66242D01*
X71679Y-66000D01*
X71679Y-66141D01*
X71507Y-66313D01*
X71537Y-66377D01*
X71698Y-66430D01*
X71866Y-66417D01*
X71962Y-66377D01*
X71992Y-66313D01*
X71992Y-68200D01*
X71753Y-68200D01*
X71741Y-68171D01*
X71578Y-68008D01*
X71558Y-68000D01*
X71578Y-67991D01*
X71741Y-67828D01*
X71829Y-67615D01*
X71830Y-67385D01*
X71741Y-67171D01*
X71578Y-67008D01*
X71365Y-66920D01*
X71275Y-66920D01*
X71275Y-65896D01*
X71195Y-65703D01*
X71047Y-65555D01*
X70854Y-65475D01*
X70646Y-65474D01*
X70453Y-65554D01*
X70305Y-65702D01*
X70225Y-65895D01*
X70224Y-66103D01*
X70304Y-66297D01*
X70452Y-66444D01*
X70645Y-66524D01*
X70853Y-66525D01*
X71047Y-66445D01*
X71194Y-66297D01*
X71274Y-66104D01*
X71275Y-65896D01*
X71275Y-66920D01*
X71135Y-66919D01*
X70921Y-67008D01*
X70758Y-67171D01*
X70670Y-67384D01*
X70669Y-67614D01*
X70758Y-67828D01*
X70921Y-67991D01*
X70941Y-67999D01*
X70921Y-68008D01*
X70758Y-68171D01*
X70746Y-68200D01*
X69300Y-68200D01*
X69300Y-64391D01*
X69216Y-64188D01*
X69061Y-64034D01*
X68859Y-63950D01*
X68641Y-63949D01*
X68438Y-64033D01*
X68284Y-64188D01*
X68279Y-64200D01*
X68250Y-64200D01*
X68135Y-64222D01*
X68037Y-64287D01*
X67537Y-64787D01*
X67472Y-64885D01*
X67450Y-65000D01*
X67450Y-65557D01*
X67307Y-65700D01*
X67300Y-65700D01*
X67300Y-64391D01*
X67300Y-60391D01*
X67216Y-60188D01*
X67061Y-60034D01*
X66859Y-59950D01*
X66641Y-59949D01*
X66438Y-60033D01*
X66284Y-60188D01*
X66200Y-60390D01*
X66199Y-60608D01*
X66283Y-60811D01*
X66438Y-60965D01*
X66640Y-61049D01*
X66858Y-61050D01*
X67061Y-60966D01*
X67215Y-60811D01*
X67299Y-60609D01*
X67300Y-60391D01*
X67300Y-64391D01*
X67216Y-64188D01*
X67061Y-64034D01*
X67050Y-64029D01*
X67050Y-62000D01*
X67027Y-61885D01*
X66962Y-61787D01*
X66493Y-61319D01*
X66396Y-61254D01*
X66281Y-61231D01*
X65055Y-61231D01*
X65050Y-61225D01*
X65050Y-60250D01*
X65050Y-59692D01*
X65194Y-59547D01*
X65250Y-59414D01*
X65304Y-59547D01*
X65452Y-59694D01*
X65645Y-59774D01*
X65853Y-59775D01*
X66047Y-59695D01*
X66194Y-59547D01*
X66274Y-59354D01*
X66275Y-59146D01*
X66195Y-58953D01*
X66050Y-58807D01*
X66050Y-58750D01*
X66027Y-58635D01*
X65962Y-58537D01*
X65962Y-58537D01*
X65712Y-58287D01*
X65614Y-58222D01*
X65500Y-58200D01*
X63000Y-58200D01*
X62885Y-58222D01*
X62787Y-58287D01*
X61287Y-59787D01*
X61222Y-59885D01*
X61200Y-60000D01*
X61200Y-60500D01*
X61200Y-63147D01*
X61162Y-63057D01*
X60943Y-62837D01*
X60656Y-62718D01*
X60345Y-62718D01*
X60057Y-62837D01*
X59837Y-63056D01*
X59718Y-63343D01*
X59718Y-63654D01*
X59837Y-63942D01*
X60056Y-64162D01*
X60343Y-64281D01*
X60654Y-64281D01*
X60942Y-64162D01*
X61162Y-63943D01*
X61200Y-63852D01*
X61200Y-66750D01*
X61222Y-66864D01*
X61287Y-66962D01*
X62398Y-68073D01*
X62284Y-68188D01*
X62200Y-68390D01*
X62199Y-68608D01*
X62283Y-68811D01*
X62438Y-68965D01*
X62450Y-68970D01*
X62450Y-69875D01*
X62125Y-70200D01*
X61221Y-70200D01*
X61216Y-70188D01*
X61061Y-70034D01*
X60980Y-70000D01*
X61061Y-69966D01*
X61215Y-69811D01*
X61299Y-69609D01*
X61300Y-69391D01*
X61216Y-69188D01*
X61061Y-69034D01*
X60859Y-68950D01*
X60641Y-68949D01*
X60438Y-69033D01*
X60284Y-69188D01*
X60200Y-69390D01*
X60199Y-69608D01*
X60283Y-69811D01*
X60438Y-69965D01*
X60519Y-69999D01*
X60438Y-70033D01*
X60284Y-70188D01*
X60200Y-70390D01*
X60199Y-70608D01*
X60283Y-70811D01*
X60438Y-70965D01*
X60519Y-70999D01*
X60438Y-71033D01*
X60284Y-71188D01*
X60200Y-71390D01*
X60199Y-71608D01*
X60283Y-71811D01*
X60438Y-71965D01*
X60640Y-72049D01*
X60858Y-72050D01*
X61061Y-71966D01*
X61215Y-71811D01*
X61299Y-71609D01*
X61300Y-71391D01*
X61216Y-71188D01*
X61061Y-71034D01*
X60980Y-71000D01*
X61061Y-70966D01*
X61215Y-70811D01*
X61220Y-70800D01*
X62250Y-70800D01*
X62250Y-70799D01*
X62364Y-70777D01*
X62364Y-70777D01*
X62462Y-70712D01*
X62962Y-70212D01*
X62962Y-70212D01*
X63027Y-70114D01*
X63049Y-70000D01*
X63050Y-70000D01*
X63050Y-68971D01*
X63061Y-68966D01*
X63215Y-68811D01*
X63299Y-68609D01*
X63300Y-68391D01*
X63216Y-68188D01*
X63061Y-68034D01*
X63050Y-68029D01*
X63050Y-68000D01*
X63027Y-67885D01*
X62962Y-67787D01*
X61800Y-66625D01*
X61800Y-65897D01*
X61805Y-65910D01*
X62025Y-66130D01*
X62312Y-66249D01*
X62623Y-66250D01*
X62910Y-66131D01*
X63130Y-65911D01*
X63190Y-65768D01*
X66531Y-65768D01*
X66531Y-65768D01*
X66646Y-65745D01*
X66646Y-65745D01*
X66743Y-65680D01*
X66962Y-65462D01*
X66962Y-65462D01*
X67027Y-65364D01*
X67049Y-65250D01*
X67050Y-65250D01*
X67050Y-64971D01*
X67061Y-64966D01*
X67215Y-64811D01*
X67299Y-64609D01*
X67300Y-64391D01*
X67300Y-65700D01*
X67000Y-65700D01*
X66885Y-65722D01*
X66787Y-65787D01*
X66375Y-66200D01*
X64750Y-66200D01*
X64635Y-66222D01*
X64537Y-66287D01*
X64037Y-66787D01*
X63972Y-66885D01*
X63950Y-67000D01*
X63950Y-67198D01*
X63889Y-67258D01*
X63825Y-67415D01*
X63824Y-67584D01*
X63889Y-67740D01*
X64008Y-67860D01*
X64165Y-67924D01*
X64334Y-67925D01*
X64490Y-67860D01*
X64610Y-67741D01*
X64674Y-67584D01*
X64675Y-67415D01*
X64610Y-67259D01*
X64550Y-67198D01*
X64550Y-67124D01*
X64874Y-66800D01*
X66500Y-66800D01*
X66500Y-66799D01*
X66614Y-66777D01*
X66614Y-66777D01*
X66712Y-66712D01*
X67124Y-66300D01*
X67307Y-66300D01*
X67452Y-66444D01*
X67645Y-66524D01*
X67853Y-66525D01*
X68047Y-66445D01*
X68194Y-66297D01*
X68250Y-66164D01*
X68304Y-66297D01*
X68452Y-66444D01*
X68645Y-66524D01*
X68853Y-66525D01*
X69047Y-66445D01*
X69194Y-66297D01*
X69274Y-66104D01*
X69275Y-65896D01*
X69195Y-65703D01*
X69047Y-65555D01*
X68854Y-65475D01*
X68646Y-65474D01*
X68453Y-65554D01*
X68305Y-65702D01*
X68249Y-65835D01*
X68195Y-65703D01*
X68050Y-65557D01*
X68050Y-65124D01*
X68323Y-64851D01*
X68438Y-64965D01*
X68640Y-65049D01*
X68858Y-65050D01*
X69061Y-64966D01*
X69215Y-64811D01*
X69299Y-64609D01*
X69300Y-64391D01*
X69300Y-68200D01*
X69175Y-68200D01*
X69175Y-67415D01*
X69110Y-67259D01*
X68991Y-67139D01*
X68834Y-67075D01*
X68665Y-67074D01*
X68509Y-67139D01*
X68448Y-67200D01*
X66503Y-67200D01*
X66491Y-67171D01*
X66328Y-67008D01*
X66115Y-66920D01*
X65885Y-66919D01*
X65671Y-67008D01*
X65508Y-67171D01*
X65420Y-67384D01*
X65419Y-67614D01*
X65508Y-67828D01*
X65671Y-67991D01*
X65815Y-68051D01*
X65754Y-68076D01*
X65717Y-68147D01*
X66000Y-68429D01*
X66282Y-68147D01*
X66245Y-68076D01*
X66178Y-68053D01*
X66328Y-67991D01*
X66491Y-67828D01*
X66503Y-67800D01*
X68448Y-67800D01*
X68508Y-67860D01*
X68665Y-67924D01*
X68834Y-67925D01*
X68990Y-67860D01*
X69110Y-67741D01*
X69174Y-67584D01*
X69175Y-67415D01*
X69175Y-68200D01*
X69051Y-68200D01*
X68991Y-68139D01*
X68834Y-68075D01*
X68665Y-68074D01*
X68509Y-68139D01*
X68389Y-68258D01*
X68325Y-68415D01*
X68324Y-68584D01*
X68389Y-68740D01*
X68508Y-68860D01*
X68665Y-68924D01*
X68834Y-68925D01*
X68990Y-68860D01*
X69051Y-68800D01*
X70746Y-68800D01*
X70758Y-68828D01*
X70921Y-68991D01*
X71134Y-69079D01*
X71364Y-69080D01*
X71578Y-68991D01*
X71741Y-68828D01*
X71753Y-68800D01*
X74948Y-68800D01*
X75008Y-68860D01*
X75165Y-68924D01*
X75334Y-68925D01*
X75490Y-68860D01*
X75610Y-68741D01*
X75674Y-68584D01*
X75675Y-68415D01*
X75675Y-69625D01*
X75650Y-69615D01*
X75382Y-69614D01*
X75134Y-69717D01*
X74944Y-69907D01*
X74841Y-70155D01*
X74840Y-70423D01*
X74943Y-70671D01*
X75133Y-70861D01*
X75381Y-70964D01*
X75649Y-70965D01*
X75897Y-70862D01*
X76087Y-70672D01*
X76190Y-70424D01*
X76191Y-70156D01*
X76191Y-70707D01*
X76139Y-70758D01*
X76075Y-70915D01*
X76074Y-71000D01*
X75875Y-71200D01*
X72909Y-71200D01*
X72909Y-70156D01*
X72806Y-69908D01*
X72616Y-69718D01*
X72368Y-69615D01*
X72100Y-69614D01*
X71852Y-69717D01*
X71662Y-69907D01*
X71559Y-70155D01*
X71558Y-70423D01*
X71661Y-70671D01*
X71851Y-70861D01*
X72099Y-70964D01*
X72367Y-70965D01*
X72615Y-70862D01*
X72805Y-70672D01*
X72908Y-70424D01*
X72909Y-70156D01*
X72909Y-71200D01*
X70941Y-71200D01*
X70941Y-70156D01*
X70838Y-69908D01*
X70648Y-69718D01*
X70400Y-69615D01*
X70132Y-69614D01*
X69884Y-69717D01*
X69694Y-69907D01*
X69591Y-70155D01*
X69590Y-70423D01*
X69693Y-70671D01*
X69883Y-70861D01*
X70131Y-70964D01*
X70399Y-70965D01*
X70647Y-70862D01*
X70837Y-70672D01*
X70940Y-70424D01*
X70941Y-70156D01*
X70941Y-71200D01*
X67374Y-71200D01*
X67284Y-71109D01*
X67284Y-70896D01*
X67365Y-70862D01*
X67555Y-70672D01*
X67658Y-70424D01*
X67659Y-70156D01*
X67556Y-69908D01*
X67366Y-69718D01*
X67118Y-69615D01*
X66850Y-69614D01*
X66602Y-69717D01*
X66485Y-69834D01*
X66485Y-68565D01*
X66473Y-68374D01*
X66423Y-68254D01*
X66352Y-68217D01*
X66070Y-68500D01*
X66352Y-68782D01*
X66423Y-68745D01*
X66485Y-68565D01*
X66485Y-69834D01*
X66412Y-69907D01*
X66309Y-70155D01*
X66308Y-70423D01*
X66411Y-70671D01*
X66601Y-70861D01*
X66684Y-70896D01*
X66684Y-71234D01*
X66706Y-71348D01*
X66771Y-71446D01*
X67037Y-71712D01*
X67037Y-71712D01*
X67135Y-71777D01*
X67250Y-71800D01*
X76000Y-71800D01*
X76000Y-71799D01*
X76114Y-71777D01*
X76114Y-71777D01*
X76212Y-71712D01*
X76499Y-71424D01*
X76584Y-71425D01*
X76740Y-71360D01*
X76860Y-71241D01*
X76924Y-71084D01*
X76925Y-70915D01*
X76925Y-72200D01*
X72551Y-72200D01*
X72491Y-72139D01*
X72334Y-72075D01*
X72165Y-72074D01*
X72009Y-72139D01*
X71889Y-72258D01*
X71825Y-72415D01*
X71824Y-72584D01*
X71889Y-72740D01*
X72008Y-72860D01*
X72165Y-72924D01*
X72334Y-72925D01*
X72490Y-72860D01*
X72551Y-72800D01*
X77250Y-72800D01*
X77250Y-72799D01*
X77364Y-72777D01*
X77364Y-72777D01*
X77462Y-72712D01*
X78249Y-71924D01*
X78334Y-71925D01*
X78490Y-71860D01*
X78610Y-71741D01*
X78674Y-71584D01*
X78675Y-71415D01*
X78675Y-74910D01*
X78090Y-74910D01*
X78056Y-74828D01*
X77866Y-74638D01*
X77618Y-74535D01*
X77350Y-74534D01*
X77102Y-74637D01*
X76912Y-74827D01*
X76809Y-75075D01*
X76808Y-75343D01*
X76911Y-75591D01*
X77101Y-75781D01*
X77349Y-75884D01*
X77617Y-75885D01*
X77865Y-75782D01*
X78055Y-75592D01*
X78090Y-75510D01*
X78909Y-75510D01*
X79008Y-75610D01*
X79165Y-75674D01*
X79334Y-75675D01*
X79490Y-75610D01*
X79610Y-75491D01*
X79674Y-75334D01*
X79675Y-75165D01*
X79675Y-75950D01*
X76191Y-75950D01*
X76191Y-75076D01*
X76088Y-74828D01*
X75898Y-74638D01*
X75650Y-74535D01*
X75382Y-74534D01*
X75134Y-74637D01*
X74944Y-74827D01*
X74841Y-75075D01*
X74840Y-75343D01*
X74943Y-75591D01*
X75133Y-75781D01*
X75381Y-75884D01*
X75649Y-75885D01*
X75897Y-75782D01*
X76087Y-75592D01*
X76190Y-75344D01*
X76191Y-75076D01*
X76191Y-75950D01*
X72909Y-75950D01*
X72909Y-75076D01*
X72806Y-74828D01*
X72616Y-74638D01*
X72368Y-74535D01*
X72100Y-74534D01*
X71852Y-74637D01*
X71662Y-74827D01*
X71559Y-75075D01*
X71558Y-75343D01*
X71661Y-75591D01*
X71851Y-75781D01*
X72099Y-75884D01*
X72367Y-75885D01*
X72615Y-75782D01*
X72805Y-75592D01*
X72908Y-75344D01*
X72909Y-75076D01*
X72909Y-75950D01*
X70941Y-75950D01*
X70941Y-75076D01*
X70838Y-74828D01*
X70648Y-74638D01*
X70400Y-74535D01*
X70132Y-74534D01*
X69884Y-74637D01*
X69694Y-74827D01*
X69591Y-75075D01*
X69590Y-75343D01*
X69693Y-75591D01*
X69883Y-75781D01*
X70131Y-75884D01*
X70399Y-75885D01*
X70647Y-75782D01*
X70837Y-75592D01*
X70940Y-75344D01*
X70941Y-75076D01*
X70941Y-75950D01*
X67659Y-75950D01*
X67659Y-75076D01*
X67556Y-74828D01*
X67366Y-74638D01*
X67118Y-74535D01*
X66850Y-74534D01*
X66602Y-74637D01*
X66412Y-74827D01*
X66309Y-75075D01*
X66308Y-75343D01*
X66411Y-75591D01*
X66601Y-75781D01*
X66849Y-75884D01*
X67117Y-75885D01*
X67365Y-75782D01*
X67555Y-75592D01*
X67658Y-75344D01*
X67659Y-75076D01*
X67659Y-75950D01*
X66282Y-75950D01*
X66282Y-68852D01*
X66000Y-68570D01*
X65929Y-68641D01*
X65929Y-68500D01*
X65647Y-68217D01*
X65576Y-68254D01*
X65514Y-68434D01*
X65526Y-68625D01*
X65576Y-68745D01*
X65647Y-68782D01*
X65929Y-68500D01*
X65929Y-68641D01*
X65717Y-68852D01*
X65754Y-68923D01*
X65934Y-68985D01*
X66125Y-68973D01*
X66245Y-68923D01*
X66282Y-68852D01*
X66282Y-75950D01*
X65691Y-75950D01*
X65691Y-75076D01*
X65691Y-70156D01*
X65588Y-69908D01*
X65398Y-69718D01*
X65150Y-69615D01*
X64882Y-69614D01*
X64634Y-69717D01*
X64444Y-69907D01*
X64341Y-70155D01*
X64340Y-70423D01*
X64443Y-70671D01*
X64633Y-70861D01*
X64881Y-70964D01*
X65149Y-70965D01*
X65397Y-70862D01*
X65587Y-70672D01*
X65690Y-70424D01*
X65691Y-70156D01*
X65691Y-75076D01*
X65588Y-74828D01*
X65398Y-74638D01*
X65150Y-74535D01*
X64882Y-74534D01*
X64634Y-74637D01*
X64444Y-74827D01*
X64341Y-75075D01*
X64340Y-75343D01*
X64443Y-75591D01*
X64633Y-75781D01*
X64881Y-75884D01*
X65149Y-75885D01*
X65397Y-75782D01*
X65587Y-75592D01*
X65690Y-75344D01*
X65691Y-75076D01*
X65691Y-75950D01*
X63300Y-75950D01*
X63300Y-72391D01*
X63216Y-72188D01*
X63061Y-72034D01*
X62859Y-71950D01*
X62641Y-71949D01*
X62438Y-72033D01*
X62284Y-72188D01*
X62200Y-72390D01*
X62199Y-72608D01*
X62283Y-72811D01*
X62438Y-72965D01*
X62640Y-73049D01*
X62858Y-73050D01*
X63061Y-72966D01*
X63215Y-72811D01*
X63299Y-72609D01*
X63300Y-72391D01*
X63300Y-75950D01*
X60950Y-75950D01*
X61094Y-75890D01*
X61389Y-75595D01*
X61549Y-75209D01*
X61550Y-74792D01*
X61390Y-74406D01*
X61095Y-74110D01*
X60709Y-73950D01*
X60292Y-73949D01*
X59906Y-74109D01*
X59610Y-74404D01*
X59550Y-74549D01*
X59550Y-65994D01*
X59619Y-65994D01*
X59813Y-65914D01*
X59961Y-65766D01*
X60007Y-65653D01*
X60054Y-65765D01*
X60201Y-65913D01*
X60394Y-65994D01*
X60604Y-65994D01*
X60797Y-65914D01*
X60945Y-65766D01*
X61025Y-65573D01*
X61025Y-65364D01*
X60945Y-65171D01*
X60798Y-65023D01*
X60605Y-64943D01*
X60395Y-64942D01*
X60202Y-65022D01*
X60054Y-65170D01*
X60007Y-65283D01*
X59961Y-65171D01*
X59813Y-65023D01*
X59620Y-64943D01*
X59550Y-64942D01*
X59550Y-62057D01*
X59619Y-62057D01*
X59813Y-61977D01*
X59961Y-61829D01*
X60007Y-61716D01*
X60054Y-61828D01*
X60201Y-61976D01*
X60394Y-62056D01*
X60604Y-62057D01*
X60797Y-61977D01*
X60945Y-61829D01*
X61025Y-61636D01*
X61025Y-61427D01*
X60945Y-61234D01*
X60798Y-61086D01*
X60605Y-61005D01*
X60395Y-61005D01*
X60202Y-61085D01*
X60054Y-61233D01*
X60007Y-61346D01*
X59961Y-61234D01*
X59813Y-61086D01*
X59620Y-61005D01*
X59550Y-61005D01*
X59550Y-58450D01*
X59609Y-58594D01*
X59904Y-58889D01*
X60290Y-59049D01*
X60707Y-59050D01*
X61094Y-58890D01*
X61389Y-58595D01*
X61549Y-58209D01*
X61550Y-57792D01*
X61390Y-57406D01*
X61095Y-57110D01*
X60950Y-57050D01*
X101661Y-57050D01*
X101630Y-57126D01*
X101629Y-57372D01*
X101724Y-57600D01*
X101898Y-57775D01*
X102126Y-57869D01*
X102372Y-57870D01*
X102600Y-57775D01*
X102775Y-57601D01*
X102869Y-57373D01*
X102870Y-57127D01*
X102838Y-57050D01*
X103661Y-57050D01*
X103630Y-57126D01*
X103629Y-57372D01*
X103724Y-57600D01*
X103898Y-57775D01*
X104126Y-57869D01*
X104372Y-57870D01*
X104600Y-57775D01*
X104775Y-57601D01*
X104869Y-57373D01*
X104870Y-57127D01*
X104838Y-57050D01*
X106549Y-57050D01*
X106406Y-57109D01*
X106110Y-57404D01*
X105950Y-57790D01*
X105949Y-58207D01*
X106109Y-58594D01*
X106404Y-58889D01*
X106790Y-59049D01*
X107207Y-59050D01*
X107594Y-58890D01*
X107889Y-58595D01*
X107950Y-58450D01*
X107950Y-74549D01*
M02*
