G04 (created by PCBNEW (2012-oct-18)-testing) date Thu 11 Jul 2013 02:21:07 PM EDT*
%MOIN*%
G04 Gerber Fmt 3.4, Leading zero omitted, Abs format*
%FSLAX34Y34*%
G01*
G70*
G90*
G04 APERTURE LIST*
%ADD10C,0.002*%
%ADD11C,0.008*%
%ADD12C,0.0059*%
%ADD13C,0.01*%
%ADD14C,0.009*%
%ADD15C,0.00590551*%
%ADD16C,0.004*%
%ADD17C,0.0137*%
%ADD18C,0.012*%
%ADD19C,0.015*%
%ADD20C,0.0001*%
%ADD21C,0.114173*%
%ADD22C,0.0708661*%
%ADD23C,0.0629921*%
%ADD24C,0.073874*%
%ADD25C,0.067874*%
%ADD26C,0.092874*%
%ADD27R,0.067874X0.067874*%
%ADD28R,0.062874X0.062874*%
%ADD29C,0.062874*%
%ADD30R,0.072874X0.072874*%
%ADD31C,0.072874*%
%ADD32C,0.081874*%
%ADD33C,0.167874*%
G04 APERTURE END LIST*
G54D10*
G54D11*
X106150Y-62700D02*
X106400Y-62700D01*
X106150Y-62950D02*
X106150Y-62700D01*
X106600Y-62950D02*
X106150Y-62950D01*
G54D12*
X106150Y-62950D02*
X106600Y-62950D01*
G54D11*
X106150Y-62350D02*
X106150Y-62950D01*
X106600Y-62350D02*
X106150Y-62350D01*
G54D12*
X106150Y-62350D02*
X106600Y-62350D01*
G54D13*
X103650Y-59750D02*
X103650Y-60150D01*
X103650Y-59350D02*
X103650Y-59750D01*
G54D12*
X103650Y-59750D02*
X103650Y-59350D01*
G54D13*
X104000Y-59750D02*
X104050Y-59750D01*
X104000Y-59750D02*
X103650Y-59750D01*
X103250Y-59750D02*
X104000Y-59750D01*
G54D12*
X62500Y-59450D02*
X62500Y-59150D01*
X62500Y-59250D02*
X62500Y-59450D01*
X62450Y-59250D02*
X62500Y-59250D01*
X62450Y-59400D02*
X62450Y-59250D01*
X62450Y-59300D02*
X62450Y-59400D01*
X62400Y-59350D02*
X62450Y-59300D01*
X62400Y-59150D02*
X62400Y-59350D01*
X62500Y-59150D02*
X62400Y-59150D01*
X62500Y-59200D02*
X62500Y-59150D01*
X62500Y-59050D02*
X62500Y-59200D01*
X62350Y-59200D02*
X62500Y-59050D01*
X62550Y-59200D02*
X62350Y-59200D01*
G54D13*
X62550Y-59250D02*
X62900Y-59250D01*
G54D12*
X62550Y-59500D02*
X62550Y-59250D01*
X62300Y-59250D02*
X62550Y-59500D01*
X62550Y-59250D02*
X62300Y-59250D01*
X62550Y-59000D02*
X62550Y-59250D01*
X62300Y-59250D02*
X62550Y-59000D01*
X105000Y-60500D02*
X105000Y-56500D01*
X101500Y-60500D02*
X101500Y-56500D01*
G54D14*
X64321Y-65585D02*
X64321Y-65299D01*
X64492Y-65642D02*
X63892Y-65442D01*
X64492Y-65242D01*
X64092Y-64785D02*
X64492Y-64785D01*
X64092Y-65042D02*
X64407Y-65042D01*
X64464Y-65014D01*
X64492Y-64957D01*
X64492Y-64871D01*
X64464Y-64814D01*
X64435Y-64785D01*
X64492Y-64242D02*
X63892Y-64242D01*
X64464Y-64242D02*
X64492Y-64299D01*
X64492Y-64414D01*
X64464Y-64471D01*
X64435Y-64499D01*
X64378Y-64528D01*
X64207Y-64528D01*
X64150Y-64499D01*
X64121Y-64471D01*
X64092Y-64414D01*
X64092Y-64299D01*
X64121Y-64242D01*
X64492Y-63957D02*
X64092Y-63957D01*
X63892Y-63957D02*
X63921Y-63985D01*
X63950Y-63957D01*
X63921Y-63928D01*
X63892Y-63957D01*
X63950Y-63957D01*
X64492Y-63585D02*
X64464Y-63642D01*
X64435Y-63671D01*
X64378Y-63699D01*
X64207Y-63699D01*
X64150Y-63671D01*
X64121Y-63642D01*
X64092Y-63585D01*
X64092Y-63499D01*
X64121Y-63442D01*
X64150Y-63414D01*
X64207Y-63385D01*
X64378Y-63385D01*
X64435Y-63414D01*
X64464Y-63442D01*
X64492Y-63499D01*
X64492Y-63585D01*
X63892Y-62557D02*
X63892Y-62442D01*
X63921Y-62385D01*
X63978Y-62328D01*
X64092Y-62299D01*
X64292Y-62299D01*
X64407Y-62328D01*
X64464Y-62385D01*
X64492Y-62442D01*
X64492Y-62557D01*
X64464Y-62614D01*
X64407Y-62671D01*
X64292Y-62699D01*
X64092Y-62699D01*
X63978Y-62671D01*
X63921Y-62614D01*
X63892Y-62557D01*
X64092Y-61785D02*
X64492Y-61785D01*
X64092Y-62042D02*
X64407Y-62042D01*
X64464Y-62014D01*
X64492Y-61957D01*
X64492Y-61871D01*
X64464Y-61814D01*
X64435Y-61785D01*
X64092Y-61585D02*
X64092Y-61357D01*
X63892Y-61500D02*
X64407Y-61500D01*
X64464Y-61471D01*
X64492Y-61414D01*
X64492Y-61357D01*
G54D11*
X94522Y-58729D02*
G75*
G03X95000Y-58750I227J-270D01*
G74*
G01*
X94750Y-58500D02*
X94750Y-59000D01*
G54D14*
X92450Y-59242D02*
X92450Y-58642D01*
X92678Y-58642D01*
X92735Y-58671D01*
X92764Y-58700D01*
X92792Y-58757D01*
X92792Y-58842D01*
X92764Y-58900D01*
X92735Y-58928D01*
X92678Y-58957D01*
X92450Y-58957D01*
X92992Y-58642D02*
X93135Y-59242D01*
X93250Y-58814D01*
X93364Y-59242D01*
X93507Y-58642D01*
X94078Y-59242D02*
X93878Y-58957D01*
X93735Y-59242D02*
X93735Y-58642D01*
X93964Y-58642D01*
X94021Y-58671D01*
X94050Y-58700D01*
X94078Y-58757D01*
X94078Y-58842D01*
X94050Y-58900D01*
X94021Y-58928D01*
X93964Y-58957D01*
X93735Y-58957D01*
X89878Y-57342D02*
X89878Y-57828D01*
X89850Y-57885D01*
X89821Y-57914D01*
X89764Y-57942D01*
X89678Y-57942D01*
X89621Y-57914D01*
X89878Y-57714D02*
X89821Y-57742D01*
X89707Y-57742D01*
X89650Y-57714D01*
X89621Y-57685D01*
X89592Y-57628D01*
X89592Y-57457D01*
X89621Y-57400D01*
X89650Y-57371D01*
X89707Y-57342D01*
X89821Y-57342D01*
X89878Y-57371D01*
X90250Y-57742D02*
X90192Y-57714D01*
X90164Y-57685D01*
X90135Y-57628D01*
X90135Y-57457D01*
X90164Y-57400D01*
X90192Y-57371D01*
X90250Y-57342D01*
X90335Y-57342D01*
X90392Y-57371D01*
X90421Y-57400D01*
X90450Y-57457D01*
X90450Y-57628D01*
X90421Y-57685D01*
X90392Y-57714D01*
X90335Y-57742D01*
X90250Y-57742D01*
X91078Y-57342D02*
X91307Y-57342D01*
X91164Y-57142D02*
X91164Y-57657D01*
X91192Y-57714D01*
X91250Y-57742D01*
X91307Y-57742D01*
X91592Y-57742D02*
X91535Y-57714D01*
X91507Y-57685D01*
X91478Y-57628D01*
X91478Y-57457D01*
X91507Y-57400D01*
X91535Y-57371D01*
X91592Y-57342D01*
X91678Y-57342D01*
X91735Y-57371D01*
X91764Y-57400D01*
X91792Y-57457D01*
X91792Y-57628D01*
X91764Y-57685D01*
X91735Y-57714D01*
X91678Y-57742D01*
X91592Y-57742D01*
X92735Y-57714D02*
X92678Y-57742D01*
X92564Y-57742D01*
X92507Y-57714D01*
X92478Y-57657D01*
X92478Y-57428D01*
X92507Y-57371D01*
X92564Y-57342D01*
X92678Y-57342D01*
X92735Y-57371D01*
X92764Y-57428D01*
X92764Y-57485D01*
X92478Y-57542D01*
X93278Y-57742D02*
X93278Y-57142D01*
X93278Y-57714D02*
X93221Y-57742D01*
X93107Y-57742D01*
X93050Y-57714D01*
X93021Y-57685D01*
X92992Y-57628D01*
X92992Y-57457D01*
X93021Y-57400D01*
X93050Y-57371D01*
X93107Y-57342D01*
X93221Y-57342D01*
X93278Y-57371D01*
X93478Y-57342D02*
X93707Y-57342D01*
X93564Y-57742D02*
X93564Y-57228D01*
X93592Y-57171D01*
X93650Y-57142D01*
X93707Y-57142D01*
X93907Y-57685D02*
X93935Y-57714D01*
X93907Y-57742D01*
X93878Y-57714D01*
X93907Y-57685D01*
X93907Y-57742D01*
X94192Y-57742D02*
X94192Y-57142D01*
X94192Y-57371D02*
X94250Y-57342D01*
X94364Y-57342D01*
X94421Y-57371D01*
X94450Y-57400D01*
X94478Y-57457D01*
X94478Y-57628D01*
X94450Y-57685D01*
X94421Y-57714D01*
X94364Y-57742D01*
X94250Y-57742D01*
X94192Y-57714D01*
X94992Y-57342D02*
X94992Y-57742D01*
X94735Y-57342D02*
X94735Y-57657D01*
X94764Y-57714D01*
X94821Y-57742D01*
X94907Y-57742D01*
X94964Y-57714D01*
X94992Y-57685D01*
X95278Y-57685D02*
X95307Y-57714D01*
X95278Y-57742D01*
X95250Y-57714D01*
X95278Y-57685D01*
X95278Y-57742D01*
X95792Y-57714D02*
X95735Y-57742D01*
X95621Y-57742D01*
X95564Y-57714D01*
X95535Y-57657D01*
X95535Y-57428D01*
X95564Y-57371D01*
X95621Y-57342D01*
X95735Y-57342D01*
X95792Y-57371D01*
X95821Y-57428D01*
X95821Y-57485D01*
X95535Y-57542D01*
X96335Y-57742D02*
X96335Y-57142D01*
X96335Y-57714D02*
X96278Y-57742D01*
X96164Y-57742D01*
X96107Y-57714D01*
X96078Y-57685D01*
X96050Y-57628D01*
X96050Y-57457D01*
X96078Y-57400D01*
X96107Y-57371D01*
X96164Y-57342D01*
X96278Y-57342D01*
X96335Y-57371D01*
X96878Y-57342D02*
X96878Y-57742D01*
X96621Y-57342D02*
X96621Y-57657D01*
X96650Y-57714D01*
X96707Y-57742D01*
X96792Y-57742D01*
X96850Y-57714D01*
X96878Y-57685D01*
X97592Y-57114D02*
X97078Y-57885D01*
X97764Y-57714D02*
X97821Y-57742D01*
X97935Y-57742D01*
X97992Y-57714D01*
X98021Y-57657D01*
X98021Y-57628D01*
X97992Y-57571D01*
X97935Y-57542D01*
X97850Y-57542D01*
X97792Y-57514D01*
X97764Y-57457D01*
X97764Y-57428D01*
X97792Y-57371D01*
X97850Y-57342D01*
X97935Y-57342D01*
X97992Y-57371D01*
X98221Y-57342D02*
X98364Y-57742D01*
X98507Y-57342D02*
X98364Y-57742D01*
X98307Y-57885D01*
X98278Y-57914D01*
X98221Y-57942D01*
X98735Y-57342D02*
X98735Y-57742D01*
X98735Y-57400D02*
X98764Y-57371D01*
X98821Y-57342D01*
X98907Y-57342D01*
X98964Y-57371D01*
X98992Y-57428D01*
X98992Y-57742D01*
X99192Y-57342D02*
X99421Y-57342D01*
X99278Y-57142D02*
X99278Y-57657D01*
X99307Y-57714D01*
X99364Y-57742D01*
X99421Y-57742D01*
X99621Y-57742D02*
X99621Y-57142D01*
X99878Y-57742D02*
X99878Y-57428D01*
X99850Y-57371D01*
X99792Y-57342D01*
X99707Y-57342D01*
X99650Y-57371D01*
X99621Y-57400D01*
X75114Y-57571D02*
X75400Y-57571D01*
X75057Y-57742D02*
X75257Y-57142D01*
X75457Y-57742D01*
X75657Y-57742D02*
X75657Y-57342D01*
X75657Y-57457D02*
X75685Y-57400D01*
X75714Y-57371D01*
X75771Y-57342D01*
X75828Y-57342D01*
X75942Y-57342D02*
X76171Y-57342D01*
X76028Y-57142D02*
X76028Y-57657D01*
X76057Y-57714D01*
X76114Y-57742D01*
X76171Y-57742D01*
X76600Y-57714D02*
X76542Y-57742D01*
X76428Y-57742D01*
X76371Y-57714D01*
X76342Y-57657D01*
X76342Y-57428D01*
X76371Y-57371D01*
X76428Y-57342D01*
X76542Y-57342D01*
X76600Y-57371D01*
X76628Y-57428D01*
X76628Y-57485D01*
X76342Y-57542D01*
X76885Y-57742D02*
X76885Y-57342D01*
X76885Y-57400D02*
X76914Y-57371D01*
X76971Y-57342D01*
X77057Y-57342D01*
X77114Y-57371D01*
X77142Y-57428D01*
X77142Y-57742D01*
X77142Y-57428D02*
X77171Y-57371D01*
X77228Y-57342D01*
X77314Y-57342D01*
X77371Y-57371D01*
X77400Y-57428D01*
X77400Y-57742D01*
X77685Y-57742D02*
X77685Y-57342D01*
X77685Y-57142D02*
X77657Y-57171D01*
X77685Y-57200D01*
X77714Y-57171D01*
X77685Y-57142D01*
X77685Y-57200D01*
X77942Y-57714D02*
X78000Y-57742D01*
X78114Y-57742D01*
X78171Y-57714D01*
X78200Y-57657D01*
X78200Y-57628D01*
X78171Y-57571D01*
X78114Y-57542D01*
X78028Y-57542D01*
X77971Y-57514D01*
X77942Y-57457D01*
X77942Y-57428D01*
X77971Y-57371D01*
X78028Y-57342D01*
X78114Y-57342D01*
X78171Y-57371D01*
X78885Y-57714D02*
X78971Y-57742D01*
X79114Y-57742D01*
X79171Y-57714D01*
X79200Y-57685D01*
X79228Y-57628D01*
X79228Y-57571D01*
X79200Y-57514D01*
X79171Y-57485D01*
X79114Y-57457D01*
X79000Y-57428D01*
X78942Y-57400D01*
X78914Y-57371D01*
X78885Y-57314D01*
X78885Y-57257D01*
X78914Y-57200D01*
X78942Y-57171D01*
X79000Y-57142D01*
X79142Y-57142D01*
X79228Y-57171D01*
X79428Y-57342D02*
X79571Y-57742D01*
X79714Y-57342D02*
X79571Y-57742D01*
X79514Y-57885D01*
X79485Y-57914D01*
X79428Y-57942D01*
X79942Y-57342D02*
X79942Y-57742D01*
X79942Y-57400D02*
X79971Y-57371D01*
X80028Y-57342D01*
X80114Y-57342D01*
X80171Y-57371D01*
X80200Y-57428D01*
X80200Y-57742D01*
X80400Y-57342D02*
X80628Y-57342D01*
X80485Y-57142D02*
X80485Y-57657D01*
X80514Y-57714D01*
X80571Y-57742D01*
X80628Y-57742D01*
X80828Y-57742D02*
X80828Y-57142D01*
X81085Y-57742D02*
X81085Y-57428D01*
X81057Y-57371D01*
X81000Y-57342D01*
X80914Y-57342D01*
X80857Y-57371D01*
X80828Y-57400D01*
X75485Y-58615D02*
X75457Y-58644D01*
X75371Y-58672D01*
X75314Y-58672D01*
X75228Y-58644D01*
X75171Y-58587D01*
X75142Y-58530D01*
X75114Y-58415D01*
X75114Y-58330D01*
X75142Y-58215D01*
X75171Y-58158D01*
X75228Y-58101D01*
X75314Y-58072D01*
X75371Y-58072D01*
X75457Y-58101D01*
X75485Y-58130D01*
X75742Y-58615D02*
X75771Y-58644D01*
X75742Y-58672D01*
X75714Y-58644D01*
X75742Y-58615D01*
X75742Y-58672D01*
X76428Y-58072D02*
X76571Y-58672D01*
X76685Y-58244D01*
X76800Y-58672D01*
X76942Y-58072D01*
X77257Y-58672D02*
X77200Y-58644D01*
X77171Y-58615D01*
X77142Y-58558D01*
X77142Y-58387D01*
X77171Y-58330D01*
X77200Y-58301D01*
X77257Y-58272D01*
X77342Y-58272D01*
X77400Y-58301D01*
X77428Y-58330D01*
X77457Y-58387D01*
X77457Y-58558D01*
X77428Y-58615D01*
X77400Y-58644D01*
X77342Y-58672D01*
X77257Y-58672D01*
X77799Y-58672D02*
X77742Y-58644D01*
X77714Y-58615D01*
X77685Y-58558D01*
X77685Y-58387D01*
X77714Y-58330D01*
X77742Y-58301D01*
X77799Y-58272D01*
X77885Y-58272D01*
X77942Y-58301D01*
X77971Y-58330D01*
X77999Y-58387D01*
X77999Y-58558D01*
X77971Y-58615D01*
X77942Y-58644D01*
X77885Y-58672D01*
X77799Y-58672D01*
X78514Y-58672D02*
X78514Y-58072D01*
X78514Y-58644D02*
X78457Y-58672D01*
X78342Y-58672D01*
X78285Y-58644D01*
X78257Y-58615D01*
X78228Y-58558D01*
X78228Y-58387D01*
X78257Y-58330D01*
X78285Y-58301D01*
X78342Y-58272D01*
X78457Y-58272D01*
X78514Y-58301D01*
X79057Y-58672D02*
X79057Y-58358D01*
X79028Y-58301D01*
X78971Y-58272D01*
X78857Y-58272D01*
X78799Y-58301D01*
X79057Y-58644D02*
X78999Y-58672D01*
X78857Y-58672D01*
X78799Y-58644D01*
X78771Y-58587D01*
X78771Y-58530D01*
X78799Y-58472D01*
X78857Y-58444D01*
X78999Y-58444D01*
X79057Y-58415D01*
X79428Y-58672D02*
X79371Y-58644D01*
X79342Y-58587D01*
X79342Y-58072D01*
X79742Y-58672D02*
X79685Y-58644D01*
X79657Y-58587D01*
X79657Y-58072D01*
X75485Y-59602D02*
X75285Y-59317D01*
X75142Y-59602D02*
X75142Y-59002D01*
X75371Y-59002D01*
X75428Y-59031D01*
X75457Y-59060D01*
X75485Y-59117D01*
X75485Y-59202D01*
X75457Y-59260D01*
X75428Y-59288D01*
X75371Y-59317D01*
X75142Y-59317D01*
X75971Y-59574D02*
X75914Y-59602D01*
X75800Y-59602D01*
X75742Y-59574D01*
X75714Y-59517D01*
X75714Y-59288D01*
X75742Y-59231D01*
X75800Y-59202D01*
X75914Y-59202D01*
X75971Y-59231D01*
X76000Y-59288D01*
X76000Y-59345D01*
X75714Y-59402D01*
X76200Y-59202D02*
X76342Y-59602D01*
X76485Y-59202D01*
X76714Y-59545D02*
X76742Y-59574D01*
X76714Y-59602D01*
X76685Y-59574D01*
X76714Y-59545D01*
X76714Y-59602D01*
X77800Y-59545D02*
X77771Y-59574D01*
X77685Y-59602D01*
X77628Y-59602D01*
X77542Y-59574D01*
X77485Y-59517D01*
X77457Y-59460D01*
X77428Y-59345D01*
X77428Y-59260D01*
X77457Y-59145D01*
X77485Y-59088D01*
X77542Y-59031D01*
X77628Y-59002D01*
X77685Y-59002D01*
X77771Y-59031D01*
X77800Y-59060D01*
X78657Y-59802D02*
X78657Y-58945D01*
X79514Y-59060D02*
X79542Y-59031D01*
X79600Y-59002D01*
X79742Y-59002D01*
X79800Y-59031D01*
X79828Y-59060D01*
X79857Y-59117D01*
X79857Y-59174D01*
X79828Y-59260D01*
X79485Y-59602D01*
X79857Y-59602D01*
X80228Y-59002D02*
X80285Y-59002D01*
X80342Y-59031D01*
X80371Y-59060D01*
X80400Y-59117D01*
X80428Y-59231D01*
X80428Y-59374D01*
X80400Y-59488D01*
X80371Y-59545D01*
X80342Y-59574D01*
X80285Y-59602D01*
X80228Y-59602D01*
X80171Y-59574D01*
X80142Y-59545D01*
X80114Y-59488D01*
X80085Y-59374D01*
X80085Y-59231D01*
X80114Y-59117D01*
X80142Y-59060D01*
X80171Y-59031D01*
X80228Y-59002D01*
X81000Y-59602D02*
X80657Y-59602D01*
X80828Y-59602D02*
X80828Y-59002D01*
X80771Y-59088D01*
X80714Y-59145D01*
X80657Y-59174D01*
X81200Y-59002D02*
X81571Y-59002D01*
X81371Y-59231D01*
X81457Y-59231D01*
X81514Y-59260D01*
X81542Y-59288D01*
X81571Y-59345D01*
X81571Y-59488D01*
X81542Y-59545D01*
X81514Y-59574D01*
X81457Y-59602D01*
X81285Y-59602D01*
X81228Y-59574D01*
X81200Y-59545D01*
X81828Y-59374D02*
X82285Y-59374D01*
X82685Y-59002D02*
X82742Y-59002D01*
X82800Y-59031D01*
X82828Y-59060D01*
X82857Y-59117D01*
X82885Y-59231D01*
X82885Y-59374D01*
X82857Y-59488D01*
X82828Y-59545D01*
X82800Y-59574D01*
X82742Y-59602D01*
X82685Y-59602D01*
X82628Y-59574D01*
X82600Y-59545D01*
X82571Y-59488D01*
X82542Y-59374D01*
X82542Y-59231D01*
X82571Y-59117D01*
X82600Y-59060D01*
X82628Y-59031D01*
X82685Y-59002D01*
X83085Y-59002D02*
X83485Y-59002D01*
X83228Y-59602D01*
X83714Y-59374D02*
X84171Y-59374D01*
X84571Y-59002D02*
X84628Y-59002D01*
X84685Y-59031D01*
X84714Y-59060D01*
X84742Y-59117D01*
X84771Y-59231D01*
X84771Y-59374D01*
X84742Y-59488D01*
X84714Y-59545D01*
X84685Y-59574D01*
X84628Y-59602D01*
X84571Y-59602D01*
X84514Y-59574D01*
X84485Y-59545D01*
X84457Y-59488D01*
X84428Y-59374D01*
X84428Y-59231D01*
X84457Y-59117D01*
X84485Y-59060D01*
X84514Y-59031D01*
X84571Y-59002D01*
X84971Y-59002D02*
X85342Y-59002D01*
X85142Y-59231D01*
X85228Y-59231D01*
X85285Y-59260D01*
X85314Y-59288D01*
X85342Y-59345D01*
X85342Y-59488D01*
X85314Y-59545D01*
X85285Y-59574D01*
X85228Y-59602D01*
X85057Y-59602D01*
X85000Y-59574D01*
X84971Y-59545D01*
G54D12*
X101500Y-60399D02*
G75*
G03X102149Y-61249I749J-100D01*
G74*
G01*
X104200Y-61250D02*
G75*
G03X105000Y-60549I49J750D01*
G74*
G01*
X104250Y-61250D02*
X102250Y-61250D01*
X103400Y-61000D02*
X103400Y-60000D01*
X103350Y-61000D02*
X103400Y-61000D01*
X103350Y-60000D02*
X103350Y-61000D01*
X103450Y-60000D02*
X103350Y-60000D01*
X59400Y-67800D02*
X59400Y-67650D01*
X59350Y-67850D02*
X59400Y-67800D01*
X59350Y-67700D02*
X59350Y-67850D01*
X59450Y-67600D02*
X59350Y-67700D01*
X59450Y-67850D02*
X59450Y-67600D01*
X59200Y-67850D02*
X59450Y-67850D01*
X59500Y-67550D02*
X59200Y-67850D01*
X59500Y-67800D02*
X59500Y-67550D01*
X59200Y-67800D02*
X59500Y-67800D01*
X59100Y-67900D02*
X59200Y-67800D01*
X59500Y-67900D02*
X59100Y-67900D01*
X59500Y-67950D02*
X59500Y-67900D01*
X59500Y-67500D02*
X59500Y-67950D01*
X59550Y-67450D02*
X59500Y-67500D01*
X59550Y-67950D02*
X59550Y-67450D01*
X59600Y-67950D02*
X59550Y-67950D01*
X59600Y-67400D02*
X59600Y-67950D01*
X59050Y-67950D02*
X59600Y-67400D01*
X59650Y-67950D02*
X59050Y-67950D01*
X59650Y-67350D02*
X59650Y-67950D01*
X59050Y-67950D02*
X59650Y-67350D01*
G54D14*
X59842Y-67342D02*
X60042Y-67942D01*
X60242Y-67342D01*
X60528Y-67942D02*
X60471Y-67914D01*
X60442Y-67885D01*
X60414Y-67828D01*
X60414Y-67657D01*
X60442Y-67600D01*
X60471Y-67571D01*
X60528Y-67542D01*
X60614Y-67542D01*
X60671Y-67571D01*
X60700Y-67600D01*
X60728Y-67657D01*
X60728Y-67828D01*
X60700Y-67885D01*
X60671Y-67914D01*
X60614Y-67942D01*
X60528Y-67942D01*
X61071Y-67942D02*
X61014Y-67914D01*
X60985Y-67857D01*
X60985Y-67342D01*
X61557Y-67542D02*
X61557Y-67942D01*
X61300Y-67542D02*
X61300Y-67857D01*
X61328Y-67914D01*
X61385Y-67942D01*
X61471Y-67942D01*
X61528Y-67914D01*
X61557Y-67885D01*
X61842Y-67942D02*
X61842Y-67542D01*
X61842Y-67600D02*
X61871Y-67571D01*
X61928Y-67542D01*
X62014Y-67542D01*
X62071Y-67571D01*
X62100Y-67628D01*
X62100Y-67942D01*
X62100Y-67628D02*
X62128Y-67571D01*
X62185Y-67542D01*
X62271Y-67542D01*
X62328Y-67571D01*
X62357Y-67628D01*
X62357Y-67942D01*
X62871Y-67914D02*
X62814Y-67942D01*
X62700Y-67942D01*
X62642Y-67914D01*
X62614Y-67857D01*
X62614Y-67628D01*
X62642Y-67571D01*
X62700Y-67542D01*
X62814Y-67542D01*
X62871Y-67571D01*
X62900Y-67628D01*
X62900Y-67685D01*
X62614Y-67742D01*
G54D13*
X61500Y-58500D02*
G75*
G03X61500Y-59999I749J-749D01*
G74*
G01*
X62000Y-59000D02*
G75*
G03X62000Y-59500I250J-250D01*
G74*
G01*
X61750Y-58750D02*
G75*
G03X61750Y-59750I500J-500D01*
G74*
G01*
G54D12*
X103100Y-60700D02*
X103100Y-60300D01*
X103050Y-60700D02*
X103100Y-60700D01*
X103150Y-60700D02*
X103050Y-60700D01*
X103150Y-60300D02*
X103150Y-60700D01*
X103050Y-60300D02*
X103150Y-60300D01*
X103450Y-61000D02*
X103450Y-60000D01*
G54D11*
X103450Y-60500D02*
X103750Y-60500D01*
G54D12*
X103050Y-60300D02*
X103050Y-60700D01*
X103050Y-60500D02*
X103050Y-60300D01*
G54D11*
X102750Y-60500D02*
X103050Y-60500D01*
G54D15*
X58750Y-75000D02*
X58750Y-58000D01*
X107250Y-76500D02*
X60250Y-76500D01*
X108750Y-58000D02*
X108750Y-75000D01*
X60250Y-56500D02*
X107250Y-56500D01*
X107250Y-76500D02*
G75*
G03X108750Y-75000I0J1500D01*
G74*
G01*
X108750Y-58000D02*
G75*
G03X107250Y-56500I-1500J0D01*
G74*
G01*
X58750Y-75000D02*
G75*
G03X60250Y-76500I1500J0D01*
G74*
G01*
X60250Y-56500D02*
G75*
G03X58750Y-58000I0J-1500D01*
G74*
G01*
G54D13*
X63250Y-66650D02*
X59000Y-66650D01*
X60500Y-60350D02*
X59000Y-60350D01*
X59000Y-60350D02*
X59200Y-60350D01*
X63649Y-66255D02*
X63649Y-60744D01*
X63649Y-60744D02*
X63649Y-64090D01*
X58978Y-60350D02*
X58978Y-66649D01*
X63255Y-60350D02*
X60500Y-60350D01*
X63255Y-66649D02*
G75*
G03X63649Y-66255I0J393D01*
G74*
G01*
X63649Y-60755D02*
G75*
G03X63255Y-60350I-399J5D01*
G74*
G01*
X107750Y-60780D02*
X106750Y-60780D01*
X106736Y-60786D02*
G75*
G03X106450Y-61400I513J-613D01*
G74*
G01*
X106451Y-61400D02*
G75*
G03X106873Y-62104I799J0D01*
G74*
G01*
X108048Y-61398D02*
G75*
G03X107765Y-60789I-798J-1D01*
G74*
G01*
X107647Y-62094D02*
G75*
G03X108050Y-61400I-397J694D01*
G74*
G01*
X106870Y-62104D02*
G75*
G03X107250Y-62200I379J704D01*
G74*
G01*
X107250Y-62199D02*
G75*
G03X107668Y-62081I0J799D01*
G74*
G01*
X96750Y-58280D02*
X95750Y-58280D01*
X95736Y-58286D02*
G75*
G03X95450Y-58900I513J-613D01*
G74*
G01*
X95451Y-58900D02*
G75*
G03X95873Y-59604I799J0D01*
G74*
G01*
X97048Y-58898D02*
G75*
G03X96765Y-58289I-798J-1D01*
G74*
G01*
X96647Y-59594D02*
G75*
G03X97050Y-58900I-397J694D01*
G74*
G01*
X95870Y-59604D02*
G75*
G03X96250Y-59700I379J704D01*
G74*
G01*
X96250Y-59699D02*
G75*
G03X96668Y-59581I0J799D01*
G74*
G01*
X59500Y-70500D02*
X59500Y-68250D01*
X59500Y-68250D02*
X59750Y-68250D01*
X59750Y-68250D02*
X60750Y-69000D01*
X59500Y-70500D02*
X59500Y-72750D01*
X59500Y-72750D02*
X59750Y-72750D01*
X59750Y-72750D02*
X60750Y-72000D01*
X60750Y-72000D02*
X61500Y-72000D01*
X61500Y-69000D02*
X60750Y-69000D01*
X61500Y-72000D02*
X61500Y-69000D01*
G54D11*
X97718Y-64511D02*
X97718Y-64275D01*
X97718Y-64275D02*
X97521Y-64078D01*
X97718Y-63922D02*
X97718Y-63607D01*
X93388Y-62426D02*
X93388Y-62032D01*
X93782Y-61638D02*
X97718Y-61638D01*
X98112Y-62032D02*
X98112Y-62426D01*
X98112Y-63607D02*
X98112Y-64393D01*
X98112Y-65574D02*
X98112Y-65968D01*
X97718Y-66362D02*
X93782Y-66362D01*
X93388Y-65968D02*
X93388Y-65574D01*
X93388Y-64393D02*
X93388Y-63607D01*
G54D16*
X96722Y-64000D02*
G75*
G03X96722Y-64000I-972J0D01*
G74*
G01*
G54D17*
X94062Y-62229D02*
G75*
G03X94062Y-62229I-83J0D01*
G74*
G01*
X97604Y-62229D02*
G75*
G03X97604Y-62229I-83J0D01*
G74*
G01*
X97604Y-65771D02*
G75*
G03X97604Y-65771I-83J0D01*
G74*
G01*
X94062Y-65771D02*
G75*
G03X94062Y-65771I-83J0D01*
G74*
G01*
G54D11*
X93782Y-61638D02*
G75*
G03X93388Y-62032I0J-394D01*
G74*
G01*
X98112Y-62032D02*
G75*
G03X97718Y-61638I-394J0D01*
G74*
G01*
X97718Y-66362D02*
G75*
G03X98112Y-65968I0J394D01*
G74*
G01*
X93388Y-65968D02*
G75*
G03X93782Y-66362I394J0D01*
G74*
G01*
X104718Y-64511D02*
X104718Y-64275D01*
X104718Y-64275D02*
X104521Y-64078D01*
X104718Y-63922D02*
X104718Y-63607D01*
X100388Y-62426D02*
X100388Y-62032D01*
X100782Y-61638D02*
X104718Y-61638D01*
X105112Y-62032D02*
X105112Y-62426D01*
X105112Y-63607D02*
X105112Y-64393D01*
X105112Y-65574D02*
X105112Y-65968D01*
X104718Y-66362D02*
X100782Y-66362D01*
X100388Y-65968D02*
X100388Y-65574D01*
X100388Y-64393D02*
X100388Y-63607D01*
G54D16*
X103722Y-64000D02*
G75*
G03X103722Y-64000I-972J0D01*
G74*
G01*
G54D17*
X101062Y-62229D02*
G75*
G03X101062Y-62229I-83J0D01*
G74*
G01*
X104604Y-62229D02*
G75*
G03X104604Y-62229I-83J0D01*
G74*
G01*
X104604Y-65771D02*
G75*
G03X104604Y-65771I-83J0D01*
G74*
G01*
X101062Y-65771D02*
G75*
G03X101062Y-65771I-83J0D01*
G74*
G01*
G54D11*
X100782Y-61638D02*
G75*
G03X100388Y-62032I0J-394D01*
G74*
G01*
X105112Y-62032D02*
G75*
G03X104718Y-61638I-394J0D01*
G74*
G01*
X104718Y-66362D02*
G75*
G03X105112Y-65968I0J394D01*
G74*
G01*
X100388Y-65968D02*
G75*
G03X100782Y-66362I394J0D01*
G74*
G01*
X92761Y-70782D02*
X92525Y-70782D01*
X92525Y-70782D02*
X92328Y-70979D01*
X92172Y-70782D02*
X91857Y-70782D01*
X90676Y-75112D02*
X90282Y-75112D01*
X89888Y-74718D02*
X89888Y-70782D01*
X90282Y-70388D02*
X90676Y-70388D01*
X91857Y-70388D02*
X92643Y-70388D01*
X93824Y-70388D02*
X94218Y-70388D01*
X94612Y-70782D02*
X94612Y-74718D01*
X94218Y-75112D02*
X93824Y-75112D01*
X92643Y-75112D02*
X91857Y-75112D01*
G54D16*
X93222Y-72750D02*
G75*
G03X93222Y-72750I-972J0D01*
G74*
G01*
G54D17*
X90562Y-74521D02*
G75*
G03X90562Y-74521I-83J0D01*
G74*
G01*
X90562Y-70979D02*
G75*
G03X90562Y-70979I-83J0D01*
G74*
G01*
X94104Y-70979D02*
G75*
G03X94104Y-70979I-83J0D01*
G74*
G01*
X94104Y-74521D02*
G75*
G03X94104Y-74521I-83J0D01*
G74*
G01*
G54D11*
X89888Y-74718D02*
G75*
G03X90282Y-75112I394J0D01*
G74*
G01*
X90282Y-70388D02*
G75*
G03X89888Y-70782I0J-394D01*
G74*
G01*
X94612Y-70782D02*
G75*
G03X94218Y-70388I-394J0D01*
G74*
G01*
X94218Y-75112D02*
G75*
G03X94612Y-74718I0J394D01*
G74*
G01*
X98011Y-70782D02*
X97775Y-70782D01*
X97775Y-70782D02*
X97578Y-70979D01*
X97422Y-70782D02*
X97107Y-70782D01*
X95926Y-75112D02*
X95532Y-75112D01*
X95138Y-74718D02*
X95138Y-70782D01*
X95532Y-70388D02*
X95926Y-70388D01*
X97107Y-70388D02*
X97893Y-70388D01*
X99074Y-70388D02*
X99468Y-70388D01*
X99862Y-70782D02*
X99862Y-74718D01*
X99468Y-75112D02*
X99074Y-75112D01*
X97893Y-75112D02*
X97107Y-75112D01*
G54D16*
X98472Y-72750D02*
G75*
G03X98472Y-72750I-972J0D01*
G74*
G01*
G54D17*
X95812Y-74521D02*
G75*
G03X95812Y-74521I-83J0D01*
G74*
G01*
X95812Y-70979D02*
G75*
G03X95812Y-70979I-83J0D01*
G74*
G01*
X99354Y-70979D02*
G75*
G03X99354Y-70979I-83J0D01*
G74*
G01*
X99354Y-74521D02*
G75*
G03X99354Y-74521I-83J0D01*
G74*
G01*
G54D11*
X95138Y-74718D02*
G75*
G03X95532Y-75112I394J0D01*
G74*
G01*
X95532Y-70388D02*
G75*
G03X95138Y-70782I0J-394D01*
G74*
G01*
X99862Y-70782D02*
G75*
G03X99468Y-70388I-394J0D01*
G74*
G01*
X99468Y-75112D02*
G75*
G03X99862Y-74718I0J394D01*
G74*
G01*
X103261Y-70782D02*
X103025Y-70782D01*
X103025Y-70782D02*
X102828Y-70979D01*
X102672Y-70782D02*
X102357Y-70782D01*
X101176Y-75112D02*
X100782Y-75112D01*
X100388Y-74718D02*
X100388Y-70782D01*
X100782Y-70388D02*
X101176Y-70388D01*
X102357Y-70388D02*
X103143Y-70388D01*
X104324Y-70388D02*
X104718Y-70388D01*
X105112Y-70782D02*
X105112Y-74718D01*
X104718Y-75112D02*
X104324Y-75112D01*
X103143Y-75112D02*
X102357Y-75112D01*
G54D16*
X103722Y-72750D02*
G75*
G03X103722Y-72750I-972J0D01*
G74*
G01*
G54D17*
X101062Y-74521D02*
G75*
G03X101062Y-74521I-83J0D01*
G74*
G01*
X101062Y-70979D02*
G75*
G03X101062Y-70979I-83J0D01*
G74*
G01*
X104604Y-70979D02*
G75*
G03X104604Y-70979I-83J0D01*
G74*
G01*
X104604Y-74521D02*
G75*
G03X104604Y-74521I-83J0D01*
G74*
G01*
G54D11*
X100388Y-74718D02*
G75*
G03X100782Y-75112I394J0D01*
G74*
G01*
X100782Y-70388D02*
G75*
G03X100388Y-70782I0J-394D01*
G74*
G01*
X105112Y-70782D02*
G75*
G03X104718Y-70388I-394J0D01*
G74*
G01*
X104718Y-75112D02*
G75*
G03X105112Y-74718I0J394D01*
G74*
G01*
X66511Y-70782D02*
X66275Y-70782D01*
X66275Y-70782D02*
X66078Y-70979D01*
X65922Y-70782D02*
X65607Y-70782D01*
X64426Y-75112D02*
X64032Y-75112D01*
X63638Y-74718D02*
X63638Y-70782D01*
X64032Y-70388D02*
X64426Y-70388D01*
X65607Y-70388D02*
X66393Y-70388D01*
X67574Y-70388D02*
X67968Y-70388D01*
X68362Y-70782D02*
X68362Y-74718D01*
X67968Y-75112D02*
X67574Y-75112D01*
X66393Y-75112D02*
X65607Y-75112D01*
G54D16*
X66972Y-72750D02*
G75*
G03X66972Y-72750I-972J0D01*
G74*
G01*
G54D17*
X64312Y-74521D02*
G75*
G03X64312Y-74521I-83J0D01*
G74*
G01*
X64312Y-70979D02*
G75*
G03X64312Y-70979I-83J0D01*
G74*
G01*
X67854Y-70979D02*
G75*
G03X67854Y-70979I-83J0D01*
G74*
G01*
X67854Y-74521D02*
G75*
G03X67854Y-74521I-83J0D01*
G74*
G01*
G54D11*
X63638Y-74718D02*
G75*
G03X64032Y-75112I394J0D01*
G74*
G01*
X64032Y-70388D02*
G75*
G03X63638Y-70782I0J-394D01*
G74*
G01*
X68362Y-70782D02*
G75*
G03X67968Y-70388I-394J0D01*
G74*
G01*
X67968Y-75112D02*
G75*
G03X68362Y-74718I0J394D01*
G74*
G01*
X71761Y-70782D02*
X71525Y-70782D01*
X71525Y-70782D02*
X71328Y-70979D01*
X71172Y-70782D02*
X70857Y-70782D01*
X69676Y-75112D02*
X69282Y-75112D01*
X68888Y-74718D02*
X68888Y-70782D01*
X69282Y-70388D02*
X69676Y-70388D01*
X70857Y-70388D02*
X71643Y-70388D01*
X72824Y-70388D02*
X73218Y-70388D01*
X73612Y-70782D02*
X73612Y-74718D01*
X73218Y-75112D02*
X72824Y-75112D01*
X71643Y-75112D02*
X70857Y-75112D01*
G54D16*
X72222Y-72750D02*
G75*
G03X72222Y-72750I-972J0D01*
G74*
G01*
G54D17*
X69562Y-74521D02*
G75*
G03X69562Y-74521I-83J0D01*
G74*
G01*
X69562Y-70979D02*
G75*
G03X69562Y-70979I-83J0D01*
G74*
G01*
X73104Y-70979D02*
G75*
G03X73104Y-70979I-83J0D01*
G74*
G01*
X73104Y-74521D02*
G75*
G03X73104Y-74521I-83J0D01*
G74*
G01*
G54D11*
X68888Y-74718D02*
G75*
G03X69282Y-75112I394J0D01*
G74*
G01*
X69282Y-70388D02*
G75*
G03X68888Y-70782I0J-394D01*
G74*
G01*
X73612Y-70782D02*
G75*
G03X73218Y-70388I-394J0D01*
G74*
G01*
X73218Y-75112D02*
G75*
G03X73612Y-74718I0J394D01*
G74*
G01*
X77011Y-70782D02*
X76775Y-70782D01*
X76775Y-70782D02*
X76578Y-70979D01*
X76422Y-70782D02*
X76107Y-70782D01*
X74926Y-75112D02*
X74532Y-75112D01*
X74138Y-74718D02*
X74138Y-70782D01*
X74532Y-70388D02*
X74926Y-70388D01*
X76107Y-70388D02*
X76893Y-70388D01*
X78074Y-70388D02*
X78468Y-70388D01*
X78862Y-70782D02*
X78862Y-74718D01*
X78468Y-75112D02*
X78074Y-75112D01*
X76893Y-75112D02*
X76107Y-75112D01*
G54D16*
X77472Y-72750D02*
G75*
G03X77472Y-72750I-972J0D01*
G74*
G01*
G54D17*
X74812Y-74521D02*
G75*
G03X74812Y-74521I-83J0D01*
G74*
G01*
X74812Y-70979D02*
G75*
G03X74812Y-70979I-83J0D01*
G74*
G01*
X78354Y-70979D02*
G75*
G03X78354Y-70979I-83J0D01*
G74*
G01*
X78354Y-74521D02*
G75*
G03X78354Y-74521I-83J0D01*
G74*
G01*
G54D11*
X74138Y-74718D02*
G75*
G03X74532Y-75112I394J0D01*
G74*
G01*
X74532Y-70388D02*
G75*
G03X74138Y-70782I0J-394D01*
G74*
G01*
X78862Y-70782D02*
G75*
G03X78468Y-70388I-394J0D01*
G74*
G01*
X78468Y-75112D02*
G75*
G03X78862Y-74718I0J394D01*
G74*
G01*
X82261Y-70782D02*
X82025Y-70782D01*
X82025Y-70782D02*
X81828Y-70979D01*
X81672Y-70782D02*
X81357Y-70782D01*
X80176Y-75112D02*
X79782Y-75112D01*
X79388Y-74718D02*
X79388Y-70782D01*
X79782Y-70388D02*
X80176Y-70388D01*
X81357Y-70388D02*
X82143Y-70388D01*
X83324Y-70388D02*
X83718Y-70388D01*
X84112Y-70782D02*
X84112Y-74718D01*
X83718Y-75112D02*
X83324Y-75112D01*
X82143Y-75112D02*
X81357Y-75112D01*
G54D16*
X82722Y-72750D02*
G75*
G03X82722Y-72750I-972J0D01*
G74*
G01*
G54D17*
X80062Y-74521D02*
G75*
G03X80062Y-74521I-83J0D01*
G74*
G01*
X80062Y-70979D02*
G75*
G03X80062Y-70979I-83J0D01*
G74*
G01*
X83604Y-70979D02*
G75*
G03X83604Y-70979I-83J0D01*
G74*
G01*
X83604Y-74521D02*
G75*
G03X83604Y-74521I-83J0D01*
G74*
G01*
G54D11*
X79388Y-74718D02*
G75*
G03X79782Y-75112I394J0D01*
G74*
G01*
X79782Y-70388D02*
G75*
G03X79388Y-70782I0J-394D01*
G74*
G01*
X84112Y-70782D02*
G75*
G03X83718Y-70388I-394J0D01*
G74*
G01*
X83718Y-75112D02*
G75*
G03X84112Y-74718I0J394D01*
G74*
G01*
X87511Y-70782D02*
X87275Y-70782D01*
X87275Y-70782D02*
X87078Y-70979D01*
X86922Y-70782D02*
X86607Y-70782D01*
X85426Y-75112D02*
X85032Y-75112D01*
X84638Y-74718D02*
X84638Y-70782D01*
X85032Y-70388D02*
X85426Y-70388D01*
X86607Y-70388D02*
X87393Y-70388D01*
X88574Y-70388D02*
X88968Y-70388D01*
X89362Y-70782D02*
X89362Y-74718D01*
X88968Y-75112D02*
X88574Y-75112D01*
X87393Y-75112D02*
X86607Y-75112D01*
G54D16*
X87972Y-72750D02*
G75*
G03X87972Y-72750I-972J0D01*
G74*
G01*
G54D17*
X85312Y-74521D02*
G75*
G03X85312Y-74521I-83J0D01*
G74*
G01*
X85312Y-70979D02*
G75*
G03X85312Y-70979I-83J0D01*
G74*
G01*
X88854Y-70979D02*
G75*
G03X88854Y-70979I-83J0D01*
G74*
G01*
X88854Y-74521D02*
G75*
G03X88854Y-74521I-83J0D01*
G74*
G01*
G54D11*
X84638Y-74718D02*
G75*
G03X85032Y-75112I394J0D01*
G74*
G01*
X85032Y-70388D02*
G75*
G03X84638Y-70782I0J-394D01*
G74*
G01*
X89362Y-70782D02*
G75*
G03X88968Y-70388I-394J0D01*
G74*
G01*
X88968Y-75112D02*
G75*
G03X89362Y-74718I0J394D01*
G74*
G01*
G54D18*
X66750Y-64500D02*
X66750Y-64100D01*
X66750Y-64100D02*
X66350Y-64100D01*
X66350Y-64100D02*
X66350Y-60900D01*
X66350Y-60900D02*
X67150Y-60900D01*
X67150Y-60900D02*
X67150Y-64100D01*
X67150Y-64100D02*
X66750Y-64100D01*
X66550Y-64100D02*
X66350Y-63900D01*
X66750Y-60500D02*
X66750Y-60900D01*
X62750Y-72500D02*
X62750Y-72100D01*
X62750Y-72100D02*
X62350Y-72100D01*
X62350Y-72100D02*
X62350Y-68900D01*
X62350Y-68900D02*
X63150Y-68900D01*
X63150Y-68900D02*
X63150Y-72100D01*
X63150Y-72100D02*
X62750Y-72100D01*
X62550Y-72100D02*
X62350Y-71900D01*
X62750Y-68500D02*
X62750Y-68900D01*
X68750Y-60500D02*
X68750Y-60900D01*
X68750Y-60900D02*
X69150Y-60900D01*
X69150Y-60900D02*
X69150Y-64100D01*
X69150Y-64100D02*
X68350Y-64100D01*
X68350Y-64100D02*
X68350Y-60900D01*
X68350Y-60900D02*
X68750Y-60900D01*
X68950Y-60900D02*
X69150Y-61100D01*
X68750Y-64500D02*
X68750Y-64100D01*
X90750Y-66000D02*
X90350Y-66000D01*
X90350Y-66000D02*
X90350Y-66400D01*
X90350Y-66400D02*
X87150Y-66400D01*
X87150Y-66400D02*
X87150Y-65600D01*
X87150Y-65600D02*
X90350Y-65600D01*
X90350Y-65600D02*
X90350Y-66000D01*
X90350Y-66200D02*
X90150Y-66400D01*
X86750Y-66000D02*
X87150Y-66000D01*
X84250Y-66000D02*
X83850Y-66000D01*
X83850Y-66000D02*
X83850Y-66400D01*
X83850Y-66400D02*
X80650Y-66400D01*
X80650Y-66400D02*
X80650Y-65600D01*
X80650Y-65600D02*
X83850Y-65600D01*
X83850Y-65600D02*
X83850Y-66000D01*
X83850Y-66200D02*
X83650Y-66400D01*
X80250Y-66000D02*
X80650Y-66000D01*
X107250Y-63500D02*
X107250Y-63900D01*
X107250Y-63900D02*
X107650Y-63900D01*
X107650Y-63900D02*
X107650Y-67100D01*
X107650Y-67100D02*
X106850Y-67100D01*
X106850Y-67100D02*
X106850Y-63900D01*
X106850Y-63900D02*
X107250Y-63900D01*
X107450Y-63900D02*
X107650Y-64100D01*
X107250Y-67500D02*
X107250Y-67100D01*
X74500Y-58500D02*
X74100Y-58500D01*
X74100Y-58500D02*
X74100Y-58900D01*
X74100Y-58900D02*
X70900Y-58900D01*
X70900Y-58900D02*
X70900Y-58100D01*
X70900Y-58100D02*
X74100Y-58100D01*
X74100Y-58100D02*
X74100Y-58500D01*
X74100Y-58700D02*
X73900Y-58900D01*
X70500Y-58500D02*
X70900Y-58500D01*
X73750Y-66000D02*
X74150Y-66000D01*
X74150Y-66000D02*
X74150Y-65600D01*
X74150Y-65600D02*
X77350Y-65600D01*
X77350Y-65600D02*
X77350Y-66400D01*
X77350Y-66400D02*
X74150Y-66400D01*
X74150Y-66400D02*
X74150Y-66000D01*
X74150Y-65800D02*
X74350Y-65600D01*
X77750Y-66000D02*
X77350Y-66000D01*
X96250Y-60750D02*
X95850Y-60750D01*
X95850Y-60750D02*
X95850Y-61150D01*
X95850Y-61150D02*
X92650Y-61150D01*
X92650Y-61150D02*
X92650Y-60350D01*
X92650Y-60350D02*
X95850Y-60350D01*
X95850Y-60350D02*
X95850Y-60750D01*
X95850Y-60950D02*
X95650Y-61150D01*
X92250Y-60750D02*
X92650Y-60750D01*
G54D11*
X88750Y-59250D02*
X85750Y-59250D01*
X85750Y-57250D02*
X88750Y-57250D01*
X88750Y-57250D02*
X88750Y-59250D01*
X85750Y-59250D02*
X85750Y-57250D01*
G54D13*
X71250Y-64500D02*
X71250Y-64000D01*
X71250Y-64000D02*
X72250Y-64000D01*
X72250Y-64000D02*
X72250Y-64500D01*
X70750Y-64500D02*
X70750Y-60500D01*
X70750Y-60500D02*
X72750Y-60500D01*
X72750Y-60500D02*
X72750Y-64500D01*
X72750Y-64500D02*
X70750Y-64500D01*
G54D19*
X75250Y-61000D02*
X90250Y-61000D01*
X90250Y-61000D02*
X90250Y-63000D01*
X90250Y-63000D02*
X75250Y-63000D01*
X75250Y-63000D02*
X75250Y-61000D01*
X75250Y-61500D02*
X75750Y-61500D01*
X75750Y-61500D02*
X75750Y-62500D01*
X75750Y-62500D02*
X75250Y-62500D01*
G54D11*
X101100Y-59750D02*
G75*
G03X101100Y-59750I-1600J0D01*
G74*
G01*
G54D18*
X70270Y-65500D02*
X72250Y-65500D01*
X72250Y-65500D02*
X72250Y-66500D01*
X72250Y-66500D02*
X70250Y-66500D01*
X70250Y-66500D02*
X70250Y-65500D01*
X70250Y-65750D02*
X70500Y-65500D01*
X67270Y-65500D02*
X69250Y-65500D01*
X69250Y-65500D02*
X69250Y-66500D01*
X69250Y-66500D02*
X67250Y-66500D01*
X67250Y-66500D02*
X67250Y-65500D01*
X67250Y-65750D02*
X67500Y-65500D01*
X83730Y-58750D02*
X81750Y-58750D01*
X81750Y-58750D02*
X81750Y-57750D01*
X81750Y-57750D02*
X83750Y-57750D01*
X83750Y-57750D02*
X83750Y-58750D01*
X83750Y-58500D02*
X83500Y-58750D01*
X68500Y-59480D02*
X68500Y-57500D01*
X68500Y-57500D02*
X69500Y-57500D01*
X69500Y-57500D02*
X69500Y-59500D01*
X69500Y-59500D02*
X68500Y-59500D01*
X68750Y-59500D02*
X68500Y-59250D01*
G54D15*
X64100Y-67950D02*
X64100Y-67800D01*
X64100Y-67800D02*
X64250Y-67800D01*
X64250Y-67800D02*
X64100Y-67950D01*
X64100Y-67950D02*
X64100Y-67800D01*
X64100Y-67800D02*
X64300Y-68000D01*
X64300Y-68000D02*
X64300Y-67900D01*
X64300Y-67900D02*
X64450Y-68050D01*
X64550Y-68200D02*
X64950Y-68200D01*
X64950Y-68200D02*
X64900Y-68150D01*
X64900Y-68150D02*
X64550Y-68150D01*
X64550Y-68150D02*
X64600Y-68050D01*
X64600Y-68050D02*
X64900Y-68050D01*
X64900Y-68050D02*
X64900Y-68100D01*
X64900Y-68100D02*
X64600Y-68100D01*
X64600Y-68100D02*
X64650Y-68000D01*
X64650Y-68000D02*
X64850Y-68000D01*
X64850Y-68000D02*
X64800Y-67950D01*
X64800Y-67950D02*
X64700Y-67950D01*
X64700Y-67950D02*
X64750Y-67850D01*
X64750Y-67850D02*
X64850Y-67950D01*
X64850Y-67950D02*
X64650Y-67950D01*
X64650Y-67950D02*
X64800Y-68050D01*
X64500Y-68250D02*
X64750Y-67750D01*
X64750Y-67750D02*
X64750Y-68250D01*
X64750Y-68250D02*
X64500Y-68250D01*
X64500Y-68250D02*
X65000Y-68250D01*
X65000Y-68250D02*
X64750Y-67750D01*
X64750Y-67750D02*
X64500Y-67750D01*
X64500Y-67750D02*
X65000Y-67750D01*
X64750Y-68500D02*
X64750Y-67500D01*
G54D13*
X66500Y-67280D02*
X65500Y-67280D01*
X65486Y-67286D02*
G75*
G03X65200Y-67900I513J-613D01*
G74*
G01*
X65201Y-67900D02*
G75*
G03X65623Y-68604I799J0D01*
G74*
G01*
X66798Y-67898D02*
G75*
G03X66515Y-67289I-798J-1D01*
G74*
G01*
X66397Y-68594D02*
G75*
G03X66800Y-67900I-397J694D01*
G74*
G01*
X65620Y-68604D02*
G75*
G03X66000Y-68700I379J704D01*
G74*
G01*
X66000Y-68699D02*
G75*
G03X66418Y-68581I0J799D01*
G74*
G01*
G54D15*
X69350Y-67950D02*
X69350Y-67800D01*
X69350Y-67800D02*
X69500Y-67800D01*
X69500Y-67800D02*
X69350Y-67950D01*
X69350Y-67950D02*
X69350Y-67800D01*
X69350Y-67800D02*
X69550Y-68000D01*
X69550Y-68000D02*
X69550Y-67900D01*
X69550Y-67900D02*
X69700Y-68050D01*
X69800Y-68200D02*
X70200Y-68200D01*
X70200Y-68200D02*
X70150Y-68150D01*
X70150Y-68150D02*
X69800Y-68150D01*
X69800Y-68150D02*
X69850Y-68050D01*
X69850Y-68050D02*
X70150Y-68050D01*
X70150Y-68050D02*
X70150Y-68100D01*
X70150Y-68100D02*
X69850Y-68100D01*
X69850Y-68100D02*
X69900Y-68000D01*
X69900Y-68000D02*
X70100Y-68000D01*
X70100Y-68000D02*
X70050Y-67950D01*
X70050Y-67950D02*
X69950Y-67950D01*
X69950Y-67950D02*
X70000Y-67850D01*
X70000Y-67850D02*
X70100Y-67950D01*
X70100Y-67950D02*
X69900Y-67950D01*
X69900Y-67950D02*
X70050Y-68050D01*
X69750Y-68250D02*
X70000Y-67750D01*
X70000Y-67750D02*
X70000Y-68250D01*
X70000Y-68250D02*
X69750Y-68250D01*
X69750Y-68250D02*
X70250Y-68250D01*
X70250Y-68250D02*
X70000Y-67750D01*
X70000Y-67750D02*
X69750Y-67750D01*
X69750Y-67750D02*
X70250Y-67750D01*
X70000Y-68500D02*
X70000Y-67500D01*
G54D13*
X71750Y-67280D02*
X70750Y-67280D01*
X70736Y-67286D02*
G75*
G03X70450Y-67900I513J-613D01*
G74*
G01*
X70451Y-67900D02*
G75*
G03X70873Y-68604I799J0D01*
G74*
G01*
X72048Y-67898D02*
G75*
G03X71765Y-67289I-798J-1D01*
G74*
G01*
X71647Y-68594D02*
G75*
G03X72050Y-67900I-397J694D01*
G74*
G01*
X70870Y-68604D02*
G75*
G03X71250Y-68700I379J704D01*
G74*
G01*
X71250Y-68699D02*
G75*
G03X71668Y-68581I0J799D01*
G74*
G01*
G54D15*
X74600Y-67950D02*
X74600Y-67800D01*
X74600Y-67800D02*
X74750Y-67800D01*
X74750Y-67800D02*
X74600Y-67950D01*
X74600Y-67950D02*
X74600Y-67800D01*
X74600Y-67800D02*
X74800Y-68000D01*
X74800Y-68000D02*
X74800Y-67900D01*
X74800Y-67900D02*
X74950Y-68050D01*
X75050Y-68200D02*
X75450Y-68200D01*
X75450Y-68200D02*
X75400Y-68150D01*
X75400Y-68150D02*
X75050Y-68150D01*
X75050Y-68150D02*
X75100Y-68050D01*
X75100Y-68050D02*
X75400Y-68050D01*
X75400Y-68050D02*
X75400Y-68100D01*
X75400Y-68100D02*
X75100Y-68100D01*
X75100Y-68100D02*
X75150Y-68000D01*
X75150Y-68000D02*
X75350Y-68000D01*
X75350Y-68000D02*
X75300Y-67950D01*
X75300Y-67950D02*
X75200Y-67950D01*
X75200Y-67950D02*
X75250Y-67850D01*
X75250Y-67850D02*
X75350Y-67950D01*
X75350Y-67950D02*
X75150Y-67950D01*
X75150Y-67950D02*
X75300Y-68050D01*
X75000Y-68250D02*
X75250Y-67750D01*
X75250Y-67750D02*
X75250Y-68250D01*
X75250Y-68250D02*
X75000Y-68250D01*
X75000Y-68250D02*
X75500Y-68250D01*
X75500Y-68250D02*
X75250Y-67750D01*
X75250Y-67750D02*
X75000Y-67750D01*
X75000Y-67750D02*
X75500Y-67750D01*
X75250Y-68500D02*
X75250Y-67500D01*
G54D13*
X77000Y-67280D02*
X76000Y-67280D01*
X75986Y-67286D02*
G75*
G03X75700Y-67900I513J-613D01*
G74*
G01*
X75701Y-67900D02*
G75*
G03X76123Y-68604I799J0D01*
G74*
G01*
X77298Y-67898D02*
G75*
G03X77015Y-67289I-798J-1D01*
G74*
G01*
X76897Y-68594D02*
G75*
G03X77300Y-67900I-397J694D01*
G74*
G01*
X76120Y-68604D02*
G75*
G03X76500Y-68700I379J704D01*
G74*
G01*
X76500Y-68699D02*
G75*
G03X76918Y-68581I0J799D01*
G74*
G01*
G54D15*
X85100Y-67950D02*
X85100Y-67800D01*
X85100Y-67800D02*
X85250Y-67800D01*
X85250Y-67800D02*
X85100Y-67950D01*
X85100Y-67950D02*
X85100Y-67800D01*
X85100Y-67800D02*
X85300Y-68000D01*
X85300Y-68000D02*
X85300Y-67900D01*
X85300Y-67900D02*
X85450Y-68050D01*
X85550Y-68200D02*
X85950Y-68200D01*
X85950Y-68200D02*
X85900Y-68150D01*
X85900Y-68150D02*
X85550Y-68150D01*
X85550Y-68150D02*
X85600Y-68050D01*
X85600Y-68050D02*
X85900Y-68050D01*
X85900Y-68050D02*
X85900Y-68100D01*
X85900Y-68100D02*
X85600Y-68100D01*
X85600Y-68100D02*
X85650Y-68000D01*
X85650Y-68000D02*
X85850Y-68000D01*
X85850Y-68000D02*
X85800Y-67950D01*
X85800Y-67950D02*
X85700Y-67950D01*
X85700Y-67950D02*
X85750Y-67850D01*
X85750Y-67850D02*
X85850Y-67950D01*
X85850Y-67950D02*
X85650Y-67950D01*
X85650Y-67950D02*
X85800Y-68050D01*
X85500Y-68250D02*
X85750Y-67750D01*
X85750Y-67750D02*
X85750Y-68250D01*
X85750Y-68250D02*
X85500Y-68250D01*
X85500Y-68250D02*
X86000Y-68250D01*
X86000Y-68250D02*
X85750Y-67750D01*
X85750Y-67750D02*
X85500Y-67750D01*
X85500Y-67750D02*
X86000Y-67750D01*
X85750Y-68500D02*
X85750Y-67500D01*
G54D13*
X87500Y-67280D02*
X86500Y-67280D01*
X86486Y-67286D02*
G75*
G03X86200Y-67900I513J-613D01*
G74*
G01*
X86201Y-67900D02*
G75*
G03X86623Y-68604I799J0D01*
G74*
G01*
X87798Y-67898D02*
G75*
G03X87515Y-67289I-798J-1D01*
G74*
G01*
X87397Y-68594D02*
G75*
G03X87800Y-67900I-397J694D01*
G74*
G01*
X86620Y-68604D02*
G75*
G03X87000Y-68700I379J704D01*
G74*
G01*
X87000Y-68699D02*
G75*
G03X87418Y-68581I0J799D01*
G74*
G01*
G54D15*
X95600Y-67950D02*
X95600Y-67800D01*
X95600Y-67800D02*
X95750Y-67800D01*
X95750Y-67800D02*
X95600Y-67950D01*
X95600Y-67950D02*
X95600Y-67800D01*
X95600Y-67800D02*
X95800Y-68000D01*
X95800Y-68000D02*
X95800Y-67900D01*
X95800Y-67900D02*
X95950Y-68050D01*
X96050Y-68200D02*
X96450Y-68200D01*
X96450Y-68200D02*
X96400Y-68150D01*
X96400Y-68150D02*
X96050Y-68150D01*
X96050Y-68150D02*
X96100Y-68050D01*
X96100Y-68050D02*
X96400Y-68050D01*
X96400Y-68050D02*
X96400Y-68100D01*
X96400Y-68100D02*
X96100Y-68100D01*
X96100Y-68100D02*
X96150Y-68000D01*
X96150Y-68000D02*
X96350Y-68000D01*
X96350Y-68000D02*
X96300Y-67950D01*
X96300Y-67950D02*
X96200Y-67950D01*
X96200Y-67950D02*
X96250Y-67850D01*
X96250Y-67850D02*
X96350Y-67950D01*
X96350Y-67950D02*
X96150Y-67950D01*
X96150Y-67950D02*
X96300Y-68050D01*
X96000Y-68250D02*
X96250Y-67750D01*
X96250Y-67750D02*
X96250Y-68250D01*
X96250Y-68250D02*
X96000Y-68250D01*
X96000Y-68250D02*
X96500Y-68250D01*
X96500Y-68250D02*
X96250Y-67750D01*
X96250Y-67750D02*
X96000Y-67750D01*
X96000Y-67750D02*
X96500Y-67750D01*
X96250Y-68500D02*
X96250Y-67500D01*
G54D13*
X98000Y-67280D02*
X97000Y-67280D01*
X96986Y-67286D02*
G75*
G03X96700Y-67900I513J-613D01*
G74*
G01*
X96701Y-67900D02*
G75*
G03X97123Y-68604I799J0D01*
G74*
G01*
X98298Y-67898D02*
G75*
G03X98015Y-67289I-798J-1D01*
G74*
G01*
X97897Y-68594D02*
G75*
G03X98300Y-67900I-397J694D01*
G74*
G01*
X97120Y-68604D02*
G75*
G03X97500Y-68700I379J704D01*
G74*
G01*
X97500Y-68699D02*
G75*
G03X97918Y-68581I0J799D01*
G74*
G01*
G54D15*
X100850Y-67950D02*
X100850Y-67800D01*
X100850Y-67800D02*
X101000Y-67800D01*
X101000Y-67800D02*
X100850Y-67950D01*
X100850Y-67950D02*
X100850Y-67800D01*
X100850Y-67800D02*
X101050Y-68000D01*
X101050Y-68000D02*
X101050Y-67900D01*
X101050Y-67900D02*
X101200Y-68050D01*
X101300Y-68200D02*
X101700Y-68200D01*
X101700Y-68200D02*
X101650Y-68150D01*
X101650Y-68150D02*
X101300Y-68150D01*
X101300Y-68150D02*
X101350Y-68050D01*
X101350Y-68050D02*
X101650Y-68050D01*
X101650Y-68050D02*
X101650Y-68100D01*
X101650Y-68100D02*
X101350Y-68100D01*
X101350Y-68100D02*
X101400Y-68000D01*
X101400Y-68000D02*
X101600Y-68000D01*
X101600Y-68000D02*
X101550Y-67950D01*
X101550Y-67950D02*
X101450Y-67950D01*
X101450Y-67950D02*
X101500Y-67850D01*
X101500Y-67850D02*
X101600Y-67950D01*
X101600Y-67950D02*
X101400Y-67950D01*
X101400Y-67950D02*
X101550Y-68050D01*
X101250Y-68250D02*
X101500Y-67750D01*
X101500Y-67750D02*
X101500Y-68250D01*
X101500Y-68250D02*
X101250Y-68250D01*
X101250Y-68250D02*
X101750Y-68250D01*
X101750Y-68250D02*
X101500Y-67750D01*
X101500Y-67750D02*
X101250Y-67750D01*
X101250Y-67750D02*
X101750Y-67750D01*
X101500Y-68500D02*
X101500Y-67500D01*
G54D13*
X103250Y-67280D02*
X102250Y-67280D01*
X102236Y-67286D02*
G75*
G03X101950Y-67900I513J-613D01*
G74*
G01*
X101951Y-67900D02*
G75*
G03X102373Y-68604I799J0D01*
G74*
G01*
X103548Y-67898D02*
G75*
G03X103265Y-67289I-798J-1D01*
G74*
G01*
X103147Y-68594D02*
G75*
G03X103550Y-67900I-397J694D01*
G74*
G01*
X102370Y-68604D02*
G75*
G03X102750Y-68700I379J704D01*
G74*
G01*
X102750Y-68699D02*
G75*
G03X103168Y-68581I0J799D01*
G74*
G01*
G54D15*
X90350Y-67950D02*
X90350Y-67800D01*
X90350Y-67800D02*
X90500Y-67800D01*
X90500Y-67800D02*
X90350Y-67950D01*
X90350Y-67950D02*
X90350Y-67800D01*
X90350Y-67800D02*
X90550Y-68000D01*
X90550Y-68000D02*
X90550Y-67900D01*
X90550Y-67900D02*
X90700Y-68050D01*
X90800Y-68200D02*
X91200Y-68200D01*
X91200Y-68200D02*
X91150Y-68150D01*
X91150Y-68150D02*
X90800Y-68150D01*
X90800Y-68150D02*
X90850Y-68050D01*
X90850Y-68050D02*
X91150Y-68050D01*
X91150Y-68050D02*
X91150Y-68100D01*
X91150Y-68100D02*
X90850Y-68100D01*
X90850Y-68100D02*
X90900Y-68000D01*
X90900Y-68000D02*
X91100Y-68000D01*
X91100Y-68000D02*
X91050Y-67950D01*
X91050Y-67950D02*
X90950Y-67950D01*
X90950Y-67950D02*
X91000Y-67850D01*
X91000Y-67850D02*
X91100Y-67950D01*
X91100Y-67950D02*
X90900Y-67950D01*
X90900Y-67950D02*
X91050Y-68050D01*
X90750Y-68250D02*
X91000Y-67750D01*
X91000Y-67750D02*
X91000Y-68250D01*
X91000Y-68250D02*
X90750Y-68250D01*
X90750Y-68250D02*
X91250Y-68250D01*
X91250Y-68250D02*
X91000Y-67750D01*
X91000Y-67750D02*
X90750Y-67750D01*
X90750Y-67750D02*
X91250Y-67750D01*
X91000Y-68500D02*
X91000Y-67500D01*
G54D13*
X92750Y-67280D02*
X91750Y-67280D01*
X91736Y-67286D02*
G75*
G03X91450Y-67900I513J-613D01*
G74*
G01*
X91451Y-67900D02*
G75*
G03X91873Y-68604I799J0D01*
G74*
G01*
X93048Y-67898D02*
G75*
G03X92765Y-67289I-798J-1D01*
G74*
G01*
X92647Y-68594D02*
G75*
G03X93050Y-67900I-397J694D01*
G74*
G01*
X91870Y-68604D02*
G75*
G03X92250Y-68700I379J704D01*
G74*
G01*
X92250Y-68699D02*
G75*
G03X92668Y-68581I0J799D01*
G74*
G01*
G54D15*
X79850Y-67950D02*
X79850Y-67800D01*
X79850Y-67800D02*
X80000Y-67800D01*
X80000Y-67800D02*
X79850Y-67950D01*
X79850Y-67950D02*
X79850Y-67800D01*
X79850Y-67800D02*
X80050Y-68000D01*
X80050Y-68000D02*
X80050Y-67900D01*
X80050Y-67900D02*
X80200Y-68050D01*
X80300Y-68200D02*
X80700Y-68200D01*
X80700Y-68200D02*
X80650Y-68150D01*
X80650Y-68150D02*
X80300Y-68150D01*
X80300Y-68150D02*
X80350Y-68050D01*
X80350Y-68050D02*
X80650Y-68050D01*
X80650Y-68050D02*
X80650Y-68100D01*
X80650Y-68100D02*
X80350Y-68100D01*
X80350Y-68100D02*
X80400Y-68000D01*
X80400Y-68000D02*
X80600Y-68000D01*
X80600Y-68000D02*
X80550Y-67950D01*
X80550Y-67950D02*
X80450Y-67950D01*
X80450Y-67950D02*
X80500Y-67850D01*
X80500Y-67850D02*
X80600Y-67950D01*
X80600Y-67950D02*
X80400Y-67950D01*
X80400Y-67950D02*
X80550Y-68050D01*
X80250Y-68250D02*
X80500Y-67750D01*
X80500Y-67750D02*
X80500Y-68250D01*
X80500Y-68250D02*
X80250Y-68250D01*
X80250Y-68250D02*
X80750Y-68250D01*
X80750Y-68250D02*
X80500Y-67750D01*
X80500Y-67750D02*
X80250Y-67750D01*
X80250Y-67750D02*
X80750Y-67750D01*
X80500Y-68500D02*
X80500Y-67500D01*
G54D13*
X82250Y-67280D02*
X81250Y-67280D01*
X81236Y-67286D02*
G75*
G03X80950Y-67900I513J-613D01*
G74*
G01*
X80951Y-67900D02*
G75*
G03X81373Y-68604I799J0D01*
G74*
G01*
X82548Y-67898D02*
G75*
G03X82265Y-67289I-798J-1D01*
G74*
G01*
X82147Y-68594D02*
G75*
G03X82550Y-67900I-397J694D01*
G74*
G01*
X81370Y-68604D02*
G75*
G03X81750Y-68700I379J704D01*
G74*
G01*
X81750Y-68699D02*
G75*
G03X82168Y-68581I0J799D01*
G74*
G01*
G54D18*
X66230Y-59750D02*
X64250Y-59750D01*
X64250Y-59750D02*
X64250Y-58750D01*
X64250Y-58750D02*
X66250Y-58750D01*
X66250Y-58750D02*
X66250Y-59750D01*
X66250Y-59500D02*
X66000Y-59750D01*
G54D19*
X107900Y-58000D02*
G75*
G03X107900Y-58000I-900J0D01*
G74*
G01*
X107900Y-75000D02*
G75*
G03X107900Y-75000I-900J0D01*
G74*
G01*
X61400Y-75000D02*
G75*
G03X61400Y-75000I-900J0D01*
G74*
G01*
X61400Y-58000D02*
G75*
G03X61400Y-58000I-900J0D01*
G74*
G01*
G54D20*
G36*
X106165Y-72738D02*
X106179Y-72730D01*
X106212Y-72710D01*
X106258Y-72680D01*
X106312Y-72643D01*
X106367Y-72606D01*
X106411Y-72576D01*
X106443Y-72556D01*
X106456Y-72549D01*
X106463Y-72551D01*
X106489Y-72564D01*
X106527Y-72583D01*
X106548Y-72595D01*
X106583Y-72610D01*
X106600Y-72613D01*
X106603Y-72608D01*
X106616Y-72581D01*
X106636Y-72536D01*
X106662Y-72477D01*
X106691Y-72407D01*
X106723Y-72331D01*
X106755Y-72254D01*
X106786Y-72181D01*
X106813Y-72115D01*
X106834Y-72061D01*
X106849Y-72024D01*
X106854Y-72008D01*
X106852Y-72005D01*
X106835Y-71988D01*
X106805Y-71965D01*
X106740Y-71912D01*
X106675Y-71832D01*
X106636Y-71741D01*
X106623Y-71639D01*
X106634Y-71545D01*
X106671Y-71455D01*
X106734Y-71374D01*
X106810Y-71314D01*
X106900Y-71275D01*
X107000Y-71263D01*
X107096Y-71274D01*
X107188Y-71310D01*
X107269Y-71372D01*
X107304Y-71412D01*
X107351Y-71494D01*
X107378Y-71582D01*
X107381Y-71604D01*
X107377Y-71701D01*
X107348Y-71794D01*
X107297Y-71877D01*
X107226Y-71945D01*
X107217Y-71951D01*
X107184Y-71976D01*
X107162Y-71993D01*
X107145Y-72007D01*
X107268Y-72303D01*
X107288Y-72351D01*
X107322Y-72432D01*
X107352Y-72502D01*
X107375Y-72557D01*
X107392Y-72594D01*
X107399Y-72609D01*
X107400Y-72610D01*
X107411Y-72612D01*
X107433Y-72604D01*
X107475Y-72584D01*
X107502Y-72570D01*
X107534Y-72554D01*
X107548Y-72549D01*
X107560Y-72555D01*
X107590Y-72575D01*
X107634Y-72604D01*
X107687Y-72640D01*
X107738Y-72675D01*
X107784Y-72705D01*
X107818Y-72727D01*
X107834Y-72736D01*
X107837Y-72736D01*
X107852Y-72728D01*
X107878Y-72705D01*
X107919Y-72667D01*
X107976Y-72611D01*
X107985Y-72602D01*
X108032Y-72554D01*
X108070Y-72514D01*
X108095Y-72486D01*
X108105Y-72473D01*
X108105Y-72473D01*
X108096Y-72457D01*
X108075Y-72423D01*
X108044Y-72376D01*
X108006Y-72321D01*
X107908Y-72178D01*
X107962Y-72043D01*
X107979Y-72002D01*
X108000Y-71952D01*
X108015Y-71916D01*
X108023Y-71901D01*
X108038Y-71895D01*
X108075Y-71887D01*
X108128Y-71876D01*
X108192Y-71864D01*
X108253Y-71852D01*
X108308Y-71842D01*
X108347Y-71834D01*
X108365Y-71831D01*
X108369Y-71828D01*
X108373Y-71820D01*
X108375Y-71801D01*
X108377Y-71768D01*
X108377Y-71715D01*
X108377Y-71639D01*
X108377Y-71631D01*
X108377Y-71558D01*
X108375Y-71501D01*
X108373Y-71463D01*
X108371Y-71448D01*
X108371Y-71448D01*
X108354Y-71444D01*
X108315Y-71436D01*
X108260Y-71425D01*
X108195Y-71413D01*
X108191Y-71412D01*
X108125Y-71399D01*
X108071Y-71388D01*
X108033Y-71379D01*
X108016Y-71374D01*
X108013Y-71370D01*
X108000Y-71344D01*
X107981Y-71304D01*
X107960Y-71254D01*
X107938Y-71203D01*
X107920Y-71157D01*
X107908Y-71123D01*
X107904Y-71107D01*
X107904Y-71107D01*
X107914Y-71091D01*
X107936Y-71058D01*
X107968Y-71011D01*
X108006Y-70955D01*
X108009Y-70951D01*
X108046Y-70896D01*
X108077Y-70849D01*
X108097Y-70816D01*
X108105Y-70801D01*
X108104Y-70800D01*
X108092Y-70784D01*
X108064Y-70752D01*
X108024Y-70710D01*
X107975Y-70662D01*
X107960Y-70647D01*
X107907Y-70594D01*
X107869Y-70560D01*
X107846Y-70542D01*
X107835Y-70538D01*
X107835Y-70538D01*
X107818Y-70548D01*
X107783Y-70571D01*
X107736Y-70603D01*
X107680Y-70641D01*
X107676Y-70643D01*
X107621Y-70681D01*
X107575Y-70712D01*
X107543Y-70734D01*
X107529Y-70742D01*
X107526Y-70742D01*
X107504Y-70736D01*
X107465Y-70722D01*
X107416Y-70703D01*
X107365Y-70683D01*
X107319Y-70663D01*
X107284Y-70647D01*
X107268Y-70638D01*
X107267Y-70637D01*
X107262Y-70617D01*
X107252Y-70576D01*
X107240Y-70519D01*
X107228Y-70452D01*
X107226Y-70441D01*
X107213Y-70376D01*
X107203Y-70321D01*
X107195Y-70284D01*
X107191Y-70268D01*
X107182Y-70266D01*
X107150Y-70264D01*
X107101Y-70263D01*
X107041Y-70262D01*
X106979Y-70262D01*
X106918Y-70264D01*
X106866Y-70266D01*
X106829Y-70268D01*
X106814Y-70271D01*
X106813Y-70272D01*
X106807Y-70292D01*
X106798Y-70334D01*
X106787Y-70391D01*
X106774Y-70458D01*
X106772Y-70470D01*
X106759Y-70536D01*
X106748Y-70590D01*
X106740Y-70626D01*
X106736Y-70641D01*
X106730Y-70644D01*
X106703Y-70656D01*
X106659Y-70674D01*
X106605Y-70696D01*
X106479Y-70747D01*
X106324Y-70641D01*
X106310Y-70632D01*
X106254Y-70594D01*
X106209Y-70563D01*
X106177Y-70543D01*
X106164Y-70535D01*
X106163Y-70536D01*
X106147Y-70549D01*
X106116Y-70578D01*
X106075Y-70619D01*
X106026Y-70667D01*
X105990Y-70703D01*
X105947Y-70747D01*
X105920Y-70776D01*
X105906Y-70795D01*
X105900Y-70806D01*
X105902Y-70813D01*
X105912Y-70829D01*
X105934Y-70863D01*
X105966Y-70910D01*
X106004Y-70965D01*
X106035Y-71011D01*
X106068Y-71063D01*
X106090Y-71100D01*
X106098Y-71118D01*
X106096Y-71125D01*
X106085Y-71156D01*
X106067Y-71201D01*
X106043Y-71256D01*
X105990Y-71378D01*
X105909Y-71394D01*
X105861Y-71403D01*
X105793Y-71416D01*
X105728Y-71429D01*
X105626Y-71448D01*
X105622Y-71821D01*
X105638Y-71828D01*
X105653Y-71832D01*
X105691Y-71840D01*
X105745Y-71851D01*
X105808Y-71863D01*
X105862Y-71873D01*
X105916Y-71884D01*
X105955Y-71891D01*
X105973Y-71895D01*
X105977Y-71901D01*
X105991Y-71927D01*
X106010Y-71969D01*
X106032Y-72019D01*
X106054Y-72072D01*
X106073Y-72120D01*
X106086Y-72157D01*
X106091Y-72176D01*
X106084Y-72190D01*
X106063Y-72222D01*
X106033Y-72268D01*
X105996Y-72322D01*
X105959Y-72376D01*
X105928Y-72422D01*
X105906Y-72455D01*
X105897Y-72470D01*
X105902Y-72481D01*
X105923Y-72507D01*
X105964Y-72549D01*
X106025Y-72609D01*
X106035Y-72619D01*
X106083Y-72665D01*
X106124Y-72703D01*
X106152Y-72728D01*
X106165Y-72738D01*
X106165Y-72738D01*
G37*
G54D18*
X64050Y-60392D02*
X64050Y-60821D01*
X64021Y-60907D01*
X63964Y-60964D01*
X63878Y-60992D01*
X63821Y-60992D01*
X64307Y-60450D02*
X64335Y-60421D01*
X64392Y-60392D01*
X64535Y-60392D01*
X64592Y-60421D01*
X64621Y-60450D01*
X64650Y-60507D01*
X64650Y-60564D01*
X64621Y-60650D01*
X64278Y-60992D01*
X64650Y-60992D01*
G54D11*
X105480Y-61802D02*
X105480Y-61302D01*
X105600Y-61302D01*
X105671Y-61326D01*
X105719Y-61373D01*
X105742Y-61421D01*
X105766Y-61516D01*
X105766Y-61588D01*
X105742Y-61683D01*
X105719Y-61730D01*
X105671Y-61778D01*
X105600Y-61802D01*
X105480Y-61802D01*
X105957Y-61350D02*
X105980Y-61326D01*
X106028Y-61302D01*
X106147Y-61302D01*
X106195Y-61326D01*
X106219Y-61350D01*
X106242Y-61397D01*
X106242Y-61445D01*
X106219Y-61516D01*
X105933Y-61802D01*
X106242Y-61802D01*
X97130Y-58702D02*
X97130Y-58202D01*
X97250Y-58202D01*
X97321Y-58226D01*
X97369Y-58273D01*
X97392Y-58321D01*
X97416Y-58416D01*
X97416Y-58488D01*
X97392Y-58583D01*
X97369Y-58630D01*
X97321Y-58678D01*
X97250Y-58702D01*
X97130Y-58702D01*
X97892Y-58702D02*
X97607Y-58702D01*
X97750Y-58702D02*
X97750Y-58202D01*
X97702Y-58273D01*
X97654Y-58321D01*
X97607Y-58345D01*
X60952Y-72952D02*
X60785Y-72714D01*
X60666Y-72952D02*
X60666Y-72452D01*
X60857Y-72452D01*
X60904Y-72476D01*
X60928Y-72500D01*
X60952Y-72547D01*
X60952Y-72619D01*
X60928Y-72666D01*
X60904Y-72690D01*
X60857Y-72714D01*
X60666Y-72714D01*
X61095Y-72452D02*
X61261Y-72952D01*
X61428Y-72452D01*
X61857Y-72952D02*
X61571Y-72952D01*
X61714Y-72952D02*
X61714Y-72452D01*
X61666Y-72523D01*
X61619Y-72571D01*
X61571Y-72595D01*
X93595Y-67178D02*
X93666Y-67202D01*
X93785Y-67202D01*
X93833Y-67178D01*
X93857Y-67154D01*
X93880Y-67107D01*
X93880Y-67059D01*
X93857Y-67011D01*
X93833Y-66988D01*
X93785Y-66964D01*
X93690Y-66940D01*
X93642Y-66916D01*
X93619Y-66892D01*
X93595Y-66845D01*
X93595Y-66797D01*
X93619Y-66750D01*
X93642Y-66726D01*
X93690Y-66702D01*
X93809Y-66702D01*
X93880Y-66726D01*
X94047Y-66702D02*
X94166Y-67202D01*
X94261Y-66845D01*
X94357Y-67202D01*
X94476Y-66702D01*
X94928Y-67202D02*
X94642Y-67202D01*
X94785Y-67202D02*
X94785Y-66702D01*
X94738Y-66773D01*
X94690Y-66821D01*
X94642Y-66845D01*
X95238Y-66702D02*
X95285Y-66702D01*
X95333Y-66726D01*
X95357Y-66750D01*
X95380Y-66797D01*
X95404Y-66892D01*
X95404Y-67011D01*
X95380Y-67107D01*
X95357Y-67154D01*
X95333Y-67178D01*
X95285Y-67202D01*
X95238Y-67202D01*
X95190Y-67178D01*
X95166Y-67154D01*
X95142Y-67107D01*
X95119Y-67011D01*
X95119Y-66892D01*
X95142Y-66797D01*
X95166Y-66750D01*
X95190Y-66726D01*
X95238Y-66702D01*
X104333Y-67178D02*
X104404Y-67202D01*
X104523Y-67202D01*
X104571Y-67178D01*
X104595Y-67154D01*
X104619Y-67107D01*
X104619Y-67059D01*
X104595Y-67011D01*
X104571Y-66988D01*
X104523Y-66964D01*
X104428Y-66940D01*
X104380Y-66916D01*
X104357Y-66892D01*
X104333Y-66845D01*
X104333Y-66797D01*
X104357Y-66750D01*
X104380Y-66726D01*
X104428Y-66702D01*
X104547Y-66702D01*
X104619Y-66726D01*
X104785Y-66702D02*
X104904Y-67202D01*
X105000Y-66845D01*
X105095Y-67202D01*
X105214Y-66702D01*
X105428Y-67202D02*
X105523Y-67202D01*
X105571Y-67178D01*
X105595Y-67154D01*
X105642Y-67083D01*
X105666Y-66988D01*
X105666Y-66797D01*
X105642Y-66750D01*
X105619Y-66726D01*
X105571Y-66702D01*
X105476Y-66702D01*
X105428Y-66726D01*
X105404Y-66750D01*
X105380Y-66797D01*
X105380Y-66916D01*
X105404Y-66964D01*
X105428Y-66988D01*
X105476Y-67011D01*
X105571Y-67011D01*
X105619Y-66988D01*
X105642Y-66964D01*
X105666Y-66916D01*
X91583Y-72928D02*
X91654Y-72952D01*
X91773Y-72952D01*
X91821Y-72928D01*
X91845Y-72904D01*
X91869Y-72857D01*
X91869Y-72809D01*
X91845Y-72761D01*
X91821Y-72738D01*
X91773Y-72714D01*
X91678Y-72690D01*
X91630Y-72666D01*
X91607Y-72642D01*
X91583Y-72595D01*
X91583Y-72547D01*
X91607Y-72500D01*
X91630Y-72476D01*
X91678Y-72452D01*
X91797Y-72452D01*
X91869Y-72476D01*
X92035Y-72452D02*
X92154Y-72952D01*
X92250Y-72595D01*
X92345Y-72952D01*
X92464Y-72452D01*
X92869Y-72452D02*
X92773Y-72452D01*
X92726Y-72476D01*
X92702Y-72500D01*
X92654Y-72571D01*
X92630Y-72666D01*
X92630Y-72857D01*
X92654Y-72904D01*
X92678Y-72928D01*
X92726Y-72952D01*
X92821Y-72952D01*
X92869Y-72928D01*
X92892Y-72904D01*
X92916Y-72857D01*
X92916Y-72738D01*
X92892Y-72690D01*
X92869Y-72666D01*
X92821Y-72642D01*
X92726Y-72642D01*
X92678Y-72666D01*
X92654Y-72690D01*
X92630Y-72738D01*
X96833Y-72928D02*
X96904Y-72952D01*
X97023Y-72952D01*
X97071Y-72928D01*
X97095Y-72904D01*
X97119Y-72857D01*
X97119Y-72809D01*
X97095Y-72761D01*
X97071Y-72738D01*
X97023Y-72714D01*
X96928Y-72690D01*
X96880Y-72666D01*
X96857Y-72642D01*
X96833Y-72595D01*
X96833Y-72547D01*
X96857Y-72500D01*
X96880Y-72476D01*
X96928Y-72452D01*
X97047Y-72452D01*
X97119Y-72476D01*
X97285Y-72452D02*
X97404Y-72952D01*
X97500Y-72595D01*
X97595Y-72952D01*
X97714Y-72452D01*
X97857Y-72452D02*
X98190Y-72452D01*
X97976Y-72952D01*
X102083Y-72928D02*
X102154Y-72952D01*
X102273Y-72952D01*
X102321Y-72928D01*
X102345Y-72904D01*
X102369Y-72857D01*
X102369Y-72809D01*
X102345Y-72761D01*
X102321Y-72738D01*
X102273Y-72714D01*
X102178Y-72690D01*
X102130Y-72666D01*
X102107Y-72642D01*
X102083Y-72595D01*
X102083Y-72547D01*
X102107Y-72500D01*
X102130Y-72476D01*
X102178Y-72452D01*
X102297Y-72452D01*
X102369Y-72476D01*
X102535Y-72452D02*
X102654Y-72952D01*
X102750Y-72595D01*
X102845Y-72952D01*
X102964Y-72452D01*
X103226Y-72666D02*
X103178Y-72642D01*
X103154Y-72619D01*
X103130Y-72571D01*
X103130Y-72547D01*
X103154Y-72500D01*
X103178Y-72476D01*
X103226Y-72452D01*
X103321Y-72452D01*
X103369Y-72476D01*
X103392Y-72500D01*
X103416Y-72547D01*
X103416Y-72571D01*
X103392Y-72619D01*
X103369Y-72642D01*
X103321Y-72666D01*
X103226Y-72666D01*
X103178Y-72690D01*
X103154Y-72714D01*
X103130Y-72761D01*
X103130Y-72857D01*
X103154Y-72904D01*
X103178Y-72928D01*
X103226Y-72952D01*
X103321Y-72952D01*
X103369Y-72928D01*
X103392Y-72904D01*
X103416Y-72857D01*
X103416Y-72761D01*
X103392Y-72714D01*
X103369Y-72690D01*
X103321Y-72666D01*
X65333Y-72928D02*
X65404Y-72952D01*
X65523Y-72952D01*
X65571Y-72928D01*
X65595Y-72904D01*
X65619Y-72857D01*
X65619Y-72809D01*
X65595Y-72761D01*
X65571Y-72738D01*
X65523Y-72714D01*
X65428Y-72690D01*
X65380Y-72666D01*
X65357Y-72642D01*
X65333Y-72595D01*
X65333Y-72547D01*
X65357Y-72500D01*
X65380Y-72476D01*
X65428Y-72452D01*
X65547Y-72452D01*
X65619Y-72476D01*
X65785Y-72452D02*
X65904Y-72952D01*
X66000Y-72595D01*
X66095Y-72952D01*
X66214Y-72452D01*
X66666Y-72952D02*
X66380Y-72952D01*
X66523Y-72952D02*
X66523Y-72452D01*
X66476Y-72523D01*
X66428Y-72571D01*
X66380Y-72595D01*
X70583Y-72928D02*
X70654Y-72952D01*
X70773Y-72952D01*
X70821Y-72928D01*
X70845Y-72904D01*
X70869Y-72857D01*
X70869Y-72809D01*
X70845Y-72761D01*
X70821Y-72738D01*
X70773Y-72714D01*
X70678Y-72690D01*
X70630Y-72666D01*
X70607Y-72642D01*
X70583Y-72595D01*
X70583Y-72547D01*
X70607Y-72500D01*
X70630Y-72476D01*
X70678Y-72452D01*
X70797Y-72452D01*
X70869Y-72476D01*
X71035Y-72452D02*
X71154Y-72952D01*
X71250Y-72595D01*
X71345Y-72952D01*
X71464Y-72452D01*
X71630Y-72500D02*
X71654Y-72476D01*
X71702Y-72452D01*
X71821Y-72452D01*
X71869Y-72476D01*
X71892Y-72500D01*
X71916Y-72547D01*
X71916Y-72595D01*
X71892Y-72666D01*
X71607Y-72952D01*
X71916Y-72952D01*
X75833Y-72928D02*
X75904Y-72952D01*
X76023Y-72952D01*
X76071Y-72928D01*
X76095Y-72904D01*
X76119Y-72857D01*
X76119Y-72809D01*
X76095Y-72761D01*
X76071Y-72738D01*
X76023Y-72714D01*
X75928Y-72690D01*
X75880Y-72666D01*
X75857Y-72642D01*
X75833Y-72595D01*
X75833Y-72547D01*
X75857Y-72500D01*
X75880Y-72476D01*
X75928Y-72452D01*
X76047Y-72452D01*
X76119Y-72476D01*
X76285Y-72452D02*
X76404Y-72952D01*
X76500Y-72595D01*
X76595Y-72952D01*
X76714Y-72452D01*
X76857Y-72452D02*
X77166Y-72452D01*
X77000Y-72642D01*
X77071Y-72642D01*
X77119Y-72666D01*
X77142Y-72690D01*
X77166Y-72738D01*
X77166Y-72857D01*
X77142Y-72904D01*
X77119Y-72928D01*
X77071Y-72952D01*
X76928Y-72952D01*
X76880Y-72928D01*
X76857Y-72904D01*
X81083Y-72928D02*
X81154Y-72952D01*
X81273Y-72952D01*
X81321Y-72928D01*
X81345Y-72904D01*
X81369Y-72857D01*
X81369Y-72809D01*
X81345Y-72761D01*
X81321Y-72738D01*
X81273Y-72714D01*
X81178Y-72690D01*
X81130Y-72666D01*
X81107Y-72642D01*
X81083Y-72595D01*
X81083Y-72547D01*
X81107Y-72500D01*
X81130Y-72476D01*
X81178Y-72452D01*
X81297Y-72452D01*
X81369Y-72476D01*
X81535Y-72452D02*
X81654Y-72952D01*
X81750Y-72595D01*
X81845Y-72952D01*
X81964Y-72452D01*
X82369Y-72619D02*
X82369Y-72952D01*
X82250Y-72428D02*
X82130Y-72785D01*
X82440Y-72785D01*
X86333Y-72928D02*
X86404Y-72952D01*
X86523Y-72952D01*
X86571Y-72928D01*
X86595Y-72904D01*
X86619Y-72857D01*
X86619Y-72809D01*
X86595Y-72761D01*
X86571Y-72738D01*
X86523Y-72714D01*
X86428Y-72690D01*
X86380Y-72666D01*
X86357Y-72642D01*
X86333Y-72595D01*
X86333Y-72547D01*
X86357Y-72500D01*
X86380Y-72476D01*
X86428Y-72452D01*
X86547Y-72452D01*
X86619Y-72476D01*
X86785Y-72452D02*
X86904Y-72952D01*
X87000Y-72595D01*
X87095Y-72952D01*
X87214Y-72452D01*
X87642Y-72452D02*
X87404Y-72452D01*
X87380Y-72690D01*
X87404Y-72666D01*
X87452Y-72642D01*
X87571Y-72642D01*
X87619Y-72666D01*
X87642Y-72690D01*
X87666Y-72738D01*
X87666Y-72857D01*
X87642Y-72904D01*
X87619Y-72928D01*
X87571Y-72952D01*
X87452Y-72952D01*
X87404Y-72928D01*
X87380Y-72904D01*
X66952Y-62583D02*
X66714Y-62750D01*
X66952Y-62869D02*
X66452Y-62869D01*
X66452Y-62678D01*
X66476Y-62630D01*
X66500Y-62607D01*
X66547Y-62583D01*
X66619Y-62583D01*
X66666Y-62607D01*
X66690Y-62630D01*
X66714Y-62678D01*
X66714Y-62869D01*
X66952Y-62345D02*
X66952Y-62250D01*
X66928Y-62202D01*
X66904Y-62178D01*
X66833Y-62130D01*
X66738Y-62107D01*
X66547Y-62107D01*
X66500Y-62130D01*
X66476Y-62154D01*
X66452Y-62202D01*
X66452Y-62297D01*
X66476Y-62345D01*
X66500Y-62369D01*
X66547Y-62392D01*
X66666Y-62392D01*
X66714Y-62369D01*
X66738Y-62345D01*
X66761Y-62297D01*
X66761Y-62202D01*
X66738Y-62154D01*
X66714Y-62130D01*
X66666Y-62107D01*
X62952Y-70583D02*
X62714Y-70750D01*
X62952Y-70869D02*
X62452Y-70869D01*
X62452Y-70678D01*
X62476Y-70630D01*
X62500Y-70607D01*
X62547Y-70583D01*
X62619Y-70583D01*
X62666Y-70607D01*
X62690Y-70630D01*
X62714Y-70678D01*
X62714Y-70869D01*
X62666Y-70297D02*
X62642Y-70345D01*
X62619Y-70369D01*
X62571Y-70392D01*
X62547Y-70392D01*
X62500Y-70369D01*
X62476Y-70345D01*
X62452Y-70297D01*
X62452Y-70202D01*
X62476Y-70154D01*
X62500Y-70130D01*
X62547Y-70107D01*
X62571Y-70107D01*
X62619Y-70130D01*
X62642Y-70154D01*
X62666Y-70202D01*
X62666Y-70297D01*
X62690Y-70345D01*
X62714Y-70369D01*
X62761Y-70392D01*
X62857Y-70392D01*
X62904Y-70369D01*
X62928Y-70345D01*
X62952Y-70297D01*
X62952Y-70202D01*
X62928Y-70154D01*
X62904Y-70130D01*
X62857Y-70107D01*
X62761Y-70107D01*
X62714Y-70130D01*
X62690Y-70154D01*
X62666Y-70202D01*
X68952Y-62583D02*
X68714Y-62750D01*
X68952Y-62869D02*
X68452Y-62869D01*
X68452Y-62678D01*
X68476Y-62630D01*
X68500Y-62607D01*
X68547Y-62583D01*
X68619Y-62583D01*
X68666Y-62607D01*
X68690Y-62630D01*
X68714Y-62678D01*
X68714Y-62869D01*
X68452Y-62416D02*
X68452Y-62083D01*
X68952Y-62297D01*
X88666Y-66202D02*
X88500Y-65964D01*
X88380Y-66202D02*
X88380Y-65702D01*
X88571Y-65702D01*
X88619Y-65726D01*
X88642Y-65750D01*
X88666Y-65797D01*
X88666Y-65869D01*
X88642Y-65916D01*
X88619Y-65940D01*
X88571Y-65964D01*
X88380Y-65964D01*
X88857Y-65750D02*
X88880Y-65726D01*
X88928Y-65702D01*
X89047Y-65702D01*
X89095Y-65726D01*
X89119Y-65750D01*
X89142Y-65797D01*
X89142Y-65845D01*
X89119Y-65916D01*
X88833Y-66202D01*
X89142Y-66202D01*
X82166Y-66202D02*
X82000Y-65964D01*
X81880Y-66202D02*
X81880Y-65702D01*
X82071Y-65702D01*
X82119Y-65726D01*
X82142Y-65750D01*
X82166Y-65797D01*
X82166Y-65869D01*
X82142Y-65916D01*
X82119Y-65940D01*
X82071Y-65964D01*
X81880Y-65964D01*
X82333Y-65702D02*
X82642Y-65702D01*
X82476Y-65892D01*
X82547Y-65892D01*
X82595Y-65916D01*
X82619Y-65940D01*
X82642Y-65988D01*
X82642Y-66107D01*
X82619Y-66154D01*
X82595Y-66178D01*
X82547Y-66202D01*
X82404Y-66202D01*
X82357Y-66178D01*
X82333Y-66154D01*
X107452Y-65583D02*
X107214Y-65750D01*
X107452Y-65869D02*
X106952Y-65869D01*
X106952Y-65678D01*
X106976Y-65630D01*
X107000Y-65607D01*
X107047Y-65583D01*
X107119Y-65583D01*
X107166Y-65607D01*
X107190Y-65630D01*
X107214Y-65678D01*
X107214Y-65869D01*
X106952Y-65130D02*
X106952Y-65369D01*
X107190Y-65392D01*
X107166Y-65369D01*
X107142Y-65321D01*
X107142Y-65202D01*
X107166Y-65154D01*
X107190Y-65130D01*
X107238Y-65107D01*
X107357Y-65107D01*
X107404Y-65130D01*
X107428Y-65154D01*
X107452Y-65202D01*
X107452Y-65321D01*
X107428Y-65369D01*
X107404Y-65392D01*
X72416Y-58722D02*
X72250Y-58460D01*
X72130Y-58722D02*
X72130Y-58172D01*
X72321Y-58172D01*
X72369Y-58198D01*
X72392Y-58225D01*
X72416Y-58277D01*
X72416Y-58355D01*
X72392Y-58408D01*
X72369Y-58434D01*
X72321Y-58460D01*
X72130Y-58460D01*
X72845Y-58172D02*
X72750Y-58172D01*
X72702Y-58198D01*
X72678Y-58225D01*
X72630Y-58303D01*
X72607Y-58408D01*
X72607Y-58617D01*
X72630Y-58670D01*
X72654Y-58696D01*
X72702Y-58722D01*
X72797Y-58722D01*
X72845Y-58696D01*
X72869Y-58670D01*
X72892Y-58617D01*
X72892Y-58486D01*
X72869Y-58434D01*
X72845Y-58408D01*
X72797Y-58382D01*
X72702Y-58382D01*
X72654Y-58408D01*
X72630Y-58434D01*
X72607Y-58486D01*
X75666Y-66202D02*
X75500Y-65964D01*
X75380Y-66202D02*
X75380Y-65702D01*
X75571Y-65702D01*
X75619Y-65726D01*
X75642Y-65750D01*
X75666Y-65797D01*
X75666Y-65869D01*
X75642Y-65916D01*
X75619Y-65940D01*
X75571Y-65964D01*
X75380Y-65964D01*
X76095Y-65869D02*
X76095Y-66202D01*
X75976Y-65678D02*
X75857Y-66035D01*
X76166Y-66035D01*
X94166Y-60952D02*
X94000Y-60714D01*
X93880Y-60952D02*
X93880Y-60452D01*
X94071Y-60452D01*
X94119Y-60476D01*
X94142Y-60500D01*
X94166Y-60547D01*
X94166Y-60619D01*
X94142Y-60666D01*
X94119Y-60690D01*
X94071Y-60714D01*
X93880Y-60714D01*
X94642Y-60952D02*
X94357Y-60952D01*
X94500Y-60952D02*
X94500Y-60452D01*
X94452Y-60523D01*
X94404Y-60571D01*
X94357Y-60595D01*
X89333Y-58702D02*
X89333Y-59059D01*
X89309Y-59130D01*
X89261Y-59178D01*
X89190Y-59202D01*
X89142Y-59202D01*
X89833Y-59202D02*
X89547Y-59202D01*
X89690Y-59202D02*
X89690Y-58702D01*
X89642Y-58773D01*
X89595Y-58821D01*
X89547Y-58845D01*
X71407Y-59702D02*
X71407Y-60107D01*
X71428Y-60154D01*
X71450Y-60178D01*
X71492Y-60202D01*
X71578Y-60202D01*
X71621Y-60178D01*
X71642Y-60154D01*
X71664Y-60107D01*
X71664Y-59702D01*
X72114Y-60202D02*
X71857Y-60202D01*
X71985Y-60202D02*
X71985Y-59702D01*
X71942Y-59773D01*
X71900Y-59821D01*
X71857Y-59845D01*
X77869Y-61702D02*
X77869Y-62107D01*
X77892Y-62154D01*
X77916Y-62178D01*
X77964Y-62202D01*
X78059Y-62202D01*
X78107Y-62178D01*
X78130Y-62154D01*
X78154Y-62107D01*
X78154Y-61702D01*
X78369Y-61750D02*
X78392Y-61726D01*
X78440Y-61702D01*
X78559Y-61702D01*
X78607Y-61726D01*
X78630Y-61750D01*
X78654Y-61797D01*
X78654Y-61845D01*
X78630Y-61916D01*
X78345Y-62202D01*
X78654Y-62202D01*
X98416Y-59904D02*
X98392Y-59928D01*
X98321Y-59952D01*
X98273Y-59952D01*
X98202Y-59928D01*
X98154Y-59880D01*
X98130Y-59833D01*
X98107Y-59738D01*
X98107Y-59666D01*
X98130Y-59571D01*
X98154Y-59523D01*
X98202Y-59476D01*
X98273Y-59452D01*
X98321Y-59452D01*
X98392Y-59476D01*
X98416Y-59500D01*
X98892Y-59952D02*
X98607Y-59952D01*
X98750Y-59952D02*
X98750Y-59452D01*
X98702Y-59523D01*
X98654Y-59571D01*
X98607Y-59595D01*
X72904Y-66083D02*
X72928Y-66107D01*
X72952Y-66178D01*
X72952Y-66226D01*
X72928Y-66297D01*
X72880Y-66345D01*
X72833Y-66369D01*
X72738Y-66392D01*
X72666Y-66392D01*
X72571Y-66369D01*
X72523Y-66345D01*
X72476Y-66297D01*
X72452Y-66226D01*
X72452Y-66178D01*
X72476Y-66107D01*
X72500Y-66083D01*
X72619Y-65654D02*
X72952Y-65654D01*
X72428Y-65773D02*
X72785Y-65892D01*
X72785Y-65583D01*
X66904Y-65833D02*
X66928Y-65857D01*
X66952Y-65928D01*
X66952Y-65976D01*
X66928Y-66047D01*
X66880Y-66095D01*
X66833Y-66119D01*
X66738Y-66142D01*
X66666Y-66142D01*
X66571Y-66119D01*
X66523Y-66095D01*
X66476Y-66047D01*
X66452Y-65976D01*
X66452Y-65928D01*
X66476Y-65857D01*
X66500Y-65833D01*
X66452Y-65380D02*
X66452Y-65619D01*
X66690Y-65642D01*
X66666Y-65619D01*
X66642Y-65571D01*
X66642Y-65452D01*
X66666Y-65404D01*
X66690Y-65380D01*
X66738Y-65357D01*
X66857Y-65357D01*
X66904Y-65380D01*
X66928Y-65404D01*
X66952Y-65452D01*
X66952Y-65571D01*
X66928Y-65619D01*
X66904Y-65642D01*
X84416Y-58154D02*
X84392Y-58178D01*
X84321Y-58202D01*
X84273Y-58202D01*
X84202Y-58178D01*
X84154Y-58130D01*
X84130Y-58083D01*
X84107Y-57988D01*
X84107Y-57916D01*
X84130Y-57821D01*
X84154Y-57773D01*
X84202Y-57726D01*
X84273Y-57702D01*
X84321Y-57702D01*
X84392Y-57726D01*
X84416Y-57750D01*
X84607Y-57750D02*
X84630Y-57726D01*
X84678Y-57702D01*
X84797Y-57702D01*
X84845Y-57726D01*
X84869Y-57750D01*
X84892Y-57797D01*
X84892Y-57845D01*
X84869Y-57916D01*
X84583Y-58202D01*
X84892Y-58202D01*
X68254Y-58483D02*
X68278Y-58507D01*
X68302Y-58578D01*
X68302Y-58626D01*
X68278Y-58697D01*
X68230Y-58745D01*
X68183Y-58769D01*
X68088Y-58792D01*
X68016Y-58792D01*
X67921Y-58769D01*
X67873Y-58745D01*
X67826Y-58697D01*
X67802Y-58626D01*
X67802Y-58578D01*
X67826Y-58507D01*
X67850Y-58483D01*
X67802Y-58316D02*
X67802Y-58007D01*
X67992Y-58173D01*
X67992Y-58102D01*
X68016Y-58054D01*
X68040Y-58030D01*
X68088Y-58007D01*
X68207Y-58007D01*
X68254Y-58030D01*
X68278Y-58054D01*
X68302Y-58102D01*
X68302Y-58245D01*
X68278Y-58292D01*
X68254Y-58316D01*
X105392Y-59440D02*
X105464Y-59464D01*
X105488Y-59488D01*
X105511Y-59535D01*
X105511Y-59607D01*
X105488Y-59654D01*
X105464Y-59678D01*
X105416Y-59702D01*
X105226Y-59702D01*
X105226Y-59202D01*
X105392Y-59202D01*
X105440Y-59226D01*
X105464Y-59250D01*
X105488Y-59297D01*
X105488Y-59345D01*
X105464Y-59392D01*
X105440Y-59416D01*
X105392Y-59440D01*
X105226Y-59440D01*
X105702Y-59559D02*
X105940Y-59559D01*
X105654Y-59702D02*
X105821Y-59202D01*
X105988Y-59702D01*
X106083Y-59202D02*
X106369Y-59202D01*
X106226Y-59702D02*
X106226Y-59202D01*
X106797Y-59702D02*
X106511Y-59702D01*
X106654Y-59702D02*
X106654Y-59202D01*
X106607Y-59273D01*
X106559Y-59321D01*
X106511Y-59345D01*
X66880Y-69202D02*
X66880Y-68702D01*
X67000Y-68702D01*
X67071Y-68726D01*
X67119Y-68773D01*
X67142Y-68821D01*
X67166Y-68916D01*
X67166Y-68988D01*
X67142Y-69083D01*
X67119Y-69130D01*
X67071Y-69178D01*
X67000Y-69202D01*
X66880Y-69202D01*
X67333Y-68702D02*
X67642Y-68702D01*
X67476Y-68892D01*
X67547Y-68892D01*
X67595Y-68916D01*
X67619Y-68940D01*
X67642Y-68988D01*
X67642Y-69107D01*
X67619Y-69154D01*
X67595Y-69178D01*
X67547Y-69202D01*
X67404Y-69202D01*
X67357Y-69178D01*
X67333Y-69154D01*
X72130Y-69202D02*
X72130Y-68702D01*
X72250Y-68702D01*
X72321Y-68726D01*
X72369Y-68773D01*
X72392Y-68821D01*
X72416Y-68916D01*
X72416Y-68988D01*
X72392Y-69083D01*
X72369Y-69130D01*
X72321Y-69178D01*
X72250Y-69202D01*
X72130Y-69202D01*
X72845Y-68869D02*
X72845Y-69202D01*
X72726Y-68678D02*
X72607Y-69035D01*
X72916Y-69035D01*
X77380Y-69202D02*
X77380Y-68702D01*
X77500Y-68702D01*
X77571Y-68726D01*
X77619Y-68773D01*
X77642Y-68821D01*
X77666Y-68916D01*
X77666Y-68988D01*
X77642Y-69083D01*
X77619Y-69130D01*
X77571Y-69178D01*
X77500Y-69202D01*
X77380Y-69202D01*
X78119Y-68702D02*
X77880Y-68702D01*
X77857Y-68940D01*
X77880Y-68916D01*
X77928Y-68892D01*
X78047Y-68892D01*
X78095Y-68916D01*
X78119Y-68940D01*
X78142Y-68988D01*
X78142Y-69107D01*
X78119Y-69154D01*
X78095Y-69178D01*
X78047Y-69202D01*
X77928Y-69202D01*
X77880Y-69178D01*
X77857Y-69154D01*
X87880Y-69202D02*
X87880Y-68702D01*
X88000Y-68702D01*
X88071Y-68726D01*
X88119Y-68773D01*
X88142Y-68821D01*
X88166Y-68916D01*
X88166Y-68988D01*
X88142Y-69083D01*
X88119Y-69130D01*
X88071Y-69178D01*
X88000Y-69202D01*
X87880Y-69202D01*
X88333Y-68702D02*
X88666Y-68702D01*
X88452Y-69202D01*
X98380Y-69202D02*
X98380Y-68702D01*
X98500Y-68702D01*
X98571Y-68726D01*
X98619Y-68773D01*
X98642Y-68821D01*
X98666Y-68916D01*
X98666Y-68988D01*
X98642Y-69083D01*
X98619Y-69130D01*
X98571Y-69178D01*
X98500Y-69202D01*
X98380Y-69202D01*
X98904Y-69202D02*
X99000Y-69202D01*
X99047Y-69178D01*
X99071Y-69154D01*
X99119Y-69083D01*
X99142Y-68988D01*
X99142Y-68797D01*
X99119Y-68750D01*
X99095Y-68726D01*
X99047Y-68702D01*
X98952Y-68702D01*
X98904Y-68726D01*
X98880Y-68750D01*
X98857Y-68797D01*
X98857Y-68916D01*
X98880Y-68964D01*
X98904Y-68988D01*
X98952Y-69011D01*
X99047Y-69011D01*
X99095Y-68988D01*
X99119Y-68964D01*
X99142Y-68916D01*
X103392Y-69202D02*
X103392Y-68702D01*
X103511Y-68702D01*
X103583Y-68726D01*
X103630Y-68773D01*
X103654Y-68821D01*
X103678Y-68916D01*
X103678Y-68988D01*
X103654Y-69083D01*
X103630Y-69130D01*
X103583Y-69178D01*
X103511Y-69202D01*
X103392Y-69202D01*
X104154Y-69202D02*
X103869Y-69202D01*
X104011Y-69202D02*
X104011Y-68702D01*
X103964Y-68773D01*
X103916Y-68821D01*
X103869Y-68845D01*
X104464Y-68702D02*
X104511Y-68702D01*
X104559Y-68726D01*
X104583Y-68750D01*
X104607Y-68797D01*
X104630Y-68892D01*
X104630Y-69011D01*
X104607Y-69107D01*
X104583Y-69154D01*
X104559Y-69178D01*
X104511Y-69202D01*
X104464Y-69202D01*
X104416Y-69178D01*
X104392Y-69154D01*
X104369Y-69107D01*
X104345Y-69011D01*
X104345Y-68892D01*
X104369Y-68797D01*
X104392Y-68750D01*
X104416Y-68726D01*
X104464Y-68702D01*
X93130Y-69202D02*
X93130Y-68702D01*
X93250Y-68702D01*
X93321Y-68726D01*
X93369Y-68773D01*
X93392Y-68821D01*
X93416Y-68916D01*
X93416Y-68988D01*
X93392Y-69083D01*
X93369Y-69130D01*
X93321Y-69178D01*
X93250Y-69202D01*
X93130Y-69202D01*
X93702Y-68916D02*
X93654Y-68892D01*
X93630Y-68869D01*
X93607Y-68821D01*
X93607Y-68797D01*
X93630Y-68750D01*
X93654Y-68726D01*
X93702Y-68702D01*
X93797Y-68702D01*
X93845Y-68726D01*
X93869Y-68750D01*
X93892Y-68797D01*
X93892Y-68821D01*
X93869Y-68869D01*
X93845Y-68892D01*
X93797Y-68916D01*
X93702Y-68916D01*
X93654Y-68940D01*
X93630Y-68964D01*
X93607Y-69011D01*
X93607Y-69107D01*
X93630Y-69154D01*
X93654Y-69178D01*
X93702Y-69202D01*
X93797Y-69202D01*
X93845Y-69178D01*
X93869Y-69154D01*
X93892Y-69107D01*
X93892Y-69011D01*
X93869Y-68964D01*
X93845Y-68940D01*
X93797Y-68916D01*
X82630Y-69202D02*
X82630Y-68702D01*
X82750Y-68702D01*
X82821Y-68726D01*
X82869Y-68773D01*
X82892Y-68821D01*
X82916Y-68916D01*
X82916Y-68988D01*
X82892Y-69083D01*
X82869Y-69130D01*
X82821Y-69178D01*
X82750Y-69202D01*
X82630Y-69202D01*
X83345Y-68702D02*
X83250Y-68702D01*
X83202Y-68726D01*
X83178Y-68750D01*
X83130Y-68821D01*
X83107Y-68916D01*
X83107Y-69107D01*
X83130Y-69154D01*
X83154Y-69178D01*
X83202Y-69202D01*
X83297Y-69202D01*
X83345Y-69178D01*
X83369Y-69154D01*
X83392Y-69107D01*
X83392Y-68988D01*
X83369Y-68940D01*
X83345Y-68916D01*
X83297Y-68892D01*
X83202Y-68892D01*
X83154Y-68916D01*
X83130Y-68940D01*
X83107Y-68988D01*
X65183Y-58373D02*
X65164Y-58392D01*
X65107Y-58411D01*
X65069Y-58411D01*
X65011Y-58392D01*
X64973Y-58354D01*
X64954Y-58316D01*
X64935Y-58240D01*
X64935Y-58183D01*
X64954Y-58107D01*
X64973Y-58069D01*
X65011Y-58030D01*
X65069Y-58011D01*
X65107Y-58011D01*
X65164Y-58030D01*
X65183Y-58050D01*
X65526Y-58011D02*
X65450Y-58011D01*
X65411Y-58030D01*
X65392Y-58050D01*
X65354Y-58107D01*
X65335Y-58183D01*
X65335Y-58335D01*
X65354Y-58373D01*
X65373Y-58392D01*
X65411Y-58411D01*
X65488Y-58411D01*
X65526Y-58392D01*
X65545Y-58373D01*
X65564Y-58335D01*
X65564Y-58240D01*
X65545Y-58202D01*
X65526Y-58183D01*
X65488Y-58164D01*
X65411Y-58164D01*
X65373Y-58183D01*
X65354Y-58202D01*
X65335Y-58240D01*
%LPC*%
G54D21*
X60500Y-63500D03*
X62468Y-61531D03*
X62468Y-65468D03*
G54D22*
X62468Y-63500D03*
G54D23*
X60500Y-65468D03*
X60500Y-61531D03*
X59515Y-61531D03*
X59515Y-65468D03*
G54D24*
X107250Y-62000D03*
X107250Y-61000D03*
X96250Y-59500D03*
X96250Y-58500D03*
G54D25*
X60750Y-71500D03*
X60750Y-70500D03*
X60750Y-69500D03*
G54D26*
X98210Y-64984D03*
X93290Y-64984D03*
X98210Y-63016D03*
X93290Y-63016D03*
X105210Y-64984D03*
X100290Y-64984D03*
X105210Y-63016D03*
X100290Y-63016D03*
X93234Y-70290D03*
X93234Y-75210D03*
X91266Y-70290D03*
X91266Y-75210D03*
X98484Y-70290D03*
X98484Y-75210D03*
X96516Y-70290D03*
X96516Y-75210D03*
X103734Y-70290D03*
X103734Y-75210D03*
X101766Y-70290D03*
X101766Y-75210D03*
X66984Y-70290D03*
X66984Y-75210D03*
X65016Y-70290D03*
X65016Y-75210D03*
X72234Y-70290D03*
X72234Y-75210D03*
X70266Y-70290D03*
X70266Y-75210D03*
X77484Y-70290D03*
X77484Y-75210D03*
X75516Y-70290D03*
X75516Y-75210D03*
X82734Y-70290D03*
X82734Y-75210D03*
X80766Y-70290D03*
X80766Y-75210D03*
X87984Y-70290D03*
X87984Y-75210D03*
X86016Y-70290D03*
X86016Y-75210D03*
G54D25*
X66750Y-64500D03*
X66750Y-60500D03*
X62750Y-72500D03*
X62750Y-68500D03*
X68750Y-60500D03*
X68750Y-64500D03*
X90750Y-66000D03*
X86750Y-66000D03*
X84250Y-66000D03*
X80250Y-66000D03*
X107250Y-63500D03*
X107250Y-67500D03*
X74500Y-58500D03*
X70500Y-58500D03*
X73750Y-66000D03*
X77750Y-66000D03*
X96250Y-60750D03*
X92250Y-60750D03*
G54D27*
X86250Y-58750D03*
G54D25*
X86250Y-57750D03*
X87250Y-58750D03*
X87250Y-57750D03*
X88250Y-58750D03*
X88250Y-57750D03*
G54D28*
X73250Y-64000D03*
G54D29*
X73250Y-63000D03*
X73250Y-62000D03*
X73250Y-61000D03*
X70250Y-61000D03*
X70250Y-62000D03*
X70250Y-63000D03*
X70250Y-64000D03*
X77250Y-63500D03*
X78250Y-63500D03*
X79250Y-63500D03*
X80250Y-63500D03*
X81250Y-63500D03*
X82250Y-63500D03*
X83250Y-63500D03*
X84250Y-63500D03*
X85250Y-63500D03*
X86250Y-63500D03*
X87250Y-63500D03*
X88250Y-63500D03*
X89250Y-63500D03*
G54D28*
X76250Y-63500D03*
G54D29*
X89250Y-60500D03*
X88250Y-60500D03*
X87250Y-60500D03*
X86250Y-60500D03*
X85250Y-60500D03*
X84250Y-60500D03*
X83250Y-60500D03*
X82250Y-60500D03*
X81250Y-60500D03*
X80250Y-60500D03*
X79250Y-60500D03*
X78250Y-60500D03*
X77250Y-60500D03*
X76250Y-60500D03*
G54D30*
X99500Y-59250D03*
G54D31*
X99500Y-60250D03*
G54D29*
X70750Y-66000D03*
X71750Y-66000D03*
X67750Y-66000D03*
X68750Y-66000D03*
X83250Y-58250D03*
X82250Y-58250D03*
X69000Y-59000D03*
X69000Y-58000D03*
G54D25*
X104250Y-60500D03*
X102250Y-60500D03*
G54D32*
X104250Y-58750D03*
X102250Y-58750D03*
X104250Y-57250D03*
X102250Y-57250D03*
G54D24*
X66000Y-68500D03*
X66000Y-67500D03*
X71250Y-68500D03*
X71250Y-67500D03*
X76500Y-68500D03*
X76500Y-67500D03*
X87000Y-68500D03*
X87000Y-67500D03*
X97500Y-68500D03*
X97500Y-67500D03*
X102750Y-68500D03*
X102750Y-67500D03*
X92250Y-68500D03*
X92250Y-67500D03*
X81750Y-68500D03*
X81750Y-67500D03*
G54D29*
X65750Y-59250D03*
X64750Y-59250D03*
G54D33*
X107000Y-58000D03*
X107000Y-75000D03*
X60500Y-75000D03*
X60500Y-58000D03*
M02*
