G04 (created by PCBNEW (2012-oct-18)-testing) date Thu 11 Jul 2013 02:21:07 PM EDT*
%MOIN*%
G04 Gerber Fmt 3.4, Leading zero omitted, Abs format*
%FSLAX34Y34*%
G01*
G70*
G90*
G04 APERTURE LIST*
%ADD10C,0.002*%
%ADD11C,0.00590551*%
%ADD12C,0.106299*%
%ADD13C,0.0629921*%
%ADD14C,0.0551181*%
%ADD15C,0.066*%
%ADD16C,0.06*%
%ADD17C,0.085*%
%ADD18R,0.06X0.06*%
%ADD19R,0.055X0.055*%
%ADD20C,0.055*%
%ADD21R,0.065X0.065*%
%ADD22C,0.065*%
%ADD23C,0.074*%
%ADD24C,0.16*%
%ADD25C,0.035*%
%ADD26C,0.01*%
G04 APERTURE END LIST*
G54D10*
G54D11*
X58750Y-75000D02*
X58750Y-58000D01*
X107250Y-76500D02*
X60250Y-76500D01*
X108750Y-58000D02*
X108750Y-75000D01*
X60250Y-56500D02*
X107250Y-56500D01*
X107250Y-76500D02*
G75*
G03X108750Y-75000I0J1500D01*
G74*
G01*
X108750Y-58000D02*
G75*
G03X107250Y-56500I-1500J0D01*
G74*
G01*
X58750Y-75000D02*
G75*
G03X60250Y-76500I1500J0D01*
G74*
G01*
X60250Y-56500D02*
G75*
G03X58750Y-58000I0J-1500D01*
G74*
G01*
G54D12*
X60500Y-63500D03*
X62468Y-61531D03*
X62468Y-65468D03*
G54D13*
X62468Y-63500D03*
G54D14*
X60500Y-65468D03*
X60500Y-61531D03*
X59515Y-61531D03*
X59515Y-65468D03*
G54D15*
X107250Y-62000D03*
X107250Y-61000D03*
X96250Y-59500D03*
X96250Y-58500D03*
G54D16*
X60750Y-71500D03*
X60750Y-70500D03*
X60750Y-69500D03*
G54D17*
X98210Y-64984D03*
X93290Y-64984D03*
X98210Y-63016D03*
X93290Y-63016D03*
X105210Y-64984D03*
X100290Y-64984D03*
X105210Y-63016D03*
X100290Y-63016D03*
X93234Y-70290D03*
X93234Y-75210D03*
X91266Y-70290D03*
X91266Y-75210D03*
X98484Y-70290D03*
X98484Y-75210D03*
X96516Y-70290D03*
X96516Y-75210D03*
X103734Y-70290D03*
X103734Y-75210D03*
X101766Y-70290D03*
X101766Y-75210D03*
X66984Y-70290D03*
X66984Y-75210D03*
X65016Y-70290D03*
X65016Y-75210D03*
X72234Y-70290D03*
X72234Y-75210D03*
X70266Y-70290D03*
X70266Y-75210D03*
X77484Y-70290D03*
X77484Y-75210D03*
X75516Y-70290D03*
X75516Y-75210D03*
X82734Y-70290D03*
X82734Y-75210D03*
X80766Y-70290D03*
X80766Y-75210D03*
X87984Y-70290D03*
X87984Y-75210D03*
X86016Y-70290D03*
X86016Y-75210D03*
G54D16*
X66750Y-64500D03*
X66750Y-60500D03*
X62750Y-72500D03*
X62750Y-68500D03*
X68750Y-60500D03*
X68750Y-64500D03*
X90750Y-66000D03*
X86750Y-66000D03*
X84250Y-66000D03*
X80250Y-66000D03*
X107250Y-63500D03*
X107250Y-67500D03*
X74500Y-58500D03*
X70500Y-58500D03*
X73750Y-66000D03*
X77750Y-66000D03*
X96250Y-60750D03*
X92250Y-60750D03*
G54D18*
X86250Y-58750D03*
G54D16*
X86250Y-57750D03*
X87250Y-58750D03*
X87250Y-57750D03*
X88250Y-58750D03*
X88250Y-57750D03*
G54D19*
X73250Y-64000D03*
G54D20*
X73250Y-63000D03*
X73250Y-62000D03*
X73250Y-61000D03*
X70250Y-61000D03*
X70250Y-62000D03*
X70250Y-63000D03*
X70250Y-64000D03*
X77250Y-63500D03*
X78250Y-63500D03*
X79250Y-63500D03*
X80250Y-63500D03*
X81250Y-63500D03*
X82250Y-63500D03*
X83250Y-63500D03*
X84250Y-63500D03*
X85250Y-63500D03*
X86250Y-63500D03*
X87250Y-63500D03*
X88250Y-63500D03*
X89250Y-63500D03*
G54D19*
X76250Y-63500D03*
G54D20*
X89250Y-60500D03*
X88250Y-60500D03*
X87250Y-60500D03*
X86250Y-60500D03*
X85250Y-60500D03*
X84250Y-60500D03*
X83250Y-60500D03*
X82250Y-60500D03*
X81250Y-60500D03*
X80250Y-60500D03*
X79250Y-60500D03*
X78250Y-60500D03*
X77250Y-60500D03*
X76250Y-60500D03*
G54D21*
X99500Y-59250D03*
G54D22*
X99500Y-60250D03*
G54D20*
X70750Y-66000D03*
X71750Y-66000D03*
X67750Y-66000D03*
X68750Y-66000D03*
X83250Y-58250D03*
X82250Y-58250D03*
X69000Y-59000D03*
X69000Y-58000D03*
G54D16*
X104250Y-60500D03*
X102250Y-60500D03*
G54D23*
X104250Y-58750D03*
X102250Y-58750D03*
X104250Y-57250D03*
X102250Y-57250D03*
G54D15*
X66000Y-68500D03*
X66000Y-67500D03*
X71250Y-68500D03*
X71250Y-67500D03*
X76500Y-68500D03*
X76500Y-67500D03*
X87000Y-68500D03*
X87000Y-67500D03*
X97500Y-68500D03*
X97500Y-67500D03*
X102750Y-68500D03*
X102750Y-67500D03*
X92250Y-68500D03*
X92250Y-67500D03*
X81750Y-68500D03*
X81750Y-67500D03*
G54D20*
X65750Y-59250D03*
X64750Y-59250D03*
G54D24*
X107000Y-58000D03*
X107000Y-75000D03*
X60500Y-75000D03*
X60500Y-58000D03*
G54D25*
X76500Y-71000D03*
X78250Y-71500D03*
X72250Y-72500D03*
X79250Y-75250D03*
X80250Y-65000D03*
X82750Y-65000D03*
X81250Y-66500D03*
X79750Y-67250D03*
X79750Y-74250D03*
X93250Y-73750D03*
X84750Y-73750D03*
X98500Y-72750D03*
X89250Y-72750D03*
X103750Y-71750D03*
X89750Y-62500D03*
X91500Y-62500D03*
X92250Y-71750D03*
X99500Y-65000D03*
X99500Y-62000D03*
X77250Y-62000D03*
X88750Y-65000D03*
X88750Y-62500D03*
X76250Y-62500D03*
X75500Y-61250D03*
X75250Y-68500D03*
X68750Y-68500D03*
X68750Y-67500D03*
X78750Y-68500D03*
X78750Y-67500D03*
X90250Y-68500D03*
X90250Y-67500D03*
X85750Y-66750D03*
X85750Y-65250D03*
X86750Y-65250D03*
X86750Y-61500D03*
X80250Y-61500D03*
X100250Y-71250D03*
X83750Y-71250D03*
X81250Y-61250D03*
X83750Y-61250D03*
X100250Y-68500D03*
X100250Y-67500D03*
X87750Y-64500D03*
X76250Y-66000D03*
X64250Y-67500D03*
X101000Y-61500D03*
X87250Y-61500D03*
X88250Y-66000D03*
G54D26*
X83250Y-58250D02*
X83750Y-58250D01*
X84250Y-58750D02*
X84250Y-60500D01*
X83750Y-58250D02*
X84250Y-58750D01*
X77250Y-63500D02*
X77250Y-69000D01*
X77250Y-69000D02*
X76500Y-69750D01*
X76500Y-69750D02*
X76500Y-71000D01*
X66984Y-75210D02*
X66984Y-70290D01*
X78250Y-63500D02*
X78250Y-71500D01*
X72250Y-72500D02*
X72234Y-72500D01*
X72234Y-72500D02*
X72250Y-72500D01*
X72250Y-72500D02*
X72234Y-72500D01*
X72234Y-70290D02*
X72234Y-72500D01*
X72234Y-72500D02*
X72234Y-75210D01*
X79250Y-63500D02*
X79250Y-74500D01*
X79250Y-74500D02*
X79250Y-75250D01*
X77484Y-75210D02*
X77484Y-70290D01*
X80250Y-63500D02*
X80250Y-64500D01*
X80250Y-64500D02*
X80250Y-65000D01*
X82734Y-70290D02*
X82734Y-65016D01*
X82734Y-65016D02*
X82750Y-65000D01*
X82734Y-75210D02*
X82734Y-70290D01*
X79750Y-71500D02*
X79750Y-67250D01*
X81250Y-66500D02*
X81250Y-63500D01*
X81250Y-63500D02*
X81250Y-66500D01*
X79750Y-71500D02*
X79750Y-74250D01*
X87984Y-70290D02*
X87984Y-75210D01*
X93234Y-75210D02*
X93234Y-73766D01*
X93234Y-73766D02*
X93250Y-73750D01*
X93234Y-73734D02*
X93234Y-70290D01*
X93250Y-73750D02*
X93234Y-73734D01*
X84750Y-68500D02*
X84750Y-73750D01*
X86250Y-63500D02*
X86250Y-67000D01*
X86250Y-67000D02*
X84750Y-68500D01*
X98484Y-70290D02*
X98484Y-72750D01*
X98484Y-72750D02*
X98484Y-75210D01*
X89250Y-63500D02*
X89250Y-72750D01*
X98500Y-72750D02*
X98484Y-72750D01*
X98484Y-72750D02*
X98500Y-72750D01*
X98500Y-72750D02*
X98484Y-72750D01*
X91500Y-66500D02*
X91500Y-66750D01*
X91000Y-68500D02*
X91750Y-69250D01*
X91000Y-67250D02*
X91000Y-68500D01*
X91500Y-66750D02*
X91000Y-67250D01*
X103750Y-71750D02*
X103734Y-71750D01*
X103734Y-71750D02*
X103750Y-71750D01*
X103750Y-71750D02*
X103734Y-71750D01*
X103734Y-70290D02*
X103734Y-71750D01*
X103734Y-71750D02*
X103734Y-75210D01*
X89250Y-60500D02*
X89250Y-61000D01*
X89750Y-61500D02*
X89750Y-62500D01*
X89250Y-61000D02*
X89750Y-61500D01*
X91500Y-62500D02*
X91500Y-62750D01*
X91500Y-62750D02*
X91500Y-66500D01*
X91750Y-69250D02*
X92250Y-69750D01*
X92250Y-69750D02*
X92250Y-71750D01*
X99500Y-62000D02*
X99500Y-65000D01*
X77250Y-60500D02*
X77250Y-62000D01*
X88750Y-62500D02*
X88750Y-65000D01*
X76250Y-60500D02*
X76250Y-62500D01*
X75500Y-68250D02*
X75500Y-61250D01*
X75250Y-68500D02*
X75500Y-68250D01*
X68750Y-67500D02*
X68750Y-68500D01*
X79250Y-60500D02*
X79250Y-62000D01*
X78750Y-62500D02*
X78750Y-67500D01*
X79250Y-62000D02*
X78750Y-62500D01*
X78750Y-67500D02*
X78750Y-68500D01*
X90250Y-67500D02*
X90250Y-68500D01*
X80250Y-60500D02*
X80250Y-61500D01*
X85750Y-65250D02*
X85750Y-66750D01*
X86750Y-61500D02*
X86750Y-65250D01*
X83750Y-61250D02*
X84750Y-62250D01*
X84750Y-64500D02*
X83750Y-65500D01*
X84750Y-62250D02*
X84750Y-64500D01*
X100250Y-68500D02*
X100250Y-71250D01*
X83750Y-71250D02*
X83750Y-65500D01*
X81250Y-61250D02*
X81250Y-60500D01*
X100250Y-67500D02*
X100250Y-68500D01*
X86250Y-60500D02*
X86250Y-58750D01*
X87250Y-60500D02*
X87250Y-60250D01*
X87750Y-58250D02*
X87250Y-57750D01*
X87750Y-59750D02*
X87750Y-58250D01*
X87250Y-60250D02*
X87750Y-59750D01*
X88250Y-58750D02*
X88250Y-59750D01*
X87750Y-60250D02*
X87750Y-64500D01*
X88250Y-59750D02*
X87750Y-60250D01*
X76250Y-66000D02*
X76250Y-63500D01*
X85250Y-60500D02*
X85250Y-58750D01*
X86750Y-58250D02*
X87250Y-58750D01*
X85750Y-58250D02*
X86750Y-58250D01*
X85250Y-58750D02*
X85750Y-58250D01*
X95750Y-60750D02*
X95500Y-60750D01*
X95250Y-60500D02*
X95250Y-60250D01*
X95500Y-60750D02*
X95250Y-60500D01*
X96250Y-58500D02*
X95500Y-58500D01*
X95750Y-60750D02*
X96250Y-60750D01*
X95250Y-58750D02*
X95250Y-60250D01*
X95500Y-58500D02*
X95250Y-58750D01*
X60750Y-69500D02*
X63750Y-69500D01*
X64250Y-69000D02*
X64250Y-67500D01*
X63750Y-69500D02*
X64250Y-69000D01*
X107250Y-62000D02*
X105750Y-62000D01*
X105250Y-61500D02*
X101000Y-61500D01*
X105750Y-62000D02*
X105250Y-61500D01*
X87250Y-62250D02*
X87250Y-61500D01*
X87250Y-62250D02*
X87250Y-63500D01*
X107250Y-62000D02*
X107250Y-63500D01*
X88250Y-66000D02*
X88250Y-63500D01*
G54D10*
G36*
X107950Y-74549D02*
X107890Y-74406D01*
X107830Y-74345D01*
X107830Y-61885D01*
X107741Y-61671D01*
X107578Y-61508D01*
X107558Y-61500D01*
X107578Y-61491D01*
X107741Y-61328D01*
X107829Y-61115D01*
X107830Y-60885D01*
X107741Y-60671D01*
X107578Y-60508D01*
X107365Y-60420D01*
X107135Y-60419D01*
X106921Y-60508D01*
X106758Y-60671D01*
X106670Y-60884D01*
X106669Y-61114D01*
X106758Y-61328D01*
X106921Y-61491D01*
X106941Y-61499D01*
X106921Y-61508D01*
X106758Y-61671D01*
X106746Y-61700D01*
X105874Y-61700D01*
X105462Y-61287D01*
X105364Y-61222D01*
X105250Y-61200D01*
X104870Y-61200D01*
X104870Y-58627D01*
X104775Y-58399D01*
X104601Y-58224D01*
X104373Y-58130D01*
X104127Y-58129D01*
X103899Y-58224D01*
X103724Y-58398D01*
X103630Y-58626D01*
X103629Y-58872D01*
X103724Y-59100D01*
X103898Y-59275D01*
X104126Y-59369D01*
X104372Y-59370D01*
X104600Y-59275D01*
X104775Y-59101D01*
X104869Y-58873D01*
X104870Y-58627D01*
X104870Y-61200D01*
X104800Y-61200D01*
X104800Y-60391D01*
X104716Y-60188D01*
X104561Y-60034D01*
X104359Y-59950D01*
X104141Y-59949D01*
X103938Y-60033D01*
X103784Y-60188D01*
X103700Y-60390D01*
X103699Y-60608D01*
X103783Y-60811D01*
X103938Y-60965D01*
X104140Y-61049D01*
X104358Y-61050D01*
X104561Y-60966D01*
X104715Y-60811D01*
X104799Y-60609D01*
X104800Y-60391D01*
X104800Y-61200D01*
X102870Y-61200D01*
X102870Y-58627D01*
X102775Y-58399D01*
X102601Y-58224D01*
X102373Y-58130D01*
X102127Y-58129D01*
X101899Y-58224D01*
X101724Y-58398D01*
X101630Y-58626D01*
X101629Y-58872D01*
X101724Y-59100D01*
X101898Y-59275D01*
X102126Y-59369D01*
X102372Y-59370D01*
X102600Y-59275D01*
X102775Y-59101D01*
X102869Y-58873D01*
X102870Y-58627D01*
X102870Y-61200D01*
X102705Y-61200D01*
X102705Y-60557D01*
X102692Y-60379D01*
X102648Y-60272D01*
X102581Y-60239D01*
X102510Y-60310D01*
X102510Y-60168D01*
X102477Y-60101D01*
X102307Y-60044D01*
X102129Y-60057D01*
X102022Y-60101D01*
X101989Y-60168D01*
X102250Y-60429D01*
X102510Y-60168D01*
X102510Y-60310D01*
X102320Y-60500D01*
X102581Y-60760D01*
X102648Y-60727D01*
X102705Y-60557D01*
X102705Y-61200D01*
X102510Y-61200D01*
X102510Y-60831D01*
X102250Y-60570D01*
X102179Y-60641D01*
X102179Y-60500D01*
X101918Y-60239D01*
X101851Y-60272D01*
X101794Y-60442D01*
X101807Y-60620D01*
X101851Y-60727D01*
X101918Y-60760D01*
X102179Y-60500D01*
X102179Y-60641D01*
X101989Y-60831D01*
X102022Y-60898D01*
X102192Y-60955D01*
X102370Y-60942D01*
X102477Y-60898D01*
X102510Y-60831D01*
X102510Y-61200D01*
X101301Y-61200D01*
X101241Y-61139D01*
X101084Y-61075D01*
X100915Y-61074D01*
X100759Y-61139D01*
X100639Y-61258D01*
X100575Y-61415D01*
X100574Y-61584D01*
X100639Y-61740D01*
X100758Y-61860D01*
X100915Y-61924D01*
X101084Y-61925D01*
X101240Y-61860D01*
X101301Y-61800D01*
X105125Y-61800D01*
X105537Y-62212D01*
X105537Y-62212D01*
X105635Y-62277D01*
X105750Y-62300D01*
X106746Y-62300D01*
X106758Y-62328D01*
X106921Y-62491D01*
X106950Y-62503D01*
X106950Y-63028D01*
X106938Y-63033D01*
X106784Y-63188D01*
X106700Y-63390D01*
X106699Y-63608D01*
X106783Y-63811D01*
X106938Y-63965D01*
X107140Y-64049D01*
X107358Y-64050D01*
X107561Y-63966D01*
X107715Y-63811D01*
X107799Y-63609D01*
X107800Y-63391D01*
X107716Y-63188D01*
X107561Y-63034D01*
X107550Y-63029D01*
X107550Y-62503D01*
X107578Y-62491D01*
X107741Y-62328D01*
X107829Y-62115D01*
X107830Y-61885D01*
X107830Y-74345D01*
X107705Y-74220D01*
X107705Y-67557D01*
X107692Y-67379D01*
X107648Y-67272D01*
X107581Y-67239D01*
X107510Y-67310D01*
X107510Y-67168D01*
X107477Y-67101D01*
X107307Y-67044D01*
X107129Y-67057D01*
X107022Y-67101D01*
X106989Y-67168D01*
X107250Y-67429D01*
X107510Y-67168D01*
X107510Y-67310D01*
X107320Y-67500D01*
X107581Y-67760D01*
X107648Y-67727D01*
X107705Y-67557D01*
X107705Y-74220D01*
X107595Y-74110D01*
X107510Y-74075D01*
X107510Y-67831D01*
X107250Y-67570D01*
X107179Y-67641D01*
X107179Y-67500D01*
X106918Y-67239D01*
X106851Y-67272D01*
X106794Y-67442D01*
X106807Y-67620D01*
X106851Y-67727D01*
X106918Y-67760D01*
X107179Y-67500D01*
X107179Y-67641D01*
X106989Y-67831D01*
X107022Y-67898D01*
X107192Y-67955D01*
X107370Y-67942D01*
X107477Y-67898D01*
X107510Y-67831D01*
X107510Y-74075D01*
X107209Y-73950D01*
X106792Y-73949D01*
X106406Y-74109D01*
X106110Y-74404D01*
X105950Y-74790D01*
X105949Y-75207D01*
X106109Y-75594D01*
X106404Y-75889D01*
X106549Y-75950D01*
X105885Y-75950D01*
X105885Y-64850D01*
X105789Y-64619D01*
X105789Y-63103D01*
X105779Y-62875D01*
X105711Y-62713D01*
X105631Y-62664D01*
X105561Y-62735D01*
X105561Y-62594D01*
X105512Y-62514D01*
X105297Y-62436D01*
X105069Y-62446D01*
X104907Y-62514D01*
X104858Y-62594D01*
X105210Y-62945D01*
X105561Y-62594D01*
X105561Y-62735D01*
X105280Y-63016D01*
X105631Y-63367D01*
X105711Y-63318D01*
X105789Y-63103D01*
X105789Y-64619D01*
X105782Y-64602D01*
X105592Y-64412D01*
X105561Y-64398D01*
X105561Y-63437D01*
X105210Y-63086D01*
X105139Y-63157D01*
X105139Y-63016D01*
X104788Y-62664D01*
X104708Y-62713D01*
X104630Y-62928D01*
X104640Y-63156D01*
X104708Y-63318D01*
X104788Y-63367D01*
X105139Y-63016D01*
X105139Y-63157D01*
X104858Y-63437D01*
X104907Y-63517D01*
X105122Y-63595D01*
X105350Y-63585D01*
X105512Y-63517D01*
X105561Y-63437D01*
X105561Y-64398D01*
X105344Y-64309D01*
X105076Y-64308D01*
X104828Y-64411D01*
X104638Y-64601D01*
X104535Y-64849D01*
X104534Y-65117D01*
X104637Y-65365D01*
X104827Y-65555D01*
X105075Y-65658D01*
X105343Y-65659D01*
X105591Y-65556D01*
X105781Y-65366D01*
X105884Y-65118D01*
X105885Y-64850D01*
X105885Y-75950D01*
X104409Y-75950D01*
X104409Y-75076D01*
X104306Y-74828D01*
X104116Y-74638D01*
X104034Y-74603D01*
X104034Y-72067D01*
X104110Y-71991D01*
X104174Y-71834D01*
X104175Y-71665D01*
X104110Y-71509D01*
X104034Y-71432D01*
X104034Y-70896D01*
X104115Y-70862D01*
X104305Y-70672D01*
X104408Y-70424D01*
X104409Y-70156D01*
X104306Y-69908D01*
X104116Y-69718D01*
X103868Y-69615D01*
X103600Y-69614D01*
X103352Y-69717D01*
X103330Y-69739D01*
X103330Y-68385D01*
X103241Y-68171D01*
X103235Y-68164D01*
X103235Y-67565D01*
X103223Y-67374D01*
X103173Y-67254D01*
X103102Y-67217D01*
X103032Y-67288D01*
X103032Y-67147D01*
X102995Y-67076D01*
X102815Y-67014D01*
X102624Y-67026D01*
X102504Y-67076D01*
X102467Y-67147D01*
X102750Y-67429D01*
X103032Y-67147D01*
X103032Y-67288D01*
X102820Y-67500D01*
X103102Y-67782D01*
X103173Y-67745D01*
X103235Y-67565D01*
X103235Y-68164D01*
X103078Y-68008D01*
X102934Y-67948D01*
X102995Y-67923D01*
X103032Y-67852D01*
X102750Y-67570D01*
X102679Y-67641D01*
X102679Y-67500D01*
X102397Y-67217D01*
X102326Y-67254D01*
X102264Y-67434D01*
X102276Y-67625D01*
X102326Y-67745D01*
X102397Y-67782D01*
X102679Y-67500D01*
X102679Y-67641D01*
X102467Y-67852D01*
X102504Y-67923D01*
X102571Y-67946D01*
X102421Y-68008D01*
X102258Y-68171D01*
X102170Y-68384D01*
X102169Y-68614D01*
X102258Y-68828D01*
X102421Y-68991D01*
X102634Y-69079D01*
X102864Y-69080D01*
X103078Y-68991D01*
X103241Y-68828D01*
X103329Y-68615D01*
X103330Y-68385D01*
X103330Y-69739D01*
X103162Y-69907D01*
X103059Y-70155D01*
X103058Y-70423D01*
X103161Y-70671D01*
X103351Y-70861D01*
X103434Y-70896D01*
X103434Y-71464D01*
X103389Y-71508D01*
X103325Y-71665D01*
X103324Y-71834D01*
X103389Y-71990D01*
X103434Y-72035D01*
X103434Y-74603D01*
X103352Y-74637D01*
X103162Y-74827D01*
X103059Y-75075D01*
X103058Y-75343D01*
X103161Y-75591D01*
X103351Y-75781D01*
X103599Y-75884D01*
X103867Y-75885D01*
X104115Y-75782D01*
X104305Y-75592D01*
X104408Y-75344D01*
X104409Y-75076D01*
X104409Y-75950D01*
X102345Y-75950D01*
X102345Y-75297D01*
X102345Y-70377D01*
X102335Y-70149D01*
X102267Y-69987D01*
X102187Y-69938D01*
X102117Y-70009D01*
X102117Y-69868D01*
X102068Y-69788D01*
X101853Y-69710D01*
X101625Y-69720D01*
X101463Y-69788D01*
X101414Y-69868D01*
X101766Y-70219D01*
X102117Y-69868D01*
X102117Y-70009D01*
X101836Y-70290D01*
X102187Y-70641D01*
X102267Y-70592D01*
X102345Y-70377D01*
X102345Y-75297D01*
X102335Y-75069D01*
X102267Y-74907D01*
X102187Y-74858D01*
X102117Y-74929D01*
X102117Y-74788D01*
X102117Y-70711D01*
X101766Y-70360D01*
X101695Y-70431D01*
X101695Y-70290D01*
X101344Y-69938D01*
X101264Y-69987D01*
X101186Y-70202D01*
X101196Y-70430D01*
X101264Y-70592D01*
X101344Y-70641D01*
X101695Y-70290D01*
X101695Y-70431D01*
X101414Y-70711D01*
X101463Y-70791D01*
X101678Y-70869D01*
X101906Y-70859D01*
X102068Y-70791D01*
X102117Y-70711D01*
X102117Y-74788D01*
X102068Y-74708D01*
X101853Y-74630D01*
X101625Y-74640D01*
X101463Y-74708D01*
X101414Y-74788D01*
X101766Y-75139D01*
X102117Y-74788D01*
X102117Y-74929D01*
X101836Y-75210D01*
X102187Y-75561D01*
X102267Y-75512D01*
X102345Y-75297D01*
X102345Y-75950D01*
X102117Y-75950D01*
X102117Y-75631D01*
X101766Y-75280D01*
X101695Y-75351D01*
X101695Y-75210D01*
X101344Y-74858D01*
X101264Y-74907D01*
X101186Y-75122D01*
X101196Y-75350D01*
X101264Y-75512D01*
X101344Y-75561D01*
X101695Y-75210D01*
X101695Y-75351D01*
X101414Y-75631D01*
X101463Y-75711D01*
X101678Y-75789D01*
X101906Y-75779D01*
X102068Y-75711D01*
X102117Y-75631D01*
X102117Y-75950D01*
X100965Y-75950D01*
X100965Y-64850D01*
X100869Y-64619D01*
X100869Y-63103D01*
X100859Y-62875D01*
X100791Y-62713D01*
X100711Y-62664D01*
X100641Y-62735D01*
X100641Y-62594D01*
X100592Y-62514D01*
X100377Y-62436D01*
X100149Y-62446D01*
X100075Y-62477D01*
X100075Y-59525D01*
X100075Y-58875D01*
X100037Y-58783D01*
X99966Y-58713D01*
X99874Y-58675D01*
X99775Y-58674D01*
X99125Y-58674D01*
X99033Y-58712D01*
X98963Y-58783D01*
X98925Y-58875D01*
X98924Y-58974D01*
X98924Y-59624D01*
X98962Y-59716D01*
X99033Y-59786D01*
X99125Y-59824D01*
X99224Y-59825D01*
X99271Y-59825D01*
X99257Y-59830D01*
X99221Y-59900D01*
X99500Y-60179D01*
X99778Y-59900D01*
X99742Y-59830D01*
X99725Y-59825D01*
X99874Y-59825D01*
X99966Y-59787D01*
X100036Y-59716D01*
X100074Y-59624D01*
X100075Y-59525D01*
X100075Y-62477D01*
X99987Y-62514D01*
X99980Y-62525D01*
X99980Y-60313D01*
X99967Y-60125D01*
X99919Y-60007D01*
X99849Y-59971D01*
X99570Y-60250D01*
X99849Y-60528D01*
X99919Y-60492D01*
X99980Y-60313D01*
X99980Y-62525D01*
X99938Y-62594D01*
X100290Y-62945D01*
X100641Y-62594D01*
X100641Y-62735D01*
X100360Y-63016D01*
X100711Y-63367D01*
X100791Y-63318D01*
X100869Y-63103D01*
X100869Y-64619D01*
X100862Y-64602D01*
X100672Y-64412D01*
X100641Y-64398D01*
X100641Y-63437D01*
X100290Y-63086D01*
X99938Y-63437D01*
X99987Y-63517D01*
X100202Y-63595D01*
X100430Y-63585D01*
X100592Y-63517D01*
X100641Y-63437D01*
X100641Y-64398D01*
X100424Y-64309D01*
X100156Y-64308D01*
X99908Y-64411D01*
X99800Y-64519D01*
X99800Y-63326D01*
X99868Y-63367D01*
X100219Y-63016D01*
X99868Y-62664D01*
X99800Y-62705D01*
X99800Y-62301D01*
X99860Y-62241D01*
X99924Y-62084D01*
X99925Y-61915D01*
X99860Y-61759D01*
X99778Y-61677D01*
X99778Y-60599D01*
X99500Y-60320D01*
X99429Y-60391D01*
X99429Y-60250D01*
X99150Y-59971D01*
X99080Y-60007D01*
X99019Y-60186D01*
X99032Y-60374D01*
X99080Y-60492D01*
X99150Y-60528D01*
X99429Y-60250D01*
X99429Y-60391D01*
X99221Y-60599D01*
X99257Y-60669D01*
X99436Y-60730D01*
X99624Y-60717D01*
X99742Y-60669D01*
X99778Y-60599D01*
X99778Y-61677D01*
X99741Y-61639D01*
X99584Y-61575D01*
X99415Y-61574D01*
X99259Y-61639D01*
X99139Y-61758D01*
X99075Y-61915D01*
X99074Y-62084D01*
X99139Y-62240D01*
X99200Y-62301D01*
X99200Y-64698D01*
X99139Y-64758D01*
X99075Y-64915D01*
X99074Y-65084D01*
X99139Y-65240D01*
X99258Y-65360D01*
X99415Y-65424D01*
X99584Y-65425D01*
X99720Y-65368D01*
X99907Y-65555D01*
X100155Y-65658D01*
X100423Y-65659D01*
X100671Y-65556D01*
X100861Y-65366D01*
X100964Y-65118D01*
X100965Y-64850D01*
X100965Y-75950D01*
X100675Y-75950D01*
X100675Y-71165D01*
X100610Y-71009D01*
X100550Y-70948D01*
X100550Y-68801D01*
X100610Y-68741D01*
X100674Y-68584D01*
X100675Y-68415D01*
X100610Y-68259D01*
X100550Y-68198D01*
X100550Y-67801D01*
X100610Y-67741D01*
X100674Y-67584D01*
X100675Y-67415D01*
X100610Y-67259D01*
X100491Y-67139D01*
X100334Y-67075D01*
X100165Y-67074D01*
X100009Y-67139D01*
X99889Y-67258D01*
X99825Y-67415D01*
X99824Y-67584D01*
X99889Y-67740D01*
X99950Y-67801D01*
X99950Y-68198D01*
X99889Y-68258D01*
X99825Y-68415D01*
X99824Y-68584D01*
X99889Y-68740D01*
X99950Y-68801D01*
X99950Y-70948D01*
X99889Y-71008D01*
X99825Y-71165D01*
X99824Y-71334D01*
X99889Y-71490D01*
X100008Y-71610D01*
X100165Y-71674D01*
X100334Y-71675D01*
X100490Y-71610D01*
X100610Y-71491D01*
X100674Y-71334D01*
X100675Y-71165D01*
X100675Y-75950D01*
X99159Y-75950D01*
X99159Y-75076D01*
X99056Y-74828D01*
X98866Y-74638D01*
X98784Y-74603D01*
X98784Y-73067D01*
X98860Y-72991D01*
X98924Y-72834D01*
X98925Y-72665D01*
X98860Y-72509D01*
X98784Y-72432D01*
X98784Y-70896D01*
X98865Y-70862D01*
X99055Y-70672D01*
X99158Y-70424D01*
X99159Y-70156D01*
X99056Y-69908D01*
X98885Y-69736D01*
X98885Y-64850D01*
X98789Y-64619D01*
X98789Y-63103D01*
X98779Y-62875D01*
X98711Y-62713D01*
X98631Y-62664D01*
X98561Y-62735D01*
X98561Y-62594D01*
X98512Y-62514D01*
X98297Y-62436D01*
X98069Y-62446D01*
X97907Y-62514D01*
X97858Y-62594D01*
X98210Y-62945D01*
X98561Y-62594D01*
X98561Y-62735D01*
X98280Y-63016D01*
X98631Y-63367D01*
X98711Y-63318D01*
X98789Y-63103D01*
X98789Y-64619D01*
X98782Y-64602D01*
X98592Y-64412D01*
X98561Y-64398D01*
X98561Y-63437D01*
X98210Y-63086D01*
X98139Y-63157D01*
X98139Y-63016D01*
X97788Y-62664D01*
X97708Y-62713D01*
X97630Y-62928D01*
X97640Y-63156D01*
X97708Y-63318D01*
X97788Y-63367D01*
X98139Y-63016D01*
X98139Y-63157D01*
X97858Y-63437D01*
X97907Y-63517D01*
X98122Y-63595D01*
X98350Y-63585D01*
X98512Y-63517D01*
X98561Y-63437D01*
X98561Y-64398D01*
X98344Y-64309D01*
X98076Y-64308D01*
X97828Y-64411D01*
X97638Y-64601D01*
X97535Y-64849D01*
X97534Y-65117D01*
X97637Y-65365D01*
X97827Y-65555D01*
X98075Y-65658D01*
X98343Y-65659D01*
X98591Y-65556D01*
X98781Y-65366D01*
X98884Y-65118D01*
X98885Y-64850D01*
X98885Y-69736D01*
X98866Y-69718D01*
X98618Y-69615D01*
X98350Y-69614D01*
X98102Y-69717D01*
X98080Y-69739D01*
X98080Y-68385D01*
X97991Y-68171D01*
X97828Y-68008D01*
X97808Y-68000D01*
X97828Y-67991D01*
X97991Y-67828D01*
X98079Y-67615D01*
X98080Y-67385D01*
X97991Y-67171D01*
X97828Y-67008D01*
X97615Y-66920D01*
X97385Y-66919D01*
X97171Y-67008D01*
X97008Y-67171D01*
X96920Y-67384D01*
X96919Y-67614D01*
X97008Y-67828D01*
X97171Y-67991D01*
X97191Y-67999D01*
X97171Y-68008D01*
X97008Y-68171D01*
X96920Y-68384D01*
X96919Y-68614D01*
X97008Y-68828D01*
X97171Y-68991D01*
X97384Y-69079D01*
X97614Y-69080D01*
X97828Y-68991D01*
X97991Y-68828D01*
X98079Y-68615D01*
X98080Y-68385D01*
X98080Y-69739D01*
X97912Y-69907D01*
X97809Y-70155D01*
X97808Y-70423D01*
X97911Y-70671D01*
X98101Y-70861D01*
X98184Y-70896D01*
X98184Y-72464D01*
X98139Y-72508D01*
X98075Y-72665D01*
X98074Y-72834D01*
X98139Y-72990D01*
X98184Y-73035D01*
X98184Y-74603D01*
X98102Y-74637D01*
X97912Y-74827D01*
X97809Y-75075D01*
X97808Y-75343D01*
X97911Y-75591D01*
X98101Y-75781D01*
X98349Y-75884D01*
X98617Y-75885D01*
X98865Y-75782D01*
X99055Y-75592D01*
X99158Y-75344D01*
X99159Y-75076D01*
X99159Y-75950D01*
X97095Y-75950D01*
X97095Y-75297D01*
X97095Y-70377D01*
X97085Y-70149D01*
X97017Y-69987D01*
X96937Y-69938D01*
X96867Y-70009D01*
X96867Y-69868D01*
X96830Y-69806D01*
X96830Y-59385D01*
X96741Y-59171D01*
X96578Y-59008D01*
X96558Y-59000D01*
X96578Y-58991D01*
X96741Y-58828D01*
X96829Y-58615D01*
X96830Y-58385D01*
X96741Y-58171D01*
X96578Y-58008D01*
X96365Y-57920D01*
X96135Y-57919D01*
X95921Y-58008D01*
X95758Y-58171D01*
X95746Y-58200D01*
X95500Y-58200D01*
X95385Y-58222D01*
X95287Y-58287D01*
X95037Y-58537D01*
X94972Y-58635D01*
X94950Y-58750D01*
X94950Y-60250D01*
X94950Y-60500D01*
X94972Y-60614D01*
X95037Y-60712D01*
X95287Y-60962D01*
X95287Y-60962D01*
X95385Y-61027D01*
X95500Y-61050D01*
X95750Y-61050D01*
X95778Y-61050D01*
X95783Y-61061D01*
X95938Y-61215D01*
X96140Y-61299D01*
X96358Y-61300D01*
X96561Y-61216D01*
X96715Y-61061D01*
X96799Y-60859D01*
X96800Y-60641D01*
X96716Y-60438D01*
X96561Y-60284D01*
X96359Y-60200D01*
X96141Y-60199D01*
X95938Y-60283D01*
X95784Y-60438D01*
X95779Y-60450D01*
X95750Y-60450D01*
X95624Y-60450D01*
X95550Y-60375D01*
X95550Y-60250D01*
X95550Y-58874D01*
X95624Y-58800D01*
X95746Y-58800D01*
X95758Y-58828D01*
X95921Y-58991D01*
X95941Y-58999D01*
X95921Y-59008D01*
X95758Y-59171D01*
X95670Y-59384D01*
X95669Y-59614D01*
X95758Y-59828D01*
X95921Y-59991D01*
X96134Y-60079D01*
X96364Y-60080D01*
X96578Y-59991D01*
X96741Y-59828D01*
X96829Y-59615D01*
X96830Y-59385D01*
X96830Y-69806D01*
X96818Y-69788D01*
X96603Y-69710D01*
X96375Y-69720D01*
X96213Y-69788D01*
X96164Y-69868D01*
X96516Y-70219D01*
X96867Y-69868D01*
X96867Y-70009D01*
X96586Y-70290D01*
X96937Y-70641D01*
X97017Y-70592D01*
X97095Y-70377D01*
X97095Y-75297D01*
X97085Y-75069D01*
X97017Y-74907D01*
X96937Y-74858D01*
X96867Y-74929D01*
X96867Y-74788D01*
X96867Y-70711D01*
X96516Y-70360D01*
X96445Y-70431D01*
X96445Y-70290D01*
X96094Y-69938D01*
X96014Y-69987D01*
X95936Y-70202D01*
X95946Y-70430D01*
X96014Y-70592D01*
X96094Y-70641D01*
X96445Y-70290D01*
X96445Y-70431D01*
X96164Y-70711D01*
X96213Y-70791D01*
X96428Y-70869D01*
X96656Y-70859D01*
X96818Y-70791D01*
X96867Y-70711D01*
X96867Y-74788D01*
X96818Y-74708D01*
X96603Y-74630D01*
X96375Y-74640D01*
X96213Y-74708D01*
X96164Y-74788D01*
X96516Y-75139D01*
X96867Y-74788D01*
X96867Y-74929D01*
X96586Y-75210D01*
X96937Y-75561D01*
X97017Y-75512D01*
X97095Y-75297D01*
X97095Y-75950D01*
X96867Y-75950D01*
X96867Y-75631D01*
X96516Y-75280D01*
X96445Y-75351D01*
X96445Y-75210D01*
X96094Y-74858D01*
X96014Y-74907D01*
X95936Y-75122D01*
X95946Y-75350D01*
X96014Y-75512D01*
X96094Y-75561D01*
X96445Y-75210D01*
X96445Y-75351D01*
X96164Y-75631D01*
X96213Y-75711D01*
X96428Y-75789D01*
X96656Y-75779D01*
X96818Y-75711D01*
X96867Y-75631D01*
X96867Y-75950D01*
X93965Y-75950D01*
X93965Y-64850D01*
X93869Y-64619D01*
X93869Y-63103D01*
X93859Y-62875D01*
X93791Y-62713D01*
X93711Y-62664D01*
X93641Y-62735D01*
X93641Y-62594D01*
X93592Y-62514D01*
X93377Y-62436D01*
X93149Y-62446D01*
X92987Y-62514D01*
X92938Y-62594D01*
X93290Y-62945D01*
X93641Y-62594D01*
X93641Y-62735D01*
X93360Y-63016D01*
X93711Y-63367D01*
X93791Y-63318D01*
X93869Y-63103D01*
X93869Y-64619D01*
X93862Y-64602D01*
X93672Y-64412D01*
X93641Y-64398D01*
X93641Y-63437D01*
X93290Y-63086D01*
X93219Y-63157D01*
X93219Y-63016D01*
X92868Y-62664D01*
X92788Y-62713D01*
X92710Y-62928D01*
X92720Y-63156D01*
X92788Y-63318D01*
X92868Y-63367D01*
X93219Y-63016D01*
X93219Y-63157D01*
X92938Y-63437D01*
X92987Y-63517D01*
X93202Y-63595D01*
X93430Y-63585D01*
X93592Y-63517D01*
X93641Y-63437D01*
X93641Y-64398D01*
X93424Y-64309D01*
X93156Y-64308D01*
X92908Y-64411D01*
X92718Y-64601D01*
X92705Y-64632D01*
X92705Y-60807D01*
X92692Y-60629D01*
X92648Y-60522D01*
X92581Y-60489D01*
X92510Y-60560D01*
X92510Y-60418D01*
X92477Y-60351D01*
X92307Y-60294D01*
X92129Y-60307D01*
X92022Y-60351D01*
X91989Y-60418D01*
X92250Y-60679D01*
X92510Y-60418D01*
X92510Y-60560D01*
X92320Y-60750D01*
X92581Y-61010D01*
X92648Y-60977D01*
X92705Y-60807D01*
X92705Y-64632D01*
X92615Y-64849D01*
X92614Y-65117D01*
X92717Y-65365D01*
X92907Y-65555D01*
X93155Y-65658D01*
X93423Y-65659D01*
X93671Y-65556D01*
X93861Y-65366D01*
X93964Y-65118D01*
X93965Y-64850D01*
X93965Y-75950D01*
X93909Y-75950D01*
X93909Y-75076D01*
X93806Y-74828D01*
X93616Y-74638D01*
X93534Y-74603D01*
X93534Y-74067D01*
X93610Y-73991D01*
X93674Y-73834D01*
X93675Y-73665D01*
X93610Y-73509D01*
X93534Y-73432D01*
X93534Y-70896D01*
X93615Y-70862D01*
X93805Y-70672D01*
X93908Y-70424D01*
X93909Y-70156D01*
X93806Y-69908D01*
X93616Y-69718D01*
X93368Y-69615D01*
X93100Y-69614D01*
X92852Y-69717D01*
X92830Y-69739D01*
X92830Y-68385D01*
X92741Y-68171D01*
X92735Y-68164D01*
X92735Y-67565D01*
X92723Y-67374D01*
X92673Y-67254D01*
X92602Y-67217D01*
X92532Y-67288D01*
X92532Y-67147D01*
X92510Y-67105D01*
X92510Y-61081D01*
X92250Y-60820D01*
X92179Y-60891D01*
X92179Y-60750D01*
X91918Y-60489D01*
X91851Y-60522D01*
X91794Y-60692D01*
X91807Y-60870D01*
X91851Y-60977D01*
X91918Y-61010D01*
X92179Y-60750D01*
X92179Y-60891D01*
X91989Y-61081D01*
X92022Y-61148D01*
X92192Y-61205D01*
X92370Y-61192D01*
X92477Y-61148D01*
X92510Y-61081D01*
X92510Y-67105D01*
X92495Y-67076D01*
X92315Y-67014D01*
X92124Y-67026D01*
X92004Y-67076D01*
X91967Y-67147D01*
X92250Y-67429D01*
X92532Y-67147D01*
X92532Y-67288D01*
X92320Y-67500D01*
X92602Y-67782D01*
X92673Y-67745D01*
X92735Y-67565D01*
X92735Y-68164D01*
X92578Y-68008D01*
X92434Y-67948D01*
X92495Y-67923D01*
X92532Y-67852D01*
X92250Y-67570D01*
X92179Y-67641D01*
X92179Y-67500D01*
X91897Y-67217D01*
X91826Y-67254D01*
X91764Y-67434D01*
X91776Y-67625D01*
X91826Y-67745D01*
X91897Y-67782D01*
X92179Y-67500D01*
X92179Y-67641D01*
X91967Y-67852D01*
X92004Y-67923D01*
X92071Y-67946D01*
X91921Y-68008D01*
X91758Y-68171D01*
X91670Y-68384D01*
X91669Y-68614D01*
X91758Y-68828D01*
X91921Y-68991D01*
X92134Y-69079D01*
X92364Y-69080D01*
X92578Y-68991D01*
X92741Y-68828D01*
X92829Y-68615D01*
X92830Y-68385D01*
X92830Y-69739D01*
X92662Y-69907D01*
X92559Y-70155D01*
X92558Y-70423D01*
X92661Y-70671D01*
X92851Y-70861D01*
X92934Y-70896D01*
X92934Y-73464D01*
X92889Y-73508D01*
X92825Y-73665D01*
X92824Y-73834D01*
X92889Y-73990D01*
X92934Y-74035D01*
X92934Y-74603D01*
X92852Y-74637D01*
X92675Y-74814D01*
X92675Y-71665D01*
X92610Y-71509D01*
X92550Y-71448D01*
X92550Y-69750D01*
X92527Y-69635D01*
X92462Y-69537D01*
X92462Y-69537D01*
X91962Y-69037D01*
X91962Y-69037D01*
X91962Y-69037D01*
X91300Y-68375D01*
X91300Y-67374D01*
X91712Y-66962D01*
X91712Y-66962D01*
X91777Y-66864D01*
X91799Y-66750D01*
X91800Y-66750D01*
X91800Y-66500D01*
X91800Y-62801D01*
X91860Y-62741D01*
X91924Y-62584D01*
X91925Y-62415D01*
X91860Y-62259D01*
X91741Y-62139D01*
X91584Y-62075D01*
X91415Y-62074D01*
X91259Y-62139D01*
X91139Y-62258D01*
X91075Y-62415D01*
X91074Y-62584D01*
X91139Y-62740D01*
X91200Y-62801D01*
X91200Y-65672D01*
X91061Y-65534D01*
X90859Y-65450D01*
X90641Y-65449D01*
X90438Y-65533D01*
X90284Y-65688D01*
X90200Y-65890D01*
X90199Y-66108D01*
X90283Y-66311D01*
X90438Y-66465D01*
X90640Y-66549D01*
X90858Y-66550D01*
X91061Y-66466D01*
X91200Y-66327D01*
X91200Y-66500D01*
X91200Y-66625D01*
X90787Y-67037D01*
X90722Y-67135D01*
X90700Y-67250D01*
X90700Y-68500D01*
X90722Y-68614D01*
X90787Y-68712D01*
X91537Y-69462D01*
X91537Y-69462D01*
X91537Y-69462D01*
X91950Y-69874D01*
X91950Y-71448D01*
X91889Y-71508D01*
X91845Y-71615D01*
X91845Y-70377D01*
X91835Y-70149D01*
X91767Y-69987D01*
X91687Y-69938D01*
X91617Y-70009D01*
X91617Y-69868D01*
X91568Y-69788D01*
X91353Y-69710D01*
X91125Y-69720D01*
X90963Y-69788D01*
X90914Y-69868D01*
X91266Y-70219D01*
X91617Y-69868D01*
X91617Y-70009D01*
X91336Y-70290D01*
X91687Y-70641D01*
X91767Y-70592D01*
X91845Y-70377D01*
X91845Y-71615D01*
X91825Y-71665D01*
X91824Y-71834D01*
X91889Y-71990D01*
X92008Y-72110D01*
X92165Y-72174D01*
X92334Y-72175D01*
X92490Y-72110D01*
X92610Y-71991D01*
X92674Y-71834D01*
X92675Y-71665D01*
X92675Y-74814D01*
X92662Y-74827D01*
X92559Y-75075D01*
X92558Y-75343D01*
X92661Y-75591D01*
X92851Y-75781D01*
X93099Y-75884D01*
X93367Y-75885D01*
X93615Y-75782D01*
X93805Y-75592D01*
X93908Y-75344D01*
X93909Y-75076D01*
X93909Y-75950D01*
X91845Y-75950D01*
X91845Y-75297D01*
X91835Y-75069D01*
X91767Y-74907D01*
X91687Y-74858D01*
X91617Y-74929D01*
X91617Y-74788D01*
X91617Y-70711D01*
X91266Y-70360D01*
X91195Y-70431D01*
X91195Y-70290D01*
X90844Y-69938D01*
X90764Y-69987D01*
X90686Y-70202D01*
X90696Y-70430D01*
X90764Y-70592D01*
X90844Y-70641D01*
X91195Y-70290D01*
X91195Y-70431D01*
X90914Y-70711D01*
X90963Y-70791D01*
X91178Y-70869D01*
X91406Y-70859D01*
X91568Y-70791D01*
X91617Y-70711D01*
X91617Y-74788D01*
X91568Y-74708D01*
X91353Y-74630D01*
X91125Y-74640D01*
X90963Y-74708D01*
X90914Y-74788D01*
X91266Y-75139D01*
X91617Y-74788D01*
X91617Y-74929D01*
X91336Y-75210D01*
X91687Y-75561D01*
X91767Y-75512D01*
X91845Y-75297D01*
X91845Y-75950D01*
X91617Y-75950D01*
X91617Y-75631D01*
X91266Y-75280D01*
X91195Y-75351D01*
X91195Y-75210D01*
X90844Y-74858D01*
X90764Y-74907D01*
X90686Y-75122D01*
X90696Y-75350D01*
X90764Y-75512D01*
X90844Y-75561D01*
X91195Y-75210D01*
X91195Y-75351D01*
X90914Y-75631D01*
X90963Y-75711D01*
X91178Y-75789D01*
X91406Y-75779D01*
X91568Y-75711D01*
X91617Y-75631D01*
X91617Y-75950D01*
X90675Y-75950D01*
X90675Y-68415D01*
X90610Y-68259D01*
X90550Y-68198D01*
X90550Y-67801D01*
X90610Y-67741D01*
X90674Y-67584D01*
X90675Y-67415D01*
X90610Y-67259D01*
X90491Y-67139D01*
X90334Y-67075D01*
X90175Y-67074D01*
X90175Y-62415D01*
X90110Y-62259D01*
X90050Y-62198D01*
X90050Y-61500D01*
X90027Y-61385D01*
X89962Y-61287D01*
X89962Y-61287D01*
X89583Y-60909D01*
X89694Y-60797D01*
X89774Y-60604D01*
X89775Y-60396D01*
X89695Y-60203D01*
X89547Y-60055D01*
X89354Y-59975D01*
X89146Y-59974D01*
X88953Y-60054D01*
X88805Y-60202D01*
X88749Y-60335D01*
X88695Y-60203D01*
X88547Y-60055D01*
X88421Y-60002D01*
X88462Y-59962D01*
X88462Y-59962D01*
X88527Y-59864D01*
X88549Y-59750D01*
X88550Y-59750D01*
X88550Y-59221D01*
X88561Y-59216D01*
X88715Y-59061D01*
X88799Y-58859D01*
X88800Y-58641D01*
X88716Y-58438D01*
X88705Y-58427D01*
X88705Y-57807D01*
X88692Y-57629D01*
X88648Y-57522D01*
X88581Y-57489D01*
X88510Y-57560D01*
X88510Y-57418D01*
X88477Y-57351D01*
X88307Y-57294D01*
X88129Y-57307D01*
X88022Y-57351D01*
X87989Y-57418D01*
X88250Y-57679D01*
X88510Y-57418D01*
X88510Y-57560D01*
X88320Y-57750D01*
X88581Y-58010D01*
X88648Y-57977D01*
X88705Y-57807D01*
X88705Y-58427D01*
X88561Y-58284D01*
X88359Y-58200D01*
X88265Y-58200D01*
X88370Y-58192D01*
X88477Y-58148D01*
X88510Y-58081D01*
X88285Y-57856D01*
X88250Y-57820D01*
X88249Y-57820D01*
X88179Y-57750D01*
X88143Y-57714D01*
X87918Y-57489D01*
X87851Y-57522D01*
X87800Y-57676D01*
X87800Y-57641D01*
X87716Y-57438D01*
X87561Y-57284D01*
X87359Y-57200D01*
X87141Y-57199D01*
X86938Y-57283D01*
X86784Y-57438D01*
X86750Y-57519D01*
X86716Y-57438D01*
X86561Y-57284D01*
X86359Y-57200D01*
X86141Y-57199D01*
X85938Y-57283D01*
X85784Y-57438D01*
X85700Y-57640D01*
X85699Y-57858D01*
X85738Y-57952D01*
X85635Y-57972D01*
X85537Y-58037D01*
X85037Y-58537D01*
X84972Y-58635D01*
X84950Y-58750D01*
X84950Y-60057D01*
X84805Y-60202D01*
X84749Y-60335D01*
X84695Y-60203D01*
X84550Y-60057D01*
X84550Y-58750D01*
X84527Y-58635D01*
X84462Y-58537D01*
X84462Y-58537D01*
X83962Y-58037D01*
X83864Y-57972D01*
X83750Y-57950D01*
X83692Y-57950D01*
X83547Y-57805D01*
X83354Y-57725D01*
X83146Y-57724D01*
X82953Y-57804D01*
X82805Y-57952D01*
X82725Y-58145D01*
X82724Y-58353D01*
X82804Y-58547D01*
X82952Y-58694D01*
X83145Y-58774D01*
X83353Y-58775D01*
X83547Y-58695D01*
X83659Y-58583D01*
X83950Y-58874D01*
X83950Y-60057D01*
X83805Y-60202D01*
X83749Y-60335D01*
X83695Y-60203D01*
X83547Y-60055D01*
X83354Y-59975D01*
X83146Y-59974D01*
X82953Y-60054D01*
X82805Y-60202D01*
X82725Y-60395D01*
X82724Y-60603D01*
X82804Y-60797D01*
X82952Y-60944D01*
X83145Y-61024D01*
X83353Y-61025D01*
X83389Y-61010D01*
X83325Y-61165D01*
X83324Y-61334D01*
X83389Y-61490D01*
X83508Y-61610D01*
X83665Y-61674D01*
X83750Y-61675D01*
X84450Y-62374D01*
X84450Y-63014D01*
X84354Y-62975D01*
X84146Y-62974D01*
X83953Y-63054D01*
X83805Y-63202D01*
X83725Y-63395D01*
X83724Y-63603D01*
X83804Y-63797D01*
X83952Y-63944D01*
X84145Y-64024D01*
X84353Y-64025D01*
X84450Y-63985D01*
X84450Y-64375D01*
X83680Y-65145D01*
X83680Y-63551D01*
X83667Y-63383D01*
X83627Y-63287D01*
X83563Y-63257D01*
X83492Y-63328D01*
X83492Y-63186D01*
X83462Y-63122D01*
X83301Y-63069D01*
X83133Y-63082D01*
X83037Y-63122D01*
X83007Y-63186D01*
X83250Y-63429D01*
X83492Y-63186D01*
X83492Y-63328D01*
X83320Y-63500D01*
X83563Y-63742D01*
X83627Y-63712D01*
X83680Y-63551D01*
X83680Y-65145D01*
X83537Y-65287D01*
X83492Y-65356D01*
X83492Y-63813D01*
X83250Y-63570D01*
X83179Y-63641D01*
X83179Y-63500D01*
X82936Y-63257D01*
X82872Y-63287D01*
X82819Y-63448D01*
X82832Y-63616D01*
X82872Y-63712D01*
X82936Y-63742D01*
X83179Y-63500D01*
X83179Y-63641D01*
X83007Y-63813D01*
X83037Y-63877D01*
X83198Y-63930D01*
X83366Y-63917D01*
X83462Y-63877D01*
X83492Y-63813D01*
X83492Y-65356D01*
X83472Y-65385D01*
X83450Y-65500D01*
X83450Y-70948D01*
X83389Y-71008D01*
X83325Y-71165D01*
X83324Y-71334D01*
X83389Y-71490D01*
X83508Y-71610D01*
X83665Y-71674D01*
X83834Y-71675D01*
X83990Y-71610D01*
X84110Y-71491D01*
X84174Y-71334D01*
X84175Y-71165D01*
X84110Y-71009D01*
X84050Y-70948D01*
X84050Y-66512D01*
X84140Y-66549D01*
X84358Y-66550D01*
X84561Y-66466D01*
X84715Y-66311D01*
X84799Y-66109D01*
X84800Y-65891D01*
X84716Y-65688D01*
X84561Y-65534D01*
X84359Y-65450D01*
X84224Y-65449D01*
X84962Y-64712D01*
X84962Y-64712D01*
X85027Y-64614D01*
X85049Y-64500D01*
X85050Y-64500D01*
X85050Y-63985D01*
X85145Y-64024D01*
X85353Y-64025D01*
X85547Y-63945D01*
X85694Y-63797D01*
X85750Y-63664D01*
X85804Y-63797D01*
X85950Y-63942D01*
X85950Y-64872D01*
X85834Y-64825D01*
X85665Y-64824D01*
X85509Y-64889D01*
X85389Y-65008D01*
X85325Y-65165D01*
X85324Y-65334D01*
X85389Y-65490D01*
X85450Y-65551D01*
X85450Y-66448D01*
X85389Y-66508D01*
X85325Y-66665D01*
X85324Y-66834D01*
X85389Y-66990D01*
X85508Y-67110D01*
X85654Y-67170D01*
X84537Y-68287D01*
X84472Y-68385D01*
X84450Y-68500D01*
X84450Y-73448D01*
X84389Y-73508D01*
X84325Y-73665D01*
X84324Y-73834D01*
X84389Y-73990D01*
X84508Y-74110D01*
X84665Y-74174D01*
X84834Y-74175D01*
X84990Y-74110D01*
X85110Y-73991D01*
X85174Y-73834D01*
X85175Y-73665D01*
X85110Y-73509D01*
X85050Y-73448D01*
X85050Y-68624D01*
X86462Y-67212D01*
X86462Y-67212D01*
X86527Y-67114D01*
X86549Y-67000D01*
X86550Y-67000D01*
X86550Y-66512D01*
X86640Y-66549D01*
X86858Y-66550D01*
X87061Y-66466D01*
X87215Y-66311D01*
X87299Y-66109D01*
X87300Y-65891D01*
X87216Y-65688D01*
X87064Y-65536D01*
X87110Y-65491D01*
X87174Y-65334D01*
X87175Y-65165D01*
X87110Y-65009D01*
X87050Y-64948D01*
X87050Y-63985D01*
X87145Y-64024D01*
X87353Y-64025D01*
X87450Y-63985D01*
X87450Y-64198D01*
X87389Y-64258D01*
X87325Y-64415D01*
X87324Y-64584D01*
X87389Y-64740D01*
X87508Y-64860D01*
X87665Y-64924D01*
X87834Y-64925D01*
X87950Y-64877D01*
X87950Y-65698D01*
X87889Y-65758D01*
X87825Y-65915D01*
X87824Y-66084D01*
X87889Y-66240D01*
X88008Y-66360D01*
X88165Y-66424D01*
X88334Y-66425D01*
X88490Y-66360D01*
X88610Y-66241D01*
X88674Y-66084D01*
X88675Y-65915D01*
X88610Y-65759D01*
X88550Y-65698D01*
X88550Y-65377D01*
X88665Y-65424D01*
X88834Y-65425D01*
X88950Y-65377D01*
X88950Y-72448D01*
X88889Y-72508D01*
X88825Y-72665D01*
X88824Y-72834D01*
X88889Y-72990D01*
X89008Y-73110D01*
X89165Y-73174D01*
X89334Y-73175D01*
X89490Y-73110D01*
X89610Y-72991D01*
X89674Y-72834D01*
X89675Y-72665D01*
X89610Y-72509D01*
X89550Y-72448D01*
X89550Y-63942D01*
X89694Y-63797D01*
X89774Y-63604D01*
X89775Y-63396D01*
X89695Y-63203D01*
X89547Y-63055D01*
X89354Y-62975D01*
X89146Y-62974D01*
X89050Y-63014D01*
X89050Y-62801D01*
X89110Y-62741D01*
X89174Y-62584D01*
X89175Y-62415D01*
X89110Y-62259D01*
X88991Y-62139D01*
X88834Y-62075D01*
X88665Y-62074D01*
X88509Y-62139D01*
X88389Y-62258D01*
X88325Y-62415D01*
X88324Y-62584D01*
X88389Y-62740D01*
X88450Y-62801D01*
X88450Y-63014D01*
X88354Y-62975D01*
X88146Y-62974D01*
X88050Y-63014D01*
X88050Y-60985D01*
X88145Y-61024D01*
X88353Y-61025D01*
X88547Y-60945D01*
X88694Y-60797D01*
X88750Y-60664D01*
X88804Y-60797D01*
X88950Y-60942D01*
X88950Y-61000D01*
X88972Y-61114D01*
X89037Y-61212D01*
X89450Y-61624D01*
X89450Y-62198D01*
X89389Y-62258D01*
X89325Y-62415D01*
X89324Y-62584D01*
X89389Y-62740D01*
X89508Y-62860D01*
X89665Y-62924D01*
X89834Y-62925D01*
X89990Y-62860D01*
X90110Y-62741D01*
X90174Y-62584D01*
X90175Y-62415D01*
X90175Y-67074D01*
X90165Y-67074D01*
X90009Y-67139D01*
X89889Y-67258D01*
X89825Y-67415D01*
X89824Y-67584D01*
X89889Y-67740D01*
X89950Y-67801D01*
X89950Y-68198D01*
X89889Y-68258D01*
X89825Y-68415D01*
X89824Y-68584D01*
X89889Y-68740D01*
X90008Y-68860D01*
X90165Y-68924D01*
X90334Y-68925D01*
X90490Y-68860D01*
X90610Y-68741D01*
X90674Y-68584D01*
X90675Y-68415D01*
X90675Y-75950D01*
X88659Y-75950D01*
X88659Y-75076D01*
X88556Y-74828D01*
X88366Y-74638D01*
X88284Y-74603D01*
X88284Y-70896D01*
X88365Y-70862D01*
X88555Y-70672D01*
X88658Y-70424D01*
X88659Y-70156D01*
X88556Y-69908D01*
X88366Y-69718D01*
X88118Y-69615D01*
X87850Y-69614D01*
X87602Y-69717D01*
X87580Y-69739D01*
X87580Y-68385D01*
X87491Y-68171D01*
X87328Y-68008D01*
X87308Y-68000D01*
X87328Y-67991D01*
X87491Y-67828D01*
X87579Y-67615D01*
X87580Y-67385D01*
X87491Y-67171D01*
X87328Y-67008D01*
X87115Y-66920D01*
X86885Y-66919D01*
X86671Y-67008D01*
X86508Y-67171D01*
X86420Y-67384D01*
X86419Y-67614D01*
X86508Y-67828D01*
X86671Y-67991D01*
X86691Y-67999D01*
X86671Y-68008D01*
X86508Y-68171D01*
X86420Y-68384D01*
X86419Y-68614D01*
X86508Y-68828D01*
X86671Y-68991D01*
X86884Y-69079D01*
X87114Y-69080D01*
X87328Y-68991D01*
X87491Y-68828D01*
X87579Y-68615D01*
X87580Y-68385D01*
X87580Y-69739D01*
X87412Y-69907D01*
X87309Y-70155D01*
X87308Y-70423D01*
X87411Y-70671D01*
X87601Y-70861D01*
X87684Y-70896D01*
X87684Y-74603D01*
X87602Y-74637D01*
X87412Y-74827D01*
X87309Y-75075D01*
X87308Y-75343D01*
X87411Y-75591D01*
X87601Y-75781D01*
X87849Y-75884D01*
X88117Y-75885D01*
X88365Y-75782D01*
X88555Y-75592D01*
X88658Y-75344D01*
X88659Y-75076D01*
X88659Y-75950D01*
X86595Y-75950D01*
X86595Y-75297D01*
X86595Y-70377D01*
X86585Y-70149D01*
X86517Y-69987D01*
X86437Y-69938D01*
X86367Y-70009D01*
X86367Y-69868D01*
X86318Y-69788D01*
X86103Y-69710D01*
X85875Y-69720D01*
X85713Y-69788D01*
X85664Y-69868D01*
X86016Y-70219D01*
X86367Y-69868D01*
X86367Y-70009D01*
X86086Y-70290D01*
X86437Y-70641D01*
X86517Y-70592D01*
X86595Y-70377D01*
X86595Y-75297D01*
X86585Y-75069D01*
X86517Y-74907D01*
X86437Y-74858D01*
X86367Y-74929D01*
X86367Y-74788D01*
X86367Y-70711D01*
X86016Y-70360D01*
X85945Y-70431D01*
X85945Y-70290D01*
X85594Y-69938D01*
X85514Y-69987D01*
X85436Y-70202D01*
X85446Y-70430D01*
X85514Y-70592D01*
X85594Y-70641D01*
X85945Y-70290D01*
X85945Y-70431D01*
X85664Y-70711D01*
X85713Y-70791D01*
X85928Y-70869D01*
X86156Y-70859D01*
X86318Y-70791D01*
X86367Y-70711D01*
X86367Y-74788D01*
X86318Y-74708D01*
X86103Y-74630D01*
X85875Y-74640D01*
X85713Y-74708D01*
X85664Y-74788D01*
X86016Y-75139D01*
X86367Y-74788D01*
X86367Y-74929D01*
X86086Y-75210D01*
X86437Y-75561D01*
X86517Y-75512D01*
X86595Y-75297D01*
X86595Y-75950D01*
X86367Y-75950D01*
X86367Y-75631D01*
X86016Y-75280D01*
X85945Y-75351D01*
X85945Y-75210D01*
X85594Y-74858D01*
X85514Y-74907D01*
X85436Y-75122D01*
X85446Y-75350D01*
X85514Y-75512D01*
X85594Y-75561D01*
X85945Y-75210D01*
X85945Y-75351D01*
X85664Y-75631D01*
X85713Y-75711D01*
X85928Y-75789D01*
X86156Y-75779D01*
X86318Y-75711D01*
X86367Y-75631D01*
X86367Y-75950D01*
X83409Y-75950D01*
X83409Y-75076D01*
X83306Y-74828D01*
X83116Y-74638D01*
X83034Y-74603D01*
X83034Y-70896D01*
X83115Y-70862D01*
X83305Y-70672D01*
X83408Y-70424D01*
X83409Y-70156D01*
X83306Y-69908D01*
X83116Y-69718D01*
X83034Y-69683D01*
X83034Y-65317D01*
X83110Y-65241D01*
X83174Y-65084D01*
X83175Y-64915D01*
X83110Y-64759D01*
X82991Y-64639D01*
X82834Y-64575D01*
X82775Y-64575D01*
X82775Y-63396D01*
X82695Y-63203D01*
X82680Y-63187D01*
X82680Y-60551D01*
X82680Y-58301D01*
X82667Y-58133D01*
X82627Y-58037D01*
X82563Y-58007D01*
X82492Y-58078D01*
X82492Y-57936D01*
X82462Y-57872D01*
X82301Y-57819D01*
X82133Y-57832D01*
X82037Y-57872D01*
X82007Y-57936D01*
X82250Y-58179D01*
X82492Y-57936D01*
X82492Y-58078D01*
X82320Y-58250D01*
X82563Y-58492D01*
X82627Y-58462D01*
X82680Y-58301D01*
X82680Y-60551D01*
X82667Y-60383D01*
X82627Y-60287D01*
X82563Y-60257D01*
X82492Y-60328D01*
X82492Y-60186D01*
X82492Y-58563D01*
X82250Y-58320D01*
X82179Y-58391D01*
X82179Y-58250D01*
X81936Y-58007D01*
X81872Y-58037D01*
X81819Y-58198D01*
X81832Y-58366D01*
X81872Y-58462D01*
X81936Y-58492D01*
X82179Y-58250D01*
X82179Y-58391D01*
X82007Y-58563D01*
X82037Y-58627D01*
X82198Y-58680D01*
X82366Y-58667D01*
X82462Y-58627D01*
X82492Y-58563D01*
X82492Y-60186D01*
X82462Y-60122D01*
X82301Y-60069D01*
X82133Y-60082D01*
X82037Y-60122D01*
X82007Y-60186D01*
X82250Y-60429D01*
X82492Y-60186D01*
X82492Y-60328D01*
X82320Y-60500D01*
X82563Y-60742D01*
X82627Y-60712D01*
X82680Y-60551D01*
X82680Y-63187D01*
X82547Y-63055D01*
X82492Y-63032D01*
X82492Y-60813D01*
X82250Y-60570D01*
X82179Y-60641D01*
X82179Y-60500D01*
X81936Y-60257D01*
X81872Y-60287D01*
X81819Y-60448D01*
X81832Y-60616D01*
X81872Y-60712D01*
X81936Y-60742D01*
X82179Y-60500D01*
X82179Y-60641D01*
X82007Y-60813D01*
X82037Y-60877D01*
X82198Y-60930D01*
X82366Y-60917D01*
X82462Y-60877D01*
X82492Y-60813D01*
X82492Y-63032D01*
X82354Y-62975D01*
X82146Y-62974D01*
X81953Y-63054D01*
X81805Y-63202D01*
X81749Y-63335D01*
X81695Y-63203D01*
X81547Y-63055D01*
X81354Y-62975D01*
X81146Y-62974D01*
X80953Y-63054D01*
X80805Y-63202D01*
X80749Y-63335D01*
X80695Y-63203D01*
X80547Y-63055D01*
X80354Y-62975D01*
X80146Y-62974D01*
X79953Y-63054D01*
X79805Y-63202D01*
X79749Y-63335D01*
X79695Y-63203D01*
X79547Y-63055D01*
X79354Y-62975D01*
X79146Y-62974D01*
X79050Y-63014D01*
X79050Y-62624D01*
X79462Y-62212D01*
X79462Y-62212D01*
X79527Y-62114D01*
X79549Y-62000D01*
X79550Y-62000D01*
X79550Y-60942D01*
X79694Y-60797D01*
X79750Y-60664D01*
X79804Y-60797D01*
X79950Y-60942D01*
X79950Y-61198D01*
X79889Y-61258D01*
X79825Y-61415D01*
X79824Y-61584D01*
X79889Y-61740D01*
X80008Y-61860D01*
X80165Y-61924D01*
X80334Y-61925D01*
X80490Y-61860D01*
X80610Y-61741D01*
X80674Y-61584D01*
X80675Y-61415D01*
X80610Y-61259D01*
X80550Y-61198D01*
X80550Y-60942D01*
X80694Y-60797D01*
X80750Y-60664D01*
X80804Y-60797D01*
X80950Y-60942D01*
X80950Y-60948D01*
X80889Y-61008D01*
X80825Y-61165D01*
X80824Y-61334D01*
X80889Y-61490D01*
X81008Y-61610D01*
X81165Y-61674D01*
X81334Y-61675D01*
X81490Y-61610D01*
X81610Y-61491D01*
X81674Y-61334D01*
X81675Y-61165D01*
X81610Y-61009D01*
X81550Y-60948D01*
X81550Y-60942D01*
X81694Y-60797D01*
X81774Y-60604D01*
X81775Y-60396D01*
X81695Y-60203D01*
X81547Y-60055D01*
X81354Y-59975D01*
X81146Y-59974D01*
X80953Y-60054D01*
X80805Y-60202D01*
X80749Y-60335D01*
X80695Y-60203D01*
X80547Y-60055D01*
X80354Y-59975D01*
X80146Y-59974D01*
X79953Y-60054D01*
X79805Y-60202D01*
X79749Y-60335D01*
X79695Y-60203D01*
X79547Y-60055D01*
X79354Y-59975D01*
X79146Y-59974D01*
X78953Y-60054D01*
X78805Y-60202D01*
X78749Y-60335D01*
X78695Y-60203D01*
X78547Y-60055D01*
X78354Y-59975D01*
X78146Y-59974D01*
X77953Y-60054D01*
X77805Y-60202D01*
X77749Y-60335D01*
X77695Y-60203D01*
X77547Y-60055D01*
X77354Y-59975D01*
X77146Y-59974D01*
X76953Y-60054D01*
X76805Y-60202D01*
X76749Y-60335D01*
X76695Y-60203D01*
X76547Y-60055D01*
X76354Y-59975D01*
X76146Y-59974D01*
X75953Y-60054D01*
X75805Y-60202D01*
X75725Y-60395D01*
X75724Y-60603D01*
X75804Y-60797D01*
X75950Y-60942D01*
X75950Y-62198D01*
X75889Y-62258D01*
X75825Y-62415D01*
X75824Y-62584D01*
X75889Y-62740D01*
X76008Y-62860D01*
X76165Y-62924D01*
X76334Y-62925D01*
X76490Y-62860D01*
X76610Y-62741D01*
X76674Y-62584D01*
X76675Y-62415D01*
X76610Y-62259D01*
X76550Y-62198D01*
X76550Y-60942D01*
X76694Y-60797D01*
X76750Y-60664D01*
X76804Y-60797D01*
X76950Y-60942D01*
X76950Y-61698D01*
X76889Y-61758D01*
X76825Y-61915D01*
X76824Y-62084D01*
X76889Y-62240D01*
X77008Y-62360D01*
X77165Y-62424D01*
X77334Y-62425D01*
X77490Y-62360D01*
X77610Y-62241D01*
X77674Y-62084D01*
X77675Y-61915D01*
X77610Y-61759D01*
X77550Y-61698D01*
X77550Y-60942D01*
X77694Y-60797D01*
X77750Y-60664D01*
X77804Y-60797D01*
X77952Y-60944D01*
X78145Y-61024D01*
X78353Y-61025D01*
X78547Y-60945D01*
X78694Y-60797D01*
X78750Y-60664D01*
X78804Y-60797D01*
X78950Y-60942D01*
X78950Y-61875D01*
X78537Y-62287D01*
X78472Y-62385D01*
X78450Y-62500D01*
X78450Y-63014D01*
X78354Y-62975D01*
X78146Y-62974D01*
X77953Y-63054D01*
X77805Y-63202D01*
X77749Y-63335D01*
X77695Y-63203D01*
X77547Y-63055D01*
X77354Y-62975D01*
X77146Y-62974D01*
X76953Y-63054D01*
X76805Y-63202D01*
X76775Y-63274D01*
X76775Y-63175D01*
X76737Y-63083D01*
X76666Y-63013D01*
X76574Y-62975D01*
X76475Y-62974D01*
X75925Y-62974D01*
X75833Y-63012D01*
X75800Y-63046D01*
X75800Y-61551D01*
X75860Y-61491D01*
X75924Y-61334D01*
X75925Y-61165D01*
X75860Y-61009D01*
X75741Y-60889D01*
X75584Y-60825D01*
X75415Y-60824D01*
X75259Y-60889D01*
X75139Y-61008D01*
X75075Y-61165D01*
X75074Y-61334D01*
X75139Y-61490D01*
X75200Y-61551D01*
X75200Y-68074D01*
X75165Y-68074D01*
X75050Y-68122D01*
X75050Y-58391D01*
X74966Y-58188D01*
X74811Y-58034D01*
X74609Y-57950D01*
X74391Y-57949D01*
X74188Y-58033D01*
X74034Y-58188D01*
X73950Y-58390D01*
X73949Y-58608D01*
X74033Y-58811D01*
X74188Y-58965D01*
X74390Y-59049D01*
X74608Y-59050D01*
X74811Y-58966D01*
X74965Y-58811D01*
X75049Y-58609D01*
X75050Y-58391D01*
X75050Y-68122D01*
X75009Y-68139D01*
X74889Y-68258D01*
X74825Y-68415D01*
X74824Y-68584D01*
X74889Y-68740D01*
X75008Y-68860D01*
X75165Y-68924D01*
X75334Y-68925D01*
X75490Y-68860D01*
X75610Y-68741D01*
X75674Y-68584D01*
X75675Y-68499D01*
X75712Y-68462D01*
X75712Y-68462D01*
X75777Y-68364D01*
X75799Y-68250D01*
X75800Y-68250D01*
X75800Y-63953D01*
X75833Y-63986D01*
X75925Y-64024D01*
X75950Y-64024D01*
X75950Y-65698D01*
X75889Y-65758D01*
X75825Y-65915D01*
X75824Y-66084D01*
X75889Y-66240D01*
X76008Y-66360D01*
X76165Y-66424D01*
X76334Y-66425D01*
X76490Y-66360D01*
X76610Y-66241D01*
X76674Y-66084D01*
X76675Y-65915D01*
X76610Y-65759D01*
X76550Y-65698D01*
X76550Y-64025D01*
X76574Y-64025D01*
X76666Y-63987D01*
X76736Y-63916D01*
X76774Y-63824D01*
X76775Y-63725D01*
X76775Y-63725D01*
X76804Y-63797D01*
X76950Y-63942D01*
X76950Y-67129D01*
X76828Y-67008D01*
X76615Y-66920D01*
X76385Y-66919D01*
X76171Y-67008D01*
X76008Y-67171D01*
X75920Y-67384D01*
X75919Y-67614D01*
X76008Y-67828D01*
X76171Y-67991D01*
X76191Y-67999D01*
X76171Y-68008D01*
X76008Y-68171D01*
X75920Y-68384D01*
X75919Y-68614D01*
X76008Y-68828D01*
X76171Y-68991D01*
X76384Y-69079D01*
X76614Y-69080D01*
X76828Y-68991D01*
X76950Y-68870D01*
X76950Y-68875D01*
X76287Y-69537D01*
X76222Y-69635D01*
X76200Y-69750D01*
X76200Y-70698D01*
X76139Y-70758D01*
X76095Y-70865D01*
X76095Y-70377D01*
X76085Y-70149D01*
X76017Y-69987D01*
X75937Y-69938D01*
X75867Y-70009D01*
X75867Y-69868D01*
X75818Y-69788D01*
X75603Y-69710D01*
X75375Y-69720D01*
X75213Y-69788D01*
X75164Y-69868D01*
X75516Y-70219D01*
X75867Y-69868D01*
X75867Y-70009D01*
X75586Y-70290D01*
X75937Y-70641D01*
X76017Y-70592D01*
X76095Y-70377D01*
X76095Y-70865D01*
X76075Y-70915D01*
X76074Y-71084D01*
X76139Y-71240D01*
X76258Y-71360D01*
X76415Y-71424D01*
X76584Y-71425D01*
X76740Y-71360D01*
X76860Y-71241D01*
X76924Y-71084D01*
X76925Y-70915D01*
X76860Y-70759D01*
X76800Y-70698D01*
X76800Y-69874D01*
X77462Y-69212D01*
X77462Y-69212D01*
X77527Y-69114D01*
X77549Y-69000D01*
X77550Y-69000D01*
X77550Y-66512D01*
X77640Y-66549D01*
X77858Y-66550D01*
X77950Y-66512D01*
X77950Y-69801D01*
X77866Y-69718D01*
X77618Y-69615D01*
X77350Y-69614D01*
X77102Y-69717D01*
X76912Y-69907D01*
X76809Y-70155D01*
X76808Y-70423D01*
X76911Y-70671D01*
X77101Y-70861D01*
X77184Y-70896D01*
X77184Y-74603D01*
X77102Y-74637D01*
X76912Y-74827D01*
X76809Y-75075D01*
X76808Y-75343D01*
X76911Y-75591D01*
X77101Y-75781D01*
X77349Y-75884D01*
X77617Y-75885D01*
X77865Y-75782D01*
X78055Y-75592D01*
X78158Y-75344D01*
X78159Y-75076D01*
X78056Y-74828D01*
X77866Y-74638D01*
X77784Y-74603D01*
X77784Y-70896D01*
X77865Y-70862D01*
X77950Y-70778D01*
X77950Y-71198D01*
X77889Y-71258D01*
X77825Y-71415D01*
X77824Y-71584D01*
X77889Y-71740D01*
X78008Y-71860D01*
X78165Y-71924D01*
X78334Y-71925D01*
X78490Y-71860D01*
X78610Y-71741D01*
X78674Y-71584D01*
X78675Y-71415D01*
X78610Y-71259D01*
X78550Y-71198D01*
X78550Y-68877D01*
X78665Y-68924D01*
X78834Y-68925D01*
X78950Y-68877D01*
X78950Y-74500D01*
X78950Y-74948D01*
X78889Y-75008D01*
X78825Y-75165D01*
X78824Y-75334D01*
X78889Y-75490D01*
X79008Y-75610D01*
X79165Y-75674D01*
X79334Y-75675D01*
X79490Y-75610D01*
X79610Y-75491D01*
X79674Y-75334D01*
X79675Y-75165D01*
X79610Y-75009D01*
X79550Y-74948D01*
X79550Y-74627D01*
X79665Y-74674D01*
X79834Y-74675D01*
X79990Y-74610D01*
X80110Y-74491D01*
X80174Y-74334D01*
X80175Y-74165D01*
X80110Y-74009D01*
X80050Y-73948D01*
X80050Y-71500D01*
X80050Y-67551D01*
X80110Y-67491D01*
X80174Y-67334D01*
X80175Y-67165D01*
X80110Y-67009D01*
X79991Y-66889D01*
X79834Y-66825D01*
X79665Y-66824D01*
X79550Y-66872D01*
X79550Y-63942D01*
X79694Y-63797D01*
X79750Y-63664D01*
X79804Y-63797D01*
X79950Y-63942D01*
X79950Y-64500D01*
X79950Y-64698D01*
X79889Y-64758D01*
X79825Y-64915D01*
X79824Y-65084D01*
X79889Y-65240D01*
X80008Y-65360D01*
X80165Y-65424D01*
X80334Y-65425D01*
X80490Y-65360D01*
X80610Y-65241D01*
X80674Y-65084D01*
X80675Y-64915D01*
X80610Y-64759D01*
X80550Y-64698D01*
X80550Y-64500D01*
X80550Y-63942D01*
X80694Y-63797D01*
X80750Y-63664D01*
X80804Y-63797D01*
X80950Y-63942D01*
X80950Y-66198D01*
X80889Y-66258D01*
X80825Y-66415D01*
X80824Y-66584D01*
X80889Y-66740D01*
X81008Y-66860D01*
X81165Y-66924D01*
X81334Y-66925D01*
X81490Y-66860D01*
X81610Y-66741D01*
X81674Y-66584D01*
X81675Y-66415D01*
X81610Y-66259D01*
X81550Y-66198D01*
X81550Y-63942D01*
X81694Y-63797D01*
X81750Y-63664D01*
X81804Y-63797D01*
X81952Y-63944D01*
X82145Y-64024D01*
X82353Y-64025D01*
X82547Y-63945D01*
X82694Y-63797D01*
X82774Y-63604D01*
X82775Y-63396D01*
X82775Y-64575D01*
X82665Y-64574D01*
X82509Y-64639D01*
X82389Y-64758D01*
X82325Y-64915D01*
X82324Y-65084D01*
X82389Y-65240D01*
X82434Y-65285D01*
X82434Y-69683D01*
X82352Y-69717D01*
X82330Y-69739D01*
X82330Y-68385D01*
X82241Y-68171D01*
X82235Y-68164D01*
X82235Y-67565D01*
X82223Y-67374D01*
X82173Y-67254D01*
X82102Y-67217D01*
X82032Y-67288D01*
X82032Y-67147D01*
X81995Y-67076D01*
X81815Y-67014D01*
X81624Y-67026D01*
X81504Y-67076D01*
X81467Y-67147D01*
X81750Y-67429D01*
X82032Y-67147D01*
X82032Y-67288D01*
X81820Y-67500D01*
X82102Y-67782D01*
X82173Y-67745D01*
X82235Y-67565D01*
X82235Y-68164D01*
X82078Y-68008D01*
X81934Y-67948D01*
X81995Y-67923D01*
X82032Y-67852D01*
X81750Y-67570D01*
X81679Y-67641D01*
X81679Y-67500D01*
X81397Y-67217D01*
X81326Y-67254D01*
X81264Y-67434D01*
X81276Y-67625D01*
X81326Y-67745D01*
X81397Y-67782D01*
X81679Y-67500D01*
X81679Y-67641D01*
X81467Y-67852D01*
X81504Y-67923D01*
X81571Y-67946D01*
X81421Y-68008D01*
X81258Y-68171D01*
X81170Y-68384D01*
X81169Y-68614D01*
X81258Y-68828D01*
X81421Y-68991D01*
X81634Y-69079D01*
X81864Y-69080D01*
X82078Y-68991D01*
X82241Y-68828D01*
X82329Y-68615D01*
X82330Y-68385D01*
X82330Y-69739D01*
X82162Y-69907D01*
X82059Y-70155D01*
X82058Y-70423D01*
X82161Y-70671D01*
X82351Y-70861D01*
X82434Y-70896D01*
X82434Y-74603D01*
X82352Y-74637D01*
X82162Y-74827D01*
X82059Y-75075D01*
X82058Y-75343D01*
X82161Y-75591D01*
X82351Y-75781D01*
X82599Y-75884D01*
X82867Y-75885D01*
X83115Y-75782D01*
X83305Y-75592D01*
X83408Y-75344D01*
X83409Y-75076D01*
X83409Y-75950D01*
X81345Y-75950D01*
X81345Y-75297D01*
X81345Y-70377D01*
X81335Y-70149D01*
X81267Y-69987D01*
X81187Y-69938D01*
X81117Y-70009D01*
X81117Y-69868D01*
X81068Y-69788D01*
X80853Y-69710D01*
X80705Y-69717D01*
X80705Y-66057D01*
X80692Y-65879D01*
X80648Y-65772D01*
X80581Y-65739D01*
X80510Y-65810D01*
X80510Y-65668D01*
X80477Y-65601D01*
X80307Y-65544D01*
X80129Y-65557D01*
X80022Y-65601D01*
X79989Y-65668D01*
X80250Y-65929D01*
X80510Y-65668D01*
X80510Y-65810D01*
X80320Y-66000D01*
X80581Y-66260D01*
X80648Y-66227D01*
X80705Y-66057D01*
X80705Y-69717D01*
X80625Y-69720D01*
X80510Y-69768D01*
X80510Y-66331D01*
X80250Y-66070D01*
X80179Y-66141D01*
X80179Y-66000D01*
X79918Y-65739D01*
X79851Y-65772D01*
X79794Y-65942D01*
X79807Y-66120D01*
X79851Y-66227D01*
X79918Y-66260D01*
X80179Y-66000D01*
X80179Y-66141D01*
X79989Y-66331D01*
X80022Y-66398D01*
X80192Y-66455D01*
X80370Y-66442D01*
X80477Y-66398D01*
X80510Y-66331D01*
X80510Y-69768D01*
X80463Y-69788D01*
X80414Y-69868D01*
X80766Y-70219D01*
X81117Y-69868D01*
X81117Y-70009D01*
X80836Y-70290D01*
X81187Y-70641D01*
X81267Y-70592D01*
X81345Y-70377D01*
X81345Y-75297D01*
X81335Y-75069D01*
X81267Y-74907D01*
X81187Y-74858D01*
X81117Y-74929D01*
X81117Y-74788D01*
X81117Y-70711D01*
X80766Y-70360D01*
X80695Y-70431D01*
X80695Y-70290D01*
X80344Y-69938D01*
X80264Y-69987D01*
X80186Y-70202D01*
X80196Y-70430D01*
X80264Y-70592D01*
X80344Y-70641D01*
X80695Y-70290D01*
X80695Y-70431D01*
X80414Y-70711D01*
X80463Y-70791D01*
X80678Y-70869D01*
X80906Y-70859D01*
X81068Y-70791D01*
X81117Y-70711D01*
X81117Y-74788D01*
X81068Y-74708D01*
X80853Y-74630D01*
X80625Y-74640D01*
X80463Y-74708D01*
X80414Y-74788D01*
X80766Y-75139D01*
X81117Y-74788D01*
X81117Y-74929D01*
X80836Y-75210D01*
X81187Y-75561D01*
X81267Y-75512D01*
X81345Y-75297D01*
X81345Y-75950D01*
X81117Y-75950D01*
X81117Y-75631D01*
X80766Y-75280D01*
X80695Y-75351D01*
X80695Y-75210D01*
X80344Y-74858D01*
X80264Y-74907D01*
X80186Y-75122D01*
X80196Y-75350D01*
X80264Y-75512D01*
X80344Y-75561D01*
X80695Y-75210D01*
X80695Y-75351D01*
X80414Y-75631D01*
X80463Y-75711D01*
X80678Y-75789D01*
X80906Y-75779D01*
X81068Y-75711D01*
X81117Y-75631D01*
X81117Y-75950D01*
X76095Y-75950D01*
X76095Y-75297D01*
X76085Y-75069D01*
X76017Y-74907D01*
X75937Y-74858D01*
X75867Y-74929D01*
X75867Y-74788D01*
X75867Y-70711D01*
X75516Y-70360D01*
X75445Y-70431D01*
X75445Y-70290D01*
X75094Y-69938D01*
X75014Y-69987D01*
X74936Y-70202D01*
X74946Y-70430D01*
X75014Y-70592D01*
X75094Y-70641D01*
X75445Y-70290D01*
X75445Y-70431D01*
X75164Y-70711D01*
X75213Y-70791D01*
X75428Y-70869D01*
X75656Y-70859D01*
X75818Y-70791D01*
X75867Y-70711D01*
X75867Y-74788D01*
X75818Y-74708D01*
X75603Y-74630D01*
X75375Y-74640D01*
X75213Y-74708D01*
X75164Y-74788D01*
X75516Y-75139D01*
X75867Y-74788D01*
X75867Y-74929D01*
X75586Y-75210D01*
X75937Y-75561D01*
X76017Y-75512D01*
X76095Y-75297D01*
X76095Y-75950D01*
X75867Y-75950D01*
X75867Y-75631D01*
X75516Y-75280D01*
X75445Y-75351D01*
X75445Y-75210D01*
X75094Y-74858D01*
X75014Y-74907D01*
X74936Y-75122D01*
X74946Y-75350D01*
X75014Y-75512D01*
X75094Y-75561D01*
X75445Y-75210D01*
X75445Y-75351D01*
X75164Y-75631D01*
X75213Y-75711D01*
X75428Y-75789D01*
X75656Y-75779D01*
X75818Y-75711D01*
X75867Y-75631D01*
X75867Y-75950D01*
X74300Y-75950D01*
X74300Y-65891D01*
X74216Y-65688D01*
X74061Y-65534D01*
X73859Y-65450D01*
X73775Y-65450D01*
X73775Y-62896D01*
X73695Y-62703D01*
X73547Y-62555D01*
X73414Y-62499D01*
X73547Y-62445D01*
X73694Y-62297D01*
X73774Y-62104D01*
X73775Y-61896D01*
X73695Y-61703D01*
X73547Y-61555D01*
X73414Y-61499D01*
X73547Y-61445D01*
X73694Y-61297D01*
X73774Y-61104D01*
X73775Y-60896D01*
X73695Y-60703D01*
X73547Y-60555D01*
X73354Y-60475D01*
X73146Y-60474D01*
X72953Y-60554D01*
X72805Y-60702D01*
X72725Y-60895D01*
X72724Y-61103D01*
X72804Y-61297D01*
X72952Y-61444D01*
X73085Y-61500D01*
X72953Y-61554D01*
X72805Y-61702D01*
X72725Y-61895D01*
X72724Y-62103D01*
X72804Y-62297D01*
X72952Y-62444D01*
X73085Y-62500D01*
X72953Y-62554D01*
X72805Y-62702D01*
X72725Y-62895D01*
X72724Y-63103D01*
X72804Y-63297D01*
X72952Y-63444D01*
X73024Y-63474D01*
X72925Y-63474D01*
X72833Y-63512D01*
X72763Y-63583D01*
X72725Y-63675D01*
X72724Y-63774D01*
X72724Y-64324D01*
X72762Y-64416D01*
X72833Y-64486D01*
X72925Y-64524D01*
X73024Y-64525D01*
X73574Y-64525D01*
X73666Y-64487D01*
X73736Y-64416D01*
X73774Y-64324D01*
X73775Y-64225D01*
X73775Y-63675D01*
X73737Y-63583D01*
X73666Y-63513D01*
X73574Y-63475D01*
X73475Y-63474D01*
X73475Y-63474D01*
X73547Y-63445D01*
X73694Y-63297D01*
X73774Y-63104D01*
X73775Y-62896D01*
X73775Y-65450D01*
X73641Y-65449D01*
X73438Y-65533D01*
X73284Y-65688D01*
X73200Y-65890D01*
X73199Y-66108D01*
X73283Y-66311D01*
X73438Y-66465D01*
X73640Y-66549D01*
X73858Y-66550D01*
X74061Y-66466D01*
X74215Y-66311D01*
X74299Y-66109D01*
X74300Y-65891D01*
X74300Y-75950D01*
X72909Y-75950D01*
X72909Y-75076D01*
X72806Y-74828D01*
X72616Y-74638D01*
X72534Y-74603D01*
X72534Y-72817D01*
X72610Y-72741D01*
X72674Y-72584D01*
X72675Y-72415D01*
X72610Y-72259D01*
X72534Y-72182D01*
X72534Y-70896D01*
X72615Y-70862D01*
X72805Y-70672D01*
X72908Y-70424D01*
X72909Y-70156D01*
X72806Y-69908D01*
X72616Y-69718D01*
X72368Y-69615D01*
X72275Y-69615D01*
X72275Y-65896D01*
X72195Y-65703D01*
X72047Y-65555D01*
X71854Y-65475D01*
X71646Y-65474D01*
X71453Y-65554D01*
X71305Y-65702D01*
X71225Y-65895D01*
X71224Y-66103D01*
X71304Y-66297D01*
X71452Y-66444D01*
X71645Y-66524D01*
X71853Y-66525D01*
X72047Y-66445D01*
X72194Y-66297D01*
X72274Y-66104D01*
X72275Y-65896D01*
X72275Y-69615D01*
X72100Y-69614D01*
X71852Y-69717D01*
X71830Y-69739D01*
X71830Y-68385D01*
X71741Y-68171D01*
X71735Y-68164D01*
X71735Y-67565D01*
X71723Y-67374D01*
X71673Y-67254D01*
X71602Y-67217D01*
X71532Y-67288D01*
X71532Y-67147D01*
X71495Y-67076D01*
X71315Y-67014D01*
X71180Y-67023D01*
X71180Y-66051D01*
X71167Y-65883D01*
X71127Y-65787D01*
X71063Y-65757D01*
X71050Y-65770D01*
X71050Y-58391D01*
X70966Y-58188D01*
X70811Y-58034D01*
X70609Y-57950D01*
X70391Y-57949D01*
X70188Y-58033D01*
X70034Y-58188D01*
X69950Y-58390D01*
X69949Y-58608D01*
X70033Y-58811D01*
X70188Y-58965D01*
X70390Y-59049D01*
X70608Y-59050D01*
X70811Y-58966D01*
X70965Y-58811D01*
X71049Y-58609D01*
X71050Y-58391D01*
X71050Y-65770D01*
X70992Y-65828D01*
X70992Y-65686D01*
X70962Y-65622D01*
X70801Y-65569D01*
X70775Y-65571D01*
X70775Y-63896D01*
X70775Y-61896D01*
X70695Y-61703D01*
X70680Y-61687D01*
X70680Y-61051D01*
X70667Y-60883D01*
X70627Y-60787D01*
X70563Y-60757D01*
X70492Y-60828D01*
X70492Y-60686D01*
X70462Y-60622D01*
X70301Y-60569D01*
X70133Y-60582D01*
X70037Y-60622D01*
X70007Y-60686D01*
X70250Y-60929D01*
X70492Y-60686D01*
X70492Y-60828D01*
X70320Y-61000D01*
X70563Y-61242D01*
X70627Y-61212D01*
X70680Y-61051D01*
X70680Y-61687D01*
X70547Y-61555D01*
X70492Y-61532D01*
X70492Y-61313D01*
X70250Y-61070D01*
X70179Y-61141D01*
X70179Y-61000D01*
X69936Y-60757D01*
X69872Y-60787D01*
X69819Y-60948D01*
X69832Y-61116D01*
X69872Y-61212D01*
X69936Y-61242D01*
X70179Y-61000D01*
X70179Y-61141D01*
X70007Y-61313D01*
X70037Y-61377D01*
X70198Y-61430D01*
X70366Y-61417D01*
X70462Y-61377D01*
X70492Y-61313D01*
X70492Y-61532D01*
X70354Y-61475D01*
X70146Y-61474D01*
X69953Y-61554D01*
X69805Y-61702D01*
X69725Y-61895D01*
X69724Y-62103D01*
X69804Y-62297D01*
X69952Y-62444D01*
X70145Y-62524D01*
X70353Y-62525D01*
X70547Y-62445D01*
X70694Y-62297D01*
X70774Y-62104D01*
X70775Y-61896D01*
X70775Y-63896D01*
X70695Y-63703D01*
X70680Y-63687D01*
X70680Y-63051D01*
X70667Y-62883D01*
X70627Y-62787D01*
X70563Y-62757D01*
X70492Y-62828D01*
X70492Y-62686D01*
X70462Y-62622D01*
X70301Y-62569D01*
X70133Y-62582D01*
X70037Y-62622D01*
X70007Y-62686D01*
X70250Y-62929D01*
X70492Y-62686D01*
X70492Y-62828D01*
X70320Y-63000D01*
X70563Y-63242D01*
X70627Y-63212D01*
X70680Y-63051D01*
X70680Y-63687D01*
X70547Y-63555D01*
X70492Y-63532D01*
X70492Y-63313D01*
X70250Y-63070D01*
X70179Y-63141D01*
X70179Y-63000D01*
X69936Y-62757D01*
X69872Y-62787D01*
X69819Y-62948D01*
X69832Y-63116D01*
X69872Y-63212D01*
X69936Y-63242D01*
X70179Y-63000D01*
X70179Y-63141D01*
X70007Y-63313D01*
X70037Y-63377D01*
X70198Y-63430D01*
X70366Y-63417D01*
X70462Y-63377D01*
X70492Y-63313D01*
X70492Y-63532D01*
X70354Y-63475D01*
X70146Y-63474D01*
X69953Y-63554D01*
X69805Y-63702D01*
X69725Y-63895D01*
X69724Y-64103D01*
X69804Y-64297D01*
X69952Y-64444D01*
X70145Y-64524D01*
X70353Y-64525D01*
X70547Y-64445D01*
X70694Y-64297D01*
X70774Y-64104D01*
X70775Y-63896D01*
X70775Y-65571D01*
X70633Y-65582D01*
X70537Y-65622D01*
X70507Y-65686D01*
X70750Y-65929D01*
X70992Y-65686D01*
X70992Y-65828D01*
X70820Y-66000D01*
X71063Y-66242D01*
X71127Y-66212D01*
X71180Y-66051D01*
X71180Y-67023D01*
X71124Y-67026D01*
X71004Y-67076D01*
X70992Y-67099D01*
X70992Y-66313D01*
X70750Y-66070D01*
X70679Y-66141D01*
X70679Y-66000D01*
X70436Y-65757D01*
X70372Y-65787D01*
X70319Y-65948D01*
X70332Y-66116D01*
X70372Y-66212D01*
X70436Y-66242D01*
X70679Y-66000D01*
X70679Y-66141D01*
X70507Y-66313D01*
X70537Y-66377D01*
X70698Y-66430D01*
X70866Y-66417D01*
X70962Y-66377D01*
X70992Y-66313D01*
X70992Y-67099D01*
X70967Y-67147D01*
X71250Y-67429D01*
X71532Y-67147D01*
X71532Y-67288D01*
X71320Y-67500D01*
X71602Y-67782D01*
X71673Y-67745D01*
X71735Y-67565D01*
X71735Y-68164D01*
X71578Y-68008D01*
X71434Y-67948D01*
X71495Y-67923D01*
X71532Y-67852D01*
X71250Y-67570D01*
X71179Y-67641D01*
X71179Y-67500D01*
X70897Y-67217D01*
X70826Y-67254D01*
X70764Y-67434D01*
X70776Y-67625D01*
X70826Y-67745D01*
X70897Y-67782D01*
X71179Y-67500D01*
X71179Y-67641D01*
X70967Y-67852D01*
X71004Y-67923D01*
X71071Y-67946D01*
X70921Y-68008D01*
X70758Y-68171D01*
X70670Y-68384D01*
X70669Y-68614D01*
X70758Y-68828D01*
X70921Y-68991D01*
X71134Y-69079D01*
X71364Y-69080D01*
X71578Y-68991D01*
X71741Y-68828D01*
X71829Y-68615D01*
X71830Y-68385D01*
X71830Y-69739D01*
X71662Y-69907D01*
X71559Y-70155D01*
X71558Y-70423D01*
X71661Y-70671D01*
X71851Y-70861D01*
X71934Y-70896D01*
X71934Y-72214D01*
X71889Y-72258D01*
X71825Y-72415D01*
X71824Y-72584D01*
X71889Y-72740D01*
X71934Y-72785D01*
X71934Y-74603D01*
X71852Y-74637D01*
X71662Y-74827D01*
X71559Y-75075D01*
X71558Y-75343D01*
X71661Y-75591D01*
X71851Y-75781D01*
X72099Y-75884D01*
X72367Y-75885D01*
X72615Y-75782D01*
X72805Y-75592D01*
X72908Y-75344D01*
X72909Y-75076D01*
X72909Y-75950D01*
X70845Y-75950D01*
X70845Y-75297D01*
X70845Y-70377D01*
X70835Y-70149D01*
X70767Y-69987D01*
X70687Y-69938D01*
X70617Y-70009D01*
X70617Y-69868D01*
X70568Y-69788D01*
X70353Y-69710D01*
X70125Y-69720D01*
X69963Y-69788D01*
X69914Y-69868D01*
X70266Y-70219D01*
X70617Y-69868D01*
X70617Y-70009D01*
X70336Y-70290D01*
X70687Y-70641D01*
X70767Y-70592D01*
X70845Y-70377D01*
X70845Y-75297D01*
X70835Y-75069D01*
X70767Y-74907D01*
X70687Y-74858D01*
X70617Y-74929D01*
X70617Y-74788D01*
X70617Y-70711D01*
X70266Y-70360D01*
X70195Y-70431D01*
X70195Y-70290D01*
X69844Y-69938D01*
X69764Y-69987D01*
X69686Y-70202D01*
X69696Y-70430D01*
X69764Y-70592D01*
X69844Y-70641D01*
X70195Y-70290D01*
X70195Y-70431D01*
X69914Y-70711D01*
X69963Y-70791D01*
X70178Y-70869D01*
X70406Y-70859D01*
X70568Y-70791D01*
X70617Y-70711D01*
X70617Y-74788D01*
X70568Y-74708D01*
X70353Y-74630D01*
X70125Y-74640D01*
X69963Y-74708D01*
X69914Y-74788D01*
X70266Y-75139D01*
X70617Y-74788D01*
X70617Y-74929D01*
X70336Y-75210D01*
X70687Y-75561D01*
X70767Y-75512D01*
X70845Y-75297D01*
X70845Y-75950D01*
X70617Y-75950D01*
X70617Y-75631D01*
X70266Y-75280D01*
X70195Y-75351D01*
X70195Y-75210D01*
X69844Y-74858D01*
X69764Y-74907D01*
X69686Y-75122D01*
X69696Y-75350D01*
X69764Y-75512D01*
X69844Y-75561D01*
X70195Y-75210D01*
X70195Y-75351D01*
X69914Y-75631D01*
X69963Y-75711D01*
X70178Y-75789D01*
X70406Y-75779D01*
X70568Y-75711D01*
X70617Y-75631D01*
X70617Y-75950D01*
X69525Y-75950D01*
X69525Y-57896D01*
X69445Y-57703D01*
X69297Y-57555D01*
X69104Y-57475D01*
X68896Y-57474D01*
X68703Y-57554D01*
X68555Y-57702D01*
X68475Y-57895D01*
X68474Y-58103D01*
X68554Y-58297D01*
X68702Y-58444D01*
X68895Y-58524D01*
X69103Y-58525D01*
X69297Y-58445D01*
X69444Y-58297D01*
X69524Y-58104D01*
X69525Y-57896D01*
X69525Y-75950D01*
X69430Y-75950D01*
X69430Y-59051D01*
X69417Y-58883D01*
X69377Y-58787D01*
X69313Y-58757D01*
X69242Y-58828D01*
X69242Y-58686D01*
X69212Y-58622D01*
X69051Y-58569D01*
X68883Y-58582D01*
X68787Y-58622D01*
X68757Y-58686D01*
X69000Y-58929D01*
X69242Y-58686D01*
X69242Y-58828D01*
X69070Y-59000D01*
X69313Y-59242D01*
X69377Y-59212D01*
X69430Y-59051D01*
X69430Y-75950D01*
X69300Y-75950D01*
X69300Y-64391D01*
X69300Y-60391D01*
X69242Y-60251D01*
X69242Y-59313D01*
X69000Y-59070D01*
X68929Y-59141D01*
X68929Y-59000D01*
X68686Y-58757D01*
X68622Y-58787D01*
X68569Y-58948D01*
X68582Y-59116D01*
X68622Y-59212D01*
X68686Y-59242D01*
X68929Y-59000D01*
X68929Y-59141D01*
X68757Y-59313D01*
X68787Y-59377D01*
X68948Y-59430D01*
X69116Y-59417D01*
X69212Y-59377D01*
X69242Y-59313D01*
X69242Y-60251D01*
X69216Y-60188D01*
X69061Y-60034D01*
X68859Y-59950D01*
X68641Y-59949D01*
X68438Y-60033D01*
X68284Y-60188D01*
X68200Y-60390D01*
X68199Y-60608D01*
X68283Y-60811D01*
X68438Y-60965D01*
X68640Y-61049D01*
X68858Y-61050D01*
X69061Y-60966D01*
X69215Y-60811D01*
X69299Y-60609D01*
X69300Y-60391D01*
X69300Y-64391D01*
X69216Y-64188D01*
X69061Y-64034D01*
X68859Y-63950D01*
X68641Y-63949D01*
X68438Y-64033D01*
X68284Y-64188D01*
X68200Y-64390D01*
X68199Y-64608D01*
X68283Y-64811D01*
X68438Y-64965D01*
X68640Y-65049D01*
X68858Y-65050D01*
X69061Y-64966D01*
X69215Y-64811D01*
X69299Y-64609D01*
X69300Y-64391D01*
X69300Y-75950D01*
X69180Y-75950D01*
X69180Y-66051D01*
X69167Y-65883D01*
X69127Y-65787D01*
X69063Y-65757D01*
X68992Y-65828D01*
X68992Y-65686D01*
X68962Y-65622D01*
X68801Y-65569D01*
X68633Y-65582D01*
X68537Y-65622D01*
X68507Y-65686D01*
X68750Y-65929D01*
X68992Y-65686D01*
X68992Y-65828D01*
X68820Y-66000D01*
X69063Y-66242D01*
X69127Y-66212D01*
X69180Y-66051D01*
X69180Y-75950D01*
X69175Y-75950D01*
X69175Y-68415D01*
X69110Y-68259D01*
X69050Y-68198D01*
X69050Y-67801D01*
X69110Y-67741D01*
X69174Y-67584D01*
X69175Y-67415D01*
X69110Y-67259D01*
X68992Y-67141D01*
X68992Y-66313D01*
X68750Y-66070D01*
X68679Y-66141D01*
X68679Y-66000D01*
X68436Y-65757D01*
X68372Y-65787D01*
X68319Y-65948D01*
X68332Y-66116D01*
X68372Y-66212D01*
X68436Y-66242D01*
X68679Y-66000D01*
X68679Y-66141D01*
X68507Y-66313D01*
X68537Y-66377D01*
X68698Y-66430D01*
X68866Y-66417D01*
X68962Y-66377D01*
X68992Y-66313D01*
X68992Y-67141D01*
X68991Y-67139D01*
X68834Y-67075D01*
X68665Y-67074D01*
X68509Y-67139D01*
X68389Y-67258D01*
X68325Y-67415D01*
X68324Y-67584D01*
X68389Y-67740D01*
X68450Y-67801D01*
X68450Y-68198D01*
X68389Y-68258D01*
X68325Y-68415D01*
X68324Y-68584D01*
X68389Y-68740D01*
X68508Y-68860D01*
X68665Y-68924D01*
X68834Y-68925D01*
X68990Y-68860D01*
X69110Y-68741D01*
X69174Y-68584D01*
X69175Y-68415D01*
X69175Y-75950D01*
X68275Y-75950D01*
X68275Y-65896D01*
X68195Y-65703D01*
X68047Y-65555D01*
X67854Y-65475D01*
X67646Y-65474D01*
X67453Y-65554D01*
X67305Y-65702D01*
X67300Y-65714D01*
X67300Y-64391D01*
X67216Y-64188D01*
X67205Y-64177D01*
X67205Y-60557D01*
X67192Y-60379D01*
X67148Y-60272D01*
X67081Y-60239D01*
X67010Y-60310D01*
X67010Y-60168D01*
X66977Y-60101D01*
X66807Y-60044D01*
X66629Y-60057D01*
X66522Y-60101D01*
X66489Y-60168D01*
X66750Y-60429D01*
X67010Y-60168D01*
X67010Y-60310D01*
X66820Y-60500D01*
X67081Y-60760D01*
X67148Y-60727D01*
X67205Y-60557D01*
X67205Y-64177D01*
X67061Y-64034D01*
X67010Y-64012D01*
X67010Y-60831D01*
X66750Y-60570D01*
X66679Y-60641D01*
X66679Y-60500D01*
X66418Y-60239D01*
X66351Y-60272D01*
X66294Y-60442D01*
X66307Y-60620D01*
X66351Y-60727D01*
X66418Y-60760D01*
X66679Y-60500D01*
X66679Y-60641D01*
X66489Y-60831D01*
X66522Y-60898D01*
X66692Y-60955D01*
X66870Y-60942D01*
X66977Y-60898D01*
X67010Y-60831D01*
X67010Y-64012D01*
X66859Y-63950D01*
X66641Y-63949D01*
X66438Y-64033D01*
X66284Y-64188D01*
X66275Y-64209D01*
X66275Y-59146D01*
X66195Y-58953D01*
X66047Y-58805D01*
X65854Y-58725D01*
X65646Y-58724D01*
X65453Y-58804D01*
X65305Y-58952D01*
X65249Y-59085D01*
X65195Y-58953D01*
X65047Y-58805D01*
X64854Y-58725D01*
X64646Y-58724D01*
X64453Y-58804D01*
X64305Y-58952D01*
X64225Y-59145D01*
X64224Y-59353D01*
X64304Y-59547D01*
X64452Y-59694D01*
X64645Y-59774D01*
X64853Y-59775D01*
X65047Y-59695D01*
X65194Y-59547D01*
X65250Y-59414D01*
X65304Y-59547D01*
X65452Y-59694D01*
X65645Y-59774D01*
X65853Y-59775D01*
X66047Y-59695D01*
X66194Y-59547D01*
X66274Y-59354D01*
X66275Y-59146D01*
X66275Y-64209D01*
X66200Y-64390D01*
X66199Y-64608D01*
X66283Y-64811D01*
X66438Y-64965D01*
X66640Y-65049D01*
X66858Y-65050D01*
X67061Y-64966D01*
X67215Y-64811D01*
X67299Y-64609D01*
X67300Y-64391D01*
X67300Y-65714D01*
X67225Y-65895D01*
X67224Y-66103D01*
X67304Y-66297D01*
X67452Y-66444D01*
X67645Y-66524D01*
X67853Y-66525D01*
X68047Y-66445D01*
X68194Y-66297D01*
X68274Y-66104D01*
X68275Y-65896D01*
X68275Y-75950D01*
X67659Y-75950D01*
X67659Y-75076D01*
X67556Y-74828D01*
X67366Y-74638D01*
X67284Y-74603D01*
X67284Y-70896D01*
X67365Y-70862D01*
X67555Y-70672D01*
X67658Y-70424D01*
X67659Y-70156D01*
X67556Y-69908D01*
X67366Y-69718D01*
X67118Y-69615D01*
X66850Y-69614D01*
X66602Y-69717D01*
X66580Y-69739D01*
X66580Y-68385D01*
X66491Y-68171D01*
X66328Y-68008D01*
X66308Y-68000D01*
X66328Y-67991D01*
X66491Y-67828D01*
X66579Y-67615D01*
X66580Y-67385D01*
X66491Y-67171D01*
X66328Y-67008D01*
X66115Y-66920D01*
X65885Y-66919D01*
X65671Y-67008D01*
X65508Y-67171D01*
X65420Y-67384D01*
X65419Y-67614D01*
X65508Y-67828D01*
X65671Y-67991D01*
X65691Y-67999D01*
X65671Y-68008D01*
X65508Y-68171D01*
X65420Y-68384D01*
X65419Y-68614D01*
X65508Y-68828D01*
X65671Y-68991D01*
X65884Y-69079D01*
X66114Y-69080D01*
X66328Y-68991D01*
X66491Y-68828D01*
X66579Y-68615D01*
X66580Y-68385D01*
X66580Y-69739D01*
X66412Y-69907D01*
X66309Y-70155D01*
X66308Y-70423D01*
X66411Y-70671D01*
X66601Y-70861D01*
X66684Y-70896D01*
X66684Y-74603D01*
X66602Y-74637D01*
X66412Y-74827D01*
X66309Y-75075D01*
X66308Y-75343D01*
X66411Y-75591D01*
X66601Y-75781D01*
X66849Y-75884D01*
X67117Y-75885D01*
X67365Y-75782D01*
X67555Y-75592D01*
X67658Y-75344D01*
X67659Y-75076D01*
X67659Y-75950D01*
X65595Y-75950D01*
X65595Y-75297D01*
X65595Y-70377D01*
X65585Y-70149D01*
X65517Y-69987D01*
X65437Y-69938D01*
X65367Y-70009D01*
X65367Y-69868D01*
X65318Y-69788D01*
X65103Y-69710D01*
X64875Y-69720D01*
X64713Y-69788D01*
X64675Y-69851D01*
X64675Y-67415D01*
X64610Y-67259D01*
X64491Y-67139D01*
X64334Y-67075D01*
X64165Y-67074D01*
X64009Y-67139D01*
X63889Y-67258D01*
X63825Y-67415D01*
X63824Y-67584D01*
X63889Y-67740D01*
X63950Y-67801D01*
X63950Y-68875D01*
X63625Y-69200D01*
X63300Y-69200D01*
X63300Y-68391D01*
X63250Y-68270D01*
X63250Y-65313D01*
X63250Y-61376D01*
X63131Y-61089D01*
X62911Y-60869D01*
X62624Y-60750D01*
X62313Y-60749D01*
X62026Y-60868D01*
X61806Y-61088D01*
X61687Y-61375D01*
X61686Y-61686D01*
X61805Y-61973D01*
X62025Y-62193D01*
X62312Y-62312D01*
X62623Y-62313D01*
X62910Y-62194D01*
X63130Y-61974D01*
X63249Y-61687D01*
X63250Y-61376D01*
X63250Y-65313D01*
X63131Y-65026D01*
X63033Y-64928D01*
X63033Y-63388D01*
X62947Y-63180D01*
X62788Y-63021D01*
X62581Y-62935D01*
X62356Y-62934D01*
X62148Y-63020D01*
X61989Y-63179D01*
X61903Y-63387D01*
X61903Y-63611D01*
X61989Y-63819D01*
X62148Y-63978D01*
X62355Y-64064D01*
X62580Y-64065D01*
X62788Y-63979D01*
X62947Y-63820D01*
X63033Y-63612D01*
X63033Y-63388D01*
X63033Y-64928D01*
X62911Y-64806D01*
X62624Y-64687D01*
X62313Y-64686D01*
X62026Y-64805D01*
X61806Y-65025D01*
X61687Y-65312D01*
X61686Y-65623D01*
X61805Y-65910D01*
X62025Y-66130D01*
X62312Y-66249D01*
X62623Y-66250D01*
X62910Y-66131D01*
X63130Y-65911D01*
X63249Y-65624D01*
X63250Y-65313D01*
X63250Y-68270D01*
X63216Y-68188D01*
X63061Y-68034D01*
X62859Y-67950D01*
X62641Y-67949D01*
X62438Y-68033D01*
X62284Y-68188D01*
X62200Y-68390D01*
X62199Y-68608D01*
X62283Y-68811D01*
X62438Y-68965D01*
X62640Y-69049D01*
X62858Y-69050D01*
X63061Y-68966D01*
X63215Y-68811D01*
X63299Y-68609D01*
X63300Y-68391D01*
X63300Y-69200D01*
X61221Y-69200D01*
X61216Y-69188D01*
X61185Y-69157D01*
X61185Y-63613D01*
X61176Y-63342D01*
X61090Y-63133D01*
X60998Y-63071D01*
X60928Y-63142D01*
X60928Y-63001D01*
X60866Y-62909D01*
X60613Y-62814D01*
X60342Y-62823D01*
X60133Y-62909D01*
X60071Y-63001D01*
X60500Y-63429D01*
X60928Y-63001D01*
X60928Y-63142D01*
X60570Y-63500D01*
X60998Y-63928D01*
X61090Y-63866D01*
X61185Y-63613D01*
X61185Y-69157D01*
X61061Y-69034D01*
X60859Y-68950D01*
X60641Y-68949D01*
X60438Y-69033D01*
X60284Y-69188D01*
X60200Y-69390D01*
X60199Y-69608D01*
X60283Y-69811D01*
X60438Y-69965D01*
X60519Y-69999D01*
X60438Y-70033D01*
X60284Y-70188D01*
X60200Y-70390D01*
X60199Y-70608D01*
X60283Y-70811D01*
X60438Y-70965D01*
X60640Y-71049D01*
X60734Y-71049D01*
X60629Y-71057D01*
X60522Y-71101D01*
X60489Y-71168D01*
X60750Y-71429D01*
X61010Y-71168D01*
X60977Y-71101D01*
X60823Y-71050D01*
X60858Y-71050D01*
X61061Y-70966D01*
X61215Y-70811D01*
X61299Y-70609D01*
X61300Y-70391D01*
X61216Y-70188D01*
X61061Y-70034D01*
X60980Y-70000D01*
X61061Y-69966D01*
X61215Y-69811D01*
X61220Y-69800D01*
X63750Y-69800D01*
X63750Y-69799D01*
X63864Y-69777D01*
X63864Y-69777D01*
X63962Y-69712D01*
X64462Y-69212D01*
X64462Y-69212D01*
X64527Y-69114D01*
X64549Y-69000D01*
X64550Y-69000D01*
X64550Y-67801D01*
X64610Y-67741D01*
X64674Y-67584D01*
X64675Y-67415D01*
X64675Y-69851D01*
X64664Y-69868D01*
X65016Y-70219D01*
X65367Y-69868D01*
X65367Y-70009D01*
X65086Y-70290D01*
X65437Y-70641D01*
X65517Y-70592D01*
X65595Y-70377D01*
X65595Y-75297D01*
X65585Y-75069D01*
X65517Y-74907D01*
X65437Y-74858D01*
X65367Y-74929D01*
X65367Y-74788D01*
X65367Y-70711D01*
X65016Y-70360D01*
X64945Y-70431D01*
X64945Y-70290D01*
X64594Y-69938D01*
X64514Y-69987D01*
X64436Y-70202D01*
X64446Y-70430D01*
X64514Y-70592D01*
X64594Y-70641D01*
X64945Y-70290D01*
X64945Y-70431D01*
X64664Y-70711D01*
X64713Y-70791D01*
X64928Y-70869D01*
X65156Y-70859D01*
X65318Y-70791D01*
X65367Y-70711D01*
X65367Y-74788D01*
X65318Y-74708D01*
X65103Y-74630D01*
X64875Y-74640D01*
X64713Y-74708D01*
X64664Y-74788D01*
X65016Y-75139D01*
X65367Y-74788D01*
X65367Y-74929D01*
X65086Y-75210D01*
X65437Y-75561D01*
X65517Y-75512D01*
X65595Y-75297D01*
X65595Y-75950D01*
X65367Y-75950D01*
X65367Y-75631D01*
X65016Y-75280D01*
X64945Y-75351D01*
X64945Y-75210D01*
X64594Y-74858D01*
X64514Y-74907D01*
X64436Y-75122D01*
X64446Y-75350D01*
X64514Y-75512D01*
X64594Y-75561D01*
X64945Y-75210D01*
X64945Y-75351D01*
X64664Y-75631D01*
X64713Y-75711D01*
X64928Y-75789D01*
X65156Y-75779D01*
X65318Y-75711D01*
X65367Y-75631D01*
X65367Y-75950D01*
X63205Y-75950D01*
X63205Y-72557D01*
X63192Y-72379D01*
X63148Y-72272D01*
X63081Y-72239D01*
X63010Y-72310D01*
X63010Y-72168D01*
X62977Y-72101D01*
X62807Y-72044D01*
X62629Y-72057D01*
X62522Y-72101D01*
X62489Y-72168D01*
X62750Y-72429D01*
X63010Y-72168D01*
X63010Y-72310D01*
X62820Y-72500D01*
X63081Y-72760D01*
X63148Y-72727D01*
X63205Y-72557D01*
X63205Y-75950D01*
X63010Y-75950D01*
X63010Y-72831D01*
X62750Y-72570D01*
X62679Y-72641D01*
X62679Y-72500D01*
X62418Y-72239D01*
X62351Y-72272D01*
X62294Y-72442D01*
X62307Y-72620D01*
X62351Y-72727D01*
X62418Y-72760D01*
X62679Y-72500D01*
X62679Y-72641D01*
X62489Y-72831D01*
X62522Y-72898D01*
X62692Y-72955D01*
X62870Y-72942D01*
X62977Y-72898D01*
X63010Y-72831D01*
X63010Y-75950D01*
X60950Y-75950D01*
X61094Y-75890D01*
X61389Y-75595D01*
X61549Y-75209D01*
X61550Y-74792D01*
X61390Y-74406D01*
X61205Y-74220D01*
X61205Y-71557D01*
X61192Y-71379D01*
X61148Y-71272D01*
X61081Y-71239D01*
X60820Y-71500D01*
X61081Y-71760D01*
X61148Y-71727D01*
X61205Y-71557D01*
X61205Y-74220D01*
X61095Y-74110D01*
X61010Y-74075D01*
X61010Y-71831D01*
X60750Y-71570D01*
X60679Y-71641D01*
X60679Y-71500D01*
X60418Y-71239D01*
X60351Y-71272D01*
X60294Y-71442D01*
X60307Y-71620D01*
X60351Y-71727D01*
X60418Y-71760D01*
X60679Y-71500D01*
X60679Y-71641D01*
X60489Y-71831D01*
X60522Y-71898D01*
X60692Y-71955D01*
X60870Y-71942D01*
X60977Y-71898D01*
X61010Y-71831D01*
X61010Y-74075D01*
X60709Y-73950D01*
X60292Y-73949D01*
X59906Y-74109D01*
X59610Y-74404D01*
X59550Y-74549D01*
X59550Y-65994D01*
X59619Y-65994D01*
X59813Y-65914D01*
X59961Y-65766D01*
X60007Y-65653D01*
X60054Y-65765D01*
X60201Y-65913D01*
X60394Y-65994D01*
X60604Y-65994D01*
X60797Y-65914D01*
X60945Y-65766D01*
X61025Y-65573D01*
X61025Y-65364D01*
X60945Y-65171D01*
X60928Y-65153D01*
X60928Y-63998D01*
X60500Y-63570D01*
X60429Y-63641D01*
X60429Y-63500D01*
X60001Y-63071D01*
X59909Y-63133D01*
X59814Y-63386D01*
X59823Y-63657D01*
X59909Y-63866D01*
X60001Y-63928D01*
X60429Y-63500D01*
X60429Y-63641D01*
X60071Y-63998D01*
X60133Y-64090D01*
X60386Y-64185D01*
X60657Y-64176D01*
X60866Y-64090D01*
X60928Y-63998D01*
X60928Y-65153D01*
X60798Y-65023D01*
X60605Y-64943D01*
X60395Y-64942D01*
X60202Y-65022D01*
X60054Y-65170D01*
X60007Y-65283D01*
X59961Y-65171D01*
X59813Y-65023D01*
X59620Y-64943D01*
X59550Y-64942D01*
X59550Y-62057D01*
X59619Y-62057D01*
X59813Y-61977D01*
X59961Y-61829D01*
X60007Y-61716D01*
X60054Y-61828D01*
X60201Y-61976D01*
X60394Y-62056D01*
X60604Y-62057D01*
X60797Y-61977D01*
X60945Y-61829D01*
X61025Y-61636D01*
X61025Y-61427D01*
X60945Y-61234D01*
X60798Y-61086D01*
X60605Y-61005D01*
X60395Y-61005D01*
X60202Y-61085D01*
X60054Y-61233D01*
X60007Y-61346D01*
X59961Y-61234D01*
X59813Y-61086D01*
X59620Y-61005D01*
X59550Y-61005D01*
X59550Y-58450D01*
X59609Y-58594D01*
X59904Y-58889D01*
X60290Y-59049D01*
X60707Y-59050D01*
X61094Y-58890D01*
X61389Y-58595D01*
X61549Y-58209D01*
X61550Y-57792D01*
X61390Y-57406D01*
X61095Y-57110D01*
X60950Y-57050D01*
X101661Y-57050D01*
X101630Y-57126D01*
X101629Y-57372D01*
X101724Y-57600D01*
X101898Y-57775D01*
X102126Y-57869D01*
X102372Y-57870D01*
X102600Y-57775D01*
X102775Y-57601D01*
X102869Y-57373D01*
X102870Y-57127D01*
X102838Y-57050D01*
X103661Y-57050D01*
X103630Y-57126D01*
X103629Y-57372D01*
X103724Y-57600D01*
X103898Y-57775D01*
X104126Y-57869D01*
X104372Y-57870D01*
X104600Y-57775D01*
X104775Y-57601D01*
X104869Y-57373D01*
X104870Y-57127D01*
X104838Y-57050D01*
X106549Y-57050D01*
X106406Y-57109D01*
X106110Y-57404D01*
X105950Y-57790D01*
X105949Y-58207D01*
X106109Y-58594D01*
X106404Y-58889D01*
X106790Y-59049D01*
X107207Y-59050D01*
X107594Y-58890D01*
X107889Y-58595D01*
X107950Y-58450D01*
X107950Y-74549D01*
X107950Y-74549D01*
G37*
G54D26*
X107950Y-74549D02*
X107890Y-74406D01*
X107830Y-74345D01*
X107830Y-61885D01*
X107741Y-61671D01*
X107578Y-61508D01*
X107558Y-61500D01*
X107578Y-61491D01*
X107741Y-61328D01*
X107829Y-61115D01*
X107830Y-60885D01*
X107741Y-60671D01*
X107578Y-60508D01*
X107365Y-60420D01*
X107135Y-60419D01*
X106921Y-60508D01*
X106758Y-60671D01*
X106670Y-60884D01*
X106669Y-61114D01*
X106758Y-61328D01*
X106921Y-61491D01*
X106941Y-61499D01*
X106921Y-61508D01*
X106758Y-61671D01*
X106746Y-61700D01*
X105874Y-61700D01*
X105462Y-61287D01*
X105364Y-61222D01*
X105250Y-61200D01*
X104870Y-61200D01*
X104870Y-58627D01*
X104775Y-58399D01*
X104601Y-58224D01*
X104373Y-58130D01*
X104127Y-58129D01*
X103899Y-58224D01*
X103724Y-58398D01*
X103630Y-58626D01*
X103629Y-58872D01*
X103724Y-59100D01*
X103898Y-59275D01*
X104126Y-59369D01*
X104372Y-59370D01*
X104600Y-59275D01*
X104775Y-59101D01*
X104869Y-58873D01*
X104870Y-58627D01*
X104870Y-61200D01*
X104800Y-61200D01*
X104800Y-60391D01*
X104716Y-60188D01*
X104561Y-60034D01*
X104359Y-59950D01*
X104141Y-59949D01*
X103938Y-60033D01*
X103784Y-60188D01*
X103700Y-60390D01*
X103699Y-60608D01*
X103783Y-60811D01*
X103938Y-60965D01*
X104140Y-61049D01*
X104358Y-61050D01*
X104561Y-60966D01*
X104715Y-60811D01*
X104799Y-60609D01*
X104800Y-60391D01*
X104800Y-61200D01*
X102870Y-61200D01*
X102870Y-58627D01*
X102775Y-58399D01*
X102601Y-58224D01*
X102373Y-58130D01*
X102127Y-58129D01*
X101899Y-58224D01*
X101724Y-58398D01*
X101630Y-58626D01*
X101629Y-58872D01*
X101724Y-59100D01*
X101898Y-59275D01*
X102126Y-59369D01*
X102372Y-59370D01*
X102600Y-59275D01*
X102775Y-59101D01*
X102869Y-58873D01*
X102870Y-58627D01*
X102870Y-61200D01*
X102705Y-61200D01*
X102705Y-60557D01*
X102692Y-60379D01*
X102648Y-60272D01*
X102581Y-60239D01*
X102510Y-60310D01*
X102510Y-60168D01*
X102477Y-60101D01*
X102307Y-60044D01*
X102129Y-60057D01*
X102022Y-60101D01*
X101989Y-60168D01*
X102250Y-60429D01*
X102510Y-60168D01*
X102510Y-60310D01*
X102320Y-60500D01*
X102581Y-60760D01*
X102648Y-60727D01*
X102705Y-60557D01*
X102705Y-61200D01*
X102510Y-61200D01*
X102510Y-60831D01*
X102250Y-60570D01*
X102179Y-60641D01*
X102179Y-60500D01*
X101918Y-60239D01*
X101851Y-60272D01*
X101794Y-60442D01*
X101807Y-60620D01*
X101851Y-60727D01*
X101918Y-60760D01*
X102179Y-60500D01*
X102179Y-60641D01*
X101989Y-60831D01*
X102022Y-60898D01*
X102192Y-60955D01*
X102370Y-60942D01*
X102477Y-60898D01*
X102510Y-60831D01*
X102510Y-61200D01*
X101301Y-61200D01*
X101241Y-61139D01*
X101084Y-61075D01*
X100915Y-61074D01*
X100759Y-61139D01*
X100639Y-61258D01*
X100575Y-61415D01*
X100574Y-61584D01*
X100639Y-61740D01*
X100758Y-61860D01*
X100915Y-61924D01*
X101084Y-61925D01*
X101240Y-61860D01*
X101301Y-61800D01*
X105125Y-61800D01*
X105537Y-62212D01*
X105537Y-62212D01*
X105635Y-62277D01*
X105750Y-62300D01*
X106746Y-62300D01*
X106758Y-62328D01*
X106921Y-62491D01*
X106950Y-62503D01*
X106950Y-63028D01*
X106938Y-63033D01*
X106784Y-63188D01*
X106700Y-63390D01*
X106699Y-63608D01*
X106783Y-63811D01*
X106938Y-63965D01*
X107140Y-64049D01*
X107358Y-64050D01*
X107561Y-63966D01*
X107715Y-63811D01*
X107799Y-63609D01*
X107800Y-63391D01*
X107716Y-63188D01*
X107561Y-63034D01*
X107550Y-63029D01*
X107550Y-62503D01*
X107578Y-62491D01*
X107741Y-62328D01*
X107829Y-62115D01*
X107830Y-61885D01*
X107830Y-74345D01*
X107705Y-74220D01*
X107705Y-67557D01*
X107692Y-67379D01*
X107648Y-67272D01*
X107581Y-67239D01*
X107510Y-67310D01*
X107510Y-67168D01*
X107477Y-67101D01*
X107307Y-67044D01*
X107129Y-67057D01*
X107022Y-67101D01*
X106989Y-67168D01*
X107250Y-67429D01*
X107510Y-67168D01*
X107510Y-67310D01*
X107320Y-67500D01*
X107581Y-67760D01*
X107648Y-67727D01*
X107705Y-67557D01*
X107705Y-74220D01*
X107595Y-74110D01*
X107510Y-74075D01*
X107510Y-67831D01*
X107250Y-67570D01*
X107179Y-67641D01*
X107179Y-67500D01*
X106918Y-67239D01*
X106851Y-67272D01*
X106794Y-67442D01*
X106807Y-67620D01*
X106851Y-67727D01*
X106918Y-67760D01*
X107179Y-67500D01*
X107179Y-67641D01*
X106989Y-67831D01*
X107022Y-67898D01*
X107192Y-67955D01*
X107370Y-67942D01*
X107477Y-67898D01*
X107510Y-67831D01*
X107510Y-74075D01*
X107209Y-73950D01*
X106792Y-73949D01*
X106406Y-74109D01*
X106110Y-74404D01*
X105950Y-74790D01*
X105949Y-75207D01*
X106109Y-75594D01*
X106404Y-75889D01*
X106549Y-75950D01*
X105885Y-75950D01*
X105885Y-64850D01*
X105789Y-64619D01*
X105789Y-63103D01*
X105779Y-62875D01*
X105711Y-62713D01*
X105631Y-62664D01*
X105561Y-62735D01*
X105561Y-62594D01*
X105512Y-62514D01*
X105297Y-62436D01*
X105069Y-62446D01*
X104907Y-62514D01*
X104858Y-62594D01*
X105210Y-62945D01*
X105561Y-62594D01*
X105561Y-62735D01*
X105280Y-63016D01*
X105631Y-63367D01*
X105711Y-63318D01*
X105789Y-63103D01*
X105789Y-64619D01*
X105782Y-64602D01*
X105592Y-64412D01*
X105561Y-64398D01*
X105561Y-63437D01*
X105210Y-63086D01*
X105139Y-63157D01*
X105139Y-63016D01*
X104788Y-62664D01*
X104708Y-62713D01*
X104630Y-62928D01*
X104640Y-63156D01*
X104708Y-63318D01*
X104788Y-63367D01*
X105139Y-63016D01*
X105139Y-63157D01*
X104858Y-63437D01*
X104907Y-63517D01*
X105122Y-63595D01*
X105350Y-63585D01*
X105512Y-63517D01*
X105561Y-63437D01*
X105561Y-64398D01*
X105344Y-64309D01*
X105076Y-64308D01*
X104828Y-64411D01*
X104638Y-64601D01*
X104535Y-64849D01*
X104534Y-65117D01*
X104637Y-65365D01*
X104827Y-65555D01*
X105075Y-65658D01*
X105343Y-65659D01*
X105591Y-65556D01*
X105781Y-65366D01*
X105884Y-65118D01*
X105885Y-64850D01*
X105885Y-75950D01*
X104409Y-75950D01*
X104409Y-75076D01*
X104306Y-74828D01*
X104116Y-74638D01*
X104034Y-74603D01*
X104034Y-72067D01*
X104110Y-71991D01*
X104174Y-71834D01*
X104175Y-71665D01*
X104110Y-71509D01*
X104034Y-71432D01*
X104034Y-70896D01*
X104115Y-70862D01*
X104305Y-70672D01*
X104408Y-70424D01*
X104409Y-70156D01*
X104306Y-69908D01*
X104116Y-69718D01*
X103868Y-69615D01*
X103600Y-69614D01*
X103352Y-69717D01*
X103330Y-69739D01*
X103330Y-68385D01*
X103241Y-68171D01*
X103235Y-68164D01*
X103235Y-67565D01*
X103223Y-67374D01*
X103173Y-67254D01*
X103102Y-67217D01*
X103032Y-67288D01*
X103032Y-67147D01*
X102995Y-67076D01*
X102815Y-67014D01*
X102624Y-67026D01*
X102504Y-67076D01*
X102467Y-67147D01*
X102750Y-67429D01*
X103032Y-67147D01*
X103032Y-67288D01*
X102820Y-67500D01*
X103102Y-67782D01*
X103173Y-67745D01*
X103235Y-67565D01*
X103235Y-68164D01*
X103078Y-68008D01*
X102934Y-67948D01*
X102995Y-67923D01*
X103032Y-67852D01*
X102750Y-67570D01*
X102679Y-67641D01*
X102679Y-67500D01*
X102397Y-67217D01*
X102326Y-67254D01*
X102264Y-67434D01*
X102276Y-67625D01*
X102326Y-67745D01*
X102397Y-67782D01*
X102679Y-67500D01*
X102679Y-67641D01*
X102467Y-67852D01*
X102504Y-67923D01*
X102571Y-67946D01*
X102421Y-68008D01*
X102258Y-68171D01*
X102170Y-68384D01*
X102169Y-68614D01*
X102258Y-68828D01*
X102421Y-68991D01*
X102634Y-69079D01*
X102864Y-69080D01*
X103078Y-68991D01*
X103241Y-68828D01*
X103329Y-68615D01*
X103330Y-68385D01*
X103330Y-69739D01*
X103162Y-69907D01*
X103059Y-70155D01*
X103058Y-70423D01*
X103161Y-70671D01*
X103351Y-70861D01*
X103434Y-70896D01*
X103434Y-71464D01*
X103389Y-71508D01*
X103325Y-71665D01*
X103324Y-71834D01*
X103389Y-71990D01*
X103434Y-72035D01*
X103434Y-74603D01*
X103352Y-74637D01*
X103162Y-74827D01*
X103059Y-75075D01*
X103058Y-75343D01*
X103161Y-75591D01*
X103351Y-75781D01*
X103599Y-75884D01*
X103867Y-75885D01*
X104115Y-75782D01*
X104305Y-75592D01*
X104408Y-75344D01*
X104409Y-75076D01*
X104409Y-75950D01*
X102345Y-75950D01*
X102345Y-75297D01*
X102345Y-70377D01*
X102335Y-70149D01*
X102267Y-69987D01*
X102187Y-69938D01*
X102117Y-70009D01*
X102117Y-69868D01*
X102068Y-69788D01*
X101853Y-69710D01*
X101625Y-69720D01*
X101463Y-69788D01*
X101414Y-69868D01*
X101766Y-70219D01*
X102117Y-69868D01*
X102117Y-70009D01*
X101836Y-70290D01*
X102187Y-70641D01*
X102267Y-70592D01*
X102345Y-70377D01*
X102345Y-75297D01*
X102335Y-75069D01*
X102267Y-74907D01*
X102187Y-74858D01*
X102117Y-74929D01*
X102117Y-74788D01*
X102117Y-70711D01*
X101766Y-70360D01*
X101695Y-70431D01*
X101695Y-70290D01*
X101344Y-69938D01*
X101264Y-69987D01*
X101186Y-70202D01*
X101196Y-70430D01*
X101264Y-70592D01*
X101344Y-70641D01*
X101695Y-70290D01*
X101695Y-70431D01*
X101414Y-70711D01*
X101463Y-70791D01*
X101678Y-70869D01*
X101906Y-70859D01*
X102068Y-70791D01*
X102117Y-70711D01*
X102117Y-74788D01*
X102068Y-74708D01*
X101853Y-74630D01*
X101625Y-74640D01*
X101463Y-74708D01*
X101414Y-74788D01*
X101766Y-75139D01*
X102117Y-74788D01*
X102117Y-74929D01*
X101836Y-75210D01*
X102187Y-75561D01*
X102267Y-75512D01*
X102345Y-75297D01*
X102345Y-75950D01*
X102117Y-75950D01*
X102117Y-75631D01*
X101766Y-75280D01*
X101695Y-75351D01*
X101695Y-75210D01*
X101344Y-74858D01*
X101264Y-74907D01*
X101186Y-75122D01*
X101196Y-75350D01*
X101264Y-75512D01*
X101344Y-75561D01*
X101695Y-75210D01*
X101695Y-75351D01*
X101414Y-75631D01*
X101463Y-75711D01*
X101678Y-75789D01*
X101906Y-75779D01*
X102068Y-75711D01*
X102117Y-75631D01*
X102117Y-75950D01*
X100965Y-75950D01*
X100965Y-64850D01*
X100869Y-64619D01*
X100869Y-63103D01*
X100859Y-62875D01*
X100791Y-62713D01*
X100711Y-62664D01*
X100641Y-62735D01*
X100641Y-62594D01*
X100592Y-62514D01*
X100377Y-62436D01*
X100149Y-62446D01*
X100075Y-62477D01*
X100075Y-59525D01*
X100075Y-58875D01*
X100037Y-58783D01*
X99966Y-58713D01*
X99874Y-58675D01*
X99775Y-58674D01*
X99125Y-58674D01*
X99033Y-58712D01*
X98963Y-58783D01*
X98925Y-58875D01*
X98924Y-58974D01*
X98924Y-59624D01*
X98962Y-59716D01*
X99033Y-59786D01*
X99125Y-59824D01*
X99224Y-59825D01*
X99271Y-59825D01*
X99257Y-59830D01*
X99221Y-59900D01*
X99500Y-60179D01*
X99778Y-59900D01*
X99742Y-59830D01*
X99725Y-59825D01*
X99874Y-59825D01*
X99966Y-59787D01*
X100036Y-59716D01*
X100074Y-59624D01*
X100075Y-59525D01*
X100075Y-62477D01*
X99987Y-62514D01*
X99980Y-62525D01*
X99980Y-60313D01*
X99967Y-60125D01*
X99919Y-60007D01*
X99849Y-59971D01*
X99570Y-60250D01*
X99849Y-60528D01*
X99919Y-60492D01*
X99980Y-60313D01*
X99980Y-62525D01*
X99938Y-62594D01*
X100290Y-62945D01*
X100641Y-62594D01*
X100641Y-62735D01*
X100360Y-63016D01*
X100711Y-63367D01*
X100791Y-63318D01*
X100869Y-63103D01*
X100869Y-64619D01*
X100862Y-64602D01*
X100672Y-64412D01*
X100641Y-64398D01*
X100641Y-63437D01*
X100290Y-63086D01*
X99938Y-63437D01*
X99987Y-63517D01*
X100202Y-63595D01*
X100430Y-63585D01*
X100592Y-63517D01*
X100641Y-63437D01*
X100641Y-64398D01*
X100424Y-64309D01*
X100156Y-64308D01*
X99908Y-64411D01*
X99800Y-64519D01*
X99800Y-63326D01*
X99868Y-63367D01*
X100219Y-63016D01*
X99868Y-62664D01*
X99800Y-62705D01*
X99800Y-62301D01*
X99860Y-62241D01*
X99924Y-62084D01*
X99925Y-61915D01*
X99860Y-61759D01*
X99778Y-61677D01*
X99778Y-60599D01*
X99500Y-60320D01*
X99429Y-60391D01*
X99429Y-60250D01*
X99150Y-59971D01*
X99080Y-60007D01*
X99019Y-60186D01*
X99032Y-60374D01*
X99080Y-60492D01*
X99150Y-60528D01*
X99429Y-60250D01*
X99429Y-60391D01*
X99221Y-60599D01*
X99257Y-60669D01*
X99436Y-60730D01*
X99624Y-60717D01*
X99742Y-60669D01*
X99778Y-60599D01*
X99778Y-61677D01*
X99741Y-61639D01*
X99584Y-61575D01*
X99415Y-61574D01*
X99259Y-61639D01*
X99139Y-61758D01*
X99075Y-61915D01*
X99074Y-62084D01*
X99139Y-62240D01*
X99200Y-62301D01*
X99200Y-64698D01*
X99139Y-64758D01*
X99075Y-64915D01*
X99074Y-65084D01*
X99139Y-65240D01*
X99258Y-65360D01*
X99415Y-65424D01*
X99584Y-65425D01*
X99720Y-65368D01*
X99907Y-65555D01*
X100155Y-65658D01*
X100423Y-65659D01*
X100671Y-65556D01*
X100861Y-65366D01*
X100964Y-65118D01*
X100965Y-64850D01*
X100965Y-75950D01*
X100675Y-75950D01*
X100675Y-71165D01*
X100610Y-71009D01*
X100550Y-70948D01*
X100550Y-68801D01*
X100610Y-68741D01*
X100674Y-68584D01*
X100675Y-68415D01*
X100610Y-68259D01*
X100550Y-68198D01*
X100550Y-67801D01*
X100610Y-67741D01*
X100674Y-67584D01*
X100675Y-67415D01*
X100610Y-67259D01*
X100491Y-67139D01*
X100334Y-67075D01*
X100165Y-67074D01*
X100009Y-67139D01*
X99889Y-67258D01*
X99825Y-67415D01*
X99824Y-67584D01*
X99889Y-67740D01*
X99950Y-67801D01*
X99950Y-68198D01*
X99889Y-68258D01*
X99825Y-68415D01*
X99824Y-68584D01*
X99889Y-68740D01*
X99950Y-68801D01*
X99950Y-70948D01*
X99889Y-71008D01*
X99825Y-71165D01*
X99824Y-71334D01*
X99889Y-71490D01*
X100008Y-71610D01*
X100165Y-71674D01*
X100334Y-71675D01*
X100490Y-71610D01*
X100610Y-71491D01*
X100674Y-71334D01*
X100675Y-71165D01*
X100675Y-75950D01*
X99159Y-75950D01*
X99159Y-75076D01*
X99056Y-74828D01*
X98866Y-74638D01*
X98784Y-74603D01*
X98784Y-73067D01*
X98860Y-72991D01*
X98924Y-72834D01*
X98925Y-72665D01*
X98860Y-72509D01*
X98784Y-72432D01*
X98784Y-70896D01*
X98865Y-70862D01*
X99055Y-70672D01*
X99158Y-70424D01*
X99159Y-70156D01*
X99056Y-69908D01*
X98885Y-69736D01*
X98885Y-64850D01*
X98789Y-64619D01*
X98789Y-63103D01*
X98779Y-62875D01*
X98711Y-62713D01*
X98631Y-62664D01*
X98561Y-62735D01*
X98561Y-62594D01*
X98512Y-62514D01*
X98297Y-62436D01*
X98069Y-62446D01*
X97907Y-62514D01*
X97858Y-62594D01*
X98210Y-62945D01*
X98561Y-62594D01*
X98561Y-62735D01*
X98280Y-63016D01*
X98631Y-63367D01*
X98711Y-63318D01*
X98789Y-63103D01*
X98789Y-64619D01*
X98782Y-64602D01*
X98592Y-64412D01*
X98561Y-64398D01*
X98561Y-63437D01*
X98210Y-63086D01*
X98139Y-63157D01*
X98139Y-63016D01*
X97788Y-62664D01*
X97708Y-62713D01*
X97630Y-62928D01*
X97640Y-63156D01*
X97708Y-63318D01*
X97788Y-63367D01*
X98139Y-63016D01*
X98139Y-63157D01*
X97858Y-63437D01*
X97907Y-63517D01*
X98122Y-63595D01*
X98350Y-63585D01*
X98512Y-63517D01*
X98561Y-63437D01*
X98561Y-64398D01*
X98344Y-64309D01*
X98076Y-64308D01*
X97828Y-64411D01*
X97638Y-64601D01*
X97535Y-64849D01*
X97534Y-65117D01*
X97637Y-65365D01*
X97827Y-65555D01*
X98075Y-65658D01*
X98343Y-65659D01*
X98591Y-65556D01*
X98781Y-65366D01*
X98884Y-65118D01*
X98885Y-64850D01*
X98885Y-69736D01*
X98866Y-69718D01*
X98618Y-69615D01*
X98350Y-69614D01*
X98102Y-69717D01*
X98080Y-69739D01*
X98080Y-68385D01*
X97991Y-68171D01*
X97828Y-68008D01*
X97808Y-68000D01*
X97828Y-67991D01*
X97991Y-67828D01*
X98079Y-67615D01*
X98080Y-67385D01*
X97991Y-67171D01*
X97828Y-67008D01*
X97615Y-66920D01*
X97385Y-66919D01*
X97171Y-67008D01*
X97008Y-67171D01*
X96920Y-67384D01*
X96919Y-67614D01*
X97008Y-67828D01*
X97171Y-67991D01*
X97191Y-67999D01*
X97171Y-68008D01*
X97008Y-68171D01*
X96920Y-68384D01*
X96919Y-68614D01*
X97008Y-68828D01*
X97171Y-68991D01*
X97384Y-69079D01*
X97614Y-69080D01*
X97828Y-68991D01*
X97991Y-68828D01*
X98079Y-68615D01*
X98080Y-68385D01*
X98080Y-69739D01*
X97912Y-69907D01*
X97809Y-70155D01*
X97808Y-70423D01*
X97911Y-70671D01*
X98101Y-70861D01*
X98184Y-70896D01*
X98184Y-72464D01*
X98139Y-72508D01*
X98075Y-72665D01*
X98074Y-72834D01*
X98139Y-72990D01*
X98184Y-73035D01*
X98184Y-74603D01*
X98102Y-74637D01*
X97912Y-74827D01*
X97809Y-75075D01*
X97808Y-75343D01*
X97911Y-75591D01*
X98101Y-75781D01*
X98349Y-75884D01*
X98617Y-75885D01*
X98865Y-75782D01*
X99055Y-75592D01*
X99158Y-75344D01*
X99159Y-75076D01*
X99159Y-75950D01*
X97095Y-75950D01*
X97095Y-75297D01*
X97095Y-70377D01*
X97085Y-70149D01*
X97017Y-69987D01*
X96937Y-69938D01*
X96867Y-70009D01*
X96867Y-69868D01*
X96830Y-69806D01*
X96830Y-59385D01*
X96741Y-59171D01*
X96578Y-59008D01*
X96558Y-59000D01*
X96578Y-58991D01*
X96741Y-58828D01*
X96829Y-58615D01*
X96830Y-58385D01*
X96741Y-58171D01*
X96578Y-58008D01*
X96365Y-57920D01*
X96135Y-57919D01*
X95921Y-58008D01*
X95758Y-58171D01*
X95746Y-58200D01*
X95500Y-58200D01*
X95385Y-58222D01*
X95287Y-58287D01*
X95037Y-58537D01*
X94972Y-58635D01*
X94950Y-58750D01*
X94950Y-60250D01*
X94950Y-60500D01*
X94972Y-60614D01*
X95037Y-60712D01*
X95287Y-60962D01*
X95287Y-60962D01*
X95385Y-61027D01*
X95500Y-61050D01*
X95750Y-61050D01*
X95778Y-61050D01*
X95783Y-61061D01*
X95938Y-61215D01*
X96140Y-61299D01*
X96358Y-61300D01*
X96561Y-61216D01*
X96715Y-61061D01*
X96799Y-60859D01*
X96800Y-60641D01*
X96716Y-60438D01*
X96561Y-60284D01*
X96359Y-60200D01*
X96141Y-60199D01*
X95938Y-60283D01*
X95784Y-60438D01*
X95779Y-60450D01*
X95750Y-60450D01*
X95624Y-60450D01*
X95550Y-60375D01*
X95550Y-60250D01*
X95550Y-58874D01*
X95624Y-58800D01*
X95746Y-58800D01*
X95758Y-58828D01*
X95921Y-58991D01*
X95941Y-58999D01*
X95921Y-59008D01*
X95758Y-59171D01*
X95670Y-59384D01*
X95669Y-59614D01*
X95758Y-59828D01*
X95921Y-59991D01*
X96134Y-60079D01*
X96364Y-60080D01*
X96578Y-59991D01*
X96741Y-59828D01*
X96829Y-59615D01*
X96830Y-59385D01*
X96830Y-69806D01*
X96818Y-69788D01*
X96603Y-69710D01*
X96375Y-69720D01*
X96213Y-69788D01*
X96164Y-69868D01*
X96516Y-70219D01*
X96867Y-69868D01*
X96867Y-70009D01*
X96586Y-70290D01*
X96937Y-70641D01*
X97017Y-70592D01*
X97095Y-70377D01*
X97095Y-75297D01*
X97085Y-75069D01*
X97017Y-74907D01*
X96937Y-74858D01*
X96867Y-74929D01*
X96867Y-74788D01*
X96867Y-70711D01*
X96516Y-70360D01*
X96445Y-70431D01*
X96445Y-70290D01*
X96094Y-69938D01*
X96014Y-69987D01*
X95936Y-70202D01*
X95946Y-70430D01*
X96014Y-70592D01*
X96094Y-70641D01*
X96445Y-70290D01*
X96445Y-70431D01*
X96164Y-70711D01*
X96213Y-70791D01*
X96428Y-70869D01*
X96656Y-70859D01*
X96818Y-70791D01*
X96867Y-70711D01*
X96867Y-74788D01*
X96818Y-74708D01*
X96603Y-74630D01*
X96375Y-74640D01*
X96213Y-74708D01*
X96164Y-74788D01*
X96516Y-75139D01*
X96867Y-74788D01*
X96867Y-74929D01*
X96586Y-75210D01*
X96937Y-75561D01*
X97017Y-75512D01*
X97095Y-75297D01*
X97095Y-75950D01*
X96867Y-75950D01*
X96867Y-75631D01*
X96516Y-75280D01*
X96445Y-75351D01*
X96445Y-75210D01*
X96094Y-74858D01*
X96014Y-74907D01*
X95936Y-75122D01*
X95946Y-75350D01*
X96014Y-75512D01*
X96094Y-75561D01*
X96445Y-75210D01*
X96445Y-75351D01*
X96164Y-75631D01*
X96213Y-75711D01*
X96428Y-75789D01*
X96656Y-75779D01*
X96818Y-75711D01*
X96867Y-75631D01*
X96867Y-75950D01*
X93965Y-75950D01*
X93965Y-64850D01*
X93869Y-64619D01*
X93869Y-63103D01*
X93859Y-62875D01*
X93791Y-62713D01*
X93711Y-62664D01*
X93641Y-62735D01*
X93641Y-62594D01*
X93592Y-62514D01*
X93377Y-62436D01*
X93149Y-62446D01*
X92987Y-62514D01*
X92938Y-62594D01*
X93290Y-62945D01*
X93641Y-62594D01*
X93641Y-62735D01*
X93360Y-63016D01*
X93711Y-63367D01*
X93791Y-63318D01*
X93869Y-63103D01*
X93869Y-64619D01*
X93862Y-64602D01*
X93672Y-64412D01*
X93641Y-64398D01*
X93641Y-63437D01*
X93290Y-63086D01*
X93219Y-63157D01*
X93219Y-63016D01*
X92868Y-62664D01*
X92788Y-62713D01*
X92710Y-62928D01*
X92720Y-63156D01*
X92788Y-63318D01*
X92868Y-63367D01*
X93219Y-63016D01*
X93219Y-63157D01*
X92938Y-63437D01*
X92987Y-63517D01*
X93202Y-63595D01*
X93430Y-63585D01*
X93592Y-63517D01*
X93641Y-63437D01*
X93641Y-64398D01*
X93424Y-64309D01*
X93156Y-64308D01*
X92908Y-64411D01*
X92718Y-64601D01*
X92705Y-64632D01*
X92705Y-60807D01*
X92692Y-60629D01*
X92648Y-60522D01*
X92581Y-60489D01*
X92510Y-60560D01*
X92510Y-60418D01*
X92477Y-60351D01*
X92307Y-60294D01*
X92129Y-60307D01*
X92022Y-60351D01*
X91989Y-60418D01*
X92250Y-60679D01*
X92510Y-60418D01*
X92510Y-60560D01*
X92320Y-60750D01*
X92581Y-61010D01*
X92648Y-60977D01*
X92705Y-60807D01*
X92705Y-64632D01*
X92615Y-64849D01*
X92614Y-65117D01*
X92717Y-65365D01*
X92907Y-65555D01*
X93155Y-65658D01*
X93423Y-65659D01*
X93671Y-65556D01*
X93861Y-65366D01*
X93964Y-65118D01*
X93965Y-64850D01*
X93965Y-75950D01*
X93909Y-75950D01*
X93909Y-75076D01*
X93806Y-74828D01*
X93616Y-74638D01*
X93534Y-74603D01*
X93534Y-74067D01*
X93610Y-73991D01*
X93674Y-73834D01*
X93675Y-73665D01*
X93610Y-73509D01*
X93534Y-73432D01*
X93534Y-70896D01*
X93615Y-70862D01*
X93805Y-70672D01*
X93908Y-70424D01*
X93909Y-70156D01*
X93806Y-69908D01*
X93616Y-69718D01*
X93368Y-69615D01*
X93100Y-69614D01*
X92852Y-69717D01*
X92830Y-69739D01*
X92830Y-68385D01*
X92741Y-68171D01*
X92735Y-68164D01*
X92735Y-67565D01*
X92723Y-67374D01*
X92673Y-67254D01*
X92602Y-67217D01*
X92532Y-67288D01*
X92532Y-67147D01*
X92510Y-67105D01*
X92510Y-61081D01*
X92250Y-60820D01*
X92179Y-60891D01*
X92179Y-60750D01*
X91918Y-60489D01*
X91851Y-60522D01*
X91794Y-60692D01*
X91807Y-60870D01*
X91851Y-60977D01*
X91918Y-61010D01*
X92179Y-60750D01*
X92179Y-60891D01*
X91989Y-61081D01*
X92022Y-61148D01*
X92192Y-61205D01*
X92370Y-61192D01*
X92477Y-61148D01*
X92510Y-61081D01*
X92510Y-67105D01*
X92495Y-67076D01*
X92315Y-67014D01*
X92124Y-67026D01*
X92004Y-67076D01*
X91967Y-67147D01*
X92250Y-67429D01*
X92532Y-67147D01*
X92532Y-67288D01*
X92320Y-67500D01*
X92602Y-67782D01*
X92673Y-67745D01*
X92735Y-67565D01*
X92735Y-68164D01*
X92578Y-68008D01*
X92434Y-67948D01*
X92495Y-67923D01*
X92532Y-67852D01*
X92250Y-67570D01*
X92179Y-67641D01*
X92179Y-67500D01*
X91897Y-67217D01*
X91826Y-67254D01*
X91764Y-67434D01*
X91776Y-67625D01*
X91826Y-67745D01*
X91897Y-67782D01*
X92179Y-67500D01*
X92179Y-67641D01*
X91967Y-67852D01*
X92004Y-67923D01*
X92071Y-67946D01*
X91921Y-68008D01*
X91758Y-68171D01*
X91670Y-68384D01*
X91669Y-68614D01*
X91758Y-68828D01*
X91921Y-68991D01*
X92134Y-69079D01*
X92364Y-69080D01*
X92578Y-68991D01*
X92741Y-68828D01*
X92829Y-68615D01*
X92830Y-68385D01*
X92830Y-69739D01*
X92662Y-69907D01*
X92559Y-70155D01*
X92558Y-70423D01*
X92661Y-70671D01*
X92851Y-70861D01*
X92934Y-70896D01*
X92934Y-73464D01*
X92889Y-73508D01*
X92825Y-73665D01*
X92824Y-73834D01*
X92889Y-73990D01*
X92934Y-74035D01*
X92934Y-74603D01*
X92852Y-74637D01*
X92675Y-74814D01*
X92675Y-71665D01*
X92610Y-71509D01*
X92550Y-71448D01*
X92550Y-69750D01*
X92527Y-69635D01*
X92462Y-69537D01*
X92462Y-69537D01*
X91962Y-69037D01*
X91962Y-69037D01*
X91962Y-69037D01*
X91300Y-68375D01*
X91300Y-67374D01*
X91712Y-66962D01*
X91712Y-66962D01*
X91777Y-66864D01*
X91799Y-66750D01*
X91800Y-66750D01*
X91800Y-66500D01*
X91800Y-62801D01*
X91860Y-62741D01*
X91924Y-62584D01*
X91925Y-62415D01*
X91860Y-62259D01*
X91741Y-62139D01*
X91584Y-62075D01*
X91415Y-62074D01*
X91259Y-62139D01*
X91139Y-62258D01*
X91075Y-62415D01*
X91074Y-62584D01*
X91139Y-62740D01*
X91200Y-62801D01*
X91200Y-65672D01*
X91061Y-65534D01*
X90859Y-65450D01*
X90641Y-65449D01*
X90438Y-65533D01*
X90284Y-65688D01*
X90200Y-65890D01*
X90199Y-66108D01*
X90283Y-66311D01*
X90438Y-66465D01*
X90640Y-66549D01*
X90858Y-66550D01*
X91061Y-66466D01*
X91200Y-66327D01*
X91200Y-66500D01*
X91200Y-66625D01*
X90787Y-67037D01*
X90722Y-67135D01*
X90700Y-67250D01*
X90700Y-68500D01*
X90722Y-68614D01*
X90787Y-68712D01*
X91537Y-69462D01*
X91537Y-69462D01*
X91537Y-69462D01*
X91950Y-69874D01*
X91950Y-71448D01*
X91889Y-71508D01*
X91845Y-71615D01*
X91845Y-70377D01*
X91835Y-70149D01*
X91767Y-69987D01*
X91687Y-69938D01*
X91617Y-70009D01*
X91617Y-69868D01*
X91568Y-69788D01*
X91353Y-69710D01*
X91125Y-69720D01*
X90963Y-69788D01*
X90914Y-69868D01*
X91266Y-70219D01*
X91617Y-69868D01*
X91617Y-70009D01*
X91336Y-70290D01*
X91687Y-70641D01*
X91767Y-70592D01*
X91845Y-70377D01*
X91845Y-71615D01*
X91825Y-71665D01*
X91824Y-71834D01*
X91889Y-71990D01*
X92008Y-72110D01*
X92165Y-72174D01*
X92334Y-72175D01*
X92490Y-72110D01*
X92610Y-71991D01*
X92674Y-71834D01*
X92675Y-71665D01*
X92675Y-74814D01*
X92662Y-74827D01*
X92559Y-75075D01*
X92558Y-75343D01*
X92661Y-75591D01*
X92851Y-75781D01*
X93099Y-75884D01*
X93367Y-75885D01*
X93615Y-75782D01*
X93805Y-75592D01*
X93908Y-75344D01*
X93909Y-75076D01*
X93909Y-75950D01*
X91845Y-75950D01*
X91845Y-75297D01*
X91835Y-75069D01*
X91767Y-74907D01*
X91687Y-74858D01*
X91617Y-74929D01*
X91617Y-74788D01*
X91617Y-70711D01*
X91266Y-70360D01*
X91195Y-70431D01*
X91195Y-70290D01*
X90844Y-69938D01*
X90764Y-69987D01*
X90686Y-70202D01*
X90696Y-70430D01*
X90764Y-70592D01*
X90844Y-70641D01*
X91195Y-70290D01*
X91195Y-70431D01*
X90914Y-70711D01*
X90963Y-70791D01*
X91178Y-70869D01*
X91406Y-70859D01*
X91568Y-70791D01*
X91617Y-70711D01*
X91617Y-74788D01*
X91568Y-74708D01*
X91353Y-74630D01*
X91125Y-74640D01*
X90963Y-74708D01*
X90914Y-74788D01*
X91266Y-75139D01*
X91617Y-74788D01*
X91617Y-74929D01*
X91336Y-75210D01*
X91687Y-75561D01*
X91767Y-75512D01*
X91845Y-75297D01*
X91845Y-75950D01*
X91617Y-75950D01*
X91617Y-75631D01*
X91266Y-75280D01*
X91195Y-75351D01*
X91195Y-75210D01*
X90844Y-74858D01*
X90764Y-74907D01*
X90686Y-75122D01*
X90696Y-75350D01*
X90764Y-75512D01*
X90844Y-75561D01*
X91195Y-75210D01*
X91195Y-75351D01*
X90914Y-75631D01*
X90963Y-75711D01*
X91178Y-75789D01*
X91406Y-75779D01*
X91568Y-75711D01*
X91617Y-75631D01*
X91617Y-75950D01*
X90675Y-75950D01*
X90675Y-68415D01*
X90610Y-68259D01*
X90550Y-68198D01*
X90550Y-67801D01*
X90610Y-67741D01*
X90674Y-67584D01*
X90675Y-67415D01*
X90610Y-67259D01*
X90491Y-67139D01*
X90334Y-67075D01*
X90175Y-67074D01*
X90175Y-62415D01*
X90110Y-62259D01*
X90050Y-62198D01*
X90050Y-61500D01*
X90027Y-61385D01*
X89962Y-61287D01*
X89962Y-61287D01*
X89583Y-60909D01*
X89694Y-60797D01*
X89774Y-60604D01*
X89775Y-60396D01*
X89695Y-60203D01*
X89547Y-60055D01*
X89354Y-59975D01*
X89146Y-59974D01*
X88953Y-60054D01*
X88805Y-60202D01*
X88749Y-60335D01*
X88695Y-60203D01*
X88547Y-60055D01*
X88421Y-60002D01*
X88462Y-59962D01*
X88462Y-59962D01*
X88527Y-59864D01*
X88549Y-59750D01*
X88550Y-59750D01*
X88550Y-59221D01*
X88561Y-59216D01*
X88715Y-59061D01*
X88799Y-58859D01*
X88800Y-58641D01*
X88716Y-58438D01*
X88705Y-58427D01*
X88705Y-57807D01*
X88692Y-57629D01*
X88648Y-57522D01*
X88581Y-57489D01*
X88510Y-57560D01*
X88510Y-57418D01*
X88477Y-57351D01*
X88307Y-57294D01*
X88129Y-57307D01*
X88022Y-57351D01*
X87989Y-57418D01*
X88250Y-57679D01*
X88510Y-57418D01*
X88510Y-57560D01*
X88320Y-57750D01*
X88581Y-58010D01*
X88648Y-57977D01*
X88705Y-57807D01*
X88705Y-58427D01*
X88561Y-58284D01*
X88359Y-58200D01*
X88265Y-58200D01*
X88370Y-58192D01*
X88477Y-58148D01*
X88510Y-58081D01*
X88285Y-57856D01*
X88250Y-57820D01*
X88249Y-57820D01*
X88179Y-57750D01*
X88143Y-57714D01*
X87918Y-57489D01*
X87851Y-57522D01*
X87800Y-57676D01*
X87800Y-57641D01*
X87716Y-57438D01*
X87561Y-57284D01*
X87359Y-57200D01*
X87141Y-57199D01*
X86938Y-57283D01*
X86784Y-57438D01*
X86750Y-57519D01*
X86716Y-57438D01*
X86561Y-57284D01*
X86359Y-57200D01*
X86141Y-57199D01*
X85938Y-57283D01*
X85784Y-57438D01*
X85700Y-57640D01*
X85699Y-57858D01*
X85738Y-57952D01*
X85635Y-57972D01*
X85537Y-58037D01*
X85037Y-58537D01*
X84972Y-58635D01*
X84950Y-58750D01*
X84950Y-60057D01*
X84805Y-60202D01*
X84749Y-60335D01*
X84695Y-60203D01*
X84550Y-60057D01*
X84550Y-58750D01*
X84527Y-58635D01*
X84462Y-58537D01*
X84462Y-58537D01*
X83962Y-58037D01*
X83864Y-57972D01*
X83750Y-57950D01*
X83692Y-57950D01*
X83547Y-57805D01*
X83354Y-57725D01*
X83146Y-57724D01*
X82953Y-57804D01*
X82805Y-57952D01*
X82725Y-58145D01*
X82724Y-58353D01*
X82804Y-58547D01*
X82952Y-58694D01*
X83145Y-58774D01*
X83353Y-58775D01*
X83547Y-58695D01*
X83659Y-58583D01*
X83950Y-58874D01*
X83950Y-60057D01*
X83805Y-60202D01*
X83749Y-60335D01*
X83695Y-60203D01*
X83547Y-60055D01*
X83354Y-59975D01*
X83146Y-59974D01*
X82953Y-60054D01*
X82805Y-60202D01*
X82725Y-60395D01*
X82724Y-60603D01*
X82804Y-60797D01*
X82952Y-60944D01*
X83145Y-61024D01*
X83353Y-61025D01*
X83389Y-61010D01*
X83325Y-61165D01*
X83324Y-61334D01*
X83389Y-61490D01*
X83508Y-61610D01*
X83665Y-61674D01*
X83750Y-61675D01*
X84450Y-62374D01*
X84450Y-63014D01*
X84354Y-62975D01*
X84146Y-62974D01*
X83953Y-63054D01*
X83805Y-63202D01*
X83725Y-63395D01*
X83724Y-63603D01*
X83804Y-63797D01*
X83952Y-63944D01*
X84145Y-64024D01*
X84353Y-64025D01*
X84450Y-63985D01*
X84450Y-64375D01*
X83680Y-65145D01*
X83680Y-63551D01*
X83667Y-63383D01*
X83627Y-63287D01*
X83563Y-63257D01*
X83492Y-63328D01*
X83492Y-63186D01*
X83462Y-63122D01*
X83301Y-63069D01*
X83133Y-63082D01*
X83037Y-63122D01*
X83007Y-63186D01*
X83250Y-63429D01*
X83492Y-63186D01*
X83492Y-63328D01*
X83320Y-63500D01*
X83563Y-63742D01*
X83627Y-63712D01*
X83680Y-63551D01*
X83680Y-65145D01*
X83537Y-65287D01*
X83492Y-65356D01*
X83492Y-63813D01*
X83250Y-63570D01*
X83179Y-63641D01*
X83179Y-63500D01*
X82936Y-63257D01*
X82872Y-63287D01*
X82819Y-63448D01*
X82832Y-63616D01*
X82872Y-63712D01*
X82936Y-63742D01*
X83179Y-63500D01*
X83179Y-63641D01*
X83007Y-63813D01*
X83037Y-63877D01*
X83198Y-63930D01*
X83366Y-63917D01*
X83462Y-63877D01*
X83492Y-63813D01*
X83492Y-65356D01*
X83472Y-65385D01*
X83450Y-65500D01*
X83450Y-70948D01*
X83389Y-71008D01*
X83325Y-71165D01*
X83324Y-71334D01*
X83389Y-71490D01*
X83508Y-71610D01*
X83665Y-71674D01*
X83834Y-71675D01*
X83990Y-71610D01*
X84110Y-71491D01*
X84174Y-71334D01*
X84175Y-71165D01*
X84110Y-71009D01*
X84050Y-70948D01*
X84050Y-66512D01*
X84140Y-66549D01*
X84358Y-66550D01*
X84561Y-66466D01*
X84715Y-66311D01*
X84799Y-66109D01*
X84800Y-65891D01*
X84716Y-65688D01*
X84561Y-65534D01*
X84359Y-65450D01*
X84224Y-65449D01*
X84962Y-64712D01*
X84962Y-64712D01*
X85027Y-64614D01*
X85049Y-64500D01*
X85050Y-64500D01*
X85050Y-63985D01*
X85145Y-64024D01*
X85353Y-64025D01*
X85547Y-63945D01*
X85694Y-63797D01*
X85750Y-63664D01*
X85804Y-63797D01*
X85950Y-63942D01*
X85950Y-64872D01*
X85834Y-64825D01*
X85665Y-64824D01*
X85509Y-64889D01*
X85389Y-65008D01*
X85325Y-65165D01*
X85324Y-65334D01*
X85389Y-65490D01*
X85450Y-65551D01*
X85450Y-66448D01*
X85389Y-66508D01*
X85325Y-66665D01*
X85324Y-66834D01*
X85389Y-66990D01*
X85508Y-67110D01*
X85654Y-67170D01*
X84537Y-68287D01*
X84472Y-68385D01*
X84450Y-68500D01*
X84450Y-73448D01*
X84389Y-73508D01*
X84325Y-73665D01*
X84324Y-73834D01*
X84389Y-73990D01*
X84508Y-74110D01*
X84665Y-74174D01*
X84834Y-74175D01*
X84990Y-74110D01*
X85110Y-73991D01*
X85174Y-73834D01*
X85175Y-73665D01*
X85110Y-73509D01*
X85050Y-73448D01*
X85050Y-68624D01*
X86462Y-67212D01*
X86462Y-67212D01*
X86527Y-67114D01*
X86549Y-67000D01*
X86550Y-67000D01*
X86550Y-66512D01*
X86640Y-66549D01*
X86858Y-66550D01*
X87061Y-66466D01*
X87215Y-66311D01*
X87299Y-66109D01*
X87300Y-65891D01*
X87216Y-65688D01*
X87064Y-65536D01*
X87110Y-65491D01*
X87174Y-65334D01*
X87175Y-65165D01*
X87110Y-65009D01*
X87050Y-64948D01*
X87050Y-63985D01*
X87145Y-64024D01*
X87353Y-64025D01*
X87450Y-63985D01*
X87450Y-64198D01*
X87389Y-64258D01*
X87325Y-64415D01*
X87324Y-64584D01*
X87389Y-64740D01*
X87508Y-64860D01*
X87665Y-64924D01*
X87834Y-64925D01*
X87950Y-64877D01*
X87950Y-65698D01*
X87889Y-65758D01*
X87825Y-65915D01*
X87824Y-66084D01*
X87889Y-66240D01*
X88008Y-66360D01*
X88165Y-66424D01*
X88334Y-66425D01*
X88490Y-66360D01*
X88610Y-66241D01*
X88674Y-66084D01*
X88675Y-65915D01*
X88610Y-65759D01*
X88550Y-65698D01*
X88550Y-65377D01*
X88665Y-65424D01*
X88834Y-65425D01*
X88950Y-65377D01*
X88950Y-72448D01*
X88889Y-72508D01*
X88825Y-72665D01*
X88824Y-72834D01*
X88889Y-72990D01*
X89008Y-73110D01*
X89165Y-73174D01*
X89334Y-73175D01*
X89490Y-73110D01*
X89610Y-72991D01*
X89674Y-72834D01*
X89675Y-72665D01*
X89610Y-72509D01*
X89550Y-72448D01*
X89550Y-63942D01*
X89694Y-63797D01*
X89774Y-63604D01*
X89775Y-63396D01*
X89695Y-63203D01*
X89547Y-63055D01*
X89354Y-62975D01*
X89146Y-62974D01*
X89050Y-63014D01*
X89050Y-62801D01*
X89110Y-62741D01*
X89174Y-62584D01*
X89175Y-62415D01*
X89110Y-62259D01*
X88991Y-62139D01*
X88834Y-62075D01*
X88665Y-62074D01*
X88509Y-62139D01*
X88389Y-62258D01*
X88325Y-62415D01*
X88324Y-62584D01*
X88389Y-62740D01*
X88450Y-62801D01*
X88450Y-63014D01*
X88354Y-62975D01*
X88146Y-62974D01*
X88050Y-63014D01*
X88050Y-60985D01*
X88145Y-61024D01*
X88353Y-61025D01*
X88547Y-60945D01*
X88694Y-60797D01*
X88750Y-60664D01*
X88804Y-60797D01*
X88950Y-60942D01*
X88950Y-61000D01*
X88972Y-61114D01*
X89037Y-61212D01*
X89450Y-61624D01*
X89450Y-62198D01*
X89389Y-62258D01*
X89325Y-62415D01*
X89324Y-62584D01*
X89389Y-62740D01*
X89508Y-62860D01*
X89665Y-62924D01*
X89834Y-62925D01*
X89990Y-62860D01*
X90110Y-62741D01*
X90174Y-62584D01*
X90175Y-62415D01*
X90175Y-67074D01*
X90165Y-67074D01*
X90009Y-67139D01*
X89889Y-67258D01*
X89825Y-67415D01*
X89824Y-67584D01*
X89889Y-67740D01*
X89950Y-67801D01*
X89950Y-68198D01*
X89889Y-68258D01*
X89825Y-68415D01*
X89824Y-68584D01*
X89889Y-68740D01*
X90008Y-68860D01*
X90165Y-68924D01*
X90334Y-68925D01*
X90490Y-68860D01*
X90610Y-68741D01*
X90674Y-68584D01*
X90675Y-68415D01*
X90675Y-75950D01*
X88659Y-75950D01*
X88659Y-75076D01*
X88556Y-74828D01*
X88366Y-74638D01*
X88284Y-74603D01*
X88284Y-70896D01*
X88365Y-70862D01*
X88555Y-70672D01*
X88658Y-70424D01*
X88659Y-70156D01*
X88556Y-69908D01*
X88366Y-69718D01*
X88118Y-69615D01*
X87850Y-69614D01*
X87602Y-69717D01*
X87580Y-69739D01*
X87580Y-68385D01*
X87491Y-68171D01*
X87328Y-68008D01*
X87308Y-68000D01*
X87328Y-67991D01*
X87491Y-67828D01*
X87579Y-67615D01*
X87580Y-67385D01*
X87491Y-67171D01*
X87328Y-67008D01*
X87115Y-66920D01*
X86885Y-66919D01*
X86671Y-67008D01*
X86508Y-67171D01*
X86420Y-67384D01*
X86419Y-67614D01*
X86508Y-67828D01*
X86671Y-67991D01*
X86691Y-67999D01*
X86671Y-68008D01*
X86508Y-68171D01*
X86420Y-68384D01*
X86419Y-68614D01*
X86508Y-68828D01*
X86671Y-68991D01*
X86884Y-69079D01*
X87114Y-69080D01*
X87328Y-68991D01*
X87491Y-68828D01*
X87579Y-68615D01*
X87580Y-68385D01*
X87580Y-69739D01*
X87412Y-69907D01*
X87309Y-70155D01*
X87308Y-70423D01*
X87411Y-70671D01*
X87601Y-70861D01*
X87684Y-70896D01*
X87684Y-74603D01*
X87602Y-74637D01*
X87412Y-74827D01*
X87309Y-75075D01*
X87308Y-75343D01*
X87411Y-75591D01*
X87601Y-75781D01*
X87849Y-75884D01*
X88117Y-75885D01*
X88365Y-75782D01*
X88555Y-75592D01*
X88658Y-75344D01*
X88659Y-75076D01*
X88659Y-75950D01*
X86595Y-75950D01*
X86595Y-75297D01*
X86595Y-70377D01*
X86585Y-70149D01*
X86517Y-69987D01*
X86437Y-69938D01*
X86367Y-70009D01*
X86367Y-69868D01*
X86318Y-69788D01*
X86103Y-69710D01*
X85875Y-69720D01*
X85713Y-69788D01*
X85664Y-69868D01*
X86016Y-70219D01*
X86367Y-69868D01*
X86367Y-70009D01*
X86086Y-70290D01*
X86437Y-70641D01*
X86517Y-70592D01*
X86595Y-70377D01*
X86595Y-75297D01*
X86585Y-75069D01*
X86517Y-74907D01*
X86437Y-74858D01*
X86367Y-74929D01*
X86367Y-74788D01*
X86367Y-70711D01*
X86016Y-70360D01*
X85945Y-70431D01*
X85945Y-70290D01*
X85594Y-69938D01*
X85514Y-69987D01*
X85436Y-70202D01*
X85446Y-70430D01*
X85514Y-70592D01*
X85594Y-70641D01*
X85945Y-70290D01*
X85945Y-70431D01*
X85664Y-70711D01*
X85713Y-70791D01*
X85928Y-70869D01*
X86156Y-70859D01*
X86318Y-70791D01*
X86367Y-70711D01*
X86367Y-74788D01*
X86318Y-74708D01*
X86103Y-74630D01*
X85875Y-74640D01*
X85713Y-74708D01*
X85664Y-74788D01*
X86016Y-75139D01*
X86367Y-74788D01*
X86367Y-74929D01*
X86086Y-75210D01*
X86437Y-75561D01*
X86517Y-75512D01*
X86595Y-75297D01*
X86595Y-75950D01*
X86367Y-75950D01*
X86367Y-75631D01*
X86016Y-75280D01*
X85945Y-75351D01*
X85945Y-75210D01*
X85594Y-74858D01*
X85514Y-74907D01*
X85436Y-75122D01*
X85446Y-75350D01*
X85514Y-75512D01*
X85594Y-75561D01*
X85945Y-75210D01*
X85945Y-75351D01*
X85664Y-75631D01*
X85713Y-75711D01*
X85928Y-75789D01*
X86156Y-75779D01*
X86318Y-75711D01*
X86367Y-75631D01*
X86367Y-75950D01*
X83409Y-75950D01*
X83409Y-75076D01*
X83306Y-74828D01*
X83116Y-74638D01*
X83034Y-74603D01*
X83034Y-70896D01*
X83115Y-70862D01*
X83305Y-70672D01*
X83408Y-70424D01*
X83409Y-70156D01*
X83306Y-69908D01*
X83116Y-69718D01*
X83034Y-69683D01*
X83034Y-65317D01*
X83110Y-65241D01*
X83174Y-65084D01*
X83175Y-64915D01*
X83110Y-64759D01*
X82991Y-64639D01*
X82834Y-64575D01*
X82775Y-64575D01*
X82775Y-63396D01*
X82695Y-63203D01*
X82680Y-63187D01*
X82680Y-60551D01*
X82680Y-58301D01*
X82667Y-58133D01*
X82627Y-58037D01*
X82563Y-58007D01*
X82492Y-58078D01*
X82492Y-57936D01*
X82462Y-57872D01*
X82301Y-57819D01*
X82133Y-57832D01*
X82037Y-57872D01*
X82007Y-57936D01*
X82250Y-58179D01*
X82492Y-57936D01*
X82492Y-58078D01*
X82320Y-58250D01*
X82563Y-58492D01*
X82627Y-58462D01*
X82680Y-58301D01*
X82680Y-60551D01*
X82667Y-60383D01*
X82627Y-60287D01*
X82563Y-60257D01*
X82492Y-60328D01*
X82492Y-60186D01*
X82492Y-58563D01*
X82250Y-58320D01*
X82179Y-58391D01*
X82179Y-58250D01*
X81936Y-58007D01*
X81872Y-58037D01*
X81819Y-58198D01*
X81832Y-58366D01*
X81872Y-58462D01*
X81936Y-58492D01*
X82179Y-58250D01*
X82179Y-58391D01*
X82007Y-58563D01*
X82037Y-58627D01*
X82198Y-58680D01*
X82366Y-58667D01*
X82462Y-58627D01*
X82492Y-58563D01*
X82492Y-60186D01*
X82462Y-60122D01*
X82301Y-60069D01*
X82133Y-60082D01*
X82037Y-60122D01*
X82007Y-60186D01*
X82250Y-60429D01*
X82492Y-60186D01*
X82492Y-60328D01*
X82320Y-60500D01*
X82563Y-60742D01*
X82627Y-60712D01*
X82680Y-60551D01*
X82680Y-63187D01*
X82547Y-63055D01*
X82492Y-63032D01*
X82492Y-60813D01*
X82250Y-60570D01*
X82179Y-60641D01*
X82179Y-60500D01*
X81936Y-60257D01*
X81872Y-60287D01*
X81819Y-60448D01*
X81832Y-60616D01*
X81872Y-60712D01*
X81936Y-60742D01*
X82179Y-60500D01*
X82179Y-60641D01*
X82007Y-60813D01*
X82037Y-60877D01*
X82198Y-60930D01*
X82366Y-60917D01*
X82462Y-60877D01*
X82492Y-60813D01*
X82492Y-63032D01*
X82354Y-62975D01*
X82146Y-62974D01*
X81953Y-63054D01*
X81805Y-63202D01*
X81749Y-63335D01*
X81695Y-63203D01*
X81547Y-63055D01*
X81354Y-62975D01*
X81146Y-62974D01*
X80953Y-63054D01*
X80805Y-63202D01*
X80749Y-63335D01*
X80695Y-63203D01*
X80547Y-63055D01*
X80354Y-62975D01*
X80146Y-62974D01*
X79953Y-63054D01*
X79805Y-63202D01*
X79749Y-63335D01*
X79695Y-63203D01*
X79547Y-63055D01*
X79354Y-62975D01*
X79146Y-62974D01*
X79050Y-63014D01*
X79050Y-62624D01*
X79462Y-62212D01*
X79462Y-62212D01*
X79527Y-62114D01*
X79549Y-62000D01*
X79550Y-62000D01*
X79550Y-60942D01*
X79694Y-60797D01*
X79750Y-60664D01*
X79804Y-60797D01*
X79950Y-60942D01*
X79950Y-61198D01*
X79889Y-61258D01*
X79825Y-61415D01*
X79824Y-61584D01*
X79889Y-61740D01*
X80008Y-61860D01*
X80165Y-61924D01*
X80334Y-61925D01*
X80490Y-61860D01*
X80610Y-61741D01*
X80674Y-61584D01*
X80675Y-61415D01*
X80610Y-61259D01*
X80550Y-61198D01*
X80550Y-60942D01*
X80694Y-60797D01*
X80750Y-60664D01*
X80804Y-60797D01*
X80950Y-60942D01*
X80950Y-60948D01*
X80889Y-61008D01*
X80825Y-61165D01*
X80824Y-61334D01*
X80889Y-61490D01*
X81008Y-61610D01*
X81165Y-61674D01*
X81334Y-61675D01*
X81490Y-61610D01*
X81610Y-61491D01*
X81674Y-61334D01*
X81675Y-61165D01*
X81610Y-61009D01*
X81550Y-60948D01*
X81550Y-60942D01*
X81694Y-60797D01*
X81774Y-60604D01*
X81775Y-60396D01*
X81695Y-60203D01*
X81547Y-60055D01*
X81354Y-59975D01*
X81146Y-59974D01*
X80953Y-60054D01*
X80805Y-60202D01*
X80749Y-60335D01*
X80695Y-60203D01*
X80547Y-60055D01*
X80354Y-59975D01*
X80146Y-59974D01*
X79953Y-60054D01*
X79805Y-60202D01*
X79749Y-60335D01*
X79695Y-60203D01*
X79547Y-60055D01*
X79354Y-59975D01*
X79146Y-59974D01*
X78953Y-60054D01*
X78805Y-60202D01*
X78749Y-60335D01*
X78695Y-60203D01*
X78547Y-60055D01*
X78354Y-59975D01*
X78146Y-59974D01*
X77953Y-60054D01*
X77805Y-60202D01*
X77749Y-60335D01*
X77695Y-60203D01*
X77547Y-60055D01*
X77354Y-59975D01*
X77146Y-59974D01*
X76953Y-60054D01*
X76805Y-60202D01*
X76749Y-60335D01*
X76695Y-60203D01*
X76547Y-60055D01*
X76354Y-59975D01*
X76146Y-59974D01*
X75953Y-60054D01*
X75805Y-60202D01*
X75725Y-60395D01*
X75724Y-60603D01*
X75804Y-60797D01*
X75950Y-60942D01*
X75950Y-62198D01*
X75889Y-62258D01*
X75825Y-62415D01*
X75824Y-62584D01*
X75889Y-62740D01*
X76008Y-62860D01*
X76165Y-62924D01*
X76334Y-62925D01*
X76490Y-62860D01*
X76610Y-62741D01*
X76674Y-62584D01*
X76675Y-62415D01*
X76610Y-62259D01*
X76550Y-62198D01*
X76550Y-60942D01*
X76694Y-60797D01*
X76750Y-60664D01*
X76804Y-60797D01*
X76950Y-60942D01*
X76950Y-61698D01*
X76889Y-61758D01*
X76825Y-61915D01*
X76824Y-62084D01*
X76889Y-62240D01*
X77008Y-62360D01*
X77165Y-62424D01*
X77334Y-62425D01*
X77490Y-62360D01*
X77610Y-62241D01*
X77674Y-62084D01*
X77675Y-61915D01*
X77610Y-61759D01*
X77550Y-61698D01*
X77550Y-60942D01*
X77694Y-60797D01*
X77750Y-60664D01*
X77804Y-60797D01*
X77952Y-60944D01*
X78145Y-61024D01*
X78353Y-61025D01*
X78547Y-60945D01*
X78694Y-60797D01*
X78750Y-60664D01*
X78804Y-60797D01*
X78950Y-60942D01*
X78950Y-61875D01*
X78537Y-62287D01*
X78472Y-62385D01*
X78450Y-62500D01*
X78450Y-63014D01*
X78354Y-62975D01*
X78146Y-62974D01*
X77953Y-63054D01*
X77805Y-63202D01*
X77749Y-63335D01*
X77695Y-63203D01*
X77547Y-63055D01*
X77354Y-62975D01*
X77146Y-62974D01*
X76953Y-63054D01*
X76805Y-63202D01*
X76775Y-63274D01*
X76775Y-63175D01*
X76737Y-63083D01*
X76666Y-63013D01*
X76574Y-62975D01*
X76475Y-62974D01*
X75925Y-62974D01*
X75833Y-63012D01*
X75800Y-63046D01*
X75800Y-61551D01*
X75860Y-61491D01*
X75924Y-61334D01*
X75925Y-61165D01*
X75860Y-61009D01*
X75741Y-60889D01*
X75584Y-60825D01*
X75415Y-60824D01*
X75259Y-60889D01*
X75139Y-61008D01*
X75075Y-61165D01*
X75074Y-61334D01*
X75139Y-61490D01*
X75200Y-61551D01*
X75200Y-68074D01*
X75165Y-68074D01*
X75050Y-68122D01*
X75050Y-58391D01*
X74966Y-58188D01*
X74811Y-58034D01*
X74609Y-57950D01*
X74391Y-57949D01*
X74188Y-58033D01*
X74034Y-58188D01*
X73950Y-58390D01*
X73949Y-58608D01*
X74033Y-58811D01*
X74188Y-58965D01*
X74390Y-59049D01*
X74608Y-59050D01*
X74811Y-58966D01*
X74965Y-58811D01*
X75049Y-58609D01*
X75050Y-58391D01*
X75050Y-68122D01*
X75009Y-68139D01*
X74889Y-68258D01*
X74825Y-68415D01*
X74824Y-68584D01*
X74889Y-68740D01*
X75008Y-68860D01*
X75165Y-68924D01*
X75334Y-68925D01*
X75490Y-68860D01*
X75610Y-68741D01*
X75674Y-68584D01*
X75675Y-68499D01*
X75712Y-68462D01*
X75712Y-68462D01*
X75777Y-68364D01*
X75799Y-68250D01*
X75800Y-68250D01*
X75800Y-63953D01*
X75833Y-63986D01*
X75925Y-64024D01*
X75950Y-64024D01*
X75950Y-65698D01*
X75889Y-65758D01*
X75825Y-65915D01*
X75824Y-66084D01*
X75889Y-66240D01*
X76008Y-66360D01*
X76165Y-66424D01*
X76334Y-66425D01*
X76490Y-66360D01*
X76610Y-66241D01*
X76674Y-66084D01*
X76675Y-65915D01*
X76610Y-65759D01*
X76550Y-65698D01*
X76550Y-64025D01*
X76574Y-64025D01*
X76666Y-63987D01*
X76736Y-63916D01*
X76774Y-63824D01*
X76775Y-63725D01*
X76775Y-63725D01*
X76804Y-63797D01*
X76950Y-63942D01*
X76950Y-67129D01*
X76828Y-67008D01*
X76615Y-66920D01*
X76385Y-66919D01*
X76171Y-67008D01*
X76008Y-67171D01*
X75920Y-67384D01*
X75919Y-67614D01*
X76008Y-67828D01*
X76171Y-67991D01*
X76191Y-67999D01*
X76171Y-68008D01*
X76008Y-68171D01*
X75920Y-68384D01*
X75919Y-68614D01*
X76008Y-68828D01*
X76171Y-68991D01*
X76384Y-69079D01*
X76614Y-69080D01*
X76828Y-68991D01*
X76950Y-68870D01*
X76950Y-68875D01*
X76287Y-69537D01*
X76222Y-69635D01*
X76200Y-69750D01*
X76200Y-70698D01*
X76139Y-70758D01*
X76095Y-70865D01*
X76095Y-70377D01*
X76085Y-70149D01*
X76017Y-69987D01*
X75937Y-69938D01*
X75867Y-70009D01*
X75867Y-69868D01*
X75818Y-69788D01*
X75603Y-69710D01*
X75375Y-69720D01*
X75213Y-69788D01*
X75164Y-69868D01*
X75516Y-70219D01*
X75867Y-69868D01*
X75867Y-70009D01*
X75586Y-70290D01*
X75937Y-70641D01*
X76017Y-70592D01*
X76095Y-70377D01*
X76095Y-70865D01*
X76075Y-70915D01*
X76074Y-71084D01*
X76139Y-71240D01*
X76258Y-71360D01*
X76415Y-71424D01*
X76584Y-71425D01*
X76740Y-71360D01*
X76860Y-71241D01*
X76924Y-71084D01*
X76925Y-70915D01*
X76860Y-70759D01*
X76800Y-70698D01*
X76800Y-69874D01*
X77462Y-69212D01*
X77462Y-69212D01*
X77527Y-69114D01*
X77549Y-69000D01*
X77550Y-69000D01*
X77550Y-66512D01*
X77640Y-66549D01*
X77858Y-66550D01*
X77950Y-66512D01*
X77950Y-69801D01*
X77866Y-69718D01*
X77618Y-69615D01*
X77350Y-69614D01*
X77102Y-69717D01*
X76912Y-69907D01*
X76809Y-70155D01*
X76808Y-70423D01*
X76911Y-70671D01*
X77101Y-70861D01*
X77184Y-70896D01*
X77184Y-74603D01*
X77102Y-74637D01*
X76912Y-74827D01*
X76809Y-75075D01*
X76808Y-75343D01*
X76911Y-75591D01*
X77101Y-75781D01*
X77349Y-75884D01*
X77617Y-75885D01*
X77865Y-75782D01*
X78055Y-75592D01*
X78158Y-75344D01*
X78159Y-75076D01*
X78056Y-74828D01*
X77866Y-74638D01*
X77784Y-74603D01*
X77784Y-70896D01*
X77865Y-70862D01*
X77950Y-70778D01*
X77950Y-71198D01*
X77889Y-71258D01*
X77825Y-71415D01*
X77824Y-71584D01*
X77889Y-71740D01*
X78008Y-71860D01*
X78165Y-71924D01*
X78334Y-71925D01*
X78490Y-71860D01*
X78610Y-71741D01*
X78674Y-71584D01*
X78675Y-71415D01*
X78610Y-71259D01*
X78550Y-71198D01*
X78550Y-68877D01*
X78665Y-68924D01*
X78834Y-68925D01*
X78950Y-68877D01*
X78950Y-74500D01*
X78950Y-74948D01*
X78889Y-75008D01*
X78825Y-75165D01*
X78824Y-75334D01*
X78889Y-75490D01*
X79008Y-75610D01*
X79165Y-75674D01*
X79334Y-75675D01*
X79490Y-75610D01*
X79610Y-75491D01*
X79674Y-75334D01*
X79675Y-75165D01*
X79610Y-75009D01*
X79550Y-74948D01*
X79550Y-74627D01*
X79665Y-74674D01*
X79834Y-74675D01*
X79990Y-74610D01*
X80110Y-74491D01*
X80174Y-74334D01*
X80175Y-74165D01*
X80110Y-74009D01*
X80050Y-73948D01*
X80050Y-71500D01*
X80050Y-67551D01*
X80110Y-67491D01*
X80174Y-67334D01*
X80175Y-67165D01*
X80110Y-67009D01*
X79991Y-66889D01*
X79834Y-66825D01*
X79665Y-66824D01*
X79550Y-66872D01*
X79550Y-63942D01*
X79694Y-63797D01*
X79750Y-63664D01*
X79804Y-63797D01*
X79950Y-63942D01*
X79950Y-64500D01*
X79950Y-64698D01*
X79889Y-64758D01*
X79825Y-64915D01*
X79824Y-65084D01*
X79889Y-65240D01*
X80008Y-65360D01*
X80165Y-65424D01*
X80334Y-65425D01*
X80490Y-65360D01*
X80610Y-65241D01*
X80674Y-65084D01*
X80675Y-64915D01*
X80610Y-64759D01*
X80550Y-64698D01*
X80550Y-64500D01*
X80550Y-63942D01*
X80694Y-63797D01*
X80750Y-63664D01*
X80804Y-63797D01*
X80950Y-63942D01*
X80950Y-66198D01*
X80889Y-66258D01*
X80825Y-66415D01*
X80824Y-66584D01*
X80889Y-66740D01*
X81008Y-66860D01*
X81165Y-66924D01*
X81334Y-66925D01*
X81490Y-66860D01*
X81610Y-66741D01*
X81674Y-66584D01*
X81675Y-66415D01*
X81610Y-66259D01*
X81550Y-66198D01*
X81550Y-63942D01*
X81694Y-63797D01*
X81750Y-63664D01*
X81804Y-63797D01*
X81952Y-63944D01*
X82145Y-64024D01*
X82353Y-64025D01*
X82547Y-63945D01*
X82694Y-63797D01*
X82774Y-63604D01*
X82775Y-63396D01*
X82775Y-64575D01*
X82665Y-64574D01*
X82509Y-64639D01*
X82389Y-64758D01*
X82325Y-64915D01*
X82324Y-65084D01*
X82389Y-65240D01*
X82434Y-65285D01*
X82434Y-69683D01*
X82352Y-69717D01*
X82330Y-69739D01*
X82330Y-68385D01*
X82241Y-68171D01*
X82235Y-68164D01*
X82235Y-67565D01*
X82223Y-67374D01*
X82173Y-67254D01*
X82102Y-67217D01*
X82032Y-67288D01*
X82032Y-67147D01*
X81995Y-67076D01*
X81815Y-67014D01*
X81624Y-67026D01*
X81504Y-67076D01*
X81467Y-67147D01*
X81750Y-67429D01*
X82032Y-67147D01*
X82032Y-67288D01*
X81820Y-67500D01*
X82102Y-67782D01*
X82173Y-67745D01*
X82235Y-67565D01*
X82235Y-68164D01*
X82078Y-68008D01*
X81934Y-67948D01*
X81995Y-67923D01*
X82032Y-67852D01*
X81750Y-67570D01*
X81679Y-67641D01*
X81679Y-67500D01*
X81397Y-67217D01*
X81326Y-67254D01*
X81264Y-67434D01*
X81276Y-67625D01*
X81326Y-67745D01*
X81397Y-67782D01*
X81679Y-67500D01*
X81679Y-67641D01*
X81467Y-67852D01*
X81504Y-67923D01*
X81571Y-67946D01*
X81421Y-68008D01*
X81258Y-68171D01*
X81170Y-68384D01*
X81169Y-68614D01*
X81258Y-68828D01*
X81421Y-68991D01*
X81634Y-69079D01*
X81864Y-69080D01*
X82078Y-68991D01*
X82241Y-68828D01*
X82329Y-68615D01*
X82330Y-68385D01*
X82330Y-69739D01*
X82162Y-69907D01*
X82059Y-70155D01*
X82058Y-70423D01*
X82161Y-70671D01*
X82351Y-70861D01*
X82434Y-70896D01*
X82434Y-74603D01*
X82352Y-74637D01*
X82162Y-74827D01*
X82059Y-75075D01*
X82058Y-75343D01*
X82161Y-75591D01*
X82351Y-75781D01*
X82599Y-75884D01*
X82867Y-75885D01*
X83115Y-75782D01*
X83305Y-75592D01*
X83408Y-75344D01*
X83409Y-75076D01*
X83409Y-75950D01*
X81345Y-75950D01*
X81345Y-75297D01*
X81345Y-70377D01*
X81335Y-70149D01*
X81267Y-69987D01*
X81187Y-69938D01*
X81117Y-70009D01*
X81117Y-69868D01*
X81068Y-69788D01*
X80853Y-69710D01*
X80705Y-69717D01*
X80705Y-66057D01*
X80692Y-65879D01*
X80648Y-65772D01*
X80581Y-65739D01*
X80510Y-65810D01*
X80510Y-65668D01*
X80477Y-65601D01*
X80307Y-65544D01*
X80129Y-65557D01*
X80022Y-65601D01*
X79989Y-65668D01*
X80250Y-65929D01*
X80510Y-65668D01*
X80510Y-65810D01*
X80320Y-66000D01*
X80581Y-66260D01*
X80648Y-66227D01*
X80705Y-66057D01*
X80705Y-69717D01*
X80625Y-69720D01*
X80510Y-69768D01*
X80510Y-66331D01*
X80250Y-66070D01*
X80179Y-66141D01*
X80179Y-66000D01*
X79918Y-65739D01*
X79851Y-65772D01*
X79794Y-65942D01*
X79807Y-66120D01*
X79851Y-66227D01*
X79918Y-66260D01*
X80179Y-66000D01*
X80179Y-66141D01*
X79989Y-66331D01*
X80022Y-66398D01*
X80192Y-66455D01*
X80370Y-66442D01*
X80477Y-66398D01*
X80510Y-66331D01*
X80510Y-69768D01*
X80463Y-69788D01*
X80414Y-69868D01*
X80766Y-70219D01*
X81117Y-69868D01*
X81117Y-70009D01*
X80836Y-70290D01*
X81187Y-70641D01*
X81267Y-70592D01*
X81345Y-70377D01*
X81345Y-75297D01*
X81335Y-75069D01*
X81267Y-74907D01*
X81187Y-74858D01*
X81117Y-74929D01*
X81117Y-74788D01*
X81117Y-70711D01*
X80766Y-70360D01*
X80695Y-70431D01*
X80695Y-70290D01*
X80344Y-69938D01*
X80264Y-69987D01*
X80186Y-70202D01*
X80196Y-70430D01*
X80264Y-70592D01*
X80344Y-70641D01*
X80695Y-70290D01*
X80695Y-70431D01*
X80414Y-70711D01*
X80463Y-70791D01*
X80678Y-70869D01*
X80906Y-70859D01*
X81068Y-70791D01*
X81117Y-70711D01*
X81117Y-74788D01*
X81068Y-74708D01*
X80853Y-74630D01*
X80625Y-74640D01*
X80463Y-74708D01*
X80414Y-74788D01*
X80766Y-75139D01*
X81117Y-74788D01*
X81117Y-74929D01*
X80836Y-75210D01*
X81187Y-75561D01*
X81267Y-75512D01*
X81345Y-75297D01*
X81345Y-75950D01*
X81117Y-75950D01*
X81117Y-75631D01*
X80766Y-75280D01*
X80695Y-75351D01*
X80695Y-75210D01*
X80344Y-74858D01*
X80264Y-74907D01*
X80186Y-75122D01*
X80196Y-75350D01*
X80264Y-75512D01*
X80344Y-75561D01*
X80695Y-75210D01*
X80695Y-75351D01*
X80414Y-75631D01*
X80463Y-75711D01*
X80678Y-75789D01*
X80906Y-75779D01*
X81068Y-75711D01*
X81117Y-75631D01*
X81117Y-75950D01*
X76095Y-75950D01*
X76095Y-75297D01*
X76085Y-75069D01*
X76017Y-74907D01*
X75937Y-74858D01*
X75867Y-74929D01*
X75867Y-74788D01*
X75867Y-70711D01*
X75516Y-70360D01*
X75445Y-70431D01*
X75445Y-70290D01*
X75094Y-69938D01*
X75014Y-69987D01*
X74936Y-70202D01*
X74946Y-70430D01*
X75014Y-70592D01*
X75094Y-70641D01*
X75445Y-70290D01*
X75445Y-70431D01*
X75164Y-70711D01*
X75213Y-70791D01*
X75428Y-70869D01*
X75656Y-70859D01*
X75818Y-70791D01*
X75867Y-70711D01*
X75867Y-74788D01*
X75818Y-74708D01*
X75603Y-74630D01*
X75375Y-74640D01*
X75213Y-74708D01*
X75164Y-74788D01*
X75516Y-75139D01*
X75867Y-74788D01*
X75867Y-74929D01*
X75586Y-75210D01*
X75937Y-75561D01*
X76017Y-75512D01*
X76095Y-75297D01*
X76095Y-75950D01*
X75867Y-75950D01*
X75867Y-75631D01*
X75516Y-75280D01*
X75445Y-75351D01*
X75445Y-75210D01*
X75094Y-74858D01*
X75014Y-74907D01*
X74936Y-75122D01*
X74946Y-75350D01*
X75014Y-75512D01*
X75094Y-75561D01*
X75445Y-75210D01*
X75445Y-75351D01*
X75164Y-75631D01*
X75213Y-75711D01*
X75428Y-75789D01*
X75656Y-75779D01*
X75818Y-75711D01*
X75867Y-75631D01*
X75867Y-75950D01*
X74300Y-75950D01*
X74300Y-65891D01*
X74216Y-65688D01*
X74061Y-65534D01*
X73859Y-65450D01*
X73775Y-65450D01*
X73775Y-62896D01*
X73695Y-62703D01*
X73547Y-62555D01*
X73414Y-62499D01*
X73547Y-62445D01*
X73694Y-62297D01*
X73774Y-62104D01*
X73775Y-61896D01*
X73695Y-61703D01*
X73547Y-61555D01*
X73414Y-61499D01*
X73547Y-61445D01*
X73694Y-61297D01*
X73774Y-61104D01*
X73775Y-60896D01*
X73695Y-60703D01*
X73547Y-60555D01*
X73354Y-60475D01*
X73146Y-60474D01*
X72953Y-60554D01*
X72805Y-60702D01*
X72725Y-60895D01*
X72724Y-61103D01*
X72804Y-61297D01*
X72952Y-61444D01*
X73085Y-61500D01*
X72953Y-61554D01*
X72805Y-61702D01*
X72725Y-61895D01*
X72724Y-62103D01*
X72804Y-62297D01*
X72952Y-62444D01*
X73085Y-62500D01*
X72953Y-62554D01*
X72805Y-62702D01*
X72725Y-62895D01*
X72724Y-63103D01*
X72804Y-63297D01*
X72952Y-63444D01*
X73024Y-63474D01*
X72925Y-63474D01*
X72833Y-63512D01*
X72763Y-63583D01*
X72725Y-63675D01*
X72724Y-63774D01*
X72724Y-64324D01*
X72762Y-64416D01*
X72833Y-64486D01*
X72925Y-64524D01*
X73024Y-64525D01*
X73574Y-64525D01*
X73666Y-64487D01*
X73736Y-64416D01*
X73774Y-64324D01*
X73775Y-64225D01*
X73775Y-63675D01*
X73737Y-63583D01*
X73666Y-63513D01*
X73574Y-63475D01*
X73475Y-63474D01*
X73475Y-63474D01*
X73547Y-63445D01*
X73694Y-63297D01*
X73774Y-63104D01*
X73775Y-62896D01*
X73775Y-65450D01*
X73641Y-65449D01*
X73438Y-65533D01*
X73284Y-65688D01*
X73200Y-65890D01*
X73199Y-66108D01*
X73283Y-66311D01*
X73438Y-66465D01*
X73640Y-66549D01*
X73858Y-66550D01*
X74061Y-66466D01*
X74215Y-66311D01*
X74299Y-66109D01*
X74300Y-65891D01*
X74300Y-75950D01*
X72909Y-75950D01*
X72909Y-75076D01*
X72806Y-74828D01*
X72616Y-74638D01*
X72534Y-74603D01*
X72534Y-72817D01*
X72610Y-72741D01*
X72674Y-72584D01*
X72675Y-72415D01*
X72610Y-72259D01*
X72534Y-72182D01*
X72534Y-70896D01*
X72615Y-70862D01*
X72805Y-70672D01*
X72908Y-70424D01*
X72909Y-70156D01*
X72806Y-69908D01*
X72616Y-69718D01*
X72368Y-69615D01*
X72275Y-69615D01*
X72275Y-65896D01*
X72195Y-65703D01*
X72047Y-65555D01*
X71854Y-65475D01*
X71646Y-65474D01*
X71453Y-65554D01*
X71305Y-65702D01*
X71225Y-65895D01*
X71224Y-66103D01*
X71304Y-66297D01*
X71452Y-66444D01*
X71645Y-66524D01*
X71853Y-66525D01*
X72047Y-66445D01*
X72194Y-66297D01*
X72274Y-66104D01*
X72275Y-65896D01*
X72275Y-69615D01*
X72100Y-69614D01*
X71852Y-69717D01*
X71830Y-69739D01*
X71830Y-68385D01*
X71741Y-68171D01*
X71735Y-68164D01*
X71735Y-67565D01*
X71723Y-67374D01*
X71673Y-67254D01*
X71602Y-67217D01*
X71532Y-67288D01*
X71532Y-67147D01*
X71495Y-67076D01*
X71315Y-67014D01*
X71180Y-67023D01*
X71180Y-66051D01*
X71167Y-65883D01*
X71127Y-65787D01*
X71063Y-65757D01*
X71050Y-65770D01*
X71050Y-58391D01*
X70966Y-58188D01*
X70811Y-58034D01*
X70609Y-57950D01*
X70391Y-57949D01*
X70188Y-58033D01*
X70034Y-58188D01*
X69950Y-58390D01*
X69949Y-58608D01*
X70033Y-58811D01*
X70188Y-58965D01*
X70390Y-59049D01*
X70608Y-59050D01*
X70811Y-58966D01*
X70965Y-58811D01*
X71049Y-58609D01*
X71050Y-58391D01*
X71050Y-65770D01*
X70992Y-65828D01*
X70992Y-65686D01*
X70962Y-65622D01*
X70801Y-65569D01*
X70775Y-65571D01*
X70775Y-63896D01*
X70775Y-61896D01*
X70695Y-61703D01*
X70680Y-61687D01*
X70680Y-61051D01*
X70667Y-60883D01*
X70627Y-60787D01*
X70563Y-60757D01*
X70492Y-60828D01*
X70492Y-60686D01*
X70462Y-60622D01*
X70301Y-60569D01*
X70133Y-60582D01*
X70037Y-60622D01*
X70007Y-60686D01*
X70250Y-60929D01*
X70492Y-60686D01*
X70492Y-60828D01*
X70320Y-61000D01*
X70563Y-61242D01*
X70627Y-61212D01*
X70680Y-61051D01*
X70680Y-61687D01*
X70547Y-61555D01*
X70492Y-61532D01*
X70492Y-61313D01*
X70250Y-61070D01*
X70179Y-61141D01*
X70179Y-61000D01*
X69936Y-60757D01*
X69872Y-60787D01*
X69819Y-60948D01*
X69832Y-61116D01*
X69872Y-61212D01*
X69936Y-61242D01*
X70179Y-61000D01*
X70179Y-61141D01*
X70007Y-61313D01*
X70037Y-61377D01*
X70198Y-61430D01*
X70366Y-61417D01*
X70462Y-61377D01*
X70492Y-61313D01*
X70492Y-61532D01*
X70354Y-61475D01*
X70146Y-61474D01*
X69953Y-61554D01*
X69805Y-61702D01*
X69725Y-61895D01*
X69724Y-62103D01*
X69804Y-62297D01*
X69952Y-62444D01*
X70145Y-62524D01*
X70353Y-62525D01*
X70547Y-62445D01*
X70694Y-62297D01*
X70774Y-62104D01*
X70775Y-61896D01*
X70775Y-63896D01*
X70695Y-63703D01*
X70680Y-63687D01*
X70680Y-63051D01*
X70667Y-62883D01*
X70627Y-62787D01*
X70563Y-62757D01*
X70492Y-62828D01*
X70492Y-62686D01*
X70462Y-62622D01*
X70301Y-62569D01*
X70133Y-62582D01*
X70037Y-62622D01*
X70007Y-62686D01*
X70250Y-62929D01*
X70492Y-62686D01*
X70492Y-62828D01*
X70320Y-63000D01*
X70563Y-63242D01*
X70627Y-63212D01*
X70680Y-63051D01*
X70680Y-63687D01*
X70547Y-63555D01*
X70492Y-63532D01*
X70492Y-63313D01*
X70250Y-63070D01*
X70179Y-63141D01*
X70179Y-63000D01*
X69936Y-62757D01*
X69872Y-62787D01*
X69819Y-62948D01*
X69832Y-63116D01*
X69872Y-63212D01*
X69936Y-63242D01*
X70179Y-63000D01*
X70179Y-63141D01*
X70007Y-63313D01*
X70037Y-63377D01*
X70198Y-63430D01*
X70366Y-63417D01*
X70462Y-63377D01*
X70492Y-63313D01*
X70492Y-63532D01*
X70354Y-63475D01*
X70146Y-63474D01*
X69953Y-63554D01*
X69805Y-63702D01*
X69725Y-63895D01*
X69724Y-64103D01*
X69804Y-64297D01*
X69952Y-64444D01*
X70145Y-64524D01*
X70353Y-64525D01*
X70547Y-64445D01*
X70694Y-64297D01*
X70774Y-64104D01*
X70775Y-63896D01*
X70775Y-65571D01*
X70633Y-65582D01*
X70537Y-65622D01*
X70507Y-65686D01*
X70750Y-65929D01*
X70992Y-65686D01*
X70992Y-65828D01*
X70820Y-66000D01*
X71063Y-66242D01*
X71127Y-66212D01*
X71180Y-66051D01*
X71180Y-67023D01*
X71124Y-67026D01*
X71004Y-67076D01*
X70992Y-67099D01*
X70992Y-66313D01*
X70750Y-66070D01*
X70679Y-66141D01*
X70679Y-66000D01*
X70436Y-65757D01*
X70372Y-65787D01*
X70319Y-65948D01*
X70332Y-66116D01*
X70372Y-66212D01*
X70436Y-66242D01*
X70679Y-66000D01*
X70679Y-66141D01*
X70507Y-66313D01*
X70537Y-66377D01*
X70698Y-66430D01*
X70866Y-66417D01*
X70962Y-66377D01*
X70992Y-66313D01*
X70992Y-67099D01*
X70967Y-67147D01*
X71250Y-67429D01*
X71532Y-67147D01*
X71532Y-67288D01*
X71320Y-67500D01*
X71602Y-67782D01*
X71673Y-67745D01*
X71735Y-67565D01*
X71735Y-68164D01*
X71578Y-68008D01*
X71434Y-67948D01*
X71495Y-67923D01*
X71532Y-67852D01*
X71250Y-67570D01*
X71179Y-67641D01*
X71179Y-67500D01*
X70897Y-67217D01*
X70826Y-67254D01*
X70764Y-67434D01*
X70776Y-67625D01*
X70826Y-67745D01*
X70897Y-67782D01*
X71179Y-67500D01*
X71179Y-67641D01*
X70967Y-67852D01*
X71004Y-67923D01*
X71071Y-67946D01*
X70921Y-68008D01*
X70758Y-68171D01*
X70670Y-68384D01*
X70669Y-68614D01*
X70758Y-68828D01*
X70921Y-68991D01*
X71134Y-69079D01*
X71364Y-69080D01*
X71578Y-68991D01*
X71741Y-68828D01*
X71829Y-68615D01*
X71830Y-68385D01*
X71830Y-69739D01*
X71662Y-69907D01*
X71559Y-70155D01*
X71558Y-70423D01*
X71661Y-70671D01*
X71851Y-70861D01*
X71934Y-70896D01*
X71934Y-72214D01*
X71889Y-72258D01*
X71825Y-72415D01*
X71824Y-72584D01*
X71889Y-72740D01*
X71934Y-72785D01*
X71934Y-74603D01*
X71852Y-74637D01*
X71662Y-74827D01*
X71559Y-75075D01*
X71558Y-75343D01*
X71661Y-75591D01*
X71851Y-75781D01*
X72099Y-75884D01*
X72367Y-75885D01*
X72615Y-75782D01*
X72805Y-75592D01*
X72908Y-75344D01*
X72909Y-75076D01*
X72909Y-75950D01*
X70845Y-75950D01*
X70845Y-75297D01*
X70845Y-70377D01*
X70835Y-70149D01*
X70767Y-69987D01*
X70687Y-69938D01*
X70617Y-70009D01*
X70617Y-69868D01*
X70568Y-69788D01*
X70353Y-69710D01*
X70125Y-69720D01*
X69963Y-69788D01*
X69914Y-69868D01*
X70266Y-70219D01*
X70617Y-69868D01*
X70617Y-70009D01*
X70336Y-70290D01*
X70687Y-70641D01*
X70767Y-70592D01*
X70845Y-70377D01*
X70845Y-75297D01*
X70835Y-75069D01*
X70767Y-74907D01*
X70687Y-74858D01*
X70617Y-74929D01*
X70617Y-74788D01*
X70617Y-70711D01*
X70266Y-70360D01*
X70195Y-70431D01*
X70195Y-70290D01*
X69844Y-69938D01*
X69764Y-69987D01*
X69686Y-70202D01*
X69696Y-70430D01*
X69764Y-70592D01*
X69844Y-70641D01*
X70195Y-70290D01*
X70195Y-70431D01*
X69914Y-70711D01*
X69963Y-70791D01*
X70178Y-70869D01*
X70406Y-70859D01*
X70568Y-70791D01*
X70617Y-70711D01*
X70617Y-74788D01*
X70568Y-74708D01*
X70353Y-74630D01*
X70125Y-74640D01*
X69963Y-74708D01*
X69914Y-74788D01*
X70266Y-75139D01*
X70617Y-74788D01*
X70617Y-74929D01*
X70336Y-75210D01*
X70687Y-75561D01*
X70767Y-75512D01*
X70845Y-75297D01*
X70845Y-75950D01*
X70617Y-75950D01*
X70617Y-75631D01*
X70266Y-75280D01*
X70195Y-75351D01*
X70195Y-75210D01*
X69844Y-74858D01*
X69764Y-74907D01*
X69686Y-75122D01*
X69696Y-75350D01*
X69764Y-75512D01*
X69844Y-75561D01*
X70195Y-75210D01*
X70195Y-75351D01*
X69914Y-75631D01*
X69963Y-75711D01*
X70178Y-75789D01*
X70406Y-75779D01*
X70568Y-75711D01*
X70617Y-75631D01*
X70617Y-75950D01*
X69525Y-75950D01*
X69525Y-57896D01*
X69445Y-57703D01*
X69297Y-57555D01*
X69104Y-57475D01*
X68896Y-57474D01*
X68703Y-57554D01*
X68555Y-57702D01*
X68475Y-57895D01*
X68474Y-58103D01*
X68554Y-58297D01*
X68702Y-58444D01*
X68895Y-58524D01*
X69103Y-58525D01*
X69297Y-58445D01*
X69444Y-58297D01*
X69524Y-58104D01*
X69525Y-57896D01*
X69525Y-75950D01*
X69430Y-75950D01*
X69430Y-59051D01*
X69417Y-58883D01*
X69377Y-58787D01*
X69313Y-58757D01*
X69242Y-58828D01*
X69242Y-58686D01*
X69212Y-58622D01*
X69051Y-58569D01*
X68883Y-58582D01*
X68787Y-58622D01*
X68757Y-58686D01*
X69000Y-58929D01*
X69242Y-58686D01*
X69242Y-58828D01*
X69070Y-59000D01*
X69313Y-59242D01*
X69377Y-59212D01*
X69430Y-59051D01*
X69430Y-75950D01*
X69300Y-75950D01*
X69300Y-64391D01*
X69300Y-60391D01*
X69242Y-60251D01*
X69242Y-59313D01*
X69000Y-59070D01*
X68929Y-59141D01*
X68929Y-59000D01*
X68686Y-58757D01*
X68622Y-58787D01*
X68569Y-58948D01*
X68582Y-59116D01*
X68622Y-59212D01*
X68686Y-59242D01*
X68929Y-59000D01*
X68929Y-59141D01*
X68757Y-59313D01*
X68787Y-59377D01*
X68948Y-59430D01*
X69116Y-59417D01*
X69212Y-59377D01*
X69242Y-59313D01*
X69242Y-60251D01*
X69216Y-60188D01*
X69061Y-60034D01*
X68859Y-59950D01*
X68641Y-59949D01*
X68438Y-60033D01*
X68284Y-60188D01*
X68200Y-60390D01*
X68199Y-60608D01*
X68283Y-60811D01*
X68438Y-60965D01*
X68640Y-61049D01*
X68858Y-61050D01*
X69061Y-60966D01*
X69215Y-60811D01*
X69299Y-60609D01*
X69300Y-60391D01*
X69300Y-64391D01*
X69216Y-64188D01*
X69061Y-64034D01*
X68859Y-63950D01*
X68641Y-63949D01*
X68438Y-64033D01*
X68284Y-64188D01*
X68200Y-64390D01*
X68199Y-64608D01*
X68283Y-64811D01*
X68438Y-64965D01*
X68640Y-65049D01*
X68858Y-65050D01*
X69061Y-64966D01*
X69215Y-64811D01*
X69299Y-64609D01*
X69300Y-64391D01*
X69300Y-75950D01*
X69180Y-75950D01*
X69180Y-66051D01*
X69167Y-65883D01*
X69127Y-65787D01*
X69063Y-65757D01*
X68992Y-65828D01*
X68992Y-65686D01*
X68962Y-65622D01*
X68801Y-65569D01*
X68633Y-65582D01*
X68537Y-65622D01*
X68507Y-65686D01*
X68750Y-65929D01*
X68992Y-65686D01*
X68992Y-65828D01*
X68820Y-66000D01*
X69063Y-66242D01*
X69127Y-66212D01*
X69180Y-66051D01*
X69180Y-75950D01*
X69175Y-75950D01*
X69175Y-68415D01*
X69110Y-68259D01*
X69050Y-68198D01*
X69050Y-67801D01*
X69110Y-67741D01*
X69174Y-67584D01*
X69175Y-67415D01*
X69110Y-67259D01*
X68992Y-67141D01*
X68992Y-66313D01*
X68750Y-66070D01*
X68679Y-66141D01*
X68679Y-66000D01*
X68436Y-65757D01*
X68372Y-65787D01*
X68319Y-65948D01*
X68332Y-66116D01*
X68372Y-66212D01*
X68436Y-66242D01*
X68679Y-66000D01*
X68679Y-66141D01*
X68507Y-66313D01*
X68537Y-66377D01*
X68698Y-66430D01*
X68866Y-66417D01*
X68962Y-66377D01*
X68992Y-66313D01*
X68992Y-67141D01*
X68991Y-67139D01*
X68834Y-67075D01*
X68665Y-67074D01*
X68509Y-67139D01*
X68389Y-67258D01*
X68325Y-67415D01*
X68324Y-67584D01*
X68389Y-67740D01*
X68450Y-67801D01*
X68450Y-68198D01*
X68389Y-68258D01*
X68325Y-68415D01*
X68324Y-68584D01*
X68389Y-68740D01*
X68508Y-68860D01*
X68665Y-68924D01*
X68834Y-68925D01*
X68990Y-68860D01*
X69110Y-68741D01*
X69174Y-68584D01*
X69175Y-68415D01*
X69175Y-75950D01*
X68275Y-75950D01*
X68275Y-65896D01*
X68195Y-65703D01*
X68047Y-65555D01*
X67854Y-65475D01*
X67646Y-65474D01*
X67453Y-65554D01*
X67305Y-65702D01*
X67300Y-65714D01*
X67300Y-64391D01*
X67216Y-64188D01*
X67205Y-64177D01*
X67205Y-60557D01*
X67192Y-60379D01*
X67148Y-60272D01*
X67081Y-60239D01*
X67010Y-60310D01*
X67010Y-60168D01*
X66977Y-60101D01*
X66807Y-60044D01*
X66629Y-60057D01*
X66522Y-60101D01*
X66489Y-60168D01*
X66750Y-60429D01*
X67010Y-60168D01*
X67010Y-60310D01*
X66820Y-60500D01*
X67081Y-60760D01*
X67148Y-60727D01*
X67205Y-60557D01*
X67205Y-64177D01*
X67061Y-64034D01*
X67010Y-64012D01*
X67010Y-60831D01*
X66750Y-60570D01*
X66679Y-60641D01*
X66679Y-60500D01*
X66418Y-60239D01*
X66351Y-60272D01*
X66294Y-60442D01*
X66307Y-60620D01*
X66351Y-60727D01*
X66418Y-60760D01*
X66679Y-60500D01*
X66679Y-60641D01*
X66489Y-60831D01*
X66522Y-60898D01*
X66692Y-60955D01*
X66870Y-60942D01*
X66977Y-60898D01*
X67010Y-60831D01*
X67010Y-64012D01*
X66859Y-63950D01*
X66641Y-63949D01*
X66438Y-64033D01*
X66284Y-64188D01*
X66275Y-64209D01*
X66275Y-59146D01*
X66195Y-58953D01*
X66047Y-58805D01*
X65854Y-58725D01*
X65646Y-58724D01*
X65453Y-58804D01*
X65305Y-58952D01*
X65249Y-59085D01*
X65195Y-58953D01*
X65047Y-58805D01*
X64854Y-58725D01*
X64646Y-58724D01*
X64453Y-58804D01*
X64305Y-58952D01*
X64225Y-59145D01*
X64224Y-59353D01*
X64304Y-59547D01*
X64452Y-59694D01*
X64645Y-59774D01*
X64853Y-59775D01*
X65047Y-59695D01*
X65194Y-59547D01*
X65250Y-59414D01*
X65304Y-59547D01*
X65452Y-59694D01*
X65645Y-59774D01*
X65853Y-59775D01*
X66047Y-59695D01*
X66194Y-59547D01*
X66274Y-59354D01*
X66275Y-59146D01*
X66275Y-64209D01*
X66200Y-64390D01*
X66199Y-64608D01*
X66283Y-64811D01*
X66438Y-64965D01*
X66640Y-65049D01*
X66858Y-65050D01*
X67061Y-64966D01*
X67215Y-64811D01*
X67299Y-64609D01*
X67300Y-64391D01*
X67300Y-65714D01*
X67225Y-65895D01*
X67224Y-66103D01*
X67304Y-66297D01*
X67452Y-66444D01*
X67645Y-66524D01*
X67853Y-66525D01*
X68047Y-66445D01*
X68194Y-66297D01*
X68274Y-66104D01*
X68275Y-65896D01*
X68275Y-75950D01*
X67659Y-75950D01*
X67659Y-75076D01*
X67556Y-74828D01*
X67366Y-74638D01*
X67284Y-74603D01*
X67284Y-70896D01*
X67365Y-70862D01*
X67555Y-70672D01*
X67658Y-70424D01*
X67659Y-70156D01*
X67556Y-69908D01*
X67366Y-69718D01*
X67118Y-69615D01*
X66850Y-69614D01*
X66602Y-69717D01*
X66580Y-69739D01*
X66580Y-68385D01*
X66491Y-68171D01*
X66328Y-68008D01*
X66308Y-68000D01*
X66328Y-67991D01*
X66491Y-67828D01*
X66579Y-67615D01*
X66580Y-67385D01*
X66491Y-67171D01*
X66328Y-67008D01*
X66115Y-66920D01*
X65885Y-66919D01*
X65671Y-67008D01*
X65508Y-67171D01*
X65420Y-67384D01*
X65419Y-67614D01*
X65508Y-67828D01*
X65671Y-67991D01*
X65691Y-67999D01*
X65671Y-68008D01*
X65508Y-68171D01*
X65420Y-68384D01*
X65419Y-68614D01*
X65508Y-68828D01*
X65671Y-68991D01*
X65884Y-69079D01*
X66114Y-69080D01*
X66328Y-68991D01*
X66491Y-68828D01*
X66579Y-68615D01*
X66580Y-68385D01*
X66580Y-69739D01*
X66412Y-69907D01*
X66309Y-70155D01*
X66308Y-70423D01*
X66411Y-70671D01*
X66601Y-70861D01*
X66684Y-70896D01*
X66684Y-74603D01*
X66602Y-74637D01*
X66412Y-74827D01*
X66309Y-75075D01*
X66308Y-75343D01*
X66411Y-75591D01*
X66601Y-75781D01*
X66849Y-75884D01*
X67117Y-75885D01*
X67365Y-75782D01*
X67555Y-75592D01*
X67658Y-75344D01*
X67659Y-75076D01*
X67659Y-75950D01*
X65595Y-75950D01*
X65595Y-75297D01*
X65595Y-70377D01*
X65585Y-70149D01*
X65517Y-69987D01*
X65437Y-69938D01*
X65367Y-70009D01*
X65367Y-69868D01*
X65318Y-69788D01*
X65103Y-69710D01*
X64875Y-69720D01*
X64713Y-69788D01*
X64675Y-69851D01*
X64675Y-67415D01*
X64610Y-67259D01*
X64491Y-67139D01*
X64334Y-67075D01*
X64165Y-67074D01*
X64009Y-67139D01*
X63889Y-67258D01*
X63825Y-67415D01*
X63824Y-67584D01*
X63889Y-67740D01*
X63950Y-67801D01*
X63950Y-68875D01*
X63625Y-69200D01*
X63300Y-69200D01*
X63300Y-68391D01*
X63250Y-68270D01*
X63250Y-65313D01*
X63250Y-61376D01*
X63131Y-61089D01*
X62911Y-60869D01*
X62624Y-60750D01*
X62313Y-60749D01*
X62026Y-60868D01*
X61806Y-61088D01*
X61687Y-61375D01*
X61686Y-61686D01*
X61805Y-61973D01*
X62025Y-62193D01*
X62312Y-62312D01*
X62623Y-62313D01*
X62910Y-62194D01*
X63130Y-61974D01*
X63249Y-61687D01*
X63250Y-61376D01*
X63250Y-65313D01*
X63131Y-65026D01*
X63033Y-64928D01*
X63033Y-63388D01*
X62947Y-63180D01*
X62788Y-63021D01*
X62581Y-62935D01*
X62356Y-62934D01*
X62148Y-63020D01*
X61989Y-63179D01*
X61903Y-63387D01*
X61903Y-63611D01*
X61989Y-63819D01*
X62148Y-63978D01*
X62355Y-64064D01*
X62580Y-64065D01*
X62788Y-63979D01*
X62947Y-63820D01*
X63033Y-63612D01*
X63033Y-63388D01*
X63033Y-64928D01*
X62911Y-64806D01*
X62624Y-64687D01*
X62313Y-64686D01*
X62026Y-64805D01*
X61806Y-65025D01*
X61687Y-65312D01*
X61686Y-65623D01*
X61805Y-65910D01*
X62025Y-66130D01*
X62312Y-66249D01*
X62623Y-66250D01*
X62910Y-66131D01*
X63130Y-65911D01*
X63249Y-65624D01*
X63250Y-65313D01*
X63250Y-68270D01*
X63216Y-68188D01*
X63061Y-68034D01*
X62859Y-67950D01*
X62641Y-67949D01*
X62438Y-68033D01*
X62284Y-68188D01*
X62200Y-68390D01*
X62199Y-68608D01*
X62283Y-68811D01*
X62438Y-68965D01*
X62640Y-69049D01*
X62858Y-69050D01*
X63061Y-68966D01*
X63215Y-68811D01*
X63299Y-68609D01*
X63300Y-68391D01*
X63300Y-69200D01*
X61221Y-69200D01*
X61216Y-69188D01*
X61185Y-69157D01*
X61185Y-63613D01*
X61176Y-63342D01*
X61090Y-63133D01*
X60998Y-63071D01*
X60928Y-63142D01*
X60928Y-63001D01*
X60866Y-62909D01*
X60613Y-62814D01*
X60342Y-62823D01*
X60133Y-62909D01*
X60071Y-63001D01*
X60500Y-63429D01*
X60928Y-63001D01*
X60928Y-63142D01*
X60570Y-63500D01*
X60998Y-63928D01*
X61090Y-63866D01*
X61185Y-63613D01*
X61185Y-69157D01*
X61061Y-69034D01*
X60859Y-68950D01*
X60641Y-68949D01*
X60438Y-69033D01*
X60284Y-69188D01*
X60200Y-69390D01*
X60199Y-69608D01*
X60283Y-69811D01*
X60438Y-69965D01*
X60519Y-69999D01*
X60438Y-70033D01*
X60284Y-70188D01*
X60200Y-70390D01*
X60199Y-70608D01*
X60283Y-70811D01*
X60438Y-70965D01*
X60640Y-71049D01*
X60734Y-71049D01*
X60629Y-71057D01*
X60522Y-71101D01*
X60489Y-71168D01*
X60750Y-71429D01*
X61010Y-71168D01*
X60977Y-71101D01*
X60823Y-71050D01*
X60858Y-71050D01*
X61061Y-70966D01*
X61215Y-70811D01*
X61299Y-70609D01*
X61300Y-70391D01*
X61216Y-70188D01*
X61061Y-70034D01*
X60980Y-70000D01*
X61061Y-69966D01*
X61215Y-69811D01*
X61220Y-69800D01*
X63750Y-69800D01*
X63750Y-69799D01*
X63864Y-69777D01*
X63864Y-69777D01*
X63962Y-69712D01*
X64462Y-69212D01*
X64462Y-69212D01*
X64527Y-69114D01*
X64549Y-69000D01*
X64550Y-69000D01*
X64550Y-67801D01*
X64610Y-67741D01*
X64674Y-67584D01*
X64675Y-67415D01*
X64675Y-69851D01*
X64664Y-69868D01*
X65016Y-70219D01*
X65367Y-69868D01*
X65367Y-70009D01*
X65086Y-70290D01*
X65437Y-70641D01*
X65517Y-70592D01*
X65595Y-70377D01*
X65595Y-75297D01*
X65585Y-75069D01*
X65517Y-74907D01*
X65437Y-74858D01*
X65367Y-74929D01*
X65367Y-74788D01*
X65367Y-70711D01*
X65016Y-70360D01*
X64945Y-70431D01*
X64945Y-70290D01*
X64594Y-69938D01*
X64514Y-69987D01*
X64436Y-70202D01*
X64446Y-70430D01*
X64514Y-70592D01*
X64594Y-70641D01*
X64945Y-70290D01*
X64945Y-70431D01*
X64664Y-70711D01*
X64713Y-70791D01*
X64928Y-70869D01*
X65156Y-70859D01*
X65318Y-70791D01*
X65367Y-70711D01*
X65367Y-74788D01*
X65318Y-74708D01*
X65103Y-74630D01*
X64875Y-74640D01*
X64713Y-74708D01*
X64664Y-74788D01*
X65016Y-75139D01*
X65367Y-74788D01*
X65367Y-74929D01*
X65086Y-75210D01*
X65437Y-75561D01*
X65517Y-75512D01*
X65595Y-75297D01*
X65595Y-75950D01*
X65367Y-75950D01*
X65367Y-75631D01*
X65016Y-75280D01*
X64945Y-75351D01*
X64945Y-75210D01*
X64594Y-74858D01*
X64514Y-74907D01*
X64436Y-75122D01*
X64446Y-75350D01*
X64514Y-75512D01*
X64594Y-75561D01*
X64945Y-75210D01*
X64945Y-75351D01*
X64664Y-75631D01*
X64713Y-75711D01*
X64928Y-75789D01*
X65156Y-75779D01*
X65318Y-75711D01*
X65367Y-75631D01*
X65367Y-75950D01*
X63205Y-75950D01*
X63205Y-72557D01*
X63192Y-72379D01*
X63148Y-72272D01*
X63081Y-72239D01*
X63010Y-72310D01*
X63010Y-72168D01*
X62977Y-72101D01*
X62807Y-72044D01*
X62629Y-72057D01*
X62522Y-72101D01*
X62489Y-72168D01*
X62750Y-72429D01*
X63010Y-72168D01*
X63010Y-72310D01*
X62820Y-72500D01*
X63081Y-72760D01*
X63148Y-72727D01*
X63205Y-72557D01*
X63205Y-75950D01*
X63010Y-75950D01*
X63010Y-72831D01*
X62750Y-72570D01*
X62679Y-72641D01*
X62679Y-72500D01*
X62418Y-72239D01*
X62351Y-72272D01*
X62294Y-72442D01*
X62307Y-72620D01*
X62351Y-72727D01*
X62418Y-72760D01*
X62679Y-72500D01*
X62679Y-72641D01*
X62489Y-72831D01*
X62522Y-72898D01*
X62692Y-72955D01*
X62870Y-72942D01*
X62977Y-72898D01*
X63010Y-72831D01*
X63010Y-75950D01*
X60950Y-75950D01*
X61094Y-75890D01*
X61389Y-75595D01*
X61549Y-75209D01*
X61550Y-74792D01*
X61390Y-74406D01*
X61205Y-74220D01*
X61205Y-71557D01*
X61192Y-71379D01*
X61148Y-71272D01*
X61081Y-71239D01*
X60820Y-71500D01*
X61081Y-71760D01*
X61148Y-71727D01*
X61205Y-71557D01*
X61205Y-74220D01*
X61095Y-74110D01*
X61010Y-74075D01*
X61010Y-71831D01*
X60750Y-71570D01*
X60679Y-71641D01*
X60679Y-71500D01*
X60418Y-71239D01*
X60351Y-71272D01*
X60294Y-71442D01*
X60307Y-71620D01*
X60351Y-71727D01*
X60418Y-71760D01*
X60679Y-71500D01*
X60679Y-71641D01*
X60489Y-71831D01*
X60522Y-71898D01*
X60692Y-71955D01*
X60870Y-71942D01*
X60977Y-71898D01*
X61010Y-71831D01*
X61010Y-74075D01*
X60709Y-73950D01*
X60292Y-73949D01*
X59906Y-74109D01*
X59610Y-74404D01*
X59550Y-74549D01*
X59550Y-65994D01*
X59619Y-65994D01*
X59813Y-65914D01*
X59961Y-65766D01*
X60007Y-65653D01*
X60054Y-65765D01*
X60201Y-65913D01*
X60394Y-65994D01*
X60604Y-65994D01*
X60797Y-65914D01*
X60945Y-65766D01*
X61025Y-65573D01*
X61025Y-65364D01*
X60945Y-65171D01*
X60928Y-65153D01*
X60928Y-63998D01*
X60500Y-63570D01*
X60429Y-63641D01*
X60429Y-63500D01*
X60001Y-63071D01*
X59909Y-63133D01*
X59814Y-63386D01*
X59823Y-63657D01*
X59909Y-63866D01*
X60001Y-63928D01*
X60429Y-63500D01*
X60429Y-63641D01*
X60071Y-63998D01*
X60133Y-64090D01*
X60386Y-64185D01*
X60657Y-64176D01*
X60866Y-64090D01*
X60928Y-63998D01*
X60928Y-65153D01*
X60798Y-65023D01*
X60605Y-64943D01*
X60395Y-64942D01*
X60202Y-65022D01*
X60054Y-65170D01*
X60007Y-65283D01*
X59961Y-65171D01*
X59813Y-65023D01*
X59620Y-64943D01*
X59550Y-64942D01*
X59550Y-62057D01*
X59619Y-62057D01*
X59813Y-61977D01*
X59961Y-61829D01*
X60007Y-61716D01*
X60054Y-61828D01*
X60201Y-61976D01*
X60394Y-62056D01*
X60604Y-62057D01*
X60797Y-61977D01*
X60945Y-61829D01*
X61025Y-61636D01*
X61025Y-61427D01*
X60945Y-61234D01*
X60798Y-61086D01*
X60605Y-61005D01*
X60395Y-61005D01*
X60202Y-61085D01*
X60054Y-61233D01*
X60007Y-61346D01*
X59961Y-61234D01*
X59813Y-61086D01*
X59620Y-61005D01*
X59550Y-61005D01*
X59550Y-58450D01*
X59609Y-58594D01*
X59904Y-58889D01*
X60290Y-59049D01*
X60707Y-59050D01*
X61094Y-58890D01*
X61389Y-58595D01*
X61549Y-58209D01*
X61550Y-57792D01*
X61390Y-57406D01*
X61095Y-57110D01*
X60950Y-57050D01*
X101661Y-57050D01*
X101630Y-57126D01*
X101629Y-57372D01*
X101724Y-57600D01*
X101898Y-57775D01*
X102126Y-57869D01*
X102372Y-57870D01*
X102600Y-57775D01*
X102775Y-57601D01*
X102869Y-57373D01*
X102870Y-57127D01*
X102838Y-57050D01*
X103661Y-57050D01*
X103630Y-57126D01*
X103629Y-57372D01*
X103724Y-57600D01*
X103898Y-57775D01*
X104126Y-57869D01*
X104372Y-57870D01*
X104600Y-57775D01*
X104775Y-57601D01*
X104869Y-57373D01*
X104870Y-57127D01*
X104838Y-57050D01*
X106549Y-57050D01*
X106406Y-57109D01*
X106110Y-57404D01*
X105950Y-57790D01*
X105949Y-58207D01*
X106109Y-58594D01*
X106404Y-58889D01*
X106790Y-59049D01*
X107207Y-59050D01*
X107594Y-58890D01*
X107889Y-58595D01*
X107950Y-58450D01*
X107950Y-74549D01*
M02*
