G04 (created by PCBNEW (2012-oct-18)-testing) date Fri 05 Jul 2013 12:14:27 PM EDT*
%MOIN*%
G04 Gerber Fmt 3.4, Leading zero omitted, Abs format*
%FSLAX34Y34*%
G01*
G70*
G90*
G04 APERTURE LIST*
%ADD10C,0.002*%
%ADD11C,0.00590551*%
%ADD12C,0.106299*%
%ADD13C,0.0629921*%
%ADD14C,0.0551181*%
%ADD15C,0.066*%
%ADD16C,0.06*%
%ADD17C,0.085*%
%ADD18R,0.06X0.06*%
%ADD19R,0.055X0.055*%
%ADD20C,0.055*%
%ADD21R,0.065X0.065*%
%ADD22C,0.065*%
%ADD23C,0.074*%
%ADD24C,0.16*%
%ADD25C,0.035*%
%ADD26C,0.01*%
G04 APERTURE END LIST*
G54D10*
G54D11*
X58750Y-75000D02*
X58750Y-58000D01*
X107250Y-76500D02*
X60250Y-76500D01*
X108750Y-58000D02*
X108750Y-75000D01*
X60250Y-56500D02*
X107250Y-56500D01*
X107250Y-76500D02*
G75*
G03X108750Y-75000I0J1500D01*
G74*
G01*
X108750Y-58000D02*
G75*
G03X107250Y-56500I-1500J0D01*
G74*
G01*
X58750Y-75000D02*
G75*
G03X60250Y-76500I1500J0D01*
G74*
G01*
X60250Y-56500D02*
G75*
G03X58750Y-58000I0J-1500D01*
G74*
G01*
G54D12*
X60500Y-63500D03*
X62468Y-61531D03*
X62468Y-65468D03*
G54D13*
X62468Y-63500D03*
G54D14*
X60500Y-65468D03*
X60500Y-61531D03*
X59515Y-61531D03*
X59515Y-65468D03*
G54D15*
X96250Y-59500D03*
X96250Y-58500D03*
G54D16*
X60250Y-71500D03*
X60250Y-70500D03*
X60250Y-69500D03*
G54D17*
X98210Y-64984D03*
X93290Y-64984D03*
X98210Y-63016D03*
X93290Y-63016D03*
X105210Y-64984D03*
X100290Y-64984D03*
X105210Y-63016D03*
X100290Y-63016D03*
X93234Y-70290D03*
X93234Y-75210D03*
X91266Y-70290D03*
X91266Y-75210D03*
X98484Y-70290D03*
X98484Y-75210D03*
X96516Y-70290D03*
X96516Y-75210D03*
X103734Y-70290D03*
X103734Y-75210D03*
X101766Y-70290D03*
X101766Y-75210D03*
X66984Y-70290D03*
X66984Y-75210D03*
X65016Y-70290D03*
X65016Y-75210D03*
X72234Y-70290D03*
X72234Y-75210D03*
X70266Y-70290D03*
X70266Y-75210D03*
X77484Y-70290D03*
X77484Y-75210D03*
X75516Y-70290D03*
X75516Y-75210D03*
X82734Y-70290D03*
X82734Y-75210D03*
X80766Y-70290D03*
X80766Y-75210D03*
X87984Y-70290D03*
X87984Y-75210D03*
X86016Y-70290D03*
X86016Y-75210D03*
G54D16*
X66750Y-64500D03*
X66750Y-60500D03*
X62250Y-68500D03*
X62250Y-72500D03*
X68750Y-60500D03*
X68750Y-64500D03*
X90750Y-66000D03*
X86750Y-66000D03*
X84250Y-66000D03*
X80250Y-66000D03*
X107250Y-63500D03*
X107250Y-67500D03*
X74500Y-58500D03*
X70500Y-58500D03*
X73750Y-66000D03*
X77750Y-66000D03*
X96250Y-60750D03*
X92250Y-60750D03*
G54D18*
X86250Y-58750D03*
G54D16*
X86250Y-57750D03*
X87250Y-58750D03*
X87250Y-57750D03*
X88250Y-58750D03*
X88250Y-57750D03*
G54D19*
X73250Y-64000D03*
G54D20*
X73250Y-63000D03*
X73250Y-62000D03*
X73250Y-61000D03*
X70250Y-61000D03*
X70250Y-62000D03*
X70250Y-63000D03*
X70250Y-64000D03*
X77250Y-63500D03*
X78250Y-63500D03*
X79250Y-63500D03*
X80250Y-63500D03*
X81250Y-63500D03*
X82250Y-63500D03*
X83250Y-63500D03*
X84250Y-63500D03*
X85250Y-63500D03*
X86250Y-63500D03*
X87250Y-63500D03*
X88250Y-63500D03*
X89250Y-63500D03*
G54D19*
X76250Y-63500D03*
G54D20*
X89250Y-60500D03*
X88250Y-60500D03*
X87250Y-60500D03*
X86250Y-60500D03*
X85250Y-60500D03*
X84250Y-60500D03*
X83250Y-60500D03*
X82250Y-60500D03*
X81250Y-60500D03*
X80250Y-60500D03*
X79250Y-60500D03*
X78250Y-60500D03*
X77250Y-60500D03*
X76250Y-60500D03*
G54D21*
X65750Y-58500D03*
G54D22*
X64750Y-58500D03*
G54D21*
X99500Y-59250D03*
G54D22*
X99500Y-60250D03*
G54D20*
X70750Y-66000D03*
X71750Y-66000D03*
X67750Y-66000D03*
X68750Y-66000D03*
X83250Y-58250D03*
X82250Y-58250D03*
X69000Y-59000D03*
X69000Y-58000D03*
G54D16*
X104250Y-60500D03*
X102250Y-60500D03*
G54D23*
X104250Y-58750D03*
X102250Y-58750D03*
X104250Y-57250D03*
X102250Y-57250D03*
G54D24*
X107250Y-58000D03*
X107250Y-75000D03*
X60250Y-75000D03*
X60250Y-58000D03*
G54D15*
X66000Y-68500D03*
X66000Y-67500D03*
X71250Y-68500D03*
X71250Y-67500D03*
X76500Y-68500D03*
X76500Y-67500D03*
X107250Y-62000D03*
X107250Y-61000D03*
X87000Y-68500D03*
X87000Y-67500D03*
X97500Y-68500D03*
X97500Y-67500D03*
X102750Y-68500D03*
X102750Y-67500D03*
X92250Y-68500D03*
X92250Y-67500D03*
X81750Y-68500D03*
X81750Y-67500D03*
G54D25*
X76500Y-71000D03*
X78250Y-71500D03*
X72250Y-72500D03*
X79250Y-75250D03*
X80250Y-65000D03*
X82750Y-65000D03*
X79750Y-74250D03*
X93250Y-73750D03*
X84750Y-73750D03*
X98500Y-72750D03*
X89250Y-72750D03*
X103750Y-71750D03*
X89750Y-62500D03*
X91500Y-62500D03*
X92250Y-71750D03*
X99500Y-65000D03*
X99500Y-62000D03*
X77250Y-62000D03*
X88750Y-65000D03*
X88750Y-62500D03*
X76250Y-62500D03*
X75500Y-61250D03*
X75250Y-68500D03*
X68750Y-68500D03*
X68750Y-67500D03*
X78750Y-68500D03*
X78750Y-67500D03*
X90250Y-68500D03*
X90250Y-67500D03*
X85750Y-66750D03*
X85750Y-65250D03*
X86750Y-65250D03*
X86750Y-61500D03*
X80250Y-61500D03*
X81250Y-61250D03*
X83750Y-61250D03*
X83750Y-71250D03*
X100250Y-71250D03*
X100250Y-68500D03*
X100250Y-67500D03*
X87750Y-64500D03*
X76250Y-66000D03*
X101000Y-61500D03*
X87250Y-61500D03*
X88250Y-66000D03*
G54D26*
X83250Y-58250D02*
X83750Y-58250D01*
X84250Y-58750D02*
X84250Y-60500D01*
X83750Y-58250D02*
X84250Y-58750D01*
X77250Y-63500D02*
X77250Y-69000D01*
X77250Y-69000D02*
X76500Y-69750D01*
X76500Y-69750D02*
X76500Y-71000D01*
X66984Y-75210D02*
X66984Y-70290D01*
X78250Y-63500D02*
X78250Y-71500D01*
X72250Y-72500D02*
X72234Y-72500D01*
X72234Y-72500D02*
X72250Y-72500D01*
X72250Y-72500D02*
X72234Y-72500D01*
X72234Y-70290D02*
X72234Y-72500D01*
X72234Y-72500D02*
X72234Y-75210D01*
X79250Y-63500D02*
X79250Y-74500D01*
X79250Y-74500D02*
X79250Y-75250D01*
X77484Y-75210D02*
X77484Y-70290D01*
X80250Y-63500D02*
X80250Y-64500D01*
X80250Y-64500D02*
X80250Y-65000D01*
X82734Y-70290D02*
X82734Y-65016D01*
X82734Y-65016D02*
X82750Y-65000D01*
X82734Y-75210D02*
X82734Y-70290D01*
X81250Y-63500D02*
X81250Y-66500D01*
X81250Y-66500D02*
X79750Y-68000D01*
X79750Y-68000D02*
X79750Y-74250D01*
X87984Y-70290D02*
X87984Y-75210D01*
X93234Y-75210D02*
X93234Y-73766D01*
X93234Y-73766D02*
X93250Y-73750D01*
X93234Y-73734D02*
X93234Y-70290D01*
X93250Y-73750D02*
X93234Y-73734D01*
X84750Y-68500D02*
X84750Y-73750D01*
X86250Y-63500D02*
X86250Y-67000D01*
X86250Y-67000D02*
X84750Y-68500D01*
X98484Y-70290D02*
X98484Y-72750D01*
X98484Y-72750D02*
X98484Y-75210D01*
X89250Y-63500D02*
X89250Y-72750D01*
X98500Y-72750D02*
X98484Y-72750D01*
X98484Y-72750D02*
X98500Y-72750D01*
X98500Y-72750D02*
X98484Y-72750D01*
X103750Y-71750D02*
X103734Y-71750D01*
X103734Y-71750D02*
X103750Y-71750D01*
X103750Y-71750D02*
X103734Y-71750D01*
X103734Y-70290D02*
X103734Y-71750D01*
X103734Y-71750D02*
X103734Y-75210D01*
X89250Y-60500D02*
X89250Y-61000D01*
X89750Y-61500D02*
X89750Y-62500D01*
X89250Y-61000D02*
X89750Y-61500D01*
X91500Y-62500D02*
X91500Y-62750D01*
X91500Y-62750D02*
X91500Y-69000D01*
X91500Y-69000D02*
X92250Y-69750D01*
X92250Y-69750D02*
X92250Y-71750D01*
X99500Y-62000D02*
X99500Y-65000D01*
X77250Y-60500D02*
X77250Y-62000D01*
X88750Y-62500D02*
X88750Y-65000D01*
X76250Y-60500D02*
X76250Y-62500D01*
X75500Y-68250D02*
X75500Y-61250D01*
X75250Y-68500D02*
X75500Y-68250D01*
X68750Y-67500D02*
X68750Y-68500D01*
X79250Y-60500D02*
X79250Y-62000D01*
X78750Y-62500D02*
X78750Y-67500D01*
X79250Y-62000D02*
X78750Y-62500D01*
X78750Y-67500D02*
X78750Y-68500D01*
X90250Y-67500D02*
X90250Y-68500D01*
X80250Y-60500D02*
X80250Y-61500D01*
X85750Y-65250D02*
X85750Y-66750D01*
X86750Y-61500D02*
X86750Y-65250D01*
X100250Y-68500D02*
X100250Y-71250D01*
X81250Y-61250D02*
X81250Y-60500D01*
X83750Y-71250D02*
X83750Y-61250D01*
X100250Y-67500D02*
X100250Y-68500D01*
X86250Y-60500D02*
X86250Y-58750D01*
X87250Y-60500D02*
X87250Y-60250D01*
X87750Y-58250D02*
X87250Y-57750D01*
X87750Y-59750D02*
X87750Y-58250D01*
X87250Y-60250D02*
X87750Y-59750D01*
X88250Y-58750D02*
X88250Y-59750D01*
X87750Y-60250D02*
X87750Y-64500D01*
X88250Y-59750D02*
X87750Y-60250D01*
X76250Y-66000D02*
X76250Y-63500D01*
X85250Y-60500D02*
X85250Y-58750D01*
X86750Y-58250D02*
X87250Y-58750D01*
X85750Y-58250D02*
X86750Y-58250D01*
X85250Y-58750D02*
X85750Y-58250D01*
X95750Y-60750D02*
X95500Y-60750D01*
X95250Y-60500D02*
X95250Y-60250D01*
X95500Y-60750D02*
X95250Y-60500D01*
X96250Y-58500D02*
X95500Y-58500D01*
X95750Y-60750D02*
X96250Y-60750D01*
X95250Y-58750D02*
X95250Y-60250D01*
X95500Y-58500D02*
X95250Y-58750D01*
X107250Y-62000D02*
X105750Y-62000D01*
X105250Y-61500D02*
X101000Y-61500D01*
X105750Y-62000D02*
X105250Y-61500D01*
X87250Y-62250D02*
X87250Y-61500D01*
X87250Y-62250D02*
X87250Y-63500D01*
X107250Y-62000D02*
X107250Y-63500D01*
X88250Y-66000D02*
X88250Y-63500D01*
G54D10*
G36*
X107950Y-74285D02*
X107817Y-74152D01*
X107780Y-74137D01*
X107780Y-61895D01*
X107699Y-61700D01*
X107550Y-61550D01*
X107427Y-61499D01*
X107549Y-61449D01*
X107699Y-61300D01*
X107779Y-61105D01*
X107780Y-60895D01*
X107699Y-60700D01*
X107550Y-60550D01*
X107355Y-60470D01*
X107145Y-60469D01*
X106950Y-60550D01*
X106800Y-60699D01*
X106720Y-60894D01*
X106719Y-61104D01*
X106800Y-61299D01*
X106949Y-61449D01*
X107072Y-61500D01*
X106950Y-61550D01*
X106800Y-61699D01*
X106779Y-61750D01*
X105853Y-61750D01*
X105426Y-61323D01*
X105345Y-61269D01*
X105250Y-61250D01*
X104820Y-61250D01*
X104820Y-58637D01*
X104733Y-58427D01*
X104573Y-58267D01*
X104363Y-58180D01*
X104137Y-58179D01*
X103927Y-58266D01*
X103767Y-58426D01*
X103680Y-58636D01*
X103679Y-58862D01*
X103766Y-59072D01*
X103926Y-59232D01*
X104136Y-59319D01*
X104362Y-59320D01*
X104572Y-59233D01*
X104732Y-59073D01*
X104819Y-58863D01*
X104820Y-58637D01*
X104820Y-61250D01*
X104750Y-61250D01*
X104750Y-60400D01*
X104674Y-60217D01*
X104533Y-60076D01*
X104349Y-60000D01*
X104150Y-59999D01*
X103967Y-60075D01*
X103826Y-60216D01*
X103750Y-60400D01*
X103749Y-60599D01*
X103825Y-60782D01*
X103966Y-60923D01*
X104150Y-60999D01*
X104349Y-61000D01*
X104532Y-60924D01*
X104673Y-60783D01*
X104749Y-60599D01*
X104750Y-60400D01*
X104750Y-61250D01*
X102820Y-61250D01*
X102820Y-58637D01*
X102733Y-58427D01*
X102573Y-58267D01*
X102363Y-58180D01*
X102137Y-58179D01*
X101927Y-58266D01*
X101767Y-58426D01*
X101680Y-58636D01*
X101679Y-58862D01*
X101766Y-59072D01*
X101926Y-59232D01*
X102136Y-59319D01*
X102362Y-59320D01*
X102572Y-59233D01*
X102732Y-59073D01*
X102819Y-58863D01*
X102820Y-58637D01*
X102820Y-61250D01*
X102705Y-61250D01*
X102705Y-60557D01*
X102692Y-60379D01*
X102648Y-60272D01*
X102581Y-60239D01*
X102510Y-60310D01*
X102510Y-60168D01*
X102477Y-60101D01*
X102307Y-60044D01*
X102129Y-60057D01*
X102022Y-60101D01*
X101989Y-60168D01*
X102250Y-60429D01*
X102510Y-60168D01*
X102510Y-60310D01*
X102320Y-60500D01*
X102581Y-60760D01*
X102648Y-60727D01*
X102705Y-60557D01*
X102705Y-61250D01*
X102510Y-61250D01*
X102510Y-60831D01*
X102250Y-60570D01*
X102179Y-60641D01*
X102179Y-60500D01*
X101918Y-60239D01*
X101851Y-60272D01*
X101794Y-60442D01*
X101807Y-60620D01*
X101851Y-60727D01*
X101918Y-60760D01*
X102179Y-60500D01*
X102179Y-60641D01*
X101989Y-60831D01*
X102022Y-60898D01*
X102192Y-60955D01*
X102370Y-60942D01*
X102477Y-60898D01*
X102510Y-60831D01*
X102510Y-61250D01*
X101280Y-61250D01*
X101212Y-61182D01*
X101074Y-61125D01*
X100925Y-61124D01*
X100787Y-61181D01*
X100682Y-61287D01*
X100625Y-61425D01*
X100624Y-61574D01*
X100681Y-61712D01*
X100787Y-61817D01*
X100925Y-61874D01*
X101074Y-61875D01*
X101212Y-61818D01*
X101280Y-61750D01*
X105146Y-61750D01*
X105573Y-62176D01*
X105654Y-62230D01*
X105750Y-62250D01*
X106779Y-62250D01*
X106800Y-62299D01*
X106949Y-62449D01*
X107000Y-62470D01*
X107000Y-63062D01*
X106967Y-63075D01*
X106826Y-63216D01*
X106750Y-63400D01*
X106749Y-63599D01*
X106825Y-63782D01*
X106966Y-63923D01*
X107150Y-63999D01*
X107349Y-64000D01*
X107532Y-63924D01*
X107673Y-63783D01*
X107749Y-63599D01*
X107750Y-63400D01*
X107674Y-63217D01*
X107533Y-63076D01*
X107500Y-63062D01*
X107500Y-62470D01*
X107549Y-62449D01*
X107699Y-62300D01*
X107779Y-62105D01*
X107780Y-61895D01*
X107780Y-74137D01*
X107705Y-74106D01*
X107705Y-67557D01*
X107692Y-67379D01*
X107648Y-67272D01*
X107581Y-67239D01*
X107510Y-67310D01*
X107510Y-67168D01*
X107477Y-67101D01*
X107307Y-67044D01*
X107129Y-67057D01*
X107022Y-67101D01*
X106989Y-67168D01*
X107250Y-67429D01*
X107510Y-67168D01*
X107510Y-67310D01*
X107320Y-67500D01*
X107581Y-67760D01*
X107648Y-67727D01*
X107705Y-67557D01*
X107705Y-74106D01*
X107510Y-74025D01*
X107510Y-67831D01*
X107250Y-67570D01*
X107179Y-67641D01*
X107179Y-67500D01*
X106918Y-67239D01*
X106851Y-67272D01*
X106794Y-67442D01*
X106807Y-67620D01*
X106851Y-67727D01*
X106918Y-67760D01*
X107179Y-67500D01*
X107179Y-67641D01*
X106989Y-67831D01*
X107022Y-67898D01*
X107192Y-67955D01*
X107370Y-67942D01*
X107477Y-67898D01*
X107510Y-67831D01*
X107510Y-74025D01*
X107449Y-74000D01*
X107051Y-73999D01*
X106684Y-74151D01*
X106402Y-74432D01*
X106250Y-74800D01*
X106249Y-75198D01*
X106401Y-75565D01*
X106682Y-75847D01*
X106930Y-75950D01*
X105835Y-75950D01*
X105835Y-64860D01*
X105789Y-64750D01*
X105789Y-63103D01*
X105779Y-62875D01*
X105711Y-62713D01*
X105631Y-62664D01*
X105561Y-62735D01*
X105561Y-62594D01*
X105512Y-62514D01*
X105297Y-62436D01*
X105069Y-62446D01*
X104907Y-62514D01*
X104858Y-62594D01*
X105210Y-62945D01*
X105561Y-62594D01*
X105561Y-62735D01*
X105280Y-63016D01*
X105631Y-63367D01*
X105711Y-63318D01*
X105789Y-63103D01*
X105789Y-64750D01*
X105740Y-64630D01*
X105564Y-64454D01*
X105561Y-64453D01*
X105561Y-63437D01*
X105210Y-63086D01*
X105139Y-63157D01*
X105139Y-63016D01*
X104788Y-62664D01*
X104708Y-62713D01*
X104630Y-62928D01*
X104640Y-63156D01*
X104708Y-63318D01*
X104788Y-63367D01*
X105139Y-63016D01*
X105139Y-63157D01*
X104858Y-63437D01*
X104907Y-63517D01*
X105122Y-63595D01*
X105350Y-63585D01*
X105512Y-63517D01*
X105561Y-63437D01*
X105561Y-64453D01*
X105334Y-64359D01*
X105086Y-64358D01*
X104856Y-64453D01*
X104680Y-64629D01*
X104585Y-64859D01*
X104584Y-65107D01*
X104679Y-65337D01*
X104855Y-65513D01*
X105085Y-65608D01*
X105333Y-65609D01*
X105563Y-65514D01*
X105739Y-65338D01*
X105834Y-65108D01*
X105835Y-64860D01*
X105835Y-75950D01*
X104359Y-75950D01*
X104359Y-75086D01*
X104264Y-74856D01*
X104088Y-74680D01*
X103984Y-74637D01*
X103984Y-72046D01*
X104067Y-71962D01*
X104124Y-71824D01*
X104125Y-71675D01*
X104068Y-71537D01*
X103984Y-71453D01*
X103984Y-70862D01*
X104087Y-70820D01*
X104263Y-70644D01*
X104358Y-70414D01*
X104359Y-70166D01*
X104264Y-69936D01*
X104088Y-69760D01*
X103858Y-69665D01*
X103610Y-69664D01*
X103380Y-69759D01*
X103280Y-69860D01*
X103280Y-68395D01*
X103235Y-68286D01*
X103235Y-67565D01*
X103223Y-67374D01*
X103173Y-67254D01*
X103102Y-67217D01*
X103032Y-67288D01*
X103032Y-67147D01*
X102995Y-67076D01*
X102815Y-67014D01*
X102624Y-67026D01*
X102504Y-67076D01*
X102467Y-67147D01*
X102750Y-67429D01*
X103032Y-67147D01*
X103032Y-67288D01*
X102820Y-67500D01*
X103102Y-67782D01*
X103173Y-67745D01*
X103235Y-67565D01*
X103235Y-68286D01*
X103199Y-68200D01*
X103050Y-68050D01*
X102864Y-67973D01*
X102875Y-67973D01*
X102995Y-67923D01*
X103032Y-67852D01*
X102750Y-67570D01*
X102679Y-67641D01*
X102679Y-67500D01*
X102397Y-67217D01*
X102326Y-67254D01*
X102264Y-67434D01*
X102276Y-67625D01*
X102326Y-67745D01*
X102397Y-67782D01*
X102679Y-67500D01*
X102679Y-67641D01*
X102467Y-67852D01*
X102504Y-67923D01*
X102643Y-67970D01*
X102450Y-68050D01*
X102300Y-68199D01*
X102220Y-68394D01*
X102219Y-68604D01*
X102300Y-68799D01*
X102449Y-68949D01*
X102644Y-69029D01*
X102854Y-69030D01*
X103049Y-68949D01*
X103199Y-68800D01*
X103279Y-68605D01*
X103280Y-68395D01*
X103280Y-69860D01*
X103204Y-69935D01*
X103109Y-70165D01*
X103108Y-70413D01*
X103203Y-70643D01*
X103379Y-70819D01*
X103484Y-70862D01*
X103484Y-71485D01*
X103432Y-71537D01*
X103375Y-71675D01*
X103374Y-71824D01*
X103431Y-71962D01*
X103484Y-72014D01*
X103484Y-74637D01*
X103380Y-74679D01*
X103204Y-74855D01*
X103109Y-75085D01*
X103108Y-75333D01*
X103203Y-75563D01*
X103379Y-75739D01*
X103609Y-75834D01*
X103857Y-75835D01*
X104087Y-75740D01*
X104263Y-75564D01*
X104358Y-75334D01*
X104359Y-75086D01*
X104359Y-75950D01*
X102345Y-75950D01*
X102345Y-75297D01*
X102345Y-70377D01*
X102335Y-70149D01*
X102267Y-69987D01*
X102187Y-69938D01*
X102117Y-70009D01*
X102117Y-69868D01*
X102068Y-69788D01*
X101853Y-69710D01*
X101625Y-69720D01*
X101463Y-69788D01*
X101414Y-69868D01*
X101766Y-70219D01*
X102117Y-69868D01*
X102117Y-70009D01*
X101836Y-70290D01*
X102187Y-70641D01*
X102267Y-70592D01*
X102345Y-70377D01*
X102345Y-75297D01*
X102335Y-75069D01*
X102267Y-74907D01*
X102187Y-74858D01*
X102117Y-74929D01*
X102117Y-74788D01*
X102117Y-70711D01*
X101766Y-70360D01*
X101695Y-70431D01*
X101695Y-70290D01*
X101344Y-69938D01*
X101264Y-69987D01*
X101186Y-70202D01*
X101196Y-70430D01*
X101264Y-70592D01*
X101344Y-70641D01*
X101695Y-70290D01*
X101695Y-70431D01*
X101414Y-70711D01*
X101463Y-70791D01*
X101678Y-70869D01*
X101906Y-70859D01*
X102068Y-70791D01*
X102117Y-70711D01*
X102117Y-74788D01*
X102068Y-74708D01*
X101853Y-74630D01*
X101625Y-74640D01*
X101463Y-74708D01*
X101414Y-74788D01*
X101766Y-75139D01*
X102117Y-74788D01*
X102117Y-74929D01*
X101836Y-75210D01*
X102187Y-75561D01*
X102267Y-75512D01*
X102345Y-75297D01*
X102345Y-75950D01*
X102117Y-75950D01*
X102117Y-75631D01*
X101766Y-75280D01*
X101695Y-75351D01*
X101695Y-75210D01*
X101344Y-74858D01*
X101264Y-74907D01*
X101186Y-75122D01*
X101196Y-75350D01*
X101264Y-75512D01*
X101344Y-75561D01*
X101695Y-75210D01*
X101695Y-75351D01*
X101414Y-75631D01*
X101463Y-75711D01*
X101678Y-75789D01*
X101906Y-75779D01*
X102068Y-75711D01*
X102117Y-75631D01*
X102117Y-75950D01*
X100915Y-75950D01*
X100915Y-64860D01*
X100869Y-64750D01*
X100869Y-63103D01*
X100859Y-62875D01*
X100791Y-62713D01*
X100711Y-62664D01*
X100641Y-62735D01*
X100641Y-62594D01*
X100592Y-62514D01*
X100377Y-62436D01*
X100149Y-62446D01*
X100025Y-62498D01*
X100025Y-59535D01*
X100025Y-58885D01*
X99994Y-58811D01*
X99938Y-58755D01*
X99864Y-58725D01*
X99785Y-58724D01*
X99135Y-58724D01*
X99061Y-58755D01*
X99005Y-58811D01*
X98975Y-58885D01*
X98974Y-58964D01*
X98974Y-59614D01*
X99005Y-59688D01*
X99061Y-59744D01*
X99135Y-59774D01*
X99214Y-59775D01*
X99484Y-59775D01*
X99375Y-59782D01*
X99257Y-59830D01*
X99221Y-59900D01*
X99500Y-60179D01*
X99778Y-59900D01*
X99742Y-59830D01*
X99578Y-59775D01*
X99864Y-59775D01*
X99938Y-59744D01*
X99994Y-59688D01*
X100024Y-59614D01*
X100025Y-59535D01*
X100025Y-62498D01*
X99987Y-62514D01*
X99980Y-62525D01*
X99980Y-60313D01*
X99967Y-60125D01*
X99919Y-60007D01*
X99849Y-59971D01*
X99570Y-60250D01*
X99849Y-60528D01*
X99919Y-60492D01*
X99980Y-60313D01*
X99980Y-62525D01*
X99938Y-62594D01*
X100290Y-62945D01*
X100641Y-62594D01*
X100641Y-62735D01*
X100360Y-63016D01*
X100711Y-63367D01*
X100791Y-63318D01*
X100869Y-63103D01*
X100869Y-64750D01*
X100820Y-64630D01*
X100644Y-64454D01*
X100641Y-64453D01*
X100641Y-63437D01*
X100290Y-63086D01*
X99938Y-63437D01*
X99987Y-63517D01*
X100202Y-63595D01*
X100430Y-63585D01*
X100592Y-63517D01*
X100641Y-63437D01*
X100641Y-64453D01*
X100414Y-64359D01*
X100166Y-64358D01*
X99936Y-64453D01*
X99760Y-64629D01*
X99750Y-64654D01*
X99750Y-63227D01*
X99788Y-63318D01*
X99868Y-63367D01*
X100219Y-63016D01*
X99868Y-62664D01*
X99788Y-62713D01*
X99750Y-62818D01*
X99750Y-62280D01*
X99817Y-62212D01*
X99874Y-62074D01*
X99875Y-61925D01*
X99818Y-61787D01*
X99778Y-61748D01*
X99778Y-60599D01*
X99500Y-60320D01*
X99429Y-60391D01*
X99429Y-60250D01*
X99150Y-59971D01*
X99080Y-60007D01*
X99019Y-60186D01*
X99032Y-60374D01*
X99080Y-60492D01*
X99150Y-60528D01*
X99429Y-60250D01*
X99429Y-60391D01*
X99221Y-60599D01*
X99257Y-60669D01*
X99436Y-60730D01*
X99624Y-60717D01*
X99742Y-60669D01*
X99778Y-60599D01*
X99778Y-61748D01*
X99712Y-61682D01*
X99574Y-61625D01*
X99425Y-61624D01*
X99287Y-61681D01*
X99182Y-61787D01*
X99125Y-61925D01*
X99124Y-62074D01*
X99181Y-62212D01*
X99250Y-62280D01*
X99250Y-64719D01*
X99182Y-64787D01*
X99125Y-64925D01*
X99124Y-65074D01*
X99181Y-65212D01*
X99287Y-65317D01*
X99425Y-65374D01*
X99574Y-65375D01*
X99712Y-65318D01*
X99740Y-65290D01*
X99759Y-65337D01*
X99935Y-65513D01*
X100165Y-65608D01*
X100413Y-65609D01*
X100643Y-65514D01*
X100819Y-65338D01*
X100914Y-65108D01*
X100915Y-64860D01*
X100915Y-75950D01*
X100625Y-75950D01*
X100625Y-71175D01*
X100568Y-71037D01*
X100500Y-70969D01*
X100500Y-68780D01*
X100567Y-68712D01*
X100624Y-68574D01*
X100625Y-68425D01*
X100568Y-68287D01*
X100500Y-68219D01*
X100500Y-67780D01*
X100567Y-67712D01*
X100624Y-67574D01*
X100625Y-67425D01*
X100568Y-67287D01*
X100462Y-67182D01*
X100324Y-67125D01*
X100175Y-67124D01*
X100037Y-67181D01*
X99932Y-67287D01*
X99875Y-67425D01*
X99874Y-67574D01*
X99931Y-67712D01*
X100000Y-67780D01*
X100000Y-68219D01*
X99932Y-68287D01*
X99875Y-68425D01*
X99874Y-68574D01*
X99931Y-68712D01*
X100000Y-68780D01*
X100000Y-70969D01*
X99932Y-71037D01*
X99875Y-71175D01*
X99874Y-71324D01*
X99931Y-71462D01*
X100037Y-71567D01*
X100175Y-71624D01*
X100324Y-71625D01*
X100462Y-71568D01*
X100567Y-71462D01*
X100624Y-71324D01*
X100625Y-71175D01*
X100625Y-75950D01*
X99109Y-75950D01*
X99109Y-75086D01*
X99014Y-74856D01*
X98838Y-74680D01*
X98734Y-74637D01*
X98734Y-73046D01*
X98817Y-72962D01*
X98874Y-72824D01*
X98875Y-72675D01*
X98818Y-72537D01*
X98734Y-72453D01*
X98734Y-70862D01*
X98837Y-70820D01*
X99013Y-70644D01*
X99108Y-70414D01*
X99109Y-70166D01*
X99014Y-69936D01*
X98838Y-69760D01*
X98835Y-69759D01*
X98835Y-64860D01*
X98789Y-64750D01*
X98789Y-63103D01*
X98779Y-62875D01*
X98711Y-62713D01*
X98631Y-62664D01*
X98561Y-62735D01*
X98561Y-62594D01*
X98512Y-62514D01*
X98297Y-62436D01*
X98069Y-62446D01*
X97907Y-62514D01*
X97858Y-62594D01*
X98210Y-62945D01*
X98561Y-62594D01*
X98561Y-62735D01*
X98280Y-63016D01*
X98631Y-63367D01*
X98711Y-63318D01*
X98789Y-63103D01*
X98789Y-64750D01*
X98740Y-64630D01*
X98564Y-64454D01*
X98561Y-64453D01*
X98561Y-63437D01*
X98210Y-63086D01*
X98139Y-63157D01*
X98139Y-63016D01*
X97788Y-62664D01*
X97708Y-62713D01*
X97630Y-62928D01*
X97640Y-63156D01*
X97708Y-63318D01*
X97788Y-63367D01*
X98139Y-63016D01*
X98139Y-63157D01*
X97858Y-63437D01*
X97907Y-63517D01*
X98122Y-63595D01*
X98350Y-63585D01*
X98512Y-63517D01*
X98561Y-63437D01*
X98561Y-64453D01*
X98334Y-64359D01*
X98086Y-64358D01*
X97856Y-64453D01*
X97680Y-64629D01*
X97585Y-64859D01*
X97584Y-65107D01*
X97679Y-65337D01*
X97855Y-65513D01*
X98085Y-65608D01*
X98333Y-65609D01*
X98563Y-65514D01*
X98739Y-65338D01*
X98834Y-65108D01*
X98835Y-64860D01*
X98835Y-69759D01*
X98608Y-69665D01*
X98360Y-69664D01*
X98130Y-69759D01*
X98030Y-69860D01*
X98030Y-68395D01*
X97949Y-68200D01*
X97800Y-68050D01*
X97677Y-67999D01*
X97799Y-67949D01*
X97949Y-67800D01*
X98029Y-67605D01*
X98030Y-67395D01*
X97949Y-67200D01*
X97800Y-67050D01*
X97605Y-66970D01*
X97395Y-66969D01*
X97200Y-67050D01*
X97050Y-67199D01*
X96970Y-67394D01*
X96969Y-67604D01*
X97050Y-67799D01*
X97199Y-67949D01*
X97322Y-68000D01*
X97200Y-68050D01*
X97050Y-68199D01*
X96970Y-68394D01*
X96969Y-68604D01*
X97050Y-68799D01*
X97199Y-68949D01*
X97394Y-69029D01*
X97604Y-69030D01*
X97799Y-68949D01*
X97949Y-68800D01*
X98029Y-68605D01*
X98030Y-68395D01*
X98030Y-69860D01*
X97954Y-69935D01*
X97859Y-70165D01*
X97858Y-70413D01*
X97953Y-70643D01*
X98129Y-70819D01*
X98234Y-70862D01*
X98234Y-72485D01*
X98182Y-72537D01*
X98125Y-72675D01*
X98124Y-72824D01*
X98181Y-72962D01*
X98234Y-73014D01*
X98234Y-74637D01*
X98130Y-74679D01*
X97954Y-74855D01*
X97859Y-75085D01*
X97858Y-75333D01*
X97953Y-75563D01*
X98129Y-75739D01*
X98359Y-75834D01*
X98607Y-75835D01*
X98837Y-75740D01*
X99013Y-75564D01*
X99108Y-75334D01*
X99109Y-75086D01*
X99109Y-75950D01*
X97095Y-75950D01*
X97095Y-75297D01*
X97095Y-70377D01*
X97085Y-70149D01*
X97017Y-69987D01*
X96937Y-69938D01*
X96867Y-70009D01*
X96867Y-69868D01*
X96818Y-69788D01*
X96780Y-69774D01*
X96780Y-59395D01*
X96699Y-59200D01*
X96550Y-59050D01*
X96427Y-58999D01*
X96549Y-58949D01*
X96699Y-58800D01*
X96779Y-58605D01*
X96780Y-58395D01*
X96699Y-58200D01*
X96550Y-58050D01*
X96355Y-57970D01*
X96145Y-57969D01*
X95950Y-58050D01*
X95800Y-58199D01*
X95779Y-58250D01*
X95500Y-58250D01*
X95404Y-58269D01*
X95323Y-58323D01*
X95323Y-58323D01*
X95073Y-58573D01*
X95019Y-58654D01*
X95000Y-58750D01*
X95000Y-60250D01*
X95000Y-60500D01*
X95019Y-60595D01*
X95073Y-60676D01*
X95323Y-60926D01*
X95323Y-60926D01*
X95404Y-60980D01*
X95404Y-60980D01*
X95500Y-61000D01*
X95750Y-61000D01*
X95812Y-61000D01*
X95825Y-61032D01*
X95966Y-61173D01*
X96150Y-61249D01*
X96349Y-61250D01*
X96532Y-61174D01*
X96673Y-61033D01*
X96749Y-60849D01*
X96750Y-60650D01*
X96674Y-60467D01*
X96533Y-60326D01*
X96349Y-60250D01*
X96150Y-60249D01*
X95967Y-60325D01*
X95826Y-60466D01*
X95812Y-60500D01*
X95750Y-60500D01*
X95603Y-60500D01*
X95500Y-60396D01*
X95500Y-60250D01*
X95500Y-58853D01*
X95603Y-58750D01*
X95779Y-58750D01*
X95800Y-58799D01*
X95949Y-58949D01*
X96072Y-59000D01*
X95950Y-59050D01*
X95800Y-59199D01*
X95720Y-59394D01*
X95719Y-59604D01*
X95800Y-59799D01*
X95949Y-59949D01*
X96144Y-60029D01*
X96354Y-60030D01*
X96549Y-59949D01*
X96699Y-59800D01*
X96779Y-59605D01*
X96780Y-59395D01*
X96780Y-69774D01*
X96603Y-69710D01*
X96375Y-69720D01*
X96213Y-69788D01*
X96164Y-69868D01*
X96516Y-70219D01*
X96867Y-69868D01*
X96867Y-70009D01*
X96586Y-70290D01*
X96937Y-70641D01*
X97017Y-70592D01*
X97095Y-70377D01*
X97095Y-75297D01*
X97085Y-75069D01*
X97017Y-74907D01*
X96937Y-74858D01*
X96867Y-74929D01*
X96867Y-74788D01*
X96867Y-70711D01*
X96516Y-70360D01*
X96445Y-70431D01*
X96445Y-70290D01*
X96094Y-69938D01*
X96014Y-69987D01*
X95936Y-70202D01*
X95946Y-70430D01*
X96014Y-70592D01*
X96094Y-70641D01*
X96445Y-70290D01*
X96445Y-70431D01*
X96164Y-70711D01*
X96213Y-70791D01*
X96428Y-70869D01*
X96656Y-70859D01*
X96818Y-70791D01*
X96867Y-70711D01*
X96867Y-74788D01*
X96818Y-74708D01*
X96603Y-74630D01*
X96375Y-74640D01*
X96213Y-74708D01*
X96164Y-74788D01*
X96516Y-75139D01*
X96867Y-74788D01*
X96867Y-74929D01*
X96586Y-75210D01*
X96937Y-75561D01*
X97017Y-75512D01*
X97095Y-75297D01*
X97095Y-75950D01*
X96867Y-75950D01*
X96867Y-75631D01*
X96516Y-75280D01*
X96445Y-75351D01*
X96445Y-75210D01*
X96094Y-74858D01*
X96014Y-74907D01*
X95936Y-75122D01*
X95946Y-75350D01*
X96014Y-75512D01*
X96094Y-75561D01*
X96445Y-75210D01*
X96445Y-75351D01*
X96164Y-75631D01*
X96213Y-75711D01*
X96428Y-75789D01*
X96656Y-75779D01*
X96818Y-75711D01*
X96867Y-75631D01*
X96867Y-75950D01*
X93915Y-75950D01*
X93915Y-64860D01*
X93869Y-64750D01*
X93869Y-63103D01*
X93859Y-62875D01*
X93791Y-62713D01*
X93711Y-62664D01*
X93641Y-62735D01*
X93641Y-62594D01*
X93592Y-62514D01*
X93377Y-62436D01*
X93149Y-62446D01*
X92987Y-62514D01*
X92938Y-62594D01*
X93290Y-62945D01*
X93641Y-62594D01*
X93641Y-62735D01*
X93360Y-63016D01*
X93711Y-63367D01*
X93791Y-63318D01*
X93869Y-63103D01*
X93869Y-64750D01*
X93820Y-64630D01*
X93644Y-64454D01*
X93641Y-64453D01*
X93641Y-63437D01*
X93290Y-63086D01*
X93219Y-63157D01*
X93219Y-63016D01*
X92868Y-62664D01*
X92788Y-62713D01*
X92710Y-62928D01*
X92720Y-63156D01*
X92788Y-63318D01*
X92868Y-63367D01*
X93219Y-63016D01*
X93219Y-63157D01*
X92938Y-63437D01*
X92987Y-63517D01*
X93202Y-63595D01*
X93430Y-63585D01*
X93592Y-63517D01*
X93641Y-63437D01*
X93641Y-64453D01*
X93414Y-64359D01*
X93166Y-64358D01*
X92936Y-64453D01*
X92760Y-64629D01*
X92705Y-64762D01*
X92705Y-60807D01*
X92692Y-60629D01*
X92648Y-60522D01*
X92581Y-60489D01*
X92510Y-60560D01*
X92510Y-60418D01*
X92477Y-60351D01*
X92307Y-60294D01*
X92129Y-60307D01*
X92022Y-60351D01*
X91989Y-60418D01*
X92250Y-60679D01*
X92510Y-60418D01*
X92510Y-60560D01*
X92320Y-60750D01*
X92581Y-61010D01*
X92648Y-60977D01*
X92705Y-60807D01*
X92705Y-64762D01*
X92665Y-64859D01*
X92664Y-65107D01*
X92759Y-65337D01*
X92935Y-65513D01*
X93165Y-65608D01*
X93413Y-65609D01*
X93643Y-65514D01*
X93819Y-65338D01*
X93914Y-65108D01*
X93915Y-64860D01*
X93915Y-75950D01*
X93859Y-75950D01*
X93859Y-75086D01*
X93764Y-74856D01*
X93588Y-74680D01*
X93484Y-74637D01*
X93484Y-74046D01*
X93567Y-73962D01*
X93624Y-73824D01*
X93625Y-73675D01*
X93568Y-73537D01*
X93484Y-73453D01*
X93484Y-70862D01*
X93587Y-70820D01*
X93763Y-70644D01*
X93858Y-70414D01*
X93859Y-70166D01*
X93764Y-69936D01*
X93588Y-69760D01*
X93358Y-69665D01*
X93110Y-69664D01*
X92880Y-69759D01*
X92780Y-69860D01*
X92780Y-68395D01*
X92735Y-68286D01*
X92735Y-67565D01*
X92723Y-67374D01*
X92673Y-67254D01*
X92602Y-67217D01*
X92532Y-67288D01*
X92532Y-67147D01*
X92510Y-67105D01*
X92510Y-61081D01*
X92250Y-60820D01*
X92179Y-60891D01*
X92179Y-60750D01*
X91918Y-60489D01*
X91851Y-60522D01*
X91794Y-60692D01*
X91807Y-60870D01*
X91851Y-60977D01*
X91918Y-61010D01*
X92179Y-60750D01*
X92179Y-60891D01*
X91989Y-61081D01*
X92022Y-61148D01*
X92192Y-61205D01*
X92370Y-61192D01*
X92477Y-61148D01*
X92510Y-61081D01*
X92510Y-67105D01*
X92495Y-67076D01*
X92315Y-67014D01*
X92124Y-67026D01*
X92004Y-67076D01*
X91967Y-67147D01*
X92250Y-67429D01*
X92532Y-67147D01*
X92532Y-67288D01*
X92320Y-67500D01*
X92602Y-67782D01*
X92673Y-67745D01*
X92735Y-67565D01*
X92735Y-68286D01*
X92699Y-68200D01*
X92550Y-68050D01*
X92364Y-67973D01*
X92375Y-67973D01*
X92495Y-67923D01*
X92532Y-67852D01*
X92250Y-67570D01*
X92179Y-67641D01*
X92179Y-67500D01*
X91897Y-67217D01*
X91826Y-67254D01*
X91764Y-67434D01*
X91776Y-67625D01*
X91826Y-67745D01*
X91897Y-67782D01*
X92179Y-67500D01*
X92179Y-67641D01*
X91967Y-67852D01*
X92004Y-67923D01*
X92143Y-67970D01*
X91950Y-68050D01*
X91800Y-68199D01*
X91750Y-68322D01*
X91750Y-62780D01*
X91817Y-62712D01*
X91874Y-62574D01*
X91875Y-62425D01*
X91818Y-62287D01*
X91712Y-62182D01*
X91574Y-62125D01*
X91425Y-62124D01*
X91287Y-62181D01*
X91182Y-62287D01*
X91125Y-62425D01*
X91124Y-62574D01*
X91181Y-62712D01*
X91250Y-62780D01*
X91250Y-65900D01*
X91174Y-65717D01*
X91033Y-65576D01*
X90849Y-65500D01*
X90650Y-65499D01*
X90467Y-65575D01*
X90326Y-65716D01*
X90250Y-65900D01*
X90249Y-66099D01*
X90325Y-66282D01*
X90466Y-66423D01*
X90650Y-66499D01*
X90849Y-66500D01*
X91032Y-66424D01*
X91173Y-66283D01*
X91249Y-66099D01*
X91250Y-65999D01*
X91250Y-69000D01*
X91269Y-69095D01*
X91323Y-69176D01*
X92000Y-69853D01*
X92000Y-71469D01*
X91932Y-71537D01*
X91875Y-71675D01*
X91874Y-71824D01*
X91931Y-71962D01*
X92037Y-72067D01*
X92175Y-72124D01*
X92324Y-72125D01*
X92462Y-72068D01*
X92567Y-71962D01*
X92624Y-71824D01*
X92625Y-71675D01*
X92568Y-71537D01*
X92500Y-71469D01*
X92500Y-69750D01*
X92499Y-69749D01*
X92500Y-69749D01*
X92496Y-69730D01*
X92480Y-69654D01*
X92480Y-69654D01*
X92426Y-69573D01*
X92426Y-69573D01*
X91750Y-68896D01*
X91750Y-68677D01*
X91800Y-68799D01*
X91949Y-68949D01*
X92144Y-69029D01*
X92354Y-69030D01*
X92549Y-68949D01*
X92699Y-68800D01*
X92779Y-68605D01*
X92780Y-68395D01*
X92780Y-69860D01*
X92704Y-69935D01*
X92609Y-70165D01*
X92608Y-70413D01*
X92703Y-70643D01*
X92879Y-70819D01*
X92984Y-70862D01*
X92984Y-73485D01*
X92932Y-73537D01*
X92875Y-73675D01*
X92874Y-73824D01*
X92931Y-73962D01*
X92984Y-74014D01*
X92984Y-74637D01*
X92880Y-74679D01*
X92704Y-74855D01*
X92609Y-75085D01*
X92608Y-75333D01*
X92703Y-75563D01*
X92879Y-75739D01*
X93109Y-75834D01*
X93357Y-75835D01*
X93587Y-75740D01*
X93763Y-75564D01*
X93858Y-75334D01*
X93859Y-75086D01*
X93859Y-75950D01*
X91845Y-75950D01*
X91845Y-75297D01*
X91845Y-70377D01*
X91835Y-70149D01*
X91767Y-69987D01*
X91687Y-69938D01*
X91617Y-70009D01*
X91617Y-69868D01*
X91568Y-69788D01*
X91353Y-69710D01*
X91125Y-69720D01*
X90963Y-69788D01*
X90914Y-69868D01*
X91266Y-70219D01*
X91617Y-69868D01*
X91617Y-70009D01*
X91336Y-70290D01*
X91687Y-70641D01*
X91767Y-70592D01*
X91845Y-70377D01*
X91845Y-75297D01*
X91835Y-75069D01*
X91767Y-74907D01*
X91687Y-74858D01*
X91617Y-74929D01*
X91617Y-74788D01*
X91617Y-70711D01*
X91266Y-70360D01*
X91195Y-70431D01*
X91195Y-70290D01*
X90844Y-69938D01*
X90764Y-69987D01*
X90686Y-70202D01*
X90696Y-70430D01*
X90764Y-70592D01*
X90844Y-70641D01*
X91195Y-70290D01*
X91195Y-70431D01*
X90914Y-70711D01*
X90963Y-70791D01*
X91178Y-70869D01*
X91406Y-70859D01*
X91568Y-70791D01*
X91617Y-70711D01*
X91617Y-74788D01*
X91568Y-74708D01*
X91353Y-74630D01*
X91125Y-74640D01*
X90963Y-74708D01*
X90914Y-74788D01*
X91266Y-75139D01*
X91617Y-74788D01*
X91617Y-74929D01*
X91336Y-75210D01*
X91687Y-75561D01*
X91767Y-75512D01*
X91845Y-75297D01*
X91845Y-75950D01*
X91617Y-75950D01*
X91617Y-75631D01*
X91266Y-75280D01*
X91195Y-75351D01*
X91195Y-75210D01*
X90844Y-74858D01*
X90764Y-74907D01*
X90686Y-75122D01*
X90696Y-75350D01*
X90764Y-75512D01*
X90844Y-75561D01*
X91195Y-75210D01*
X91195Y-75351D01*
X90914Y-75631D01*
X90963Y-75711D01*
X91178Y-75789D01*
X91406Y-75779D01*
X91568Y-75711D01*
X91617Y-75631D01*
X91617Y-75950D01*
X90625Y-75950D01*
X90625Y-68425D01*
X90568Y-68287D01*
X90500Y-68219D01*
X90500Y-67780D01*
X90567Y-67712D01*
X90624Y-67574D01*
X90625Y-67425D01*
X90568Y-67287D01*
X90462Y-67182D01*
X90324Y-67125D01*
X90175Y-67124D01*
X90125Y-67145D01*
X90125Y-62425D01*
X90068Y-62287D01*
X90000Y-62219D01*
X90000Y-61500D01*
X89980Y-61404D01*
X89926Y-61323D01*
X89510Y-60906D01*
X89518Y-60902D01*
X89652Y-60769D01*
X89724Y-60594D01*
X89725Y-60405D01*
X89652Y-60231D01*
X89519Y-60097D01*
X89344Y-60025D01*
X89155Y-60024D01*
X88981Y-60097D01*
X88847Y-60230D01*
X88775Y-60405D01*
X88774Y-60594D01*
X88847Y-60768D01*
X88980Y-60902D01*
X89000Y-60910D01*
X89000Y-61000D01*
X89019Y-61095D01*
X89073Y-61176D01*
X89500Y-61603D01*
X89500Y-62219D01*
X89432Y-62287D01*
X89375Y-62425D01*
X89374Y-62574D01*
X89431Y-62712D01*
X89537Y-62817D01*
X89675Y-62874D01*
X89824Y-62875D01*
X89962Y-62818D01*
X90067Y-62712D01*
X90124Y-62574D01*
X90125Y-62425D01*
X90125Y-67145D01*
X90037Y-67181D01*
X89932Y-67287D01*
X89875Y-67425D01*
X89874Y-67574D01*
X89931Y-67712D01*
X90000Y-67780D01*
X90000Y-68219D01*
X89932Y-68287D01*
X89875Y-68425D01*
X89874Y-68574D01*
X89931Y-68712D01*
X90037Y-68817D01*
X90175Y-68874D01*
X90324Y-68875D01*
X90462Y-68818D01*
X90567Y-68712D01*
X90624Y-68574D01*
X90625Y-68425D01*
X90625Y-75950D01*
X89725Y-75950D01*
X89725Y-63405D01*
X89652Y-63231D01*
X89519Y-63097D01*
X89344Y-63025D01*
X89155Y-63024D01*
X89000Y-63089D01*
X89000Y-62780D01*
X89067Y-62712D01*
X89124Y-62574D01*
X89125Y-62425D01*
X89068Y-62287D01*
X88962Y-62182D01*
X88824Y-62125D01*
X88675Y-62124D01*
X88537Y-62181D01*
X88432Y-62287D01*
X88375Y-62425D01*
X88374Y-62574D01*
X88431Y-62712D01*
X88500Y-62780D01*
X88500Y-63089D01*
X88344Y-63025D01*
X88155Y-63024D01*
X88000Y-63089D01*
X88000Y-60910D01*
X88155Y-60974D01*
X88344Y-60975D01*
X88518Y-60902D01*
X88652Y-60769D01*
X88724Y-60594D01*
X88725Y-60405D01*
X88652Y-60231D01*
X88519Y-60097D01*
X88344Y-60025D01*
X88328Y-60025D01*
X88426Y-59926D01*
X88480Y-59845D01*
X88500Y-59750D01*
X88500Y-59187D01*
X88532Y-59174D01*
X88673Y-59033D01*
X88749Y-58849D01*
X88750Y-58650D01*
X88705Y-58542D01*
X88705Y-57807D01*
X88692Y-57629D01*
X88648Y-57522D01*
X88581Y-57489D01*
X88510Y-57560D01*
X88510Y-57418D01*
X88477Y-57351D01*
X88307Y-57294D01*
X88129Y-57307D01*
X88022Y-57351D01*
X87989Y-57418D01*
X88250Y-57679D01*
X88510Y-57418D01*
X88510Y-57560D01*
X88320Y-57750D01*
X88581Y-58010D01*
X88648Y-57977D01*
X88705Y-57807D01*
X88705Y-58542D01*
X88674Y-58467D01*
X88533Y-58326D01*
X88510Y-58316D01*
X88349Y-58250D01*
X88150Y-58249D01*
X88000Y-58312D01*
X88000Y-58250D01*
X87980Y-58154D01*
X87928Y-58076D01*
X87996Y-58144D01*
X88012Y-58128D01*
X88022Y-58148D01*
X88192Y-58205D01*
X88370Y-58192D01*
X88477Y-58148D01*
X88510Y-58081D01*
X88285Y-57856D01*
X88250Y-57820D01*
X88179Y-57750D01*
X88143Y-57714D01*
X87918Y-57489D01*
X87851Y-57522D01*
X87794Y-57692D01*
X87807Y-57870D01*
X87851Y-57977D01*
X87871Y-57987D01*
X87856Y-58002D01*
X87736Y-57882D01*
X87749Y-57849D01*
X87750Y-57650D01*
X87674Y-57467D01*
X87533Y-57326D01*
X87349Y-57250D01*
X87150Y-57249D01*
X86967Y-57325D01*
X86826Y-57466D01*
X86750Y-57650D01*
X86749Y-57849D01*
X86817Y-58013D01*
X86750Y-58000D01*
X86687Y-58000D01*
X86749Y-57849D01*
X86750Y-57650D01*
X86674Y-57467D01*
X86533Y-57326D01*
X86349Y-57250D01*
X86150Y-57249D01*
X85967Y-57325D01*
X85826Y-57466D01*
X85750Y-57650D01*
X85749Y-57849D01*
X85812Y-58000D01*
X85750Y-58000D01*
X85654Y-58019D01*
X85573Y-58073D01*
X85073Y-58573D01*
X85019Y-58654D01*
X85000Y-58750D01*
X85000Y-60089D01*
X84981Y-60097D01*
X84847Y-60230D01*
X84775Y-60405D01*
X84774Y-60594D01*
X84847Y-60768D01*
X84980Y-60902D01*
X85155Y-60974D01*
X85344Y-60975D01*
X85518Y-60902D01*
X85652Y-60769D01*
X85724Y-60594D01*
X85725Y-60405D01*
X85652Y-60231D01*
X85519Y-60097D01*
X85500Y-60089D01*
X85500Y-58853D01*
X85749Y-58603D01*
X85749Y-59089D01*
X85780Y-59163D01*
X85836Y-59219D01*
X85910Y-59249D01*
X85989Y-59250D01*
X86000Y-59250D01*
X86000Y-60089D01*
X85981Y-60097D01*
X85847Y-60230D01*
X85775Y-60405D01*
X85774Y-60594D01*
X85847Y-60768D01*
X85980Y-60902D01*
X86155Y-60974D01*
X86344Y-60975D01*
X86518Y-60902D01*
X86652Y-60769D01*
X86724Y-60594D01*
X86725Y-60405D01*
X86652Y-60231D01*
X86519Y-60097D01*
X86500Y-60089D01*
X86500Y-59250D01*
X86589Y-59250D01*
X86663Y-59219D01*
X86719Y-59163D01*
X86749Y-59089D01*
X86750Y-59010D01*
X86750Y-58849D01*
X86825Y-59032D01*
X86966Y-59173D01*
X87150Y-59249D01*
X87349Y-59250D01*
X87500Y-59187D01*
X87500Y-59646D01*
X87097Y-60049D01*
X86981Y-60097D01*
X86847Y-60230D01*
X86775Y-60405D01*
X86774Y-60594D01*
X86847Y-60768D01*
X86980Y-60902D01*
X87155Y-60974D01*
X87344Y-60975D01*
X87500Y-60910D01*
X87500Y-61219D01*
X87462Y-61182D01*
X87324Y-61125D01*
X87175Y-61124D01*
X87037Y-61181D01*
X87000Y-61219D01*
X86962Y-61182D01*
X86824Y-61125D01*
X86675Y-61124D01*
X86537Y-61181D01*
X86432Y-61287D01*
X86375Y-61425D01*
X86374Y-61574D01*
X86431Y-61712D01*
X86500Y-61780D01*
X86500Y-63089D01*
X86344Y-63025D01*
X86155Y-63024D01*
X85981Y-63097D01*
X85847Y-63230D01*
X85775Y-63405D01*
X85774Y-63594D01*
X85847Y-63768D01*
X85980Y-63902D01*
X86000Y-63910D01*
X86000Y-64969D01*
X85962Y-64932D01*
X85824Y-64875D01*
X85725Y-64874D01*
X85725Y-63405D01*
X85652Y-63231D01*
X85519Y-63097D01*
X85344Y-63025D01*
X85155Y-63024D01*
X84981Y-63097D01*
X84847Y-63230D01*
X84775Y-63405D01*
X84774Y-63594D01*
X84847Y-63768D01*
X84980Y-63902D01*
X85155Y-63974D01*
X85344Y-63975D01*
X85518Y-63902D01*
X85652Y-63769D01*
X85724Y-63594D01*
X85725Y-63405D01*
X85725Y-64874D01*
X85675Y-64874D01*
X85537Y-64931D01*
X85432Y-65037D01*
X85375Y-65175D01*
X85374Y-65324D01*
X85431Y-65462D01*
X85500Y-65530D01*
X85500Y-66469D01*
X85432Y-66537D01*
X85375Y-66675D01*
X85374Y-66824D01*
X85431Y-66962D01*
X85537Y-67067D01*
X85675Y-67124D01*
X85771Y-67125D01*
X84750Y-68146D01*
X84750Y-65900D01*
X84674Y-65717D01*
X84533Y-65576D01*
X84349Y-65500D01*
X84150Y-65499D01*
X84000Y-65562D01*
X84000Y-63910D01*
X84155Y-63974D01*
X84344Y-63975D01*
X84518Y-63902D01*
X84652Y-63769D01*
X84724Y-63594D01*
X84725Y-63405D01*
X84725Y-60405D01*
X84652Y-60231D01*
X84519Y-60097D01*
X84500Y-60089D01*
X84500Y-58750D01*
X84480Y-58654D01*
X84426Y-58573D01*
X83926Y-58073D01*
X83845Y-58019D01*
X83750Y-58000D01*
X83660Y-58000D01*
X83652Y-57981D01*
X83519Y-57847D01*
X83344Y-57775D01*
X83155Y-57774D01*
X82981Y-57847D01*
X82847Y-57980D01*
X82775Y-58155D01*
X82774Y-58344D01*
X82847Y-58518D01*
X82980Y-58652D01*
X83155Y-58724D01*
X83344Y-58725D01*
X83518Y-58652D01*
X83652Y-58519D01*
X83656Y-58509D01*
X84000Y-58853D01*
X84000Y-60089D01*
X83981Y-60097D01*
X83847Y-60230D01*
X83775Y-60405D01*
X83774Y-60594D01*
X83847Y-60768D01*
X83980Y-60902D01*
X84155Y-60974D01*
X84344Y-60975D01*
X84518Y-60902D01*
X84652Y-60769D01*
X84724Y-60594D01*
X84725Y-60405D01*
X84725Y-63405D01*
X84652Y-63231D01*
X84519Y-63097D01*
X84344Y-63025D01*
X84155Y-63024D01*
X84000Y-63089D01*
X84000Y-61530D01*
X84067Y-61462D01*
X84124Y-61324D01*
X84125Y-61175D01*
X84068Y-61037D01*
X83962Y-60932D01*
X83824Y-60875D01*
X83725Y-60874D01*
X83725Y-60405D01*
X83652Y-60231D01*
X83519Y-60097D01*
X83344Y-60025D01*
X83155Y-60024D01*
X82981Y-60097D01*
X82847Y-60230D01*
X82775Y-60405D01*
X82774Y-60594D01*
X82847Y-60768D01*
X82980Y-60902D01*
X83155Y-60974D01*
X83344Y-60975D01*
X83518Y-60902D01*
X83652Y-60769D01*
X83724Y-60594D01*
X83725Y-60405D01*
X83725Y-60874D01*
X83675Y-60874D01*
X83537Y-60931D01*
X83432Y-61037D01*
X83375Y-61175D01*
X83374Y-61324D01*
X83431Y-61462D01*
X83500Y-61530D01*
X83500Y-63138D01*
X83485Y-63123D01*
X83470Y-63138D01*
X83462Y-63122D01*
X83301Y-63069D01*
X83133Y-63082D01*
X83037Y-63122D01*
X83007Y-63186D01*
X83214Y-63393D01*
X83214Y-63393D01*
X83250Y-63429D01*
X83320Y-63500D01*
X83250Y-63570D01*
X83214Y-63606D01*
X83179Y-63641D01*
X83179Y-63500D01*
X82936Y-63257D01*
X82872Y-63287D01*
X82819Y-63448D01*
X82832Y-63616D01*
X82872Y-63712D01*
X82936Y-63742D01*
X83179Y-63500D01*
X83179Y-63641D01*
X83007Y-63813D01*
X83037Y-63877D01*
X83198Y-63930D01*
X83366Y-63917D01*
X83462Y-63877D01*
X83470Y-63861D01*
X83485Y-63876D01*
X83492Y-63869D01*
X83500Y-63861D01*
X83500Y-70969D01*
X83492Y-70977D01*
X83432Y-71037D01*
X83375Y-71175D01*
X83374Y-71324D01*
X83431Y-71462D01*
X83537Y-71567D01*
X83675Y-71624D01*
X83824Y-71625D01*
X83962Y-71568D01*
X84067Y-71462D01*
X84124Y-71324D01*
X84125Y-71175D01*
X84068Y-71037D01*
X84000Y-70969D01*
X84000Y-66437D01*
X84150Y-66499D01*
X84349Y-66500D01*
X84532Y-66424D01*
X84673Y-66283D01*
X84749Y-66099D01*
X84750Y-65900D01*
X84750Y-68146D01*
X84573Y-68323D01*
X84519Y-68404D01*
X84500Y-68500D01*
X84500Y-73469D01*
X84432Y-73537D01*
X84375Y-73675D01*
X84374Y-73824D01*
X84431Y-73962D01*
X84537Y-74067D01*
X84675Y-74124D01*
X84824Y-74125D01*
X84962Y-74068D01*
X85067Y-73962D01*
X85124Y-73824D01*
X85125Y-73675D01*
X85068Y-73537D01*
X85000Y-73469D01*
X85000Y-68603D01*
X86426Y-67176D01*
X86426Y-67176D01*
X86426Y-67176D01*
X86480Y-67095D01*
X86480Y-67095D01*
X86500Y-67000D01*
X86500Y-66437D01*
X86650Y-66499D01*
X86849Y-66500D01*
X87032Y-66424D01*
X87173Y-66283D01*
X87249Y-66099D01*
X87250Y-65900D01*
X87174Y-65717D01*
X87033Y-65576D01*
X86977Y-65552D01*
X87067Y-65462D01*
X87124Y-65324D01*
X87125Y-65175D01*
X87068Y-65037D01*
X87000Y-64969D01*
X87000Y-63910D01*
X87155Y-63974D01*
X87344Y-63975D01*
X87500Y-63910D01*
X87500Y-64219D01*
X87432Y-64287D01*
X87375Y-64425D01*
X87374Y-64574D01*
X87431Y-64712D01*
X87537Y-64817D01*
X87675Y-64874D01*
X87824Y-64875D01*
X87962Y-64818D01*
X88000Y-64780D01*
X88000Y-65719D01*
X87932Y-65787D01*
X87875Y-65925D01*
X87874Y-66074D01*
X87931Y-66212D01*
X88037Y-66317D01*
X88175Y-66374D01*
X88324Y-66375D01*
X88462Y-66318D01*
X88567Y-66212D01*
X88624Y-66074D01*
X88625Y-65925D01*
X88568Y-65787D01*
X88500Y-65719D01*
X88500Y-65280D01*
X88537Y-65317D01*
X88675Y-65374D01*
X88824Y-65375D01*
X88962Y-65318D01*
X89000Y-65280D01*
X89000Y-72469D01*
X88932Y-72537D01*
X88875Y-72675D01*
X88874Y-72824D01*
X88931Y-72962D01*
X89037Y-73067D01*
X89175Y-73124D01*
X89324Y-73125D01*
X89462Y-73068D01*
X89567Y-72962D01*
X89624Y-72824D01*
X89625Y-72675D01*
X89568Y-72537D01*
X89500Y-72469D01*
X89500Y-63910D01*
X89518Y-63902D01*
X89652Y-63769D01*
X89724Y-63594D01*
X89725Y-63405D01*
X89725Y-75950D01*
X88609Y-75950D01*
X88609Y-75086D01*
X88514Y-74856D01*
X88338Y-74680D01*
X88234Y-74637D01*
X88234Y-70862D01*
X88337Y-70820D01*
X88513Y-70644D01*
X88608Y-70414D01*
X88609Y-70166D01*
X88514Y-69936D01*
X88338Y-69760D01*
X88108Y-69665D01*
X87860Y-69664D01*
X87630Y-69759D01*
X87530Y-69860D01*
X87530Y-68395D01*
X87449Y-68200D01*
X87300Y-68050D01*
X87177Y-67999D01*
X87299Y-67949D01*
X87449Y-67800D01*
X87529Y-67605D01*
X87530Y-67395D01*
X87449Y-67200D01*
X87300Y-67050D01*
X87105Y-66970D01*
X86895Y-66969D01*
X86700Y-67050D01*
X86550Y-67199D01*
X86470Y-67394D01*
X86469Y-67604D01*
X86550Y-67799D01*
X86699Y-67949D01*
X86822Y-68000D01*
X86700Y-68050D01*
X86550Y-68199D01*
X86470Y-68394D01*
X86469Y-68604D01*
X86550Y-68799D01*
X86699Y-68949D01*
X86894Y-69029D01*
X87104Y-69030D01*
X87299Y-68949D01*
X87449Y-68800D01*
X87529Y-68605D01*
X87530Y-68395D01*
X87530Y-69860D01*
X87454Y-69935D01*
X87359Y-70165D01*
X87358Y-70413D01*
X87453Y-70643D01*
X87629Y-70819D01*
X87734Y-70862D01*
X87734Y-74637D01*
X87630Y-74679D01*
X87454Y-74855D01*
X87359Y-75085D01*
X87358Y-75333D01*
X87453Y-75563D01*
X87629Y-75739D01*
X87859Y-75834D01*
X88107Y-75835D01*
X88337Y-75740D01*
X88513Y-75564D01*
X88608Y-75334D01*
X88609Y-75086D01*
X88609Y-75950D01*
X86595Y-75950D01*
X86595Y-75297D01*
X86595Y-70377D01*
X86585Y-70149D01*
X86517Y-69987D01*
X86437Y-69938D01*
X86367Y-70009D01*
X86367Y-69868D01*
X86318Y-69788D01*
X86103Y-69710D01*
X85875Y-69720D01*
X85713Y-69788D01*
X85664Y-69868D01*
X86016Y-70219D01*
X86367Y-69868D01*
X86367Y-70009D01*
X86086Y-70290D01*
X86437Y-70641D01*
X86517Y-70592D01*
X86595Y-70377D01*
X86595Y-75297D01*
X86585Y-75069D01*
X86517Y-74907D01*
X86437Y-74858D01*
X86367Y-74929D01*
X86367Y-74788D01*
X86367Y-70711D01*
X86016Y-70360D01*
X85945Y-70431D01*
X85945Y-70290D01*
X85594Y-69938D01*
X85514Y-69987D01*
X85436Y-70202D01*
X85446Y-70430D01*
X85514Y-70592D01*
X85594Y-70641D01*
X85945Y-70290D01*
X85945Y-70431D01*
X85664Y-70711D01*
X85713Y-70791D01*
X85928Y-70869D01*
X86156Y-70859D01*
X86318Y-70791D01*
X86367Y-70711D01*
X86367Y-74788D01*
X86318Y-74708D01*
X86103Y-74630D01*
X85875Y-74640D01*
X85713Y-74708D01*
X85664Y-74788D01*
X86016Y-75139D01*
X86367Y-74788D01*
X86367Y-74929D01*
X86086Y-75210D01*
X86437Y-75561D01*
X86517Y-75512D01*
X86595Y-75297D01*
X86595Y-75950D01*
X86367Y-75950D01*
X86367Y-75631D01*
X86016Y-75280D01*
X85945Y-75351D01*
X85945Y-75210D01*
X85594Y-74858D01*
X85514Y-74907D01*
X85436Y-75122D01*
X85446Y-75350D01*
X85514Y-75512D01*
X85594Y-75561D01*
X85945Y-75210D01*
X85945Y-75351D01*
X85664Y-75631D01*
X85713Y-75711D01*
X85928Y-75789D01*
X86156Y-75779D01*
X86318Y-75711D01*
X86367Y-75631D01*
X86367Y-75950D01*
X83359Y-75950D01*
X83359Y-75086D01*
X83264Y-74856D01*
X83088Y-74680D01*
X82984Y-74637D01*
X82984Y-70862D01*
X83087Y-70820D01*
X83263Y-70644D01*
X83358Y-70414D01*
X83359Y-70166D01*
X83264Y-69936D01*
X83088Y-69760D01*
X82984Y-69717D01*
X82984Y-65296D01*
X83067Y-65212D01*
X83124Y-65074D01*
X83125Y-64925D01*
X83068Y-64787D01*
X82962Y-64682D01*
X82824Y-64625D01*
X82725Y-64624D01*
X82725Y-63405D01*
X82680Y-63297D01*
X82680Y-60551D01*
X82680Y-58301D01*
X82667Y-58133D01*
X82627Y-58037D01*
X82563Y-58007D01*
X82492Y-58078D01*
X82492Y-57936D01*
X82462Y-57872D01*
X82301Y-57819D01*
X82133Y-57832D01*
X82037Y-57872D01*
X82007Y-57936D01*
X82250Y-58179D01*
X82492Y-57936D01*
X82492Y-58078D01*
X82320Y-58250D01*
X82563Y-58492D01*
X82627Y-58462D01*
X82680Y-58301D01*
X82680Y-60551D01*
X82667Y-60383D01*
X82627Y-60287D01*
X82563Y-60257D01*
X82492Y-60328D01*
X82492Y-60186D01*
X82492Y-58563D01*
X82250Y-58320D01*
X82179Y-58391D01*
X82179Y-58250D01*
X81936Y-58007D01*
X81872Y-58037D01*
X81819Y-58198D01*
X81832Y-58366D01*
X81872Y-58462D01*
X81936Y-58492D01*
X82179Y-58250D01*
X82179Y-58391D01*
X82007Y-58563D01*
X82037Y-58627D01*
X82198Y-58680D01*
X82366Y-58667D01*
X82462Y-58627D01*
X82492Y-58563D01*
X82492Y-60186D01*
X82462Y-60122D01*
X82301Y-60069D01*
X82133Y-60082D01*
X82037Y-60122D01*
X82007Y-60186D01*
X82250Y-60429D01*
X82492Y-60186D01*
X82492Y-60328D01*
X82320Y-60500D01*
X82563Y-60742D01*
X82627Y-60712D01*
X82680Y-60551D01*
X82680Y-63297D01*
X82652Y-63231D01*
X82519Y-63097D01*
X82492Y-63086D01*
X82492Y-60813D01*
X82250Y-60570D01*
X82179Y-60641D01*
X82179Y-60500D01*
X81936Y-60257D01*
X81872Y-60287D01*
X81819Y-60448D01*
X81832Y-60616D01*
X81872Y-60712D01*
X81936Y-60742D01*
X82179Y-60500D01*
X82179Y-60641D01*
X82007Y-60813D01*
X82037Y-60877D01*
X82198Y-60930D01*
X82366Y-60917D01*
X82462Y-60877D01*
X82492Y-60813D01*
X82492Y-63086D01*
X82344Y-63025D01*
X82155Y-63024D01*
X81981Y-63097D01*
X81847Y-63230D01*
X81775Y-63405D01*
X81774Y-63594D01*
X81847Y-63768D01*
X81980Y-63902D01*
X82155Y-63974D01*
X82344Y-63975D01*
X82518Y-63902D01*
X82652Y-63769D01*
X82724Y-63594D01*
X82725Y-63405D01*
X82725Y-64624D01*
X82675Y-64624D01*
X82537Y-64681D01*
X82432Y-64787D01*
X82375Y-64925D01*
X82374Y-65074D01*
X82431Y-65212D01*
X82484Y-65264D01*
X82484Y-69717D01*
X82380Y-69759D01*
X82280Y-69860D01*
X82280Y-68395D01*
X82235Y-68286D01*
X82235Y-67565D01*
X82223Y-67374D01*
X82173Y-67254D01*
X82102Y-67217D01*
X82032Y-67288D01*
X82032Y-67147D01*
X81995Y-67076D01*
X81815Y-67014D01*
X81725Y-67020D01*
X81725Y-63405D01*
X81725Y-60405D01*
X81652Y-60231D01*
X81519Y-60097D01*
X81344Y-60025D01*
X81155Y-60024D01*
X80981Y-60097D01*
X80847Y-60230D01*
X80775Y-60405D01*
X80774Y-60594D01*
X80847Y-60768D01*
X80980Y-60902D01*
X81000Y-60910D01*
X81000Y-60969D01*
X80932Y-61037D01*
X80875Y-61175D01*
X80874Y-61324D01*
X80931Y-61462D01*
X81037Y-61567D01*
X81175Y-61624D01*
X81324Y-61625D01*
X81462Y-61568D01*
X81567Y-61462D01*
X81624Y-61324D01*
X81625Y-61175D01*
X81568Y-61037D01*
X81500Y-60969D01*
X81500Y-60910D01*
X81518Y-60902D01*
X81652Y-60769D01*
X81724Y-60594D01*
X81725Y-60405D01*
X81725Y-63405D01*
X81652Y-63231D01*
X81519Y-63097D01*
X81344Y-63025D01*
X81155Y-63024D01*
X80981Y-63097D01*
X80847Y-63230D01*
X80775Y-63405D01*
X80774Y-63594D01*
X80847Y-63768D01*
X80980Y-63902D01*
X81000Y-63910D01*
X81000Y-66396D01*
X80725Y-66671D01*
X80725Y-63405D01*
X80725Y-60405D01*
X80652Y-60231D01*
X80519Y-60097D01*
X80344Y-60025D01*
X80155Y-60024D01*
X79981Y-60097D01*
X79847Y-60230D01*
X79775Y-60405D01*
X79774Y-60594D01*
X79847Y-60768D01*
X79980Y-60902D01*
X80000Y-60910D01*
X80000Y-61219D01*
X79932Y-61287D01*
X79875Y-61425D01*
X79874Y-61574D01*
X79931Y-61712D01*
X80037Y-61817D01*
X80175Y-61874D01*
X80324Y-61875D01*
X80462Y-61818D01*
X80567Y-61712D01*
X80624Y-61574D01*
X80625Y-61425D01*
X80568Y-61287D01*
X80500Y-61219D01*
X80500Y-60910D01*
X80518Y-60902D01*
X80652Y-60769D01*
X80724Y-60594D01*
X80725Y-60405D01*
X80725Y-63405D01*
X80652Y-63231D01*
X80519Y-63097D01*
X80344Y-63025D01*
X80155Y-63024D01*
X79981Y-63097D01*
X79847Y-63230D01*
X79775Y-63405D01*
X79774Y-63594D01*
X79847Y-63768D01*
X79980Y-63902D01*
X80000Y-63910D01*
X80000Y-64500D01*
X80000Y-64719D01*
X79932Y-64787D01*
X79875Y-64925D01*
X79874Y-65074D01*
X79931Y-65212D01*
X80037Y-65317D01*
X80175Y-65374D01*
X80324Y-65375D01*
X80462Y-65318D01*
X80567Y-65212D01*
X80624Y-65074D01*
X80625Y-64925D01*
X80568Y-64787D01*
X80500Y-64719D01*
X80500Y-64500D01*
X80500Y-63910D01*
X80518Y-63902D01*
X80652Y-63769D01*
X80724Y-63594D01*
X80725Y-63405D01*
X80725Y-66671D01*
X80705Y-66691D01*
X80705Y-66057D01*
X80692Y-65879D01*
X80648Y-65772D01*
X80581Y-65739D01*
X80510Y-65810D01*
X80510Y-65668D01*
X80477Y-65601D01*
X80307Y-65544D01*
X80129Y-65557D01*
X80022Y-65601D01*
X79989Y-65668D01*
X80250Y-65929D01*
X80510Y-65668D01*
X80510Y-65810D01*
X80320Y-66000D01*
X80581Y-66260D01*
X80648Y-66227D01*
X80705Y-66057D01*
X80705Y-66691D01*
X80510Y-66885D01*
X80510Y-66331D01*
X80250Y-66070D01*
X80179Y-66141D01*
X80179Y-66000D01*
X79918Y-65739D01*
X79851Y-65772D01*
X79794Y-65942D01*
X79807Y-66120D01*
X79851Y-66227D01*
X79918Y-66260D01*
X80179Y-66000D01*
X80179Y-66141D01*
X79989Y-66331D01*
X80022Y-66398D01*
X80192Y-66455D01*
X80370Y-66442D01*
X80477Y-66398D01*
X80510Y-66331D01*
X80510Y-66885D01*
X79573Y-67823D01*
X79519Y-67904D01*
X79500Y-68000D01*
X79500Y-63910D01*
X79518Y-63902D01*
X79652Y-63769D01*
X79724Y-63594D01*
X79725Y-63405D01*
X79652Y-63231D01*
X79519Y-63097D01*
X79344Y-63025D01*
X79155Y-63024D01*
X79000Y-63089D01*
X79000Y-62603D01*
X79426Y-62176D01*
X79480Y-62095D01*
X79500Y-62000D01*
X79500Y-60910D01*
X79518Y-60902D01*
X79652Y-60769D01*
X79724Y-60594D01*
X79725Y-60405D01*
X79652Y-60231D01*
X79519Y-60097D01*
X79344Y-60025D01*
X79155Y-60024D01*
X78981Y-60097D01*
X78847Y-60230D01*
X78775Y-60405D01*
X78774Y-60594D01*
X78847Y-60768D01*
X78980Y-60902D01*
X79000Y-60910D01*
X79000Y-61896D01*
X78725Y-62171D01*
X78725Y-60405D01*
X78652Y-60231D01*
X78519Y-60097D01*
X78344Y-60025D01*
X78155Y-60024D01*
X77981Y-60097D01*
X77847Y-60230D01*
X77775Y-60405D01*
X77774Y-60594D01*
X77847Y-60768D01*
X77980Y-60902D01*
X78155Y-60974D01*
X78344Y-60975D01*
X78518Y-60902D01*
X78652Y-60769D01*
X78724Y-60594D01*
X78725Y-60405D01*
X78725Y-62171D01*
X78573Y-62323D01*
X78519Y-62404D01*
X78500Y-62500D01*
X78500Y-63089D01*
X78344Y-63025D01*
X78155Y-63024D01*
X77981Y-63097D01*
X77847Y-63230D01*
X77775Y-63405D01*
X77774Y-63594D01*
X77847Y-63768D01*
X77980Y-63902D01*
X78000Y-63910D01*
X78000Y-65562D01*
X77849Y-65500D01*
X77650Y-65499D01*
X77500Y-65562D01*
X77500Y-63910D01*
X77518Y-63902D01*
X77652Y-63769D01*
X77724Y-63594D01*
X77725Y-63405D01*
X77725Y-60405D01*
X77652Y-60231D01*
X77519Y-60097D01*
X77344Y-60025D01*
X77155Y-60024D01*
X76981Y-60097D01*
X76847Y-60230D01*
X76775Y-60405D01*
X76774Y-60594D01*
X76847Y-60768D01*
X76980Y-60902D01*
X77000Y-60910D01*
X77000Y-61719D01*
X76932Y-61787D01*
X76875Y-61925D01*
X76874Y-62074D01*
X76931Y-62212D01*
X77037Y-62317D01*
X77175Y-62374D01*
X77324Y-62375D01*
X77462Y-62318D01*
X77567Y-62212D01*
X77624Y-62074D01*
X77625Y-61925D01*
X77568Y-61787D01*
X77500Y-61719D01*
X77500Y-60910D01*
X77518Y-60902D01*
X77652Y-60769D01*
X77724Y-60594D01*
X77725Y-60405D01*
X77725Y-63405D01*
X77652Y-63231D01*
X77519Y-63097D01*
X77344Y-63025D01*
X77155Y-63024D01*
X76981Y-63097D01*
X76847Y-63230D01*
X76775Y-63405D01*
X76774Y-63594D01*
X76847Y-63768D01*
X76980Y-63902D01*
X77000Y-63910D01*
X77000Y-67322D01*
X76949Y-67200D01*
X76800Y-67050D01*
X76725Y-67019D01*
X76725Y-60405D01*
X76652Y-60231D01*
X76519Y-60097D01*
X76344Y-60025D01*
X76155Y-60024D01*
X75981Y-60097D01*
X75847Y-60230D01*
X75775Y-60405D01*
X75774Y-60594D01*
X75847Y-60768D01*
X75980Y-60902D01*
X76000Y-60910D01*
X76000Y-62219D01*
X75932Y-62287D01*
X75875Y-62425D01*
X75875Y-61175D01*
X75818Y-61037D01*
X75712Y-60932D01*
X75574Y-60875D01*
X75425Y-60874D01*
X75287Y-60931D01*
X75182Y-61037D01*
X75125Y-61175D01*
X75124Y-61324D01*
X75181Y-61462D01*
X75250Y-61530D01*
X75250Y-68124D01*
X75175Y-68124D01*
X75037Y-68181D01*
X75000Y-68219D01*
X75000Y-58400D01*
X74924Y-58217D01*
X74783Y-58076D01*
X74599Y-58000D01*
X74400Y-57999D01*
X74217Y-58075D01*
X74076Y-58216D01*
X74000Y-58400D01*
X73999Y-58599D01*
X74075Y-58782D01*
X74216Y-58923D01*
X74400Y-58999D01*
X74599Y-59000D01*
X74782Y-58924D01*
X74923Y-58783D01*
X74999Y-58599D01*
X75000Y-58400D01*
X75000Y-68219D01*
X74932Y-68287D01*
X74875Y-68425D01*
X74874Y-68574D01*
X74931Y-68712D01*
X75037Y-68817D01*
X75175Y-68874D01*
X75324Y-68875D01*
X75462Y-68818D01*
X75567Y-68712D01*
X75624Y-68574D01*
X75625Y-68478D01*
X75676Y-68426D01*
X75676Y-68426D01*
X75676Y-68426D01*
X75730Y-68345D01*
X75730Y-68345D01*
X75750Y-68250D01*
X75750Y-61530D01*
X75817Y-61462D01*
X75874Y-61324D01*
X75875Y-61175D01*
X75875Y-62425D01*
X75874Y-62574D01*
X75931Y-62712D01*
X76037Y-62817D01*
X76175Y-62874D01*
X76324Y-62875D01*
X76462Y-62818D01*
X76567Y-62712D01*
X76624Y-62574D01*
X76625Y-62425D01*
X76568Y-62287D01*
X76500Y-62219D01*
X76500Y-60910D01*
X76518Y-60902D01*
X76652Y-60769D01*
X76724Y-60594D01*
X76725Y-60405D01*
X76725Y-67019D01*
X76725Y-67019D01*
X76725Y-63735D01*
X76725Y-63185D01*
X76694Y-63111D01*
X76638Y-63055D01*
X76564Y-63025D01*
X76485Y-63024D01*
X75935Y-63024D01*
X75861Y-63055D01*
X75805Y-63111D01*
X75775Y-63185D01*
X75774Y-63264D01*
X75774Y-63814D01*
X75805Y-63888D01*
X75861Y-63944D01*
X75935Y-63974D01*
X76000Y-63975D01*
X76000Y-65719D01*
X75932Y-65787D01*
X75875Y-65925D01*
X75874Y-66074D01*
X75931Y-66212D01*
X76037Y-66317D01*
X76175Y-66374D01*
X76324Y-66375D01*
X76462Y-66318D01*
X76567Y-66212D01*
X76624Y-66074D01*
X76625Y-65925D01*
X76568Y-65787D01*
X76500Y-65719D01*
X76500Y-63975D01*
X76564Y-63975D01*
X76638Y-63944D01*
X76694Y-63888D01*
X76724Y-63814D01*
X76725Y-63735D01*
X76725Y-67019D01*
X76605Y-66970D01*
X76395Y-66969D01*
X76200Y-67050D01*
X76050Y-67199D01*
X75970Y-67394D01*
X75969Y-67604D01*
X76050Y-67799D01*
X76199Y-67949D01*
X76322Y-68000D01*
X76200Y-68050D01*
X76050Y-68199D01*
X75970Y-68394D01*
X75969Y-68604D01*
X76050Y-68799D01*
X76199Y-68949D01*
X76394Y-69029D01*
X76604Y-69030D01*
X76799Y-68949D01*
X76949Y-68800D01*
X77000Y-68677D01*
X77000Y-68896D01*
X76323Y-69573D01*
X76269Y-69654D01*
X76250Y-69750D01*
X76250Y-70719D01*
X76182Y-70787D01*
X76125Y-70925D01*
X76124Y-71074D01*
X76181Y-71212D01*
X76287Y-71317D01*
X76425Y-71374D01*
X76574Y-71375D01*
X76712Y-71318D01*
X76817Y-71212D01*
X76874Y-71074D01*
X76875Y-70925D01*
X76818Y-70787D01*
X76750Y-70719D01*
X76750Y-69853D01*
X77426Y-69176D01*
X77426Y-69176D01*
X77426Y-69176D01*
X77480Y-69095D01*
X77480Y-69095D01*
X77496Y-69019D01*
X77500Y-69000D01*
X77499Y-69000D01*
X77500Y-69000D01*
X77500Y-66437D01*
X77650Y-66499D01*
X77849Y-66500D01*
X78000Y-66437D01*
X78000Y-69922D01*
X77838Y-69760D01*
X77608Y-69665D01*
X77360Y-69664D01*
X77130Y-69759D01*
X76954Y-69935D01*
X76859Y-70165D01*
X76858Y-70413D01*
X76953Y-70643D01*
X77129Y-70819D01*
X77234Y-70862D01*
X77234Y-74637D01*
X77130Y-74679D01*
X76954Y-74855D01*
X76859Y-75085D01*
X76858Y-75333D01*
X76953Y-75563D01*
X77129Y-75739D01*
X77359Y-75834D01*
X77607Y-75835D01*
X77837Y-75740D01*
X78013Y-75564D01*
X78108Y-75334D01*
X78109Y-75086D01*
X78014Y-74856D01*
X77838Y-74680D01*
X77734Y-74637D01*
X77734Y-70862D01*
X77837Y-70820D01*
X78000Y-70658D01*
X78000Y-71219D01*
X77932Y-71287D01*
X77875Y-71425D01*
X77874Y-71574D01*
X77931Y-71712D01*
X78037Y-71817D01*
X78175Y-71874D01*
X78324Y-71875D01*
X78462Y-71818D01*
X78567Y-71712D01*
X78624Y-71574D01*
X78625Y-71425D01*
X78568Y-71287D01*
X78500Y-71219D01*
X78500Y-68780D01*
X78537Y-68817D01*
X78675Y-68874D01*
X78824Y-68875D01*
X78962Y-68818D01*
X79000Y-68780D01*
X79000Y-74500D01*
X79000Y-74969D01*
X78932Y-75037D01*
X78875Y-75175D01*
X78874Y-75324D01*
X78931Y-75462D01*
X79037Y-75567D01*
X79175Y-75624D01*
X79324Y-75625D01*
X79462Y-75568D01*
X79567Y-75462D01*
X79624Y-75324D01*
X79625Y-75175D01*
X79568Y-75037D01*
X79500Y-74969D01*
X79500Y-74530D01*
X79537Y-74567D01*
X79675Y-74624D01*
X79824Y-74625D01*
X79962Y-74568D01*
X80067Y-74462D01*
X80124Y-74324D01*
X80125Y-74175D01*
X80068Y-74037D01*
X80000Y-73969D01*
X80000Y-68103D01*
X81426Y-66676D01*
X81426Y-66676D01*
X81426Y-66676D01*
X81480Y-66595D01*
X81480Y-66595D01*
X81500Y-66500D01*
X81500Y-63910D01*
X81518Y-63902D01*
X81652Y-63769D01*
X81724Y-63594D01*
X81725Y-63405D01*
X81725Y-67020D01*
X81624Y-67026D01*
X81504Y-67076D01*
X81467Y-67147D01*
X81750Y-67429D01*
X82032Y-67147D01*
X82032Y-67288D01*
X81820Y-67500D01*
X82102Y-67782D01*
X82173Y-67745D01*
X82235Y-67565D01*
X82235Y-68286D01*
X82199Y-68200D01*
X82050Y-68050D01*
X81864Y-67973D01*
X81875Y-67973D01*
X81995Y-67923D01*
X82032Y-67852D01*
X81750Y-67570D01*
X81679Y-67641D01*
X81679Y-67500D01*
X81397Y-67217D01*
X81326Y-67254D01*
X81264Y-67434D01*
X81276Y-67625D01*
X81326Y-67745D01*
X81397Y-67782D01*
X81679Y-67500D01*
X81679Y-67641D01*
X81467Y-67852D01*
X81504Y-67923D01*
X81643Y-67970D01*
X81450Y-68050D01*
X81300Y-68199D01*
X81220Y-68394D01*
X81219Y-68604D01*
X81300Y-68799D01*
X81449Y-68949D01*
X81644Y-69029D01*
X81854Y-69030D01*
X82049Y-68949D01*
X82199Y-68800D01*
X82279Y-68605D01*
X82280Y-68395D01*
X82280Y-69860D01*
X82204Y-69935D01*
X82109Y-70165D01*
X82108Y-70413D01*
X82203Y-70643D01*
X82379Y-70819D01*
X82484Y-70862D01*
X82484Y-74637D01*
X82380Y-74679D01*
X82204Y-74855D01*
X82109Y-75085D01*
X82108Y-75333D01*
X82203Y-75563D01*
X82379Y-75739D01*
X82609Y-75834D01*
X82857Y-75835D01*
X83087Y-75740D01*
X83263Y-75564D01*
X83358Y-75334D01*
X83359Y-75086D01*
X83359Y-75950D01*
X81345Y-75950D01*
X81345Y-75297D01*
X81345Y-70377D01*
X81335Y-70149D01*
X81267Y-69987D01*
X81187Y-69938D01*
X81117Y-70009D01*
X81117Y-69868D01*
X81068Y-69788D01*
X80853Y-69710D01*
X80625Y-69720D01*
X80463Y-69788D01*
X80414Y-69868D01*
X80766Y-70219D01*
X81117Y-69868D01*
X81117Y-70009D01*
X80836Y-70290D01*
X81187Y-70641D01*
X81267Y-70592D01*
X81345Y-70377D01*
X81345Y-75297D01*
X81335Y-75069D01*
X81267Y-74907D01*
X81187Y-74858D01*
X81117Y-74929D01*
X81117Y-74788D01*
X81117Y-70711D01*
X80766Y-70360D01*
X80695Y-70431D01*
X80695Y-70290D01*
X80344Y-69938D01*
X80264Y-69987D01*
X80186Y-70202D01*
X80196Y-70430D01*
X80264Y-70592D01*
X80344Y-70641D01*
X80695Y-70290D01*
X80695Y-70431D01*
X80414Y-70711D01*
X80463Y-70791D01*
X80678Y-70869D01*
X80906Y-70859D01*
X81068Y-70791D01*
X81117Y-70711D01*
X81117Y-74788D01*
X81068Y-74708D01*
X80853Y-74630D01*
X80625Y-74640D01*
X80463Y-74708D01*
X80414Y-74788D01*
X80766Y-75139D01*
X81117Y-74788D01*
X81117Y-74929D01*
X80836Y-75210D01*
X81187Y-75561D01*
X81267Y-75512D01*
X81345Y-75297D01*
X81345Y-75950D01*
X81117Y-75950D01*
X81117Y-75631D01*
X80766Y-75280D01*
X80695Y-75351D01*
X80695Y-75210D01*
X80344Y-74858D01*
X80264Y-74907D01*
X80186Y-75122D01*
X80196Y-75350D01*
X80264Y-75512D01*
X80344Y-75561D01*
X80695Y-75210D01*
X80695Y-75351D01*
X80414Y-75631D01*
X80463Y-75711D01*
X80678Y-75789D01*
X80906Y-75779D01*
X81068Y-75711D01*
X81117Y-75631D01*
X81117Y-75950D01*
X76095Y-75950D01*
X76095Y-75297D01*
X76095Y-70377D01*
X76085Y-70149D01*
X76017Y-69987D01*
X75937Y-69938D01*
X75867Y-70009D01*
X75867Y-69868D01*
X75818Y-69788D01*
X75603Y-69710D01*
X75375Y-69720D01*
X75213Y-69788D01*
X75164Y-69868D01*
X75516Y-70219D01*
X75867Y-69868D01*
X75867Y-70009D01*
X75586Y-70290D01*
X75937Y-70641D01*
X76017Y-70592D01*
X76095Y-70377D01*
X76095Y-75297D01*
X76085Y-75069D01*
X76017Y-74907D01*
X75937Y-74858D01*
X75867Y-74929D01*
X75867Y-74788D01*
X75867Y-70711D01*
X75516Y-70360D01*
X75445Y-70431D01*
X75445Y-70290D01*
X75094Y-69938D01*
X75014Y-69987D01*
X74936Y-70202D01*
X74946Y-70430D01*
X75014Y-70592D01*
X75094Y-70641D01*
X75445Y-70290D01*
X75445Y-70431D01*
X75164Y-70711D01*
X75213Y-70791D01*
X75428Y-70869D01*
X75656Y-70859D01*
X75818Y-70791D01*
X75867Y-70711D01*
X75867Y-74788D01*
X75818Y-74708D01*
X75603Y-74630D01*
X75375Y-74640D01*
X75213Y-74708D01*
X75164Y-74788D01*
X75516Y-75139D01*
X75867Y-74788D01*
X75867Y-74929D01*
X75586Y-75210D01*
X75937Y-75561D01*
X76017Y-75512D01*
X76095Y-75297D01*
X76095Y-75950D01*
X75867Y-75950D01*
X75867Y-75631D01*
X75516Y-75280D01*
X75445Y-75351D01*
X75445Y-75210D01*
X75094Y-74858D01*
X75014Y-74907D01*
X74936Y-75122D01*
X74946Y-75350D01*
X75014Y-75512D01*
X75094Y-75561D01*
X75445Y-75210D01*
X75445Y-75351D01*
X75164Y-75631D01*
X75213Y-75711D01*
X75428Y-75789D01*
X75656Y-75779D01*
X75818Y-75711D01*
X75867Y-75631D01*
X75867Y-75950D01*
X74250Y-75950D01*
X74250Y-65900D01*
X74174Y-65717D01*
X74033Y-65576D01*
X73849Y-65500D01*
X73725Y-65499D01*
X73725Y-62905D01*
X73725Y-61905D01*
X73725Y-60905D01*
X73652Y-60731D01*
X73519Y-60597D01*
X73344Y-60525D01*
X73155Y-60524D01*
X72981Y-60597D01*
X72847Y-60730D01*
X72775Y-60905D01*
X72774Y-61094D01*
X72847Y-61268D01*
X72980Y-61402D01*
X73155Y-61474D01*
X73344Y-61475D01*
X73518Y-61402D01*
X73652Y-61269D01*
X73724Y-61094D01*
X73725Y-60905D01*
X73725Y-61905D01*
X73652Y-61731D01*
X73519Y-61597D01*
X73344Y-61525D01*
X73155Y-61524D01*
X72981Y-61597D01*
X72847Y-61730D01*
X72775Y-61905D01*
X72774Y-62094D01*
X72847Y-62268D01*
X72980Y-62402D01*
X73155Y-62474D01*
X73344Y-62475D01*
X73518Y-62402D01*
X73652Y-62269D01*
X73724Y-62094D01*
X73725Y-61905D01*
X73725Y-62905D01*
X73652Y-62731D01*
X73519Y-62597D01*
X73344Y-62525D01*
X73155Y-62524D01*
X72981Y-62597D01*
X72847Y-62730D01*
X72775Y-62905D01*
X72774Y-63094D01*
X72847Y-63268D01*
X72980Y-63402D01*
X73155Y-63474D01*
X73344Y-63475D01*
X73518Y-63402D01*
X73652Y-63269D01*
X73724Y-63094D01*
X73725Y-62905D01*
X73725Y-65499D01*
X73725Y-65499D01*
X73725Y-64235D01*
X73725Y-63685D01*
X73694Y-63611D01*
X73638Y-63555D01*
X73564Y-63525D01*
X73485Y-63524D01*
X72935Y-63524D01*
X72861Y-63555D01*
X72805Y-63611D01*
X72775Y-63685D01*
X72774Y-63764D01*
X72774Y-64314D01*
X72805Y-64388D01*
X72861Y-64444D01*
X72935Y-64474D01*
X73014Y-64475D01*
X73564Y-64475D01*
X73638Y-64444D01*
X73694Y-64388D01*
X73724Y-64314D01*
X73725Y-64235D01*
X73725Y-65499D01*
X73650Y-65499D01*
X73467Y-65575D01*
X73326Y-65716D01*
X73250Y-65900D01*
X73249Y-66099D01*
X73325Y-66282D01*
X73466Y-66423D01*
X73650Y-66499D01*
X73849Y-66500D01*
X74032Y-66424D01*
X74173Y-66283D01*
X74249Y-66099D01*
X74250Y-65900D01*
X74250Y-75950D01*
X72859Y-75950D01*
X72859Y-75086D01*
X72764Y-74856D01*
X72588Y-74680D01*
X72484Y-74637D01*
X72484Y-72796D01*
X72567Y-72712D01*
X72624Y-72574D01*
X72625Y-72425D01*
X72568Y-72287D01*
X72484Y-72203D01*
X72484Y-70862D01*
X72587Y-70820D01*
X72763Y-70644D01*
X72858Y-70414D01*
X72859Y-70166D01*
X72764Y-69936D01*
X72588Y-69760D01*
X72358Y-69665D01*
X72225Y-69664D01*
X72225Y-65905D01*
X72152Y-65731D01*
X72019Y-65597D01*
X71844Y-65525D01*
X71655Y-65524D01*
X71481Y-65597D01*
X71347Y-65730D01*
X71275Y-65905D01*
X71274Y-66094D01*
X71347Y-66268D01*
X71480Y-66402D01*
X71655Y-66474D01*
X71844Y-66475D01*
X72018Y-66402D01*
X72152Y-66269D01*
X72224Y-66094D01*
X72225Y-65905D01*
X72225Y-69664D01*
X72110Y-69664D01*
X71880Y-69759D01*
X71780Y-69860D01*
X71780Y-68395D01*
X71735Y-68286D01*
X71735Y-67565D01*
X71723Y-67374D01*
X71673Y-67254D01*
X71602Y-67217D01*
X71532Y-67288D01*
X71532Y-67147D01*
X71495Y-67076D01*
X71315Y-67014D01*
X71180Y-67023D01*
X71180Y-66051D01*
X71167Y-65883D01*
X71127Y-65787D01*
X71063Y-65757D01*
X71000Y-65820D01*
X71000Y-58400D01*
X70924Y-58217D01*
X70783Y-58076D01*
X70599Y-58000D01*
X70400Y-57999D01*
X70217Y-58075D01*
X70076Y-58216D01*
X70000Y-58400D01*
X69999Y-58599D01*
X70075Y-58782D01*
X70216Y-58923D01*
X70400Y-58999D01*
X70599Y-59000D01*
X70782Y-58924D01*
X70923Y-58783D01*
X70999Y-58599D01*
X71000Y-58400D01*
X71000Y-65820D01*
X70992Y-65828D01*
X70992Y-65686D01*
X70962Y-65622D01*
X70801Y-65569D01*
X70725Y-65575D01*
X70725Y-63905D01*
X70725Y-61905D01*
X70680Y-61797D01*
X70680Y-61051D01*
X70667Y-60883D01*
X70627Y-60787D01*
X70563Y-60757D01*
X70492Y-60828D01*
X70492Y-60686D01*
X70462Y-60622D01*
X70301Y-60569D01*
X70133Y-60582D01*
X70037Y-60622D01*
X70007Y-60686D01*
X70250Y-60929D01*
X70492Y-60686D01*
X70492Y-60828D01*
X70320Y-61000D01*
X70563Y-61242D01*
X70627Y-61212D01*
X70680Y-61051D01*
X70680Y-61797D01*
X70652Y-61731D01*
X70519Y-61597D01*
X70492Y-61586D01*
X70492Y-61313D01*
X70250Y-61070D01*
X70179Y-61141D01*
X70179Y-61000D01*
X69936Y-60757D01*
X69872Y-60787D01*
X69819Y-60948D01*
X69832Y-61116D01*
X69872Y-61212D01*
X69936Y-61242D01*
X70179Y-61000D01*
X70179Y-61141D01*
X70007Y-61313D01*
X70037Y-61377D01*
X70198Y-61430D01*
X70366Y-61417D01*
X70462Y-61377D01*
X70492Y-61313D01*
X70492Y-61586D01*
X70344Y-61525D01*
X70155Y-61524D01*
X69981Y-61597D01*
X69847Y-61730D01*
X69775Y-61905D01*
X69774Y-62094D01*
X69847Y-62268D01*
X69980Y-62402D01*
X70155Y-62474D01*
X70344Y-62475D01*
X70518Y-62402D01*
X70652Y-62269D01*
X70724Y-62094D01*
X70725Y-61905D01*
X70725Y-63905D01*
X70680Y-63797D01*
X70680Y-63051D01*
X70667Y-62883D01*
X70627Y-62787D01*
X70563Y-62757D01*
X70492Y-62828D01*
X70492Y-62686D01*
X70462Y-62622D01*
X70301Y-62569D01*
X70133Y-62582D01*
X70037Y-62622D01*
X70007Y-62686D01*
X70250Y-62929D01*
X70492Y-62686D01*
X70492Y-62828D01*
X70320Y-63000D01*
X70563Y-63242D01*
X70627Y-63212D01*
X70680Y-63051D01*
X70680Y-63797D01*
X70652Y-63731D01*
X70519Y-63597D01*
X70492Y-63586D01*
X70492Y-63313D01*
X70250Y-63070D01*
X70179Y-63141D01*
X70179Y-63000D01*
X69936Y-62757D01*
X69872Y-62787D01*
X69819Y-62948D01*
X69832Y-63116D01*
X69872Y-63212D01*
X69936Y-63242D01*
X70179Y-63000D01*
X70179Y-63141D01*
X70007Y-63313D01*
X70037Y-63377D01*
X70198Y-63430D01*
X70366Y-63417D01*
X70462Y-63377D01*
X70492Y-63313D01*
X70492Y-63586D01*
X70344Y-63525D01*
X70155Y-63524D01*
X69981Y-63597D01*
X69847Y-63730D01*
X69775Y-63905D01*
X69774Y-64094D01*
X69847Y-64268D01*
X69980Y-64402D01*
X70155Y-64474D01*
X70344Y-64475D01*
X70518Y-64402D01*
X70652Y-64269D01*
X70724Y-64094D01*
X70725Y-63905D01*
X70725Y-65575D01*
X70633Y-65582D01*
X70537Y-65622D01*
X70507Y-65686D01*
X70750Y-65929D01*
X70992Y-65686D01*
X70992Y-65828D01*
X70820Y-66000D01*
X71063Y-66242D01*
X71127Y-66212D01*
X71180Y-66051D01*
X71180Y-67023D01*
X71124Y-67026D01*
X71004Y-67076D01*
X70992Y-67099D01*
X70992Y-66313D01*
X70750Y-66070D01*
X70679Y-66141D01*
X70679Y-66000D01*
X70436Y-65757D01*
X70372Y-65787D01*
X70319Y-65948D01*
X70332Y-66116D01*
X70372Y-66212D01*
X70436Y-66242D01*
X70679Y-66000D01*
X70679Y-66141D01*
X70507Y-66313D01*
X70537Y-66377D01*
X70698Y-66430D01*
X70866Y-66417D01*
X70962Y-66377D01*
X70992Y-66313D01*
X70992Y-67099D01*
X70967Y-67147D01*
X71250Y-67429D01*
X71532Y-67147D01*
X71532Y-67288D01*
X71320Y-67500D01*
X71602Y-67782D01*
X71673Y-67745D01*
X71735Y-67565D01*
X71735Y-68286D01*
X71699Y-68200D01*
X71550Y-68050D01*
X71364Y-67973D01*
X71375Y-67973D01*
X71495Y-67923D01*
X71532Y-67852D01*
X71250Y-67570D01*
X71179Y-67641D01*
X71179Y-67500D01*
X70897Y-67217D01*
X70826Y-67254D01*
X70764Y-67434D01*
X70776Y-67625D01*
X70826Y-67745D01*
X70897Y-67782D01*
X71179Y-67500D01*
X71179Y-67641D01*
X70967Y-67852D01*
X71004Y-67923D01*
X71143Y-67970D01*
X70950Y-68050D01*
X70800Y-68199D01*
X70720Y-68394D01*
X70719Y-68604D01*
X70800Y-68799D01*
X70949Y-68949D01*
X71144Y-69029D01*
X71354Y-69030D01*
X71549Y-68949D01*
X71699Y-68800D01*
X71779Y-68605D01*
X71780Y-68395D01*
X71780Y-69860D01*
X71704Y-69935D01*
X71609Y-70165D01*
X71608Y-70413D01*
X71703Y-70643D01*
X71879Y-70819D01*
X71984Y-70862D01*
X71984Y-72235D01*
X71932Y-72287D01*
X71875Y-72425D01*
X71874Y-72574D01*
X71931Y-72712D01*
X71984Y-72764D01*
X71984Y-74637D01*
X71880Y-74679D01*
X71704Y-74855D01*
X71609Y-75085D01*
X71608Y-75333D01*
X71703Y-75563D01*
X71879Y-75739D01*
X72109Y-75834D01*
X72357Y-75835D01*
X72587Y-75740D01*
X72763Y-75564D01*
X72858Y-75334D01*
X72859Y-75086D01*
X72859Y-75950D01*
X70845Y-75950D01*
X70845Y-75297D01*
X70845Y-70377D01*
X70835Y-70149D01*
X70767Y-69987D01*
X70687Y-69938D01*
X70617Y-70009D01*
X70617Y-69868D01*
X70568Y-69788D01*
X70353Y-69710D01*
X70125Y-69720D01*
X69963Y-69788D01*
X69914Y-69868D01*
X70266Y-70219D01*
X70617Y-69868D01*
X70617Y-70009D01*
X70336Y-70290D01*
X70687Y-70641D01*
X70767Y-70592D01*
X70845Y-70377D01*
X70845Y-75297D01*
X70835Y-75069D01*
X70767Y-74907D01*
X70687Y-74858D01*
X70617Y-74929D01*
X70617Y-74788D01*
X70617Y-70711D01*
X70266Y-70360D01*
X70195Y-70431D01*
X70195Y-70290D01*
X69844Y-69938D01*
X69764Y-69987D01*
X69686Y-70202D01*
X69696Y-70430D01*
X69764Y-70592D01*
X69844Y-70641D01*
X70195Y-70290D01*
X70195Y-70431D01*
X69914Y-70711D01*
X69963Y-70791D01*
X70178Y-70869D01*
X70406Y-70859D01*
X70568Y-70791D01*
X70617Y-70711D01*
X70617Y-74788D01*
X70568Y-74708D01*
X70353Y-74630D01*
X70125Y-74640D01*
X69963Y-74708D01*
X69914Y-74788D01*
X70266Y-75139D01*
X70617Y-74788D01*
X70617Y-74929D01*
X70336Y-75210D01*
X70687Y-75561D01*
X70767Y-75512D01*
X70845Y-75297D01*
X70845Y-75950D01*
X70617Y-75950D01*
X70617Y-75631D01*
X70266Y-75280D01*
X70195Y-75351D01*
X70195Y-75210D01*
X69844Y-74858D01*
X69764Y-74907D01*
X69686Y-75122D01*
X69696Y-75350D01*
X69764Y-75512D01*
X69844Y-75561D01*
X70195Y-75210D01*
X70195Y-75351D01*
X69914Y-75631D01*
X69963Y-75711D01*
X70178Y-75789D01*
X70406Y-75779D01*
X70568Y-75711D01*
X70617Y-75631D01*
X70617Y-75950D01*
X69475Y-75950D01*
X69475Y-57905D01*
X69402Y-57731D01*
X69269Y-57597D01*
X69094Y-57525D01*
X68905Y-57524D01*
X68731Y-57597D01*
X68597Y-57730D01*
X68525Y-57905D01*
X68524Y-58094D01*
X68597Y-58268D01*
X68730Y-58402D01*
X68905Y-58474D01*
X69094Y-58475D01*
X69268Y-58402D01*
X69402Y-58269D01*
X69474Y-58094D01*
X69475Y-57905D01*
X69475Y-75950D01*
X69430Y-75950D01*
X69430Y-59051D01*
X69417Y-58883D01*
X69377Y-58787D01*
X69313Y-58757D01*
X69242Y-58828D01*
X69242Y-58686D01*
X69212Y-58622D01*
X69051Y-58569D01*
X68883Y-58582D01*
X68787Y-58622D01*
X68757Y-58686D01*
X69000Y-58929D01*
X69242Y-58686D01*
X69242Y-58828D01*
X69070Y-59000D01*
X69313Y-59242D01*
X69377Y-59212D01*
X69430Y-59051D01*
X69430Y-75950D01*
X69250Y-75950D01*
X69250Y-64400D01*
X69250Y-60400D01*
X69242Y-60382D01*
X69242Y-59313D01*
X69000Y-59070D01*
X68929Y-59141D01*
X68929Y-59000D01*
X68686Y-58757D01*
X68622Y-58787D01*
X68569Y-58948D01*
X68582Y-59116D01*
X68622Y-59212D01*
X68686Y-59242D01*
X68929Y-59000D01*
X68929Y-59141D01*
X68757Y-59313D01*
X68787Y-59377D01*
X68948Y-59430D01*
X69116Y-59417D01*
X69212Y-59377D01*
X69242Y-59313D01*
X69242Y-60382D01*
X69174Y-60217D01*
X69033Y-60076D01*
X68849Y-60000D01*
X68650Y-59999D01*
X68467Y-60075D01*
X68326Y-60216D01*
X68250Y-60400D01*
X68249Y-60599D01*
X68325Y-60782D01*
X68466Y-60923D01*
X68650Y-60999D01*
X68849Y-61000D01*
X69032Y-60924D01*
X69173Y-60783D01*
X69249Y-60599D01*
X69250Y-60400D01*
X69250Y-64400D01*
X69174Y-64217D01*
X69033Y-64076D01*
X68849Y-64000D01*
X68650Y-63999D01*
X68467Y-64075D01*
X68326Y-64216D01*
X68250Y-64400D01*
X68249Y-64599D01*
X68325Y-64782D01*
X68466Y-64923D01*
X68650Y-64999D01*
X68849Y-65000D01*
X69032Y-64924D01*
X69173Y-64783D01*
X69249Y-64599D01*
X69250Y-64400D01*
X69250Y-75950D01*
X69180Y-75950D01*
X69180Y-66051D01*
X69167Y-65883D01*
X69127Y-65787D01*
X69063Y-65757D01*
X68992Y-65828D01*
X68992Y-65686D01*
X68962Y-65622D01*
X68801Y-65569D01*
X68633Y-65582D01*
X68537Y-65622D01*
X68507Y-65686D01*
X68750Y-65929D01*
X68992Y-65686D01*
X68992Y-65828D01*
X68820Y-66000D01*
X69063Y-66242D01*
X69127Y-66212D01*
X69180Y-66051D01*
X69180Y-75950D01*
X69125Y-75950D01*
X69125Y-68425D01*
X69068Y-68287D01*
X69000Y-68219D01*
X69000Y-67780D01*
X69067Y-67712D01*
X69124Y-67574D01*
X69125Y-67425D01*
X69068Y-67287D01*
X68992Y-67211D01*
X68992Y-66313D01*
X68750Y-66070D01*
X68679Y-66141D01*
X68679Y-66000D01*
X68436Y-65757D01*
X68372Y-65787D01*
X68319Y-65948D01*
X68332Y-66116D01*
X68372Y-66212D01*
X68436Y-66242D01*
X68679Y-66000D01*
X68679Y-66141D01*
X68507Y-66313D01*
X68537Y-66377D01*
X68698Y-66430D01*
X68866Y-66417D01*
X68962Y-66377D01*
X68992Y-66313D01*
X68992Y-67211D01*
X68962Y-67182D01*
X68824Y-67125D01*
X68675Y-67124D01*
X68537Y-67181D01*
X68432Y-67287D01*
X68375Y-67425D01*
X68374Y-67574D01*
X68431Y-67712D01*
X68500Y-67780D01*
X68500Y-68219D01*
X68432Y-68287D01*
X68375Y-68425D01*
X68374Y-68574D01*
X68431Y-68712D01*
X68537Y-68817D01*
X68675Y-68874D01*
X68824Y-68875D01*
X68962Y-68818D01*
X69067Y-68712D01*
X69124Y-68574D01*
X69125Y-68425D01*
X69125Y-75950D01*
X68225Y-75950D01*
X68225Y-65905D01*
X68152Y-65731D01*
X68019Y-65597D01*
X67844Y-65525D01*
X67655Y-65524D01*
X67481Y-65597D01*
X67347Y-65730D01*
X67275Y-65905D01*
X67274Y-66094D01*
X67347Y-66268D01*
X67480Y-66402D01*
X67655Y-66474D01*
X67844Y-66475D01*
X68018Y-66402D01*
X68152Y-66269D01*
X68224Y-66094D01*
X68225Y-65905D01*
X68225Y-75950D01*
X67609Y-75950D01*
X67609Y-75086D01*
X67514Y-74856D01*
X67338Y-74680D01*
X67234Y-74637D01*
X67234Y-70862D01*
X67337Y-70820D01*
X67513Y-70644D01*
X67608Y-70414D01*
X67609Y-70166D01*
X67514Y-69936D01*
X67338Y-69760D01*
X67250Y-69723D01*
X67250Y-64400D01*
X67205Y-64292D01*
X67205Y-60557D01*
X67192Y-60379D01*
X67148Y-60272D01*
X67081Y-60239D01*
X67010Y-60310D01*
X67010Y-60168D01*
X66977Y-60101D01*
X66807Y-60044D01*
X66629Y-60057D01*
X66522Y-60101D01*
X66489Y-60168D01*
X66750Y-60429D01*
X67010Y-60168D01*
X67010Y-60310D01*
X66820Y-60500D01*
X67081Y-60760D01*
X67148Y-60727D01*
X67205Y-60557D01*
X67205Y-64292D01*
X67174Y-64217D01*
X67033Y-64076D01*
X67010Y-64066D01*
X67010Y-60831D01*
X66750Y-60570D01*
X66679Y-60641D01*
X66679Y-60500D01*
X66418Y-60239D01*
X66351Y-60272D01*
X66294Y-60442D01*
X66307Y-60620D01*
X66351Y-60727D01*
X66418Y-60760D01*
X66679Y-60500D01*
X66679Y-60641D01*
X66489Y-60831D01*
X66522Y-60898D01*
X66692Y-60955D01*
X66870Y-60942D01*
X66977Y-60898D01*
X67010Y-60831D01*
X67010Y-64066D01*
X66849Y-64000D01*
X66650Y-63999D01*
X66467Y-64075D01*
X66326Y-64216D01*
X66275Y-64340D01*
X66275Y-58785D01*
X66275Y-58135D01*
X66244Y-58061D01*
X66188Y-58005D01*
X66114Y-57975D01*
X66035Y-57974D01*
X65385Y-57974D01*
X65311Y-58005D01*
X65255Y-58061D01*
X65225Y-58135D01*
X65224Y-58214D01*
X65224Y-58274D01*
X65195Y-58203D01*
X65047Y-58055D01*
X64854Y-57975D01*
X64646Y-57974D01*
X64453Y-58054D01*
X64305Y-58202D01*
X64225Y-58395D01*
X64224Y-58603D01*
X64304Y-58797D01*
X64452Y-58944D01*
X64645Y-59024D01*
X64853Y-59025D01*
X65047Y-58945D01*
X65194Y-58797D01*
X65224Y-58725D01*
X65224Y-58864D01*
X65255Y-58938D01*
X65311Y-58994D01*
X65385Y-59024D01*
X65464Y-59025D01*
X66114Y-59025D01*
X66188Y-58994D01*
X66244Y-58938D01*
X66274Y-58864D01*
X66275Y-58785D01*
X66275Y-64340D01*
X66250Y-64400D01*
X66249Y-64599D01*
X66325Y-64782D01*
X66466Y-64923D01*
X66650Y-64999D01*
X66849Y-65000D01*
X67032Y-64924D01*
X67173Y-64783D01*
X67249Y-64599D01*
X67250Y-64400D01*
X67250Y-69723D01*
X67108Y-69665D01*
X66860Y-69664D01*
X66630Y-69759D01*
X66530Y-69860D01*
X66530Y-68395D01*
X66449Y-68200D01*
X66300Y-68050D01*
X66177Y-67999D01*
X66299Y-67949D01*
X66449Y-67800D01*
X66529Y-67605D01*
X66530Y-67395D01*
X66449Y-67200D01*
X66300Y-67050D01*
X66105Y-66970D01*
X65895Y-66969D01*
X65700Y-67050D01*
X65550Y-67199D01*
X65470Y-67394D01*
X65469Y-67604D01*
X65550Y-67799D01*
X65699Y-67949D01*
X65822Y-68000D01*
X65700Y-68050D01*
X65550Y-68199D01*
X65470Y-68394D01*
X65469Y-68604D01*
X65550Y-68799D01*
X65699Y-68949D01*
X65894Y-69029D01*
X66104Y-69030D01*
X66299Y-68949D01*
X66449Y-68800D01*
X66529Y-68605D01*
X66530Y-68395D01*
X66530Y-69860D01*
X66454Y-69935D01*
X66359Y-70165D01*
X66358Y-70413D01*
X66453Y-70643D01*
X66629Y-70819D01*
X66734Y-70862D01*
X66734Y-74637D01*
X66630Y-74679D01*
X66454Y-74855D01*
X66359Y-75085D01*
X66358Y-75333D01*
X66453Y-75563D01*
X66629Y-75739D01*
X66859Y-75834D01*
X67107Y-75835D01*
X67337Y-75740D01*
X67513Y-75564D01*
X67608Y-75334D01*
X67609Y-75086D01*
X67609Y-75950D01*
X65595Y-75950D01*
X65595Y-75297D01*
X65595Y-70377D01*
X65585Y-70149D01*
X65517Y-69987D01*
X65437Y-69938D01*
X65367Y-70009D01*
X65367Y-69868D01*
X65318Y-69788D01*
X65103Y-69710D01*
X64875Y-69720D01*
X64713Y-69788D01*
X64664Y-69868D01*
X65016Y-70219D01*
X65367Y-69868D01*
X65367Y-70009D01*
X65086Y-70290D01*
X65437Y-70641D01*
X65517Y-70592D01*
X65595Y-70377D01*
X65595Y-75297D01*
X65585Y-75069D01*
X65517Y-74907D01*
X65437Y-74858D01*
X65367Y-74929D01*
X65367Y-74788D01*
X65367Y-70711D01*
X65016Y-70360D01*
X64945Y-70431D01*
X64945Y-70290D01*
X64594Y-69938D01*
X64514Y-69987D01*
X64436Y-70202D01*
X64446Y-70430D01*
X64514Y-70592D01*
X64594Y-70641D01*
X64945Y-70290D01*
X64945Y-70431D01*
X64664Y-70711D01*
X64713Y-70791D01*
X64928Y-70869D01*
X65156Y-70859D01*
X65318Y-70791D01*
X65367Y-70711D01*
X65367Y-74788D01*
X65318Y-74708D01*
X65103Y-74630D01*
X64875Y-74640D01*
X64713Y-74708D01*
X64664Y-74788D01*
X65016Y-75139D01*
X65367Y-74788D01*
X65367Y-74929D01*
X65086Y-75210D01*
X65437Y-75561D01*
X65517Y-75512D01*
X65595Y-75297D01*
X65595Y-75950D01*
X65367Y-75950D01*
X65367Y-75631D01*
X65016Y-75280D01*
X64945Y-75351D01*
X64945Y-75210D01*
X64594Y-74858D01*
X64514Y-74907D01*
X64436Y-75122D01*
X64446Y-75350D01*
X64514Y-75512D01*
X64594Y-75561D01*
X64945Y-75210D01*
X64945Y-75351D01*
X64664Y-75631D01*
X64713Y-75711D01*
X64928Y-75789D01*
X65156Y-75779D01*
X65318Y-75711D01*
X65367Y-75631D01*
X65367Y-75950D01*
X63200Y-75950D01*
X63200Y-65323D01*
X63200Y-61386D01*
X63088Y-61117D01*
X62883Y-60911D01*
X62614Y-60800D01*
X62323Y-60799D01*
X62054Y-60911D01*
X61848Y-61116D01*
X61737Y-61385D01*
X61736Y-61676D01*
X61848Y-61945D01*
X62053Y-62151D01*
X62322Y-62262D01*
X62613Y-62263D01*
X62882Y-62151D01*
X63088Y-61946D01*
X63199Y-61677D01*
X63200Y-61386D01*
X63200Y-65323D01*
X63088Y-65054D01*
X62983Y-64949D01*
X62983Y-63398D01*
X62905Y-63208D01*
X62760Y-63063D01*
X62571Y-62985D01*
X62366Y-62984D01*
X62177Y-63063D01*
X62032Y-63207D01*
X61953Y-63397D01*
X61953Y-63601D01*
X62031Y-63791D01*
X62176Y-63936D01*
X62365Y-64014D01*
X62570Y-64015D01*
X62759Y-63936D01*
X62904Y-63792D01*
X62983Y-63602D01*
X62983Y-63398D01*
X62983Y-64949D01*
X62883Y-64848D01*
X62614Y-64737D01*
X62323Y-64736D01*
X62054Y-64848D01*
X61848Y-65053D01*
X61737Y-65322D01*
X61736Y-65613D01*
X61848Y-65882D01*
X62053Y-66088D01*
X62322Y-66199D01*
X62613Y-66200D01*
X62882Y-66088D01*
X63088Y-65883D01*
X63199Y-65614D01*
X63200Y-65323D01*
X63200Y-75950D01*
X62750Y-75950D01*
X62750Y-72400D01*
X62750Y-68400D01*
X62674Y-68217D01*
X62533Y-68076D01*
X62349Y-68000D01*
X62150Y-67999D01*
X61967Y-68075D01*
X61826Y-68216D01*
X61750Y-68400D01*
X61749Y-68599D01*
X61825Y-68782D01*
X61966Y-68923D01*
X62150Y-68999D01*
X62349Y-69000D01*
X62532Y-68924D01*
X62673Y-68783D01*
X62749Y-68599D01*
X62750Y-68400D01*
X62750Y-72400D01*
X62674Y-72217D01*
X62533Y-72076D01*
X62349Y-72000D01*
X62150Y-71999D01*
X61967Y-72075D01*
X61826Y-72216D01*
X61750Y-72400D01*
X61749Y-72599D01*
X61825Y-72782D01*
X61966Y-72923D01*
X62150Y-72999D01*
X62349Y-73000D01*
X62532Y-72924D01*
X62673Y-72783D01*
X62749Y-72599D01*
X62750Y-72400D01*
X62750Y-75950D01*
X60569Y-75950D01*
X60815Y-75848D01*
X61097Y-75567D01*
X61249Y-75199D01*
X61250Y-74801D01*
X61185Y-74645D01*
X61185Y-63613D01*
X61176Y-63342D01*
X61090Y-63133D01*
X60998Y-63071D01*
X60975Y-63095D01*
X60975Y-61437D01*
X60903Y-61262D01*
X60769Y-61128D01*
X60595Y-61055D01*
X60405Y-61055D01*
X60230Y-61128D01*
X60097Y-61261D01*
X60024Y-61436D01*
X60024Y-61625D01*
X60096Y-61800D01*
X60230Y-61934D01*
X60404Y-62007D01*
X60594Y-62007D01*
X60769Y-61934D01*
X60902Y-61801D01*
X60975Y-61626D01*
X60975Y-61437D01*
X60975Y-63095D01*
X60928Y-63142D01*
X60928Y-63001D01*
X60866Y-62909D01*
X60613Y-62814D01*
X60342Y-62823D01*
X60133Y-62909D01*
X60071Y-63001D01*
X60500Y-63429D01*
X60928Y-63001D01*
X60928Y-63142D01*
X60570Y-63500D01*
X60998Y-63928D01*
X61090Y-63866D01*
X61185Y-63613D01*
X61185Y-74645D01*
X61098Y-74434D01*
X60975Y-74311D01*
X60975Y-65374D01*
X60928Y-65259D01*
X60928Y-63998D01*
X60500Y-63570D01*
X60429Y-63641D01*
X60429Y-63500D01*
X60001Y-63071D01*
X59909Y-63133D01*
X59814Y-63386D01*
X59823Y-63657D01*
X59909Y-63866D01*
X60001Y-63928D01*
X60429Y-63500D01*
X60429Y-63641D01*
X60071Y-63998D01*
X60133Y-64090D01*
X60386Y-64185D01*
X60657Y-64176D01*
X60866Y-64090D01*
X60928Y-63998D01*
X60928Y-65259D01*
X60903Y-65199D01*
X60769Y-65065D01*
X60595Y-64992D01*
X60405Y-64992D01*
X60230Y-65065D01*
X60097Y-65198D01*
X60024Y-65373D01*
X60024Y-65562D01*
X60096Y-65737D01*
X60230Y-65871D01*
X60404Y-65944D01*
X60594Y-65944D01*
X60769Y-65871D01*
X60902Y-65738D01*
X60975Y-65563D01*
X60975Y-65374D01*
X60975Y-74311D01*
X60817Y-74152D01*
X60750Y-74124D01*
X60750Y-71400D01*
X60750Y-70400D01*
X60705Y-70292D01*
X60705Y-69557D01*
X60692Y-69379D01*
X60648Y-69272D01*
X60581Y-69239D01*
X60510Y-69310D01*
X60510Y-69168D01*
X60477Y-69101D01*
X60307Y-69044D01*
X60129Y-69057D01*
X60022Y-69101D01*
X59989Y-69168D01*
X60250Y-69429D01*
X60510Y-69168D01*
X60510Y-69310D01*
X60320Y-69500D01*
X60581Y-69760D01*
X60648Y-69727D01*
X60705Y-69557D01*
X60705Y-70292D01*
X60674Y-70217D01*
X60533Y-70076D01*
X60510Y-70066D01*
X60510Y-69831D01*
X60250Y-69570D01*
X60179Y-69641D01*
X60179Y-69500D01*
X59918Y-69239D01*
X59851Y-69272D01*
X59794Y-69442D01*
X59807Y-69620D01*
X59851Y-69727D01*
X59918Y-69760D01*
X60179Y-69500D01*
X60179Y-69641D01*
X59989Y-69831D01*
X60022Y-69898D01*
X60192Y-69955D01*
X60370Y-69942D01*
X60477Y-69898D01*
X60510Y-69831D01*
X60510Y-70066D01*
X60349Y-70000D01*
X60150Y-69999D01*
X59967Y-70075D01*
X59826Y-70216D01*
X59750Y-70400D01*
X59749Y-70599D01*
X59825Y-70782D01*
X59966Y-70923D01*
X60150Y-70999D01*
X60349Y-71000D01*
X60532Y-70924D01*
X60673Y-70783D01*
X60749Y-70599D01*
X60750Y-70400D01*
X60750Y-71400D01*
X60674Y-71217D01*
X60533Y-71076D01*
X60349Y-71000D01*
X60150Y-70999D01*
X59967Y-71075D01*
X59826Y-71216D01*
X59750Y-71400D01*
X59749Y-71599D01*
X59825Y-71782D01*
X59966Y-71923D01*
X60150Y-71999D01*
X60349Y-72000D01*
X60532Y-71924D01*
X60673Y-71783D01*
X60749Y-71599D01*
X60750Y-71400D01*
X60750Y-74124D01*
X60449Y-74000D01*
X60051Y-73999D01*
X59684Y-74151D01*
X59550Y-74285D01*
X59550Y-65944D01*
X59609Y-65944D01*
X59784Y-65871D01*
X59918Y-65738D01*
X59991Y-65563D01*
X59991Y-65374D01*
X59919Y-65199D01*
X59785Y-65065D01*
X59610Y-64992D01*
X59550Y-64992D01*
X59550Y-62007D01*
X59609Y-62007D01*
X59784Y-61934D01*
X59918Y-61801D01*
X59991Y-61626D01*
X59991Y-61437D01*
X59919Y-61262D01*
X59785Y-61128D01*
X59610Y-61055D01*
X59550Y-61055D01*
X59550Y-58714D01*
X59682Y-58847D01*
X60050Y-58999D01*
X60448Y-59000D01*
X60815Y-58848D01*
X61097Y-58567D01*
X61249Y-58199D01*
X61250Y-57801D01*
X61098Y-57434D01*
X60817Y-57152D01*
X60569Y-57050D01*
X101715Y-57050D01*
X101680Y-57136D01*
X101679Y-57362D01*
X101766Y-57572D01*
X101926Y-57732D01*
X102136Y-57819D01*
X102362Y-57820D01*
X102572Y-57733D01*
X102732Y-57573D01*
X102819Y-57363D01*
X102820Y-57137D01*
X102784Y-57050D01*
X103715Y-57050D01*
X103680Y-57136D01*
X103679Y-57362D01*
X103766Y-57572D01*
X103926Y-57732D01*
X104136Y-57819D01*
X104362Y-57820D01*
X104572Y-57733D01*
X104732Y-57573D01*
X104819Y-57363D01*
X104820Y-57137D01*
X104784Y-57050D01*
X106930Y-57050D01*
X106684Y-57151D01*
X106402Y-57432D01*
X106250Y-57800D01*
X106249Y-58198D01*
X106401Y-58565D01*
X106682Y-58847D01*
X107050Y-58999D01*
X107448Y-59000D01*
X107815Y-58848D01*
X107950Y-58714D01*
X107950Y-74285D01*
X107950Y-74285D01*
G37*
G54D26*
X107950Y-74285D02*
X107817Y-74152D01*
X107780Y-74137D01*
X107780Y-61895D01*
X107699Y-61700D01*
X107550Y-61550D01*
X107427Y-61499D01*
X107549Y-61449D01*
X107699Y-61300D01*
X107779Y-61105D01*
X107780Y-60895D01*
X107699Y-60700D01*
X107550Y-60550D01*
X107355Y-60470D01*
X107145Y-60469D01*
X106950Y-60550D01*
X106800Y-60699D01*
X106720Y-60894D01*
X106719Y-61104D01*
X106800Y-61299D01*
X106949Y-61449D01*
X107072Y-61500D01*
X106950Y-61550D01*
X106800Y-61699D01*
X106779Y-61750D01*
X105853Y-61750D01*
X105426Y-61323D01*
X105345Y-61269D01*
X105250Y-61250D01*
X104820Y-61250D01*
X104820Y-58637D01*
X104733Y-58427D01*
X104573Y-58267D01*
X104363Y-58180D01*
X104137Y-58179D01*
X103927Y-58266D01*
X103767Y-58426D01*
X103680Y-58636D01*
X103679Y-58862D01*
X103766Y-59072D01*
X103926Y-59232D01*
X104136Y-59319D01*
X104362Y-59320D01*
X104572Y-59233D01*
X104732Y-59073D01*
X104819Y-58863D01*
X104820Y-58637D01*
X104820Y-61250D01*
X104750Y-61250D01*
X104750Y-60400D01*
X104674Y-60217D01*
X104533Y-60076D01*
X104349Y-60000D01*
X104150Y-59999D01*
X103967Y-60075D01*
X103826Y-60216D01*
X103750Y-60400D01*
X103749Y-60599D01*
X103825Y-60782D01*
X103966Y-60923D01*
X104150Y-60999D01*
X104349Y-61000D01*
X104532Y-60924D01*
X104673Y-60783D01*
X104749Y-60599D01*
X104750Y-60400D01*
X104750Y-61250D01*
X102820Y-61250D01*
X102820Y-58637D01*
X102733Y-58427D01*
X102573Y-58267D01*
X102363Y-58180D01*
X102137Y-58179D01*
X101927Y-58266D01*
X101767Y-58426D01*
X101680Y-58636D01*
X101679Y-58862D01*
X101766Y-59072D01*
X101926Y-59232D01*
X102136Y-59319D01*
X102362Y-59320D01*
X102572Y-59233D01*
X102732Y-59073D01*
X102819Y-58863D01*
X102820Y-58637D01*
X102820Y-61250D01*
X102705Y-61250D01*
X102705Y-60557D01*
X102692Y-60379D01*
X102648Y-60272D01*
X102581Y-60239D01*
X102510Y-60310D01*
X102510Y-60168D01*
X102477Y-60101D01*
X102307Y-60044D01*
X102129Y-60057D01*
X102022Y-60101D01*
X101989Y-60168D01*
X102250Y-60429D01*
X102510Y-60168D01*
X102510Y-60310D01*
X102320Y-60500D01*
X102581Y-60760D01*
X102648Y-60727D01*
X102705Y-60557D01*
X102705Y-61250D01*
X102510Y-61250D01*
X102510Y-60831D01*
X102250Y-60570D01*
X102179Y-60641D01*
X102179Y-60500D01*
X101918Y-60239D01*
X101851Y-60272D01*
X101794Y-60442D01*
X101807Y-60620D01*
X101851Y-60727D01*
X101918Y-60760D01*
X102179Y-60500D01*
X102179Y-60641D01*
X101989Y-60831D01*
X102022Y-60898D01*
X102192Y-60955D01*
X102370Y-60942D01*
X102477Y-60898D01*
X102510Y-60831D01*
X102510Y-61250D01*
X101280Y-61250D01*
X101212Y-61182D01*
X101074Y-61125D01*
X100925Y-61124D01*
X100787Y-61181D01*
X100682Y-61287D01*
X100625Y-61425D01*
X100624Y-61574D01*
X100681Y-61712D01*
X100787Y-61817D01*
X100925Y-61874D01*
X101074Y-61875D01*
X101212Y-61818D01*
X101280Y-61750D01*
X105146Y-61750D01*
X105573Y-62176D01*
X105654Y-62230D01*
X105750Y-62250D01*
X106779Y-62250D01*
X106800Y-62299D01*
X106949Y-62449D01*
X107000Y-62470D01*
X107000Y-63062D01*
X106967Y-63075D01*
X106826Y-63216D01*
X106750Y-63400D01*
X106749Y-63599D01*
X106825Y-63782D01*
X106966Y-63923D01*
X107150Y-63999D01*
X107349Y-64000D01*
X107532Y-63924D01*
X107673Y-63783D01*
X107749Y-63599D01*
X107750Y-63400D01*
X107674Y-63217D01*
X107533Y-63076D01*
X107500Y-63062D01*
X107500Y-62470D01*
X107549Y-62449D01*
X107699Y-62300D01*
X107779Y-62105D01*
X107780Y-61895D01*
X107780Y-74137D01*
X107705Y-74106D01*
X107705Y-67557D01*
X107692Y-67379D01*
X107648Y-67272D01*
X107581Y-67239D01*
X107510Y-67310D01*
X107510Y-67168D01*
X107477Y-67101D01*
X107307Y-67044D01*
X107129Y-67057D01*
X107022Y-67101D01*
X106989Y-67168D01*
X107250Y-67429D01*
X107510Y-67168D01*
X107510Y-67310D01*
X107320Y-67500D01*
X107581Y-67760D01*
X107648Y-67727D01*
X107705Y-67557D01*
X107705Y-74106D01*
X107510Y-74025D01*
X107510Y-67831D01*
X107250Y-67570D01*
X107179Y-67641D01*
X107179Y-67500D01*
X106918Y-67239D01*
X106851Y-67272D01*
X106794Y-67442D01*
X106807Y-67620D01*
X106851Y-67727D01*
X106918Y-67760D01*
X107179Y-67500D01*
X107179Y-67641D01*
X106989Y-67831D01*
X107022Y-67898D01*
X107192Y-67955D01*
X107370Y-67942D01*
X107477Y-67898D01*
X107510Y-67831D01*
X107510Y-74025D01*
X107449Y-74000D01*
X107051Y-73999D01*
X106684Y-74151D01*
X106402Y-74432D01*
X106250Y-74800D01*
X106249Y-75198D01*
X106401Y-75565D01*
X106682Y-75847D01*
X106930Y-75950D01*
X105835Y-75950D01*
X105835Y-64860D01*
X105789Y-64750D01*
X105789Y-63103D01*
X105779Y-62875D01*
X105711Y-62713D01*
X105631Y-62664D01*
X105561Y-62735D01*
X105561Y-62594D01*
X105512Y-62514D01*
X105297Y-62436D01*
X105069Y-62446D01*
X104907Y-62514D01*
X104858Y-62594D01*
X105210Y-62945D01*
X105561Y-62594D01*
X105561Y-62735D01*
X105280Y-63016D01*
X105631Y-63367D01*
X105711Y-63318D01*
X105789Y-63103D01*
X105789Y-64750D01*
X105740Y-64630D01*
X105564Y-64454D01*
X105561Y-64453D01*
X105561Y-63437D01*
X105210Y-63086D01*
X105139Y-63157D01*
X105139Y-63016D01*
X104788Y-62664D01*
X104708Y-62713D01*
X104630Y-62928D01*
X104640Y-63156D01*
X104708Y-63318D01*
X104788Y-63367D01*
X105139Y-63016D01*
X105139Y-63157D01*
X104858Y-63437D01*
X104907Y-63517D01*
X105122Y-63595D01*
X105350Y-63585D01*
X105512Y-63517D01*
X105561Y-63437D01*
X105561Y-64453D01*
X105334Y-64359D01*
X105086Y-64358D01*
X104856Y-64453D01*
X104680Y-64629D01*
X104585Y-64859D01*
X104584Y-65107D01*
X104679Y-65337D01*
X104855Y-65513D01*
X105085Y-65608D01*
X105333Y-65609D01*
X105563Y-65514D01*
X105739Y-65338D01*
X105834Y-65108D01*
X105835Y-64860D01*
X105835Y-75950D01*
X104359Y-75950D01*
X104359Y-75086D01*
X104264Y-74856D01*
X104088Y-74680D01*
X103984Y-74637D01*
X103984Y-72046D01*
X104067Y-71962D01*
X104124Y-71824D01*
X104125Y-71675D01*
X104068Y-71537D01*
X103984Y-71453D01*
X103984Y-70862D01*
X104087Y-70820D01*
X104263Y-70644D01*
X104358Y-70414D01*
X104359Y-70166D01*
X104264Y-69936D01*
X104088Y-69760D01*
X103858Y-69665D01*
X103610Y-69664D01*
X103380Y-69759D01*
X103280Y-69860D01*
X103280Y-68395D01*
X103235Y-68286D01*
X103235Y-67565D01*
X103223Y-67374D01*
X103173Y-67254D01*
X103102Y-67217D01*
X103032Y-67288D01*
X103032Y-67147D01*
X102995Y-67076D01*
X102815Y-67014D01*
X102624Y-67026D01*
X102504Y-67076D01*
X102467Y-67147D01*
X102750Y-67429D01*
X103032Y-67147D01*
X103032Y-67288D01*
X102820Y-67500D01*
X103102Y-67782D01*
X103173Y-67745D01*
X103235Y-67565D01*
X103235Y-68286D01*
X103199Y-68200D01*
X103050Y-68050D01*
X102864Y-67973D01*
X102875Y-67973D01*
X102995Y-67923D01*
X103032Y-67852D01*
X102750Y-67570D01*
X102679Y-67641D01*
X102679Y-67500D01*
X102397Y-67217D01*
X102326Y-67254D01*
X102264Y-67434D01*
X102276Y-67625D01*
X102326Y-67745D01*
X102397Y-67782D01*
X102679Y-67500D01*
X102679Y-67641D01*
X102467Y-67852D01*
X102504Y-67923D01*
X102643Y-67970D01*
X102450Y-68050D01*
X102300Y-68199D01*
X102220Y-68394D01*
X102219Y-68604D01*
X102300Y-68799D01*
X102449Y-68949D01*
X102644Y-69029D01*
X102854Y-69030D01*
X103049Y-68949D01*
X103199Y-68800D01*
X103279Y-68605D01*
X103280Y-68395D01*
X103280Y-69860D01*
X103204Y-69935D01*
X103109Y-70165D01*
X103108Y-70413D01*
X103203Y-70643D01*
X103379Y-70819D01*
X103484Y-70862D01*
X103484Y-71485D01*
X103432Y-71537D01*
X103375Y-71675D01*
X103374Y-71824D01*
X103431Y-71962D01*
X103484Y-72014D01*
X103484Y-74637D01*
X103380Y-74679D01*
X103204Y-74855D01*
X103109Y-75085D01*
X103108Y-75333D01*
X103203Y-75563D01*
X103379Y-75739D01*
X103609Y-75834D01*
X103857Y-75835D01*
X104087Y-75740D01*
X104263Y-75564D01*
X104358Y-75334D01*
X104359Y-75086D01*
X104359Y-75950D01*
X102345Y-75950D01*
X102345Y-75297D01*
X102345Y-70377D01*
X102335Y-70149D01*
X102267Y-69987D01*
X102187Y-69938D01*
X102117Y-70009D01*
X102117Y-69868D01*
X102068Y-69788D01*
X101853Y-69710D01*
X101625Y-69720D01*
X101463Y-69788D01*
X101414Y-69868D01*
X101766Y-70219D01*
X102117Y-69868D01*
X102117Y-70009D01*
X101836Y-70290D01*
X102187Y-70641D01*
X102267Y-70592D01*
X102345Y-70377D01*
X102345Y-75297D01*
X102335Y-75069D01*
X102267Y-74907D01*
X102187Y-74858D01*
X102117Y-74929D01*
X102117Y-74788D01*
X102117Y-70711D01*
X101766Y-70360D01*
X101695Y-70431D01*
X101695Y-70290D01*
X101344Y-69938D01*
X101264Y-69987D01*
X101186Y-70202D01*
X101196Y-70430D01*
X101264Y-70592D01*
X101344Y-70641D01*
X101695Y-70290D01*
X101695Y-70431D01*
X101414Y-70711D01*
X101463Y-70791D01*
X101678Y-70869D01*
X101906Y-70859D01*
X102068Y-70791D01*
X102117Y-70711D01*
X102117Y-74788D01*
X102068Y-74708D01*
X101853Y-74630D01*
X101625Y-74640D01*
X101463Y-74708D01*
X101414Y-74788D01*
X101766Y-75139D01*
X102117Y-74788D01*
X102117Y-74929D01*
X101836Y-75210D01*
X102187Y-75561D01*
X102267Y-75512D01*
X102345Y-75297D01*
X102345Y-75950D01*
X102117Y-75950D01*
X102117Y-75631D01*
X101766Y-75280D01*
X101695Y-75351D01*
X101695Y-75210D01*
X101344Y-74858D01*
X101264Y-74907D01*
X101186Y-75122D01*
X101196Y-75350D01*
X101264Y-75512D01*
X101344Y-75561D01*
X101695Y-75210D01*
X101695Y-75351D01*
X101414Y-75631D01*
X101463Y-75711D01*
X101678Y-75789D01*
X101906Y-75779D01*
X102068Y-75711D01*
X102117Y-75631D01*
X102117Y-75950D01*
X100915Y-75950D01*
X100915Y-64860D01*
X100869Y-64750D01*
X100869Y-63103D01*
X100859Y-62875D01*
X100791Y-62713D01*
X100711Y-62664D01*
X100641Y-62735D01*
X100641Y-62594D01*
X100592Y-62514D01*
X100377Y-62436D01*
X100149Y-62446D01*
X100025Y-62498D01*
X100025Y-59535D01*
X100025Y-58885D01*
X99994Y-58811D01*
X99938Y-58755D01*
X99864Y-58725D01*
X99785Y-58724D01*
X99135Y-58724D01*
X99061Y-58755D01*
X99005Y-58811D01*
X98975Y-58885D01*
X98974Y-58964D01*
X98974Y-59614D01*
X99005Y-59688D01*
X99061Y-59744D01*
X99135Y-59774D01*
X99214Y-59775D01*
X99484Y-59775D01*
X99375Y-59782D01*
X99257Y-59830D01*
X99221Y-59900D01*
X99500Y-60179D01*
X99778Y-59900D01*
X99742Y-59830D01*
X99578Y-59775D01*
X99864Y-59775D01*
X99938Y-59744D01*
X99994Y-59688D01*
X100024Y-59614D01*
X100025Y-59535D01*
X100025Y-62498D01*
X99987Y-62514D01*
X99980Y-62525D01*
X99980Y-60313D01*
X99967Y-60125D01*
X99919Y-60007D01*
X99849Y-59971D01*
X99570Y-60250D01*
X99849Y-60528D01*
X99919Y-60492D01*
X99980Y-60313D01*
X99980Y-62525D01*
X99938Y-62594D01*
X100290Y-62945D01*
X100641Y-62594D01*
X100641Y-62735D01*
X100360Y-63016D01*
X100711Y-63367D01*
X100791Y-63318D01*
X100869Y-63103D01*
X100869Y-64750D01*
X100820Y-64630D01*
X100644Y-64454D01*
X100641Y-64453D01*
X100641Y-63437D01*
X100290Y-63086D01*
X99938Y-63437D01*
X99987Y-63517D01*
X100202Y-63595D01*
X100430Y-63585D01*
X100592Y-63517D01*
X100641Y-63437D01*
X100641Y-64453D01*
X100414Y-64359D01*
X100166Y-64358D01*
X99936Y-64453D01*
X99760Y-64629D01*
X99750Y-64654D01*
X99750Y-63227D01*
X99788Y-63318D01*
X99868Y-63367D01*
X100219Y-63016D01*
X99868Y-62664D01*
X99788Y-62713D01*
X99750Y-62818D01*
X99750Y-62280D01*
X99817Y-62212D01*
X99874Y-62074D01*
X99875Y-61925D01*
X99818Y-61787D01*
X99778Y-61748D01*
X99778Y-60599D01*
X99500Y-60320D01*
X99429Y-60391D01*
X99429Y-60250D01*
X99150Y-59971D01*
X99080Y-60007D01*
X99019Y-60186D01*
X99032Y-60374D01*
X99080Y-60492D01*
X99150Y-60528D01*
X99429Y-60250D01*
X99429Y-60391D01*
X99221Y-60599D01*
X99257Y-60669D01*
X99436Y-60730D01*
X99624Y-60717D01*
X99742Y-60669D01*
X99778Y-60599D01*
X99778Y-61748D01*
X99712Y-61682D01*
X99574Y-61625D01*
X99425Y-61624D01*
X99287Y-61681D01*
X99182Y-61787D01*
X99125Y-61925D01*
X99124Y-62074D01*
X99181Y-62212D01*
X99250Y-62280D01*
X99250Y-64719D01*
X99182Y-64787D01*
X99125Y-64925D01*
X99124Y-65074D01*
X99181Y-65212D01*
X99287Y-65317D01*
X99425Y-65374D01*
X99574Y-65375D01*
X99712Y-65318D01*
X99740Y-65290D01*
X99759Y-65337D01*
X99935Y-65513D01*
X100165Y-65608D01*
X100413Y-65609D01*
X100643Y-65514D01*
X100819Y-65338D01*
X100914Y-65108D01*
X100915Y-64860D01*
X100915Y-75950D01*
X100625Y-75950D01*
X100625Y-71175D01*
X100568Y-71037D01*
X100500Y-70969D01*
X100500Y-68780D01*
X100567Y-68712D01*
X100624Y-68574D01*
X100625Y-68425D01*
X100568Y-68287D01*
X100500Y-68219D01*
X100500Y-67780D01*
X100567Y-67712D01*
X100624Y-67574D01*
X100625Y-67425D01*
X100568Y-67287D01*
X100462Y-67182D01*
X100324Y-67125D01*
X100175Y-67124D01*
X100037Y-67181D01*
X99932Y-67287D01*
X99875Y-67425D01*
X99874Y-67574D01*
X99931Y-67712D01*
X100000Y-67780D01*
X100000Y-68219D01*
X99932Y-68287D01*
X99875Y-68425D01*
X99874Y-68574D01*
X99931Y-68712D01*
X100000Y-68780D01*
X100000Y-70969D01*
X99932Y-71037D01*
X99875Y-71175D01*
X99874Y-71324D01*
X99931Y-71462D01*
X100037Y-71567D01*
X100175Y-71624D01*
X100324Y-71625D01*
X100462Y-71568D01*
X100567Y-71462D01*
X100624Y-71324D01*
X100625Y-71175D01*
X100625Y-75950D01*
X99109Y-75950D01*
X99109Y-75086D01*
X99014Y-74856D01*
X98838Y-74680D01*
X98734Y-74637D01*
X98734Y-73046D01*
X98817Y-72962D01*
X98874Y-72824D01*
X98875Y-72675D01*
X98818Y-72537D01*
X98734Y-72453D01*
X98734Y-70862D01*
X98837Y-70820D01*
X99013Y-70644D01*
X99108Y-70414D01*
X99109Y-70166D01*
X99014Y-69936D01*
X98838Y-69760D01*
X98835Y-69759D01*
X98835Y-64860D01*
X98789Y-64750D01*
X98789Y-63103D01*
X98779Y-62875D01*
X98711Y-62713D01*
X98631Y-62664D01*
X98561Y-62735D01*
X98561Y-62594D01*
X98512Y-62514D01*
X98297Y-62436D01*
X98069Y-62446D01*
X97907Y-62514D01*
X97858Y-62594D01*
X98210Y-62945D01*
X98561Y-62594D01*
X98561Y-62735D01*
X98280Y-63016D01*
X98631Y-63367D01*
X98711Y-63318D01*
X98789Y-63103D01*
X98789Y-64750D01*
X98740Y-64630D01*
X98564Y-64454D01*
X98561Y-64453D01*
X98561Y-63437D01*
X98210Y-63086D01*
X98139Y-63157D01*
X98139Y-63016D01*
X97788Y-62664D01*
X97708Y-62713D01*
X97630Y-62928D01*
X97640Y-63156D01*
X97708Y-63318D01*
X97788Y-63367D01*
X98139Y-63016D01*
X98139Y-63157D01*
X97858Y-63437D01*
X97907Y-63517D01*
X98122Y-63595D01*
X98350Y-63585D01*
X98512Y-63517D01*
X98561Y-63437D01*
X98561Y-64453D01*
X98334Y-64359D01*
X98086Y-64358D01*
X97856Y-64453D01*
X97680Y-64629D01*
X97585Y-64859D01*
X97584Y-65107D01*
X97679Y-65337D01*
X97855Y-65513D01*
X98085Y-65608D01*
X98333Y-65609D01*
X98563Y-65514D01*
X98739Y-65338D01*
X98834Y-65108D01*
X98835Y-64860D01*
X98835Y-69759D01*
X98608Y-69665D01*
X98360Y-69664D01*
X98130Y-69759D01*
X98030Y-69860D01*
X98030Y-68395D01*
X97949Y-68200D01*
X97800Y-68050D01*
X97677Y-67999D01*
X97799Y-67949D01*
X97949Y-67800D01*
X98029Y-67605D01*
X98030Y-67395D01*
X97949Y-67200D01*
X97800Y-67050D01*
X97605Y-66970D01*
X97395Y-66969D01*
X97200Y-67050D01*
X97050Y-67199D01*
X96970Y-67394D01*
X96969Y-67604D01*
X97050Y-67799D01*
X97199Y-67949D01*
X97322Y-68000D01*
X97200Y-68050D01*
X97050Y-68199D01*
X96970Y-68394D01*
X96969Y-68604D01*
X97050Y-68799D01*
X97199Y-68949D01*
X97394Y-69029D01*
X97604Y-69030D01*
X97799Y-68949D01*
X97949Y-68800D01*
X98029Y-68605D01*
X98030Y-68395D01*
X98030Y-69860D01*
X97954Y-69935D01*
X97859Y-70165D01*
X97858Y-70413D01*
X97953Y-70643D01*
X98129Y-70819D01*
X98234Y-70862D01*
X98234Y-72485D01*
X98182Y-72537D01*
X98125Y-72675D01*
X98124Y-72824D01*
X98181Y-72962D01*
X98234Y-73014D01*
X98234Y-74637D01*
X98130Y-74679D01*
X97954Y-74855D01*
X97859Y-75085D01*
X97858Y-75333D01*
X97953Y-75563D01*
X98129Y-75739D01*
X98359Y-75834D01*
X98607Y-75835D01*
X98837Y-75740D01*
X99013Y-75564D01*
X99108Y-75334D01*
X99109Y-75086D01*
X99109Y-75950D01*
X97095Y-75950D01*
X97095Y-75297D01*
X97095Y-70377D01*
X97085Y-70149D01*
X97017Y-69987D01*
X96937Y-69938D01*
X96867Y-70009D01*
X96867Y-69868D01*
X96818Y-69788D01*
X96780Y-69774D01*
X96780Y-59395D01*
X96699Y-59200D01*
X96550Y-59050D01*
X96427Y-58999D01*
X96549Y-58949D01*
X96699Y-58800D01*
X96779Y-58605D01*
X96780Y-58395D01*
X96699Y-58200D01*
X96550Y-58050D01*
X96355Y-57970D01*
X96145Y-57969D01*
X95950Y-58050D01*
X95800Y-58199D01*
X95779Y-58250D01*
X95500Y-58250D01*
X95404Y-58269D01*
X95323Y-58323D01*
X95323Y-58323D01*
X95073Y-58573D01*
X95019Y-58654D01*
X95000Y-58750D01*
X95000Y-60250D01*
X95000Y-60500D01*
X95019Y-60595D01*
X95073Y-60676D01*
X95323Y-60926D01*
X95323Y-60926D01*
X95404Y-60980D01*
X95404Y-60980D01*
X95500Y-61000D01*
X95750Y-61000D01*
X95812Y-61000D01*
X95825Y-61032D01*
X95966Y-61173D01*
X96150Y-61249D01*
X96349Y-61250D01*
X96532Y-61174D01*
X96673Y-61033D01*
X96749Y-60849D01*
X96750Y-60650D01*
X96674Y-60467D01*
X96533Y-60326D01*
X96349Y-60250D01*
X96150Y-60249D01*
X95967Y-60325D01*
X95826Y-60466D01*
X95812Y-60500D01*
X95750Y-60500D01*
X95603Y-60500D01*
X95500Y-60396D01*
X95500Y-60250D01*
X95500Y-58853D01*
X95603Y-58750D01*
X95779Y-58750D01*
X95800Y-58799D01*
X95949Y-58949D01*
X96072Y-59000D01*
X95950Y-59050D01*
X95800Y-59199D01*
X95720Y-59394D01*
X95719Y-59604D01*
X95800Y-59799D01*
X95949Y-59949D01*
X96144Y-60029D01*
X96354Y-60030D01*
X96549Y-59949D01*
X96699Y-59800D01*
X96779Y-59605D01*
X96780Y-59395D01*
X96780Y-69774D01*
X96603Y-69710D01*
X96375Y-69720D01*
X96213Y-69788D01*
X96164Y-69868D01*
X96516Y-70219D01*
X96867Y-69868D01*
X96867Y-70009D01*
X96586Y-70290D01*
X96937Y-70641D01*
X97017Y-70592D01*
X97095Y-70377D01*
X97095Y-75297D01*
X97085Y-75069D01*
X97017Y-74907D01*
X96937Y-74858D01*
X96867Y-74929D01*
X96867Y-74788D01*
X96867Y-70711D01*
X96516Y-70360D01*
X96445Y-70431D01*
X96445Y-70290D01*
X96094Y-69938D01*
X96014Y-69987D01*
X95936Y-70202D01*
X95946Y-70430D01*
X96014Y-70592D01*
X96094Y-70641D01*
X96445Y-70290D01*
X96445Y-70431D01*
X96164Y-70711D01*
X96213Y-70791D01*
X96428Y-70869D01*
X96656Y-70859D01*
X96818Y-70791D01*
X96867Y-70711D01*
X96867Y-74788D01*
X96818Y-74708D01*
X96603Y-74630D01*
X96375Y-74640D01*
X96213Y-74708D01*
X96164Y-74788D01*
X96516Y-75139D01*
X96867Y-74788D01*
X96867Y-74929D01*
X96586Y-75210D01*
X96937Y-75561D01*
X97017Y-75512D01*
X97095Y-75297D01*
X97095Y-75950D01*
X96867Y-75950D01*
X96867Y-75631D01*
X96516Y-75280D01*
X96445Y-75351D01*
X96445Y-75210D01*
X96094Y-74858D01*
X96014Y-74907D01*
X95936Y-75122D01*
X95946Y-75350D01*
X96014Y-75512D01*
X96094Y-75561D01*
X96445Y-75210D01*
X96445Y-75351D01*
X96164Y-75631D01*
X96213Y-75711D01*
X96428Y-75789D01*
X96656Y-75779D01*
X96818Y-75711D01*
X96867Y-75631D01*
X96867Y-75950D01*
X93915Y-75950D01*
X93915Y-64860D01*
X93869Y-64750D01*
X93869Y-63103D01*
X93859Y-62875D01*
X93791Y-62713D01*
X93711Y-62664D01*
X93641Y-62735D01*
X93641Y-62594D01*
X93592Y-62514D01*
X93377Y-62436D01*
X93149Y-62446D01*
X92987Y-62514D01*
X92938Y-62594D01*
X93290Y-62945D01*
X93641Y-62594D01*
X93641Y-62735D01*
X93360Y-63016D01*
X93711Y-63367D01*
X93791Y-63318D01*
X93869Y-63103D01*
X93869Y-64750D01*
X93820Y-64630D01*
X93644Y-64454D01*
X93641Y-64453D01*
X93641Y-63437D01*
X93290Y-63086D01*
X93219Y-63157D01*
X93219Y-63016D01*
X92868Y-62664D01*
X92788Y-62713D01*
X92710Y-62928D01*
X92720Y-63156D01*
X92788Y-63318D01*
X92868Y-63367D01*
X93219Y-63016D01*
X93219Y-63157D01*
X92938Y-63437D01*
X92987Y-63517D01*
X93202Y-63595D01*
X93430Y-63585D01*
X93592Y-63517D01*
X93641Y-63437D01*
X93641Y-64453D01*
X93414Y-64359D01*
X93166Y-64358D01*
X92936Y-64453D01*
X92760Y-64629D01*
X92705Y-64762D01*
X92705Y-60807D01*
X92692Y-60629D01*
X92648Y-60522D01*
X92581Y-60489D01*
X92510Y-60560D01*
X92510Y-60418D01*
X92477Y-60351D01*
X92307Y-60294D01*
X92129Y-60307D01*
X92022Y-60351D01*
X91989Y-60418D01*
X92250Y-60679D01*
X92510Y-60418D01*
X92510Y-60560D01*
X92320Y-60750D01*
X92581Y-61010D01*
X92648Y-60977D01*
X92705Y-60807D01*
X92705Y-64762D01*
X92665Y-64859D01*
X92664Y-65107D01*
X92759Y-65337D01*
X92935Y-65513D01*
X93165Y-65608D01*
X93413Y-65609D01*
X93643Y-65514D01*
X93819Y-65338D01*
X93914Y-65108D01*
X93915Y-64860D01*
X93915Y-75950D01*
X93859Y-75950D01*
X93859Y-75086D01*
X93764Y-74856D01*
X93588Y-74680D01*
X93484Y-74637D01*
X93484Y-74046D01*
X93567Y-73962D01*
X93624Y-73824D01*
X93625Y-73675D01*
X93568Y-73537D01*
X93484Y-73453D01*
X93484Y-70862D01*
X93587Y-70820D01*
X93763Y-70644D01*
X93858Y-70414D01*
X93859Y-70166D01*
X93764Y-69936D01*
X93588Y-69760D01*
X93358Y-69665D01*
X93110Y-69664D01*
X92880Y-69759D01*
X92780Y-69860D01*
X92780Y-68395D01*
X92735Y-68286D01*
X92735Y-67565D01*
X92723Y-67374D01*
X92673Y-67254D01*
X92602Y-67217D01*
X92532Y-67288D01*
X92532Y-67147D01*
X92510Y-67105D01*
X92510Y-61081D01*
X92250Y-60820D01*
X92179Y-60891D01*
X92179Y-60750D01*
X91918Y-60489D01*
X91851Y-60522D01*
X91794Y-60692D01*
X91807Y-60870D01*
X91851Y-60977D01*
X91918Y-61010D01*
X92179Y-60750D01*
X92179Y-60891D01*
X91989Y-61081D01*
X92022Y-61148D01*
X92192Y-61205D01*
X92370Y-61192D01*
X92477Y-61148D01*
X92510Y-61081D01*
X92510Y-67105D01*
X92495Y-67076D01*
X92315Y-67014D01*
X92124Y-67026D01*
X92004Y-67076D01*
X91967Y-67147D01*
X92250Y-67429D01*
X92532Y-67147D01*
X92532Y-67288D01*
X92320Y-67500D01*
X92602Y-67782D01*
X92673Y-67745D01*
X92735Y-67565D01*
X92735Y-68286D01*
X92699Y-68200D01*
X92550Y-68050D01*
X92364Y-67973D01*
X92375Y-67973D01*
X92495Y-67923D01*
X92532Y-67852D01*
X92250Y-67570D01*
X92179Y-67641D01*
X92179Y-67500D01*
X91897Y-67217D01*
X91826Y-67254D01*
X91764Y-67434D01*
X91776Y-67625D01*
X91826Y-67745D01*
X91897Y-67782D01*
X92179Y-67500D01*
X92179Y-67641D01*
X91967Y-67852D01*
X92004Y-67923D01*
X92143Y-67970D01*
X91950Y-68050D01*
X91800Y-68199D01*
X91750Y-68322D01*
X91750Y-62780D01*
X91817Y-62712D01*
X91874Y-62574D01*
X91875Y-62425D01*
X91818Y-62287D01*
X91712Y-62182D01*
X91574Y-62125D01*
X91425Y-62124D01*
X91287Y-62181D01*
X91182Y-62287D01*
X91125Y-62425D01*
X91124Y-62574D01*
X91181Y-62712D01*
X91250Y-62780D01*
X91250Y-65900D01*
X91174Y-65717D01*
X91033Y-65576D01*
X90849Y-65500D01*
X90650Y-65499D01*
X90467Y-65575D01*
X90326Y-65716D01*
X90250Y-65900D01*
X90249Y-66099D01*
X90325Y-66282D01*
X90466Y-66423D01*
X90650Y-66499D01*
X90849Y-66500D01*
X91032Y-66424D01*
X91173Y-66283D01*
X91249Y-66099D01*
X91250Y-65999D01*
X91250Y-69000D01*
X91269Y-69095D01*
X91323Y-69176D01*
X92000Y-69853D01*
X92000Y-71469D01*
X91932Y-71537D01*
X91875Y-71675D01*
X91874Y-71824D01*
X91931Y-71962D01*
X92037Y-72067D01*
X92175Y-72124D01*
X92324Y-72125D01*
X92462Y-72068D01*
X92567Y-71962D01*
X92624Y-71824D01*
X92625Y-71675D01*
X92568Y-71537D01*
X92500Y-71469D01*
X92500Y-69750D01*
X92499Y-69749D01*
X92500Y-69749D01*
X92496Y-69730D01*
X92480Y-69654D01*
X92480Y-69654D01*
X92426Y-69573D01*
X92426Y-69573D01*
X91750Y-68896D01*
X91750Y-68677D01*
X91800Y-68799D01*
X91949Y-68949D01*
X92144Y-69029D01*
X92354Y-69030D01*
X92549Y-68949D01*
X92699Y-68800D01*
X92779Y-68605D01*
X92780Y-68395D01*
X92780Y-69860D01*
X92704Y-69935D01*
X92609Y-70165D01*
X92608Y-70413D01*
X92703Y-70643D01*
X92879Y-70819D01*
X92984Y-70862D01*
X92984Y-73485D01*
X92932Y-73537D01*
X92875Y-73675D01*
X92874Y-73824D01*
X92931Y-73962D01*
X92984Y-74014D01*
X92984Y-74637D01*
X92880Y-74679D01*
X92704Y-74855D01*
X92609Y-75085D01*
X92608Y-75333D01*
X92703Y-75563D01*
X92879Y-75739D01*
X93109Y-75834D01*
X93357Y-75835D01*
X93587Y-75740D01*
X93763Y-75564D01*
X93858Y-75334D01*
X93859Y-75086D01*
X93859Y-75950D01*
X91845Y-75950D01*
X91845Y-75297D01*
X91845Y-70377D01*
X91835Y-70149D01*
X91767Y-69987D01*
X91687Y-69938D01*
X91617Y-70009D01*
X91617Y-69868D01*
X91568Y-69788D01*
X91353Y-69710D01*
X91125Y-69720D01*
X90963Y-69788D01*
X90914Y-69868D01*
X91266Y-70219D01*
X91617Y-69868D01*
X91617Y-70009D01*
X91336Y-70290D01*
X91687Y-70641D01*
X91767Y-70592D01*
X91845Y-70377D01*
X91845Y-75297D01*
X91835Y-75069D01*
X91767Y-74907D01*
X91687Y-74858D01*
X91617Y-74929D01*
X91617Y-74788D01*
X91617Y-70711D01*
X91266Y-70360D01*
X91195Y-70431D01*
X91195Y-70290D01*
X90844Y-69938D01*
X90764Y-69987D01*
X90686Y-70202D01*
X90696Y-70430D01*
X90764Y-70592D01*
X90844Y-70641D01*
X91195Y-70290D01*
X91195Y-70431D01*
X90914Y-70711D01*
X90963Y-70791D01*
X91178Y-70869D01*
X91406Y-70859D01*
X91568Y-70791D01*
X91617Y-70711D01*
X91617Y-74788D01*
X91568Y-74708D01*
X91353Y-74630D01*
X91125Y-74640D01*
X90963Y-74708D01*
X90914Y-74788D01*
X91266Y-75139D01*
X91617Y-74788D01*
X91617Y-74929D01*
X91336Y-75210D01*
X91687Y-75561D01*
X91767Y-75512D01*
X91845Y-75297D01*
X91845Y-75950D01*
X91617Y-75950D01*
X91617Y-75631D01*
X91266Y-75280D01*
X91195Y-75351D01*
X91195Y-75210D01*
X90844Y-74858D01*
X90764Y-74907D01*
X90686Y-75122D01*
X90696Y-75350D01*
X90764Y-75512D01*
X90844Y-75561D01*
X91195Y-75210D01*
X91195Y-75351D01*
X90914Y-75631D01*
X90963Y-75711D01*
X91178Y-75789D01*
X91406Y-75779D01*
X91568Y-75711D01*
X91617Y-75631D01*
X91617Y-75950D01*
X90625Y-75950D01*
X90625Y-68425D01*
X90568Y-68287D01*
X90500Y-68219D01*
X90500Y-67780D01*
X90567Y-67712D01*
X90624Y-67574D01*
X90625Y-67425D01*
X90568Y-67287D01*
X90462Y-67182D01*
X90324Y-67125D01*
X90175Y-67124D01*
X90125Y-67145D01*
X90125Y-62425D01*
X90068Y-62287D01*
X90000Y-62219D01*
X90000Y-61500D01*
X89980Y-61404D01*
X89926Y-61323D01*
X89510Y-60906D01*
X89518Y-60902D01*
X89652Y-60769D01*
X89724Y-60594D01*
X89725Y-60405D01*
X89652Y-60231D01*
X89519Y-60097D01*
X89344Y-60025D01*
X89155Y-60024D01*
X88981Y-60097D01*
X88847Y-60230D01*
X88775Y-60405D01*
X88774Y-60594D01*
X88847Y-60768D01*
X88980Y-60902D01*
X89000Y-60910D01*
X89000Y-61000D01*
X89019Y-61095D01*
X89073Y-61176D01*
X89500Y-61603D01*
X89500Y-62219D01*
X89432Y-62287D01*
X89375Y-62425D01*
X89374Y-62574D01*
X89431Y-62712D01*
X89537Y-62817D01*
X89675Y-62874D01*
X89824Y-62875D01*
X89962Y-62818D01*
X90067Y-62712D01*
X90124Y-62574D01*
X90125Y-62425D01*
X90125Y-67145D01*
X90037Y-67181D01*
X89932Y-67287D01*
X89875Y-67425D01*
X89874Y-67574D01*
X89931Y-67712D01*
X90000Y-67780D01*
X90000Y-68219D01*
X89932Y-68287D01*
X89875Y-68425D01*
X89874Y-68574D01*
X89931Y-68712D01*
X90037Y-68817D01*
X90175Y-68874D01*
X90324Y-68875D01*
X90462Y-68818D01*
X90567Y-68712D01*
X90624Y-68574D01*
X90625Y-68425D01*
X90625Y-75950D01*
X89725Y-75950D01*
X89725Y-63405D01*
X89652Y-63231D01*
X89519Y-63097D01*
X89344Y-63025D01*
X89155Y-63024D01*
X89000Y-63089D01*
X89000Y-62780D01*
X89067Y-62712D01*
X89124Y-62574D01*
X89125Y-62425D01*
X89068Y-62287D01*
X88962Y-62182D01*
X88824Y-62125D01*
X88675Y-62124D01*
X88537Y-62181D01*
X88432Y-62287D01*
X88375Y-62425D01*
X88374Y-62574D01*
X88431Y-62712D01*
X88500Y-62780D01*
X88500Y-63089D01*
X88344Y-63025D01*
X88155Y-63024D01*
X88000Y-63089D01*
X88000Y-60910D01*
X88155Y-60974D01*
X88344Y-60975D01*
X88518Y-60902D01*
X88652Y-60769D01*
X88724Y-60594D01*
X88725Y-60405D01*
X88652Y-60231D01*
X88519Y-60097D01*
X88344Y-60025D01*
X88328Y-60025D01*
X88426Y-59926D01*
X88480Y-59845D01*
X88500Y-59750D01*
X88500Y-59187D01*
X88532Y-59174D01*
X88673Y-59033D01*
X88749Y-58849D01*
X88750Y-58650D01*
X88705Y-58542D01*
X88705Y-57807D01*
X88692Y-57629D01*
X88648Y-57522D01*
X88581Y-57489D01*
X88510Y-57560D01*
X88510Y-57418D01*
X88477Y-57351D01*
X88307Y-57294D01*
X88129Y-57307D01*
X88022Y-57351D01*
X87989Y-57418D01*
X88250Y-57679D01*
X88510Y-57418D01*
X88510Y-57560D01*
X88320Y-57750D01*
X88581Y-58010D01*
X88648Y-57977D01*
X88705Y-57807D01*
X88705Y-58542D01*
X88674Y-58467D01*
X88533Y-58326D01*
X88510Y-58316D01*
X88349Y-58250D01*
X88150Y-58249D01*
X88000Y-58312D01*
X88000Y-58250D01*
X87980Y-58154D01*
X87928Y-58076D01*
X87996Y-58144D01*
X88012Y-58128D01*
X88022Y-58148D01*
X88192Y-58205D01*
X88370Y-58192D01*
X88477Y-58148D01*
X88510Y-58081D01*
X88285Y-57856D01*
X88250Y-57820D01*
X88179Y-57750D01*
X88143Y-57714D01*
X87918Y-57489D01*
X87851Y-57522D01*
X87794Y-57692D01*
X87807Y-57870D01*
X87851Y-57977D01*
X87871Y-57987D01*
X87856Y-58002D01*
X87736Y-57882D01*
X87749Y-57849D01*
X87750Y-57650D01*
X87674Y-57467D01*
X87533Y-57326D01*
X87349Y-57250D01*
X87150Y-57249D01*
X86967Y-57325D01*
X86826Y-57466D01*
X86750Y-57650D01*
X86749Y-57849D01*
X86817Y-58013D01*
X86750Y-58000D01*
X86687Y-58000D01*
X86749Y-57849D01*
X86750Y-57650D01*
X86674Y-57467D01*
X86533Y-57326D01*
X86349Y-57250D01*
X86150Y-57249D01*
X85967Y-57325D01*
X85826Y-57466D01*
X85750Y-57650D01*
X85749Y-57849D01*
X85812Y-58000D01*
X85750Y-58000D01*
X85654Y-58019D01*
X85573Y-58073D01*
X85073Y-58573D01*
X85019Y-58654D01*
X85000Y-58750D01*
X85000Y-60089D01*
X84981Y-60097D01*
X84847Y-60230D01*
X84775Y-60405D01*
X84774Y-60594D01*
X84847Y-60768D01*
X84980Y-60902D01*
X85155Y-60974D01*
X85344Y-60975D01*
X85518Y-60902D01*
X85652Y-60769D01*
X85724Y-60594D01*
X85725Y-60405D01*
X85652Y-60231D01*
X85519Y-60097D01*
X85500Y-60089D01*
X85500Y-58853D01*
X85749Y-58603D01*
X85749Y-59089D01*
X85780Y-59163D01*
X85836Y-59219D01*
X85910Y-59249D01*
X85989Y-59250D01*
X86000Y-59250D01*
X86000Y-60089D01*
X85981Y-60097D01*
X85847Y-60230D01*
X85775Y-60405D01*
X85774Y-60594D01*
X85847Y-60768D01*
X85980Y-60902D01*
X86155Y-60974D01*
X86344Y-60975D01*
X86518Y-60902D01*
X86652Y-60769D01*
X86724Y-60594D01*
X86725Y-60405D01*
X86652Y-60231D01*
X86519Y-60097D01*
X86500Y-60089D01*
X86500Y-59250D01*
X86589Y-59250D01*
X86663Y-59219D01*
X86719Y-59163D01*
X86749Y-59089D01*
X86750Y-59010D01*
X86750Y-58849D01*
X86825Y-59032D01*
X86966Y-59173D01*
X87150Y-59249D01*
X87349Y-59250D01*
X87500Y-59187D01*
X87500Y-59646D01*
X87097Y-60049D01*
X86981Y-60097D01*
X86847Y-60230D01*
X86775Y-60405D01*
X86774Y-60594D01*
X86847Y-60768D01*
X86980Y-60902D01*
X87155Y-60974D01*
X87344Y-60975D01*
X87500Y-60910D01*
X87500Y-61219D01*
X87462Y-61182D01*
X87324Y-61125D01*
X87175Y-61124D01*
X87037Y-61181D01*
X87000Y-61219D01*
X86962Y-61182D01*
X86824Y-61125D01*
X86675Y-61124D01*
X86537Y-61181D01*
X86432Y-61287D01*
X86375Y-61425D01*
X86374Y-61574D01*
X86431Y-61712D01*
X86500Y-61780D01*
X86500Y-63089D01*
X86344Y-63025D01*
X86155Y-63024D01*
X85981Y-63097D01*
X85847Y-63230D01*
X85775Y-63405D01*
X85774Y-63594D01*
X85847Y-63768D01*
X85980Y-63902D01*
X86000Y-63910D01*
X86000Y-64969D01*
X85962Y-64932D01*
X85824Y-64875D01*
X85725Y-64874D01*
X85725Y-63405D01*
X85652Y-63231D01*
X85519Y-63097D01*
X85344Y-63025D01*
X85155Y-63024D01*
X84981Y-63097D01*
X84847Y-63230D01*
X84775Y-63405D01*
X84774Y-63594D01*
X84847Y-63768D01*
X84980Y-63902D01*
X85155Y-63974D01*
X85344Y-63975D01*
X85518Y-63902D01*
X85652Y-63769D01*
X85724Y-63594D01*
X85725Y-63405D01*
X85725Y-64874D01*
X85675Y-64874D01*
X85537Y-64931D01*
X85432Y-65037D01*
X85375Y-65175D01*
X85374Y-65324D01*
X85431Y-65462D01*
X85500Y-65530D01*
X85500Y-66469D01*
X85432Y-66537D01*
X85375Y-66675D01*
X85374Y-66824D01*
X85431Y-66962D01*
X85537Y-67067D01*
X85675Y-67124D01*
X85771Y-67125D01*
X84750Y-68146D01*
X84750Y-65900D01*
X84674Y-65717D01*
X84533Y-65576D01*
X84349Y-65500D01*
X84150Y-65499D01*
X84000Y-65562D01*
X84000Y-63910D01*
X84155Y-63974D01*
X84344Y-63975D01*
X84518Y-63902D01*
X84652Y-63769D01*
X84724Y-63594D01*
X84725Y-63405D01*
X84725Y-60405D01*
X84652Y-60231D01*
X84519Y-60097D01*
X84500Y-60089D01*
X84500Y-58750D01*
X84480Y-58654D01*
X84426Y-58573D01*
X83926Y-58073D01*
X83845Y-58019D01*
X83750Y-58000D01*
X83660Y-58000D01*
X83652Y-57981D01*
X83519Y-57847D01*
X83344Y-57775D01*
X83155Y-57774D01*
X82981Y-57847D01*
X82847Y-57980D01*
X82775Y-58155D01*
X82774Y-58344D01*
X82847Y-58518D01*
X82980Y-58652D01*
X83155Y-58724D01*
X83344Y-58725D01*
X83518Y-58652D01*
X83652Y-58519D01*
X83656Y-58509D01*
X84000Y-58853D01*
X84000Y-60089D01*
X83981Y-60097D01*
X83847Y-60230D01*
X83775Y-60405D01*
X83774Y-60594D01*
X83847Y-60768D01*
X83980Y-60902D01*
X84155Y-60974D01*
X84344Y-60975D01*
X84518Y-60902D01*
X84652Y-60769D01*
X84724Y-60594D01*
X84725Y-60405D01*
X84725Y-63405D01*
X84652Y-63231D01*
X84519Y-63097D01*
X84344Y-63025D01*
X84155Y-63024D01*
X84000Y-63089D01*
X84000Y-61530D01*
X84067Y-61462D01*
X84124Y-61324D01*
X84125Y-61175D01*
X84068Y-61037D01*
X83962Y-60932D01*
X83824Y-60875D01*
X83725Y-60874D01*
X83725Y-60405D01*
X83652Y-60231D01*
X83519Y-60097D01*
X83344Y-60025D01*
X83155Y-60024D01*
X82981Y-60097D01*
X82847Y-60230D01*
X82775Y-60405D01*
X82774Y-60594D01*
X82847Y-60768D01*
X82980Y-60902D01*
X83155Y-60974D01*
X83344Y-60975D01*
X83518Y-60902D01*
X83652Y-60769D01*
X83724Y-60594D01*
X83725Y-60405D01*
X83725Y-60874D01*
X83675Y-60874D01*
X83537Y-60931D01*
X83432Y-61037D01*
X83375Y-61175D01*
X83374Y-61324D01*
X83431Y-61462D01*
X83500Y-61530D01*
X83500Y-63138D01*
X83485Y-63123D01*
X83470Y-63138D01*
X83462Y-63122D01*
X83301Y-63069D01*
X83133Y-63082D01*
X83037Y-63122D01*
X83007Y-63186D01*
X83214Y-63393D01*
X83214Y-63393D01*
X83250Y-63429D01*
X83320Y-63500D01*
X83250Y-63570D01*
X83214Y-63606D01*
X83179Y-63641D01*
X83179Y-63500D01*
X82936Y-63257D01*
X82872Y-63287D01*
X82819Y-63448D01*
X82832Y-63616D01*
X82872Y-63712D01*
X82936Y-63742D01*
X83179Y-63500D01*
X83179Y-63641D01*
X83007Y-63813D01*
X83037Y-63877D01*
X83198Y-63930D01*
X83366Y-63917D01*
X83462Y-63877D01*
X83470Y-63861D01*
X83485Y-63876D01*
X83492Y-63869D01*
X83500Y-63861D01*
X83500Y-70969D01*
X83492Y-70977D01*
X83432Y-71037D01*
X83375Y-71175D01*
X83374Y-71324D01*
X83431Y-71462D01*
X83537Y-71567D01*
X83675Y-71624D01*
X83824Y-71625D01*
X83962Y-71568D01*
X84067Y-71462D01*
X84124Y-71324D01*
X84125Y-71175D01*
X84068Y-71037D01*
X84000Y-70969D01*
X84000Y-66437D01*
X84150Y-66499D01*
X84349Y-66500D01*
X84532Y-66424D01*
X84673Y-66283D01*
X84749Y-66099D01*
X84750Y-65900D01*
X84750Y-68146D01*
X84573Y-68323D01*
X84519Y-68404D01*
X84500Y-68500D01*
X84500Y-73469D01*
X84432Y-73537D01*
X84375Y-73675D01*
X84374Y-73824D01*
X84431Y-73962D01*
X84537Y-74067D01*
X84675Y-74124D01*
X84824Y-74125D01*
X84962Y-74068D01*
X85067Y-73962D01*
X85124Y-73824D01*
X85125Y-73675D01*
X85068Y-73537D01*
X85000Y-73469D01*
X85000Y-68603D01*
X86426Y-67176D01*
X86426Y-67176D01*
X86426Y-67176D01*
X86480Y-67095D01*
X86480Y-67095D01*
X86500Y-67000D01*
X86500Y-66437D01*
X86650Y-66499D01*
X86849Y-66500D01*
X87032Y-66424D01*
X87173Y-66283D01*
X87249Y-66099D01*
X87250Y-65900D01*
X87174Y-65717D01*
X87033Y-65576D01*
X86977Y-65552D01*
X87067Y-65462D01*
X87124Y-65324D01*
X87125Y-65175D01*
X87068Y-65037D01*
X87000Y-64969D01*
X87000Y-63910D01*
X87155Y-63974D01*
X87344Y-63975D01*
X87500Y-63910D01*
X87500Y-64219D01*
X87432Y-64287D01*
X87375Y-64425D01*
X87374Y-64574D01*
X87431Y-64712D01*
X87537Y-64817D01*
X87675Y-64874D01*
X87824Y-64875D01*
X87962Y-64818D01*
X88000Y-64780D01*
X88000Y-65719D01*
X87932Y-65787D01*
X87875Y-65925D01*
X87874Y-66074D01*
X87931Y-66212D01*
X88037Y-66317D01*
X88175Y-66374D01*
X88324Y-66375D01*
X88462Y-66318D01*
X88567Y-66212D01*
X88624Y-66074D01*
X88625Y-65925D01*
X88568Y-65787D01*
X88500Y-65719D01*
X88500Y-65280D01*
X88537Y-65317D01*
X88675Y-65374D01*
X88824Y-65375D01*
X88962Y-65318D01*
X89000Y-65280D01*
X89000Y-72469D01*
X88932Y-72537D01*
X88875Y-72675D01*
X88874Y-72824D01*
X88931Y-72962D01*
X89037Y-73067D01*
X89175Y-73124D01*
X89324Y-73125D01*
X89462Y-73068D01*
X89567Y-72962D01*
X89624Y-72824D01*
X89625Y-72675D01*
X89568Y-72537D01*
X89500Y-72469D01*
X89500Y-63910D01*
X89518Y-63902D01*
X89652Y-63769D01*
X89724Y-63594D01*
X89725Y-63405D01*
X89725Y-75950D01*
X88609Y-75950D01*
X88609Y-75086D01*
X88514Y-74856D01*
X88338Y-74680D01*
X88234Y-74637D01*
X88234Y-70862D01*
X88337Y-70820D01*
X88513Y-70644D01*
X88608Y-70414D01*
X88609Y-70166D01*
X88514Y-69936D01*
X88338Y-69760D01*
X88108Y-69665D01*
X87860Y-69664D01*
X87630Y-69759D01*
X87530Y-69860D01*
X87530Y-68395D01*
X87449Y-68200D01*
X87300Y-68050D01*
X87177Y-67999D01*
X87299Y-67949D01*
X87449Y-67800D01*
X87529Y-67605D01*
X87530Y-67395D01*
X87449Y-67200D01*
X87300Y-67050D01*
X87105Y-66970D01*
X86895Y-66969D01*
X86700Y-67050D01*
X86550Y-67199D01*
X86470Y-67394D01*
X86469Y-67604D01*
X86550Y-67799D01*
X86699Y-67949D01*
X86822Y-68000D01*
X86700Y-68050D01*
X86550Y-68199D01*
X86470Y-68394D01*
X86469Y-68604D01*
X86550Y-68799D01*
X86699Y-68949D01*
X86894Y-69029D01*
X87104Y-69030D01*
X87299Y-68949D01*
X87449Y-68800D01*
X87529Y-68605D01*
X87530Y-68395D01*
X87530Y-69860D01*
X87454Y-69935D01*
X87359Y-70165D01*
X87358Y-70413D01*
X87453Y-70643D01*
X87629Y-70819D01*
X87734Y-70862D01*
X87734Y-74637D01*
X87630Y-74679D01*
X87454Y-74855D01*
X87359Y-75085D01*
X87358Y-75333D01*
X87453Y-75563D01*
X87629Y-75739D01*
X87859Y-75834D01*
X88107Y-75835D01*
X88337Y-75740D01*
X88513Y-75564D01*
X88608Y-75334D01*
X88609Y-75086D01*
X88609Y-75950D01*
X86595Y-75950D01*
X86595Y-75297D01*
X86595Y-70377D01*
X86585Y-70149D01*
X86517Y-69987D01*
X86437Y-69938D01*
X86367Y-70009D01*
X86367Y-69868D01*
X86318Y-69788D01*
X86103Y-69710D01*
X85875Y-69720D01*
X85713Y-69788D01*
X85664Y-69868D01*
X86016Y-70219D01*
X86367Y-69868D01*
X86367Y-70009D01*
X86086Y-70290D01*
X86437Y-70641D01*
X86517Y-70592D01*
X86595Y-70377D01*
X86595Y-75297D01*
X86585Y-75069D01*
X86517Y-74907D01*
X86437Y-74858D01*
X86367Y-74929D01*
X86367Y-74788D01*
X86367Y-70711D01*
X86016Y-70360D01*
X85945Y-70431D01*
X85945Y-70290D01*
X85594Y-69938D01*
X85514Y-69987D01*
X85436Y-70202D01*
X85446Y-70430D01*
X85514Y-70592D01*
X85594Y-70641D01*
X85945Y-70290D01*
X85945Y-70431D01*
X85664Y-70711D01*
X85713Y-70791D01*
X85928Y-70869D01*
X86156Y-70859D01*
X86318Y-70791D01*
X86367Y-70711D01*
X86367Y-74788D01*
X86318Y-74708D01*
X86103Y-74630D01*
X85875Y-74640D01*
X85713Y-74708D01*
X85664Y-74788D01*
X86016Y-75139D01*
X86367Y-74788D01*
X86367Y-74929D01*
X86086Y-75210D01*
X86437Y-75561D01*
X86517Y-75512D01*
X86595Y-75297D01*
X86595Y-75950D01*
X86367Y-75950D01*
X86367Y-75631D01*
X86016Y-75280D01*
X85945Y-75351D01*
X85945Y-75210D01*
X85594Y-74858D01*
X85514Y-74907D01*
X85436Y-75122D01*
X85446Y-75350D01*
X85514Y-75512D01*
X85594Y-75561D01*
X85945Y-75210D01*
X85945Y-75351D01*
X85664Y-75631D01*
X85713Y-75711D01*
X85928Y-75789D01*
X86156Y-75779D01*
X86318Y-75711D01*
X86367Y-75631D01*
X86367Y-75950D01*
X83359Y-75950D01*
X83359Y-75086D01*
X83264Y-74856D01*
X83088Y-74680D01*
X82984Y-74637D01*
X82984Y-70862D01*
X83087Y-70820D01*
X83263Y-70644D01*
X83358Y-70414D01*
X83359Y-70166D01*
X83264Y-69936D01*
X83088Y-69760D01*
X82984Y-69717D01*
X82984Y-65296D01*
X83067Y-65212D01*
X83124Y-65074D01*
X83125Y-64925D01*
X83068Y-64787D01*
X82962Y-64682D01*
X82824Y-64625D01*
X82725Y-64624D01*
X82725Y-63405D01*
X82680Y-63297D01*
X82680Y-60551D01*
X82680Y-58301D01*
X82667Y-58133D01*
X82627Y-58037D01*
X82563Y-58007D01*
X82492Y-58078D01*
X82492Y-57936D01*
X82462Y-57872D01*
X82301Y-57819D01*
X82133Y-57832D01*
X82037Y-57872D01*
X82007Y-57936D01*
X82250Y-58179D01*
X82492Y-57936D01*
X82492Y-58078D01*
X82320Y-58250D01*
X82563Y-58492D01*
X82627Y-58462D01*
X82680Y-58301D01*
X82680Y-60551D01*
X82667Y-60383D01*
X82627Y-60287D01*
X82563Y-60257D01*
X82492Y-60328D01*
X82492Y-60186D01*
X82492Y-58563D01*
X82250Y-58320D01*
X82179Y-58391D01*
X82179Y-58250D01*
X81936Y-58007D01*
X81872Y-58037D01*
X81819Y-58198D01*
X81832Y-58366D01*
X81872Y-58462D01*
X81936Y-58492D01*
X82179Y-58250D01*
X82179Y-58391D01*
X82007Y-58563D01*
X82037Y-58627D01*
X82198Y-58680D01*
X82366Y-58667D01*
X82462Y-58627D01*
X82492Y-58563D01*
X82492Y-60186D01*
X82462Y-60122D01*
X82301Y-60069D01*
X82133Y-60082D01*
X82037Y-60122D01*
X82007Y-60186D01*
X82250Y-60429D01*
X82492Y-60186D01*
X82492Y-60328D01*
X82320Y-60500D01*
X82563Y-60742D01*
X82627Y-60712D01*
X82680Y-60551D01*
X82680Y-63297D01*
X82652Y-63231D01*
X82519Y-63097D01*
X82492Y-63086D01*
X82492Y-60813D01*
X82250Y-60570D01*
X82179Y-60641D01*
X82179Y-60500D01*
X81936Y-60257D01*
X81872Y-60287D01*
X81819Y-60448D01*
X81832Y-60616D01*
X81872Y-60712D01*
X81936Y-60742D01*
X82179Y-60500D01*
X82179Y-60641D01*
X82007Y-60813D01*
X82037Y-60877D01*
X82198Y-60930D01*
X82366Y-60917D01*
X82462Y-60877D01*
X82492Y-60813D01*
X82492Y-63086D01*
X82344Y-63025D01*
X82155Y-63024D01*
X81981Y-63097D01*
X81847Y-63230D01*
X81775Y-63405D01*
X81774Y-63594D01*
X81847Y-63768D01*
X81980Y-63902D01*
X82155Y-63974D01*
X82344Y-63975D01*
X82518Y-63902D01*
X82652Y-63769D01*
X82724Y-63594D01*
X82725Y-63405D01*
X82725Y-64624D01*
X82675Y-64624D01*
X82537Y-64681D01*
X82432Y-64787D01*
X82375Y-64925D01*
X82374Y-65074D01*
X82431Y-65212D01*
X82484Y-65264D01*
X82484Y-69717D01*
X82380Y-69759D01*
X82280Y-69860D01*
X82280Y-68395D01*
X82235Y-68286D01*
X82235Y-67565D01*
X82223Y-67374D01*
X82173Y-67254D01*
X82102Y-67217D01*
X82032Y-67288D01*
X82032Y-67147D01*
X81995Y-67076D01*
X81815Y-67014D01*
X81725Y-67020D01*
X81725Y-63405D01*
X81725Y-60405D01*
X81652Y-60231D01*
X81519Y-60097D01*
X81344Y-60025D01*
X81155Y-60024D01*
X80981Y-60097D01*
X80847Y-60230D01*
X80775Y-60405D01*
X80774Y-60594D01*
X80847Y-60768D01*
X80980Y-60902D01*
X81000Y-60910D01*
X81000Y-60969D01*
X80932Y-61037D01*
X80875Y-61175D01*
X80874Y-61324D01*
X80931Y-61462D01*
X81037Y-61567D01*
X81175Y-61624D01*
X81324Y-61625D01*
X81462Y-61568D01*
X81567Y-61462D01*
X81624Y-61324D01*
X81625Y-61175D01*
X81568Y-61037D01*
X81500Y-60969D01*
X81500Y-60910D01*
X81518Y-60902D01*
X81652Y-60769D01*
X81724Y-60594D01*
X81725Y-60405D01*
X81725Y-63405D01*
X81652Y-63231D01*
X81519Y-63097D01*
X81344Y-63025D01*
X81155Y-63024D01*
X80981Y-63097D01*
X80847Y-63230D01*
X80775Y-63405D01*
X80774Y-63594D01*
X80847Y-63768D01*
X80980Y-63902D01*
X81000Y-63910D01*
X81000Y-66396D01*
X80725Y-66671D01*
X80725Y-63405D01*
X80725Y-60405D01*
X80652Y-60231D01*
X80519Y-60097D01*
X80344Y-60025D01*
X80155Y-60024D01*
X79981Y-60097D01*
X79847Y-60230D01*
X79775Y-60405D01*
X79774Y-60594D01*
X79847Y-60768D01*
X79980Y-60902D01*
X80000Y-60910D01*
X80000Y-61219D01*
X79932Y-61287D01*
X79875Y-61425D01*
X79874Y-61574D01*
X79931Y-61712D01*
X80037Y-61817D01*
X80175Y-61874D01*
X80324Y-61875D01*
X80462Y-61818D01*
X80567Y-61712D01*
X80624Y-61574D01*
X80625Y-61425D01*
X80568Y-61287D01*
X80500Y-61219D01*
X80500Y-60910D01*
X80518Y-60902D01*
X80652Y-60769D01*
X80724Y-60594D01*
X80725Y-60405D01*
X80725Y-63405D01*
X80652Y-63231D01*
X80519Y-63097D01*
X80344Y-63025D01*
X80155Y-63024D01*
X79981Y-63097D01*
X79847Y-63230D01*
X79775Y-63405D01*
X79774Y-63594D01*
X79847Y-63768D01*
X79980Y-63902D01*
X80000Y-63910D01*
X80000Y-64500D01*
X80000Y-64719D01*
X79932Y-64787D01*
X79875Y-64925D01*
X79874Y-65074D01*
X79931Y-65212D01*
X80037Y-65317D01*
X80175Y-65374D01*
X80324Y-65375D01*
X80462Y-65318D01*
X80567Y-65212D01*
X80624Y-65074D01*
X80625Y-64925D01*
X80568Y-64787D01*
X80500Y-64719D01*
X80500Y-64500D01*
X80500Y-63910D01*
X80518Y-63902D01*
X80652Y-63769D01*
X80724Y-63594D01*
X80725Y-63405D01*
X80725Y-66671D01*
X80705Y-66691D01*
X80705Y-66057D01*
X80692Y-65879D01*
X80648Y-65772D01*
X80581Y-65739D01*
X80510Y-65810D01*
X80510Y-65668D01*
X80477Y-65601D01*
X80307Y-65544D01*
X80129Y-65557D01*
X80022Y-65601D01*
X79989Y-65668D01*
X80250Y-65929D01*
X80510Y-65668D01*
X80510Y-65810D01*
X80320Y-66000D01*
X80581Y-66260D01*
X80648Y-66227D01*
X80705Y-66057D01*
X80705Y-66691D01*
X80510Y-66885D01*
X80510Y-66331D01*
X80250Y-66070D01*
X80179Y-66141D01*
X80179Y-66000D01*
X79918Y-65739D01*
X79851Y-65772D01*
X79794Y-65942D01*
X79807Y-66120D01*
X79851Y-66227D01*
X79918Y-66260D01*
X80179Y-66000D01*
X80179Y-66141D01*
X79989Y-66331D01*
X80022Y-66398D01*
X80192Y-66455D01*
X80370Y-66442D01*
X80477Y-66398D01*
X80510Y-66331D01*
X80510Y-66885D01*
X79573Y-67823D01*
X79519Y-67904D01*
X79500Y-68000D01*
X79500Y-63910D01*
X79518Y-63902D01*
X79652Y-63769D01*
X79724Y-63594D01*
X79725Y-63405D01*
X79652Y-63231D01*
X79519Y-63097D01*
X79344Y-63025D01*
X79155Y-63024D01*
X79000Y-63089D01*
X79000Y-62603D01*
X79426Y-62176D01*
X79480Y-62095D01*
X79500Y-62000D01*
X79500Y-60910D01*
X79518Y-60902D01*
X79652Y-60769D01*
X79724Y-60594D01*
X79725Y-60405D01*
X79652Y-60231D01*
X79519Y-60097D01*
X79344Y-60025D01*
X79155Y-60024D01*
X78981Y-60097D01*
X78847Y-60230D01*
X78775Y-60405D01*
X78774Y-60594D01*
X78847Y-60768D01*
X78980Y-60902D01*
X79000Y-60910D01*
X79000Y-61896D01*
X78725Y-62171D01*
X78725Y-60405D01*
X78652Y-60231D01*
X78519Y-60097D01*
X78344Y-60025D01*
X78155Y-60024D01*
X77981Y-60097D01*
X77847Y-60230D01*
X77775Y-60405D01*
X77774Y-60594D01*
X77847Y-60768D01*
X77980Y-60902D01*
X78155Y-60974D01*
X78344Y-60975D01*
X78518Y-60902D01*
X78652Y-60769D01*
X78724Y-60594D01*
X78725Y-60405D01*
X78725Y-62171D01*
X78573Y-62323D01*
X78519Y-62404D01*
X78500Y-62500D01*
X78500Y-63089D01*
X78344Y-63025D01*
X78155Y-63024D01*
X77981Y-63097D01*
X77847Y-63230D01*
X77775Y-63405D01*
X77774Y-63594D01*
X77847Y-63768D01*
X77980Y-63902D01*
X78000Y-63910D01*
X78000Y-65562D01*
X77849Y-65500D01*
X77650Y-65499D01*
X77500Y-65562D01*
X77500Y-63910D01*
X77518Y-63902D01*
X77652Y-63769D01*
X77724Y-63594D01*
X77725Y-63405D01*
X77725Y-60405D01*
X77652Y-60231D01*
X77519Y-60097D01*
X77344Y-60025D01*
X77155Y-60024D01*
X76981Y-60097D01*
X76847Y-60230D01*
X76775Y-60405D01*
X76774Y-60594D01*
X76847Y-60768D01*
X76980Y-60902D01*
X77000Y-60910D01*
X77000Y-61719D01*
X76932Y-61787D01*
X76875Y-61925D01*
X76874Y-62074D01*
X76931Y-62212D01*
X77037Y-62317D01*
X77175Y-62374D01*
X77324Y-62375D01*
X77462Y-62318D01*
X77567Y-62212D01*
X77624Y-62074D01*
X77625Y-61925D01*
X77568Y-61787D01*
X77500Y-61719D01*
X77500Y-60910D01*
X77518Y-60902D01*
X77652Y-60769D01*
X77724Y-60594D01*
X77725Y-60405D01*
X77725Y-63405D01*
X77652Y-63231D01*
X77519Y-63097D01*
X77344Y-63025D01*
X77155Y-63024D01*
X76981Y-63097D01*
X76847Y-63230D01*
X76775Y-63405D01*
X76774Y-63594D01*
X76847Y-63768D01*
X76980Y-63902D01*
X77000Y-63910D01*
X77000Y-67322D01*
X76949Y-67200D01*
X76800Y-67050D01*
X76725Y-67019D01*
X76725Y-60405D01*
X76652Y-60231D01*
X76519Y-60097D01*
X76344Y-60025D01*
X76155Y-60024D01*
X75981Y-60097D01*
X75847Y-60230D01*
X75775Y-60405D01*
X75774Y-60594D01*
X75847Y-60768D01*
X75980Y-60902D01*
X76000Y-60910D01*
X76000Y-62219D01*
X75932Y-62287D01*
X75875Y-62425D01*
X75875Y-61175D01*
X75818Y-61037D01*
X75712Y-60932D01*
X75574Y-60875D01*
X75425Y-60874D01*
X75287Y-60931D01*
X75182Y-61037D01*
X75125Y-61175D01*
X75124Y-61324D01*
X75181Y-61462D01*
X75250Y-61530D01*
X75250Y-68124D01*
X75175Y-68124D01*
X75037Y-68181D01*
X75000Y-68219D01*
X75000Y-58400D01*
X74924Y-58217D01*
X74783Y-58076D01*
X74599Y-58000D01*
X74400Y-57999D01*
X74217Y-58075D01*
X74076Y-58216D01*
X74000Y-58400D01*
X73999Y-58599D01*
X74075Y-58782D01*
X74216Y-58923D01*
X74400Y-58999D01*
X74599Y-59000D01*
X74782Y-58924D01*
X74923Y-58783D01*
X74999Y-58599D01*
X75000Y-58400D01*
X75000Y-68219D01*
X74932Y-68287D01*
X74875Y-68425D01*
X74874Y-68574D01*
X74931Y-68712D01*
X75037Y-68817D01*
X75175Y-68874D01*
X75324Y-68875D01*
X75462Y-68818D01*
X75567Y-68712D01*
X75624Y-68574D01*
X75625Y-68478D01*
X75676Y-68426D01*
X75676Y-68426D01*
X75676Y-68426D01*
X75730Y-68345D01*
X75730Y-68345D01*
X75750Y-68250D01*
X75750Y-61530D01*
X75817Y-61462D01*
X75874Y-61324D01*
X75875Y-61175D01*
X75875Y-62425D01*
X75874Y-62574D01*
X75931Y-62712D01*
X76037Y-62817D01*
X76175Y-62874D01*
X76324Y-62875D01*
X76462Y-62818D01*
X76567Y-62712D01*
X76624Y-62574D01*
X76625Y-62425D01*
X76568Y-62287D01*
X76500Y-62219D01*
X76500Y-60910D01*
X76518Y-60902D01*
X76652Y-60769D01*
X76724Y-60594D01*
X76725Y-60405D01*
X76725Y-67019D01*
X76725Y-67019D01*
X76725Y-63735D01*
X76725Y-63185D01*
X76694Y-63111D01*
X76638Y-63055D01*
X76564Y-63025D01*
X76485Y-63024D01*
X75935Y-63024D01*
X75861Y-63055D01*
X75805Y-63111D01*
X75775Y-63185D01*
X75774Y-63264D01*
X75774Y-63814D01*
X75805Y-63888D01*
X75861Y-63944D01*
X75935Y-63974D01*
X76000Y-63975D01*
X76000Y-65719D01*
X75932Y-65787D01*
X75875Y-65925D01*
X75874Y-66074D01*
X75931Y-66212D01*
X76037Y-66317D01*
X76175Y-66374D01*
X76324Y-66375D01*
X76462Y-66318D01*
X76567Y-66212D01*
X76624Y-66074D01*
X76625Y-65925D01*
X76568Y-65787D01*
X76500Y-65719D01*
X76500Y-63975D01*
X76564Y-63975D01*
X76638Y-63944D01*
X76694Y-63888D01*
X76724Y-63814D01*
X76725Y-63735D01*
X76725Y-67019D01*
X76605Y-66970D01*
X76395Y-66969D01*
X76200Y-67050D01*
X76050Y-67199D01*
X75970Y-67394D01*
X75969Y-67604D01*
X76050Y-67799D01*
X76199Y-67949D01*
X76322Y-68000D01*
X76200Y-68050D01*
X76050Y-68199D01*
X75970Y-68394D01*
X75969Y-68604D01*
X76050Y-68799D01*
X76199Y-68949D01*
X76394Y-69029D01*
X76604Y-69030D01*
X76799Y-68949D01*
X76949Y-68800D01*
X77000Y-68677D01*
X77000Y-68896D01*
X76323Y-69573D01*
X76269Y-69654D01*
X76250Y-69750D01*
X76250Y-70719D01*
X76182Y-70787D01*
X76125Y-70925D01*
X76124Y-71074D01*
X76181Y-71212D01*
X76287Y-71317D01*
X76425Y-71374D01*
X76574Y-71375D01*
X76712Y-71318D01*
X76817Y-71212D01*
X76874Y-71074D01*
X76875Y-70925D01*
X76818Y-70787D01*
X76750Y-70719D01*
X76750Y-69853D01*
X77426Y-69176D01*
X77426Y-69176D01*
X77426Y-69176D01*
X77480Y-69095D01*
X77480Y-69095D01*
X77496Y-69019D01*
X77500Y-69000D01*
X77499Y-69000D01*
X77500Y-69000D01*
X77500Y-66437D01*
X77650Y-66499D01*
X77849Y-66500D01*
X78000Y-66437D01*
X78000Y-69922D01*
X77838Y-69760D01*
X77608Y-69665D01*
X77360Y-69664D01*
X77130Y-69759D01*
X76954Y-69935D01*
X76859Y-70165D01*
X76858Y-70413D01*
X76953Y-70643D01*
X77129Y-70819D01*
X77234Y-70862D01*
X77234Y-74637D01*
X77130Y-74679D01*
X76954Y-74855D01*
X76859Y-75085D01*
X76858Y-75333D01*
X76953Y-75563D01*
X77129Y-75739D01*
X77359Y-75834D01*
X77607Y-75835D01*
X77837Y-75740D01*
X78013Y-75564D01*
X78108Y-75334D01*
X78109Y-75086D01*
X78014Y-74856D01*
X77838Y-74680D01*
X77734Y-74637D01*
X77734Y-70862D01*
X77837Y-70820D01*
X78000Y-70658D01*
X78000Y-71219D01*
X77932Y-71287D01*
X77875Y-71425D01*
X77874Y-71574D01*
X77931Y-71712D01*
X78037Y-71817D01*
X78175Y-71874D01*
X78324Y-71875D01*
X78462Y-71818D01*
X78567Y-71712D01*
X78624Y-71574D01*
X78625Y-71425D01*
X78568Y-71287D01*
X78500Y-71219D01*
X78500Y-68780D01*
X78537Y-68817D01*
X78675Y-68874D01*
X78824Y-68875D01*
X78962Y-68818D01*
X79000Y-68780D01*
X79000Y-74500D01*
X79000Y-74969D01*
X78932Y-75037D01*
X78875Y-75175D01*
X78874Y-75324D01*
X78931Y-75462D01*
X79037Y-75567D01*
X79175Y-75624D01*
X79324Y-75625D01*
X79462Y-75568D01*
X79567Y-75462D01*
X79624Y-75324D01*
X79625Y-75175D01*
X79568Y-75037D01*
X79500Y-74969D01*
X79500Y-74530D01*
X79537Y-74567D01*
X79675Y-74624D01*
X79824Y-74625D01*
X79962Y-74568D01*
X80067Y-74462D01*
X80124Y-74324D01*
X80125Y-74175D01*
X80068Y-74037D01*
X80000Y-73969D01*
X80000Y-68103D01*
X81426Y-66676D01*
X81426Y-66676D01*
X81426Y-66676D01*
X81480Y-66595D01*
X81480Y-66595D01*
X81500Y-66500D01*
X81500Y-63910D01*
X81518Y-63902D01*
X81652Y-63769D01*
X81724Y-63594D01*
X81725Y-63405D01*
X81725Y-67020D01*
X81624Y-67026D01*
X81504Y-67076D01*
X81467Y-67147D01*
X81750Y-67429D01*
X82032Y-67147D01*
X82032Y-67288D01*
X81820Y-67500D01*
X82102Y-67782D01*
X82173Y-67745D01*
X82235Y-67565D01*
X82235Y-68286D01*
X82199Y-68200D01*
X82050Y-68050D01*
X81864Y-67973D01*
X81875Y-67973D01*
X81995Y-67923D01*
X82032Y-67852D01*
X81750Y-67570D01*
X81679Y-67641D01*
X81679Y-67500D01*
X81397Y-67217D01*
X81326Y-67254D01*
X81264Y-67434D01*
X81276Y-67625D01*
X81326Y-67745D01*
X81397Y-67782D01*
X81679Y-67500D01*
X81679Y-67641D01*
X81467Y-67852D01*
X81504Y-67923D01*
X81643Y-67970D01*
X81450Y-68050D01*
X81300Y-68199D01*
X81220Y-68394D01*
X81219Y-68604D01*
X81300Y-68799D01*
X81449Y-68949D01*
X81644Y-69029D01*
X81854Y-69030D01*
X82049Y-68949D01*
X82199Y-68800D01*
X82279Y-68605D01*
X82280Y-68395D01*
X82280Y-69860D01*
X82204Y-69935D01*
X82109Y-70165D01*
X82108Y-70413D01*
X82203Y-70643D01*
X82379Y-70819D01*
X82484Y-70862D01*
X82484Y-74637D01*
X82380Y-74679D01*
X82204Y-74855D01*
X82109Y-75085D01*
X82108Y-75333D01*
X82203Y-75563D01*
X82379Y-75739D01*
X82609Y-75834D01*
X82857Y-75835D01*
X83087Y-75740D01*
X83263Y-75564D01*
X83358Y-75334D01*
X83359Y-75086D01*
X83359Y-75950D01*
X81345Y-75950D01*
X81345Y-75297D01*
X81345Y-70377D01*
X81335Y-70149D01*
X81267Y-69987D01*
X81187Y-69938D01*
X81117Y-70009D01*
X81117Y-69868D01*
X81068Y-69788D01*
X80853Y-69710D01*
X80625Y-69720D01*
X80463Y-69788D01*
X80414Y-69868D01*
X80766Y-70219D01*
X81117Y-69868D01*
X81117Y-70009D01*
X80836Y-70290D01*
X81187Y-70641D01*
X81267Y-70592D01*
X81345Y-70377D01*
X81345Y-75297D01*
X81335Y-75069D01*
X81267Y-74907D01*
X81187Y-74858D01*
X81117Y-74929D01*
X81117Y-74788D01*
X81117Y-70711D01*
X80766Y-70360D01*
X80695Y-70431D01*
X80695Y-70290D01*
X80344Y-69938D01*
X80264Y-69987D01*
X80186Y-70202D01*
X80196Y-70430D01*
X80264Y-70592D01*
X80344Y-70641D01*
X80695Y-70290D01*
X80695Y-70431D01*
X80414Y-70711D01*
X80463Y-70791D01*
X80678Y-70869D01*
X80906Y-70859D01*
X81068Y-70791D01*
X81117Y-70711D01*
X81117Y-74788D01*
X81068Y-74708D01*
X80853Y-74630D01*
X80625Y-74640D01*
X80463Y-74708D01*
X80414Y-74788D01*
X80766Y-75139D01*
X81117Y-74788D01*
X81117Y-74929D01*
X80836Y-75210D01*
X81187Y-75561D01*
X81267Y-75512D01*
X81345Y-75297D01*
X81345Y-75950D01*
X81117Y-75950D01*
X81117Y-75631D01*
X80766Y-75280D01*
X80695Y-75351D01*
X80695Y-75210D01*
X80344Y-74858D01*
X80264Y-74907D01*
X80186Y-75122D01*
X80196Y-75350D01*
X80264Y-75512D01*
X80344Y-75561D01*
X80695Y-75210D01*
X80695Y-75351D01*
X80414Y-75631D01*
X80463Y-75711D01*
X80678Y-75789D01*
X80906Y-75779D01*
X81068Y-75711D01*
X81117Y-75631D01*
X81117Y-75950D01*
X76095Y-75950D01*
X76095Y-75297D01*
X76095Y-70377D01*
X76085Y-70149D01*
X76017Y-69987D01*
X75937Y-69938D01*
X75867Y-70009D01*
X75867Y-69868D01*
X75818Y-69788D01*
X75603Y-69710D01*
X75375Y-69720D01*
X75213Y-69788D01*
X75164Y-69868D01*
X75516Y-70219D01*
X75867Y-69868D01*
X75867Y-70009D01*
X75586Y-70290D01*
X75937Y-70641D01*
X76017Y-70592D01*
X76095Y-70377D01*
X76095Y-75297D01*
X76085Y-75069D01*
X76017Y-74907D01*
X75937Y-74858D01*
X75867Y-74929D01*
X75867Y-74788D01*
X75867Y-70711D01*
X75516Y-70360D01*
X75445Y-70431D01*
X75445Y-70290D01*
X75094Y-69938D01*
X75014Y-69987D01*
X74936Y-70202D01*
X74946Y-70430D01*
X75014Y-70592D01*
X75094Y-70641D01*
X75445Y-70290D01*
X75445Y-70431D01*
X75164Y-70711D01*
X75213Y-70791D01*
X75428Y-70869D01*
X75656Y-70859D01*
X75818Y-70791D01*
X75867Y-70711D01*
X75867Y-74788D01*
X75818Y-74708D01*
X75603Y-74630D01*
X75375Y-74640D01*
X75213Y-74708D01*
X75164Y-74788D01*
X75516Y-75139D01*
X75867Y-74788D01*
X75867Y-74929D01*
X75586Y-75210D01*
X75937Y-75561D01*
X76017Y-75512D01*
X76095Y-75297D01*
X76095Y-75950D01*
X75867Y-75950D01*
X75867Y-75631D01*
X75516Y-75280D01*
X75445Y-75351D01*
X75445Y-75210D01*
X75094Y-74858D01*
X75014Y-74907D01*
X74936Y-75122D01*
X74946Y-75350D01*
X75014Y-75512D01*
X75094Y-75561D01*
X75445Y-75210D01*
X75445Y-75351D01*
X75164Y-75631D01*
X75213Y-75711D01*
X75428Y-75789D01*
X75656Y-75779D01*
X75818Y-75711D01*
X75867Y-75631D01*
X75867Y-75950D01*
X74250Y-75950D01*
X74250Y-65900D01*
X74174Y-65717D01*
X74033Y-65576D01*
X73849Y-65500D01*
X73725Y-65499D01*
X73725Y-62905D01*
X73725Y-61905D01*
X73725Y-60905D01*
X73652Y-60731D01*
X73519Y-60597D01*
X73344Y-60525D01*
X73155Y-60524D01*
X72981Y-60597D01*
X72847Y-60730D01*
X72775Y-60905D01*
X72774Y-61094D01*
X72847Y-61268D01*
X72980Y-61402D01*
X73155Y-61474D01*
X73344Y-61475D01*
X73518Y-61402D01*
X73652Y-61269D01*
X73724Y-61094D01*
X73725Y-60905D01*
X73725Y-61905D01*
X73652Y-61731D01*
X73519Y-61597D01*
X73344Y-61525D01*
X73155Y-61524D01*
X72981Y-61597D01*
X72847Y-61730D01*
X72775Y-61905D01*
X72774Y-62094D01*
X72847Y-62268D01*
X72980Y-62402D01*
X73155Y-62474D01*
X73344Y-62475D01*
X73518Y-62402D01*
X73652Y-62269D01*
X73724Y-62094D01*
X73725Y-61905D01*
X73725Y-62905D01*
X73652Y-62731D01*
X73519Y-62597D01*
X73344Y-62525D01*
X73155Y-62524D01*
X72981Y-62597D01*
X72847Y-62730D01*
X72775Y-62905D01*
X72774Y-63094D01*
X72847Y-63268D01*
X72980Y-63402D01*
X73155Y-63474D01*
X73344Y-63475D01*
X73518Y-63402D01*
X73652Y-63269D01*
X73724Y-63094D01*
X73725Y-62905D01*
X73725Y-65499D01*
X73725Y-65499D01*
X73725Y-64235D01*
X73725Y-63685D01*
X73694Y-63611D01*
X73638Y-63555D01*
X73564Y-63525D01*
X73485Y-63524D01*
X72935Y-63524D01*
X72861Y-63555D01*
X72805Y-63611D01*
X72775Y-63685D01*
X72774Y-63764D01*
X72774Y-64314D01*
X72805Y-64388D01*
X72861Y-64444D01*
X72935Y-64474D01*
X73014Y-64475D01*
X73564Y-64475D01*
X73638Y-64444D01*
X73694Y-64388D01*
X73724Y-64314D01*
X73725Y-64235D01*
X73725Y-65499D01*
X73650Y-65499D01*
X73467Y-65575D01*
X73326Y-65716D01*
X73250Y-65900D01*
X73249Y-66099D01*
X73325Y-66282D01*
X73466Y-66423D01*
X73650Y-66499D01*
X73849Y-66500D01*
X74032Y-66424D01*
X74173Y-66283D01*
X74249Y-66099D01*
X74250Y-65900D01*
X74250Y-75950D01*
X72859Y-75950D01*
X72859Y-75086D01*
X72764Y-74856D01*
X72588Y-74680D01*
X72484Y-74637D01*
X72484Y-72796D01*
X72567Y-72712D01*
X72624Y-72574D01*
X72625Y-72425D01*
X72568Y-72287D01*
X72484Y-72203D01*
X72484Y-70862D01*
X72587Y-70820D01*
X72763Y-70644D01*
X72858Y-70414D01*
X72859Y-70166D01*
X72764Y-69936D01*
X72588Y-69760D01*
X72358Y-69665D01*
X72225Y-69664D01*
X72225Y-65905D01*
X72152Y-65731D01*
X72019Y-65597D01*
X71844Y-65525D01*
X71655Y-65524D01*
X71481Y-65597D01*
X71347Y-65730D01*
X71275Y-65905D01*
X71274Y-66094D01*
X71347Y-66268D01*
X71480Y-66402D01*
X71655Y-66474D01*
X71844Y-66475D01*
X72018Y-66402D01*
X72152Y-66269D01*
X72224Y-66094D01*
X72225Y-65905D01*
X72225Y-69664D01*
X72110Y-69664D01*
X71880Y-69759D01*
X71780Y-69860D01*
X71780Y-68395D01*
X71735Y-68286D01*
X71735Y-67565D01*
X71723Y-67374D01*
X71673Y-67254D01*
X71602Y-67217D01*
X71532Y-67288D01*
X71532Y-67147D01*
X71495Y-67076D01*
X71315Y-67014D01*
X71180Y-67023D01*
X71180Y-66051D01*
X71167Y-65883D01*
X71127Y-65787D01*
X71063Y-65757D01*
X71000Y-65820D01*
X71000Y-58400D01*
X70924Y-58217D01*
X70783Y-58076D01*
X70599Y-58000D01*
X70400Y-57999D01*
X70217Y-58075D01*
X70076Y-58216D01*
X70000Y-58400D01*
X69999Y-58599D01*
X70075Y-58782D01*
X70216Y-58923D01*
X70400Y-58999D01*
X70599Y-59000D01*
X70782Y-58924D01*
X70923Y-58783D01*
X70999Y-58599D01*
X71000Y-58400D01*
X71000Y-65820D01*
X70992Y-65828D01*
X70992Y-65686D01*
X70962Y-65622D01*
X70801Y-65569D01*
X70725Y-65575D01*
X70725Y-63905D01*
X70725Y-61905D01*
X70680Y-61797D01*
X70680Y-61051D01*
X70667Y-60883D01*
X70627Y-60787D01*
X70563Y-60757D01*
X70492Y-60828D01*
X70492Y-60686D01*
X70462Y-60622D01*
X70301Y-60569D01*
X70133Y-60582D01*
X70037Y-60622D01*
X70007Y-60686D01*
X70250Y-60929D01*
X70492Y-60686D01*
X70492Y-60828D01*
X70320Y-61000D01*
X70563Y-61242D01*
X70627Y-61212D01*
X70680Y-61051D01*
X70680Y-61797D01*
X70652Y-61731D01*
X70519Y-61597D01*
X70492Y-61586D01*
X70492Y-61313D01*
X70250Y-61070D01*
X70179Y-61141D01*
X70179Y-61000D01*
X69936Y-60757D01*
X69872Y-60787D01*
X69819Y-60948D01*
X69832Y-61116D01*
X69872Y-61212D01*
X69936Y-61242D01*
X70179Y-61000D01*
X70179Y-61141D01*
X70007Y-61313D01*
X70037Y-61377D01*
X70198Y-61430D01*
X70366Y-61417D01*
X70462Y-61377D01*
X70492Y-61313D01*
X70492Y-61586D01*
X70344Y-61525D01*
X70155Y-61524D01*
X69981Y-61597D01*
X69847Y-61730D01*
X69775Y-61905D01*
X69774Y-62094D01*
X69847Y-62268D01*
X69980Y-62402D01*
X70155Y-62474D01*
X70344Y-62475D01*
X70518Y-62402D01*
X70652Y-62269D01*
X70724Y-62094D01*
X70725Y-61905D01*
X70725Y-63905D01*
X70680Y-63797D01*
X70680Y-63051D01*
X70667Y-62883D01*
X70627Y-62787D01*
X70563Y-62757D01*
X70492Y-62828D01*
X70492Y-62686D01*
X70462Y-62622D01*
X70301Y-62569D01*
X70133Y-62582D01*
X70037Y-62622D01*
X70007Y-62686D01*
X70250Y-62929D01*
X70492Y-62686D01*
X70492Y-62828D01*
X70320Y-63000D01*
X70563Y-63242D01*
X70627Y-63212D01*
X70680Y-63051D01*
X70680Y-63797D01*
X70652Y-63731D01*
X70519Y-63597D01*
X70492Y-63586D01*
X70492Y-63313D01*
X70250Y-63070D01*
X70179Y-63141D01*
X70179Y-63000D01*
X69936Y-62757D01*
X69872Y-62787D01*
X69819Y-62948D01*
X69832Y-63116D01*
X69872Y-63212D01*
X69936Y-63242D01*
X70179Y-63000D01*
X70179Y-63141D01*
X70007Y-63313D01*
X70037Y-63377D01*
X70198Y-63430D01*
X70366Y-63417D01*
X70462Y-63377D01*
X70492Y-63313D01*
X70492Y-63586D01*
X70344Y-63525D01*
X70155Y-63524D01*
X69981Y-63597D01*
X69847Y-63730D01*
X69775Y-63905D01*
X69774Y-64094D01*
X69847Y-64268D01*
X69980Y-64402D01*
X70155Y-64474D01*
X70344Y-64475D01*
X70518Y-64402D01*
X70652Y-64269D01*
X70724Y-64094D01*
X70725Y-63905D01*
X70725Y-65575D01*
X70633Y-65582D01*
X70537Y-65622D01*
X70507Y-65686D01*
X70750Y-65929D01*
X70992Y-65686D01*
X70992Y-65828D01*
X70820Y-66000D01*
X71063Y-66242D01*
X71127Y-66212D01*
X71180Y-66051D01*
X71180Y-67023D01*
X71124Y-67026D01*
X71004Y-67076D01*
X70992Y-67099D01*
X70992Y-66313D01*
X70750Y-66070D01*
X70679Y-66141D01*
X70679Y-66000D01*
X70436Y-65757D01*
X70372Y-65787D01*
X70319Y-65948D01*
X70332Y-66116D01*
X70372Y-66212D01*
X70436Y-66242D01*
X70679Y-66000D01*
X70679Y-66141D01*
X70507Y-66313D01*
X70537Y-66377D01*
X70698Y-66430D01*
X70866Y-66417D01*
X70962Y-66377D01*
X70992Y-66313D01*
X70992Y-67099D01*
X70967Y-67147D01*
X71250Y-67429D01*
X71532Y-67147D01*
X71532Y-67288D01*
X71320Y-67500D01*
X71602Y-67782D01*
X71673Y-67745D01*
X71735Y-67565D01*
X71735Y-68286D01*
X71699Y-68200D01*
X71550Y-68050D01*
X71364Y-67973D01*
X71375Y-67973D01*
X71495Y-67923D01*
X71532Y-67852D01*
X71250Y-67570D01*
X71179Y-67641D01*
X71179Y-67500D01*
X70897Y-67217D01*
X70826Y-67254D01*
X70764Y-67434D01*
X70776Y-67625D01*
X70826Y-67745D01*
X70897Y-67782D01*
X71179Y-67500D01*
X71179Y-67641D01*
X70967Y-67852D01*
X71004Y-67923D01*
X71143Y-67970D01*
X70950Y-68050D01*
X70800Y-68199D01*
X70720Y-68394D01*
X70719Y-68604D01*
X70800Y-68799D01*
X70949Y-68949D01*
X71144Y-69029D01*
X71354Y-69030D01*
X71549Y-68949D01*
X71699Y-68800D01*
X71779Y-68605D01*
X71780Y-68395D01*
X71780Y-69860D01*
X71704Y-69935D01*
X71609Y-70165D01*
X71608Y-70413D01*
X71703Y-70643D01*
X71879Y-70819D01*
X71984Y-70862D01*
X71984Y-72235D01*
X71932Y-72287D01*
X71875Y-72425D01*
X71874Y-72574D01*
X71931Y-72712D01*
X71984Y-72764D01*
X71984Y-74637D01*
X71880Y-74679D01*
X71704Y-74855D01*
X71609Y-75085D01*
X71608Y-75333D01*
X71703Y-75563D01*
X71879Y-75739D01*
X72109Y-75834D01*
X72357Y-75835D01*
X72587Y-75740D01*
X72763Y-75564D01*
X72858Y-75334D01*
X72859Y-75086D01*
X72859Y-75950D01*
X70845Y-75950D01*
X70845Y-75297D01*
X70845Y-70377D01*
X70835Y-70149D01*
X70767Y-69987D01*
X70687Y-69938D01*
X70617Y-70009D01*
X70617Y-69868D01*
X70568Y-69788D01*
X70353Y-69710D01*
X70125Y-69720D01*
X69963Y-69788D01*
X69914Y-69868D01*
X70266Y-70219D01*
X70617Y-69868D01*
X70617Y-70009D01*
X70336Y-70290D01*
X70687Y-70641D01*
X70767Y-70592D01*
X70845Y-70377D01*
X70845Y-75297D01*
X70835Y-75069D01*
X70767Y-74907D01*
X70687Y-74858D01*
X70617Y-74929D01*
X70617Y-74788D01*
X70617Y-70711D01*
X70266Y-70360D01*
X70195Y-70431D01*
X70195Y-70290D01*
X69844Y-69938D01*
X69764Y-69987D01*
X69686Y-70202D01*
X69696Y-70430D01*
X69764Y-70592D01*
X69844Y-70641D01*
X70195Y-70290D01*
X70195Y-70431D01*
X69914Y-70711D01*
X69963Y-70791D01*
X70178Y-70869D01*
X70406Y-70859D01*
X70568Y-70791D01*
X70617Y-70711D01*
X70617Y-74788D01*
X70568Y-74708D01*
X70353Y-74630D01*
X70125Y-74640D01*
X69963Y-74708D01*
X69914Y-74788D01*
X70266Y-75139D01*
X70617Y-74788D01*
X70617Y-74929D01*
X70336Y-75210D01*
X70687Y-75561D01*
X70767Y-75512D01*
X70845Y-75297D01*
X70845Y-75950D01*
X70617Y-75950D01*
X70617Y-75631D01*
X70266Y-75280D01*
X70195Y-75351D01*
X70195Y-75210D01*
X69844Y-74858D01*
X69764Y-74907D01*
X69686Y-75122D01*
X69696Y-75350D01*
X69764Y-75512D01*
X69844Y-75561D01*
X70195Y-75210D01*
X70195Y-75351D01*
X69914Y-75631D01*
X69963Y-75711D01*
X70178Y-75789D01*
X70406Y-75779D01*
X70568Y-75711D01*
X70617Y-75631D01*
X70617Y-75950D01*
X69475Y-75950D01*
X69475Y-57905D01*
X69402Y-57731D01*
X69269Y-57597D01*
X69094Y-57525D01*
X68905Y-57524D01*
X68731Y-57597D01*
X68597Y-57730D01*
X68525Y-57905D01*
X68524Y-58094D01*
X68597Y-58268D01*
X68730Y-58402D01*
X68905Y-58474D01*
X69094Y-58475D01*
X69268Y-58402D01*
X69402Y-58269D01*
X69474Y-58094D01*
X69475Y-57905D01*
X69475Y-75950D01*
X69430Y-75950D01*
X69430Y-59051D01*
X69417Y-58883D01*
X69377Y-58787D01*
X69313Y-58757D01*
X69242Y-58828D01*
X69242Y-58686D01*
X69212Y-58622D01*
X69051Y-58569D01*
X68883Y-58582D01*
X68787Y-58622D01*
X68757Y-58686D01*
X69000Y-58929D01*
X69242Y-58686D01*
X69242Y-58828D01*
X69070Y-59000D01*
X69313Y-59242D01*
X69377Y-59212D01*
X69430Y-59051D01*
X69430Y-75950D01*
X69250Y-75950D01*
X69250Y-64400D01*
X69250Y-60400D01*
X69242Y-60382D01*
X69242Y-59313D01*
X69000Y-59070D01*
X68929Y-59141D01*
X68929Y-59000D01*
X68686Y-58757D01*
X68622Y-58787D01*
X68569Y-58948D01*
X68582Y-59116D01*
X68622Y-59212D01*
X68686Y-59242D01*
X68929Y-59000D01*
X68929Y-59141D01*
X68757Y-59313D01*
X68787Y-59377D01*
X68948Y-59430D01*
X69116Y-59417D01*
X69212Y-59377D01*
X69242Y-59313D01*
X69242Y-60382D01*
X69174Y-60217D01*
X69033Y-60076D01*
X68849Y-60000D01*
X68650Y-59999D01*
X68467Y-60075D01*
X68326Y-60216D01*
X68250Y-60400D01*
X68249Y-60599D01*
X68325Y-60782D01*
X68466Y-60923D01*
X68650Y-60999D01*
X68849Y-61000D01*
X69032Y-60924D01*
X69173Y-60783D01*
X69249Y-60599D01*
X69250Y-60400D01*
X69250Y-64400D01*
X69174Y-64217D01*
X69033Y-64076D01*
X68849Y-64000D01*
X68650Y-63999D01*
X68467Y-64075D01*
X68326Y-64216D01*
X68250Y-64400D01*
X68249Y-64599D01*
X68325Y-64782D01*
X68466Y-64923D01*
X68650Y-64999D01*
X68849Y-65000D01*
X69032Y-64924D01*
X69173Y-64783D01*
X69249Y-64599D01*
X69250Y-64400D01*
X69250Y-75950D01*
X69180Y-75950D01*
X69180Y-66051D01*
X69167Y-65883D01*
X69127Y-65787D01*
X69063Y-65757D01*
X68992Y-65828D01*
X68992Y-65686D01*
X68962Y-65622D01*
X68801Y-65569D01*
X68633Y-65582D01*
X68537Y-65622D01*
X68507Y-65686D01*
X68750Y-65929D01*
X68992Y-65686D01*
X68992Y-65828D01*
X68820Y-66000D01*
X69063Y-66242D01*
X69127Y-66212D01*
X69180Y-66051D01*
X69180Y-75950D01*
X69125Y-75950D01*
X69125Y-68425D01*
X69068Y-68287D01*
X69000Y-68219D01*
X69000Y-67780D01*
X69067Y-67712D01*
X69124Y-67574D01*
X69125Y-67425D01*
X69068Y-67287D01*
X68992Y-67211D01*
X68992Y-66313D01*
X68750Y-66070D01*
X68679Y-66141D01*
X68679Y-66000D01*
X68436Y-65757D01*
X68372Y-65787D01*
X68319Y-65948D01*
X68332Y-66116D01*
X68372Y-66212D01*
X68436Y-66242D01*
X68679Y-66000D01*
X68679Y-66141D01*
X68507Y-66313D01*
X68537Y-66377D01*
X68698Y-66430D01*
X68866Y-66417D01*
X68962Y-66377D01*
X68992Y-66313D01*
X68992Y-67211D01*
X68962Y-67182D01*
X68824Y-67125D01*
X68675Y-67124D01*
X68537Y-67181D01*
X68432Y-67287D01*
X68375Y-67425D01*
X68374Y-67574D01*
X68431Y-67712D01*
X68500Y-67780D01*
X68500Y-68219D01*
X68432Y-68287D01*
X68375Y-68425D01*
X68374Y-68574D01*
X68431Y-68712D01*
X68537Y-68817D01*
X68675Y-68874D01*
X68824Y-68875D01*
X68962Y-68818D01*
X69067Y-68712D01*
X69124Y-68574D01*
X69125Y-68425D01*
X69125Y-75950D01*
X68225Y-75950D01*
X68225Y-65905D01*
X68152Y-65731D01*
X68019Y-65597D01*
X67844Y-65525D01*
X67655Y-65524D01*
X67481Y-65597D01*
X67347Y-65730D01*
X67275Y-65905D01*
X67274Y-66094D01*
X67347Y-66268D01*
X67480Y-66402D01*
X67655Y-66474D01*
X67844Y-66475D01*
X68018Y-66402D01*
X68152Y-66269D01*
X68224Y-66094D01*
X68225Y-65905D01*
X68225Y-75950D01*
X67609Y-75950D01*
X67609Y-75086D01*
X67514Y-74856D01*
X67338Y-74680D01*
X67234Y-74637D01*
X67234Y-70862D01*
X67337Y-70820D01*
X67513Y-70644D01*
X67608Y-70414D01*
X67609Y-70166D01*
X67514Y-69936D01*
X67338Y-69760D01*
X67250Y-69723D01*
X67250Y-64400D01*
X67205Y-64292D01*
X67205Y-60557D01*
X67192Y-60379D01*
X67148Y-60272D01*
X67081Y-60239D01*
X67010Y-60310D01*
X67010Y-60168D01*
X66977Y-60101D01*
X66807Y-60044D01*
X66629Y-60057D01*
X66522Y-60101D01*
X66489Y-60168D01*
X66750Y-60429D01*
X67010Y-60168D01*
X67010Y-60310D01*
X66820Y-60500D01*
X67081Y-60760D01*
X67148Y-60727D01*
X67205Y-60557D01*
X67205Y-64292D01*
X67174Y-64217D01*
X67033Y-64076D01*
X67010Y-64066D01*
X67010Y-60831D01*
X66750Y-60570D01*
X66679Y-60641D01*
X66679Y-60500D01*
X66418Y-60239D01*
X66351Y-60272D01*
X66294Y-60442D01*
X66307Y-60620D01*
X66351Y-60727D01*
X66418Y-60760D01*
X66679Y-60500D01*
X66679Y-60641D01*
X66489Y-60831D01*
X66522Y-60898D01*
X66692Y-60955D01*
X66870Y-60942D01*
X66977Y-60898D01*
X67010Y-60831D01*
X67010Y-64066D01*
X66849Y-64000D01*
X66650Y-63999D01*
X66467Y-64075D01*
X66326Y-64216D01*
X66275Y-64340D01*
X66275Y-58785D01*
X66275Y-58135D01*
X66244Y-58061D01*
X66188Y-58005D01*
X66114Y-57975D01*
X66035Y-57974D01*
X65385Y-57974D01*
X65311Y-58005D01*
X65255Y-58061D01*
X65225Y-58135D01*
X65224Y-58214D01*
X65224Y-58274D01*
X65195Y-58203D01*
X65047Y-58055D01*
X64854Y-57975D01*
X64646Y-57974D01*
X64453Y-58054D01*
X64305Y-58202D01*
X64225Y-58395D01*
X64224Y-58603D01*
X64304Y-58797D01*
X64452Y-58944D01*
X64645Y-59024D01*
X64853Y-59025D01*
X65047Y-58945D01*
X65194Y-58797D01*
X65224Y-58725D01*
X65224Y-58864D01*
X65255Y-58938D01*
X65311Y-58994D01*
X65385Y-59024D01*
X65464Y-59025D01*
X66114Y-59025D01*
X66188Y-58994D01*
X66244Y-58938D01*
X66274Y-58864D01*
X66275Y-58785D01*
X66275Y-64340D01*
X66250Y-64400D01*
X66249Y-64599D01*
X66325Y-64782D01*
X66466Y-64923D01*
X66650Y-64999D01*
X66849Y-65000D01*
X67032Y-64924D01*
X67173Y-64783D01*
X67249Y-64599D01*
X67250Y-64400D01*
X67250Y-69723D01*
X67108Y-69665D01*
X66860Y-69664D01*
X66630Y-69759D01*
X66530Y-69860D01*
X66530Y-68395D01*
X66449Y-68200D01*
X66300Y-68050D01*
X66177Y-67999D01*
X66299Y-67949D01*
X66449Y-67800D01*
X66529Y-67605D01*
X66530Y-67395D01*
X66449Y-67200D01*
X66300Y-67050D01*
X66105Y-66970D01*
X65895Y-66969D01*
X65700Y-67050D01*
X65550Y-67199D01*
X65470Y-67394D01*
X65469Y-67604D01*
X65550Y-67799D01*
X65699Y-67949D01*
X65822Y-68000D01*
X65700Y-68050D01*
X65550Y-68199D01*
X65470Y-68394D01*
X65469Y-68604D01*
X65550Y-68799D01*
X65699Y-68949D01*
X65894Y-69029D01*
X66104Y-69030D01*
X66299Y-68949D01*
X66449Y-68800D01*
X66529Y-68605D01*
X66530Y-68395D01*
X66530Y-69860D01*
X66454Y-69935D01*
X66359Y-70165D01*
X66358Y-70413D01*
X66453Y-70643D01*
X66629Y-70819D01*
X66734Y-70862D01*
X66734Y-74637D01*
X66630Y-74679D01*
X66454Y-74855D01*
X66359Y-75085D01*
X66358Y-75333D01*
X66453Y-75563D01*
X66629Y-75739D01*
X66859Y-75834D01*
X67107Y-75835D01*
X67337Y-75740D01*
X67513Y-75564D01*
X67608Y-75334D01*
X67609Y-75086D01*
X67609Y-75950D01*
X65595Y-75950D01*
X65595Y-75297D01*
X65595Y-70377D01*
X65585Y-70149D01*
X65517Y-69987D01*
X65437Y-69938D01*
X65367Y-70009D01*
X65367Y-69868D01*
X65318Y-69788D01*
X65103Y-69710D01*
X64875Y-69720D01*
X64713Y-69788D01*
X64664Y-69868D01*
X65016Y-70219D01*
X65367Y-69868D01*
X65367Y-70009D01*
X65086Y-70290D01*
X65437Y-70641D01*
X65517Y-70592D01*
X65595Y-70377D01*
X65595Y-75297D01*
X65585Y-75069D01*
X65517Y-74907D01*
X65437Y-74858D01*
X65367Y-74929D01*
X65367Y-74788D01*
X65367Y-70711D01*
X65016Y-70360D01*
X64945Y-70431D01*
X64945Y-70290D01*
X64594Y-69938D01*
X64514Y-69987D01*
X64436Y-70202D01*
X64446Y-70430D01*
X64514Y-70592D01*
X64594Y-70641D01*
X64945Y-70290D01*
X64945Y-70431D01*
X64664Y-70711D01*
X64713Y-70791D01*
X64928Y-70869D01*
X65156Y-70859D01*
X65318Y-70791D01*
X65367Y-70711D01*
X65367Y-74788D01*
X65318Y-74708D01*
X65103Y-74630D01*
X64875Y-74640D01*
X64713Y-74708D01*
X64664Y-74788D01*
X65016Y-75139D01*
X65367Y-74788D01*
X65367Y-74929D01*
X65086Y-75210D01*
X65437Y-75561D01*
X65517Y-75512D01*
X65595Y-75297D01*
X65595Y-75950D01*
X65367Y-75950D01*
X65367Y-75631D01*
X65016Y-75280D01*
X64945Y-75351D01*
X64945Y-75210D01*
X64594Y-74858D01*
X64514Y-74907D01*
X64436Y-75122D01*
X64446Y-75350D01*
X64514Y-75512D01*
X64594Y-75561D01*
X64945Y-75210D01*
X64945Y-75351D01*
X64664Y-75631D01*
X64713Y-75711D01*
X64928Y-75789D01*
X65156Y-75779D01*
X65318Y-75711D01*
X65367Y-75631D01*
X65367Y-75950D01*
X63200Y-75950D01*
X63200Y-65323D01*
X63200Y-61386D01*
X63088Y-61117D01*
X62883Y-60911D01*
X62614Y-60800D01*
X62323Y-60799D01*
X62054Y-60911D01*
X61848Y-61116D01*
X61737Y-61385D01*
X61736Y-61676D01*
X61848Y-61945D01*
X62053Y-62151D01*
X62322Y-62262D01*
X62613Y-62263D01*
X62882Y-62151D01*
X63088Y-61946D01*
X63199Y-61677D01*
X63200Y-61386D01*
X63200Y-65323D01*
X63088Y-65054D01*
X62983Y-64949D01*
X62983Y-63398D01*
X62905Y-63208D01*
X62760Y-63063D01*
X62571Y-62985D01*
X62366Y-62984D01*
X62177Y-63063D01*
X62032Y-63207D01*
X61953Y-63397D01*
X61953Y-63601D01*
X62031Y-63791D01*
X62176Y-63936D01*
X62365Y-64014D01*
X62570Y-64015D01*
X62759Y-63936D01*
X62904Y-63792D01*
X62983Y-63602D01*
X62983Y-63398D01*
X62983Y-64949D01*
X62883Y-64848D01*
X62614Y-64737D01*
X62323Y-64736D01*
X62054Y-64848D01*
X61848Y-65053D01*
X61737Y-65322D01*
X61736Y-65613D01*
X61848Y-65882D01*
X62053Y-66088D01*
X62322Y-66199D01*
X62613Y-66200D01*
X62882Y-66088D01*
X63088Y-65883D01*
X63199Y-65614D01*
X63200Y-65323D01*
X63200Y-75950D01*
X62750Y-75950D01*
X62750Y-72400D01*
X62750Y-68400D01*
X62674Y-68217D01*
X62533Y-68076D01*
X62349Y-68000D01*
X62150Y-67999D01*
X61967Y-68075D01*
X61826Y-68216D01*
X61750Y-68400D01*
X61749Y-68599D01*
X61825Y-68782D01*
X61966Y-68923D01*
X62150Y-68999D01*
X62349Y-69000D01*
X62532Y-68924D01*
X62673Y-68783D01*
X62749Y-68599D01*
X62750Y-68400D01*
X62750Y-72400D01*
X62674Y-72217D01*
X62533Y-72076D01*
X62349Y-72000D01*
X62150Y-71999D01*
X61967Y-72075D01*
X61826Y-72216D01*
X61750Y-72400D01*
X61749Y-72599D01*
X61825Y-72782D01*
X61966Y-72923D01*
X62150Y-72999D01*
X62349Y-73000D01*
X62532Y-72924D01*
X62673Y-72783D01*
X62749Y-72599D01*
X62750Y-72400D01*
X62750Y-75950D01*
X60569Y-75950D01*
X60815Y-75848D01*
X61097Y-75567D01*
X61249Y-75199D01*
X61250Y-74801D01*
X61185Y-74645D01*
X61185Y-63613D01*
X61176Y-63342D01*
X61090Y-63133D01*
X60998Y-63071D01*
X60975Y-63095D01*
X60975Y-61437D01*
X60903Y-61262D01*
X60769Y-61128D01*
X60595Y-61055D01*
X60405Y-61055D01*
X60230Y-61128D01*
X60097Y-61261D01*
X60024Y-61436D01*
X60024Y-61625D01*
X60096Y-61800D01*
X60230Y-61934D01*
X60404Y-62007D01*
X60594Y-62007D01*
X60769Y-61934D01*
X60902Y-61801D01*
X60975Y-61626D01*
X60975Y-61437D01*
X60975Y-63095D01*
X60928Y-63142D01*
X60928Y-63001D01*
X60866Y-62909D01*
X60613Y-62814D01*
X60342Y-62823D01*
X60133Y-62909D01*
X60071Y-63001D01*
X60500Y-63429D01*
X60928Y-63001D01*
X60928Y-63142D01*
X60570Y-63500D01*
X60998Y-63928D01*
X61090Y-63866D01*
X61185Y-63613D01*
X61185Y-74645D01*
X61098Y-74434D01*
X60975Y-74311D01*
X60975Y-65374D01*
X60928Y-65259D01*
X60928Y-63998D01*
X60500Y-63570D01*
X60429Y-63641D01*
X60429Y-63500D01*
X60001Y-63071D01*
X59909Y-63133D01*
X59814Y-63386D01*
X59823Y-63657D01*
X59909Y-63866D01*
X60001Y-63928D01*
X60429Y-63500D01*
X60429Y-63641D01*
X60071Y-63998D01*
X60133Y-64090D01*
X60386Y-64185D01*
X60657Y-64176D01*
X60866Y-64090D01*
X60928Y-63998D01*
X60928Y-65259D01*
X60903Y-65199D01*
X60769Y-65065D01*
X60595Y-64992D01*
X60405Y-64992D01*
X60230Y-65065D01*
X60097Y-65198D01*
X60024Y-65373D01*
X60024Y-65562D01*
X60096Y-65737D01*
X60230Y-65871D01*
X60404Y-65944D01*
X60594Y-65944D01*
X60769Y-65871D01*
X60902Y-65738D01*
X60975Y-65563D01*
X60975Y-65374D01*
X60975Y-74311D01*
X60817Y-74152D01*
X60750Y-74124D01*
X60750Y-71400D01*
X60750Y-70400D01*
X60705Y-70292D01*
X60705Y-69557D01*
X60692Y-69379D01*
X60648Y-69272D01*
X60581Y-69239D01*
X60510Y-69310D01*
X60510Y-69168D01*
X60477Y-69101D01*
X60307Y-69044D01*
X60129Y-69057D01*
X60022Y-69101D01*
X59989Y-69168D01*
X60250Y-69429D01*
X60510Y-69168D01*
X60510Y-69310D01*
X60320Y-69500D01*
X60581Y-69760D01*
X60648Y-69727D01*
X60705Y-69557D01*
X60705Y-70292D01*
X60674Y-70217D01*
X60533Y-70076D01*
X60510Y-70066D01*
X60510Y-69831D01*
X60250Y-69570D01*
X60179Y-69641D01*
X60179Y-69500D01*
X59918Y-69239D01*
X59851Y-69272D01*
X59794Y-69442D01*
X59807Y-69620D01*
X59851Y-69727D01*
X59918Y-69760D01*
X60179Y-69500D01*
X60179Y-69641D01*
X59989Y-69831D01*
X60022Y-69898D01*
X60192Y-69955D01*
X60370Y-69942D01*
X60477Y-69898D01*
X60510Y-69831D01*
X60510Y-70066D01*
X60349Y-70000D01*
X60150Y-69999D01*
X59967Y-70075D01*
X59826Y-70216D01*
X59750Y-70400D01*
X59749Y-70599D01*
X59825Y-70782D01*
X59966Y-70923D01*
X60150Y-70999D01*
X60349Y-71000D01*
X60532Y-70924D01*
X60673Y-70783D01*
X60749Y-70599D01*
X60750Y-70400D01*
X60750Y-71400D01*
X60674Y-71217D01*
X60533Y-71076D01*
X60349Y-71000D01*
X60150Y-70999D01*
X59967Y-71075D01*
X59826Y-71216D01*
X59750Y-71400D01*
X59749Y-71599D01*
X59825Y-71782D01*
X59966Y-71923D01*
X60150Y-71999D01*
X60349Y-72000D01*
X60532Y-71924D01*
X60673Y-71783D01*
X60749Y-71599D01*
X60750Y-71400D01*
X60750Y-74124D01*
X60449Y-74000D01*
X60051Y-73999D01*
X59684Y-74151D01*
X59550Y-74285D01*
X59550Y-65944D01*
X59609Y-65944D01*
X59784Y-65871D01*
X59918Y-65738D01*
X59991Y-65563D01*
X59991Y-65374D01*
X59919Y-65199D01*
X59785Y-65065D01*
X59610Y-64992D01*
X59550Y-64992D01*
X59550Y-62007D01*
X59609Y-62007D01*
X59784Y-61934D01*
X59918Y-61801D01*
X59991Y-61626D01*
X59991Y-61437D01*
X59919Y-61262D01*
X59785Y-61128D01*
X59610Y-61055D01*
X59550Y-61055D01*
X59550Y-58714D01*
X59682Y-58847D01*
X60050Y-58999D01*
X60448Y-59000D01*
X60815Y-58848D01*
X61097Y-58567D01*
X61249Y-58199D01*
X61250Y-57801D01*
X61098Y-57434D01*
X60817Y-57152D01*
X60569Y-57050D01*
X101715Y-57050D01*
X101680Y-57136D01*
X101679Y-57362D01*
X101766Y-57572D01*
X101926Y-57732D01*
X102136Y-57819D01*
X102362Y-57820D01*
X102572Y-57733D01*
X102732Y-57573D01*
X102819Y-57363D01*
X102820Y-57137D01*
X102784Y-57050D01*
X103715Y-57050D01*
X103680Y-57136D01*
X103679Y-57362D01*
X103766Y-57572D01*
X103926Y-57732D01*
X104136Y-57819D01*
X104362Y-57820D01*
X104572Y-57733D01*
X104732Y-57573D01*
X104819Y-57363D01*
X104820Y-57137D01*
X104784Y-57050D01*
X106930Y-57050D01*
X106684Y-57151D01*
X106402Y-57432D01*
X106250Y-57800D01*
X106249Y-58198D01*
X106401Y-58565D01*
X106682Y-58847D01*
X107050Y-58999D01*
X107448Y-59000D01*
X107815Y-58848D01*
X107950Y-58714D01*
X107950Y-74285D01*
M02*
