G04 (created by PCBNEW (2012-oct-18)-testing) date Wed 03 Jul 2013 05:15:39 PM EDT*
%MOIN*%
G04 Gerber Fmt 3.4, Leading zero omitted, Abs format*
%FSLAX34Y34*%
G01*
G70*
G90*
G04 APERTURE LIST*
%ADD10C,0.002*%
%ADD11C,0.00590551*%
%ADD12C,0.085*%
%ADD13C,0.06*%
%ADD14R,0.06X0.06*%
%ADD15C,0.066*%
%ADD16R,0.055X0.055*%
%ADD17C,0.055*%
%ADD18R,0.065X0.065*%
%ADD19C,0.065*%
%ADD20C,0.1*%
%ADD21C,0.0629921*%
%ADD22C,0.0511811*%
%ADD23C,0.074*%
%ADD24C,0.16*%
%ADD25C,0.035*%
%ADD26C,0.01*%
G04 APERTURE END LIST*
G54D10*
G54D11*
X58750Y-75000D02*
X58750Y-58000D01*
X107250Y-76500D02*
X60250Y-76500D01*
X108750Y-58000D02*
X108750Y-75000D01*
X60250Y-56500D02*
X107250Y-56500D01*
X107250Y-76500D02*
G75*
G03X108750Y-75000I0J1500D01*
G74*
G01*
X108750Y-58000D02*
G75*
G03X107250Y-56500I-1500J0D01*
G74*
G01*
X58750Y-75000D02*
G75*
G03X60250Y-76500I1500J0D01*
G74*
G01*
X60250Y-56500D02*
G75*
G03X58750Y-58000I0J-1500D01*
G74*
G01*
G54D12*
X98210Y-64984D03*
X93290Y-64984D03*
X98210Y-63016D03*
X93290Y-63016D03*
X105210Y-64984D03*
X100290Y-64984D03*
X105210Y-63016D03*
X100290Y-63016D03*
G54D13*
X60250Y-71500D03*
X60250Y-70500D03*
X60250Y-69500D03*
G54D12*
X93234Y-70290D03*
X93234Y-75210D03*
X91266Y-70290D03*
X91266Y-75210D03*
X98484Y-70290D03*
X98484Y-75210D03*
X96516Y-70290D03*
X96516Y-75210D03*
X103734Y-70290D03*
X103734Y-75210D03*
X101766Y-70290D03*
X101766Y-75210D03*
X66984Y-70290D03*
X66984Y-75210D03*
X65016Y-70290D03*
X65016Y-75210D03*
X72234Y-70290D03*
X72234Y-75210D03*
X70266Y-70290D03*
X70266Y-75210D03*
X77484Y-70290D03*
X77484Y-75210D03*
X75516Y-70290D03*
X75516Y-75210D03*
X82734Y-70290D03*
X82734Y-75210D03*
X80766Y-70290D03*
X80766Y-75210D03*
X87984Y-70290D03*
X87984Y-75210D03*
X86016Y-70290D03*
X86016Y-75210D03*
G54D13*
X66750Y-64500D03*
X66750Y-60500D03*
X62250Y-68500D03*
X62250Y-72500D03*
X68750Y-60500D03*
X68750Y-64500D03*
X90750Y-66000D03*
X86750Y-66000D03*
X84250Y-66000D03*
X80250Y-66000D03*
X107250Y-63500D03*
X107250Y-67500D03*
X74500Y-62500D03*
X74500Y-58500D03*
X73750Y-66000D03*
X77750Y-66000D03*
X96250Y-60750D03*
X92250Y-60750D03*
G54D14*
X86250Y-58750D03*
G54D13*
X86250Y-57750D03*
X87250Y-58750D03*
X87250Y-57750D03*
X88250Y-58750D03*
X88250Y-57750D03*
G54D15*
X96250Y-59500D03*
X96250Y-58500D03*
X71250Y-68500D03*
X71250Y-67500D03*
X66000Y-68500D03*
X66000Y-67500D03*
X76500Y-68500D03*
X76500Y-67500D03*
X107250Y-62000D03*
X107250Y-61000D03*
X87000Y-68500D03*
X87000Y-67500D03*
X97500Y-68500D03*
X97500Y-67500D03*
X102750Y-68500D03*
X102750Y-67500D03*
X92250Y-68500D03*
X92250Y-67500D03*
X81750Y-68500D03*
X81750Y-67500D03*
G54D16*
X73250Y-64000D03*
G54D17*
X73250Y-63000D03*
X73250Y-62000D03*
X73250Y-61000D03*
X70250Y-61000D03*
X70250Y-62000D03*
X70250Y-63000D03*
X70250Y-64000D03*
X77250Y-63500D03*
X78250Y-63500D03*
X79250Y-63500D03*
X80250Y-63500D03*
X81250Y-63500D03*
X82250Y-63500D03*
X83250Y-63500D03*
X84250Y-63500D03*
X85250Y-63500D03*
X86250Y-63500D03*
X87250Y-63500D03*
X88250Y-63500D03*
X89250Y-63500D03*
G54D16*
X76250Y-63500D03*
G54D17*
X89250Y-60500D03*
X88250Y-60500D03*
X87250Y-60500D03*
X86250Y-60500D03*
X85250Y-60500D03*
X84250Y-60500D03*
X83250Y-60500D03*
X82250Y-60500D03*
X81250Y-60500D03*
X80250Y-60500D03*
X79250Y-60500D03*
X78250Y-60500D03*
X77250Y-60500D03*
X76250Y-60500D03*
G54D18*
X65750Y-58500D03*
G54D19*
X64750Y-58500D03*
G54D18*
X99500Y-59250D03*
G54D19*
X99500Y-60250D03*
G54D17*
X70750Y-66000D03*
X71750Y-66000D03*
X67750Y-66000D03*
X68750Y-66000D03*
X84750Y-57750D03*
X83750Y-57750D03*
X70750Y-58500D03*
X71750Y-58500D03*
G54D20*
X60500Y-63500D03*
X62468Y-61531D03*
X62468Y-65468D03*
G54D21*
X62468Y-63500D03*
G54D22*
X60500Y-65468D03*
X60500Y-61531D03*
X59515Y-61531D03*
X59515Y-65468D03*
G54D13*
X104250Y-60500D03*
X102250Y-60500D03*
G54D23*
X104250Y-58750D03*
X102250Y-58750D03*
X104250Y-57250D03*
X102250Y-57250D03*
G54D24*
X107250Y-58000D03*
X107250Y-75000D03*
X60250Y-75000D03*
X60250Y-58000D03*
G54D25*
X76500Y-71000D03*
X78250Y-71500D03*
X72250Y-72500D03*
X79250Y-75250D03*
X80250Y-65000D03*
X82750Y-65000D03*
X79750Y-74250D03*
X93250Y-73750D03*
X84750Y-73750D03*
X98500Y-72750D03*
X89250Y-72750D03*
X103750Y-71750D03*
X89750Y-62500D03*
X91500Y-62500D03*
X92250Y-71750D03*
X99500Y-65000D03*
X99500Y-62000D03*
X77250Y-62000D03*
X88750Y-65000D03*
X88750Y-62500D03*
X76250Y-62500D03*
X75500Y-61250D03*
X75250Y-68500D03*
X68750Y-68500D03*
X68750Y-67500D03*
X78750Y-68500D03*
X78750Y-67500D03*
X90250Y-68500D03*
X90250Y-67500D03*
X85750Y-66750D03*
X85750Y-65250D03*
X86750Y-65250D03*
X86750Y-61500D03*
X80250Y-61500D03*
X81250Y-61250D03*
X83750Y-61250D03*
X83750Y-71250D03*
X100250Y-71250D03*
X100250Y-68500D03*
X100250Y-67500D03*
X87750Y-64500D03*
X76250Y-66000D03*
X87250Y-61500D03*
X88250Y-66000D03*
G54D26*
X77250Y-63500D02*
X77250Y-69000D01*
X77250Y-69000D02*
X76500Y-69750D01*
X76500Y-69750D02*
X76500Y-71000D01*
X66984Y-75210D02*
X66984Y-70290D01*
X78250Y-63500D02*
X78250Y-71500D01*
X72250Y-72500D02*
X72234Y-72500D01*
X72234Y-72500D02*
X72250Y-72500D01*
X72250Y-72500D02*
X72234Y-72500D01*
X72234Y-70290D02*
X72234Y-72500D01*
X72234Y-72500D02*
X72234Y-75210D01*
X79250Y-63500D02*
X79250Y-74500D01*
X79250Y-74500D02*
X79250Y-75250D01*
X77484Y-75210D02*
X77484Y-70290D01*
X80250Y-63500D02*
X80250Y-64500D01*
X80250Y-64500D02*
X80250Y-65000D01*
X82734Y-70290D02*
X82734Y-65016D01*
X82734Y-65016D02*
X82750Y-65000D01*
X82734Y-75210D02*
X82734Y-70290D01*
X81250Y-63500D02*
X81250Y-66500D01*
X81250Y-66500D02*
X79750Y-68000D01*
X79750Y-68000D02*
X79750Y-74250D01*
X87984Y-70290D02*
X87984Y-75210D01*
X93234Y-75210D02*
X93234Y-73766D01*
X93234Y-73766D02*
X93250Y-73750D01*
X93234Y-73734D02*
X93234Y-70290D01*
X93250Y-73750D02*
X93234Y-73734D01*
X84750Y-68500D02*
X84750Y-73750D01*
X86250Y-63500D02*
X86250Y-67000D01*
X86250Y-67000D02*
X84750Y-68500D01*
X98484Y-70290D02*
X98484Y-72750D01*
X98484Y-72750D02*
X98484Y-75210D01*
X89250Y-63500D02*
X89250Y-72750D01*
X98500Y-72750D02*
X98484Y-72750D01*
X98484Y-72750D02*
X98500Y-72750D01*
X98500Y-72750D02*
X98484Y-72750D01*
X103750Y-71750D02*
X103734Y-71750D01*
X103734Y-71750D02*
X103750Y-71750D01*
X103750Y-71750D02*
X103734Y-71750D01*
X103734Y-70290D02*
X103734Y-71750D01*
X103734Y-71750D02*
X103734Y-75210D01*
X89250Y-60500D02*
X89250Y-61000D01*
X89750Y-61500D02*
X89750Y-62500D01*
X89250Y-61000D02*
X89750Y-61500D01*
X91500Y-62500D02*
X91500Y-62750D01*
X91500Y-62750D02*
X91500Y-69000D01*
X91500Y-69000D02*
X92250Y-69750D01*
X92250Y-69750D02*
X92250Y-71750D01*
X99500Y-62000D02*
X99500Y-65000D01*
X77250Y-60500D02*
X77250Y-62000D01*
X88750Y-62500D02*
X88750Y-65000D01*
X76250Y-60500D02*
X76250Y-62500D01*
X75500Y-68250D02*
X75500Y-61250D01*
X75250Y-68500D02*
X75500Y-68250D01*
X68750Y-67500D02*
X68750Y-68500D01*
X79250Y-60500D02*
X79250Y-62000D01*
X78750Y-62500D02*
X78750Y-67500D01*
X79250Y-62000D02*
X78750Y-62500D01*
X78750Y-67500D02*
X78750Y-68500D01*
X90250Y-67500D02*
X90250Y-68500D01*
X80250Y-60500D02*
X80250Y-61500D01*
X85750Y-65250D02*
X85750Y-66750D01*
X86750Y-61500D02*
X86750Y-65250D01*
X100250Y-68500D02*
X100250Y-71250D01*
X81250Y-61250D02*
X81250Y-60500D01*
X83750Y-71250D02*
X83750Y-61250D01*
X100250Y-67500D02*
X100250Y-68500D01*
X86250Y-60500D02*
X86250Y-58750D01*
X87250Y-60500D02*
X87250Y-60250D01*
X87750Y-58250D02*
X87250Y-57750D01*
X87750Y-59750D02*
X87750Y-58250D01*
X87250Y-60250D02*
X87750Y-59750D01*
X88250Y-58750D02*
X88250Y-59750D01*
X87750Y-60250D02*
X87750Y-64500D01*
X88250Y-59750D02*
X87750Y-60250D01*
X76250Y-66000D02*
X76250Y-63500D01*
X85250Y-60500D02*
X85250Y-58750D01*
X86750Y-58250D02*
X87250Y-58750D01*
X85750Y-58250D02*
X86750Y-58250D01*
X85250Y-58750D02*
X85750Y-58250D01*
X95750Y-60750D02*
X95500Y-60750D01*
X95250Y-60500D02*
X95250Y-60250D01*
X95500Y-60750D02*
X95250Y-60500D01*
X96250Y-58500D02*
X95500Y-58500D01*
X95750Y-60750D02*
X96250Y-60750D01*
X95250Y-58750D02*
X95250Y-60250D01*
X95500Y-58500D02*
X95250Y-58750D01*
X87250Y-62250D02*
X87250Y-61500D01*
X87250Y-62250D02*
X87250Y-63500D01*
X107250Y-62000D02*
X107250Y-63500D01*
X88250Y-66000D02*
X88250Y-63500D01*
G54D10*
G36*
X107950Y-74356D02*
X107788Y-74195D01*
X107730Y-74170D01*
X107730Y-61904D01*
X107730Y-60904D01*
X107657Y-60728D01*
X107522Y-60593D01*
X107345Y-60520D01*
X107154Y-60519D01*
X106978Y-60592D01*
X106843Y-60727D01*
X106770Y-60904D01*
X106769Y-61095D01*
X106842Y-61271D01*
X106977Y-61406D01*
X107154Y-61479D01*
X107345Y-61480D01*
X107521Y-61407D01*
X107656Y-61272D01*
X107729Y-61095D01*
X107730Y-60904D01*
X107730Y-61904D01*
X107657Y-61728D01*
X107522Y-61593D01*
X107345Y-61520D01*
X107154Y-61519D01*
X106978Y-61592D01*
X106843Y-61727D01*
X106770Y-61904D01*
X106769Y-62095D01*
X106842Y-62271D01*
X106977Y-62406D01*
X107050Y-62436D01*
X107050Y-63095D01*
X106995Y-63118D01*
X106868Y-63244D01*
X106800Y-63410D01*
X106799Y-63589D01*
X106868Y-63754D01*
X106994Y-63881D01*
X107160Y-63949D01*
X107339Y-63950D01*
X107504Y-63881D01*
X107631Y-63755D01*
X107699Y-63589D01*
X107700Y-63410D01*
X107631Y-63245D01*
X107505Y-63118D01*
X107450Y-63095D01*
X107450Y-62436D01*
X107521Y-62407D01*
X107656Y-62272D01*
X107729Y-62095D01*
X107730Y-61904D01*
X107730Y-74170D01*
X107705Y-74160D01*
X107705Y-67557D01*
X107692Y-67379D01*
X107648Y-67272D01*
X107581Y-67239D01*
X107510Y-67310D01*
X107510Y-67168D01*
X107477Y-67101D01*
X107307Y-67044D01*
X107129Y-67057D01*
X107022Y-67101D01*
X106989Y-67168D01*
X107250Y-67429D01*
X107510Y-67168D01*
X107510Y-67310D01*
X107320Y-67500D01*
X107581Y-67760D01*
X107648Y-67727D01*
X107705Y-67557D01*
X107705Y-74160D01*
X107510Y-74079D01*
X107510Y-67831D01*
X107250Y-67570D01*
X107179Y-67641D01*
X107179Y-67500D01*
X106918Y-67239D01*
X106851Y-67272D01*
X106794Y-67442D01*
X106807Y-67620D01*
X106851Y-67727D01*
X106918Y-67760D01*
X107179Y-67500D01*
X107179Y-67641D01*
X106989Y-67831D01*
X107022Y-67898D01*
X107192Y-67955D01*
X107370Y-67942D01*
X107477Y-67898D01*
X107510Y-67831D01*
X107510Y-74079D01*
X107439Y-74050D01*
X107061Y-74049D01*
X106712Y-74194D01*
X106445Y-74461D01*
X106300Y-74810D01*
X106299Y-75188D01*
X106444Y-75537D01*
X106711Y-75804D01*
X107060Y-75949D01*
X107249Y-75950D01*
X105789Y-75950D01*
X105789Y-63103D01*
X105779Y-62875D01*
X105711Y-62713D01*
X105631Y-62664D01*
X105561Y-62735D01*
X105561Y-62594D01*
X105512Y-62514D01*
X105297Y-62436D01*
X105069Y-62446D01*
X104907Y-62514D01*
X104858Y-62594D01*
X105210Y-62945D01*
X105561Y-62594D01*
X105561Y-62735D01*
X105280Y-63016D01*
X105631Y-63367D01*
X105711Y-63318D01*
X105789Y-63103D01*
X105789Y-75950D01*
X105785Y-75950D01*
X105785Y-64870D01*
X105697Y-64658D01*
X105561Y-64521D01*
X105561Y-63437D01*
X105210Y-63086D01*
X105139Y-63157D01*
X105139Y-63016D01*
X104788Y-62664D01*
X104770Y-62675D01*
X104770Y-58647D01*
X104691Y-58455D01*
X104544Y-58309D01*
X104353Y-58230D01*
X104147Y-58229D01*
X103955Y-58308D01*
X103809Y-58455D01*
X103730Y-58646D01*
X103729Y-58852D01*
X103808Y-59044D01*
X103955Y-59190D01*
X104146Y-59269D01*
X104352Y-59270D01*
X104544Y-59191D01*
X104690Y-59044D01*
X104769Y-58853D01*
X104770Y-58647D01*
X104770Y-62675D01*
X104708Y-62713D01*
X104700Y-62735D01*
X104700Y-60410D01*
X104631Y-60245D01*
X104505Y-60118D01*
X104339Y-60050D01*
X104160Y-60049D01*
X103995Y-60118D01*
X103868Y-60244D01*
X103800Y-60410D01*
X103799Y-60589D01*
X103868Y-60754D01*
X103994Y-60881D01*
X104160Y-60949D01*
X104339Y-60950D01*
X104504Y-60881D01*
X104631Y-60755D01*
X104699Y-60589D01*
X104700Y-60410D01*
X104700Y-62735D01*
X104630Y-62928D01*
X104640Y-63156D01*
X104708Y-63318D01*
X104788Y-63367D01*
X105139Y-63016D01*
X105139Y-63157D01*
X104858Y-63437D01*
X104907Y-63517D01*
X105122Y-63595D01*
X105350Y-63585D01*
X105512Y-63517D01*
X105561Y-63437D01*
X105561Y-64521D01*
X105536Y-64496D01*
X105324Y-64409D01*
X105096Y-64408D01*
X104884Y-64496D01*
X104722Y-64657D01*
X104635Y-64869D01*
X104634Y-65097D01*
X104722Y-65309D01*
X104883Y-65471D01*
X105095Y-65558D01*
X105323Y-65559D01*
X105535Y-65471D01*
X105697Y-65310D01*
X105784Y-65098D01*
X105785Y-64870D01*
X105785Y-75950D01*
X104309Y-75950D01*
X104309Y-75096D01*
X104221Y-74884D01*
X104060Y-74722D01*
X103934Y-74670D01*
X103934Y-72025D01*
X104025Y-71934D01*
X104074Y-71814D01*
X104075Y-71685D01*
X104025Y-71566D01*
X103934Y-71474D01*
X103934Y-71474D01*
X103934Y-70829D01*
X104059Y-70777D01*
X104221Y-70616D01*
X104308Y-70404D01*
X104309Y-70176D01*
X104221Y-69964D01*
X104060Y-69802D01*
X103848Y-69715D01*
X103620Y-69714D01*
X103408Y-69802D01*
X103246Y-69963D01*
X103235Y-69992D01*
X103235Y-67565D01*
X103223Y-67374D01*
X103173Y-67254D01*
X103102Y-67217D01*
X103032Y-67288D01*
X103032Y-67147D01*
X102995Y-67076D01*
X102815Y-67014D01*
X102770Y-67017D01*
X102770Y-58647D01*
X102691Y-58455D01*
X102544Y-58309D01*
X102353Y-58230D01*
X102147Y-58229D01*
X101955Y-58308D01*
X101809Y-58455D01*
X101730Y-58646D01*
X101729Y-58852D01*
X101808Y-59044D01*
X101955Y-59190D01*
X102146Y-59269D01*
X102352Y-59270D01*
X102544Y-59191D01*
X102690Y-59044D01*
X102769Y-58853D01*
X102770Y-58647D01*
X102770Y-67017D01*
X102705Y-67021D01*
X102705Y-60557D01*
X102692Y-60379D01*
X102648Y-60272D01*
X102581Y-60239D01*
X102510Y-60310D01*
X102510Y-60168D01*
X102477Y-60101D01*
X102307Y-60044D01*
X102129Y-60057D01*
X102022Y-60101D01*
X101989Y-60168D01*
X102250Y-60429D01*
X102510Y-60168D01*
X102510Y-60310D01*
X102320Y-60500D01*
X102581Y-60760D01*
X102648Y-60727D01*
X102705Y-60557D01*
X102705Y-67021D01*
X102624Y-67026D01*
X102510Y-67074D01*
X102510Y-60831D01*
X102250Y-60570D01*
X102179Y-60641D01*
X102179Y-60500D01*
X101918Y-60239D01*
X101851Y-60272D01*
X101794Y-60442D01*
X101807Y-60620D01*
X101851Y-60727D01*
X101918Y-60760D01*
X102179Y-60500D01*
X102179Y-60641D01*
X101989Y-60831D01*
X102022Y-60898D01*
X102192Y-60955D01*
X102370Y-60942D01*
X102477Y-60898D01*
X102510Y-60831D01*
X102510Y-67074D01*
X102504Y-67076D01*
X102467Y-67147D01*
X102750Y-67429D01*
X103032Y-67147D01*
X103032Y-67288D01*
X102820Y-67500D01*
X103102Y-67782D01*
X103173Y-67745D01*
X103235Y-67565D01*
X103235Y-69992D01*
X103230Y-70004D01*
X103230Y-68404D01*
X103157Y-68228D01*
X103032Y-68103D01*
X103032Y-67852D01*
X102750Y-67570D01*
X102679Y-67641D01*
X102679Y-67500D01*
X102397Y-67217D01*
X102326Y-67254D01*
X102264Y-67434D01*
X102276Y-67625D01*
X102326Y-67745D01*
X102397Y-67782D01*
X102679Y-67500D01*
X102679Y-67641D01*
X102467Y-67852D01*
X102504Y-67923D01*
X102684Y-67985D01*
X102875Y-67973D01*
X102995Y-67923D01*
X103032Y-67852D01*
X103032Y-68103D01*
X103022Y-68093D01*
X102845Y-68020D01*
X102654Y-68019D01*
X102478Y-68092D01*
X102343Y-68227D01*
X102270Y-68404D01*
X102269Y-68595D01*
X102342Y-68771D01*
X102477Y-68906D01*
X102654Y-68979D01*
X102845Y-68980D01*
X103021Y-68907D01*
X103156Y-68772D01*
X103229Y-68595D01*
X103230Y-68404D01*
X103230Y-70004D01*
X103159Y-70175D01*
X103158Y-70403D01*
X103246Y-70615D01*
X103407Y-70777D01*
X103534Y-70829D01*
X103534Y-71506D01*
X103474Y-71565D01*
X103425Y-71685D01*
X103424Y-71814D01*
X103474Y-71933D01*
X103534Y-71993D01*
X103534Y-74670D01*
X103408Y-74722D01*
X103246Y-74883D01*
X103159Y-75095D01*
X103158Y-75323D01*
X103246Y-75535D01*
X103407Y-75697D01*
X103619Y-75784D01*
X103847Y-75785D01*
X104059Y-75697D01*
X104221Y-75536D01*
X104308Y-75324D01*
X104309Y-75096D01*
X104309Y-75950D01*
X102345Y-75950D01*
X102345Y-75297D01*
X102345Y-70377D01*
X102335Y-70149D01*
X102267Y-69987D01*
X102187Y-69938D01*
X102117Y-70009D01*
X102117Y-69868D01*
X102068Y-69788D01*
X101853Y-69710D01*
X101625Y-69720D01*
X101463Y-69788D01*
X101414Y-69868D01*
X101766Y-70219D01*
X102117Y-69868D01*
X102117Y-70009D01*
X101836Y-70290D01*
X102187Y-70641D01*
X102267Y-70592D01*
X102345Y-70377D01*
X102345Y-75297D01*
X102335Y-75069D01*
X102267Y-74907D01*
X102187Y-74858D01*
X102117Y-74929D01*
X102117Y-74788D01*
X102117Y-70711D01*
X101766Y-70360D01*
X101695Y-70431D01*
X101695Y-70290D01*
X101344Y-69938D01*
X101264Y-69987D01*
X101186Y-70202D01*
X101196Y-70430D01*
X101264Y-70592D01*
X101344Y-70641D01*
X101695Y-70290D01*
X101695Y-70431D01*
X101414Y-70711D01*
X101463Y-70791D01*
X101678Y-70869D01*
X101906Y-70859D01*
X102068Y-70791D01*
X102117Y-70711D01*
X102117Y-74788D01*
X102068Y-74708D01*
X101853Y-74630D01*
X101625Y-74640D01*
X101463Y-74708D01*
X101414Y-74788D01*
X101766Y-75139D01*
X102117Y-74788D01*
X102117Y-74929D01*
X101836Y-75210D01*
X102187Y-75561D01*
X102267Y-75512D01*
X102345Y-75297D01*
X102345Y-75950D01*
X102117Y-75950D01*
X102117Y-75631D01*
X101766Y-75280D01*
X101695Y-75351D01*
X101695Y-75210D01*
X101344Y-74858D01*
X101264Y-74907D01*
X101186Y-75122D01*
X101196Y-75350D01*
X101264Y-75512D01*
X101344Y-75561D01*
X101695Y-75210D01*
X101695Y-75351D01*
X101414Y-75631D01*
X101463Y-75711D01*
X101678Y-75789D01*
X101906Y-75779D01*
X102068Y-75711D01*
X102117Y-75631D01*
X102117Y-75950D01*
X100869Y-75950D01*
X100869Y-63103D01*
X100859Y-62875D01*
X100791Y-62713D01*
X100711Y-62664D01*
X100641Y-62735D01*
X100641Y-62594D01*
X100592Y-62514D01*
X100377Y-62436D01*
X100149Y-62446D01*
X99987Y-62514D01*
X99980Y-62525D01*
X99980Y-60313D01*
X99975Y-60235D01*
X99975Y-59545D01*
X99975Y-58895D01*
X99952Y-58840D01*
X99910Y-58797D01*
X99854Y-58775D01*
X99795Y-58774D01*
X99145Y-58774D01*
X99090Y-58797D01*
X99047Y-58839D01*
X99025Y-58895D01*
X99024Y-58954D01*
X99024Y-59604D01*
X99047Y-59659D01*
X99089Y-59702D01*
X99145Y-59724D01*
X99204Y-59725D01*
X99854Y-59725D01*
X99909Y-59702D01*
X99952Y-59660D01*
X99974Y-59604D01*
X99975Y-59545D01*
X99975Y-60235D01*
X99967Y-60125D01*
X99919Y-60007D01*
X99849Y-59971D01*
X99778Y-60042D01*
X99778Y-59900D01*
X99742Y-59830D01*
X99563Y-59769D01*
X99375Y-59782D01*
X99257Y-59830D01*
X99221Y-59900D01*
X99500Y-60179D01*
X99778Y-59900D01*
X99778Y-60042D01*
X99570Y-60250D01*
X99849Y-60528D01*
X99919Y-60492D01*
X99980Y-60313D01*
X99980Y-62525D01*
X99938Y-62594D01*
X100290Y-62945D01*
X100641Y-62594D01*
X100641Y-62735D01*
X100360Y-63016D01*
X100711Y-63367D01*
X100791Y-63318D01*
X100869Y-63103D01*
X100869Y-75950D01*
X100865Y-75950D01*
X100865Y-64870D01*
X100777Y-64658D01*
X100641Y-64521D01*
X100641Y-63437D01*
X100290Y-63086D01*
X100219Y-63157D01*
X100219Y-63016D01*
X99868Y-62664D01*
X99788Y-62713D01*
X99710Y-62928D01*
X99720Y-63156D01*
X99788Y-63318D01*
X99868Y-63367D01*
X100219Y-63016D01*
X100219Y-63157D01*
X99938Y-63437D01*
X99987Y-63517D01*
X100202Y-63595D01*
X100430Y-63585D01*
X100592Y-63517D01*
X100641Y-63437D01*
X100641Y-64521D01*
X100616Y-64496D01*
X100404Y-64409D01*
X100176Y-64408D01*
X99964Y-64496D01*
X99802Y-64657D01*
X99748Y-64788D01*
X99700Y-64740D01*
X99700Y-62259D01*
X99775Y-62184D01*
X99824Y-62064D01*
X99825Y-61935D01*
X99778Y-61823D01*
X99778Y-60599D01*
X99500Y-60320D01*
X99429Y-60391D01*
X99429Y-60250D01*
X99150Y-59971D01*
X99080Y-60007D01*
X99019Y-60186D01*
X99032Y-60374D01*
X99080Y-60492D01*
X99150Y-60528D01*
X99429Y-60250D01*
X99429Y-60391D01*
X99221Y-60599D01*
X99257Y-60669D01*
X99436Y-60730D01*
X99624Y-60717D01*
X99742Y-60669D01*
X99778Y-60599D01*
X99778Y-61823D01*
X99775Y-61816D01*
X99684Y-61724D01*
X99564Y-61675D01*
X99435Y-61674D01*
X99316Y-61724D01*
X99224Y-61815D01*
X99175Y-61935D01*
X99174Y-62064D01*
X99224Y-62183D01*
X99300Y-62259D01*
X99300Y-64740D01*
X99224Y-64815D01*
X99175Y-64935D01*
X99174Y-65064D01*
X99224Y-65183D01*
X99315Y-65275D01*
X99435Y-65324D01*
X99564Y-65325D01*
X99683Y-65275D01*
X99757Y-65201D01*
X99802Y-65309D01*
X99963Y-65471D01*
X100175Y-65558D01*
X100403Y-65559D01*
X100615Y-65471D01*
X100777Y-65310D01*
X100864Y-65098D01*
X100865Y-64870D01*
X100865Y-75950D01*
X100575Y-75950D01*
X100575Y-71185D01*
X100525Y-71066D01*
X100450Y-70990D01*
X100450Y-68759D01*
X100525Y-68684D01*
X100574Y-68564D01*
X100575Y-68435D01*
X100525Y-68316D01*
X100450Y-68240D01*
X100450Y-67759D01*
X100525Y-67684D01*
X100574Y-67564D01*
X100575Y-67435D01*
X100525Y-67316D01*
X100434Y-67224D01*
X100314Y-67175D01*
X100185Y-67174D01*
X100066Y-67224D01*
X99974Y-67315D01*
X99925Y-67435D01*
X99924Y-67564D01*
X99974Y-67683D01*
X100050Y-67759D01*
X100050Y-68240D01*
X99974Y-68315D01*
X99925Y-68435D01*
X99924Y-68564D01*
X99974Y-68683D01*
X100050Y-68759D01*
X100050Y-70990D01*
X99974Y-71065D01*
X99925Y-71185D01*
X99924Y-71314D01*
X99974Y-71433D01*
X100065Y-71525D01*
X100185Y-71574D01*
X100314Y-71575D01*
X100433Y-71525D01*
X100525Y-71434D01*
X100574Y-71314D01*
X100575Y-71185D01*
X100575Y-75950D01*
X99059Y-75950D01*
X99059Y-75096D01*
X98971Y-74884D01*
X98810Y-74722D01*
X98684Y-74670D01*
X98684Y-73025D01*
X98775Y-72934D01*
X98824Y-72814D01*
X98825Y-72685D01*
X98775Y-72566D01*
X98684Y-72474D01*
X98684Y-72474D01*
X98684Y-70829D01*
X98809Y-70777D01*
X98971Y-70616D01*
X99058Y-70404D01*
X99059Y-70176D01*
X98971Y-69964D01*
X98810Y-69802D01*
X98789Y-69794D01*
X98789Y-63103D01*
X98779Y-62875D01*
X98711Y-62713D01*
X98631Y-62664D01*
X98561Y-62735D01*
X98561Y-62594D01*
X98512Y-62514D01*
X98297Y-62436D01*
X98069Y-62446D01*
X97907Y-62514D01*
X97858Y-62594D01*
X98210Y-62945D01*
X98561Y-62594D01*
X98561Y-62735D01*
X98280Y-63016D01*
X98631Y-63367D01*
X98711Y-63318D01*
X98789Y-63103D01*
X98789Y-69794D01*
X98785Y-69792D01*
X98785Y-64870D01*
X98697Y-64658D01*
X98561Y-64521D01*
X98561Y-63437D01*
X98210Y-63086D01*
X98139Y-63157D01*
X98139Y-63016D01*
X97788Y-62664D01*
X97708Y-62713D01*
X97630Y-62928D01*
X97640Y-63156D01*
X97708Y-63318D01*
X97788Y-63367D01*
X98139Y-63016D01*
X98139Y-63157D01*
X97858Y-63437D01*
X97907Y-63517D01*
X98122Y-63595D01*
X98350Y-63585D01*
X98512Y-63517D01*
X98561Y-63437D01*
X98561Y-64521D01*
X98536Y-64496D01*
X98324Y-64409D01*
X98096Y-64408D01*
X97884Y-64496D01*
X97722Y-64657D01*
X97635Y-64869D01*
X97634Y-65097D01*
X97722Y-65309D01*
X97883Y-65471D01*
X98095Y-65558D01*
X98323Y-65559D01*
X98535Y-65471D01*
X98697Y-65310D01*
X98784Y-65098D01*
X98785Y-64870D01*
X98785Y-69792D01*
X98598Y-69715D01*
X98370Y-69714D01*
X98158Y-69802D01*
X97996Y-69963D01*
X97980Y-70004D01*
X97980Y-68404D01*
X97980Y-67404D01*
X97907Y-67228D01*
X97772Y-67093D01*
X97595Y-67020D01*
X97404Y-67019D01*
X97228Y-67092D01*
X97093Y-67227D01*
X97020Y-67404D01*
X97019Y-67595D01*
X97092Y-67771D01*
X97227Y-67906D01*
X97404Y-67979D01*
X97595Y-67980D01*
X97771Y-67907D01*
X97906Y-67772D01*
X97979Y-67595D01*
X97980Y-67404D01*
X97980Y-68404D01*
X97907Y-68228D01*
X97772Y-68093D01*
X97595Y-68020D01*
X97404Y-68019D01*
X97228Y-68092D01*
X97093Y-68227D01*
X97020Y-68404D01*
X97019Y-68595D01*
X97092Y-68771D01*
X97227Y-68906D01*
X97404Y-68979D01*
X97595Y-68980D01*
X97771Y-68907D01*
X97906Y-68772D01*
X97979Y-68595D01*
X97980Y-68404D01*
X97980Y-70004D01*
X97909Y-70175D01*
X97908Y-70403D01*
X97996Y-70615D01*
X98157Y-70777D01*
X98284Y-70829D01*
X98284Y-72506D01*
X98224Y-72565D01*
X98175Y-72685D01*
X98174Y-72814D01*
X98224Y-72933D01*
X98284Y-72993D01*
X98284Y-74670D01*
X98158Y-74722D01*
X97996Y-74883D01*
X97909Y-75095D01*
X97908Y-75323D01*
X97996Y-75535D01*
X98157Y-75697D01*
X98369Y-75784D01*
X98597Y-75785D01*
X98809Y-75697D01*
X98971Y-75536D01*
X99058Y-75324D01*
X99059Y-75096D01*
X99059Y-75950D01*
X97095Y-75950D01*
X97095Y-75297D01*
X97095Y-70377D01*
X97085Y-70149D01*
X97017Y-69987D01*
X96937Y-69938D01*
X96867Y-70009D01*
X96867Y-69868D01*
X96818Y-69788D01*
X96730Y-69755D01*
X96730Y-59404D01*
X96730Y-58404D01*
X96657Y-58228D01*
X96522Y-58093D01*
X96345Y-58020D01*
X96154Y-58019D01*
X95978Y-58092D01*
X95843Y-58227D01*
X95813Y-58300D01*
X95500Y-58300D01*
X95423Y-58315D01*
X95401Y-58329D01*
X95358Y-58358D01*
X95108Y-58608D01*
X95065Y-58673D01*
X95050Y-58750D01*
X95050Y-60250D01*
X95050Y-60500D01*
X95065Y-60576D01*
X95108Y-60641D01*
X95358Y-60891D01*
X95358Y-60891D01*
X95401Y-60920D01*
X95423Y-60934D01*
X95423Y-60934D01*
X95500Y-60950D01*
X95750Y-60950D01*
X95845Y-60950D01*
X95868Y-61004D01*
X95994Y-61131D01*
X96160Y-61199D01*
X96339Y-61200D01*
X96504Y-61131D01*
X96631Y-61005D01*
X96699Y-60839D01*
X96700Y-60660D01*
X96631Y-60495D01*
X96505Y-60368D01*
X96339Y-60300D01*
X96160Y-60299D01*
X95995Y-60368D01*
X95868Y-60494D01*
X95845Y-60550D01*
X95750Y-60550D01*
X95582Y-60550D01*
X95450Y-60417D01*
X95450Y-60250D01*
X95450Y-58832D01*
X95582Y-58700D01*
X95813Y-58700D01*
X95842Y-58771D01*
X95977Y-58906D01*
X96154Y-58979D01*
X96345Y-58980D01*
X96521Y-58907D01*
X96656Y-58772D01*
X96729Y-58595D01*
X96730Y-58404D01*
X96730Y-59404D01*
X96657Y-59228D01*
X96522Y-59093D01*
X96345Y-59020D01*
X96154Y-59019D01*
X95978Y-59092D01*
X95843Y-59227D01*
X95770Y-59404D01*
X95769Y-59595D01*
X95842Y-59771D01*
X95977Y-59906D01*
X96154Y-59979D01*
X96345Y-59980D01*
X96521Y-59907D01*
X96656Y-59772D01*
X96729Y-59595D01*
X96730Y-59404D01*
X96730Y-69755D01*
X96603Y-69710D01*
X96375Y-69720D01*
X96213Y-69788D01*
X96164Y-69868D01*
X96516Y-70219D01*
X96867Y-69868D01*
X96867Y-70009D01*
X96586Y-70290D01*
X96937Y-70641D01*
X97017Y-70592D01*
X97095Y-70377D01*
X97095Y-75297D01*
X97085Y-75069D01*
X97017Y-74907D01*
X96937Y-74858D01*
X96867Y-74929D01*
X96867Y-74788D01*
X96867Y-70711D01*
X96516Y-70360D01*
X96445Y-70431D01*
X96445Y-70290D01*
X96094Y-69938D01*
X96014Y-69987D01*
X95936Y-70202D01*
X95946Y-70430D01*
X96014Y-70592D01*
X96094Y-70641D01*
X96445Y-70290D01*
X96445Y-70431D01*
X96164Y-70711D01*
X96213Y-70791D01*
X96428Y-70869D01*
X96656Y-70859D01*
X96818Y-70791D01*
X96867Y-70711D01*
X96867Y-74788D01*
X96818Y-74708D01*
X96603Y-74630D01*
X96375Y-74640D01*
X96213Y-74708D01*
X96164Y-74788D01*
X96516Y-75139D01*
X96867Y-74788D01*
X96867Y-74929D01*
X96586Y-75210D01*
X96937Y-75561D01*
X97017Y-75512D01*
X97095Y-75297D01*
X97095Y-75950D01*
X96867Y-75950D01*
X96867Y-75631D01*
X96516Y-75280D01*
X96445Y-75351D01*
X96445Y-75210D01*
X96094Y-74858D01*
X96014Y-74907D01*
X95936Y-75122D01*
X95946Y-75350D01*
X96014Y-75512D01*
X96094Y-75561D01*
X96445Y-75210D01*
X96445Y-75351D01*
X96164Y-75631D01*
X96213Y-75711D01*
X96428Y-75789D01*
X96656Y-75779D01*
X96818Y-75711D01*
X96867Y-75631D01*
X96867Y-75950D01*
X93869Y-75950D01*
X93869Y-63103D01*
X93859Y-62875D01*
X93791Y-62713D01*
X93711Y-62664D01*
X93641Y-62735D01*
X93641Y-62594D01*
X93592Y-62514D01*
X93377Y-62436D01*
X93149Y-62446D01*
X92987Y-62514D01*
X92938Y-62594D01*
X93290Y-62945D01*
X93641Y-62594D01*
X93641Y-62735D01*
X93360Y-63016D01*
X93711Y-63367D01*
X93791Y-63318D01*
X93869Y-63103D01*
X93869Y-75950D01*
X93865Y-75950D01*
X93865Y-64870D01*
X93777Y-64658D01*
X93641Y-64521D01*
X93641Y-63437D01*
X93290Y-63086D01*
X93219Y-63157D01*
X93219Y-63016D01*
X92868Y-62664D01*
X92788Y-62713D01*
X92710Y-62928D01*
X92720Y-63156D01*
X92788Y-63318D01*
X92868Y-63367D01*
X93219Y-63016D01*
X93219Y-63157D01*
X92938Y-63437D01*
X92987Y-63517D01*
X93202Y-63595D01*
X93430Y-63585D01*
X93592Y-63517D01*
X93641Y-63437D01*
X93641Y-64521D01*
X93616Y-64496D01*
X93404Y-64409D01*
X93176Y-64408D01*
X92964Y-64496D01*
X92802Y-64657D01*
X92715Y-64869D01*
X92714Y-65097D01*
X92802Y-65309D01*
X92963Y-65471D01*
X93175Y-65558D01*
X93403Y-65559D01*
X93615Y-65471D01*
X93777Y-65310D01*
X93864Y-65098D01*
X93865Y-64870D01*
X93865Y-75950D01*
X93809Y-75950D01*
X93809Y-75096D01*
X93721Y-74884D01*
X93560Y-74722D01*
X93434Y-74670D01*
X93434Y-74025D01*
X93525Y-73934D01*
X93574Y-73814D01*
X93575Y-73685D01*
X93525Y-73566D01*
X93434Y-73474D01*
X93434Y-73474D01*
X93434Y-70829D01*
X93559Y-70777D01*
X93721Y-70616D01*
X93808Y-70404D01*
X93809Y-70176D01*
X93721Y-69964D01*
X93560Y-69802D01*
X93348Y-69715D01*
X93120Y-69714D01*
X92908Y-69802D01*
X92746Y-69963D01*
X92735Y-69992D01*
X92735Y-67565D01*
X92723Y-67374D01*
X92705Y-67331D01*
X92705Y-60807D01*
X92692Y-60629D01*
X92648Y-60522D01*
X92581Y-60489D01*
X92510Y-60560D01*
X92510Y-60418D01*
X92477Y-60351D01*
X92307Y-60294D01*
X92129Y-60307D01*
X92022Y-60351D01*
X91989Y-60418D01*
X92250Y-60679D01*
X92510Y-60418D01*
X92510Y-60560D01*
X92320Y-60750D01*
X92581Y-61010D01*
X92648Y-60977D01*
X92705Y-60807D01*
X92705Y-67331D01*
X92673Y-67254D01*
X92602Y-67217D01*
X92532Y-67288D01*
X92532Y-67147D01*
X92510Y-67105D01*
X92510Y-61081D01*
X92250Y-60820D01*
X92179Y-60891D01*
X92179Y-60750D01*
X91918Y-60489D01*
X91851Y-60522D01*
X91794Y-60692D01*
X91807Y-60870D01*
X91851Y-60977D01*
X91918Y-61010D01*
X92179Y-60750D01*
X92179Y-60891D01*
X91989Y-61081D01*
X92022Y-61148D01*
X92192Y-61205D01*
X92370Y-61192D01*
X92477Y-61148D01*
X92510Y-61081D01*
X92510Y-67105D01*
X92495Y-67076D01*
X92315Y-67014D01*
X92124Y-67026D01*
X92004Y-67076D01*
X91967Y-67147D01*
X92250Y-67429D01*
X92532Y-67147D01*
X92532Y-67288D01*
X92320Y-67500D01*
X92602Y-67782D01*
X92673Y-67745D01*
X92735Y-67565D01*
X92735Y-69992D01*
X92730Y-70004D01*
X92730Y-68404D01*
X92657Y-68228D01*
X92532Y-68103D01*
X92532Y-67852D01*
X92250Y-67570D01*
X92179Y-67641D01*
X92179Y-67500D01*
X91897Y-67217D01*
X91826Y-67254D01*
X91764Y-67434D01*
X91776Y-67625D01*
X91826Y-67745D01*
X91897Y-67782D01*
X92179Y-67500D01*
X92179Y-67641D01*
X91967Y-67852D01*
X92004Y-67923D01*
X92184Y-67985D01*
X92375Y-67973D01*
X92495Y-67923D01*
X92532Y-67852D01*
X92532Y-68103D01*
X92522Y-68093D01*
X92345Y-68020D01*
X92154Y-68019D01*
X91978Y-68092D01*
X91843Y-68227D01*
X91770Y-68404D01*
X91769Y-68595D01*
X91842Y-68771D01*
X91977Y-68906D01*
X92154Y-68979D01*
X92345Y-68980D01*
X92521Y-68907D01*
X92656Y-68772D01*
X92729Y-68595D01*
X92730Y-68404D01*
X92730Y-70004D01*
X92659Y-70175D01*
X92658Y-70403D01*
X92746Y-70615D01*
X92907Y-70777D01*
X93034Y-70829D01*
X93034Y-73506D01*
X92974Y-73565D01*
X92925Y-73685D01*
X92924Y-73814D01*
X92974Y-73933D01*
X93034Y-73993D01*
X93034Y-74670D01*
X92908Y-74722D01*
X92746Y-74883D01*
X92659Y-75095D01*
X92658Y-75323D01*
X92746Y-75535D01*
X92907Y-75697D01*
X93119Y-75784D01*
X93347Y-75785D01*
X93559Y-75697D01*
X93721Y-75536D01*
X93808Y-75324D01*
X93809Y-75096D01*
X93809Y-75950D01*
X92575Y-75950D01*
X92575Y-71685D01*
X92525Y-71566D01*
X92450Y-71490D01*
X92450Y-69750D01*
X92449Y-69749D01*
X92434Y-69673D01*
X92434Y-69673D01*
X92420Y-69651D01*
X92391Y-69608D01*
X92391Y-69608D01*
X91700Y-68917D01*
X91700Y-62759D01*
X91775Y-62684D01*
X91824Y-62564D01*
X91825Y-62435D01*
X91775Y-62316D01*
X91684Y-62224D01*
X91564Y-62175D01*
X91435Y-62174D01*
X91316Y-62224D01*
X91224Y-62315D01*
X91175Y-62435D01*
X91174Y-62564D01*
X91224Y-62683D01*
X91300Y-62759D01*
X91300Y-69000D01*
X91315Y-69076D01*
X91358Y-69141D01*
X92050Y-69832D01*
X92050Y-71490D01*
X91974Y-71565D01*
X91925Y-71685D01*
X91924Y-71814D01*
X91974Y-71933D01*
X92065Y-72025D01*
X92185Y-72074D01*
X92314Y-72075D01*
X92433Y-72025D01*
X92525Y-71934D01*
X92574Y-71814D01*
X92575Y-71685D01*
X92575Y-75950D01*
X91845Y-75950D01*
X91845Y-75297D01*
X91845Y-70377D01*
X91835Y-70149D01*
X91767Y-69987D01*
X91687Y-69938D01*
X91617Y-70009D01*
X91617Y-69868D01*
X91568Y-69788D01*
X91353Y-69710D01*
X91200Y-69717D01*
X91200Y-65910D01*
X91131Y-65745D01*
X91005Y-65618D01*
X90839Y-65550D01*
X90660Y-65549D01*
X90495Y-65618D01*
X90368Y-65744D01*
X90300Y-65910D01*
X90299Y-66089D01*
X90368Y-66254D01*
X90494Y-66381D01*
X90660Y-66449D01*
X90839Y-66450D01*
X91004Y-66381D01*
X91131Y-66255D01*
X91199Y-66089D01*
X91200Y-65910D01*
X91200Y-69717D01*
X91125Y-69720D01*
X90963Y-69788D01*
X90914Y-69868D01*
X91266Y-70219D01*
X91617Y-69868D01*
X91617Y-70009D01*
X91336Y-70290D01*
X91687Y-70641D01*
X91767Y-70592D01*
X91845Y-70377D01*
X91845Y-75297D01*
X91835Y-75069D01*
X91767Y-74907D01*
X91687Y-74858D01*
X91617Y-74929D01*
X91617Y-74788D01*
X91617Y-70711D01*
X91266Y-70360D01*
X91195Y-70431D01*
X91195Y-70290D01*
X90844Y-69938D01*
X90764Y-69987D01*
X90686Y-70202D01*
X90696Y-70430D01*
X90764Y-70592D01*
X90844Y-70641D01*
X91195Y-70290D01*
X91195Y-70431D01*
X90914Y-70711D01*
X90963Y-70791D01*
X91178Y-70869D01*
X91406Y-70859D01*
X91568Y-70791D01*
X91617Y-70711D01*
X91617Y-74788D01*
X91568Y-74708D01*
X91353Y-74630D01*
X91125Y-74640D01*
X90963Y-74708D01*
X90914Y-74788D01*
X91266Y-75139D01*
X91617Y-74788D01*
X91617Y-74929D01*
X91336Y-75210D01*
X91687Y-75561D01*
X91767Y-75512D01*
X91845Y-75297D01*
X91845Y-75950D01*
X91617Y-75950D01*
X91617Y-75631D01*
X91266Y-75280D01*
X91195Y-75351D01*
X91195Y-75210D01*
X90844Y-74858D01*
X90764Y-74907D01*
X90686Y-75122D01*
X90696Y-75350D01*
X90764Y-75512D01*
X90844Y-75561D01*
X91195Y-75210D01*
X91195Y-75351D01*
X90914Y-75631D01*
X90963Y-75711D01*
X91178Y-75789D01*
X91406Y-75779D01*
X91568Y-75711D01*
X91617Y-75631D01*
X91617Y-75950D01*
X90575Y-75950D01*
X90575Y-68435D01*
X90525Y-68316D01*
X90450Y-68240D01*
X90450Y-67759D01*
X90525Y-67684D01*
X90574Y-67564D01*
X90575Y-67435D01*
X90525Y-67316D01*
X90434Y-67224D01*
X90314Y-67175D01*
X90185Y-67174D01*
X90075Y-67220D01*
X90075Y-62435D01*
X90025Y-62316D01*
X89950Y-62240D01*
X89950Y-61500D01*
X89937Y-61436D01*
X89934Y-61423D01*
X89934Y-61423D01*
X89891Y-61358D01*
X89450Y-60917D01*
X89450Y-60877D01*
X89490Y-60860D01*
X89610Y-60741D01*
X89674Y-60584D01*
X89675Y-60415D01*
X89610Y-60259D01*
X89491Y-60139D01*
X89334Y-60075D01*
X89165Y-60074D01*
X89009Y-60139D01*
X88889Y-60258D01*
X88825Y-60415D01*
X88824Y-60584D01*
X88889Y-60740D01*
X89008Y-60860D01*
X89050Y-60877D01*
X89050Y-61000D01*
X89065Y-61076D01*
X89108Y-61141D01*
X89550Y-61582D01*
X89550Y-62240D01*
X89474Y-62315D01*
X89425Y-62435D01*
X89424Y-62564D01*
X89474Y-62683D01*
X89565Y-62775D01*
X89685Y-62824D01*
X89814Y-62825D01*
X89933Y-62775D01*
X90025Y-62684D01*
X90074Y-62564D01*
X90075Y-62435D01*
X90075Y-67220D01*
X90066Y-67224D01*
X89974Y-67315D01*
X89925Y-67435D01*
X89924Y-67564D01*
X89974Y-67683D01*
X90050Y-67759D01*
X90050Y-68240D01*
X89974Y-68315D01*
X89925Y-68435D01*
X89924Y-68564D01*
X89974Y-68683D01*
X90065Y-68775D01*
X90185Y-68824D01*
X90314Y-68825D01*
X90433Y-68775D01*
X90525Y-68684D01*
X90574Y-68564D01*
X90575Y-68435D01*
X90575Y-75950D01*
X89675Y-75950D01*
X89675Y-63415D01*
X89610Y-63259D01*
X89491Y-63139D01*
X89334Y-63075D01*
X89165Y-63074D01*
X89009Y-63139D01*
X88950Y-63198D01*
X88950Y-62759D01*
X89025Y-62684D01*
X89074Y-62564D01*
X89075Y-62435D01*
X89025Y-62316D01*
X88934Y-62224D01*
X88814Y-62175D01*
X88705Y-62174D01*
X88705Y-57807D01*
X88692Y-57629D01*
X88648Y-57522D01*
X88581Y-57489D01*
X88510Y-57560D01*
X88510Y-57418D01*
X88477Y-57351D01*
X88307Y-57294D01*
X88129Y-57307D01*
X88022Y-57351D01*
X87989Y-57418D01*
X88250Y-57679D01*
X88510Y-57418D01*
X88510Y-57560D01*
X88320Y-57750D01*
X88581Y-58010D01*
X88648Y-57977D01*
X88705Y-57807D01*
X88705Y-62174D01*
X88685Y-62174D01*
X88566Y-62224D01*
X88474Y-62315D01*
X88425Y-62435D01*
X88424Y-62564D01*
X88474Y-62683D01*
X88550Y-62759D01*
X88550Y-63198D01*
X88491Y-63139D01*
X88334Y-63075D01*
X88165Y-63074D01*
X88009Y-63139D01*
X87950Y-63198D01*
X87950Y-60801D01*
X88008Y-60860D01*
X88165Y-60924D01*
X88334Y-60925D01*
X88490Y-60860D01*
X88610Y-60741D01*
X88674Y-60584D01*
X88675Y-60415D01*
X88610Y-60259D01*
X88491Y-60139D01*
X88334Y-60075D01*
X88207Y-60074D01*
X88391Y-59891D01*
X88434Y-59826D01*
X88434Y-59826D01*
X88437Y-59813D01*
X88449Y-59750D01*
X88450Y-59750D01*
X88450Y-59154D01*
X88504Y-59131D01*
X88631Y-59005D01*
X88699Y-58839D01*
X88700Y-58660D01*
X88631Y-58495D01*
X88510Y-58373D01*
X88510Y-58081D01*
X88250Y-57820D01*
X88179Y-57891D01*
X88179Y-57750D01*
X87918Y-57489D01*
X87851Y-57522D01*
X87794Y-57692D01*
X87807Y-57870D01*
X87851Y-57977D01*
X87918Y-58010D01*
X88179Y-57750D01*
X88179Y-57891D01*
X87989Y-58081D01*
X88022Y-58148D01*
X88192Y-58205D01*
X88370Y-58192D01*
X88477Y-58148D01*
X88510Y-58081D01*
X88510Y-58373D01*
X88505Y-58368D01*
X88339Y-58300D01*
X88160Y-58299D01*
X87995Y-58368D01*
X87950Y-58413D01*
X87950Y-58250D01*
X87937Y-58186D01*
X87934Y-58173D01*
X87934Y-58173D01*
X87891Y-58108D01*
X87677Y-57894D01*
X87699Y-57839D01*
X87700Y-57660D01*
X87631Y-57495D01*
X87505Y-57368D01*
X87339Y-57300D01*
X87160Y-57299D01*
X86995Y-57368D01*
X86868Y-57494D01*
X86800Y-57660D01*
X86799Y-57839D01*
X86868Y-58004D01*
X86994Y-58131D01*
X87160Y-58199D01*
X87339Y-58200D01*
X87394Y-58177D01*
X87550Y-58332D01*
X87550Y-58413D01*
X87505Y-58368D01*
X87339Y-58300D01*
X87160Y-58299D01*
X87105Y-58322D01*
X86891Y-58108D01*
X86826Y-58065D01*
X86750Y-58050D01*
X86586Y-58050D01*
X86631Y-58005D01*
X86699Y-57839D01*
X86700Y-57660D01*
X86631Y-57495D01*
X86505Y-57368D01*
X86339Y-57300D01*
X86160Y-57299D01*
X85995Y-57368D01*
X85868Y-57494D01*
X85800Y-57660D01*
X85799Y-57839D01*
X85868Y-58004D01*
X85913Y-58050D01*
X85750Y-58050D01*
X85686Y-58062D01*
X85673Y-58065D01*
X85608Y-58108D01*
X85175Y-58542D01*
X85175Y-57665D01*
X85110Y-57509D01*
X84991Y-57389D01*
X84834Y-57325D01*
X84665Y-57324D01*
X84509Y-57389D01*
X84389Y-57508D01*
X84325Y-57665D01*
X84324Y-57834D01*
X84389Y-57990D01*
X84508Y-58110D01*
X84665Y-58174D01*
X84834Y-58175D01*
X84990Y-58110D01*
X85110Y-57991D01*
X85174Y-57834D01*
X85175Y-57665D01*
X85175Y-58542D01*
X85108Y-58608D01*
X85065Y-58673D01*
X85050Y-58750D01*
X85050Y-60122D01*
X85009Y-60139D01*
X84889Y-60258D01*
X84825Y-60415D01*
X84824Y-60584D01*
X84889Y-60740D01*
X85008Y-60860D01*
X85165Y-60924D01*
X85334Y-60925D01*
X85490Y-60860D01*
X85610Y-60741D01*
X85674Y-60584D01*
X85675Y-60415D01*
X85610Y-60259D01*
X85491Y-60139D01*
X85450Y-60122D01*
X85450Y-58832D01*
X85799Y-58482D01*
X85799Y-59079D01*
X85822Y-59134D01*
X85864Y-59177D01*
X85920Y-59199D01*
X85979Y-59200D01*
X86050Y-59200D01*
X86050Y-60122D01*
X86009Y-60139D01*
X85889Y-60258D01*
X85825Y-60415D01*
X85824Y-60584D01*
X85889Y-60740D01*
X86008Y-60860D01*
X86165Y-60924D01*
X86334Y-60925D01*
X86490Y-60860D01*
X86610Y-60741D01*
X86674Y-60584D01*
X86675Y-60415D01*
X86610Y-60259D01*
X86491Y-60139D01*
X86450Y-60122D01*
X86450Y-59200D01*
X86579Y-59200D01*
X86634Y-59177D01*
X86677Y-59135D01*
X86699Y-59079D01*
X86700Y-59020D01*
X86700Y-58482D01*
X86822Y-58605D01*
X86800Y-58660D01*
X86799Y-58839D01*
X86868Y-59004D01*
X86994Y-59131D01*
X87160Y-59199D01*
X87339Y-59200D01*
X87504Y-59131D01*
X87550Y-59086D01*
X87550Y-59667D01*
X87125Y-60091D01*
X87009Y-60139D01*
X86889Y-60258D01*
X86825Y-60415D01*
X86824Y-60584D01*
X86889Y-60740D01*
X87008Y-60860D01*
X87165Y-60924D01*
X87334Y-60925D01*
X87490Y-60860D01*
X87550Y-60801D01*
X87550Y-61374D01*
X87525Y-61316D01*
X87434Y-61224D01*
X87314Y-61175D01*
X87185Y-61174D01*
X87066Y-61224D01*
X86999Y-61290D01*
X86934Y-61224D01*
X86814Y-61175D01*
X86685Y-61174D01*
X86566Y-61224D01*
X86474Y-61315D01*
X86425Y-61435D01*
X86424Y-61564D01*
X86474Y-61683D01*
X86550Y-61759D01*
X86550Y-63198D01*
X86491Y-63139D01*
X86334Y-63075D01*
X86165Y-63074D01*
X86009Y-63139D01*
X85889Y-63258D01*
X85825Y-63415D01*
X85824Y-63584D01*
X85889Y-63740D01*
X86008Y-63860D01*
X86050Y-63877D01*
X86050Y-65124D01*
X86025Y-65066D01*
X85934Y-64974D01*
X85814Y-64925D01*
X85685Y-64924D01*
X85675Y-64929D01*
X85675Y-63415D01*
X85610Y-63259D01*
X85491Y-63139D01*
X85334Y-63075D01*
X85165Y-63074D01*
X85009Y-63139D01*
X84889Y-63258D01*
X84825Y-63415D01*
X84824Y-63584D01*
X84889Y-63740D01*
X85008Y-63860D01*
X85165Y-63924D01*
X85334Y-63925D01*
X85490Y-63860D01*
X85610Y-63741D01*
X85674Y-63584D01*
X85675Y-63415D01*
X85675Y-64929D01*
X85566Y-64974D01*
X85474Y-65065D01*
X85425Y-65185D01*
X85424Y-65314D01*
X85474Y-65433D01*
X85550Y-65509D01*
X85550Y-66490D01*
X85474Y-66565D01*
X85425Y-66685D01*
X85424Y-66814D01*
X85474Y-66933D01*
X85565Y-67025D01*
X85685Y-67074D01*
X85814Y-67075D01*
X85933Y-67025D01*
X86025Y-66934D01*
X86050Y-66875D01*
X86050Y-66917D01*
X84700Y-68267D01*
X84700Y-65910D01*
X84631Y-65745D01*
X84505Y-65618D01*
X84339Y-65550D01*
X84160Y-65549D01*
X83995Y-65618D01*
X83950Y-65663D01*
X83950Y-63801D01*
X84008Y-63860D01*
X84165Y-63924D01*
X84334Y-63925D01*
X84490Y-63860D01*
X84610Y-63741D01*
X84674Y-63584D01*
X84675Y-63415D01*
X84675Y-60415D01*
X84610Y-60259D01*
X84491Y-60139D01*
X84334Y-60075D01*
X84180Y-60074D01*
X84180Y-57801D01*
X84167Y-57633D01*
X84127Y-57537D01*
X84063Y-57507D01*
X83992Y-57578D01*
X83992Y-57436D01*
X83962Y-57372D01*
X83801Y-57319D01*
X83633Y-57332D01*
X83537Y-57372D01*
X83507Y-57436D01*
X83750Y-57679D01*
X83992Y-57436D01*
X83992Y-57578D01*
X83820Y-57750D01*
X84063Y-57992D01*
X84127Y-57962D01*
X84180Y-57801D01*
X84180Y-60074D01*
X84165Y-60074D01*
X84009Y-60139D01*
X83992Y-60156D01*
X83992Y-58063D01*
X83750Y-57820D01*
X83679Y-57891D01*
X83679Y-57750D01*
X83436Y-57507D01*
X83372Y-57537D01*
X83319Y-57698D01*
X83332Y-57866D01*
X83372Y-57962D01*
X83436Y-57992D01*
X83679Y-57750D01*
X83679Y-57891D01*
X83507Y-58063D01*
X83537Y-58127D01*
X83698Y-58180D01*
X83866Y-58167D01*
X83962Y-58127D01*
X83992Y-58063D01*
X83992Y-60156D01*
X83889Y-60258D01*
X83825Y-60415D01*
X83824Y-60584D01*
X83889Y-60740D01*
X84008Y-60860D01*
X84165Y-60924D01*
X84334Y-60925D01*
X84490Y-60860D01*
X84610Y-60741D01*
X84674Y-60584D01*
X84675Y-60415D01*
X84675Y-63415D01*
X84610Y-63259D01*
X84491Y-63139D01*
X84334Y-63075D01*
X84165Y-63074D01*
X84009Y-63139D01*
X83950Y-63198D01*
X83950Y-61509D01*
X84025Y-61434D01*
X84074Y-61314D01*
X84075Y-61185D01*
X84025Y-61066D01*
X83934Y-60974D01*
X83814Y-60925D01*
X83685Y-60924D01*
X83675Y-60929D01*
X83675Y-60415D01*
X83610Y-60259D01*
X83491Y-60139D01*
X83334Y-60075D01*
X83165Y-60074D01*
X83009Y-60139D01*
X82889Y-60258D01*
X82825Y-60415D01*
X82824Y-60584D01*
X82889Y-60740D01*
X83008Y-60860D01*
X83165Y-60924D01*
X83334Y-60925D01*
X83490Y-60860D01*
X83610Y-60741D01*
X83674Y-60584D01*
X83675Y-60415D01*
X83675Y-60929D01*
X83566Y-60974D01*
X83474Y-61065D01*
X83425Y-61185D01*
X83424Y-61314D01*
X83474Y-61433D01*
X83550Y-61509D01*
X83550Y-63188D01*
X83485Y-63123D01*
X83470Y-63138D01*
X83462Y-63122D01*
X83301Y-63069D01*
X83133Y-63082D01*
X83037Y-63122D01*
X83007Y-63186D01*
X83214Y-63393D01*
X83214Y-63393D01*
X83250Y-63429D01*
X83320Y-63500D01*
X83250Y-63570D01*
X83214Y-63606D01*
X83179Y-63641D01*
X83179Y-63500D01*
X82936Y-63257D01*
X82872Y-63287D01*
X82819Y-63448D01*
X82832Y-63616D01*
X82872Y-63712D01*
X82936Y-63742D01*
X83179Y-63500D01*
X83179Y-63641D01*
X83007Y-63813D01*
X83037Y-63877D01*
X83198Y-63930D01*
X83366Y-63917D01*
X83462Y-63877D01*
X83470Y-63861D01*
X83485Y-63876D01*
X83492Y-63869D01*
X83550Y-63811D01*
X83550Y-70990D01*
X83492Y-71048D01*
X83474Y-71065D01*
X83425Y-71185D01*
X83424Y-71314D01*
X83474Y-71433D01*
X83565Y-71525D01*
X83685Y-71574D01*
X83814Y-71575D01*
X83933Y-71525D01*
X84025Y-71434D01*
X84074Y-71314D01*
X84075Y-71185D01*
X84025Y-71066D01*
X83950Y-70990D01*
X83950Y-66336D01*
X83994Y-66381D01*
X84160Y-66449D01*
X84339Y-66450D01*
X84504Y-66381D01*
X84631Y-66255D01*
X84699Y-66089D01*
X84700Y-65910D01*
X84700Y-68267D01*
X84608Y-68358D01*
X84565Y-68423D01*
X84550Y-68500D01*
X84550Y-73490D01*
X84474Y-73565D01*
X84425Y-73685D01*
X84424Y-73814D01*
X84474Y-73933D01*
X84565Y-74025D01*
X84685Y-74074D01*
X84814Y-74075D01*
X84933Y-74025D01*
X85025Y-73934D01*
X85074Y-73814D01*
X85075Y-73685D01*
X85025Y-73566D01*
X84950Y-73490D01*
X84950Y-68582D01*
X86391Y-67141D01*
X86391Y-67141D01*
X86420Y-67098D01*
X86434Y-67076D01*
X86434Y-67076D01*
X86449Y-67000D01*
X86450Y-67000D01*
X86450Y-66336D01*
X86494Y-66381D01*
X86660Y-66449D01*
X86839Y-66450D01*
X87004Y-66381D01*
X87131Y-66255D01*
X87199Y-66089D01*
X87200Y-65910D01*
X87131Y-65745D01*
X87005Y-65618D01*
X86857Y-65557D01*
X86933Y-65525D01*
X87025Y-65434D01*
X87074Y-65314D01*
X87075Y-65185D01*
X87025Y-65066D01*
X86950Y-64990D01*
X86950Y-63801D01*
X87008Y-63860D01*
X87165Y-63924D01*
X87334Y-63925D01*
X87490Y-63860D01*
X87550Y-63801D01*
X87550Y-64240D01*
X87474Y-64315D01*
X87425Y-64435D01*
X87424Y-64564D01*
X87474Y-64683D01*
X87565Y-64775D01*
X87685Y-64824D01*
X87814Y-64825D01*
X87933Y-64775D01*
X88025Y-64684D01*
X88050Y-64625D01*
X88050Y-65740D01*
X87974Y-65815D01*
X87925Y-65935D01*
X87924Y-66064D01*
X87974Y-66183D01*
X88065Y-66275D01*
X88185Y-66324D01*
X88314Y-66325D01*
X88433Y-66275D01*
X88525Y-66184D01*
X88574Y-66064D01*
X88575Y-65935D01*
X88525Y-65816D01*
X88450Y-65740D01*
X88450Y-65125D01*
X88474Y-65183D01*
X88565Y-65275D01*
X88685Y-65324D01*
X88814Y-65325D01*
X88933Y-65275D01*
X89025Y-65184D01*
X89050Y-65125D01*
X89050Y-72490D01*
X88974Y-72565D01*
X88925Y-72685D01*
X88924Y-72814D01*
X88974Y-72933D01*
X89065Y-73025D01*
X89185Y-73074D01*
X89314Y-73075D01*
X89433Y-73025D01*
X89525Y-72934D01*
X89574Y-72814D01*
X89575Y-72685D01*
X89525Y-72566D01*
X89450Y-72490D01*
X89450Y-63877D01*
X89490Y-63860D01*
X89610Y-63741D01*
X89674Y-63584D01*
X89675Y-63415D01*
X89675Y-75950D01*
X88559Y-75950D01*
X88559Y-75096D01*
X88471Y-74884D01*
X88310Y-74722D01*
X88184Y-74670D01*
X88184Y-70829D01*
X88309Y-70777D01*
X88471Y-70616D01*
X88558Y-70404D01*
X88559Y-70176D01*
X88471Y-69964D01*
X88310Y-69802D01*
X88098Y-69715D01*
X87870Y-69714D01*
X87658Y-69802D01*
X87496Y-69963D01*
X87480Y-70004D01*
X87480Y-68404D01*
X87480Y-67404D01*
X87407Y-67228D01*
X87272Y-67093D01*
X87095Y-67020D01*
X86904Y-67019D01*
X86728Y-67092D01*
X86593Y-67227D01*
X86520Y-67404D01*
X86519Y-67595D01*
X86592Y-67771D01*
X86727Y-67906D01*
X86904Y-67979D01*
X87095Y-67980D01*
X87271Y-67907D01*
X87406Y-67772D01*
X87479Y-67595D01*
X87480Y-67404D01*
X87480Y-68404D01*
X87407Y-68228D01*
X87272Y-68093D01*
X87095Y-68020D01*
X86904Y-68019D01*
X86728Y-68092D01*
X86593Y-68227D01*
X86520Y-68404D01*
X86519Y-68595D01*
X86592Y-68771D01*
X86727Y-68906D01*
X86904Y-68979D01*
X87095Y-68980D01*
X87271Y-68907D01*
X87406Y-68772D01*
X87479Y-68595D01*
X87480Y-68404D01*
X87480Y-70004D01*
X87409Y-70175D01*
X87408Y-70403D01*
X87496Y-70615D01*
X87657Y-70777D01*
X87784Y-70829D01*
X87784Y-74670D01*
X87658Y-74722D01*
X87496Y-74883D01*
X87409Y-75095D01*
X87408Y-75323D01*
X87496Y-75535D01*
X87657Y-75697D01*
X87869Y-75784D01*
X88097Y-75785D01*
X88309Y-75697D01*
X88471Y-75536D01*
X88558Y-75324D01*
X88559Y-75096D01*
X88559Y-75950D01*
X86595Y-75950D01*
X86595Y-75297D01*
X86595Y-70377D01*
X86585Y-70149D01*
X86517Y-69987D01*
X86437Y-69938D01*
X86367Y-70009D01*
X86367Y-69868D01*
X86318Y-69788D01*
X86103Y-69710D01*
X85875Y-69720D01*
X85713Y-69788D01*
X85664Y-69868D01*
X86016Y-70219D01*
X86367Y-69868D01*
X86367Y-70009D01*
X86086Y-70290D01*
X86437Y-70641D01*
X86517Y-70592D01*
X86595Y-70377D01*
X86595Y-75297D01*
X86585Y-75069D01*
X86517Y-74907D01*
X86437Y-74858D01*
X86367Y-74929D01*
X86367Y-74788D01*
X86367Y-70711D01*
X86016Y-70360D01*
X85945Y-70431D01*
X85945Y-70290D01*
X85594Y-69938D01*
X85514Y-69987D01*
X85436Y-70202D01*
X85446Y-70430D01*
X85514Y-70592D01*
X85594Y-70641D01*
X85945Y-70290D01*
X85945Y-70431D01*
X85664Y-70711D01*
X85713Y-70791D01*
X85928Y-70869D01*
X86156Y-70859D01*
X86318Y-70791D01*
X86367Y-70711D01*
X86367Y-74788D01*
X86318Y-74708D01*
X86103Y-74630D01*
X85875Y-74640D01*
X85713Y-74708D01*
X85664Y-74788D01*
X86016Y-75139D01*
X86367Y-74788D01*
X86367Y-74929D01*
X86086Y-75210D01*
X86437Y-75561D01*
X86517Y-75512D01*
X86595Y-75297D01*
X86595Y-75950D01*
X86367Y-75950D01*
X86367Y-75631D01*
X86016Y-75280D01*
X85945Y-75351D01*
X85945Y-75210D01*
X85594Y-74858D01*
X85514Y-74907D01*
X85436Y-75122D01*
X85446Y-75350D01*
X85514Y-75512D01*
X85594Y-75561D01*
X85945Y-75210D01*
X85945Y-75351D01*
X85664Y-75631D01*
X85713Y-75711D01*
X85928Y-75789D01*
X86156Y-75779D01*
X86318Y-75711D01*
X86367Y-75631D01*
X86367Y-75950D01*
X83309Y-75950D01*
X83309Y-75096D01*
X83221Y-74884D01*
X83060Y-74722D01*
X82934Y-74670D01*
X82934Y-70829D01*
X83059Y-70777D01*
X83221Y-70616D01*
X83308Y-70404D01*
X83309Y-70176D01*
X83221Y-69964D01*
X83060Y-69802D01*
X82934Y-69750D01*
X82934Y-65275D01*
X83025Y-65184D01*
X83074Y-65064D01*
X83075Y-64935D01*
X83025Y-64816D01*
X82934Y-64724D01*
X82814Y-64675D01*
X82685Y-64674D01*
X82680Y-64677D01*
X82680Y-60551D01*
X82667Y-60383D01*
X82627Y-60287D01*
X82563Y-60257D01*
X82492Y-60328D01*
X82492Y-60186D01*
X82462Y-60122D01*
X82301Y-60069D01*
X82133Y-60082D01*
X82037Y-60122D01*
X82007Y-60186D01*
X82250Y-60429D01*
X82492Y-60186D01*
X82492Y-60328D01*
X82320Y-60500D01*
X82563Y-60742D01*
X82627Y-60712D01*
X82680Y-60551D01*
X82680Y-64677D01*
X82675Y-64679D01*
X82675Y-63415D01*
X82610Y-63259D01*
X82492Y-63141D01*
X82492Y-60813D01*
X82250Y-60570D01*
X82179Y-60641D01*
X82179Y-60500D01*
X81936Y-60257D01*
X81872Y-60287D01*
X81819Y-60448D01*
X81832Y-60616D01*
X81872Y-60712D01*
X81936Y-60742D01*
X82179Y-60500D01*
X82179Y-60641D01*
X82007Y-60813D01*
X82037Y-60877D01*
X82198Y-60930D01*
X82366Y-60917D01*
X82462Y-60877D01*
X82492Y-60813D01*
X82492Y-63141D01*
X82491Y-63139D01*
X82334Y-63075D01*
X82165Y-63074D01*
X82009Y-63139D01*
X81889Y-63258D01*
X81825Y-63415D01*
X81824Y-63584D01*
X81889Y-63740D01*
X82008Y-63860D01*
X82165Y-63924D01*
X82334Y-63925D01*
X82490Y-63860D01*
X82610Y-63741D01*
X82674Y-63584D01*
X82675Y-63415D01*
X82675Y-64679D01*
X82566Y-64724D01*
X82474Y-64815D01*
X82425Y-64935D01*
X82424Y-65064D01*
X82474Y-65183D01*
X82534Y-65243D01*
X82534Y-69750D01*
X82408Y-69802D01*
X82246Y-69963D01*
X82235Y-69992D01*
X82235Y-67565D01*
X82223Y-67374D01*
X82173Y-67254D01*
X82102Y-67217D01*
X82032Y-67288D01*
X82032Y-67147D01*
X81995Y-67076D01*
X81815Y-67014D01*
X81675Y-67023D01*
X81675Y-63415D01*
X81675Y-60415D01*
X81610Y-60259D01*
X81491Y-60139D01*
X81334Y-60075D01*
X81165Y-60074D01*
X81009Y-60139D01*
X80889Y-60258D01*
X80825Y-60415D01*
X80824Y-60584D01*
X80889Y-60740D01*
X81008Y-60860D01*
X81050Y-60877D01*
X81050Y-60990D01*
X80974Y-61065D01*
X80925Y-61185D01*
X80924Y-61314D01*
X80974Y-61433D01*
X81065Y-61525D01*
X81185Y-61574D01*
X81314Y-61575D01*
X81433Y-61525D01*
X81525Y-61434D01*
X81574Y-61314D01*
X81575Y-61185D01*
X81525Y-61066D01*
X81450Y-60990D01*
X81450Y-60877D01*
X81490Y-60860D01*
X81610Y-60741D01*
X81674Y-60584D01*
X81675Y-60415D01*
X81675Y-63415D01*
X81610Y-63259D01*
X81491Y-63139D01*
X81334Y-63075D01*
X81165Y-63074D01*
X81009Y-63139D01*
X80889Y-63258D01*
X80825Y-63415D01*
X80824Y-63584D01*
X80889Y-63740D01*
X81008Y-63860D01*
X81050Y-63877D01*
X81050Y-66417D01*
X80705Y-66762D01*
X80705Y-66057D01*
X80692Y-65879D01*
X80675Y-65836D01*
X80675Y-63415D01*
X80675Y-60415D01*
X80610Y-60259D01*
X80491Y-60139D01*
X80334Y-60075D01*
X80165Y-60074D01*
X80009Y-60139D01*
X79889Y-60258D01*
X79825Y-60415D01*
X79824Y-60584D01*
X79889Y-60740D01*
X80008Y-60860D01*
X80050Y-60877D01*
X80050Y-61240D01*
X79974Y-61315D01*
X79925Y-61435D01*
X79924Y-61564D01*
X79974Y-61683D01*
X80065Y-61775D01*
X80185Y-61824D01*
X80314Y-61825D01*
X80433Y-61775D01*
X80525Y-61684D01*
X80574Y-61564D01*
X80575Y-61435D01*
X80525Y-61316D01*
X80450Y-61240D01*
X80450Y-60877D01*
X80490Y-60860D01*
X80610Y-60741D01*
X80674Y-60584D01*
X80675Y-60415D01*
X80675Y-63415D01*
X80610Y-63259D01*
X80491Y-63139D01*
X80334Y-63075D01*
X80165Y-63074D01*
X80009Y-63139D01*
X79889Y-63258D01*
X79825Y-63415D01*
X79824Y-63584D01*
X79889Y-63740D01*
X80008Y-63860D01*
X80050Y-63877D01*
X80050Y-64500D01*
X80050Y-64740D01*
X79974Y-64815D01*
X79925Y-64935D01*
X79924Y-65064D01*
X79974Y-65183D01*
X80065Y-65275D01*
X80185Y-65324D01*
X80314Y-65325D01*
X80433Y-65275D01*
X80525Y-65184D01*
X80574Y-65064D01*
X80575Y-64935D01*
X80525Y-64816D01*
X80450Y-64740D01*
X80450Y-64500D01*
X80450Y-63877D01*
X80490Y-63860D01*
X80610Y-63741D01*
X80674Y-63584D01*
X80675Y-63415D01*
X80675Y-65836D01*
X80648Y-65772D01*
X80581Y-65739D01*
X80510Y-65810D01*
X80510Y-65668D01*
X80477Y-65601D01*
X80307Y-65544D01*
X80129Y-65557D01*
X80022Y-65601D01*
X79989Y-65668D01*
X80250Y-65929D01*
X80510Y-65668D01*
X80510Y-65810D01*
X80320Y-66000D01*
X80581Y-66260D01*
X80648Y-66227D01*
X80705Y-66057D01*
X80705Y-66762D01*
X80510Y-66956D01*
X80510Y-66331D01*
X80250Y-66070D01*
X80179Y-66141D01*
X80179Y-66000D01*
X79918Y-65739D01*
X79851Y-65772D01*
X79794Y-65942D01*
X79807Y-66120D01*
X79851Y-66227D01*
X79918Y-66260D01*
X80179Y-66000D01*
X80179Y-66141D01*
X79989Y-66331D01*
X80022Y-66398D01*
X80192Y-66455D01*
X80370Y-66442D01*
X80477Y-66398D01*
X80510Y-66331D01*
X80510Y-66956D01*
X79608Y-67858D01*
X79565Y-67923D01*
X79550Y-68000D01*
X79550Y-73990D01*
X79474Y-74065D01*
X79450Y-74124D01*
X79450Y-63877D01*
X79490Y-63860D01*
X79610Y-63741D01*
X79674Y-63584D01*
X79675Y-63415D01*
X79610Y-63259D01*
X79491Y-63139D01*
X79334Y-63075D01*
X79165Y-63074D01*
X79009Y-63139D01*
X78950Y-63198D01*
X78950Y-62582D01*
X79391Y-62141D01*
X79434Y-62076D01*
X79434Y-62076D01*
X79437Y-62063D01*
X79449Y-62000D01*
X79450Y-62000D01*
X79450Y-60877D01*
X79490Y-60860D01*
X79610Y-60741D01*
X79674Y-60584D01*
X79675Y-60415D01*
X79610Y-60259D01*
X79491Y-60139D01*
X79334Y-60075D01*
X79165Y-60074D01*
X79009Y-60139D01*
X78889Y-60258D01*
X78825Y-60415D01*
X78824Y-60584D01*
X78889Y-60740D01*
X79008Y-60860D01*
X79050Y-60877D01*
X79050Y-61917D01*
X78675Y-62292D01*
X78675Y-60415D01*
X78610Y-60259D01*
X78491Y-60139D01*
X78334Y-60075D01*
X78165Y-60074D01*
X78009Y-60139D01*
X77889Y-60258D01*
X77825Y-60415D01*
X77824Y-60584D01*
X77889Y-60740D01*
X78008Y-60860D01*
X78165Y-60924D01*
X78334Y-60925D01*
X78490Y-60860D01*
X78610Y-60741D01*
X78674Y-60584D01*
X78675Y-60415D01*
X78675Y-62292D01*
X78608Y-62358D01*
X78565Y-62423D01*
X78550Y-62500D01*
X78550Y-63198D01*
X78491Y-63139D01*
X78334Y-63075D01*
X78165Y-63074D01*
X78009Y-63139D01*
X77889Y-63258D01*
X77825Y-63415D01*
X77824Y-63584D01*
X77889Y-63740D01*
X78008Y-63860D01*
X78050Y-63877D01*
X78050Y-65663D01*
X78005Y-65618D01*
X77839Y-65550D01*
X77660Y-65549D01*
X77495Y-65618D01*
X77450Y-65663D01*
X77450Y-63877D01*
X77490Y-63860D01*
X77610Y-63741D01*
X77674Y-63584D01*
X77675Y-63415D01*
X77675Y-60415D01*
X77610Y-60259D01*
X77491Y-60139D01*
X77334Y-60075D01*
X77165Y-60074D01*
X77009Y-60139D01*
X76889Y-60258D01*
X76825Y-60415D01*
X76824Y-60584D01*
X76889Y-60740D01*
X77008Y-60860D01*
X77050Y-60877D01*
X77050Y-61740D01*
X76974Y-61815D01*
X76925Y-61935D01*
X76924Y-62064D01*
X76974Y-62183D01*
X77065Y-62275D01*
X77185Y-62324D01*
X77314Y-62325D01*
X77433Y-62275D01*
X77525Y-62184D01*
X77574Y-62064D01*
X77575Y-61935D01*
X77525Y-61816D01*
X77450Y-61740D01*
X77450Y-60877D01*
X77490Y-60860D01*
X77610Y-60741D01*
X77674Y-60584D01*
X77675Y-60415D01*
X77675Y-63415D01*
X77610Y-63259D01*
X77491Y-63139D01*
X77334Y-63075D01*
X77165Y-63074D01*
X77009Y-63139D01*
X76889Y-63258D01*
X76825Y-63415D01*
X76824Y-63584D01*
X76889Y-63740D01*
X77008Y-63860D01*
X77050Y-63877D01*
X77050Y-68917D01*
X76980Y-68987D01*
X76980Y-68404D01*
X76980Y-67404D01*
X76907Y-67228D01*
X76772Y-67093D01*
X76675Y-67052D01*
X76675Y-60415D01*
X76610Y-60259D01*
X76491Y-60139D01*
X76334Y-60075D01*
X76165Y-60074D01*
X76009Y-60139D01*
X75889Y-60258D01*
X75825Y-60415D01*
X75824Y-60584D01*
X75889Y-60740D01*
X76008Y-60860D01*
X76050Y-60877D01*
X76050Y-62240D01*
X75974Y-62315D01*
X75925Y-62435D01*
X75924Y-62564D01*
X75974Y-62683D01*
X76065Y-62775D01*
X76185Y-62824D01*
X76314Y-62825D01*
X76433Y-62775D01*
X76525Y-62684D01*
X76574Y-62564D01*
X76575Y-62435D01*
X76525Y-62316D01*
X76450Y-62240D01*
X76450Y-60877D01*
X76490Y-60860D01*
X76610Y-60741D01*
X76674Y-60584D01*
X76675Y-60415D01*
X76675Y-67052D01*
X76675Y-67052D01*
X76675Y-63745D01*
X76675Y-63195D01*
X76652Y-63140D01*
X76610Y-63097D01*
X76554Y-63075D01*
X76495Y-63074D01*
X75945Y-63074D01*
X75890Y-63097D01*
X75847Y-63139D01*
X75825Y-63194D01*
X75825Y-61185D01*
X75775Y-61066D01*
X75684Y-60974D01*
X75564Y-60925D01*
X75435Y-60924D01*
X75316Y-60974D01*
X75224Y-61065D01*
X75175Y-61185D01*
X75174Y-61314D01*
X75224Y-61433D01*
X75300Y-61509D01*
X75300Y-68167D01*
X75292Y-68175D01*
X75185Y-68174D01*
X75066Y-68224D01*
X74974Y-68315D01*
X74950Y-68374D01*
X74950Y-62410D01*
X74950Y-58410D01*
X74881Y-58245D01*
X74755Y-58118D01*
X74589Y-58050D01*
X74410Y-58049D01*
X74245Y-58118D01*
X74118Y-58244D01*
X74050Y-58410D01*
X74049Y-58589D01*
X74118Y-58754D01*
X74244Y-58881D01*
X74410Y-58949D01*
X74589Y-58950D01*
X74754Y-58881D01*
X74881Y-58755D01*
X74949Y-58589D01*
X74950Y-58410D01*
X74950Y-62410D01*
X74881Y-62245D01*
X74755Y-62118D01*
X74589Y-62050D01*
X74410Y-62049D01*
X74245Y-62118D01*
X74118Y-62244D01*
X74050Y-62410D01*
X74049Y-62589D01*
X74118Y-62754D01*
X74244Y-62881D01*
X74410Y-62949D01*
X74589Y-62950D01*
X74754Y-62881D01*
X74881Y-62755D01*
X74949Y-62589D01*
X74950Y-62410D01*
X74950Y-68374D01*
X74925Y-68435D01*
X74924Y-68564D01*
X74974Y-68683D01*
X75065Y-68775D01*
X75185Y-68824D01*
X75314Y-68825D01*
X75433Y-68775D01*
X75525Y-68684D01*
X75574Y-68564D01*
X75575Y-68457D01*
X75641Y-68391D01*
X75641Y-68391D01*
X75670Y-68348D01*
X75684Y-68326D01*
X75684Y-68326D01*
X75699Y-68250D01*
X75700Y-68250D01*
X75700Y-61509D01*
X75775Y-61434D01*
X75824Y-61314D01*
X75825Y-61185D01*
X75825Y-63194D01*
X75825Y-63195D01*
X75824Y-63254D01*
X75824Y-63804D01*
X75847Y-63859D01*
X75889Y-63902D01*
X75945Y-63924D01*
X76004Y-63925D01*
X76050Y-63925D01*
X76050Y-65740D01*
X75974Y-65815D01*
X75925Y-65935D01*
X75924Y-66064D01*
X75974Y-66183D01*
X76065Y-66275D01*
X76185Y-66324D01*
X76314Y-66325D01*
X76433Y-66275D01*
X76525Y-66184D01*
X76574Y-66064D01*
X76575Y-65935D01*
X76525Y-65816D01*
X76450Y-65740D01*
X76450Y-63925D01*
X76554Y-63925D01*
X76609Y-63902D01*
X76652Y-63860D01*
X76674Y-63804D01*
X76675Y-63745D01*
X76675Y-67052D01*
X76595Y-67020D01*
X76404Y-67019D01*
X76228Y-67092D01*
X76093Y-67227D01*
X76020Y-67404D01*
X76019Y-67595D01*
X76092Y-67771D01*
X76227Y-67906D01*
X76404Y-67979D01*
X76595Y-67980D01*
X76771Y-67907D01*
X76906Y-67772D01*
X76979Y-67595D01*
X76980Y-67404D01*
X76980Y-68404D01*
X76907Y-68228D01*
X76772Y-68093D01*
X76595Y-68020D01*
X76404Y-68019D01*
X76228Y-68092D01*
X76093Y-68227D01*
X76020Y-68404D01*
X76019Y-68595D01*
X76092Y-68771D01*
X76227Y-68906D01*
X76404Y-68979D01*
X76595Y-68980D01*
X76771Y-68907D01*
X76906Y-68772D01*
X76979Y-68595D01*
X76980Y-68404D01*
X76980Y-68987D01*
X76358Y-69608D01*
X76315Y-69673D01*
X76300Y-69750D01*
X76300Y-70740D01*
X76224Y-70815D01*
X76175Y-70935D01*
X76174Y-71064D01*
X76224Y-71183D01*
X76315Y-71275D01*
X76435Y-71324D01*
X76564Y-71325D01*
X76683Y-71275D01*
X76775Y-71184D01*
X76824Y-71064D01*
X76825Y-70935D01*
X76775Y-70816D01*
X76700Y-70740D01*
X76700Y-69832D01*
X77391Y-69141D01*
X77391Y-69141D01*
X77420Y-69098D01*
X77434Y-69076D01*
X77434Y-69076D01*
X77449Y-69000D01*
X77450Y-69000D01*
X77450Y-66336D01*
X77494Y-66381D01*
X77660Y-66449D01*
X77839Y-66450D01*
X78004Y-66381D01*
X78050Y-66336D01*
X78050Y-70154D01*
X77971Y-69964D01*
X77810Y-69802D01*
X77598Y-69715D01*
X77370Y-69714D01*
X77158Y-69802D01*
X76996Y-69963D01*
X76909Y-70175D01*
X76908Y-70403D01*
X76996Y-70615D01*
X77157Y-70777D01*
X77284Y-70829D01*
X77284Y-74670D01*
X77158Y-74722D01*
X76996Y-74883D01*
X76909Y-75095D01*
X76908Y-75323D01*
X76996Y-75535D01*
X77157Y-75697D01*
X77369Y-75784D01*
X77597Y-75785D01*
X77809Y-75697D01*
X77971Y-75536D01*
X78058Y-75324D01*
X78059Y-75096D01*
X77971Y-74884D01*
X77810Y-74722D01*
X77684Y-74670D01*
X77684Y-70829D01*
X77809Y-70777D01*
X77971Y-70616D01*
X78050Y-70426D01*
X78050Y-71240D01*
X77974Y-71315D01*
X77925Y-71435D01*
X77924Y-71564D01*
X77974Y-71683D01*
X78065Y-71775D01*
X78185Y-71824D01*
X78314Y-71825D01*
X78433Y-71775D01*
X78525Y-71684D01*
X78574Y-71564D01*
X78575Y-71435D01*
X78525Y-71316D01*
X78450Y-71240D01*
X78450Y-68625D01*
X78474Y-68683D01*
X78565Y-68775D01*
X78685Y-68824D01*
X78814Y-68825D01*
X78933Y-68775D01*
X79025Y-68684D01*
X79050Y-68625D01*
X79050Y-74500D01*
X79050Y-74990D01*
X78974Y-75065D01*
X78925Y-75185D01*
X78924Y-75314D01*
X78974Y-75433D01*
X79065Y-75525D01*
X79185Y-75574D01*
X79314Y-75575D01*
X79433Y-75525D01*
X79525Y-75434D01*
X79574Y-75314D01*
X79575Y-75185D01*
X79525Y-75066D01*
X79450Y-74990D01*
X79450Y-74500D01*
X79450Y-74375D01*
X79474Y-74433D01*
X79565Y-74525D01*
X79685Y-74574D01*
X79814Y-74575D01*
X79933Y-74525D01*
X80025Y-74434D01*
X80074Y-74314D01*
X80075Y-74185D01*
X80025Y-74066D01*
X79950Y-73990D01*
X79950Y-68082D01*
X81391Y-66641D01*
X81391Y-66641D01*
X81420Y-66598D01*
X81434Y-66576D01*
X81434Y-66576D01*
X81449Y-66500D01*
X81450Y-66500D01*
X81450Y-63877D01*
X81490Y-63860D01*
X81610Y-63741D01*
X81674Y-63584D01*
X81675Y-63415D01*
X81675Y-67023D01*
X81624Y-67026D01*
X81504Y-67076D01*
X81467Y-67147D01*
X81750Y-67429D01*
X82032Y-67147D01*
X82032Y-67288D01*
X81820Y-67500D01*
X82102Y-67782D01*
X82173Y-67745D01*
X82235Y-67565D01*
X82235Y-69992D01*
X82230Y-70004D01*
X82230Y-68404D01*
X82157Y-68228D01*
X82032Y-68103D01*
X82032Y-67852D01*
X81750Y-67570D01*
X81679Y-67641D01*
X81679Y-67500D01*
X81397Y-67217D01*
X81326Y-67254D01*
X81264Y-67434D01*
X81276Y-67625D01*
X81326Y-67745D01*
X81397Y-67782D01*
X81679Y-67500D01*
X81679Y-67641D01*
X81467Y-67852D01*
X81504Y-67923D01*
X81684Y-67985D01*
X81875Y-67973D01*
X81995Y-67923D01*
X82032Y-67852D01*
X82032Y-68103D01*
X82022Y-68093D01*
X81845Y-68020D01*
X81654Y-68019D01*
X81478Y-68092D01*
X81343Y-68227D01*
X81270Y-68404D01*
X81269Y-68595D01*
X81342Y-68771D01*
X81477Y-68906D01*
X81654Y-68979D01*
X81845Y-68980D01*
X82021Y-68907D01*
X82156Y-68772D01*
X82229Y-68595D01*
X82230Y-68404D01*
X82230Y-70004D01*
X82159Y-70175D01*
X82158Y-70403D01*
X82246Y-70615D01*
X82407Y-70777D01*
X82534Y-70829D01*
X82534Y-74670D01*
X82408Y-74722D01*
X82246Y-74883D01*
X82159Y-75095D01*
X82158Y-75323D01*
X82246Y-75535D01*
X82407Y-75697D01*
X82619Y-75784D01*
X82847Y-75785D01*
X83059Y-75697D01*
X83221Y-75536D01*
X83308Y-75324D01*
X83309Y-75096D01*
X83309Y-75950D01*
X81345Y-75950D01*
X81345Y-75297D01*
X81345Y-70377D01*
X81335Y-70149D01*
X81267Y-69987D01*
X81187Y-69938D01*
X81117Y-70009D01*
X81117Y-69868D01*
X81068Y-69788D01*
X80853Y-69710D01*
X80625Y-69720D01*
X80463Y-69788D01*
X80414Y-69868D01*
X80766Y-70219D01*
X81117Y-69868D01*
X81117Y-70009D01*
X80836Y-70290D01*
X81187Y-70641D01*
X81267Y-70592D01*
X81345Y-70377D01*
X81345Y-75297D01*
X81335Y-75069D01*
X81267Y-74907D01*
X81187Y-74858D01*
X81117Y-74929D01*
X81117Y-74788D01*
X81117Y-70711D01*
X80766Y-70360D01*
X80695Y-70431D01*
X80695Y-70290D01*
X80344Y-69938D01*
X80264Y-69987D01*
X80186Y-70202D01*
X80196Y-70430D01*
X80264Y-70592D01*
X80344Y-70641D01*
X80695Y-70290D01*
X80695Y-70431D01*
X80414Y-70711D01*
X80463Y-70791D01*
X80678Y-70869D01*
X80906Y-70859D01*
X81068Y-70791D01*
X81117Y-70711D01*
X81117Y-74788D01*
X81068Y-74708D01*
X80853Y-74630D01*
X80625Y-74640D01*
X80463Y-74708D01*
X80414Y-74788D01*
X80766Y-75139D01*
X81117Y-74788D01*
X81117Y-74929D01*
X80836Y-75210D01*
X81187Y-75561D01*
X81267Y-75512D01*
X81345Y-75297D01*
X81345Y-75950D01*
X81117Y-75950D01*
X81117Y-75631D01*
X80766Y-75280D01*
X80695Y-75351D01*
X80695Y-75210D01*
X80344Y-74858D01*
X80264Y-74907D01*
X80186Y-75122D01*
X80196Y-75350D01*
X80264Y-75512D01*
X80344Y-75561D01*
X80695Y-75210D01*
X80695Y-75351D01*
X80414Y-75631D01*
X80463Y-75711D01*
X80678Y-75789D01*
X80906Y-75779D01*
X81068Y-75711D01*
X81117Y-75631D01*
X81117Y-75950D01*
X76095Y-75950D01*
X76095Y-75297D01*
X76095Y-70377D01*
X76085Y-70149D01*
X76017Y-69987D01*
X75937Y-69938D01*
X75867Y-70009D01*
X75867Y-69868D01*
X75818Y-69788D01*
X75603Y-69710D01*
X75375Y-69720D01*
X75213Y-69788D01*
X75164Y-69868D01*
X75516Y-70219D01*
X75867Y-69868D01*
X75867Y-70009D01*
X75586Y-70290D01*
X75937Y-70641D01*
X76017Y-70592D01*
X76095Y-70377D01*
X76095Y-75297D01*
X76085Y-75069D01*
X76017Y-74907D01*
X75937Y-74858D01*
X75867Y-74929D01*
X75867Y-74788D01*
X75867Y-70711D01*
X75516Y-70360D01*
X75445Y-70431D01*
X75445Y-70290D01*
X75094Y-69938D01*
X75014Y-69987D01*
X74936Y-70202D01*
X74946Y-70430D01*
X75014Y-70592D01*
X75094Y-70641D01*
X75445Y-70290D01*
X75445Y-70431D01*
X75164Y-70711D01*
X75213Y-70791D01*
X75428Y-70869D01*
X75656Y-70859D01*
X75818Y-70791D01*
X75867Y-70711D01*
X75867Y-74788D01*
X75818Y-74708D01*
X75603Y-74630D01*
X75375Y-74640D01*
X75213Y-74708D01*
X75164Y-74788D01*
X75516Y-75139D01*
X75867Y-74788D01*
X75867Y-74929D01*
X75586Y-75210D01*
X75937Y-75561D01*
X76017Y-75512D01*
X76095Y-75297D01*
X76095Y-75950D01*
X75867Y-75950D01*
X75867Y-75631D01*
X75516Y-75280D01*
X75445Y-75351D01*
X75445Y-75210D01*
X75094Y-74858D01*
X75014Y-74907D01*
X74936Y-75122D01*
X74946Y-75350D01*
X75014Y-75512D01*
X75094Y-75561D01*
X75445Y-75210D01*
X75445Y-75351D01*
X75164Y-75631D01*
X75213Y-75711D01*
X75428Y-75789D01*
X75656Y-75779D01*
X75818Y-75711D01*
X75867Y-75631D01*
X75867Y-75950D01*
X74200Y-75950D01*
X74200Y-65910D01*
X74131Y-65745D01*
X74005Y-65618D01*
X73839Y-65550D01*
X73675Y-65549D01*
X73675Y-62915D01*
X73675Y-61915D01*
X73675Y-60915D01*
X73610Y-60759D01*
X73491Y-60639D01*
X73334Y-60575D01*
X73165Y-60574D01*
X73009Y-60639D01*
X72889Y-60758D01*
X72825Y-60915D01*
X72824Y-61084D01*
X72889Y-61240D01*
X73008Y-61360D01*
X73165Y-61424D01*
X73334Y-61425D01*
X73490Y-61360D01*
X73610Y-61241D01*
X73674Y-61084D01*
X73675Y-60915D01*
X73675Y-61915D01*
X73610Y-61759D01*
X73491Y-61639D01*
X73334Y-61575D01*
X73165Y-61574D01*
X73009Y-61639D01*
X72889Y-61758D01*
X72825Y-61915D01*
X72824Y-62084D01*
X72889Y-62240D01*
X73008Y-62360D01*
X73165Y-62424D01*
X73334Y-62425D01*
X73490Y-62360D01*
X73610Y-62241D01*
X73674Y-62084D01*
X73675Y-61915D01*
X73675Y-62915D01*
X73610Y-62759D01*
X73491Y-62639D01*
X73334Y-62575D01*
X73165Y-62574D01*
X73009Y-62639D01*
X72889Y-62758D01*
X72825Y-62915D01*
X72824Y-63084D01*
X72889Y-63240D01*
X73008Y-63360D01*
X73165Y-63424D01*
X73334Y-63425D01*
X73490Y-63360D01*
X73610Y-63241D01*
X73674Y-63084D01*
X73675Y-62915D01*
X73675Y-65549D01*
X73675Y-65549D01*
X73675Y-64245D01*
X73675Y-63695D01*
X73652Y-63640D01*
X73610Y-63597D01*
X73554Y-63575D01*
X73495Y-63574D01*
X72945Y-63574D01*
X72890Y-63597D01*
X72847Y-63639D01*
X72825Y-63695D01*
X72824Y-63754D01*
X72824Y-64304D01*
X72847Y-64359D01*
X72889Y-64402D01*
X72945Y-64424D01*
X73004Y-64425D01*
X73554Y-64425D01*
X73609Y-64402D01*
X73652Y-64360D01*
X73674Y-64304D01*
X73675Y-64245D01*
X73675Y-65549D01*
X73660Y-65549D01*
X73495Y-65618D01*
X73368Y-65744D01*
X73300Y-65910D01*
X73299Y-66089D01*
X73368Y-66254D01*
X73494Y-66381D01*
X73660Y-66449D01*
X73839Y-66450D01*
X74004Y-66381D01*
X74131Y-66255D01*
X74199Y-66089D01*
X74200Y-65910D01*
X74200Y-75950D01*
X72809Y-75950D01*
X72809Y-75096D01*
X72721Y-74884D01*
X72560Y-74722D01*
X72434Y-74670D01*
X72434Y-72775D01*
X72525Y-72684D01*
X72574Y-72564D01*
X72575Y-72435D01*
X72525Y-72316D01*
X72434Y-72224D01*
X72434Y-72224D01*
X72434Y-70829D01*
X72559Y-70777D01*
X72721Y-70616D01*
X72808Y-70404D01*
X72809Y-70176D01*
X72721Y-69964D01*
X72560Y-69802D01*
X72348Y-69715D01*
X72175Y-69714D01*
X72175Y-65915D01*
X72175Y-58415D01*
X72110Y-58259D01*
X71991Y-58139D01*
X71834Y-58075D01*
X71665Y-58074D01*
X71509Y-58139D01*
X71389Y-58258D01*
X71325Y-58415D01*
X71324Y-58584D01*
X71389Y-58740D01*
X71508Y-58860D01*
X71665Y-58924D01*
X71834Y-58925D01*
X71990Y-58860D01*
X72110Y-58741D01*
X72174Y-58584D01*
X72175Y-58415D01*
X72175Y-65915D01*
X72110Y-65759D01*
X71991Y-65639D01*
X71834Y-65575D01*
X71665Y-65574D01*
X71509Y-65639D01*
X71389Y-65758D01*
X71325Y-65915D01*
X71324Y-66084D01*
X71389Y-66240D01*
X71508Y-66360D01*
X71665Y-66424D01*
X71834Y-66425D01*
X71990Y-66360D01*
X72110Y-66241D01*
X72174Y-66084D01*
X72175Y-65915D01*
X72175Y-69714D01*
X72120Y-69714D01*
X71908Y-69802D01*
X71746Y-69963D01*
X71735Y-69992D01*
X71735Y-67565D01*
X71723Y-67374D01*
X71673Y-67254D01*
X71602Y-67217D01*
X71532Y-67288D01*
X71532Y-67147D01*
X71495Y-67076D01*
X71315Y-67014D01*
X71180Y-67023D01*
X71180Y-66051D01*
X71180Y-58551D01*
X71167Y-58383D01*
X71127Y-58287D01*
X71063Y-58257D01*
X70992Y-58328D01*
X70992Y-58186D01*
X70962Y-58122D01*
X70801Y-58069D01*
X70633Y-58082D01*
X70537Y-58122D01*
X70507Y-58186D01*
X70750Y-58429D01*
X70992Y-58186D01*
X70992Y-58328D01*
X70820Y-58500D01*
X71063Y-58742D01*
X71127Y-58712D01*
X71180Y-58551D01*
X71180Y-66051D01*
X71167Y-65883D01*
X71127Y-65787D01*
X71063Y-65757D01*
X70992Y-65828D01*
X70992Y-65686D01*
X70992Y-58813D01*
X70750Y-58570D01*
X70679Y-58641D01*
X70679Y-58500D01*
X70436Y-58257D01*
X70372Y-58287D01*
X70319Y-58448D01*
X70332Y-58616D01*
X70372Y-58712D01*
X70436Y-58742D01*
X70679Y-58500D01*
X70679Y-58641D01*
X70507Y-58813D01*
X70537Y-58877D01*
X70698Y-58930D01*
X70866Y-58917D01*
X70962Y-58877D01*
X70992Y-58813D01*
X70992Y-65686D01*
X70962Y-65622D01*
X70801Y-65569D01*
X70680Y-65579D01*
X70680Y-63051D01*
X70680Y-61051D01*
X70667Y-60883D01*
X70627Y-60787D01*
X70563Y-60757D01*
X70492Y-60828D01*
X70492Y-60686D01*
X70462Y-60622D01*
X70301Y-60569D01*
X70133Y-60582D01*
X70037Y-60622D01*
X70007Y-60686D01*
X70250Y-60929D01*
X70492Y-60686D01*
X70492Y-60828D01*
X70320Y-61000D01*
X70563Y-61242D01*
X70627Y-61212D01*
X70680Y-61051D01*
X70680Y-63051D01*
X70675Y-62984D01*
X70675Y-61915D01*
X70610Y-61759D01*
X70492Y-61641D01*
X70492Y-61313D01*
X70250Y-61070D01*
X70179Y-61141D01*
X70179Y-61000D01*
X69936Y-60757D01*
X69872Y-60787D01*
X69819Y-60948D01*
X69832Y-61116D01*
X69872Y-61212D01*
X69936Y-61242D01*
X70179Y-61000D01*
X70179Y-61141D01*
X70007Y-61313D01*
X70037Y-61377D01*
X70198Y-61430D01*
X70366Y-61417D01*
X70462Y-61377D01*
X70492Y-61313D01*
X70492Y-61641D01*
X70491Y-61639D01*
X70334Y-61575D01*
X70165Y-61574D01*
X70009Y-61639D01*
X69889Y-61758D01*
X69825Y-61915D01*
X69824Y-62084D01*
X69889Y-62240D01*
X70008Y-62360D01*
X70165Y-62424D01*
X70334Y-62425D01*
X70490Y-62360D01*
X70610Y-62241D01*
X70674Y-62084D01*
X70675Y-61915D01*
X70675Y-62984D01*
X70667Y-62883D01*
X70627Y-62787D01*
X70563Y-62757D01*
X70492Y-62828D01*
X70492Y-62686D01*
X70462Y-62622D01*
X70301Y-62569D01*
X70133Y-62582D01*
X70037Y-62622D01*
X70007Y-62686D01*
X70250Y-62929D01*
X70492Y-62686D01*
X70492Y-62828D01*
X70320Y-63000D01*
X70563Y-63242D01*
X70627Y-63212D01*
X70680Y-63051D01*
X70680Y-65579D01*
X70675Y-65579D01*
X70675Y-63915D01*
X70610Y-63759D01*
X70492Y-63641D01*
X70492Y-63313D01*
X70250Y-63070D01*
X70179Y-63141D01*
X70179Y-63000D01*
X69936Y-62757D01*
X69872Y-62787D01*
X69819Y-62948D01*
X69832Y-63116D01*
X69872Y-63212D01*
X69936Y-63242D01*
X70179Y-63000D01*
X70179Y-63141D01*
X70007Y-63313D01*
X70037Y-63377D01*
X70198Y-63430D01*
X70366Y-63417D01*
X70462Y-63377D01*
X70492Y-63313D01*
X70492Y-63641D01*
X70491Y-63639D01*
X70334Y-63575D01*
X70165Y-63574D01*
X70009Y-63639D01*
X69889Y-63758D01*
X69825Y-63915D01*
X69824Y-64084D01*
X69889Y-64240D01*
X70008Y-64360D01*
X70165Y-64424D01*
X70334Y-64425D01*
X70490Y-64360D01*
X70610Y-64241D01*
X70674Y-64084D01*
X70675Y-63915D01*
X70675Y-65579D01*
X70633Y-65582D01*
X70537Y-65622D01*
X70507Y-65686D01*
X70750Y-65929D01*
X70992Y-65686D01*
X70992Y-65828D01*
X70820Y-66000D01*
X71063Y-66242D01*
X71127Y-66212D01*
X71180Y-66051D01*
X71180Y-67023D01*
X71124Y-67026D01*
X71004Y-67076D01*
X70992Y-67099D01*
X70992Y-66313D01*
X70750Y-66070D01*
X70679Y-66141D01*
X70679Y-66000D01*
X70436Y-65757D01*
X70372Y-65787D01*
X70319Y-65948D01*
X70332Y-66116D01*
X70372Y-66212D01*
X70436Y-66242D01*
X70679Y-66000D01*
X70679Y-66141D01*
X70507Y-66313D01*
X70537Y-66377D01*
X70698Y-66430D01*
X70866Y-66417D01*
X70962Y-66377D01*
X70992Y-66313D01*
X70992Y-67099D01*
X70967Y-67147D01*
X71250Y-67429D01*
X71532Y-67147D01*
X71532Y-67288D01*
X71320Y-67500D01*
X71602Y-67782D01*
X71673Y-67745D01*
X71735Y-67565D01*
X71735Y-69992D01*
X71730Y-70004D01*
X71730Y-68404D01*
X71657Y-68228D01*
X71532Y-68103D01*
X71532Y-67852D01*
X71250Y-67570D01*
X71179Y-67641D01*
X71179Y-67500D01*
X70897Y-67217D01*
X70826Y-67254D01*
X70764Y-67434D01*
X70776Y-67625D01*
X70826Y-67745D01*
X70897Y-67782D01*
X71179Y-67500D01*
X71179Y-67641D01*
X70967Y-67852D01*
X71004Y-67923D01*
X71184Y-67985D01*
X71375Y-67973D01*
X71495Y-67923D01*
X71532Y-67852D01*
X71532Y-68103D01*
X71522Y-68093D01*
X71345Y-68020D01*
X71154Y-68019D01*
X70978Y-68092D01*
X70843Y-68227D01*
X70770Y-68404D01*
X70769Y-68595D01*
X70842Y-68771D01*
X70977Y-68906D01*
X71154Y-68979D01*
X71345Y-68980D01*
X71521Y-68907D01*
X71656Y-68772D01*
X71729Y-68595D01*
X71730Y-68404D01*
X71730Y-70004D01*
X71659Y-70175D01*
X71658Y-70403D01*
X71746Y-70615D01*
X71907Y-70777D01*
X72034Y-70829D01*
X72034Y-72256D01*
X71974Y-72315D01*
X71925Y-72435D01*
X71924Y-72564D01*
X71974Y-72683D01*
X72034Y-72743D01*
X72034Y-74670D01*
X71908Y-74722D01*
X71746Y-74883D01*
X71659Y-75095D01*
X71658Y-75323D01*
X71746Y-75535D01*
X71907Y-75697D01*
X72119Y-75784D01*
X72347Y-75785D01*
X72559Y-75697D01*
X72721Y-75536D01*
X72808Y-75324D01*
X72809Y-75096D01*
X72809Y-75950D01*
X70845Y-75950D01*
X70845Y-75297D01*
X70845Y-70377D01*
X70835Y-70149D01*
X70767Y-69987D01*
X70687Y-69938D01*
X70617Y-70009D01*
X70617Y-69868D01*
X70568Y-69788D01*
X70353Y-69710D01*
X70125Y-69720D01*
X69963Y-69788D01*
X69914Y-69868D01*
X70266Y-70219D01*
X70617Y-69868D01*
X70617Y-70009D01*
X70336Y-70290D01*
X70687Y-70641D01*
X70767Y-70592D01*
X70845Y-70377D01*
X70845Y-75297D01*
X70835Y-75069D01*
X70767Y-74907D01*
X70687Y-74858D01*
X70617Y-74929D01*
X70617Y-74788D01*
X70617Y-70711D01*
X70266Y-70360D01*
X70195Y-70431D01*
X70195Y-70290D01*
X69844Y-69938D01*
X69764Y-69987D01*
X69686Y-70202D01*
X69696Y-70430D01*
X69764Y-70592D01*
X69844Y-70641D01*
X70195Y-70290D01*
X70195Y-70431D01*
X69914Y-70711D01*
X69963Y-70791D01*
X70178Y-70869D01*
X70406Y-70859D01*
X70568Y-70791D01*
X70617Y-70711D01*
X70617Y-74788D01*
X70568Y-74708D01*
X70353Y-74630D01*
X70125Y-74640D01*
X69963Y-74708D01*
X69914Y-74788D01*
X70266Y-75139D01*
X70617Y-74788D01*
X70617Y-74929D01*
X70336Y-75210D01*
X70687Y-75561D01*
X70767Y-75512D01*
X70845Y-75297D01*
X70845Y-75950D01*
X70617Y-75950D01*
X70617Y-75631D01*
X70266Y-75280D01*
X70195Y-75351D01*
X70195Y-75210D01*
X69844Y-74858D01*
X69764Y-74907D01*
X69686Y-75122D01*
X69696Y-75350D01*
X69764Y-75512D01*
X69844Y-75561D01*
X70195Y-75210D01*
X70195Y-75351D01*
X69914Y-75631D01*
X69963Y-75711D01*
X70178Y-75789D01*
X70406Y-75779D01*
X70568Y-75711D01*
X70617Y-75631D01*
X70617Y-75950D01*
X69200Y-75950D01*
X69200Y-64410D01*
X69200Y-60410D01*
X69131Y-60245D01*
X69005Y-60118D01*
X68839Y-60050D01*
X68660Y-60049D01*
X68495Y-60118D01*
X68368Y-60244D01*
X68300Y-60410D01*
X68299Y-60589D01*
X68368Y-60754D01*
X68494Y-60881D01*
X68660Y-60949D01*
X68839Y-60950D01*
X69004Y-60881D01*
X69131Y-60755D01*
X69199Y-60589D01*
X69200Y-60410D01*
X69200Y-64410D01*
X69131Y-64245D01*
X69005Y-64118D01*
X68839Y-64050D01*
X68660Y-64049D01*
X68495Y-64118D01*
X68368Y-64244D01*
X68300Y-64410D01*
X68299Y-64589D01*
X68368Y-64754D01*
X68494Y-64881D01*
X68660Y-64949D01*
X68839Y-64950D01*
X69004Y-64881D01*
X69131Y-64755D01*
X69199Y-64589D01*
X69200Y-64410D01*
X69200Y-75950D01*
X69180Y-75950D01*
X69180Y-66051D01*
X69167Y-65883D01*
X69127Y-65787D01*
X69063Y-65757D01*
X68992Y-65828D01*
X68992Y-65686D01*
X68962Y-65622D01*
X68801Y-65569D01*
X68633Y-65582D01*
X68537Y-65622D01*
X68507Y-65686D01*
X68750Y-65929D01*
X68992Y-65686D01*
X68992Y-65828D01*
X68820Y-66000D01*
X69063Y-66242D01*
X69127Y-66212D01*
X69180Y-66051D01*
X69180Y-75950D01*
X69075Y-75950D01*
X69075Y-68435D01*
X69025Y-68316D01*
X68950Y-68240D01*
X68950Y-67759D01*
X69025Y-67684D01*
X69074Y-67564D01*
X69075Y-67435D01*
X69025Y-67316D01*
X68992Y-67282D01*
X68992Y-66313D01*
X68750Y-66070D01*
X68679Y-66141D01*
X68679Y-66000D01*
X68436Y-65757D01*
X68372Y-65787D01*
X68319Y-65948D01*
X68332Y-66116D01*
X68372Y-66212D01*
X68436Y-66242D01*
X68679Y-66000D01*
X68679Y-66141D01*
X68507Y-66313D01*
X68537Y-66377D01*
X68698Y-66430D01*
X68866Y-66417D01*
X68962Y-66377D01*
X68992Y-66313D01*
X68992Y-67282D01*
X68934Y-67224D01*
X68814Y-67175D01*
X68685Y-67174D01*
X68566Y-67224D01*
X68474Y-67315D01*
X68425Y-67435D01*
X68424Y-67564D01*
X68474Y-67683D01*
X68550Y-67759D01*
X68550Y-68240D01*
X68474Y-68315D01*
X68425Y-68435D01*
X68424Y-68564D01*
X68474Y-68683D01*
X68565Y-68775D01*
X68685Y-68824D01*
X68814Y-68825D01*
X68933Y-68775D01*
X69025Y-68684D01*
X69074Y-68564D01*
X69075Y-68435D01*
X69075Y-75950D01*
X68175Y-75950D01*
X68175Y-65915D01*
X68110Y-65759D01*
X67991Y-65639D01*
X67834Y-65575D01*
X67665Y-65574D01*
X67509Y-65639D01*
X67389Y-65758D01*
X67325Y-65915D01*
X67324Y-66084D01*
X67389Y-66240D01*
X67508Y-66360D01*
X67665Y-66424D01*
X67834Y-66425D01*
X67990Y-66360D01*
X68110Y-66241D01*
X68174Y-66084D01*
X68175Y-65915D01*
X68175Y-75950D01*
X67559Y-75950D01*
X67559Y-75096D01*
X67471Y-74884D01*
X67310Y-74722D01*
X67184Y-74670D01*
X67184Y-70829D01*
X67309Y-70777D01*
X67471Y-70616D01*
X67558Y-70404D01*
X67559Y-70176D01*
X67471Y-69964D01*
X67310Y-69802D01*
X67205Y-69759D01*
X67205Y-60557D01*
X67192Y-60379D01*
X67148Y-60272D01*
X67081Y-60239D01*
X67010Y-60310D01*
X67010Y-60168D01*
X66977Y-60101D01*
X66807Y-60044D01*
X66629Y-60057D01*
X66522Y-60101D01*
X66489Y-60168D01*
X66750Y-60429D01*
X67010Y-60168D01*
X67010Y-60310D01*
X66820Y-60500D01*
X67081Y-60760D01*
X67148Y-60727D01*
X67205Y-60557D01*
X67205Y-69759D01*
X67200Y-69757D01*
X67200Y-64410D01*
X67131Y-64245D01*
X67010Y-64123D01*
X67010Y-60831D01*
X66750Y-60570D01*
X66679Y-60641D01*
X66679Y-60500D01*
X66418Y-60239D01*
X66351Y-60272D01*
X66294Y-60442D01*
X66307Y-60620D01*
X66351Y-60727D01*
X66418Y-60760D01*
X66679Y-60500D01*
X66679Y-60641D01*
X66489Y-60831D01*
X66522Y-60898D01*
X66692Y-60955D01*
X66870Y-60942D01*
X66977Y-60898D01*
X67010Y-60831D01*
X67010Y-64123D01*
X67005Y-64118D01*
X66839Y-64050D01*
X66660Y-64049D01*
X66495Y-64118D01*
X66368Y-64244D01*
X66300Y-64410D01*
X66299Y-64589D01*
X66368Y-64754D01*
X66494Y-64881D01*
X66660Y-64949D01*
X66839Y-64950D01*
X67004Y-64881D01*
X67131Y-64755D01*
X67199Y-64589D01*
X67200Y-64410D01*
X67200Y-69757D01*
X67098Y-69715D01*
X66870Y-69714D01*
X66658Y-69802D01*
X66496Y-69963D01*
X66480Y-70004D01*
X66480Y-68404D01*
X66480Y-67404D01*
X66407Y-67228D01*
X66272Y-67093D01*
X66225Y-67073D01*
X66225Y-58795D01*
X66225Y-58145D01*
X66202Y-58090D01*
X66160Y-58047D01*
X66104Y-58025D01*
X66045Y-58024D01*
X65395Y-58024D01*
X65340Y-58047D01*
X65297Y-58089D01*
X65275Y-58145D01*
X65274Y-58204D01*
X65274Y-58854D01*
X65297Y-58909D01*
X65339Y-58952D01*
X65395Y-58974D01*
X65454Y-58975D01*
X66104Y-58975D01*
X66159Y-58952D01*
X66202Y-58910D01*
X66224Y-58854D01*
X66225Y-58795D01*
X66225Y-67073D01*
X66095Y-67020D01*
X65904Y-67019D01*
X65728Y-67092D01*
X65593Y-67227D01*
X65520Y-67404D01*
X65519Y-67595D01*
X65592Y-67771D01*
X65727Y-67906D01*
X65904Y-67979D01*
X66095Y-67980D01*
X66271Y-67907D01*
X66406Y-67772D01*
X66479Y-67595D01*
X66480Y-67404D01*
X66480Y-68404D01*
X66407Y-68228D01*
X66272Y-68093D01*
X66095Y-68020D01*
X65904Y-68019D01*
X65728Y-68092D01*
X65593Y-68227D01*
X65520Y-68404D01*
X65519Y-68595D01*
X65592Y-68771D01*
X65727Y-68906D01*
X65904Y-68979D01*
X66095Y-68980D01*
X66271Y-68907D01*
X66406Y-68772D01*
X66479Y-68595D01*
X66480Y-68404D01*
X66480Y-70004D01*
X66409Y-70175D01*
X66408Y-70403D01*
X66496Y-70615D01*
X66657Y-70777D01*
X66784Y-70829D01*
X66784Y-74670D01*
X66658Y-74722D01*
X66496Y-74883D01*
X66409Y-75095D01*
X66408Y-75323D01*
X66496Y-75535D01*
X66657Y-75697D01*
X66869Y-75784D01*
X67097Y-75785D01*
X67309Y-75697D01*
X67471Y-75536D01*
X67558Y-75324D01*
X67559Y-75096D01*
X67559Y-75950D01*
X65595Y-75950D01*
X65595Y-75297D01*
X65595Y-70377D01*
X65585Y-70149D01*
X65517Y-69987D01*
X65437Y-69938D01*
X65367Y-70009D01*
X65367Y-69868D01*
X65318Y-69788D01*
X65225Y-69754D01*
X65225Y-58405D01*
X65152Y-58231D01*
X65019Y-58097D01*
X64844Y-58025D01*
X64655Y-58024D01*
X64481Y-58097D01*
X64347Y-58230D01*
X64275Y-58405D01*
X64274Y-58594D01*
X64347Y-58768D01*
X64480Y-58902D01*
X64655Y-58974D01*
X64844Y-58975D01*
X65018Y-58902D01*
X65152Y-58769D01*
X65224Y-58594D01*
X65225Y-58405D01*
X65225Y-69754D01*
X65103Y-69710D01*
X64875Y-69720D01*
X64713Y-69788D01*
X64664Y-69868D01*
X65016Y-70219D01*
X65367Y-69868D01*
X65367Y-70009D01*
X65086Y-70290D01*
X65437Y-70641D01*
X65517Y-70592D01*
X65595Y-70377D01*
X65595Y-75297D01*
X65585Y-75069D01*
X65517Y-74907D01*
X65437Y-74858D01*
X65367Y-74929D01*
X65367Y-74788D01*
X65367Y-70711D01*
X65016Y-70360D01*
X64945Y-70431D01*
X64945Y-70290D01*
X64594Y-69938D01*
X64514Y-69987D01*
X64436Y-70202D01*
X64446Y-70430D01*
X64514Y-70592D01*
X64594Y-70641D01*
X64945Y-70290D01*
X64945Y-70431D01*
X64664Y-70711D01*
X64713Y-70791D01*
X64928Y-70869D01*
X65156Y-70859D01*
X65318Y-70791D01*
X65367Y-70711D01*
X65367Y-74788D01*
X65318Y-74708D01*
X65103Y-74630D01*
X64875Y-74640D01*
X64713Y-74708D01*
X64664Y-74788D01*
X65016Y-75139D01*
X65367Y-74788D01*
X65367Y-74929D01*
X65086Y-75210D01*
X65437Y-75561D01*
X65517Y-75512D01*
X65595Y-75297D01*
X65595Y-75950D01*
X65367Y-75950D01*
X65367Y-75631D01*
X65016Y-75280D01*
X64945Y-75351D01*
X64945Y-75210D01*
X64594Y-74858D01*
X64514Y-74907D01*
X64436Y-75122D01*
X64446Y-75350D01*
X64514Y-75512D01*
X64594Y-75561D01*
X64945Y-75210D01*
X64945Y-75351D01*
X64664Y-75631D01*
X64713Y-75711D01*
X64928Y-75789D01*
X65156Y-75779D01*
X65318Y-75711D01*
X65367Y-75631D01*
X65367Y-75950D01*
X63118Y-75950D01*
X63118Y-65339D01*
X63118Y-61402D01*
X63019Y-61163D01*
X62837Y-60980D01*
X62598Y-60881D01*
X62339Y-60881D01*
X62100Y-60980D01*
X61917Y-61162D01*
X61818Y-61401D01*
X61818Y-61660D01*
X61917Y-61899D01*
X62099Y-62082D01*
X62338Y-62181D01*
X62597Y-62181D01*
X62836Y-62082D01*
X63019Y-61900D01*
X63118Y-61661D01*
X63118Y-61402D01*
X63118Y-65339D01*
X63019Y-65100D01*
X62933Y-65014D01*
X62933Y-63407D01*
X62862Y-63236D01*
X62732Y-63106D01*
X62561Y-63035D01*
X62376Y-63034D01*
X62205Y-63105D01*
X62074Y-63236D01*
X62003Y-63407D01*
X62003Y-63592D01*
X62074Y-63763D01*
X62204Y-63893D01*
X62375Y-63964D01*
X62560Y-63965D01*
X62731Y-63894D01*
X62862Y-63763D01*
X62933Y-63592D01*
X62933Y-63407D01*
X62933Y-65014D01*
X62837Y-64917D01*
X62598Y-64818D01*
X62339Y-64818D01*
X62100Y-64917D01*
X61917Y-65099D01*
X61818Y-65338D01*
X61818Y-65597D01*
X61917Y-65836D01*
X62099Y-66019D01*
X62338Y-66118D01*
X62597Y-66118D01*
X62836Y-66019D01*
X63019Y-65837D01*
X63118Y-65598D01*
X63118Y-65339D01*
X63118Y-75950D01*
X62700Y-75950D01*
X62700Y-72410D01*
X62700Y-68410D01*
X62631Y-68245D01*
X62505Y-68118D01*
X62339Y-68050D01*
X62160Y-68049D01*
X61995Y-68118D01*
X61868Y-68244D01*
X61800Y-68410D01*
X61799Y-68589D01*
X61868Y-68754D01*
X61994Y-68881D01*
X62160Y-68949D01*
X62339Y-68950D01*
X62504Y-68881D01*
X62631Y-68755D01*
X62699Y-68589D01*
X62700Y-68410D01*
X62700Y-72410D01*
X62631Y-72245D01*
X62505Y-72118D01*
X62339Y-72050D01*
X62160Y-72049D01*
X61995Y-72118D01*
X61868Y-72244D01*
X61800Y-72410D01*
X61799Y-72589D01*
X61868Y-72754D01*
X61994Y-72881D01*
X62160Y-72949D01*
X62339Y-72950D01*
X62504Y-72881D01*
X62631Y-72755D01*
X62699Y-72589D01*
X62700Y-72410D01*
X62700Y-75950D01*
X60438Y-75950D01*
X60787Y-75805D01*
X61054Y-75538D01*
X61199Y-75189D01*
X61200Y-74811D01*
X61154Y-74700D01*
X61154Y-63605D01*
X61144Y-63347D01*
X61064Y-63152D01*
X60976Y-63094D01*
X60905Y-63164D01*
X60905Y-61451D01*
X60844Y-61301D01*
X60730Y-61187D01*
X60581Y-61125D01*
X60419Y-61125D01*
X60270Y-61187D01*
X60156Y-61301D01*
X60094Y-61450D01*
X60094Y-61611D01*
X60155Y-61761D01*
X60269Y-61875D01*
X60418Y-61937D01*
X60580Y-61937D01*
X60729Y-61875D01*
X60843Y-61761D01*
X60905Y-61612D01*
X60905Y-61451D01*
X60905Y-63164D01*
X60905Y-63165D01*
X60905Y-63023D01*
X60847Y-62935D01*
X60605Y-62845D01*
X60347Y-62855D01*
X60152Y-62935D01*
X60094Y-63023D01*
X60500Y-63429D01*
X60905Y-63023D01*
X60905Y-63165D01*
X60570Y-63500D01*
X60976Y-63905D01*
X61064Y-63847D01*
X61154Y-63605D01*
X61154Y-74700D01*
X61055Y-74462D01*
X60905Y-74312D01*
X60905Y-65388D01*
X60905Y-65386D01*
X60905Y-63976D01*
X60500Y-63570D01*
X60429Y-63641D01*
X60429Y-63500D01*
X60023Y-63094D01*
X59935Y-63152D01*
X59845Y-63394D01*
X59855Y-63652D01*
X59935Y-63847D01*
X60023Y-63905D01*
X60429Y-63500D01*
X60429Y-63641D01*
X60094Y-63976D01*
X60152Y-64064D01*
X60394Y-64154D01*
X60652Y-64144D01*
X60847Y-64064D01*
X60905Y-63976D01*
X60905Y-65386D01*
X60844Y-65238D01*
X60730Y-65124D01*
X60581Y-65062D01*
X60419Y-65062D01*
X60270Y-65124D01*
X60156Y-65238D01*
X60094Y-65387D01*
X60094Y-65548D01*
X60155Y-65698D01*
X60269Y-65812D01*
X60418Y-65874D01*
X60580Y-65874D01*
X60729Y-65812D01*
X60843Y-65698D01*
X60905Y-65549D01*
X60905Y-65388D01*
X60905Y-74312D01*
X60788Y-74195D01*
X60705Y-74160D01*
X60705Y-69557D01*
X60692Y-69379D01*
X60648Y-69272D01*
X60581Y-69239D01*
X60510Y-69310D01*
X60510Y-69168D01*
X60477Y-69101D01*
X60307Y-69044D01*
X60129Y-69057D01*
X60022Y-69101D01*
X59989Y-69168D01*
X60250Y-69429D01*
X60510Y-69168D01*
X60510Y-69310D01*
X60320Y-69500D01*
X60581Y-69760D01*
X60648Y-69727D01*
X60705Y-69557D01*
X60705Y-74160D01*
X60700Y-74158D01*
X60700Y-71410D01*
X60700Y-70410D01*
X60631Y-70245D01*
X60510Y-70123D01*
X60510Y-69831D01*
X60250Y-69570D01*
X60179Y-69641D01*
X60179Y-69500D01*
X59918Y-69239D01*
X59851Y-69272D01*
X59794Y-69442D01*
X59807Y-69620D01*
X59851Y-69727D01*
X59918Y-69760D01*
X60179Y-69500D01*
X60179Y-69641D01*
X59989Y-69831D01*
X60022Y-69898D01*
X60192Y-69955D01*
X60370Y-69942D01*
X60477Y-69898D01*
X60510Y-69831D01*
X60510Y-70123D01*
X60505Y-70118D01*
X60339Y-70050D01*
X60160Y-70049D01*
X59995Y-70118D01*
X59868Y-70244D01*
X59800Y-70410D01*
X59799Y-70589D01*
X59868Y-70754D01*
X59994Y-70881D01*
X60160Y-70949D01*
X60339Y-70950D01*
X60504Y-70881D01*
X60631Y-70755D01*
X60699Y-70589D01*
X60700Y-70410D01*
X60700Y-71410D01*
X60631Y-71245D01*
X60505Y-71118D01*
X60339Y-71050D01*
X60160Y-71049D01*
X59995Y-71118D01*
X59868Y-71244D01*
X59800Y-71410D01*
X59799Y-71589D01*
X59868Y-71754D01*
X59994Y-71881D01*
X60160Y-71949D01*
X60339Y-71950D01*
X60504Y-71881D01*
X60631Y-71755D01*
X60699Y-71589D01*
X60700Y-71410D01*
X60700Y-74158D01*
X60439Y-74050D01*
X60061Y-74049D01*
X59712Y-74194D01*
X59550Y-74356D01*
X59550Y-65874D01*
X59596Y-65874D01*
X59745Y-65812D01*
X59859Y-65698D01*
X59921Y-65549D01*
X59921Y-65388D01*
X59860Y-65238D01*
X59745Y-65124D01*
X59596Y-65062D01*
X59550Y-65062D01*
X59550Y-61937D01*
X59596Y-61937D01*
X59745Y-61875D01*
X59859Y-61761D01*
X59921Y-61612D01*
X59921Y-61451D01*
X59860Y-61301D01*
X59745Y-61187D01*
X59596Y-61125D01*
X59550Y-61125D01*
X59550Y-58643D01*
X59711Y-58804D01*
X60060Y-58949D01*
X60438Y-58950D01*
X60787Y-58805D01*
X61054Y-58538D01*
X61199Y-58189D01*
X61200Y-57811D01*
X61055Y-57462D01*
X60788Y-57195D01*
X60439Y-57050D01*
X60250Y-57050D01*
X101769Y-57050D01*
X101730Y-57146D01*
X101729Y-57352D01*
X101808Y-57544D01*
X101955Y-57690D01*
X102146Y-57769D01*
X102352Y-57770D01*
X102544Y-57691D01*
X102690Y-57544D01*
X102769Y-57353D01*
X102770Y-57147D01*
X102730Y-57050D01*
X103769Y-57050D01*
X103730Y-57146D01*
X103729Y-57352D01*
X103808Y-57544D01*
X103955Y-57690D01*
X104146Y-57769D01*
X104352Y-57770D01*
X104544Y-57691D01*
X104690Y-57544D01*
X104769Y-57353D01*
X104770Y-57147D01*
X104730Y-57050D01*
X107061Y-57050D01*
X106712Y-57194D01*
X106445Y-57461D01*
X106300Y-57810D01*
X106299Y-58188D01*
X106444Y-58537D01*
X106711Y-58804D01*
X107060Y-58949D01*
X107438Y-58950D01*
X107787Y-58805D01*
X107950Y-58643D01*
X107950Y-74356D01*
X107950Y-74356D01*
G37*
G54D26*
X107950Y-74356D02*
X107788Y-74195D01*
X107730Y-74170D01*
X107730Y-61904D01*
X107730Y-60904D01*
X107657Y-60728D01*
X107522Y-60593D01*
X107345Y-60520D01*
X107154Y-60519D01*
X106978Y-60592D01*
X106843Y-60727D01*
X106770Y-60904D01*
X106769Y-61095D01*
X106842Y-61271D01*
X106977Y-61406D01*
X107154Y-61479D01*
X107345Y-61480D01*
X107521Y-61407D01*
X107656Y-61272D01*
X107729Y-61095D01*
X107730Y-60904D01*
X107730Y-61904D01*
X107657Y-61728D01*
X107522Y-61593D01*
X107345Y-61520D01*
X107154Y-61519D01*
X106978Y-61592D01*
X106843Y-61727D01*
X106770Y-61904D01*
X106769Y-62095D01*
X106842Y-62271D01*
X106977Y-62406D01*
X107050Y-62436D01*
X107050Y-63095D01*
X106995Y-63118D01*
X106868Y-63244D01*
X106800Y-63410D01*
X106799Y-63589D01*
X106868Y-63754D01*
X106994Y-63881D01*
X107160Y-63949D01*
X107339Y-63950D01*
X107504Y-63881D01*
X107631Y-63755D01*
X107699Y-63589D01*
X107700Y-63410D01*
X107631Y-63245D01*
X107505Y-63118D01*
X107450Y-63095D01*
X107450Y-62436D01*
X107521Y-62407D01*
X107656Y-62272D01*
X107729Y-62095D01*
X107730Y-61904D01*
X107730Y-74170D01*
X107705Y-74160D01*
X107705Y-67557D01*
X107692Y-67379D01*
X107648Y-67272D01*
X107581Y-67239D01*
X107510Y-67310D01*
X107510Y-67168D01*
X107477Y-67101D01*
X107307Y-67044D01*
X107129Y-67057D01*
X107022Y-67101D01*
X106989Y-67168D01*
X107250Y-67429D01*
X107510Y-67168D01*
X107510Y-67310D01*
X107320Y-67500D01*
X107581Y-67760D01*
X107648Y-67727D01*
X107705Y-67557D01*
X107705Y-74160D01*
X107510Y-74079D01*
X107510Y-67831D01*
X107250Y-67570D01*
X107179Y-67641D01*
X107179Y-67500D01*
X106918Y-67239D01*
X106851Y-67272D01*
X106794Y-67442D01*
X106807Y-67620D01*
X106851Y-67727D01*
X106918Y-67760D01*
X107179Y-67500D01*
X107179Y-67641D01*
X106989Y-67831D01*
X107022Y-67898D01*
X107192Y-67955D01*
X107370Y-67942D01*
X107477Y-67898D01*
X107510Y-67831D01*
X107510Y-74079D01*
X107439Y-74050D01*
X107061Y-74049D01*
X106712Y-74194D01*
X106445Y-74461D01*
X106300Y-74810D01*
X106299Y-75188D01*
X106444Y-75537D01*
X106711Y-75804D01*
X107060Y-75949D01*
X107249Y-75950D01*
X105789Y-75950D01*
X105789Y-63103D01*
X105779Y-62875D01*
X105711Y-62713D01*
X105631Y-62664D01*
X105561Y-62735D01*
X105561Y-62594D01*
X105512Y-62514D01*
X105297Y-62436D01*
X105069Y-62446D01*
X104907Y-62514D01*
X104858Y-62594D01*
X105210Y-62945D01*
X105561Y-62594D01*
X105561Y-62735D01*
X105280Y-63016D01*
X105631Y-63367D01*
X105711Y-63318D01*
X105789Y-63103D01*
X105789Y-75950D01*
X105785Y-75950D01*
X105785Y-64870D01*
X105697Y-64658D01*
X105561Y-64521D01*
X105561Y-63437D01*
X105210Y-63086D01*
X105139Y-63157D01*
X105139Y-63016D01*
X104788Y-62664D01*
X104770Y-62675D01*
X104770Y-58647D01*
X104691Y-58455D01*
X104544Y-58309D01*
X104353Y-58230D01*
X104147Y-58229D01*
X103955Y-58308D01*
X103809Y-58455D01*
X103730Y-58646D01*
X103729Y-58852D01*
X103808Y-59044D01*
X103955Y-59190D01*
X104146Y-59269D01*
X104352Y-59270D01*
X104544Y-59191D01*
X104690Y-59044D01*
X104769Y-58853D01*
X104770Y-58647D01*
X104770Y-62675D01*
X104708Y-62713D01*
X104700Y-62735D01*
X104700Y-60410D01*
X104631Y-60245D01*
X104505Y-60118D01*
X104339Y-60050D01*
X104160Y-60049D01*
X103995Y-60118D01*
X103868Y-60244D01*
X103800Y-60410D01*
X103799Y-60589D01*
X103868Y-60754D01*
X103994Y-60881D01*
X104160Y-60949D01*
X104339Y-60950D01*
X104504Y-60881D01*
X104631Y-60755D01*
X104699Y-60589D01*
X104700Y-60410D01*
X104700Y-62735D01*
X104630Y-62928D01*
X104640Y-63156D01*
X104708Y-63318D01*
X104788Y-63367D01*
X105139Y-63016D01*
X105139Y-63157D01*
X104858Y-63437D01*
X104907Y-63517D01*
X105122Y-63595D01*
X105350Y-63585D01*
X105512Y-63517D01*
X105561Y-63437D01*
X105561Y-64521D01*
X105536Y-64496D01*
X105324Y-64409D01*
X105096Y-64408D01*
X104884Y-64496D01*
X104722Y-64657D01*
X104635Y-64869D01*
X104634Y-65097D01*
X104722Y-65309D01*
X104883Y-65471D01*
X105095Y-65558D01*
X105323Y-65559D01*
X105535Y-65471D01*
X105697Y-65310D01*
X105784Y-65098D01*
X105785Y-64870D01*
X105785Y-75950D01*
X104309Y-75950D01*
X104309Y-75096D01*
X104221Y-74884D01*
X104060Y-74722D01*
X103934Y-74670D01*
X103934Y-72025D01*
X104025Y-71934D01*
X104074Y-71814D01*
X104075Y-71685D01*
X104025Y-71566D01*
X103934Y-71474D01*
X103934Y-71474D01*
X103934Y-70829D01*
X104059Y-70777D01*
X104221Y-70616D01*
X104308Y-70404D01*
X104309Y-70176D01*
X104221Y-69964D01*
X104060Y-69802D01*
X103848Y-69715D01*
X103620Y-69714D01*
X103408Y-69802D01*
X103246Y-69963D01*
X103235Y-69992D01*
X103235Y-67565D01*
X103223Y-67374D01*
X103173Y-67254D01*
X103102Y-67217D01*
X103032Y-67288D01*
X103032Y-67147D01*
X102995Y-67076D01*
X102815Y-67014D01*
X102770Y-67017D01*
X102770Y-58647D01*
X102691Y-58455D01*
X102544Y-58309D01*
X102353Y-58230D01*
X102147Y-58229D01*
X101955Y-58308D01*
X101809Y-58455D01*
X101730Y-58646D01*
X101729Y-58852D01*
X101808Y-59044D01*
X101955Y-59190D01*
X102146Y-59269D01*
X102352Y-59270D01*
X102544Y-59191D01*
X102690Y-59044D01*
X102769Y-58853D01*
X102770Y-58647D01*
X102770Y-67017D01*
X102705Y-67021D01*
X102705Y-60557D01*
X102692Y-60379D01*
X102648Y-60272D01*
X102581Y-60239D01*
X102510Y-60310D01*
X102510Y-60168D01*
X102477Y-60101D01*
X102307Y-60044D01*
X102129Y-60057D01*
X102022Y-60101D01*
X101989Y-60168D01*
X102250Y-60429D01*
X102510Y-60168D01*
X102510Y-60310D01*
X102320Y-60500D01*
X102581Y-60760D01*
X102648Y-60727D01*
X102705Y-60557D01*
X102705Y-67021D01*
X102624Y-67026D01*
X102510Y-67074D01*
X102510Y-60831D01*
X102250Y-60570D01*
X102179Y-60641D01*
X102179Y-60500D01*
X101918Y-60239D01*
X101851Y-60272D01*
X101794Y-60442D01*
X101807Y-60620D01*
X101851Y-60727D01*
X101918Y-60760D01*
X102179Y-60500D01*
X102179Y-60641D01*
X101989Y-60831D01*
X102022Y-60898D01*
X102192Y-60955D01*
X102370Y-60942D01*
X102477Y-60898D01*
X102510Y-60831D01*
X102510Y-67074D01*
X102504Y-67076D01*
X102467Y-67147D01*
X102750Y-67429D01*
X103032Y-67147D01*
X103032Y-67288D01*
X102820Y-67500D01*
X103102Y-67782D01*
X103173Y-67745D01*
X103235Y-67565D01*
X103235Y-69992D01*
X103230Y-70004D01*
X103230Y-68404D01*
X103157Y-68228D01*
X103032Y-68103D01*
X103032Y-67852D01*
X102750Y-67570D01*
X102679Y-67641D01*
X102679Y-67500D01*
X102397Y-67217D01*
X102326Y-67254D01*
X102264Y-67434D01*
X102276Y-67625D01*
X102326Y-67745D01*
X102397Y-67782D01*
X102679Y-67500D01*
X102679Y-67641D01*
X102467Y-67852D01*
X102504Y-67923D01*
X102684Y-67985D01*
X102875Y-67973D01*
X102995Y-67923D01*
X103032Y-67852D01*
X103032Y-68103D01*
X103022Y-68093D01*
X102845Y-68020D01*
X102654Y-68019D01*
X102478Y-68092D01*
X102343Y-68227D01*
X102270Y-68404D01*
X102269Y-68595D01*
X102342Y-68771D01*
X102477Y-68906D01*
X102654Y-68979D01*
X102845Y-68980D01*
X103021Y-68907D01*
X103156Y-68772D01*
X103229Y-68595D01*
X103230Y-68404D01*
X103230Y-70004D01*
X103159Y-70175D01*
X103158Y-70403D01*
X103246Y-70615D01*
X103407Y-70777D01*
X103534Y-70829D01*
X103534Y-71506D01*
X103474Y-71565D01*
X103425Y-71685D01*
X103424Y-71814D01*
X103474Y-71933D01*
X103534Y-71993D01*
X103534Y-74670D01*
X103408Y-74722D01*
X103246Y-74883D01*
X103159Y-75095D01*
X103158Y-75323D01*
X103246Y-75535D01*
X103407Y-75697D01*
X103619Y-75784D01*
X103847Y-75785D01*
X104059Y-75697D01*
X104221Y-75536D01*
X104308Y-75324D01*
X104309Y-75096D01*
X104309Y-75950D01*
X102345Y-75950D01*
X102345Y-75297D01*
X102345Y-70377D01*
X102335Y-70149D01*
X102267Y-69987D01*
X102187Y-69938D01*
X102117Y-70009D01*
X102117Y-69868D01*
X102068Y-69788D01*
X101853Y-69710D01*
X101625Y-69720D01*
X101463Y-69788D01*
X101414Y-69868D01*
X101766Y-70219D01*
X102117Y-69868D01*
X102117Y-70009D01*
X101836Y-70290D01*
X102187Y-70641D01*
X102267Y-70592D01*
X102345Y-70377D01*
X102345Y-75297D01*
X102335Y-75069D01*
X102267Y-74907D01*
X102187Y-74858D01*
X102117Y-74929D01*
X102117Y-74788D01*
X102117Y-70711D01*
X101766Y-70360D01*
X101695Y-70431D01*
X101695Y-70290D01*
X101344Y-69938D01*
X101264Y-69987D01*
X101186Y-70202D01*
X101196Y-70430D01*
X101264Y-70592D01*
X101344Y-70641D01*
X101695Y-70290D01*
X101695Y-70431D01*
X101414Y-70711D01*
X101463Y-70791D01*
X101678Y-70869D01*
X101906Y-70859D01*
X102068Y-70791D01*
X102117Y-70711D01*
X102117Y-74788D01*
X102068Y-74708D01*
X101853Y-74630D01*
X101625Y-74640D01*
X101463Y-74708D01*
X101414Y-74788D01*
X101766Y-75139D01*
X102117Y-74788D01*
X102117Y-74929D01*
X101836Y-75210D01*
X102187Y-75561D01*
X102267Y-75512D01*
X102345Y-75297D01*
X102345Y-75950D01*
X102117Y-75950D01*
X102117Y-75631D01*
X101766Y-75280D01*
X101695Y-75351D01*
X101695Y-75210D01*
X101344Y-74858D01*
X101264Y-74907D01*
X101186Y-75122D01*
X101196Y-75350D01*
X101264Y-75512D01*
X101344Y-75561D01*
X101695Y-75210D01*
X101695Y-75351D01*
X101414Y-75631D01*
X101463Y-75711D01*
X101678Y-75789D01*
X101906Y-75779D01*
X102068Y-75711D01*
X102117Y-75631D01*
X102117Y-75950D01*
X100869Y-75950D01*
X100869Y-63103D01*
X100859Y-62875D01*
X100791Y-62713D01*
X100711Y-62664D01*
X100641Y-62735D01*
X100641Y-62594D01*
X100592Y-62514D01*
X100377Y-62436D01*
X100149Y-62446D01*
X99987Y-62514D01*
X99980Y-62525D01*
X99980Y-60313D01*
X99975Y-60235D01*
X99975Y-59545D01*
X99975Y-58895D01*
X99952Y-58840D01*
X99910Y-58797D01*
X99854Y-58775D01*
X99795Y-58774D01*
X99145Y-58774D01*
X99090Y-58797D01*
X99047Y-58839D01*
X99025Y-58895D01*
X99024Y-58954D01*
X99024Y-59604D01*
X99047Y-59659D01*
X99089Y-59702D01*
X99145Y-59724D01*
X99204Y-59725D01*
X99854Y-59725D01*
X99909Y-59702D01*
X99952Y-59660D01*
X99974Y-59604D01*
X99975Y-59545D01*
X99975Y-60235D01*
X99967Y-60125D01*
X99919Y-60007D01*
X99849Y-59971D01*
X99778Y-60042D01*
X99778Y-59900D01*
X99742Y-59830D01*
X99563Y-59769D01*
X99375Y-59782D01*
X99257Y-59830D01*
X99221Y-59900D01*
X99500Y-60179D01*
X99778Y-59900D01*
X99778Y-60042D01*
X99570Y-60250D01*
X99849Y-60528D01*
X99919Y-60492D01*
X99980Y-60313D01*
X99980Y-62525D01*
X99938Y-62594D01*
X100290Y-62945D01*
X100641Y-62594D01*
X100641Y-62735D01*
X100360Y-63016D01*
X100711Y-63367D01*
X100791Y-63318D01*
X100869Y-63103D01*
X100869Y-75950D01*
X100865Y-75950D01*
X100865Y-64870D01*
X100777Y-64658D01*
X100641Y-64521D01*
X100641Y-63437D01*
X100290Y-63086D01*
X100219Y-63157D01*
X100219Y-63016D01*
X99868Y-62664D01*
X99788Y-62713D01*
X99710Y-62928D01*
X99720Y-63156D01*
X99788Y-63318D01*
X99868Y-63367D01*
X100219Y-63016D01*
X100219Y-63157D01*
X99938Y-63437D01*
X99987Y-63517D01*
X100202Y-63595D01*
X100430Y-63585D01*
X100592Y-63517D01*
X100641Y-63437D01*
X100641Y-64521D01*
X100616Y-64496D01*
X100404Y-64409D01*
X100176Y-64408D01*
X99964Y-64496D01*
X99802Y-64657D01*
X99748Y-64788D01*
X99700Y-64740D01*
X99700Y-62259D01*
X99775Y-62184D01*
X99824Y-62064D01*
X99825Y-61935D01*
X99778Y-61823D01*
X99778Y-60599D01*
X99500Y-60320D01*
X99429Y-60391D01*
X99429Y-60250D01*
X99150Y-59971D01*
X99080Y-60007D01*
X99019Y-60186D01*
X99032Y-60374D01*
X99080Y-60492D01*
X99150Y-60528D01*
X99429Y-60250D01*
X99429Y-60391D01*
X99221Y-60599D01*
X99257Y-60669D01*
X99436Y-60730D01*
X99624Y-60717D01*
X99742Y-60669D01*
X99778Y-60599D01*
X99778Y-61823D01*
X99775Y-61816D01*
X99684Y-61724D01*
X99564Y-61675D01*
X99435Y-61674D01*
X99316Y-61724D01*
X99224Y-61815D01*
X99175Y-61935D01*
X99174Y-62064D01*
X99224Y-62183D01*
X99300Y-62259D01*
X99300Y-64740D01*
X99224Y-64815D01*
X99175Y-64935D01*
X99174Y-65064D01*
X99224Y-65183D01*
X99315Y-65275D01*
X99435Y-65324D01*
X99564Y-65325D01*
X99683Y-65275D01*
X99757Y-65201D01*
X99802Y-65309D01*
X99963Y-65471D01*
X100175Y-65558D01*
X100403Y-65559D01*
X100615Y-65471D01*
X100777Y-65310D01*
X100864Y-65098D01*
X100865Y-64870D01*
X100865Y-75950D01*
X100575Y-75950D01*
X100575Y-71185D01*
X100525Y-71066D01*
X100450Y-70990D01*
X100450Y-68759D01*
X100525Y-68684D01*
X100574Y-68564D01*
X100575Y-68435D01*
X100525Y-68316D01*
X100450Y-68240D01*
X100450Y-67759D01*
X100525Y-67684D01*
X100574Y-67564D01*
X100575Y-67435D01*
X100525Y-67316D01*
X100434Y-67224D01*
X100314Y-67175D01*
X100185Y-67174D01*
X100066Y-67224D01*
X99974Y-67315D01*
X99925Y-67435D01*
X99924Y-67564D01*
X99974Y-67683D01*
X100050Y-67759D01*
X100050Y-68240D01*
X99974Y-68315D01*
X99925Y-68435D01*
X99924Y-68564D01*
X99974Y-68683D01*
X100050Y-68759D01*
X100050Y-70990D01*
X99974Y-71065D01*
X99925Y-71185D01*
X99924Y-71314D01*
X99974Y-71433D01*
X100065Y-71525D01*
X100185Y-71574D01*
X100314Y-71575D01*
X100433Y-71525D01*
X100525Y-71434D01*
X100574Y-71314D01*
X100575Y-71185D01*
X100575Y-75950D01*
X99059Y-75950D01*
X99059Y-75096D01*
X98971Y-74884D01*
X98810Y-74722D01*
X98684Y-74670D01*
X98684Y-73025D01*
X98775Y-72934D01*
X98824Y-72814D01*
X98825Y-72685D01*
X98775Y-72566D01*
X98684Y-72474D01*
X98684Y-72474D01*
X98684Y-70829D01*
X98809Y-70777D01*
X98971Y-70616D01*
X99058Y-70404D01*
X99059Y-70176D01*
X98971Y-69964D01*
X98810Y-69802D01*
X98789Y-69794D01*
X98789Y-63103D01*
X98779Y-62875D01*
X98711Y-62713D01*
X98631Y-62664D01*
X98561Y-62735D01*
X98561Y-62594D01*
X98512Y-62514D01*
X98297Y-62436D01*
X98069Y-62446D01*
X97907Y-62514D01*
X97858Y-62594D01*
X98210Y-62945D01*
X98561Y-62594D01*
X98561Y-62735D01*
X98280Y-63016D01*
X98631Y-63367D01*
X98711Y-63318D01*
X98789Y-63103D01*
X98789Y-69794D01*
X98785Y-69792D01*
X98785Y-64870D01*
X98697Y-64658D01*
X98561Y-64521D01*
X98561Y-63437D01*
X98210Y-63086D01*
X98139Y-63157D01*
X98139Y-63016D01*
X97788Y-62664D01*
X97708Y-62713D01*
X97630Y-62928D01*
X97640Y-63156D01*
X97708Y-63318D01*
X97788Y-63367D01*
X98139Y-63016D01*
X98139Y-63157D01*
X97858Y-63437D01*
X97907Y-63517D01*
X98122Y-63595D01*
X98350Y-63585D01*
X98512Y-63517D01*
X98561Y-63437D01*
X98561Y-64521D01*
X98536Y-64496D01*
X98324Y-64409D01*
X98096Y-64408D01*
X97884Y-64496D01*
X97722Y-64657D01*
X97635Y-64869D01*
X97634Y-65097D01*
X97722Y-65309D01*
X97883Y-65471D01*
X98095Y-65558D01*
X98323Y-65559D01*
X98535Y-65471D01*
X98697Y-65310D01*
X98784Y-65098D01*
X98785Y-64870D01*
X98785Y-69792D01*
X98598Y-69715D01*
X98370Y-69714D01*
X98158Y-69802D01*
X97996Y-69963D01*
X97980Y-70004D01*
X97980Y-68404D01*
X97980Y-67404D01*
X97907Y-67228D01*
X97772Y-67093D01*
X97595Y-67020D01*
X97404Y-67019D01*
X97228Y-67092D01*
X97093Y-67227D01*
X97020Y-67404D01*
X97019Y-67595D01*
X97092Y-67771D01*
X97227Y-67906D01*
X97404Y-67979D01*
X97595Y-67980D01*
X97771Y-67907D01*
X97906Y-67772D01*
X97979Y-67595D01*
X97980Y-67404D01*
X97980Y-68404D01*
X97907Y-68228D01*
X97772Y-68093D01*
X97595Y-68020D01*
X97404Y-68019D01*
X97228Y-68092D01*
X97093Y-68227D01*
X97020Y-68404D01*
X97019Y-68595D01*
X97092Y-68771D01*
X97227Y-68906D01*
X97404Y-68979D01*
X97595Y-68980D01*
X97771Y-68907D01*
X97906Y-68772D01*
X97979Y-68595D01*
X97980Y-68404D01*
X97980Y-70004D01*
X97909Y-70175D01*
X97908Y-70403D01*
X97996Y-70615D01*
X98157Y-70777D01*
X98284Y-70829D01*
X98284Y-72506D01*
X98224Y-72565D01*
X98175Y-72685D01*
X98174Y-72814D01*
X98224Y-72933D01*
X98284Y-72993D01*
X98284Y-74670D01*
X98158Y-74722D01*
X97996Y-74883D01*
X97909Y-75095D01*
X97908Y-75323D01*
X97996Y-75535D01*
X98157Y-75697D01*
X98369Y-75784D01*
X98597Y-75785D01*
X98809Y-75697D01*
X98971Y-75536D01*
X99058Y-75324D01*
X99059Y-75096D01*
X99059Y-75950D01*
X97095Y-75950D01*
X97095Y-75297D01*
X97095Y-70377D01*
X97085Y-70149D01*
X97017Y-69987D01*
X96937Y-69938D01*
X96867Y-70009D01*
X96867Y-69868D01*
X96818Y-69788D01*
X96730Y-69755D01*
X96730Y-59404D01*
X96730Y-58404D01*
X96657Y-58228D01*
X96522Y-58093D01*
X96345Y-58020D01*
X96154Y-58019D01*
X95978Y-58092D01*
X95843Y-58227D01*
X95813Y-58300D01*
X95500Y-58300D01*
X95423Y-58315D01*
X95401Y-58329D01*
X95358Y-58358D01*
X95108Y-58608D01*
X95065Y-58673D01*
X95050Y-58750D01*
X95050Y-60250D01*
X95050Y-60500D01*
X95065Y-60576D01*
X95108Y-60641D01*
X95358Y-60891D01*
X95358Y-60891D01*
X95401Y-60920D01*
X95423Y-60934D01*
X95423Y-60934D01*
X95500Y-60950D01*
X95750Y-60950D01*
X95845Y-60950D01*
X95868Y-61004D01*
X95994Y-61131D01*
X96160Y-61199D01*
X96339Y-61200D01*
X96504Y-61131D01*
X96631Y-61005D01*
X96699Y-60839D01*
X96700Y-60660D01*
X96631Y-60495D01*
X96505Y-60368D01*
X96339Y-60300D01*
X96160Y-60299D01*
X95995Y-60368D01*
X95868Y-60494D01*
X95845Y-60550D01*
X95750Y-60550D01*
X95582Y-60550D01*
X95450Y-60417D01*
X95450Y-60250D01*
X95450Y-58832D01*
X95582Y-58700D01*
X95813Y-58700D01*
X95842Y-58771D01*
X95977Y-58906D01*
X96154Y-58979D01*
X96345Y-58980D01*
X96521Y-58907D01*
X96656Y-58772D01*
X96729Y-58595D01*
X96730Y-58404D01*
X96730Y-59404D01*
X96657Y-59228D01*
X96522Y-59093D01*
X96345Y-59020D01*
X96154Y-59019D01*
X95978Y-59092D01*
X95843Y-59227D01*
X95770Y-59404D01*
X95769Y-59595D01*
X95842Y-59771D01*
X95977Y-59906D01*
X96154Y-59979D01*
X96345Y-59980D01*
X96521Y-59907D01*
X96656Y-59772D01*
X96729Y-59595D01*
X96730Y-59404D01*
X96730Y-69755D01*
X96603Y-69710D01*
X96375Y-69720D01*
X96213Y-69788D01*
X96164Y-69868D01*
X96516Y-70219D01*
X96867Y-69868D01*
X96867Y-70009D01*
X96586Y-70290D01*
X96937Y-70641D01*
X97017Y-70592D01*
X97095Y-70377D01*
X97095Y-75297D01*
X97085Y-75069D01*
X97017Y-74907D01*
X96937Y-74858D01*
X96867Y-74929D01*
X96867Y-74788D01*
X96867Y-70711D01*
X96516Y-70360D01*
X96445Y-70431D01*
X96445Y-70290D01*
X96094Y-69938D01*
X96014Y-69987D01*
X95936Y-70202D01*
X95946Y-70430D01*
X96014Y-70592D01*
X96094Y-70641D01*
X96445Y-70290D01*
X96445Y-70431D01*
X96164Y-70711D01*
X96213Y-70791D01*
X96428Y-70869D01*
X96656Y-70859D01*
X96818Y-70791D01*
X96867Y-70711D01*
X96867Y-74788D01*
X96818Y-74708D01*
X96603Y-74630D01*
X96375Y-74640D01*
X96213Y-74708D01*
X96164Y-74788D01*
X96516Y-75139D01*
X96867Y-74788D01*
X96867Y-74929D01*
X96586Y-75210D01*
X96937Y-75561D01*
X97017Y-75512D01*
X97095Y-75297D01*
X97095Y-75950D01*
X96867Y-75950D01*
X96867Y-75631D01*
X96516Y-75280D01*
X96445Y-75351D01*
X96445Y-75210D01*
X96094Y-74858D01*
X96014Y-74907D01*
X95936Y-75122D01*
X95946Y-75350D01*
X96014Y-75512D01*
X96094Y-75561D01*
X96445Y-75210D01*
X96445Y-75351D01*
X96164Y-75631D01*
X96213Y-75711D01*
X96428Y-75789D01*
X96656Y-75779D01*
X96818Y-75711D01*
X96867Y-75631D01*
X96867Y-75950D01*
X93869Y-75950D01*
X93869Y-63103D01*
X93859Y-62875D01*
X93791Y-62713D01*
X93711Y-62664D01*
X93641Y-62735D01*
X93641Y-62594D01*
X93592Y-62514D01*
X93377Y-62436D01*
X93149Y-62446D01*
X92987Y-62514D01*
X92938Y-62594D01*
X93290Y-62945D01*
X93641Y-62594D01*
X93641Y-62735D01*
X93360Y-63016D01*
X93711Y-63367D01*
X93791Y-63318D01*
X93869Y-63103D01*
X93869Y-75950D01*
X93865Y-75950D01*
X93865Y-64870D01*
X93777Y-64658D01*
X93641Y-64521D01*
X93641Y-63437D01*
X93290Y-63086D01*
X93219Y-63157D01*
X93219Y-63016D01*
X92868Y-62664D01*
X92788Y-62713D01*
X92710Y-62928D01*
X92720Y-63156D01*
X92788Y-63318D01*
X92868Y-63367D01*
X93219Y-63016D01*
X93219Y-63157D01*
X92938Y-63437D01*
X92987Y-63517D01*
X93202Y-63595D01*
X93430Y-63585D01*
X93592Y-63517D01*
X93641Y-63437D01*
X93641Y-64521D01*
X93616Y-64496D01*
X93404Y-64409D01*
X93176Y-64408D01*
X92964Y-64496D01*
X92802Y-64657D01*
X92715Y-64869D01*
X92714Y-65097D01*
X92802Y-65309D01*
X92963Y-65471D01*
X93175Y-65558D01*
X93403Y-65559D01*
X93615Y-65471D01*
X93777Y-65310D01*
X93864Y-65098D01*
X93865Y-64870D01*
X93865Y-75950D01*
X93809Y-75950D01*
X93809Y-75096D01*
X93721Y-74884D01*
X93560Y-74722D01*
X93434Y-74670D01*
X93434Y-74025D01*
X93525Y-73934D01*
X93574Y-73814D01*
X93575Y-73685D01*
X93525Y-73566D01*
X93434Y-73474D01*
X93434Y-73474D01*
X93434Y-70829D01*
X93559Y-70777D01*
X93721Y-70616D01*
X93808Y-70404D01*
X93809Y-70176D01*
X93721Y-69964D01*
X93560Y-69802D01*
X93348Y-69715D01*
X93120Y-69714D01*
X92908Y-69802D01*
X92746Y-69963D01*
X92735Y-69992D01*
X92735Y-67565D01*
X92723Y-67374D01*
X92705Y-67331D01*
X92705Y-60807D01*
X92692Y-60629D01*
X92648Y-60522D01*
X92581Y-60489D01*
X92510Y-60560D01*
X92510Y-60418D01*
X92477Y-60351D01*
X92307Y-60294D01*
X92129Y-60307D01*
X92022Y-60351D01*
X91989Y-60418D01*
X92250Y-60679D01*
X92510Y-60418D01*
X92510Y-60560D01*
X92320Y-60750D01*
X92581Y-61010D01*
X92648Y-60977D01*
X92705Y-60807D01*
X92705Y-67331D01*
X92673Y-67254D01*
X92602Y-67217D01*
X92532Y-67288D01*
X92532Y-67147D01*
X92510Y-67105D01*
X92510Y-61081D01*
X92250Y-60820D01*
X92179Y-60891D01*
X92179Y-60750D01*
X91918Y-60489D01*
X91851Y-60522D01*
X91794Y-60692D01*
X91807Y-60870D01*
X91851Y-60977D01*
X91918Y-61010D01*
X92179Y-60750D01*
X92179Y-60891D01*
X91989Y-61081D01*
X92022Y-61148D01*
X92192Y-61205D01*
X92370Y-61192D01*
X92477Y-61148D01*
X92510Y-61081D01*
X92510Y-67105D01*
X92495Y-67076D01*
X92315Y-67014D01*
X92124Y-67026D01*
X92004Y-67076D01*
X91967Y-67147D01*
X92250Y-67429D01*
X92532Y-67147D01*
X92532Y-67288D01*
X92320Y-67500D01*
X92602Y-67782D01*
X92673Y-67745D01*
X92735Y-67565D01*
X92735Y-69992D01*
X92730Y-70004D01*
X92730Y-68404D01*
X92657Y-68228D01*
X92532Y-68103D01*
X92532Y-67852D01*
X92250Y-67570D01*
X92179Y-67641D01*
X92179Y-67500D01*
X91897Y-67217D01*
X91826Y-67254D01*
X91764Y-67434D01*
X91776Y-67625D01*
X91826Y-67745D01*
X91897Y-67782D01*
X92179Y-67500D01*
X92179Y-67641D01*
X91967Y-67852D01*
X92004Y-67923D01*
X92184Y-67985D01*
X92375Y-67973D01*
X92495Y-67923D01*
X92532Y-67852D01*
X92532Y-68103D01*
X92522Y-68093D01*
X92345Y-68020D01*
X92154Y-68019D01*
X91978Y-68092D01*
X91843Y-68227D01*
X91770Y-68404D01*
X91769Y-68595D01*
X91842Y-68771D01*
X91977Y-68906D01*
X92154Y-68979D01*
X92345Y-68980D01*
X92521Y-68907D01*
X92656Y-68772D01*
X92729Y-68595D01*
X92730Y-68404D01*
X92730Y-70004D01*
X92659Y-70175D01*
X92658Y-70403D01*
X92746Y-70615D01*
X92907Y-70777D01*
X93034Y-70829D01*
X93034Y-73506D01*
X92974Y-73565D01*
X92925Y-73685D01*
X92924Y-73814D01*
X92974Y-73933D01*
X93034Y-73993D01*
X93034Y-74670D01*
X92908Y-74722D01*
X92746Y-74883D01*
X92659Y-75095D01*
X92658Y-75323D01*
X92746Y-75535D01*
X92907Y-75697D01*
X93119Y-75784D01*
X93347Y-75785D01*
X93559Y-75697D01*
X93721Y-75536D01*
X93808Y-75324D01*
X93809Y-75096D01*
X93809Y-75950D01*
X92575Y-75950D01*
X92575Y-71685D01*
X92525Y-71566D01*
X92450Y-71490D01*
X92450Y-69750D01*
X92449Y-69749D01*
X92434Y-69673D01*
X92434Y-69673D01*
X92420Y-69651D01*
X92391Y-69608D01*
X92391Y-69608D01*
X91700Y-68917D01*
X91700Y-62759D01*
X91775Y-62684D01*
X91824Y-62564D01*
X91825Y-62435D01*
X91775Y-62316D01*
X91684Y-62224D01*
X91564Y-62175D01*
X91435Y-62174D01*
X91316Y-62224D01*
X91224Y-62315D01*
X91175Y-62435D01*
X91174Y-62564D01*
X91224Y-62683D01*
X91300Y-62759D01*
X91300Y-69000D01*
X91315Y-69076D01*
X91358Y-69141D01*
X92050Y-69832D01*
X92050Y-71490D01*
X91974Y-71565D01*
X91925Y-71685D01*
X91924Y-71814D01*
X91974Y-71933D01*
X92065Y-72025D01*
X92185Y-72074D01*
X92314Y-72075D01*
X92433Y-72025D01*
X92525Y-71934D01*
X92574Y-71814D01*
X92575Y-71685D01*
X92575Y-75950D01*
X91845Y-75950D01*
X91845Y-75297D01*
X91845Y-70377D01*
X91835Y-70149D01*
X91767Y-69987D01*
X91687Y-69938D01*
X91617Y-70009D01*
X91617Y-69868D01*
X91568Y-69788D01*
X91353Y-69710D01*
X91200Y-69717D01*
X91200Y-65910D01*
X91131Y-65745D01*
X91005Y-65618D01*
X90839Y-65550D01*
X90660Y-65549D01*
X90495Y-65618D01*
X90368Y-65744D01*
X90300Y-65910D01*
X90299Y-66089D01*
X90368Y-66254D01*
X90494Y-66381D01*
X90660Y-66449D01*
X90839Y-66450D01*
X91004Y-66381D01*
X91131Y-66255D01*
X91199Y-66089D01*
X91200Y-65910D01*
X91200Y-69717D01*
X91125Y-69720D01*
X90963Y-69788D01*
X90914Y-69868D01*
X91266Y-70219D01*
X91617Y-69868D01*
X91617Y-70009D01*
X91336Y-70290D01*
X91687Y-70641D01*
X91767Y-70592D01*
X91845Y-70377D01*
X91845Y-75297D01*
X91835Y-75069D01*
X91767Y-74907D01*
X91687Y-74858D01*
X91617Y-74929D01*
X91617Y-74788D01*
X91617Y-70711D01*
X91266Y-70360D01*
X91195Y-70431D01*
X91195Y-70290D01*
X90844Y-69938D01*
X90764Y-69987D01*
X90686Y-70202D01*
X90696Y-70430D01*
X90764Y-70592D01*
X90844Y-70641D01*
X91195Y-70290D01*
X91195Y-70431D01*
X90914Y-70711D01*
X90963Y-70791D01*
X91178Y-70869D01*
X91406Y-70859D01*
X91568Y-70791D01*
X91617Y-70711D01*
X91617Y-74788D01*
X91568Y-74708D01*
X91353Y-74630D01*
X91125Y-74640D01*
X90963Y-74708D01*
X90914Y-74788D01*
X91266Y-75139D01*
X91617Y-74788D01*
X91617Y-74929D01*
X91336Y-75210D01*
X91687Y-75561D01*
X91767Y-75512D01*
X91845Y-75297D01*
X91845Y-75950D01*
X91617Y-75950D01*
X91617Y-75631D01*
X91266Y-75280D01*
X91195Y-75351D01*
X91195Y-75210D01*
X90844Y-74858D01*
X90764Y-74907D01*
X90686Y-75122D01*
X90696Y-75350D01*
X90764Y-75512D01*
X90844Y-75561D01*
X91195Y-75210D01*
X91195Y-75351D01*
X90914Y-75631D01*
X90963Y-75711D01*
X91178Y-75789D01*
X91406Y-75779D01*
X91568Y-75711D01*
X91617Y-75631D01*
X91617Y-75950D01*
X90575Y-75950D01*
X90575Y-68435D01*
X90525Y-68316D01*
X90450Y-68240D01*
X90450Y-67759D01*
X90525Y-67684D01*
X90574Y-67564D01*
X90575Y-67435D01*
X90525Y-67316D01*
X90434Y-67224D01*
X90314Y-67175D01*
X90185Y-67174D01*
X90075Y-67220D01*
X90075Y-62435D01*
X90025Y-62316D01*
X89950Y-62240D01*
X89950Y-61500D01*
X89937Y-61436D01*
X89934Y-61423D01*
X89934Y-61423D01*
X89891Y-61358D01*
X89450Y-60917D01*
X89450Y-60877D01*
X89490Y-60860D01*
X89610Y-60741D01*
X89674Y-60584D01*
X89675Y-60415D01*
X89610Y-60259D01*
X89491Y-60139D01*
X89334Y-60075D01*
X89165Y-60074D01*
X89009Y-60139D01*
X88889Y-60258D01*
X88825Y-60415D01*
X88824Y-60584D01*
X88889Y-60740D01*
X89008Y-60860D01*
X89050Y-60877D01*
X89050Y-61000D01*
X89065Y-61076D01*
X89108Y-61141D01*
X89550Y-61582D01*
X89550Y-62240D01*
X89474Y-62315D01*
X89425Y-62435D01*
X89424Y-62564D01*
X89474Y-62683D01*
X89565Y-62775D01*
X89685Y-62824D01*
X89814Y-62825D01*
X89933Y-62775D01*
X90025Y-62684D01*
X90074Y-62564D01*
X90075Y-62435D01*
X90075Y-67220D01*
X90066Y-67224D01*
X89974Y-67315D01*
X89925Y-67435D01*
X89924Y-67564D01*
X89974Y-67683D01*
X90050Y-67759D01*
X90050Y-68240D01*
X89974Y-68315D01*
X89925Y-68435D01*
X89924Y-68564D01*
X89974Y-68683D01*
X90065Y-68775D01*
X90185Y-68824D01*
X90314Y-68825D01*
X90433Y-68775D01*
X90525Y-68684D01*
X90574Y-68564D01*
X90575Y-68435D01*
X90575Y-75950D01*
X89675Y-75950D01*
X89675Y-63415D01*
X89610Y-63259D01*
X89491Y-63139D01*
X89334Y-63075D01*
X89165Y-63074D01*
X89009Y-63139D01*
X88950Y-63198D01*
X88950Y-62759D01*
X89025Y-62684D01*
X89074Y-62564D01*
X89075Y-62435D01*
X89025Y-62316D01*
X88934Y-62224D01*
X88814Y-62175D01*
X88705Y-62174D01*
X88705Y-57807D01*
X88692Y-57629D01*
X88648Y-57522D01*
X88581Y-57489D01*
X88510Y-57560D01*
X88510Y-57418D01*
X88477Y-57351D01*
X88307Y-57294D01*
X88129Y-57307D01*
X88022Y-57351D01*
X87989Y-57418D01*
X88250Y-57679D01*
X88510Y-57418D01*
X88510Y-57560D01*
X88320Y-57750D01*
X88581Y-58010D01*
X88648Y-57977D01*
X88705Y-57807D01*
X88705Y-62174D01*
X88685Y-62174D01*
X88566Y-62224D01*
X88474Y-62315D01*
X88425Y-62435D01*
X88424Y-62564D01*
X88474Y-62683D01*
X88550Y-62759D01*
X88550Y-63198D01*
X88491Y-63139D01*
X88334Y-63075D01*
X88165Y-63074D01*
X88009Y-63139D01*
X87950Y-63198D01*
X87950Y-60801D01*
X88008Y-60860D01*
X88165Y-60924D01*
X88334Y-60925D01*
X88490Y-60860D01*
X88610Y-60741D01*
X88674Y-60584D01*
X88675Y-60415D01*
X88610Y-60259D01*
X88491Y-60139D01*
X88334Y-60075D01*
X88207Y-60074D01*
X88391Y-59891D01*
X88434Y-59826D01*
X88434Y-59826D01*
X88437Y-59813D01*
X88449Y-59750D01*
X88450Y-59750D01*
X88450Y-59154D01*
X88504Y-59131D01*
X88631Y-59005D01*
X88699Y-58839D01*
X88700Y-58660D01*
X88631Y-58495D01*
X88510Y-58373D01*
X88510Y-58081D01*
X88250Y-57820D01*
X88179Y-57891D01*
X88179Y-57750D01*
X87918Y-57489D01*
X87851Y-57522D01*
X87794Y-57692D01*
X87807Y-57870D01*
X87851Y-57977D01*
X87918Y-58010D01*
X88179Y-57750D01*
X88179Y-57891D01*
X87989Y-58081D01*
X88022Y-58148D01*
X88192Y-58205D01*
X88370Y-58192D01*
X88477Y-58148D01*
X88510Y-58081D01*
X88510Y-58373D01*
X88505Y-58368D01*
X88339Y-58300D01*
X88160Y-58299D01*
X87995Y-58368D01*
X87950Y-58413D01*
X87950Y-58250D01*
X87937Y-58186D01*
X87934Y-58173D01*
X87934Y-58173D01*
X87891Y-58108D01*
X87677Y-57894D01*
X87699Y-57839D01*
X87700Y-57660D01*
X87631Y-57495D01*
X87505Y-57368D01*
X87339Y-57300D01*
X87160Y-57299D01*
X86995Y-57368D01*
X86868Y-57494D01*
X86800Y-57660D01*
X86799Y-57839D01*
X86868Y-58004D01*
X86994Y-58131D01*
X87160Y-58199D01*
X87339Y-58200D01*
X87394Y-58177D01*
X87550Y-58332D01*
X87550Y-58413D01*
X87505Y-58368D01*
X87339Y-58300D01*
X87160Y-58299D01*
X87105Y-58322D01*
X86891Y-58108D01*
X86826Y-58065D01*
X86750Y-58050D01*
X86586Y-58050D01*
X86631Y-58005D01*
X86699Y-57839D01*
X86700Y-57660D01*
X86631Y-57495D01*
X86505Y-57368D01*
X86339Y-57300D01*
X86160Y-57299D01*
X85995Y-57368D01*
X85868Y-57494D01*
X85800Y-57660D01*
X85799Y-57839D01*
X85868Y-58004D01*
X85913Y-58050D01*
X85750Y-58050D01*
X85686Y-58062D01*
X85673Y-58065D01*
X85608Y-58108D01*
X85175Y-58542D01*
X85175Y-57665D01*
X85110Y-57509D01*
X84991Y-57389D01*
X84834Y-57325D01*
X84665Y-57324D01*
X84509Y-57389D01*
X84389Y-57508D01*
X84325Y-57665D01*
X84324Y-57834D01*
X84389Y-57990D01*
X84508Y-58110D01*
X84665Y-58174D01*
X84834Y-58175D01*
X84990Y-58110D01*
X85110Y-57991D01*
X85174Y-57834D01*
X85175Y-57665D01*
X85175Y-58542D01*
X85108Y-58608D01*
X85065Y-58673D01*
X85050Y-58750D01*
X85050Y-60122D01*
X85009Y-60139D01*
X84889Y-60258D01*
X84825Y-60415D01*
X84824Y-60584D01*
X84889Y-60740D01*
X85008Y-60860D01*
X85165Y-60924D01*
X85334Y-60925D01*
X85490Y-60860D01*
X85610Y-60741D01*
X85674Y-60584D01*
X85675Y-60415D01*
X85610Y-60259D01*
X85491Y-60139D01*
X85450Y-60122D01*
X85450Y-58832D01*
X85799Y-58482D01*
X85799Y-59079D01*
X85822Y-59134D01*
X85864Y-59177D01*
X85920Y-59199D01*
X85979Y-59200D01*
X86050Y-59200D01*
X86050Y-60122D01*
X86009Y-60139D01*
X85889Y-60258D01*
X85825Y-60415D01*
X85824Y-60584D01*
X85889Y-60740D01*
X86008Y-60860D01*
X86165Y-60924D01*
X86334Y-60925D01*
X86490Y-60860D01*
X86610Y-60741D01*
X86674Y-60584D01*
X86675Y-60415D01*
X86610Y-60259D01*
X86491Y-60139D01*
X86450Y-60122D01*
X86450Y-59200D01*
X86579Y-59200D01*
X86634Y-59177D01*
X86677Y-59135D01*
X86699Y-59079D01*
X86700Y-59020D01*
X86700Y-58482D01*
X86822Y-58605D01*
X86800Y-58660D01*
X86799Y-58839D01*
X86868Y-59004D01*
X86994Y-59131D01*
X87160Y-59199D01*
X87339Y-59200D01*
X87504Y-59131D01*
X87550Y-59086D01*
X87550Y-59667D01*
X87125Y-60091D01*
X87009Y-60139D01*
X86889Y-60258D01*
X86825Y-60415D01*
X86824Y-60584D01*
X86889Y-60740D01*
X87008Y-60860D01*
X87165Y-60924D01*
X87334Y-60925D01*
X87490Y-60860D01*
X87550Y-60801D01*
X87550Y-61374D01*
X87525Y-61316D01*
X87434Y-61224D01*
X87314Y-61175D01*
X87185Y-61174D01*
X87066Y-61224D01*
X86999Y-61290D01*
X86934Y-61224D01*
X86814Y-61175D01*
X86685Y-61174D01*
X86566Y-61224D01*
X86474Y-61315D01*
X86425Y-61435D01*
X86424Y-61564D01*
X86474Y-61683D01*
X86550Y-61759D01*
X86550Y-63198D01*
X86491Y-63139D01*
X86334Y-63075D01*
X86165Y-63074D01*
X86009Y-63139D01*
X85889Y-63258D01*
X85825Y-63415D01*
X85824Y-63584D01*
X85889Y-63740D01*
X86008Y-63860D01*
X86050Y-63877D01*
X86050Y-65124D01*
X86025Y-65066D01*
X85934Y-64974D01*
X85814Y-64925D01*
X85685Y-64924D01*
X85675Y-64929D01*
X85675Y-63415D01*
X85610Y-63259D01*
X85491Y-63139D01*
X85334Y-63075D01*
X85165Y-63074D01*
X85009Y-63139D01*
X84889Y-63258D01*
X84825Y-63415D01*
X84824Y-63584D01*
X84889Y-63740D01*
X85008Y-63860D01*
X85165Y-63924D01*
X85334Y-63925D01*
X85490Y-63860D01*
X85610Y-63741D01*
X85674Y-63584D01*
X85675Y-63415D01*
X85675Y-64929D01*
X85566Y-64974D01*
X85474Y-65065D01*
X85425Y-65185D01*
X85424Y-65314D01*
X85474Y-65433D01*
X85550Y-65509D01*
X85550Y-66490D01*
X85474Y-66565D01*
X85425Y-66685D01*
X85424Y-66814D01*
X85474Y-66933D01*
X85565Y-67025D01*
X85685Y-67074D01*
X85814Y-67075D01*
X85933Y-67025D01*
X86025Y-66934D01*
X86050Y-66875D01*
X86050Y-66917D01*
X84700Y-68267D01*
X84700Y-65910D01*
X84631Y-65745D01*
X84505Y-65618D01*
X84339Y-65550D01*
X84160Y-65549D01*
X83995Y-65618D01*
X83950Y-65663D01*
X83950Y-63801D01*
X84008Y-63860D01*
X84165Y-63924D01*
X84334Y-63925D01*
X84490Y-63860D01*
X84610Y-63741D01*
X84674Y-63584D01*
X84675Y-63415D01*
X84675Y-60415D01*
X84610Y-60259D01*
X84491Y-60139D01*
X84334Y-60075D01*
X84180Y-60074D01*
X84180Y-57801D01*
X84167Y-57633D01*
X84127Y-57537D01*
X84063Y-57507D01*
X83992Y-57578D01*
X83992Y-57436D01*
X83962Y-57372D01*
X83801Y-57319D01*
X83633Y-57332D01*
X83537Y-57372D01*
X83507Y-57436D01*
X83750Y-57679D01*
X83992Y-57436D01*
X83992Y-57578D01*
X83820Y-57750D01*
X84063Y-57992D01*
X84127Y-57962D01*
X84180Y-57801D01*
X84180Y-60074D01*
X84165Y-60074D01*
X84009Y-60139D01*
X83992Y-60156D01*
X83992Y-58063D01*
X83750Y-57820D01*
X83679Y-57891D01*
X83679Y-57750D01*
X83436Y-57507D01*
X83372Y-57537D01*
X83319Y-57698D01*
X83332Y-57866D01*
X83372Y-57962D01*
X83436Y-57992D01*
X83679Y-57750D01*
X83679Y-57891D01*
X83507Y-58063D01*
X83537Y-58127D01*
X83698Y-58180D01*
X83866Y-58167D01*
X83962Y-58127D01*
X83992Y-58063D01*
X83992Y-60156D01*
X83889Y-60258D01*
X83825Y-60415D01*
X83824Y-60584D01*
X83889Y-60740D01*
X84008Y-60860D01*
X84165Y-60924D01*
X84334Y-60925D01*
X84490Y-60860D01*
X84610Y-60741D01*
X84674Y-60584D01*
X84675Y-60415D01*
X84675Y-63415D01*
X84610Y-63259D01*
X84491Y-63139D01*
X84334Y-63075D01*
X84165Y-63074D01*
X84009Y-63139D01*
X83950Y-63198D01*
X83950Y-61509D01*
X84025Y-61434D01*
X84074Y-61314D01*
X84075Y-61185D01*
X84025Y-61066D01*
X83934Y-60974D01*
X83814Y-60925D01*
X83685Y-60924D01*
X83675Y-60929D01*
X83675Y-60415D01*
X83610Y-60259D01*
X83491Y-60139D01*
X83334Y-60075D01*
X83165Y-60074D01*
X83009Y-60139D01*
X82889Y-60258D01*
X82825Y-60415D01*
X82824Y-60584D01*
X82889Y-60740D01*
X83008Y-60860D01*
X83165Y-60924D01*
X83334Y-60925D01*
X83490Y-60860D01*
X83610Y-60741D01*
X83674Y-60584D01*
X83675Y-60415D01*
X83675Y-60929D01*
X83566Y-60974D01*
X83474Y-61065D01*
X83425Y-61185D01*
X83424Y-61314D01*
X83474Y-61433D01*
X83550Y-61509D01*
X83550Y-63188D01*
X83485Y-63123D01*
X83470Y-63138D01*
X83462Y-63122D01*
X83301Y-63069D01*
X83133Y-63082D01*
X83037Y-63122D01*
X83007Y-63186D01*
X83214Y-63393D01*
X83214Y-63393D01*
X83250Y-63429D01*
X83320Y-63500D01*
X83250Y-63570D01*
X83214Y-63606D01*
X83179Y-63641D01*
X83179Y-63500D01*
X82936Y-63257D01*
X82872Y-63287D01*
X82819Y-63448D01*
X82832Y-63616D01*
X82872Y-63712D01*
X82936Y-63742D01*
X83179Y-63500D01*
X83179Y-63641D01*
X83007Y-63813D01*
X83037Y-63877D01*
X83198Y-63930D01*
X83366Y-63917D01*
X83462Y-63877D01*
X83470Y-63861D01*
X83485Y-63876D01*
X83492Y-63869D01*
X83550Y-63811D01*
X83550Y-70990D01*
X83492Y-71048D01*
X83474Y-71065D01*
X83425Y-71185D01*
X83424Y-71314D01*
X83474Y-71433D01*
X83565Y-71525D01*
X83685Y-71574D01*
X83814Y-71575D01*
X83933Y-71525D01*
X84025Y-71434D01*
X84074Y-71314D01*
X84075Y-71185D01*
X84025Y-71066D01*
X83950Y-70990D01*
X83950Y-66336D01*
X83994Y-66381D01*
X84160Y-66449D01*
X84339Y-66450D01*
X84504Y-66381D01*
X84631Y-66255D01*
X84699Y-66089D01*
X84700Y-65910D01*
X84700Y-68267D01*
X84608Y-68358D01*
X84565Y-68423D01*
X84550Y-68500D01*
X84550Y-73490D01*
X84474Y-73565D01*
X84425Y-73685D01*
X84424Y-73814D01*
X84474Y-73933D01*
X84565Y-74025D01*
X84685Y-74074D01*
X84814Y-74075D01*
X84933Y-74025D01*
X85025Y-73934D01*
X85074Y-73814D01*
X85075Y-73685D01*
X85025Y-73566D01*
X84950Y-73490D01*
X84950Y-68582D01*
X86391Y-67141D01*
X86391Y-67141D01*
X86420Y-67098D01*
X86434Y-67076D01*
X86434Y-67076D01*
X86449Y-67000D01*
X86450Y-67000D01*
X86450Y-66336D01*
X86494Y-66381D01*
X86660Y-66449D01*
X86839Y-66450D01*
X87004Y-66381D01*
X87131Y-66255D01*
X87199Y-66089D01*
X87200Y-65910D01*
X87131Y-65745D01*
X87005Y-65618D01*
X86857Y-65557D01*
X86933Y-65525D01*
X87025Y-65434D01*
X87074Y-65314D01*
X87075Y-65185D01*
X87025Y-65066D01*
X86950Y-64990D01*
X86950Y-63801D01*
X87008Y-63860D01*
X87165Y-63924D01*
X87334Y-63925D01*
X87490Y-63860D01*
X87550Y-63801D01*
X87550Y-64240D01*
X87474Y-64315D01*
X87425Y-64435D01*
X87424Y-64564D01*
X87474Y-64683D01*
X87565Y-64775D01*
X87685Y-64824D01*
X87814Y-64825D01*
X87933Y-64775D01*
X88025Y-64684D01*
X88050Y-64625D01*
X88050Y-65740D01*
X87974Y-65815D01*
X87925Y-65935D01*
X87924Y-66064D01*
X87974Y-66183D01*
X88065Y-66275D01*
X88185Y-66324D01*
X88314Y-66325D01*
X88433Y-66275D01*
X88525Y-66184D01*
X88574Y-66064D01*
X88575Y-65935D01*
X88525Y-65816D01*
X88450Y-65740D01*
X88450Y-65125D01*
X88474Y-65183D01*
X88565Y-65275D01*
X88685Y-65324D01*
X88814Y-65325D01*
X88933Y-65275D01*
X89025Y-65184D01*
X89050Y-65125D01*
X89050Y-72490D01*
X88974Y-72565D01*
X88925Y-72685D01*
X88924Y-72814D01*
X88974Y-72933D01*
X89065Y-73025D01*
X89185Y-73074D01*
X89314Y-73075D01*
X89433Y-73025D01*
X89525Y-72934D01*
X89574Y-72814D01*
X89575Y-72685D01*
X89525Y-72566D01*
X89450Y-72490D01*
X89450Y-63877D01*
X89490Y-63860D01*
X89610Y-63741D01*
X89674Y-63584D01*
X89675Y-63415D01*
X89675Y-75950D01*
X88559Y-75950D01*
X88559Y-75096D01*
X88471Y-74884D01*
X88310Y-74722D01*
X88184Y-74670D01*
X88184Y-70829D01*
X88309Y-70777D01*
X88471Y-70616D01*
X88558Y-70404D01*
X88559Y-70176D01*
X88471Y-69964D01*
X88310Y-69802D01*
X88098Y-69715D01*
X87870Y-69714D01*
X87658Y-69802D01*
X87496Y-69963D01*
X87480Y-70004D01*
X87480Y-68404D01*
X87480Y-67404D01*
X87407Y-67228D01*
X87272Y-67093D01*
X87095Y-67020D01*
X86904Y-67019D01*
X86728Y-67092D01*
X86593Y-67227D01*
X86520Y-67404D01*
X86519Y-67595D01*
X86592Y-67771D01*
X86727Y-67906D01*
X86904Y-67979D01*
X87095Y-67980D01*
X87271Y-67907D01*
X87406Y-67772D01*
X87479Y-67595D01*
X87480Y-67404D01*
X87480Y-68404D01*
X87407Y-68228D01*
X87272Y-68093D01*
X87095Y-68020D01*
X86904Y-68019D01*
X86728Y-68092D01*
X86593Y-68227D01*
X86520Y-68404D01*
X86519Y-68595D01*
X86592Y-68771D01*
X86727Y-68906D01*
X86904Y-68979D01*
X87095Y-68980D01*
X87271Y-68907D01*
X87406Y-68772D01*
X87479Y-68595D01*
X87480Y-68404D01*
X87480Y-70004D01*
X87409Y-70175D01*
X87408Y-70403D01*
X87496Y-70615D01*
X87657Y-70777D01*
X87784Y-70829D01*
X87784Y-74670D01*
X87658Y-74722D01*
X87496Y-74883D01*
X87409Y-75095D01*
X87408Y-75323D01*
X87496Y-75535D01*
X87657Y-75697D01*
X87869Y-75784D01*
X88097Y-75785D01*
X88309Y-75697D01*
X88471Y-75536D01*
X88558Y-75324D01*
X88559Y-75096D01*
X88559Y-75950D01*
X86595Y-75950D01*
X86595Y-75297D01*
X86595Y-70377D01*
X86585Y-70149D01*
X86517Y-69987D01*
X86437Y-69938D01*
X86367Y-70009D01*
X86367Y-69868D01*
X86318Y-69788D01*
X86103Y-69710D01*
X85875Y-69720D01*
X85713Y-69788D01*
X85664Y-69868D01*
X86016Y-70219D01*
X86367Y-69868D01*
X86367Y-70009D01*
X86086Y-70290D01*
X86437Y-70641D01*
X86517Y-70592D01*
X86595Y-70377D01*
X86595Y-75297D01*
X86585Y-75069D01*
X86517Y-74907D01*
X86437Y-74858D01*
X86367Y-74929D01*
X86367Y-74788D01*
X86367Y-70711D01*
X86016Y-70360D01*
X85945Y-70431D01*
X85945Y-70290D01*
X85594Y-69938D01*
X85514Y-69987D01*
X85436Y-70202D01*
X85446Y-70430D01*
X85514Y-70592D01*
X85594Y-70641D01*
X85945Y-70290D01*
X85945Y-70431D01*
X85664Y-70711D01*
X85713Y-70791D01*
X85928Y-70869D01*
X86156Y-70859D01*
X86318Y-70791D01*
X86367Y-70711D01*
X86367Y-74788D01*
X86318Y-74708D01*
X86103Y-74630D01*
X85875Y-74640D01*
X85713Y-74708D01*
X85664Y-74788D01*
X86016Y-75139D01*
X86367Y-74788D01*
X86367Y-74929D01*
X86086Y-75210D01*
X86437Y-75561D01*
X86517Y-75512D01*
X86595Y-75297D01*
X86595Y-75950D01*
X86367Y-75950D01*
X86367Y-75631D01*
X86016Y-75280D01*
X85945Y-75351D01*
X85945Y-75210D01*
X85594Y-74858D01*
X85514Y-74907D01*
X85436Y-75122D01*
X85446Y-75350D01*
X85514Y-75512D01*
X85594Y-75561D01*
X85945Y-75210D01*
X85945Y-75351D01*
X85664Y-75631D01*
X85713Y-75711D01*
X85928Y-75789D01*
X86156Y-75779D01*
X86318Y-75711D01*
X86367Y-75631D01*
X86367Y-75950D01*
X83309Y-75950D01*
X83309Y-75096D01*
X83221Y-74884D01*
X83060Y-74722D01*
X82934Y-74670D01*
X82934Y-70829D01*
X83059Y-70777D01*
X83221Y-70616D01*
X83308Y-70404D01*
X83309Y-70176D01*
X83221Y-69964D01*
X83060Y-69802D01*
X82934Y-69750D01*
X82934Y-65275D01*
X83025Y-65184D01*
X83074Y-65064D01*
X83075Y-64935D01*
X83025Y-64816D01*
X82934Y-64724D01*
X82814Y-64675D01*
X82685Y-64674D01*
X82680Y-64677D01*
X82680Y-60551D01*
X82667Y-60383D01*
X82627Y-60287D01*
X82563Y-60257D01*
X82492Y-60328D01*
X82492Y-60186D01*
X82462Y-60122D01*
X82301Y-60069D01*
X82133Y-60082D01*
X82037Y-60122D01*
X82007Y-60186D01*
X82250Y-60429D01*
X82492Y-60186D01*
X82492Y-60328D01*
X82320Y-60500D01*
X82563Y-60742D01*
X82627Y-60712D01*
X82680Y-60551D01*
X82680Y-64677D01*
X82675Y-64679D01*
X82675Y-63415D01*
X82610Y-63259D01*
X82492Y-63141D01*
X82492Y-60813D01*
X82250Y-60570D01*
X82179Y-60641D01*
X82179Y-60500D01*
X81936Y-60257D01*
X81872Y-60287D01*
X81819Y-60448D01*
X81832Y-60616D01*
X81872Y-60712D01*
X81936Y-60742D01*
X82179Y-60500D01*
X82179Y-60641D01*
X82007Y-60813D01*
X82037Y-60877D01*
X82198Y-60930D01*
X82366Y-60917D01*
X82462Y-60877D01*
X82492Y-60813D01*
X82492Y-63141D01*
X82491Y-63139D01*
X82334Y-63075D01*
X82165Y-63074D01*
X82009Y-63139D01*
X81889Y-63258D01*
X81825Y-63415D01*
X81824Y-63584D01*
X81889Y-63740D01*
X82008Y-63860D01*
X82165Y-63924D01*
X82334Y-63925D01*
X82490Y-63860D01*
X82610Y-63741D01*
X82674Y-63584D01*
X82675Y-63415D01*
X82675Y-64679D01*
X82566Y-64724D01*
X82474Y-64815D01*
X82425Y-64935D01*
X82424Y-65064D01*
X82474Y-65183D01*
X82534Y-65243D01*
X82534Y-69750D01*
X82408Y-69802D01*
X82246Y-69963D01*
X82235Y-69992D01*
X82235Y-67565D01*
X82223Y-67374D01*
X82173Y-67254D01*
X82102Y-67217D01*
X82032Y-67288D01*
X82032Y-67147D01*
X81995Y-67076D01*
X81815Y-67014D01*
X81675Y-67023D01*
X81675Y-63415D01*
X81675Y-60415D01*
X81610Y-60259D01*
X81491Y-60139D01*
X81334Y-60075D01*
X81165Y-60074D01*
X81009Y-60139D01*
X80889Y-60258D01*
X80825Y-60415D01*
X80824Y-60584D01*
X80889Y-60740D01*
X81008Y-60860D01*
X81050Y-60877D01*
X81050Y-60990D01*
X80974Y-61065D01*
X80925Y-61185D01*
X80924Y-61314D01*
X80974Y-61433D01*
X81065Y-61525D01*
X81185Y-61574D01*
X81314Y-61575D01*
X81433Y-61525D01*
X81525Y-61434D01*
X81574Y-61314D01*
X81575Y-61185D01*
X81525Y-61066D01*
X81450Y-60990D01*
X81450Y-60877D01*
X81490Y-60860D01*
X81610Y-60741D01*
X81674Y-60584D01*
X81675Y-60415D01*
X81675Y-63415D01*
X81610Y-63259D01*
X81491Y-63139D01*
X81334Y-63075D01*
X81165Y-63074D01*
X81009Y-63139D01*
X80889Y-63258D01*
X80825Y-63415D01*
X80824Y-63584D01*
X80889Y-63740D01*
X81008Y-63860D01*
X81050Y-63877D01*
X81050Y-66417D01*
X80705Y-66762D01*
X80705Y-66057D01*
X80692Y-65879D01*
X80675Y-65836D01*
X80675Y-63415D01*
X80675Y-60415D01*
X80610Y-60259D01*
X80491Y-60139D01*
X80334Y-60075D01*
X80165Y-60074D01*
X80009Y-60139D01*
X79889Y-60258D01*
X79825Y-60415D01*
X79824Y-60584D01*
X79889Y-60740D01*
X80008Y-60860D01*
X80050Y-60877D01*
X80050Y-61240D01*
X79974Y-61315D01*
X79925Y-61435D01*
X79924Y-61564D01*
X79974Y-61683D01*
X80065Y-61775D01*
X80185Y-61824D01*
X80314Y-61825D01*
X80433Y-61775D01*
X80525Y-61684D01*
X80574Y-61564D01*
X80575Y-61435D01*
X80525Y-61316D01*
X80450Y-61240D01*
X80450Y-60877D01*
X80490Y-60860D01*
X80610Y-60741D01*
X80674Y-60584D01*
X80675Y-60415D01*
X80675Y-63415D01*
X80610Y-63259D01*
X80491Y-63139D01*
X80334Y-63075D01*
X80165Y-63074D01*
X80009Y-63139D01*
X79889Y-63258D01*
X79825Y-63415D01*
X79824Y-63584D01*
X79889Y-63740D01*
X80008Y-63860D01*
X80050Y-63877D01*
X80050Y-64500D01*
X80050Y-64740D01*
X79974Y-64815D01*
X79925Y-64935D01*
X79924Y-65064D01*
X79974Y-65183D01*
X80065Y-65275D01*
X80185Y-65324D01*
X80314Y-65325D01*
X80433Y-65275D01*
X80525Y-65184D01*
X80574Y-65064D01*
X80575Y-64935D01*
X80525Y-64816D01*
X80450Y-64740D01*
X80450Y-64500D01*
X80450Y-63877D01*
X80490Y-63860D01*
X80610Y-63741D01*
X80674Y-63584D01*
X80675Y-63415D01*
X80675Y-65836D01*
X80648Y-65772D01*
X80581Y-65739D01*
X80510Y-65810D01*
X80510Y-65668D01*
X80477Y-65601D01*
X80307Y-65544D01*
X80129Y-65557D01*
X80022Y-65601D01*
X79989Y-65668D01*
X80250Y-65929D01*
X80510Y-65668D01*
X80510Y-65810D01*
X80320Y-66000D01*
X80581Y-66260D01*
X80648Y-66227D01*
X80705Y-66057D01*
X80705Y-66762D01*
X80510Y-66956D01*
X80510Y-66331D01*
X80250Y-66070D01*
X80179Y-66141D01*
X80179Y-66000D01*
X79918Y-65739D01*
X79851Y-65772D01*
X79794Y-65942D01*
X79807Y-66120D01*
X79851Y-66227D01*
X79918Y-66260D01*
X80179Y-66000D01*
X80179Y-66141D01*
X79989Y-66331D01*
X80022Y-66398D01*
X80192Y-66455D01*
X80370Y-66442D01*
X80477Y-66398D01*
X80510Y-66331D01*
X80510Y-66956D01*
X79608Y-67858D01*
X79565Y-67923D01*
X79550Y-68000D01*
X79550Y-73990D01*
X79474Y-74065D01*
X79450Y-74124D01*
X79450Y-63877D01*
X79490Y-63860D01*
X79610Y-63741D01*
X79674Y-63584D01*
X79675Y-63415D01*
X79610Y-63259D01*
X79491Y-63139D01*
X79334Y-63075D01*
X79165Y-63074D01*
X79009Y-63139D01*
X78950Y-63198D01*
X78950Y-62582D01*
X79391Y-62141D01*
X79434Y-62076D01*
X79434Y-62076D01*
X79437Y-62063D01*
X79449Y-62000D01*
X79450Y-62000D01*
X79450Y-60877D01*
X79490Y-60860D01*
X79610Y-60741D01*
X79674Y-60584D01*
X79675Y-60415D01*
X79610Y-60259D01*
X79491Y-60139D01*
X79334Y-60075D01*
X79165Y-60074D01*
X79009Y-60139D01*
X78889Y-60258D01*
X78825Y-60415D01*
X78824Y-60584D01*
X78889Y-60740D01*
X79008Y-60860D01*
X79050Y-60877D01*
X79050Y-61917D01*
X78675Y-62292D01*
X78675Y-60415D01*
X78610Y-60259D01*
X78491Y-60139D01*
X78334Y-60075D01*
X78165Y-60074D01*
X78009Y-60139D01*
X77889Y-60258D01*
X77825Y-60415D01*
X77824Y-60584D01*
X77889Y-60740D01*
X78008Y-60860D01*
X78165Y-60924D01*
X78334Y-60925D01*
X78490Y-60860D01*
X78610Y-60741D01*
X78674Y-60584D01*
X78675Y-60415D01*
X78675Y-62292D01*
X78608Y-62358D01*
X78565Y-62423D01*
X78550Y-62500D01*
X78550Y-63198D01*
X78491Y-63139D01*
X78334Y-63075D01*
X78165Y-63074D01*
X78009Y-63139D01*
X77889Y-63258D01*
X77825Y-63415D01*
X77824Y-63584D01*
X77889Y-63740D01*
X78008Y-63860D01*
X78050Y-63877D01*
X78050Y-65663D01*
X78005Y-65618D01*
X77839Y-65550D01*
X77660Y-65549D01*
X77495Y-65618D01*
X77450Y-65663D01*
X77450Y-63877D01*
X77490Y-63860D01*
X77610Y-63741D01*
X77674Y-63584D01*
X77675Y-63415D01*
X77675Y-60415D01*
X77610Y-60259D01*
X77491Y-60139D01*
X77334Y-60075D01*
X77165Y-60074D01*
X77009Y-60139D01*
X76889Y-60258D01*
X76825Y-60415D01*
X76824Y-60584D01*
X76889Y-60740D01*
X77008Y-60860D01*
X77050Y-60877D01*
X77050Y-61740D01*
X76974Y-61815D01*
X76925Y-61935D01*
X76924Y-62064D01*
X76974Y-62183D01*
X77065Y-62275D01*
X77185Y-62324D01*
X77314Y-62325D01*
X77433Y-62275D01*
X77525Y-62184D01*
X77574Y-62064D01*
X77575Y-61935D01*
X77525Y-61816D01*
X77450Y-61740D01*
X77450Y-60877D01*
X77490Y-60860D01*
X77610Y-60741D01*
X77674Y-60584D01*
X77675Y-60415D01*
X77675Y-63415D01*
X77610Y-63259D01*
X77491Y-63139D01*
X77334Y-63075D01*
X77165Y-63074D01*
X77009Y-63139D01*
X76889Y-63258D01*
X76825Y-63415D01*
X76824Y-63584D01*
X76889Y-63740D01*
X77008Y-63860D01*
X77050Y-63877D01*
X77050Y-68917D01*
X76980Y-68987D01*
X76980Y-68404D01*
X76980Y-67404D01*
X76907Y-67228D01*
X76772Y-67093D01*
X76675Y-67052D01*
X76675Y-60415D01*
X76610Y-60259D01*
X76491Y-60139D01*
X76334Y-60075D01*
X76165Y-60074D01*
X76009Y-60139D01*
X75889Y-60258D01*
X75825Y-60415D01*
X75824Y-60584D01*
X75889Y-60740D01*
X76008Y-60860D01*
X76050Y-60877D01*
X76050Y-62240D01*
X75974Y-62315D01*
X75925Y-62435D01*
X75924Y-62564D01*
X75974Y-62683D01*
X76065Y-62775D01*
X76185Y-62824D01*
X76314Y-62825D01*
X76433Y-62775D01*
X76525Y-62684D01*
X76574Y-62564D01*
X76575Y-62435D01*
X76525Y-62316D01*
X76450Y-62240D01*
X76450Y-60877D01*
X76490Y-60860D01*
X76610Y-60741D01*
X76674Y-60584D01*
X76675Y-60415D01*
X76675Y-67052D01*
X76675Y-67052D01*
X76675Y-63745D01*
X76675Y-63195D01*
X76652Y-63140D01*
X76610Y-63097D01*
X76554Y-63075D01*
X76495Y-63074D01*
X75945Y-63074D01*
X75890Y-63097D01*
X75847Y-63139D01*
X75825Y-63194D01*
X75825Y-61185D01*
X75775Y-61066D01*
X75684Y-60974D01*
X75564Y-60925D01*
X75435Y-60924D01*
X75316Y-60974D01*
X75224Y-61065D01*
X75175Y-61185D01*
X75174Y-61314D01*
X75224Y-61433D01*
X75300Y-61509D01*
X75300Y-68167D01*
X75292Y-68175D01*
X75185Y-68174D01*
X75066Y-68224D01*
X74974Y-68315D01*
X74950Y-68374D01*
X74950Y-62410D01*
X74950Y-58410D01*
X74881Y-58245D01*
X74755Y-58118D01*
X74589Y-58050D01*
X74410Y-58049D01*
X74245Y-58118D01*
X74118Y-58244D01*
X74050Y-58410D01*
X74049Y-58589D01*
X74118Y-58754D01*
X74244Y-58881D01*
X74410Y-58949D01*
X74589Y-58950D01*
X74754Y-58881D01*
X74881Y-58755D01*
X74949Y-58589D01*
X74950Y-58410D01*
X74950Y-62410D01*
X74881Y-62245D01*
X74755Y-62118D01*
X74589Y-62050D01*
X74410Y-62049D01*
X74245Y-62118D01*
X74118Y-62244D01*
X74050Y-62410D01*
X74049Y-62589D01*
X74118Y-62754D01*
X74244Y-62881D01*
X74410Y-62949D01*
X74589Y-62950D01*
X74754Y-62881D01*
X74881Y-62755D01*
X74949Y-62589D01*
X74950Y-62410D01*
X74950Y-68374D01*
X74925Y-68435D01*
X74924Y-68564D01*
X74974Y-68683D01*
X75065Y-68775D01*
X75185Y-68824D01*
X75314Y-68825D01*
X75433Y-68775D01*
X75525Y-68684D01*
X75574Y-68564D01*
X75575Y-68457D01*
X75641Y-68391D01*
X75641Y-68391D01*
X75670Y-68348D01*
X75684Y-68326D01*
X75684Y-68326D01*
X75699Y-68250D01*
X75700Y-68250D01*
X75700Y-61509D01*
X75775Y-61434D01*
X75824Y-61314D01*
X75825Y-61185D01*
X75825Y-63194D01*
X75825Y-63195D01*
X75824Y-63254D01*
X75824Y-63804D01*
X75847Y-63859D01*
X75889Y-63902D01*
X75945Y-63924D01*
X76004Y-63925D01*
X76050Y-63925D01*
X76050Y-65740D01*
X75974Y-65815D01*
X75925Y-65935D01*
X75924Y-66064D01*
X75974Y-66183D01*
X76065Y-66275D01*
X76185Y-66324D01*
X76314Y-66325D01*
X76433Y-66275D01*
X76525Y-66184D01*
X76574Y-66064D01*
X76575Y-65935D01*
X76525Y-65816D01*
X76450Y-65740D01*
X76450Y-63925D01*
X76554Y-63925D01*
X76609Y-63902D01*
X76652Y-63860D01*
X76674Y-63804D01*
X76675Y-63745D01*
X76675Y-67052D01*
X76595Y-67020D01*
X76404Y-67019D01*
X76228Y-67092D01*
X76093Y-67227D01*
X76020Y-67404D01*
X76019Y-67595D01*
X76092Y-67771D01*
X76227Y-67906D01*
X76404Y-67979D01*
X76595Y-67980D01*
X76771Y-67907D01*
X76906Y-67772D01*
X76979Y-67595D01*
X76980Y-67404D01*
X76980Y-68404D01*
X76907Y-68228D01*
X76772Y-68093D01*
X76595Y-68020D01*
X76404Y-68019D01*
X76228Y-68092D01*
X76093Y-68227D01*
X76020Y-68404D01*
X76019Y-68595D01*
X76092Y-68771D01*
X76227Y-68906D01*
X76404Y-68979D01*
X76595Y-68980D01*
X76771Y-68907D01*
X76906Y-68772D01*
X76979Y-68595D01*
X76980Y-68404D01*
X76980Y-68987D01*
X76358Y-69608D01*
X76315Y-69673D01*
X76300Y-69750D01*
X76300Y-70740D01*
X76224Y-70815D01*
X76175Y-70935D01*
X76174Y-71064D01*
X76224Y-71183D01*
X76315Y-71275D01*
X76435Y-71324D01*
X76564Y-71325D01*
X76683Y-71275D01*
X76775Y-71184D01*
X76824Y-71064D01*
X76825Y-70935D01*
X76775Y-70816D01*
X76700Y-70740D01*
X76700Y-69832D01*
X77391Y-69141D01*
X77391Y-69141D01*
X77420Y-69098D01*
X77434Y-69076D01*
X77434Y-69076D01*
X77449Y-69000D01*
X77450Y-69000D01*
X77450Y-66336D01*
X77494Y-66381D01*
X77660Y-66449D01*
X77839Y-66450D01*
X78004Y-66381D01*
X78050Y-66336D01*
X78050Y-70154D01*
X77971Y-69964D01*
X77810Y-69802D01*
X77598Y-69715D01*
X77370Y-69714D01*
X77158Y-69802D01*
X76996Y-69963D01*
X76909Y-70175D01*
X76908Y-70403D01*
X76996Y-70615D01*
X77157Y-70777D01*
X77284Y-70829D01*
X77284Y-74670D01*
X77158Y-74722D01*
X76996Y-74883D01*
X76909Y-75095D01*
X76908Y-75323D01*
X76996Y-75535D01*
X77157Y-75697D01*
X77369Y-75784D01*
X77597Y-75785D01*
X77809Y-75697D01*
X77971Y-75536D01*
X78058Y-75324D01*
X78059Y-75096D01*
X77971Y-74884D01*
X77810Y-74722D01*
X77684Y-74670D01*
X77684Y-70829D01*
X77809Y-70777D01*
X77971Y-70616D01*
X78050Y-70426D01*
X78050Y-71240D01*
X77974Y-71315D01*
X77925Y-71435D01*
X77924Y-71564D01*
X77974Y-71683D01*
X78065Y-71775D01*
X78185Y-71824D01*
X78314Y-71825D01*
X78433Y-71775D01*
X78525Y-71684D01*
X78574Y-71564D01*
X78575Y-71435D01*
X78525Y-71316D01*
X78450Y-71240D01*
X78450Y-68625D01*
X78474Y-68683D01*
X78565Y-68775D01*
X78685Y-68824D01*
X78814Y-68825D01*
X78933Y-68775D01*
X79025Y-68684D01*
X79050Y-68625D01*
X79050Y-74500D01*
X79050Y-74990D01*
X78974Y-75065D01*
X78925Y-75185D01*
X78924Y-75314D01*
X78974Y-75433D01*
X79065Y-75525D01*
X79185Y-75574D01*
X79314Y-75575D01*
X79433Y-75525D01*
X79525Y-75434D01*
X79574Y-75314D01*
X79575Y-75185D01*
X79525Y-75066D01*
X79450Y-74990D01*
X79450Y-74500D01*
X79450Y-74375D01*
X79474Y-74433D01*
X79565Y-74525D01*
X79685Y-74574D01*
X79814Y-74575D01*
X79933Y-74525D01*
X80025Y-74434D01*
X80074Y-74314D01*
X80075Y-74185D01*
X80025Y-74066D01*
X79950Y-73990D01*
X79950Y-68082D01*
X81391Y-66641D01*
X81391Y-66641D01*
X81420Y-66598D01*
X81434Y-66576D01*
X81434Y-66576D01*
X81449Y-66500D01*
X81450Y-66500D01*
X81450Y-63877D01*
X81490Y-63860D01*
X81610Y-63741D01*
X81674Y-63584D01*
X81675Y-63415D01*
X81675Y-67023D01*
X81624Y-67026D01*
X81504Y-67076D01*
X81467Y-67147D01*
X81750Y-67429D01*
X82032Y-67147D01*
X82032Y-67288D01*
X81820Y-67500D01*
X82102Y-67782D01*
X82173Y-67745D01*
X82235Y-67565D01*
X82235Y-69992D01*
X82230Y-70004D01*
X82230Y-68404D01*
X82157Y-68228D01*
X82032Y-68103D01*
X82032Y-67852D01*
X81750Y-67570D01*
X81679Y-67641D01*
X81679Y-67500D01*
X81397Y-67217D01*
X81326Y-67254D01*
X81264Y-67434D01*
X81276Y-67625D01*
X81326Y-67745D01*
X81397Y-67782D01*
X81679Y-67500D01*
X81679Y-67641D01*
X81467Y-67852D01*
X81504Y-67923D01*
X81684Y-67985D01*
X81875Y-67973D01*
X81995Y-67923D01*
X82032Y-67852D01*
X82032Y-68103D01*
X82022Y-68093D01*
X81845Y-68020D01*
X81654Y-68019D01*
X81478Y-68092D01*
X81343Y-68227D01*
X81270Y-68404D01*
X81269Y-68595D01*
X81342Y-68771D01*
X81477Y-68906D01*
X81654Y-68979D01*
X81845Y-68980D01*
X82021Y-68907D01*
X82156Y-68772D01*
X82229Y-68595D01*
X82230Y-68404D01*
X82230Y-70004D01*
X82159Y-70175D01*
X82158Y-70403D01*
X82246Y-70615D01*
X82407Y-70777D01*
X82534Y-70829D01*
X82534Y-74670D01*
X82408Y-74722D01*
X82246Y-74883D01*
X82159Y-75095D01*
X82158Y-75323D01*
X82246Y-75535D01*
X82407Y-75697D01*
X82619Y-75784D01*
X82847Y-75785D01*
X83059Y-75697D01*
X83221Y-75536D01*
X83308Y-75324D01*
X83309Y-75096D01*
X83309Y-75950D01*
X81345Y-75950D01*
X81345Y-75297D01*
X81345Y-70377D01*
X81335Y-70149D01*
X81267Y-69987D01*
X81187Y-69938D01*
X81117Y-70009D01*
X81117Y-69868D01*
X81068Y-69788D01*
X80853Y-69710D01*
X80625Y-69720D01*
X80463Y-69788D01*
X80414Y-69868D01*
X80766Y-70219D01*
X81117Y-69868D01*
X81117Y-70009D01*
X80836Y-70290D01*
X81187Y-70641D01*
X81267Y-70592D01*
X81345Y-70377D01*
X81345Y-75297D01*
X81335Y-75069D01*
X81267Y-74907D01*
X81187Y-74858D01*
X81117Y-74929D01*
X81117Y-74788D01*
X81117Y-70711D01*
X80766Y-70360D01*
X80695Y-70431D01*
X80695Y-70290D01*
X80344Y-69938D01*
X80264Y-69987D01*
X80186Y-70202D01*
X80196Y-70430D01*
X80264Y-70592D01*
X80344Y-70641D01*
X80695Y-70290D01*
X80695Y-70431D01*
X80414Y-70711D01*
X80463Y-70791D01*
X80678Y-70869D01*
X80906Y-70859D01*
X81068Y-70791D01*
X81117Y-70711D01*
X81117Y-74788D01*
X81068Y-74708D01*
X80853Y-74630D01*
X80625Y-74640D01*
X80463Y-74708D01*
X80414Y-74788D01*
X80766Y-75139D01*
X81117Y-74788D01*
X81117Y-74929D01*
X80836Y-75210D01*
X81187Y-75561D01*
X81267Y-75512D01*
X81345Y-75297D01*
X81345Y-75950D01*
X81117Y-75950D01*
X81117Y-75631D01*
X80766Y-75280D01*
X80695Y-75351D01*
X80695Y-75210D01*
X80344Y-74858D01*
X80264Y-74907D01*
X80186Y-75122D01*
X80196Y-75350D01*
X80264Y-75512D01*
X80344Y-75561D01*
X80695Y-75210D01*
X80695Y-75351D01*
X80414Y-75631D01*
X80463Y-75711D01*
X80678Y-75789D01*
X80906Y-75779D01*
X81068Y-75711D01*
X81117Y-75631D01*
X81117Y-75950D01*
X76095Y-75950D01*
X76095Y-75297D01*
X76095Y-70377D01*
X76085Y-70149D01*
X76017Y-69987D01*
X75937Y-69938D01*
X75867Y-70009D01*
X75867Y-69868D01*
X75818Y-69788D01*
X75603Y-69710D01*
X75375Y-69720D01*
X75213Y-69788D01*
X75164Y-69868D01*
X75516Y-70219D01*
X75867Y-69868D01*
X75867Y-70009D01*
X75586Y-70290D01*
X75937Y-70641D01*
X76017Y-70592D01*
X76095Y-70377D01*
X76095Y-75297D01*
X76085Y-75069D01*
X76017Y-74907D01*
X75937Y-74858D01*
X75867Y-74929D01*
X75867Y-74788D01*
X75867Y-70711D01*
X75516Y-70360D01*
X75445Y-70431D01*
X75445Y-70290D01*
X75094Y-69938D01*
X75014Y-69987D01*
X74936Y-70202D01*
X74946Y-70430D01*
X75014Y-70592D01*
X75094Y-70641D01*
X75445Y-70290D01*
X75445Y-70431D01*
X75164Y-70711D01*
X75213Y-70791D01*
X75428Y-70869D01*
X75656Y-70859D01*
X75818Y-70791D01*
X75867Y-70711D01*
X75867Y-74788D01*
X75818Y-74708D01*
X75603Y-74630D01*
X75375Y-74640D01*
X75213Y-74708D01*
X75164Y-74788D01*
X75516Y-75139D01*
X75867Y-74788D01*
X75867Y-74929D01*
X75586Y-75210D01*
X75937Y-75561D01*
X76017Y-75512D01*
X76095Y-75297D01*
X76095Y-75950D01*
X75867Y-75950D01*
X75867Y-75631D01*
X75516Y-75280D01*
X75445Y-75351D01*
X75445Y-75210D01*
X75094Y-74858D01*
X75014Y-74907D01*
X74936Y-75122D01*
X74946Y-75350D01*
X75014Y-75512D01*
X75094Y-75561D01*
X75445Y-75210D01*
X75445Y-75351D01*
X75164Y-75631D01*
X75213Y-75711D01*
X75428Y-75789D01*
X75656Y-75779D01*
X75818Y-75711D01*
X75867Y-75631D01*
X75867Y-75950D01*
X74200Y-75950D01*
X74200Y-65910D01*
X74131Y-65745D01*
X74005Y-65618D01*
X73839Y-65550D01*
X73675Y-65549D01*
X73675Y-62915D01*
X73675Y-61915D01*
X73675Y-60915D01*
X73610Y-60759D01*
X73491Y-60639D01*
X73334Y-60575D01*
X73165Y-60574D01*
X73009Y-60639D01*
X72889Y-60758D01*
X72825Y-60915D01*
X72824Y-61084D01*
X72889Y-61240D01*
X73008Y-61360D01*
X73165Y-61424D01*
X73334Y-61425D01*
X73490Y-61360D01*
X73610Y-61241D01*
X73674Y-61084D01*
X73675Y-60915D01*
X73675Y-61915D01*
X73610Y-61759D01*
X73491Y-61639D01*
X73334Y-61575D01*
X73165Y-61574D01*
X73009Y-61639D01*
X72889Y-61758D01*
X72825Y-61915D01*
X72824Y-62084D01*
X72889Y-62240D01*
X73008Y-62360D01*
X73165Y-62424D01*
X73334Y-62425D01*
X73490Y-62360D01*
X73610Y-62241D01*
X73674Y-62084D01*
X73675Y-61915D01*
X73675Y-62915D01*
X73610Y-62759D01*
X73491Y-62639D01*
X73334Y-62575D01*
X73165Y-62574D01*
X73009Y-62639D01*
X72889Y-62758D01*
X72825Y-62915D01*
X72824Y-63084D01*
X72889Y-63240D01*
X73008Y-63360D01*
X73165Y-63424D01*
X73334Y-63425D01*
X73490Y-63360D01*
X73610Y-63241D01*
X73674Y-63084D01*
X73675Y-62915D01*
X73675Y-65549D01*
X73675Y-65549D01*
X73675Y-64245D01*
X73675Y-63695D01*
X73652Y-63640D01*
X73610Y-63597D01*
X73554Y-63575D01*
X73495Y-63574D01*
X72945Y-63574D01*
X72890Y-63597D01*
X72847Y-63639D01*
X72825Y-63695D01*
X72824Y-63754D01*
X72824Y-64304D01*
X72847Y-64359D01*
X72889Y-64402D01*
X72945Y-64424D01*
X73004Y-64425D01*
X73554Y-64425D01*
X73609Y-64402D01*
X73652Y-64360D01*
X73674Y-64304D01*
X73675Y-64245D01*
X73675Y-65549D01*
X73660Y-65549D01*
X73495Y-65618D01*
X73368Y-65744D01*
X73300Y-65910D01*
X73299Y-66089D01*
X73368Y-66254D01*
X73494Y-66381D01*
X73660Y-66449D01*
X73839Y-66450D01*
X74004Y-66381D01*
X74131Y-66255D01*
X74199Y-66089D01*
X74200Y-65910D01*
X74200Y-75950D01*
X72809Y-75950D01*
X72809Y-75096D01*
X72721Y-74884D01*
X72560Y-74722D01*
X72434Y-74670D01*
X72434Y-72775D01*
X72525Y-72684D01*
X72574Y-72564D01*
X72575Y-72435D01*
X72525Y-72316D01*
X72434Y-72224D01*
X72434Y-72224D01*
X72434Y-70829D01*
X72559Y-70777D01*
X72721Y-70616D01*
X72808Y-70404D01*
X72809Y-70176D01*
X72721Y-69964D01*
X72560Y-69802D01*
X72348Y-69715D01*
X72175Y-69714D01*
X72175Y-65915D01*
X72175Y-58415D01*
X72110Y-58259D01*
X71991Y-58139D01*
X71834Y-58075D01*
X71665Y-58074D01*
X71509Y-58139D01*
X71389Y-58258D01*
X71325Y-58415D01*
X71324Y-58584D01*
X71389Y-58740D01*
X71508Y-58860D01*
X71665Y-58924D01*
X71834Y-58925D01*
X71990Y-58860D01*
X72110Y-58741D01*
X72174Y-58584D01*
X72175Y-58415D01*
X72175Y-65915D01*
X72110Y-65759D01*
X71991Y-65639D01*
X71834Y-65575D01*
X71665Y-65574D01*
X71509Y-65639D01*
X71389Y-65758D01*
X71325Y-65915D01*
X71324Y-66084D01*
X71389Y-66240D01*
X71508Y-66360D01*
X71665Y-66424D01*
X71834Y-66425D01*
X71990Y-66360D01*
X72110Y-66241D01*
X72174Y-66084D01*
X72175Y-65915D01*
X72175Y-69714D01*
X72120Y-69714D01*
X71908Y-69802D01*
X71746Y-69963D01*
X71735Y-69992D01*
X71735Y-67565D01*
X71723Y-67374D01*
X71673Y-67254D01*
X71602Y-67217D01*
X71532Y-67288D01*
X71532Y-67147D01*
X71495Y-67076D01*
X71315Y-67014D01*
X71180Y-67023D01*
X71180Y-66051D01*
X71180Y-58551D01*
X71167Y-58383D01*
X71127Y-58287D01*
X71063Y-58257D01*
X70992Y-58328D01*
X70992Y-58186D01*
X70962Y-58122D01*
X70801Y-58069D01*
X70633Y-58082D01*
X70537Y-58122D01*
X70507Y-58186D01*
X70750Y-58429D01*
X70992Y-58186D01*
X70992Y-58328D01*
X70820Y-58500D01*
X71063Y-58742D01*
X71127Y-58712D01*
X71180Y-58551D01*
X71180Y-66051D01*
X71167Y-65883D01*
X71127Y-65787D01*
X71063Y-65757D01*
X70992Y-65828D01*
X70992Y-65686D01*
X70992Y-58813D01*
X70750Y-58570D01*
X70679Y-58641D01*
X70679Y-58500D01*
X70436Y-58257D01*
X70372Y-58287D01*
X70319Y-58448D01*
X70332Y-58616D01*
X70372Y-58712D01*
X70436Y-58742D01*
X70679Y-58500D01*
X70679Y-58641D01*
X70507Y-58813D01*
X70537Y-58877D01*
X70698Y-58930D01*
X70866Y-58917D01*
X70962Y-58877D01*
X70992Y-58813D01*
X70992Y-65686D01*
X70962Y-65622D01*
X70801Y-65569D01*
X70680Y-65579D01*
X70680Y-63051D01*
X70680Y-61051D01*
X70667Y-60883D01*
X70627Y-60787D01*
X70563Y-60757D01*
X70492Y-60828D01*
X70492Y-60686D01*
X70462Y-60622D01*
X70301Y-60569D01*
X70133Y-60582D01*
X70037Y-60622D01*
X70007Y-60686D01*
X70250Y-60929D01*
X70492Y-60686D01*
X70492Y-60828D01*
X70320Y-61000D01*
X70563Y-61242D01*
X70627Y-61212D01*
X70680Y-61051D01*
X70680Y-63051D01*
X70675Y-62984D01*
X70675Y-61915D01*
X70610Y-61759D01*
X70492Y-61641D01*
X70492Y-61313D01*
X70250Y-61070D01*
X70179Y-61141D01*
X70179Y-61000D01*
X69936Y-60757D01*
X69872Y-60787D01*
X69819Y-60948D01*
X69832Y-61116D01*
X69872Y-61212D01*
X69936Y-61242D01*
X70179Y-61000D01*
X70179Y-61141D01*
X70007Y-61313D01*
X70037Y-61377D01*
X70198Y-61430D01*
X70366Y-61417D01*
X70462Y-61377D01*
X70492Y-61313D01*
X70492Y-61641D01*
X70491Y-61639D01*
X70334Y-61575D01*
X70165Y-61574D01*
X70009Y-61639D01*
X69889Y-61758D01*
X69825Y-61915D01*
X69824Y-62084D01*
X69889Y-62240D01*
X70008Y-62360D01*
X70165Y-62424D01*
X70334Y-62425D01*
X70490Y-62360D01*
X70610Y-62241D01*
X70674Y-62084D01*
X70675Y-61915D01*
X70675Y-62984D01*
X70667Y-62883D01*
X70627Y-62787D01*
X70563Y-62757D01*
X70492Y-62828D01*
X70492Y-62686D01*
X70462Y-62622D01*
X70301Y-62569D01*
X70133Y-62582D01*
X70037Y-62622D01*
X70007Y-62686D01*
X70250Y-62929D01*
X70492Y-62686D01*
X70492Y-62828D01*
X70320Y-63000D01*
X70563Y-63242D01*
X70627Y-63212D01*
X70680Y-63051D01*
X70680Y-65579D01*
X70675Y-65579D01*
X70675Y-63915D01*
X70610Y-63759D01*
X70492Y-63641D01*
X70492Y-63313D01*
X70250Y-63070D01*
X70179Y-63141D01*
X70179Y-63000D01*
X69936Y-62757D01*
X69872Y-62787D01*
X69819Y-62948D01*
X69832Y-63116D01*
X69872Y-63212D01*
X69936Y-63242D01*
X70179Y-63000D01*
X70179Y-63141D01*
X70007Y-63313D01*
X70037Y-63377D01*
X70198Y-63430D01*
X70366Y-63417D01*
X70462Y-63377D01*
X70492Y-63313D01*
X70492Y-63641D01*
X70491Y-63639D01*
X70334Y-63575D01*
X70165Y-63574D01*
X70009Y-63639D01*
X69889Y-63758D01*
X69825Y-63915D01*
X69824Y-64084D01*
X69889Y-64240D01*
X70008Y-64360D01*
X70165Y-64424D01*
X70334Y-64425D01*
X70490Y-64360D01*
X70610Y-64241D01*
X70674Y-64084D01*
X70675Y-63915D01*
X70675Y-65579D01*
X70633Y-65582D01*
X70537Y-65622D01*
X70507Y-65686D01*
X70750Y-65929D01*
X70992Y-65686D01*
X70992Y-65828D01*
X70820Y-66000D01*
X71063Y-66242D01*
X71127Y-66212D01*
X71180Y-66051D01*
X71180Y-67023D01*
X71124Y-67026D01*
X71004Y-67076D01*
X70992Y-67099D01*
X70992Y-66313D01*
X70750Y-66070D01*
X70679Y-66141D01*
X70679Y-66000D01*
X70436Y-65757D01*
X70372Y-65787D01*
X70319Y-65948D01*
X70332Y-66116D01*
X70372Y-66212D01*
X70436Y-66242D01*
X70679Y-66000D01*
X70679Y-66141D01*
X70507Y-66313D01*
X70537Y-66377D01*
X70698Y-66430D01*
X70866Y-66417D01*
X70962Y-66377D01*
X70992Y-66313D01*
X70992Y-67099D01*
X70967Y-67147D01*
X71250Y-67429D01*
X71532Y-67147D01*
X71532Y-67288D01*
X71320Y-67500D01*
X71602Y-67782D01*
X71673Y-67745D01*
X71735Y-67565D01*
X71735Y-69992D01*
X71730Y-70004D01*
X71730Y-68404D01*
X71657Y-68228D01*
X71532Y-68103D01*
X71532Y-67852D01*
X71250Y-67570D01*
X71179Y-67641D01*
X71179Y-67500D01*
X70897Y-67217D01*
X70826Y-67254D01*
X70764Y-67434D01*
X70776Y-67625D01*
X70826Y-67745D01*
X70897Y-67782D01*
X71179Y-67500D01*
X71179Y-67641D01*
X70967Y-67852D01*
X71004Y-67923D01*
X71184Y-67985D01*
X71375Y-67973D01*
X71495Y-67923D01*
X71532Y-67852D01*
X71532Y-68103D01*
X71522Y-68093D01*
X71345Y-68020D01*
X71154Y-68019D01*
X70978Y-68092D01*
X70843Y-68227D01*
X70770Y-68404D01*
X70769Y-68595D01*
X70842Y-68771D01*
X70977Y-68906D01*
X71154Y-68979D01*
X71345Y-68980D01*
X71521Y-68907D01*
X71656Y-68772D01*
X71729Y-68595D01*
X71730Y-68404D01*
X71730Y-70004D01*
X71659Y-70175D01*
X71658Y-70403D01*
X71746Y-70615D01*
X71907Y-70777D01*
X72034Y-70829D01*
X72034Y-72256D01*
X71974Y-72315D01*
X71925Y-72435D01*
X71924Y-72564D01*
X71974Y-72683D01*
X72034Y-72743D01*
X72034Y-74670D01*
X71908Y-74722D01*
X71746Y-74883D01*
X71659Y-75095D01*
X71658Y-75323D01*
X71746Y-75535D01*
X71907Y-75697D01*
X72119Y-75784D01*
X72347Y-75785D01*
X72559Y-75697D01*
X72721Y-75536D01*
X72808Y-75324D01*
X72809Y-75096D01*
X72809Y-75950D01*
X70845Y-75950D01*
X70845Y-75297D01*
X70845Y-70377D01*
X70835Y-70149D01*
X70767Y-69987D01*
X70687Y-69938D01*
X70617Y-70009D01*
X70617Y-69868D01*
X70568Y-69788D01*
X70353Y-69710D01*
X70125Y-69720D01*
X69963Y-69788D01*
X69914Y-69868D01*
X70266Y-70219D01*
X70617Y-69868D01*
X70617Y-70009D01*
X70336Y-70290D01*
X70687Y-70641D01*
X70767Y-70592D01*
X70845Y-70377D01*
X70845Y-75297D01*
X70835Y-75069D01*
X70767Y-74907D01*
X70687Y-74858D01*
X70617Y-74929D01*
X70617Y-74788D01*
X70617Y-70711D01*
X70266Y-70360D01*
X70195Y-70431D01*
X70195Y-70290D01*
X69844Y-69938D01*
X69764Y-69987D01*
X69686Y-70202D01*
X69696Y-70430D01*
X69764Y-70592D01*
X69844Y-70641D01*
X70195Y-70290D01*
X70195Y-70431D01*
X69914Y-70711D01*
X69963Y-70791D01*
X70178Y-70869D01*
X70406Y-70859D01*
X70568Y-70791D01*
X70617Y-70711D01*
X70617Y-74788D01*
X70568Y-74708D01*
X70353Y-74630D01*
X70125Y-74640D01*
X69963Y-74708D01*
X69914Y-74788D01*
X70266Y-75139D01*
X70617Y-74788D01*
X70617Y-74929D01*
X70336Y-75210D01*
X70687Y-75561D01*
X70767Y-75512D01*
X70845Y-75297D01*
X70845Y-75950D01*
X70617Y-75950D01*
X70617Y-75631D01*
X70266Y-75280D01*
X70195Y-75351D01*
X70195Y-75210D01*
X69844Y-74858D01*
X69764Y-74907D01*
X69686Y-75122D01*
X69696Y-75350D01*
X69764Y-75512D01*
X69844Y-75561D01*
X70195Y-75210D01*
X70195Y-75351D01*
X69914Y-75631D01*
X69963Y-75711D01*
X70178Y-75789D01*
X70406Y-75779D01*
X70568Y-75711D01*
X70617Y-75631D01*
X70617Y-75950D01*
X69200Y-75950D01*
X69200Y-64410D01*
X69200Y-60410D01*
X69131Y-60245D01*
X69005Y-60118D01*
X68839Y-60050D01*
X68660Y-60049D01*
X68495Y-60118D01*
X68368Y-60244D01*
X68300Y-60410D01*
X68299Y-60589D01*
X68368Y-60754D01*
X68494Y-60881D01*
X68660Y-60949D01*
X68839Y-60950D01*
X69004Y-60881D01*
X69131Y-60755D01*
X69199Y-60589D01*
X69200Y-60410D01*
X69200Y-64410D01*
X69131Y-64245D01*
X69005Y-64118D01*
X68839Y-64050D01*
X68660Y-64049D01*
X68495Y-64118D01*
X68368Y-64244D01*
X68300Y-64410D01*
X68299Y-64589D01*
X68368Y-64754D01*
X68494Y-64881D01*
X68660Y-64949D01*
X68839Y-64950D01*
X69004Y-64881D01*
X69131Y-64755D01*
X69199Y-64589D01*
X69200Y-64410D01*
X69200Y-75950D01*
X69180Y-75950D01*
X69180Y-66051D01*
X69167Y-65883D01*
X69127Y-65787D01*
X69063Y-65757D01*
X68992Y-65828D01*
X68992Y-65686D01*
X68962Y-65622D01*
X68801Y-65569D01*
X68633Y-65582D01*
X68537Y-65622D01*
X68507Y-65686D01*
X68750Y-65929D01*
X68992Y-65686D01*
X68992Y-65828D01*
X68820Y-66000D01*
X69063Y-66242D01*
X69127Y-66212D01*
X69180Y-66051D01*
X69180Y-75950D01*
X69075Y-75950D01*
X69075Y-68435D01*
X69025Y-68316D01*
X68950Y-68240D01*
X68950Y-67759D01*
X69025Y-67684D01*
X69074Y-67564D01*
X69075Y-67435D01*
X69025Y-67316D01*
X68992Y-67282D01*
X68992Y-66313D01*
X68750Y-66070D01*
X68679Y-66141D01*
X68679Y-66000D01*
X68436Y-65757D01*
X68372Y-65787D01*
X68319Y-65948D01*
X68332Y-66116D01*
X68372Y-66212D01*
X68436Y-66242D01*
X68679Y-66000D01*
X68679Y-66141D01*
X68507Y-66313D01*
X68537Y-66377D01*
X68698Y-66430D01*
X68866Y-66417D01*
X68962Y-66377D01*
X68992Y-66313D01*
X68992Y-67282D01*
X68934Y-67224D01*
X68814Y-67175D01*
X68685Y-67174D01*
X68566Y-67224D01*
X68474Y-67315D01*
X68425Y-67435D01*
X68424Y-67564D01*
X68474Y-67683D01*
X68550Y-67759D01*
X68550Y-68240D01*
X68474Y-68315D01*
X68425Y-68435D01*
X68424Y-68564D01*
X68474Y-68683D01*
X68565Y-68775D01*
X68685Y-68824D01*
X68814Y-68825D01*
X68933Y-68775D01*
X69025Y-68684D01*
X69074Y-68564D01*
X69075Y-68435D01*
X69075Y-75950D01*
X68175Y-75950D01*
X68175Y-65915D01*
X68110Y-65759D01*
X67991Y-65639D01*
X67834Y-65575D01*
X67665Y-65574D01*
X67509Y-65639D01*
X67389Y-65758D01*
X67325Y-65915D01*
X67324Y-66084D01*
X67389Y-66240D01*
X67508Y-66360D01*
X67665Y-66424D01*
X67834Y-66425D01*
X67990Y-66360D01*
X68110Y-66241D01*
X68174Y-66084D01*
X68175Y-65915D01*
X68175Y-75950D01*
X67559Y-75950D01*
X67559Y-75096D01*
X67471Y-74884D01*
X67310Y-74722D01*
X67184Y-74670D01*
X67184Y-70829D01*
X67309Y-70777D01*
X67471Y-70616D01*
X67558Y-70404D01*
X67559Y-70176D01*
X67471Y-69964D01*
X67310Y-69802D01*
X67205Y-69759D01*
X67205Y-60557D01*
X67192Y-60379D01*
X67148Y-60272D01*
X67081Y-60239D01*
X67010Y-60310D01*
X67010Y-60168D01*
X66977Y-60101D01*
X66807Y-60044D01*
X66629Y-60057D01*
X66522Y-60101D01*
X66489Y-60168D01*
X66750Y-60429D01*
X67010Y-60168D01*
X67010Y-60310D01*
X66820Y-60500D01*
X67081Y-60760D01*
X67148Y-60727D01*
X67205Y-60557D01*
X67205Y-69759D01*
X67200Y-69757D01*
X67200Y-64410D01*
X67131Y-64245D01*
X67010Y-64123D01*
X67010Y-60831D01*
X66750Y-60570D01*
X66679Y-60641D01*
X66679Y-60500D01*
X66418Y-60239D01*
X66351Y-60272D01*
X66294Y-60442D01*
X66307Y-60620D01*
X66351Y-60727D01*
X66418Y-60760D01*
X66679Y-60500D01*
X66679Y-60641D01*
X66489Y-60831D01*
X66522Y-60898D01*
X66692Y-60955D01*
X66870Y-60942D01*
X66977Y-60898D01*
X67010Y-60831D01*
X67010Y-64123D01*
X67005Y-64118D01*
X66839Y-64050D01*
X66660Y-64049D01*
X66495Y-64118D01*
X66368Y-64244D01*
X66300Y-64410D01*
X66299Y-64589D01*
X66368Y-64754D01*
X66494Y-64881D01*
X66660Y-64949D01*
X66839Y-64950D01*
X67004Y-64881D01*
X67131Y-64755D01*
X67199Y-64589D01*
X67200Y-64410D01*
X67200Y-69757D01*
X67098Y-69715D01*
X66870Y-69714D01*
X66658Y-69802D01*
X66496Y-69963D01*
X66480Y-70004D01*
X66480Y-68404D01*
X66480Y-67404D01*
X66407Y-67228D01*
X66272Y-67093D01*
X66225Y-67073D01*
X66225Y-58795D01*
X66225Y-58145D01*
X66202Y-58090D01*
X66160Y-58047D01*
X66104Y-58025D01*
X66045Y-58024D01*
X65395Y-58024D01*
X65340Y-58047D01*
X65297Y-58089D01*
X65275Y-58145D01*
X65274Y-58204D01*
X65274Y-58854D01*
X65297Y-58909D01*
X65339Y-58952D01*
X65395Y-58974D01*
X65454Y-58975D01*
X66104Y-58975D01*
X66159Y-58952D01*
X66202Y-58910D01*
X66224Y-58854D01*
X66225Y-58795D01*
X66225Y-67073D01*
X66095Y-67020D01*
X65904Y-67019D01*
X65728Y-67092D01*
X65593Y-67227D01*
X65520Y-67404D01*
X65519Y-67595D01*
X65592Y-67771D01*
X65727Y-67906D01*
X65904Y-67979D01*
X66095Y-67980D01*
X66271Y-67907D01*
X66406Y-67772D01*
X66479Y-67595D01*
X66480Y-67404D01*
X66480Y-68404D01*
X66407Y-68228D01*
X66272Y-68093D01*
X66095Y-68020D01*
X65904Y-68019D01*
X65728Y-68092D01*
X65593Y-68227D01*
X65520Y-68404D01*
X65519Y-68595D01*
X65592Y-68771D01*
X65727Y-68906D01*
X65904Y-68979D01*
X66095Y-68980D01*
X66271Y-68907D01*
X66406Y-68772D01*
X66479Y-68595D01*
X66480Y-68404D01*
X66480Y-70004D01*
X66409Y-70175D01*
X66408Y-70403D01*
X66496Y-70615D01*
X66657Y-70777D01*
X66784Y-70829D01*
X66784Y-74670D01*
X66658Y-74722D01*
X66496Y-74883D01*
X66409Y-75095D01*
X66408Y-75323D01*
X66496Y-75535D01*
X66657Y-75697D01*
X66869Y-75784D01*
X67097Y-75785D01*
X67309Y-75697D01*
X67471Y-75536D01*
X67558Y-75324D01*
X67559Y-75096D01*
X67559Y-75950D01*
X65595Y-75950D01*
X65595Y-75297D01*
X65595Y-70377D01*
X65585Y-70149D01*
X65517Y-69987D01*
X65437Y-69938D01*
X65367Y-70009D01*
X65367Y-69868D01*
X65318Y-69788D01*
X65225Y-69754D01*
X65225Y-58405D01*
X65152Y-58231D01*
X65019Y-58097D01*
X64844Y-58025D01*
X64655Y-58024D01*
X64481Y-58097D01*
X64347Y-58230D01*
X64275Y-58405D01*
X64274Y-58594D01*
X64347Y-58768D01*
X64480Y-58902D01*
X64655Y-58974D01*
X64844Y-58975D01*
X65018Y-58902D01*
X65152Y-58769D01*
X65224Y-58594D01*
X65225Y-58405D01*
X65225Y-69754D01*
X65103Y-69710D01*
X64875Y-69720D01*
X64713Y-69788D01*
X64664Y-69868D01*
X65016Y-70219D01*
X65367Y-69868D01*
X65367Y-70009D01*
X65086Y-70290D01*
X65437Y-70641D01*
X65517Y-70592D01*
X65595Y-70377D01*
X65595Y-75297D01*
X65585Y-75069D01*
X65517Y-74907D01*
X65437Y-74858D01*
X65367Y-74929D01*
X65367Y-74788D01*
X65367Y-70711D01*
X65016Y-70360D01*
X64945Y-70431D01*
X64945Y-70290D01*
X64594Y-69938D01*
X64514Y-69987D01*
X64436Y-70202D01*
X64446Y-70430D01*
X64514Y-70592D01*
X64594Y-70641D01*
X64945Y-70290D01*
X64945Y-70431D01*
X64664Y-70711D01*
X64713Y-70791D01*
X64928Y-70869D01*
X65156Y-70859D01*
X65318Y-70791D01*
X65367Y-70711D01*
X65367Y-74788D01*
X65318Y-74708D01*
X65103Y-74630D01*
X64875Y-74640D01*
X64713Y-74708D01*
X64664Y-74788D01*
X65016Y-75139D01*
X65367Y-74788D01*
X65367Y-74929D01*
X65086Y-75210D01*
X65437Y-75561D01*
X65517Y-75512D01*
X65595Y-75297D01*
X65595Y-75950D01*
X65367Y-75950D01*
X65367Y-75631D01*
X65016Y-75280D01*
X64945Y-75351D01*
X64945Y-75210D01*
X64594Y-74858D01*
X64514Y-74907D01*
X64436Y-75122D01*
X64446Y-75350D01*
X64514Y-75512D01*
X64594Y-75561D01*
X64945Y-75210D01*
X64945Y-75351D01*
X64664Y-75631D01*
X64713Y-75711D01*
X64928Y-75789D01*
X65156Y-75779D01*
X65318Y-75711D01*
X65367Y-75631D01*
X65367Y-75950D01*
X63118Y-75950D01*
X63118Y-65339D01*
X63118Y-61402D01*
X63019Y-61163D01*
X62837Y-60980D01*
X62598Y-60881D01*
X62339Y-60881D01*
X62100Y-60980D01*
X61917Y-61162D01*
X61818Y-61401D01*
X61818Y-61660D01*
X61917Y-61899D01*
X62099Y-62082D01*
X62338Y-62181D01*
X62597Y-62181D01*
X62836Y-62082D01*
X63019Y-61900D01*
X63118Y-61661D01*
X63118Y-61402D01*
X63118Y-65339D01*
X63019Y-65100D01*
X62933Y-65014D01*
X62933Y-63407D01*
X62862Y-63236D01*
X62732Y-63106D01*
X62561Y-63035D01*
X62376Y-63034D01*
X62205Y-63105D01*
X62074Y-63236D01*
X62003Y-63407D01*
X62003Y-63592D01*
X62074Y-63763D01*
X62204Y-63893D01*
X62375Y-63964D01*
X62560Y-63965D01*
X62731Y-63894D01*
X62862Y-63763D01*
X62933Y-63592D01*
X62933Y-63407D01*
X62933Y-65014D01*
X62837Y-64917D01*
X62598Y-64818D01*
X62339Y-64818D01*
X62100Y-64917D01*
X61917Y-65099D01*
X61818Y-65338D01*
X61818Y-65597D01*
X61917Y-65836D01*
X62099Y-66019D01*
X62338Y-66118D01*
X62597Y-66118D01*
X62836Y-66019D01*
X63019Y-65837D01*
X63118Y-65598D01*
X63118Y-65339D01*
X63118Y-75950D01*
X62700Y-75950D01*
X62700Y-72410D01*
X62700Y-68410D01*
X62631Y-68245D01*
X62505Y-68118D01*
X62339Y-68050D01*
X62160Y-68049D01*
X61995Y-68118D01*
X61868Y-68244D01*
X61800Y-68410D01*
X61799Y-68589D01*
X61868Y-68754D01*
X61994Y-68881D01*
X62160Y-68949D01*
X62339Y-68950D01*
X62504Y-68881D01*
X62631Y-68755D01*
X62699Y-68589D01*
X62700Y-68410D01*
X62700Y-72410D01*
X62631Y-72245D01*
X62505Y-72118D01*
X62339Y-72050D01*
X62160Y-72049D01*
X61995Y-72118D01*
X61868Y-72244D01*
X61800Y-72410D01*
X61799Y-72589D01*
X61868Y-72754D01*
X61994Y-72881D01*
X62160Y-72949D01*
X62339Y-72950D01*
X62504Y-72881D01*
X62631Y-72755D01*
X62699Y-72589D01*
X62700Y-72410D01*
X62700Y-75950D01*
X60438Y-75950D01*
X60787Y-75805D01*
X61054Y-75538D01*
X61199Y-75189D01*
X61200Y-74811D01*
X61154Y-74700D01*
X61154Y-63605D01*
X61144Y-63347D01*
X61064Y-63152D01*
X60976Y-63094D01*
X60905Y-63164D01*
X60905Y-61451D01*
X60844Y-61301D01*
X60730Y-61187D01*
X60581Y-61125D01*
X60419Y-61125D01*
X60270Y-61187D01*
X60156Y-61301D01*
X60094Y-61450D01*
X60094Y-61611D01*
X60155Y-61761D01*
X60269Y-61875D01*
X60418Y-61937D01*
X60580Y-61937D01*
X60729Y-61875D01*
X60843Y-61761D01*
X60905Y-61612D01*
X60905Y-61451D01*
X60905Y-63164D01*
X60905Y-63165D01*
X60905Y-63023D01*
X60847Y-62935D01*
X60605Y-62845D01*
X60347Y-62855D01*
X60152Y-62935D01*
X60094Y-63023D01*
X60500Y-63429D01*
X60905Y-63023D01*
X60905Y-63165D01*
X60570Y-63500D01*
X60976Y-63905D01*
X61064Y-63847D01*
X61154Y-63605D01*
X61154Y-74700D01*
X61055Y-74462D01*
X60905Y-74312D01*
X60905Y-65388D01*
X60905Y-65386D01*
X60905Y-63976D01*
X60500Y-63570D01*
X60429Y-63641D01*
X60429Y-63500D01*
X60023Y-63094D01*
X59935Y-63152D01*
X59845Y-63394D01*
X59855Y-63652D01*
X59935Y-63847D01*
X60023Y-63905D01*
X60429Y-63500D01*
X60429Y-63641D01*
X60094Y-63976D01*
X60152Y-64064D01*
X60394Y-64154D01*
X60652Y-64144D01*
X60847Y-64064D01*
X60905Y-63976D01*
X60905Y-65386D01*
X60844Y-65238D01*
X60730Y-65124D01*
X60581Y-65062D01*
X60419Y-65062D01*
X60270Y-65124D01*
X60156Y-65238D01*
X60094Y-65387D01*
X60094Y-65548D01*
X60155Y-65698D01*
X60269Y-65812D01*
X60418Y-65874D01*
X60580Y-65874D01*
X60729Y-65812D01*
X60843Y-65698D01*
X60905Y-65549D01*
X60905Y-65388D01*
X60905Y-74312D01*
X60788Y-74195D01*
X60705Y-74160D01*
X60705Y-69557D01*
X60692Y-69379D01*
X60648Y-69272D01*
X60581Y-69239D01*
X60510Y-69310D01*
X60510Y-69168D01*
X60477Y-69101D01*
X60307Y-69044D01*
X60129Y-69057D01*
X60022Y-69101D01*
X59989Y-69168D01*
X60250Y-69429D01*
X60510Y-69168D01*
X60510Y-69310D01*
X60320Y-69500D01*
X60581Y-69760D01*
X60648Y-69727D01*
X60705Y-69557D01*
X60705Y-74160D01*
X60700Y-74158D01*
X60700Y-71410D01*
X60700Y-70410D01*
X60631Y-70245D01*
X60510Y-70123D01*
X60510Y-69831D01*
X60250Y-69570D01*
X60179Y-69641D01*
X60179Y-69500D01*
X59918Y-69239D01*
X59851Y-69272D01*
X59794Y-69442D01*
X59807Y-69620D01*
X59851Y-69727D01*
X59918Y-69760D01*
X60179Y-69500D01*
X60179Y-69641D01*
X59989Y-69831D01*
X60022Y-69898D01*
X60192Y-69955D01*
X60370Y-69942D01*
X60477Y-69898D01*
X60510Y-69831D01*
X60510Y-70123D01*
X60505Y-70118D01*
X60339Y-70050D01*
X60160Y-70049D01*
X59995Y-70118D01*
X59868Y-70244D01*
X59800Y-70410D01*
X59799Y-70589D01*
X59868Y-70754D01*
X59994Y-70881D01*
X60160Y-70949D01*
X60339Y-70950D01*
X60504Y-70881D01*
X60631Y-70755D01*
X60699Y-70589D01*
X60700Y-70410D01*
X60700Y-71410D01*
X60631Y-71245D01*
X60505Y-71118D01*
X60339Y-71050D01*
X60160Y-71049D01*
X59995Y-71118D01*
X59868Y-71244D01*
X59800Y-71410D01*
X59799Y-71589D01*
X59868Y-71754D01*
X59994Y-71881D01*
X60160Y-71949D01*
X60339Y-71950D01*
X60504Y-71881D01*
X60631Y-71755D01*
X60699Y-71589D01*
X60700Y-71410D01*
X60700Y-74158D01*
X60439Y-74050D01*
X60061Y-74049D01*
X59712Y-74194D01*
X59550Y-74356D01*
X59550Y-65874D01*
X59596Y-65874D01*
X59745Y-65812D01*
X59859Y-65698D01*
X59921Y-65549D01*
X59921Y-65388D01*
X59860Y-65238D01*
X59745Y-65124D01*
X59596Y-65062D01*
X59550Y-65062D01*
X59550Y-61937D01*
X59596Y-61937D01*
X59745Y-61875D01*
X59859Y-61761D01*
X59921Y-61612D01*
X59921Y-61451D01*
X59860Y-61301D01*
X59745Y-61187D01*
X59596Y-61125D01*
X59550Y-61125D01*
X59550Y-58643D01*
X59711Y-58804D01*
X60060Y-58949D01*
X60438Y-58950D01*
X60787Y-58805D01*
X61054Y-58538D01*
X61199Y-58189D01*
X61200Y-57811D01*
X61055Y-57462D01*
X60788Y-57195D01*
X60439Y-57050D01*
X60250Y-57050D01*
X101769Y-57050D01*
X101730Y-57146D01*
X101729Y-57352D01*
X101808Y-57544D01*
X101955Y-57690D01*
X102146Y-57769D01*
X102352Y-57770D01*
X102544Y-57691D01*
X102690Y-57544D01*
X102769Y-57353D01*
X102770Y-57147D01*
X102730Y-57050D01*
X103769Y-57050D01*
X103730Y-57146D01*
X103729Y-57352D01*
X103808Y-57544D01*
X103955Y-57690D01*
X104146Y-57769D01*
X104352Y-57770D01*
X104544Y-57691D01*
X104690Y-57544D01*
X104769Y-57353D01*
X104770Y-57147D01*
X104730Y-57050D01*
X107061Y-57050D01*
X106712Y-57194D01*
X106445Y-57461D01*
X106300Y-57810D01*
X106299Y-58188D01*
X106444Y-58537D01*
X106711Y-58804D01*
X107060Y-58949D01*
X107438Y-58950D01*
X107787Y-58805D01*
X107950Y-58643D01*
X107950Y-74356D01*
M02*
