G04 (created by PCBNEW-RS274X (2011-nov-30)-testing) date Tue 03 Jul 2012 02:42:00 PM EDT*
%MOIN*%
G04 Gerber Fmt 3.4, Leading zero omitted, Abs format*
%FSLAX34Y34*%
G01*
G70*
G90*
G04 APERTURE LIST*
%ADD10C,0.0001*%
%ADD11C,0.01*%
%ADD12C,0.066*%
%ADD13C,0.08*%
%ADD14C,0.1123*%
%ADD15R,0.061X0.061*%
%ADD16C,0.061*%
%ADD17R,0.066X0.066*%
%ADD18C,0.072*%
%ADD19C,0.062*%
%ADD20C,0.076*%
%ADD21R,0.076X0.076*%
%ADD22R,0.071X0.071*%
%ADD23C,0.071*%
%ADD24C,0.246*%
%ADD25C,0.091*%
G04 APERTURE END LIST*
G54D10*
G54D11*
X50000Y20000D02*
X0Y20000D01*
X50000Y0D02*
X50000Y20000D01*
X0Y0D02*
X50000Y0D01*
X0Y20000D02*
X0Y0D01*
G54D12*
X5000Y17000D03*
X4000Y17000D03*
G54D13*
X5000Y18000D03*
X4000Y18000D03*
X5000Y19000D03*
X4000Y19000D03*
G54D12*
X33000Y17150D03*
X34000Y17150D03*
X34000Y17937D03*
X33000Y17937D03*
G54D14*
X31138Y19000D03*
X35862Y19000D03*
G54D12*
X1000Y3750D03*
X1000Y4750D03*
X1000Y5750D03*
G54D15*
X40000Y18500D03*
G54D16*
X40000Y17500D03*
G54D12*
X26000Y15500D03*
X26000Y11500D03*
X27500Y11500D03*
X27500Y15500D03*
X36500Y15500D03*
X36500Y11500D03*
X33500Y15500D03*
X33500Y11500D03*
X12000Y10000D03*
X12000Y14000D03*
X10750Y10000D03*
X10750Y14000D03*
X8000Y19000D03*
X8000Y15000D03*
X1000Y15500D03*
X5000Y15500D03*
X6500Y15000D03*
X6500Y19000D03*
X32000Y11500D03*
X32000Y15500D03*
X30500Y11500D03*
X30500Y15500D03*
G54D17*
X28250Y19000D03*
G54D12*
X29250Y19000D03*
X28250Y18000D03*
X29250Y18000D03*
X28250Y17000D03*
X29250Y17000D03*
G54D18*
X40000Y9000D03*
X40000Y8000D03*
X29500Y9000D03*
X29500Y8000D03*
X19000Y9000D03*
X19000Y8000D03*
X8500Y9000D03*
X8500Y8000D03*
X13750Y9000D03*
X13750Y8000D03*
X24250Y9000D03*
X24250Y8000D03*
X34750Y9000D03*
X34750Y8000D03*
X45250Y9000D03*
X45250Y8000D03*
G54D19*
X21000Y13500D03*
X23000Y13500D03*
G54D15*
X18000Y10000D03*
G54D16*
X18000Y11000D03*
X18000Y12000D03*
X18000Y13000D03*
X15000Y13000D03*
X15000Y12000D03*
X15000Y11000D03*
X15000Y10000D03*
G54D15*
X4500Y12500D03*
G54D16*
X3500Y12500D03*
X2500Y12500D03*
X1500Y12500D03*
X1500Y9500D03*
X2500Y9500D03*
X3500Y9500D03*
X4500Y9500D03*
X11500Y15500D03*
X12500Y15500D03*
X13500Y15500D03*
X14500Y15500D03*
X15500Y15500D03*
X16500Y15500D03*
X17500Y15500D03*
X18500Y15500D03*
X19500Y15500D03*
X20500Y15500D03*
X21500Y15500D03*
X22500Y15500D03*
X23500Y15500D03*
G54D15*
X10500Y15500D03*
G54D16*
X23500Y18500D03*
X22500Y18500D03*
X21500Y18500D03*
X20500Y18500D03*
X19500Y18500D03*
X18500Y18500D03*
X17500Y18500D03*
X16500Y18500D03*
X15500Y18500D03*
X14500Y18500D03*
X13500Y18500D03*
X12500Y18500D03*
X11500Y18500D03*
X10500Y18500D03*
G54D20*
X35000Y11500D03*
G54D21*
X35000Y15500D03*
G54D20*
X29000Y11500D03*
G54D21*
X29000Y15500D03*
G54D16*
X6000Y9500D03*
X6000Y8500D03*
X4500Y8000D03*
X4500Y7000D03*
X23000Y11500D03*
X23000Y10500D03*
X21000Y11500D03*
X21000Y10500D03*
X2000Y8000D03*
X2000Y7000D03*
X2000Y14000D03*
X1000Y14000D03*
X16750Y14250D03*
X17750Y14250D03*
X3250Y7000D03*
X3250Y8000D03*
X3500Y14000D03*
X4500Y14000D03*
X19500Y11500D03*
X19500Y10500D03*
X38500Y18500D03*
X38500Y17500D03*
X13250Y13000D03*
X13250Y12000D03*
G54D12*
X4000Y1500D03*
X4000Y5500D03*
G54D22*
X8000Y13000D03*
G54D23*
X8000Y12000D03*
G54D24*
X1750Y18250D03*
X48250Y18250D03*
X1750Y1750D03*
X48250Y2000D03*
G54D12*
X42500Y17500D03*
X42500Y18500D03*
G54D13*
X43500Y17500D03*
X43500Y18500D03*
X44500Y17500D03*
X44500Y18500D03*
G54D25*
X6516Y1540D03*
X6516Y6460D03*
X8484Y1540D03*
X8484Y6460D03*
X11766Y1540D03*
X11766Y6460D03*
X13734Y1540D03*
X13734Y6460D03*
X17016Y1540D03*
X17016Y6460D03*
X18984Y1540D03*
X18984Y6460D03*
X22266Y1540D03*
X22266Y6460D03*
X24234Y1540D03*
X24234Y6460D03*
X27516Y1540D03*
X27516Y6460D03*
X29484Y1540D03*
X29484Y6460D03*
X32766Y1540D03*
X32766Y6460D03*
X34734Y1540D03*
X34734Y6460D03*
X38016Y1540D03*
X38016Y6460D03*
X39984Y1540D03*
X39984Y6460D03*
X43266Y1540D03*
X43266Y6460D03*
X45234Y1540D03*
X45234Y6460D03*
X40984Y15960D03*
X40984Y11040D03*
X39016Y15960D03*
X39016Y11040D03*
X46234Y15960D03*
X46234Y11040D03*
X44266Y15960D03*
X44266Y11040D03*
M02*
