G04 (created by PCBNEW (2012-oct-18)-testing) date Wed 03 Jul 2013 05:15:39 PM EDT*
%MOIN*%
G04 Gerber Fmt 3.4, Leading zero omitted, Abs format*
%FSLAX34Y34*%
G01*
G70*
G90*
G04 APERTURE LIST*
%ADD10C,0.002*%
%ADD11C,0.0059*%
%ADD12C,0.0118*%
%ADD13C,0.008*%
%ADD14C,0.00590551*%
%ADD15C,0.004*%
%ADD16C,0.0137*%
%ADD17C,0.01*%
%ADD18C,0.012*%
%ADD19C,0.006*%
%ADD20C,0.015*%
%ADD21C,2.75591e-07*%
%ADD22C,0.0035*%
%ADD23C,0.01125*%
%ADD24C,0.092874*%
%ADD25C,0.067874*%
%ADD26R,0.067874X0.067874*%
%ADD27C,0.073874*%
%ADD28R,0.062874X0.062874*%
%ADD29C,0.062874*%
%ADD30R,0.072874X0.072874*%
%ADD31C,0.072874*%
%ADD32C,0.107874*%
%ADD33C,0.0708661*%
%ADD34C,0.0590551*%
%ADD35C,0.081874*%
%ADD36C,0.167874*%
G04 APERTURE END LIST*
G54D10*
G54D11*
X105000Y-60500D02*
X105000Y-56500D01*
X101500Y-60500D02*
X101500Y-56500D01*
G54D12*
X64320Y-65554D02*
X64320Y-65272D01*
X64489Y-65610D02*
X63898Y-65413D01*
X64489Y-65216D01*
X64095Y-64766D02*
X64489Y-64766D01*
X64095Y-65019D02*
X64404Y-65019D01*
X64461Y-64991D01*
X64489Y-64935D01*
X64489Y-64850D01*
X64461Y-64794D01*
X64432Y-64766D01*
X64489Y-64231D02*
X63898Y-64231D01*
X64461Y-64231D02*
X64489Y-64288D01*
X64489Y-64400D01*
X64461Y-64456D01*
X64432Y-64485D01*
X64376Y-64513D01*
X64207Y-64513D01*
X64151Y-64485D01*
X64123Y-64456D01*
X64095Y-64400D01*
X64095Y-64288D01*
X64123Y-64231D01*
X64489Y-63950D02*
X64095Y-63950D01*
X63898Y-63950D02*
X63926Y-63978D01*
X63954Y-63950D01*
X63926Y-63922D01*
X63898Y-63950D01*
X63954Y-63950D01*
X64489Y-63584D02*
X64461Y-63640D01*
X64432Y-63668D01*
X64376Y-63697D01*
X64207Y-63697D01*
X64151Y-63668D01*
X64123Y-63640D01*
X64095Y-63584D01*
X64095Y-63500D01*
X64123Y-63443D01*
X64151Y-63415D01*
X64207Y-63387D01*
X64376Y-63387D01*
X64432Y-63415D01*
X64461Y-63443D01*
X64489Y-63500D01*
X64489Y-63584D01*
X63898Y-62571D02*
X63898Y-62458D01*
X63926Y-62402D01*
X63982Y-62346D01*
X64095Y-62318D01*
X64292Y-62318D01*
X64404Y-62346D01*
X64461Y-62402D01*
X64489Y-62458D01*
X64489Y-62571D01*
X64461Y-62627D01*
X64404Y-62683D01*
X64292Y-62712D01*
X64095Y-62712D01*
X63982Y-62683D01*
X63926Y-62627D01*
X63898Y-62571D01*
X64095Y-61811D02*
X64489Y-61811D01*
X64095Y-62064D02*
X64404Y-62064D01*
X64461Y-62036D01*
X64489Y-61980D01*
X64489Y-61895D01*
X64461Y-61839D01*
X64432Y-61811D01*
X64095Y-61614D02*
X64095Y-61389D01*
X63898Y-61530D02*
X64404Y-61530D01*
X64461Y-61501D01*
X64489Y-61445D01*
X64489Y-61389D01*
G54D13*
X94522Y-58729D02*
G75*
G03X95000Y-58750I227J-270D01*
G74*
G01*
X94750Y-58500D02*
X94750Y-59000D01*
G54D12*
X92462Y-59239D02*
X92462Y-58648D01*
X92687Y-58648D01*
X92743Y-58676D01*
X92771Y-58704D01*
X92799Y-58760D01*
X92799Y-58845D01*
X92771Y-58901D01*
X92743Y-58929D01*
X92687Y-58957D01*
X92462Y-58957D01*
X92996Y-58648D02*
X93137Y-59239D01*
X93250Y-58817D01*
X93362Y-59239D01*
X93503Y-58648D01*
X94066Y-59239D02*
X93869Y-58957D01*
X93728Y-59239D02*
X93728Y-58648D01*
X93953Y-58648D01*
X94009Y-58676D01*
X94038Y-58704D01*
X94066Y-58760D01*
X94066Y-58845D01*
X94038Y-58901D01*
X94009Y-58929D01*
X93953Y-58957D01*
X93728Y-58957D01*
X105341Y-68098D02*
X105453Y-68098D01*
X105510Y-68126D01*
X105566Y-68182D01*
X105594Y-68295D01*
X105594Y-68492D01*
X105566Y-68604D01*
X105510Y-68661D01*
X105453Y-68689D01*
X105341Y-68689D01*
X105285Y-68661D01*
X105228Y-68604D01*
X105200Y-68492D01*
X105200Y-68295D01*
X105228Y-68182D01*
X105285Y-68126D01*
X105341Y-68098D01*
X105847Y-68295D02*
X105847Y-68886D01*
X105847Y-68323D02*
X105904Y-68295D01*
X106016Y-68295D01*
X106073Y-68323D01*
X106101Y-68351D01*
X106129Y-68407D01*
X106129Y-68576D01*
X106101Y-68632D01*
X106073Y-68661D01*
X106016Y-68689D01*
X105904Y-68689D01*
X105847Y-68661D01*
X106298Y-68295D02*
X106523Y-68295D01*
X106382Y-68098D02*
X106382Y-68604D01*
X106410Y-68661D01*
X106467Y-68689D01*
X106523Y-68689D01*
X106720Y-68689D02*
X106720Y-68295D01*
X106720Y-68098D02*
X106692Y-68126D01*
X106720Y-68154D01*
X106748Y-68126D01*
X106720Y-68098D01*
X106720Y-68154D01*
X107255Y-68661D02*
X107198Y-68689D01*
X107086Y-68689D01*
X107029Y-68661D01*
X107001Y-68632D01*
X106973Y-68576D01*
X106973Y-68407D01*
X107001Y-68351D01*
X107029Y-68323D01*
X107086Y-68295D01*
X107198Y-68295D01*
X107255Y-68323D01*
X107761Y-68689D02*
X107761Y-68379D01*
X107733Y-68323D01*
X107677Y-68295D01*
X107564Y-68295D01*
X107508Y-68323D01*
X107761Y-68661D02*
X107705Y-68689D01*
X107564Y-68689D01*
X107508Y-68661D01*
X107480Y-68604D01*
X107480Y-68548D01*
X107508Y-68492D01*
X107564Y-68464D01*
X107705Y-68464D01*
X107761Y-68435D01*
X108127Y-68689D02*
X108071Y-68661D01*
X108043Y-68604D01*
X108043Y-68098D01*
X106185Y-69634D02*
X105904Y-69634D01*
X105904Y-69043D01*
X106382Y-69634D02*
X106382Y-69240D01*
X106382Y-69043D02*
X106354Y-69071D01*
X106382Y-69099D01*
X106410Y-69071D01*
X106382Y-69043D01*
X106382Y-69099D01*
X106664Y-69240D02*
X106664Y-69634D01*
X106664Y-69296D02*
X106692Y-69268D01*
X106748Y-69240D01*
X106832Y-69240D01*
X106889Y-69268D01*
X106917Y-69325D01*
X106917Y-69634D01*
X107198Y-69634D02*
X107198Y-69043D01*
X107255Y-69409D02*
X107423Y-69634D01*
X107423Y-69240D02*
X107198Y-69465D01*
G54D11*
X106650Y-60050D02*
X106700Y-60050D01*
X106650Y-60200D02*
X106650Y-60050D01*
X106800Y-60350D02*
X106650Y-60200D01*
X106650Y-60200D02*
X106800Y-60350D01*
X106650Y-60100D02*
X106650Y-60200D01*
X106700Y-60100D02*
X106650Y-60100D01*
X106700Y-60250D02*
X106700Y-60100D01*
X106750Y-60300D02*
X106700Y-60250D01*
X106750Y-60000D02*
X106750Y-60300D01*
X106700Y-60050D02*
X106750Y-60000D01*
X106800Y-60150D02*
X106700Y-60050D01*
X106550Y-60150D02*
X106800Y-60150D01*
X106800Y-60400D02*
X106550Y-60150D01*
X106800Y-59900D02*
X106800Y-60400D01*
X106550Y-60150D02*
X106800Y-59900D01*
X106800Y-60150D02*
X106550Y-60150D01*
X107050Y-60150D02*
X106800Y-60150D01*
X107800Y-60400D02*
G75*
G03X108050Y-60150I0J250D01*
G74*
G01*
X107550Y-60150D02*
G75*
G03X107800Y-60400I250J0D01*
G74*
G01*
X107550Y-60150D02*
G75*
G03X107300Y-59900I-250J0D01*
G74*
G01*
X107300Y-59900D02*
G75*
G03X107050Y-60150I0J-250D01*
G74*
G01*
G54D12*
X89951Y-57345D02*
X89951Y-57823D01*
X89923Y-57879D01*
X89895Y-57908D01*
X89839Y-57936D01*
X89754Y-57936D01*
X89698Y-57908D01*
X89951Y-57711D02*
X89895Y-57739D01*
X89782Y-57739D01*
X89726Y-57711D01*
X89698Y-57682D01*
X89670Y-57626D01*
X89670Y-57457D01*
X89698Y-57401D01*
X89726Y-57373D01*
X89782Y-57345D01*
X89895Y-57345D01*
X89951Y-57373D01*
X90317Y-57739D02*
X90261Y-57711D01*
X90233Y-57682D01*
X90204Y-57626D01*
X90204Y-57457D01*
X90233Y-57401D01*
X90261Y-57373D01*
X90317Y-57345D01*
X90401Y-57345D01*
X90458Y-57373D01*
X90486Y-57401D01*
X90514Y-57457D01*
X90514Y-57626D01*
X90486Y-57682D01*
X90458Y-57711D01*
X90401Y-57739D01*
X90317Y-57739D01*
X91133Y-57345D02*
X91358Y-57345D01*
X91218Y-57148D02*
X91218Y-57654D01*
X91246Y-57711D01*
X91302Y-57739D01*
X91358Y-57739D01*
X91640Y-57739D02*
X91583Y-57711D01*
X91555Y-57682D01*
X91527Y-57626D01*
X91527Y-57457D01*
X91555Y-57401D01*
X91583Y-57373D01*
X91640Y-57345D01*
X91724Y-57345D01*
X91780Y-57373D01*
X91809Y-57401D01*
X91837Y-57457D01*
X91837Y-57626D01*
X91809Y-57682D01*
X91780Y-57711D01*
X91724Y-57739D01*
X91640Y-57739D01*
X92765Y-57711D02*
X92709Y-57739D01*
X92597Y-57739D01*
X92540Y-57711D01*
X92512Y-57654D01*
X92512Y-57429D01*
X92540Y-57373D01*
X92597Y-57345D01*
X92709Y-57345D01*
X92765Y-57373D01*
X92794Y-57429D01*
X92794Y-57485D01*
X92512Y-57542D01*
X93300Y-57739D02*
X93300Y-57148D01*
X93300Y-57711D02*
X93244Y-57739D01*
X93131Y-57739D01*
X93075Y-57711D01*
X93047Y-57682D01*
X93019Y-57626D01*
X93019Y-57457D01*
X93047Y-57401D01*
X93075Y-57373D01*
X93131Y-57345D01*
X93244Y-57345D01*
X93300Y-57373D01*
X93497Y-57345D02*
X93722Y-57345D01*
X93582Y-57739D02*
X93582Y-57232D01*
X93610Y-57176D01*
X93666Y-57148D01*
X93722Y-57148D01*
X93919Y-57682D02*
X93947Y-57711D01*
X93919Y-57739D01*
X93891Y-57711D01*
X93919Y-57682D01*
X93919Y-57739D01*
X94201Y-57739D02*
X94201Y-57148D01*
X94201Y-57373D02*
X94257Y-57345D01*
X94370Y-57345D01*
X94426Y-57373D01*
X94454Y-57401D01*
X94482Y-57457D01*
X94482Y-57626D01*
X94454Y-57682D01*
X94426Y-57711D01*
X94370Y-57739D01*
X94257Y-57739D01*
X94201Y-57711D01*
X94989Y-57345D02*
X94989Y-57739D01*
X94735Y-57345D02*
X94735Y-57654D01*
X94764Y-57711D01*
X94820Y-57739D01*
X94904Y-57739D01*
X94961Y-57711D01*
X94989Y-57682D01*
X95270Y-57682D02*
X95298Y-57711D01*
X95270Y-57739D01*
X95242Y-57711D01*
X95270Y-57682D01*
X95270Y-57739D01*
X95777Y-57711D02*
X95720Y-57739D01*
X95608Y-57739D01*
X95552Y-57711D01*
X95523Y-57654D01*
X95523Y-57429D01*
X95552Y-57373D01*
X95608Y-57345D01*
X95720Y-57345D01*
X95777Y-57373D01*
X95805Y-57429D01*
X95805Y-57485D01*
X95523Y-57542D01*
X96311Y-57739D02*
X96311Y-57148D01*
X96311Y-57711D02*
X96255Y-57739D01*
X96143Y-57739D01*
X96086Y-57711D01*
X96058Y-57682D01*
X96030Y-57626D01*
X96030Y-57457D01*
X96058Y-57401D01*
X96086Y-57373D01*
X96143Y-57345D01*
X96255Y-57345D01*
X96311Y-57373D01*
X96846Y-57345D02*
X96846Y-57739D01*
X96593Y-57345D02*
X96593Y-57654D01*
X96621Y-57711D01*
X96677Y-57739D01*
X96762Y-57739D01*
X96818Y-57711D01*
X96846Y-57682D01*
X97550Y-57120D02*
X97043Y-57879D01*
X97719Y-57711D02*
X97775Y-57739D01*
X97887Y-57739D01*
X97944Y-57711D01*
X97972Y-57654D01*
X97972Y-57626D01*
X97944Y-57570D01*
X97887Y-57542D01*
X97803Y-57542D01*
X97747Y-57514D01*
X97719Y-57457D01*
X97719Y-57429D01*
X97747Y-57373D01*
X97803Y-57345D01*
X97887Y-57345D01*
X97944Y-57373D01*
X98169Y-57345D02*
X98310Y-57739D01*
X98450Y-57345D02*
X98310Y-57739D01*
X98253Y-57879D01*
X98225Y-57908D01*
X98169Y-57936D01*
X98675Y-57345D02*
X98675Y-57739D01*
X98675Y-57401D02*
X98704Y-57373D01*
X98760Y-57345D01*
X98844Y-57345D01*
X98901Y-57373D01*
X98929Y-57429D01*
X98929Y-57739D01*
X99126Y-57345D02*
X99351Y-57345D01*
X99210Y-57148D02*
X99210Y-57654D01*
X99238Y-57711D01*
X99295Y-57739D01*
X99351Y-57739D01*
X99548Y-57739D02*
X99548Y-57148D01*
X99801Y-57739D02*
X99801Y-57429D01*
X99773Y-57373D01*
X99717Y-57345D01*
X99632Y-57345D01*
X99576Y-57373D01*
X99548Y-57401D01*
X75362Y-57570D02*
X75644Y-57570D01*
X75306Y-57739D02*
X75503Y-57148D01*
X75700Y-57739D01*
X75897Y-57739D02*
X75897Y-57345D01*
X75897Y-57457D02*
X75925Y-57401D01*
X75953Y-57373D01*
X76009Y-57345D01*
X76066Y-57345D01*
X76178Y-57345D02*
X76403Y-57345D01*
X76263Y-57148D02*
X76263Y-57654D01*
X76291Y-57711D01*
X76347Y-57739D01*
X76403Y-57739D01*
X76825Y-57711D02*
X76769Y-57739D01*
X76657Y-57739D01*
X76600Y-57711D01*
X76572Y-57654D01*
X76572Y-57429D01*
X76600Y-57373D01*
X76657Y-57345D01*
X76769Y-57345D01*
X76825Y-57373D01*
X76854Y-57429D01*
X76854Y-57485D01*
X76572Y-57542D01*
X77107Y-57739D02*
X77107Y-57345D01*
X77107Y-57401D02*
X77135Y-57373D01*
X77191Y-57345D01*
X77276Y-57345D01*
X77332Y-57373D01*
X77360Y-57429D01*
X77360Y-57739D01*
X77360Y-57429D02*
X77388Y-57373D01*
X77445Y-57345D01*
X77529Y-57345D01*
X77585Y-57373D01*
X77613Y-57429D01*
X77613Y-57739D01*
X77895Y-57739D02*
X77895Y-57345D01*
X77895Y-57148D02*
X77867Y-57176D01*
X77895Y-57204D01*
X77923Y-57176D01*
X77895Y-57148D01*
X77895Y-57204D01*
X78148Y-57711D02*
X78204Y-57739D01*
X78317Y-57739D01*
X78373Y-57711D01*
X78401Y-57654D01*
X78401Y-57626D01*
X78373Y-57570D01*
X78317Y-57542D01*
X78233Y-57542D01*
X78176Y-57514D01*
X78148Y-57457D01*
X78148Y-57429D01*
X78176Y-57373D01*
X78233Y-57345D01*
X78317Y-57345D01*
X78373Y-57373D01*
X79077Y-57711D02*
X79161Y-57739D01*
X79302Y-57739D01*
X79358Y-57711D01*
X79387Y-57682D01*
X79415Y-57626D01*
X79415Y-57570D01*
X79387Y-57514D01*
X79358Y-57485D01*
X79302Y-57457D01*
X79190Y-57429D01*
X79133Y-57401D01*
X79105Y-57373D01*
X79077Y-57317D01*
X79077Y-57260D01*
X79105Y-57204D01*
X79133Y-57176D01*
X79190Y-57148D01*
X79330Y-57148D01*
X79415Y-57176D01*
X79612Y-57345D02*
X79752Y-57739D01*
X79893Y-57345D02*
X79752Y-57739D01*
X79696Y-57879D01*
X79668Y-57908D01*
X79612Y-57936D01*
X80118Y-57345D02*
X80118Y-57739D01*
X80118Y-57401D02*
X80146Y-57373D01*
X80203Y-57345D01*
X80287Y-57345D01*
X80343Y-57373D01*
X80372Y-57429D01*
X80372Y-57739D01*
X80569Y-57345D02*
X80794Y-57345D01*
X80653Y-57148D02*
X80653Y-57654D01*
X80681Y-57711D01*
X80737Y-57739D01*
X80794Y-57739D01*
X80991Y-57739D02*
X80991Y-57148D01*
X81244Y-57739D02*
X81244Y-57429D01*
X81216Y-57373D01*
X81159Y-57345D01*
X81075Y-57345D01*
X81019Y-57373D01*
X80991Y-57401D01*
X75728Y-58628D02*
X75700Y-58656D01*
X75615Y-58684D01*
X75559Y-58684D01*
X75475Y-58656D01*
X75418Y-58600D01*
X75390Y-58543D01*
X75362Y-58431D01*
X75362Y-58346D01*
X75390Y-58234D01*
X75418Y-58178D01*
X75475Y-58121D01*
X75559Y-58093D01*
X75615Y-58093D01*
X75700Y-58121D01*
X75728Y-58149D01*
X75981Y-58628D02*
X76009Y-58656D01*
X75981Y-58684D01*
X75953Y-58656D01*
X75981Y-58628D01*
X75981Y-58684D01*
X76657Y-58093D02*
X76797Y-58684D01*
X76910Y-58262D01*
X77023Y-58684D01*
X77163Y-58093D01*
X77473Y-58684D02*
X77417Y-58656D01*
X77388Y-58628D01*
X77360Y-58572D01*
X77360Y-58403D01*
X77388Y-58346D01*
X77417Y-58318D01*
X77473Y-58290D01*
X77557Y-58290D01*
X77614Y-58318D01*
X77642Y-58346D01*
X77670Y-58403D01*
X77670Y-58572D01*
X77642Y-58628D01*
X77614Y-58656D01*
X77557Y-58684D01*
X77473Y-58684D01*
X78008Y-58684D02*
X77951Y-58656D01*
X77923Y-58628D01*
X77895Y-58572D01*
X77895Y-58403D01*
X77923Y-58346D01*
X77951Y-58318D01*
X78008Y-58290D01*
X78092Y-58290D01*
X78148Y-58318D01*
X78176Y-58346D01*
X78205Y-58403D01*
X78205Y-58572D01*
X78176Y-58628D01*
X78148Y-58656D01*
X78092Y-58684D01*
X78008Y-58684D01*
X78711Y-58684D02*
X78711Y-58093D01*
X78711Y-58656D02*
X78655Y-58684D01*
X78542Y-58684D01*
X78486Y-58656D01*
X78458Y-58628D01*
X78430Y-58572D01*
X78430Y-58403D01*
X78458Y-58346D01*
X78486Y-58318D01*
X78542Y-58290D01*
X78655Y-58290D01*
X78711Y-58318D01*
X79246Y-58684D02*
X79246Y-58375D01*
X79218Y-58318D01*
X79161Y-58290D01*
X79049Y-58290D01*
X78993Y-58318D01*
X79246Y-58656D02*
X79190Y-58684D01*
X79049Y-58684D01*
X78993Y-58656D01*
X78964Y-58600D01*
X78964Y-58543D01*
X78993Y-58487D01*
X79049Y-58459D01*
X79190Y-58459D01*
X79246Y-58431D01*
X79612Y-58684D02*
X79555Y-58656D01*
X79527Y-58600D01*
X79527Y-58093D01*
X79921Y-58684D02*
X79865Y-58656D01*
X79837Y-58600D01*
X79837Y-58093D01*
X75728Y-59630D02*
X75531Y-59348D01*
X75390Y-59630D02*
X75390Y-59039D01*
X75615Y-59039D01*
X75672Y-59067D01*
X75700Y-59095D01*
X75728Y-59151D01*
X75728Y-59236D01*
X75700Y-59292D01*
X75672Y-59320D01*
X75615Y-59348D01*
X75390Y-59348D01*
X76206Y-59601D02*
X76150Y-59630D01*
X76038Y-59630D01*
X75981Y-59601D01*
X75953Y-59545D01*
X75953Y-59320D01*
X75981Y-59264D01*
X76038Y-59236D01*
X76150Y-59236D01*
X76206Y-59264D01*
X76235Y-59320D01*
X76235Y-59376D01*
X75953Y-59433D01*
X76432Y-59236D02*
X76572Y-59630D01*
X76713Y-59236D01*
X76938Y-59573D02*
X76966Y-59601D01*
X76938Y-59630D01*
X76910Y-59601D01*
X76938Y-59573D01*
X76938Y-59630D01*
X77867Y-59320D02*
X77951Y-59348D01*
X77979Y-59376D01*
X78008Y-59433D01*
X78008Y-59517D01*
X77979Y-59573D01*
X77951Y-59601D01*
X77895Y-59630D01*
X77670Y-59630D01*
X77670Y-59039D01*
X77867Y-59039D01*
X77923Y-59067D01*
X77951Y-59095D01*
X77979Y-59151D01*
X77979Y-59207D01*
X77951Y-59264D01*
X77923Y-59292D01*
X77867Y-59320D01*
X77670Y-59320D01*
X78852Y-59827D02*
X78852Y-58982D01*
X79696Y-59095D02*
X79724Y-59067D01*
X79781Y-59039D01*
X79921Y-59039D01*
X79978Y-59067D01*
X80006Y-59095D01*
X80034Y-59151D01*
X80034Y-59207D01*
X80006Y-59292D01*
X79668Y-59630D01*
X80034Y-59630D01*
X80400Y-59039D02*
X80456Y-59039D01*
X80512Y-59067D01*
X80540Y-59095D01*
X80569Y-59151D01*
X80597Y-59264D01*
X80597Y-59404D01*
X80569Y-59517D01*
X80540Y-59573D01*
X80512Y-59601D01*
X80456Y-59630D01*
X80400Y-59630D01*
X80343Y-59601D01*
X80315Y-59573D01*
X80287Y-59517D01*
X80259Y-59404D01*
X80259Y-59264D01*
X80287Y-59151D01*
X80315Y-59095D01*
X80343Y-59067D01*
X80400Y-59039D01*
X81160Y-59630D02*
X80822Y-59630D01*
X80991Y-59630D02*
X80991Y-59039D01*
X80934Y-59123D01*
X80878Y-59179D01*
X80822Y-59207D01*
X81357Y-59039D02*
X81722Y-59039D01*
X81525Y-59264D01*
X81610Y-59264D01*
X81666Y-59292D01*
X81694Y-59320D01*
X81722Y-59376D01*
X81722Y-59517D01*
X81694Y-59573D01*
X81666Y-59601D01*
X81610Y-59630D01*
X81441Y-59630D01*
X81385Y-59601D01*
X81357Y-59573D01*
X81976Y-59404D02*
X82426Y-59404D01*
X82820Y-59039D02*
X82876Y-59039D01*
X82933Y-59067D01*
X82961Y-59095D01*
X82989Y-59151D01*
X83017Y-59264D01*
X83017Y-59404D01*
X82989Y-59517D01*
X82961Y-59573D01*
X82933Y-59601D01*
X82876Y-59630D01*
X82820Y-59630D01*
X82764Y-59601D01*
X82736Y-59573D01*
X82707Y-59517D01*
X82679Y-59404D01*
X82679Y-59264D01*
X82707Y-59151D01*
X82736Y-59095D01*
X82764Y-59067D01*
X82820Y-59039D01*
X83214Y-59039D02*
X83608Y-59039D01*
X83355Y-59630D01*
X83833Y-59404D02*
X84283Y-59404D01*
X84677Y-59039D02*
X84734Y-59039D01*
X84790Y-59067D01*
X84818Y-59095D01*
X84846Y-59151D01*
X84874Y-59264D01*
X84874Y-59404D01*
X84846Y-59517D01*
X84818Y-59573D01*
X84790Y-59601D01*
X84734Y-59630D01*
X84677Y-59630D01*
X84621Y-59601D01*
X84593Y-59573D01*
X84565Y-59517D01*
X84537Y-59404D01*
X84537Y-59264D01*
X84565Y-59151D01*
X84593Y-59095D01*
X84621Y-59067D01*
X84677Y-59039D01*
X85071Y-59039D02*
X85437Y-59039D01*
X85240Y-59264D01*
X85325Y-59264D01*
X85381Y-59292D01*
X85409Y-59320D01*
X85437Y-59376D01*
X85437Y-59517D01*
X85409Y-59573D01*
X85381Y-59601D01*
X85325Y-59630D01*
X85156Y-59630D01*
X85099Y-59601D01*
X85071Y-59573D01*
G54D11*
X101500Y-60399D02*
G75*
G03X102149Y-61249I749J-100D01*
G74*
G01*
X104200Y-61250D02*
G75*
G03X105000Y-60549I49J750D01*
G74*
G01*
X104250Y-61250D02*
X102250Y-61250D01*
X103650Y-60050D02*
X103650Y-60100D01*
X103650Y-59900D02*
X103650Y-60050D01*
X103650Y-60000D02*
X103650Y-59900D01*
X103750Y-60000D02*
X103650Y-60000D01*
X103550Y-60000D02*
X103750Y-60000D01*
X103400Y-61000D02*
X103400Y-60000D01*
X103350Y-61000D02*
X103400Y-61000D01*
X103350Y-60000D02*
X103350Y-61000D01*
X103450Y-60000D02*
X103350Y-60000D01*
X62350Y-59300D02*
X62500Y-59450D01*
X62500Y-59300D02*
X62350Y-59300D01*
X62500Y-59350D02*
X62500Y-59300D01*
X62350Y-59350D02*
X62500Y-59350D01*
X62350Y-59200D02*
X62350Y-59350D01*
X62300Y-59250D02*
X62350Y-59200D01*
X62450Y-59200D02*
X62450Y-59100D01*
X62350Y-59200D02*
X62450Y-59200D01*
X62500Y-59050D02*
X62350Y-59200D01*
X59400Y-67800D02*
X59400Y-67650D01*
X59350Y-67850D02*
X59400Y-67800D01*
X59350Y-67700D02*
X59350Y-67850D01*
X59450Y-67600D02*
X59350Y-67700D01*
X59450Y-67850D02*
X59450Y-67600D01*
X59200Y-67850D02*
X59450Y-67850D01*
X59500Y-67550D02*
X59200Y-67850D01*
X59500Y-67800D02*
X59500Y-67550D01*
X59200Y-67800D02*
X59500Y-67800D01*
X59100Y-67900D02*
X59200Y-67800D01*
X59500Y-67900D02*
X59100Y-67900D01*
X59500Y-67950D02*
X59500Y-67900D01*
X59500Y-67500D02*
X59500Y-67950D01*
X59550Y-67450D02*
X59500Y-67500D01*
X59550Y-67950D02*
X59550Y-67450D01*
X59600Y-67950D02*
X59550Y-67950D01*
X59600Y-67400D02*
X59600Y-67950D01*
X59050Y-67950D02*
X59600Y-67400D01*
X59650Y-67950D02*
X59050Y-67950D01*
X59650Y-67350D02*
X59650Y-67950D01*
X59050Y-67950D02*
X59650Y-67350D01*
G54D12*
X59866Y-67348D02*
X60063Y-67939D01*
X60260Y-67348D01*
X60541Y-67939D02*
X60485Y-67911D01*
X60457Y-67882D01*
X60429Y-67826D01*
X60429Y-67657D01*
X60457Y-67601D01*
X60485Y-67573D01*
X60541Y-67545D01*
X60626Y-67545D01*
X60682Y-67573D01*
X60710Y-67601D01*
X60738Y-67657D01*
X60738Y-67826D01*
X60710Y-67882D01*
X60682Y-67911D01*
X60626Y-67939D01*
X60541Y-67939D01*
X61076Y-67939D02*
X61020Y-67911D01*
X60991Y-67854D01*
X60991Y-67348D01*
X61554Y-67545D02*
X61554Y-67939D01*
X61301Y-67545D02*
X61301Y-67854D01*
X61329Y-67911D01*
X61385Y-67939D01*
X61470Y-67939D01*
X61526Y-67911D01*
X61554Y-67882D01*
X61836Y-67939D02*
X61836Y-67545D01*
X61836Y-67601D02*
X61864Y-67573D01*
X61920Y-67545D01*
X62005Y-67545D01*
X62061Y-67573D01*
X62089Y-67629D01*
X62089Y-67939D01*
X62089Y-67629D02*
X62117Y-67573D01*
X62173Y-67545D01*
X62258Y-67545D01*
X62314Y-67573D01*
X62342Y-67629D01*
X62342Y-67939D01*
X62849Y-67911D02*
X62793Y-67939D01*
X62680Y-67939D01*
X62624Y-67911D01*
X62596Y-67854D01*
X62596Y-67629D01*
X62624Y-67573D01*
X62680Y-67545D01*
X62793Y-67545D01*
X62849Y-67573D01*
X62877Y-67629D01*
X62877Y-67685D01*
X62596Y-67742D01*
G54D11*
X62250Y-59250D02*
X63250Y-59250D01*
X62500Y-59500D02*
X62250Y-59250D01*
X62500Y-59000D02*
X62500Y-59500D01*
X62250Y-59250D02*
X62500Y-59000D01*
X61500Y-58500D02*
G75*
G03X61500Y-59999I749J-749D01*
G74*
G01*
X62000Y-59000D02*
G75*
G03X62000Y-59500I250J-250D01*
G74*
G01*
X61750Y-58750D02*
G75*
G03X61750Y-59750I500J-500D01*
G74*
G01*
X103100Y-60700D02*
X103100Y-60300D01*
X103050Y-60700D02*
X103100Y-60700D01*
X103150Y-60700D02*
X103050Y-60700D01*
X103150Y-60300D02*
X103150Y-60700D01*
X103050Y-60300D02*
X103150Y-60300D01*
X103450Y-61000D02*
X103450Y-60000D01*
X103450Y-60500D02*
X103750Y-60500D01*
X103050Y-60300D02*
X103050Y-60700D01*
X103050Y-60500D02*
X103050Y-60300D01*
X102750Y-60500D02*
X103050Y-60500D01*
G54D14*
X58750Y-75000D02*
X58750Y-58000D01*
X107250Y-76500D02*
X60250Y-76500D01*
X108750Y-58000D02*
X108750Y-75000D01*
X60250Y-56500D02*
X107250Y-56500D01*
X107250Y-76500D02*
G75*
G03X108750Y-75000I0J1500D01*
G74*
G01*
X108750Y-58000D02*
G75*
G03X107250Y-56500I-1500J0D01*
G74*
G01*
X58750Y-75000D02*
G75*
G03X60250Y-76500I1500J0D01*
G74*
G01*
X60250Y-56500D02*
G75*
G03X58750Y-58000I0J-1500D01*
G74*
G01*
G54D13*
X97718Y-64511D02*
X97718Y-64275D01*
X97718Y-64275D02*
X97521Y-64078D01*
X97718Y-63922D02*
X97718Y-63607D01*
X93388Y-62426D02*
X93388Y-62032D01*
X93782Y-61638D02*
X97718Y-61638D01*
X98112Y-62032D02*
X98112Y-62426D01*
X98112Y-63607D02*
X98112Y-64393D01*
X98112Y-65574D02*
X98112Y-65968D01*
X97718Y-66362D02*
X93782Y-66362D01*
X93388Y-65968D02*
X93388Y-65574D01*
X93388Y-64393D02*
X93388Y-63607D01*
G54D15*
X96722Y-64000D02*
G75*
G03X96722Y-64000I-972J0D01*
G74*
G01*
G54D16*
X94062Y-62229D02*
G75*
G03X94062Y-62229I-83J0D01*
G74*
G01*
X97604Y-62229D02*
G75*
G03X97604Y-62229I-83J0D01*
G74*
G01*
X97604Y-65771D02*
G75*
G03X97604Y-65771I-83J0D01*
G74*
G01*
X94062Y-65771D02*
G75*
G03X94062Y-65771I-83J0D01*
G74*
G01*
G54D13*
X93782Y-61638D02*
G75*
G03X93388Y-62032I0J-394D01*
G74*
G01*
X98112Y-62032D02*
G75*
G03X97718Y-61638I-394J0D01*
G74*
G01*
X97718Y-66362D02*
G75*
G03X98112Y-65968I0J394D01*
G74*
G01*
X93388Y-65968D02*
G75*
G03X93782Y-66362I394J0D01*
G74*
G01*
X104718Y-64511D02*
X104718Y-64275D01*
X104718Y-64275D02*
X104521Y-64078D01*
X104718Y-63922D02*
X104718Y-63607D01*
X100388Y-62426D02*
X100388Y-62032D01*
X100782Y-61638D02*
X104718Y-61638D01*
X105112Y-62032D02*
X105112Y-62426D01*
X105112Y-63607D02*
X105112Y-64393D01*
X105112Y-65574D02*
X105112Y-65968D01*
X104718Y-66362D02*
X100782Y-66362D01*
X100388Y-65968D02*
X100388Y-65574D01*
X100388Y-64393D02*
X100388Y-63607D01*
G54D15*
X103722Y-64000D02*
G75*
G03X103722Y-64000I-972J0D01*
G74*
G01*
G54D16*
X101062Y-62229D02*
G75*
G03X101062Y-62229I-83J0D01*
G74*
G01*
X104604Y-62229D02*
G75*
G03X104604Y-62229I-83J0D01*
G74*
G01*
X104604Y-65771D02*
G75*
G03X104604Y-65771I-83J0D01*
G74*
G01*
X101062Y-65771D02*
G75*
G03X101062Y-65771I-83J0D01*
G74*
G01*
G54D13*
X100782Y-61638D02*
G75*
G03X100388Y-62032I0J-394D01*
G74*
G01*
X105112Y-62032D02*
G75*
G03X104718Y-61638I-394J0D01*
G74*
G01*
X104718Y-66362D02*
G75*
G03X105112Y-65968I0J394D01*
G74*
G01*
X100388Y-65968D02*
G75*
G03X100782Y-66362I394J0D01*
G74*
G01*
G54D17*
X58250Y-70500D02*
X58500Y-70750D01*
X58500Y-70750D02*
X58500Y-70250D01*
X58500Y-70250D02*
X58250Y-70500D01*
X58250Y-70500D02*
X59000Y-70500D01*
X59000Y-70500D02*
X59000Y-70750D01*
X59000Y-70750D02*
X59000Y-70250D01*
X60250Y-69000D02*
G75*
G03X60250Y-72000I-1500J-1500D01*
G74*
G01*
X60250Y-72000D02*
X61000Y-72000D01*
X61000Y-69000D02*
X60250Y-69000D01*
X61000Y-72000D02*
X61000Y-69000D01*
G54D13*
X92761Y-70782D02*
X92525Y-70782D01*
X92525Y-70782D02*
X92328Y-70979D01*
X92172Y-70782D02*
X91857Y-70782D01*
X90676Y-75112D02*
X90282Y-75112D01*
X89888Y-74718D02*
X89888Y-70782D01*
X90282Y-70388D02*
X90676Y-70388D01*
X91857Y-70388D02*
X92643Y-70388D01*
X93824Y-70388D02*
X94218Y-70388D01*
X94612Y-70782D02*
X94612Y-74718D01*
X94218Y-75112D02*
X93824Y-75112D01*
X92643Y-75112D02*
X91857Y-75112D01*
G54D15*
X93222Y-72750D02*
G75*
G03X93222Y-72750I-972J0D01*
G74*
G01*
G54D16*
X90562Y-74521D02*
G75*
G03X90562Y-74521I-83J0D01*
G74*
G01*
X90562Y-70979D02*
G75*
G03X90562Y-70979I-83J0D01*
G74*
G01*
X94104Y-70979D02*
G75*
G03X94104Y-70979I-83J0D01*
G74*
G01*
X94104Y-74521D02*
G75*
G03X94104Y-74521I-83J0D01*
G74*
G01*
G54D13*
X89888Y-74718D02*
G75*
G03X90282Y-75112I394J0D01*
G74*
G01*
X90282Y-70388D02*
G75*
G03X89888Y-70782I0J-394D01*
G74*
G01*
X94612Y-70782D02*
G75*
G03X94218Y-70388I-394J0D01*
G74*
G01*
X94218Y-75112D02*
G75*
G03X94612Y-74718I0J394D01*
G74*
G01*
X98011Y-70782D02*
X97775Y-70782D01*
X97775Y-70782D02*
X97578Y-70979D01*
X97422Y-70782D02*
X97107Y-70782D01*
X95926Y-75112D02*
X95532Y-75112D01*
X95138Y-74718D02*
X95138Y-70782D01*
X95532Y-70388D02*
X95926Y-70388D01*
X97107Y-70388D02*
X97893Y-70388D01*
X99074Y-70388D02*
X99468Y-70388D01*
X99862Y-70782D02*
X99862Y-74718D01*
X99468Y-75112D02*
X99074Y-75112D01*
X97893Y-75112D02*
X97107Y-75112D01*
G54D15*
X98472Y-72750D02*
G75*
G03X98472Y-72750I-972J0D01*
G74*
G01*
G54D16*
X95812Y-74521D02*
G75*
G03X95812Y-74521I-83J0D01*
G74*
G01*
X95812Y-70979D02*
G75*
G03X95812Y-70979I-83J0D01*
G74*
G01*
X99354Y-70979D02*
G75*
G03X99354Y-70979I-83J0D01*
G74*
G01*
X99354Y-74521D02*
G75*
G03X99354Y-74521I-83J0D01*
G74*
G01*
G54D13*
X95138Y-74718D02*
G75*
G03X95532Y-75112I394J0D01*
G74*
G01*
X95532Y-70388D02*
G75*
G03X95138Y-70782I0J-394D01*
G74*
G01*
X99862Y-70782D02*
G75*
G03X99468Y-70388I-394J0D01*
G74*
G01*
X99468Y-75112D02*
G75*
G03X99862Y-74718I0J394D01*
G74*
G01*
X103261Y-70782D02*
X103025Y-70782D01*
X103025Y-70782D02*
X102828Y-70979D01*
X102672Y-70782D02*
X102357Y-70782D01*
X101176Y-75112D02*
X100782Y-75112D01*
X100388Y-74718D02*
X100388Y-70782D01*
X100782Y-70388D02*
X101176Y-70388D01*
X102357Y-70388D02*
X103143Y-70388D01*
X104324Y-70388D02*
X104718Y-70388D01*
X105112Y-70782D02*
X105112Y-74718D01*
X104718Y-75112D02*
X104324Y-75112D01*
X103143Y-75112D02*
X102357Y-75112D01*
G54D15*
X103722Y-72750D02*
G75*
G03X103722Y-72750I-972J0D01*
G74*
G01*
G54D16*
X101062Y-74521D02*
G75*
G03X101062Y-74521I-83J0D01*
G74*
G01*
X101062Y-70979D02*
G75*
G03X101062Y-70979I-83J0D01*
G74*
G01*
X104604Y-70979D02*
G75*
G03X104604Y-70979I-83J0D01*
G74*
G01*
X104604Y-74521D02*
G75*
G03X104604Y-74521I-83J0D01*
G74*
G01*
G54D13*
X100388Y-74718D02*
G75*
G03X100782Y-75112I394J0D01*
G74*
G01*
X100782Y-70388D02*
G75*
G03X100388Y-70782I0J-394D01*
G74*
G01*
X105112Y-70782D02*
G75*
G03X104718Y-70388I-394J0D01*
G74*
G01*
X104718Y-75112D02*
G75*
G03X105112Y-74718I0J394D01*
G74*
G01*
X66511Y-70782D02*
X66275Y-70782D01*
X66275Y-70782D02*
X66078Y-70979D01*
X65922Y-70782D02*
X65607Y-70782D01*
X64426Y-75112D02*
X64032Y-75112D01*
X63638Y-74718D02*
X63638Y-70782D01*
X64032Y-70388D02*
X64426Y-70388D01*
X65607Y-70388D02*
X66393Y-70388D01*
X67574Y-70388D02*
X67968Y-70388D01*
X68362Y-70782D02*
X68362Y-74718D01*
X67968Y-75112D02*
X67574Y-75112D01*
X66393Y-75112D02*
X65607Y-75112D01*
G54D15*
X66972Y-72750D02*
G75*
G03X66972Y-72750I-972J0D01*
G74*
G01*
G54D16*
X64312Y-74521D02*
G75*
G03X64312Y-74521I-83J0D01*
G74*
G01*
X64312Y-70979D02*
G75*
G03X64312Y-70979I-83J0D01*
G74*
G01*
X67854Y-70979D02*
G75*
G03X67854Y-70979I-83J0D01*
G74*
G01*
X67854Y-74521D02*
G75*
G03X67854Y-74521I-83J0D01*
G74*
G01*
G54D13*
X63638Y-74718D02*
G75*
G03X64032Y-75112I394J0D01*
G74*
G01*
X64032Y-70388D02*
G75*
G03X63638Y-70782I0J-394D01*
G74*
G01*
X68362Y-70782D02*
G75*
G03X67968Y-70388I-394J0D01*
G74*
G01*
X67968Y-75112D02*
G75*
G03X68362Y-74718I0J394D01*
G74*
G01*
X71761Y-70782D02*
X71525Y-70782D01*
X71525Y-70782D02*
X71328Y-70979D01*
X71172Y-70782D02*
X70857Y-70782D01*
X69676Y-75112D02*
X69282Y-75112D01*
X68888Y-74718D02*
X68888Y-70782D01*
X69282Y-70388D02*
X69676Y-70388D01*
X70857Y-70388D02*
X71643Y-70388D01*
X72824Y-70388D02*
X73218Y-70388D01*
X73612Y-70782D02*
X73612Y-74718D01*
X73218Y-75112D02*
X72824Y-75112D01*
X71643Y-75112D02*
X70857Y-75112D01*
G54D15*
X72222Y-72750D02*
G75*
G03X72222Y-72750I-972J0D01*
G74*
G01*
G54D16*
X69562Y-74521D02*
G75*
G03X69562Y-74521I-83J0D01*
G74*
G01*
X69562Y-70979D02*
G75*
G03X69562Y-70979I-83J0D01*
G74*
G01*
X73104Y-70979D02*
G75*
G03X73104Y-70979I-83J0D01*
G74*
G01*
X73104Y-74521D02*
G75*
G03X73104Y-74521I-83J0D01*
G74*
G01*
G54D13*
X68888Y-74718D02*
G75*
G03X69282Y-75112I394J0D01*
G74*
G01*
X69282Y-70388D02*
G75*
G03X68888Y-70782I0J-394D01*
G74*
G01*
X73612Y-70782D02*
G75*
G03X73218Y-70388I-394J0D01*
G74*
G01*
X73218Y-75112D02*
G75*
G03X73612Y-74718I0J394D01*
G74*
G01*
X77011Y-70782D02*
X76775Y-70782D01*
X76775Y-70782D02*
X76578Y-70979D01*
X76422Y-70782D02*
X76107Y-70782D01*
X74926Y-75112D02*
X74532Y-75112D01*
X74138Y-74718D02*
X74138Y-70782D01*
X74532Y-70388D02*
X74926Y-70388D01*
X76107Y-70388D02*
X76893Y-70388D01*
X78074Y-70388D02*
X78468Y-70388D01*
X78862Y-70782D02*
X78862Y-74718D01*
X78468Y-75112D02*
X78074Y-75112D01*
X76893Y-75112D02*
X76107Y-75112D01*
G54D15*
X77472Y-72750D02*
G75*
G03X77472Y-72750I-972J0D01*
G74*
G01*
G54D16*
X74812Y-74521D02*
G75*
G03X74812Y-74521I-83J0D01*
G74*
G01*
X74812Y-70979D02*
G75*
G03X74812Y-70979I-83J0D01*
G74*
G01*
X78354Y-70979D02*
G75*
G03X78354Y-70979I-83J0D01*
G74*
G01*
X78354Y-74521D02*
G75*
G03X78354Y-74521I-83J0D01*
G74*
G01*
G54D13*
X74138Y-74718D02*
G75*
G03X74532Y-75112I394J0D01*
G74*
G01*
X74532Y-70388D02*
G75*
G03X74138Y-70782I0J-394D01*
G74*
G01*
X78862Y-70782D02*
G75*
G03X78468Y-70388I-394J0D01*
G74*
G01*
X78468Y-75112D02*
G75*
G03X78862Y-74718I0J394D01*
G74*
G01*
X82261Y-70782D02*
X82025Y-70782D01*
X82025Y-70782D02*
X81828Y-70979D01*
X81672Y-70782D02*
X81357Y-70782D01*
X80176Y-75112D02*
X79782Y-75112D01*
X79388Y-74718D02*
X79388Y-70782D01*
X79782Y-70388D02*
X80176Y-70388D01*
X81357Y-70388D02*
X82143Y-70388D01*
X83324Y-70388D02*
X83718Y-70388D01*
X84112Y-70782D02*
X84112Y-74718D01*
X83718Y-75112D02*
X83324Y-75112D01*
X82143Y-75112D02*
X81357Y-75112D01*
G54D15*
X82722Y-72750D02*
G75*
G03X82722Y-72750I-972J0D01*
G74*
G01*
G54D16*
X80062Y-74521D02*
G75*
G03X80062Y-74521I-83J0D01*
G74*
G01*
X80062Y-70979D02*
G75*
G03X80062Y-70979I-83J0D01*
G74*
G01*
X83604Y-70979D02*
G75*
G03X83604Y-70979I-83J0D01*
G74*
G01*
X83604Y-74521D02*
G75*
G03X83604Y-74521I-83J0D01*
G74*
G01*
G54D13*
X79388Y-74718D02*
G75*
G03X79782Y-75112I394J0D01*
G74*
G01*
X79782Y-70388D02*
G75*
G03X79388Y-70782I0J-394D01*
G74*
G01*
X84112Y-70782D02*
G75*
G03X83718Y-70388I-394J0D01*
G74*
G01*
X83718Y-75112D02*
G75*
G03X84112Y-74718I0J394D01*
G74*
G01*
X87511Y-70782D02*
X87275Y-70782D01*
X87275Y-70782D02*
X87078Y-70979D01*
X86922Y-70782D02*
X86607Y-70782D01*
X85426Y-75112D02*
X85032Y-75112D01*
X84638Y-74718D02*
X84638Y-70782D01*
X85032Y-70388D02*
X85426Y-70388D01*
X86607Y-70388D02*
X87393Y-70388D01*
X88574Y-70388D02*
X88968Y-70388D01*
X89362Y-70782D02*
X89362Y-74718D01*
X88968Y-75112D02*
X88574Y-75112D01*
X87393Y-75112D02*
X86607Y-75112D01*
G54D15*
X87972Y-72750D02*
G75*
G03X87972Y-72750I-972J0D01*
G74*
G01*
G54D16*
X85312Y-74521D02*
G75*
G03X85312Y-74521I-83J0D01*
G74*
G01*
X85312Y-70979D02*
G75*
G03X85312Y-70979I-83J0D01*
G74*
G01*
X88854Y-70979D02*
G75*
G03X88854Y-70979I-83J0D01*
G74*
G01*
X88854Y-74521D02*
G75*
G03X88854Y-74521I-83J0D01*
G74*
G01*
G54D13*
X84638Y-74718D02*
G75*
G03X85032Y-75112I394J0D01*
G74*
G01*
X85032Y-70388D02*
G75*
G03X84638Y-70782I0J-394D01*
G74*
G01*
X89362Y-70782D02*
G75*
G03X88968Y-70388I-394J0D01*
G74*
G01*
X88968Y-75112D02*
G75*
G03X89362Y-74718I0J394D01*
G74*
G01*
G54D18*
X66750Y-64500D02*
X66750Y-64100D01*
X66750Y-64100D02*
X66350Y-64100D01*
X66350Y-64100D02*
X66350Y-60900D01*
X66350Y-60900D02*
X67150Y-60900D01*
X67150Y-60900D02*
X67150Y-64100D01*
X67150Y-64100D02*
X66750Y-64100D01*
X66550Y-64100D02*
X66350Y-63900D01*
X66750Y-60500D02*
X66750Y-60900D01*
X62250Y-68500D02*
X62250Y-68900D01*
X62250Y-68900D02*
X62650Y-68900D01*
X62650Y-68900D02*
X62650Y-72100D01*
X62650Y-72100D02*
X61850Y-72100D01*
X61850Y-72100D02*
X61850Y-68900D01*
X61850Y-68900D02*
X62250Y-68900D01*
X62450Y-68900D02*
X62650Y-69100D01*
X62250Y-72500D02*
X62250Y-72100D01*
X68750Y-60500D02*
X68750Y-60900D01*
X68750Y-60900D02*
X69150Y-60900D01*
X69150Y-60900D02*
X69150Y-64100D01*
X69150Y-64100D02*
X68350Y-64100D01*
X68350Y-64100D02*
X68350Y-60900D01*
X68350Y-60900D02*
X68750Y-60900D01*
X68950Y-60900D02*
X69150Y-61100D01*
X68750Y-64500D02*
X68750Y-64100D01*
X90750Y-66000D02*
X90350Y-66000D01*
X90350Y-66000D02*
X90350Y-66400D01*
X90350Y-66400D02*
X87150Y-66400D01*
X87150Y-66400D02*
X87150Y-65600D01*
X87150Y-65600D02*
X90350Y-65600D01*
X90350Y-65600D02*
X90350Y-66000D01*
X90350Y-66200D02*
X90150Y-66400D01*
X86750Y-66000D02*
X87150Y-66000D01*
X84250Y-66000D02*
X83850Y-66000D01*
X83850Y-66000D02*
X83850Y-66400D01*
X83850Y-66400D02*
X80650Y-66400D01*
X80650Y-66400D02*
X80650Y-65600D01*
X80650Y-65600D02*
X83850Y-65600D01*
X83850Y-65600D02*
X83850Y-66000D01*
X83850Y-66200D02*
X83650Y-66400D01*
X80250Y-66000D02*
X80650Y-66000D01*
X107250Y-63500D02*
X107250Y-63900D01*
X107250Y-63900D02*
X107650Y-63900D01*
X107650Y-63900D02*
X107650Y-67100D01*
X107650Y-67100D02*
X106850Y-67100D01*
X106850Y-67100D02*
X106850Y-63900D01*
X106850Y-63900D02*
X107250Y-63900D01*
X107450Y-63900D02*
X107650Y-64100D01*
X107250Y-67500D02*
X107250Y-67100D01*
X74500Y-62500D02*
X74500Y-62100D01*
X74500Y-62100D02*
X74100Y-62100D01*
X74100Y-62100D02*
X74100Y-58900D01*
X74100Y-58900D02*
X74900Y-58900D01*
X74900Y-58900D02*
X74900Y-62100D01*
X74900Y-62100D02*
X74500Y-62100D01*
X74300Y-62100D02*
X74100Y-61900D01*
X74500Y-58500D02*
X74500Y-58900D01*
X73750Y-66000D02*
X74150Y-66000D01*
X74150Y-66000D02*
X74150Y-65600D01*
X74150Y-65600D02*
X77350Y-65600D01*
X77350Y-65600D02*
X77350Y-66400D01*
X77350Y-66400D02*
X74150Y-66400D01*
X74150Y-66400D02*
X74150Y-66000D01*
X74150Y-65800D02*
X74350Y-65600D01*
X77750Y-66000D02*
X77350Y-66000D01*
X96250Y-60750D02*
X95850Y-60750D01*
X95850Y-60750D02*
X95850Y-61150D01*
X95850Y-61150D02*
X92650Y-61150D01*
X92650Y-61150D02*
X92650Y-60350D01*
X92650Y-60350D02*
X95850Y-60350D01*
X95850Y-60350D02*
X95850Y-60750D01*
X95850Y-60950D02*
X95650Y-61150D01*
X92250Y-60750D02*
X92650Y-60750D01*
G54D13*
X88750Y-59250D02*
X85750Y-59250D01*
X85750Y-57250D02*
X88750Y-57250D01*
X88750Y-57250D02*
X88750Y-59250D01*
X85750Y-59250D02*
X85750Y-57250D01*
G54D17*
X96750Y-58280D02*
X95750Y-58280D01*
G54D19*
X95865Y-59360D02*
G75*
G03X96250Y-59500I384J460D01*
G74*
G01*
X96250Y-59499D02*
G75*
G03X96647Y-59348I0J599D01*
G74*
G01*
X96250Y-58300D02*
G75*
G03X95860Y-58444I0J-599D01*
G74*
G01*
X96634Y-58439D02*
G75*
G03X96250Y-58300I-384J-460D01*
G74*
G01*
X95900Y-58412D02*
G75*
G03X95650Y-58900I349J-487D01*
G74*
G01*
X95650Y-58900D02*
G75*
G03X95889Y-59379I600J0D01*
G74*
G01*
X96849Y-58900D02*
G75*
G03X96618Y-58427I-599J0D01*
G74*
G01*
X96618Y-59373D02*
G75*
G03X96850Y-58900I-368J473D01*
G74*
G01*
X96000Y-58900D02*
G75*
G03X96250Y-59150I250J0D01*
G74*
G01*
X95850Y-58900D02*
G75*
G03X96250Y-59300I400J0D01*
G74*
G01*
X96500Y-58900D02*
G75*
G03X96250Y-58650I-250J0D01*
G74*
G01*
X96650Y-58900D02*
G75*
G03X96250Y-58500I-400J0D01*
G74*
G01*
G54D17*
X95736Y-58286D02*
G75*
G03X95450Y-58900I513J-613D01*
G74*
G01*
X95451Y-58900D02*
G75*
G03X95873Y-59604I799J0D01*
G74*
G01*
X97048Y-58898D02*
G75*
G03X96765Y-58289I-798J-1D01*
G74*
G01*
X96647Y-59594D02*
G75*
G03X97050Y-58900I-397J694D01*
G74*
G01*
X95870Y-59604D02*
G75*
G03X96250Y-59700I379J704D01*
G74*
G01*
X96250Y-59699D02*
G75*
G03X96668Y-59581I0J799D01*
G74*
G01*
X71750Y-67280D02*
X70750Y-67280D01*
G54D19*
X70865Y-68360D02*
G75*
G03X71250Y-68500I384J460D01*
G74*
G01*
X71250Y-68499D02*
G75*
G03X71647Y-68348I0J599D01*
G74*
G01*
X71250Y-67300D02*
G75*
G03X70860Y-67444I0J-599D01*
G74*
G01*
X71634Y-67439D02*
G75*
G03X71250Y-67300I-384J-460D01*
G74*
G01*
X70900Y-67412D02*
G75*
G03X70650Y-67900I349J-487D01*
G74*
G01*
X70650Y-67900D02*
G75*
G03X70889Y-68379I600J0D01*
G74*
G01*
X71849Y-67900D02*
G75*
G03X71618Y-67427I-599J0D01*
G74*
G01*
X71618Y-68373D02*
G75*
G03X71850Y-67900I-368J473D01*
G74*
G01*
X71000Y-67900D02*
G75*
G03X71250Y-68150I250J0D01*
G74*
G01*
X70850Y-67900D02*
G75*
G03X71250Y-68300I400J0D01*
G74*
G01*
X71500Y-67900D02*
G75*
G03X71250Y-67650I-250J0D01*
G74*
G01*
X71650Y-67900D02*
G75*
G03X71250Y-67500I-400J0D01*
G74*
G01*
G54D17*
X70736Y-67286D02*
G75*
G03X70450Y-67900I513J-613D01*
G74*
G01*
X70451Y-67900D02*
G75*
G03X70873Y-68604I799J0D01*
G74*
G01*
X72048Y-67898D02*
G75*
G03X71765Y-67289I-798J-1D01*
G74*
G01*
X71647Y-68594D02*
G75*
G03X72050Y-67900I-397J694D01*
G74*
G01*
X70870Y-68604D02*
G75*
G03X71250Y-68700I379J704D01*
G74*
G01*
X71250Y-68699D02*
G75*
G03X71668Y-68581I0J799D01*
G74*
G01*
X66500Y-67280D02*
X65500Y-67280D01*
G54D19*
X65615Y-68360D02*
G75*
G03X66000Y-68500I384J460D01*
G74*
G01*
X66000Y-68499D02*
G75*
G03X66397Y-68348I0J599D01*
G74*
G01*
X66000Y-67300D02*
G75*
G03X65610Y-67444I0J-599D01*
G74*
G01*
X66384Y-67439D02*
G75*
G03X66000Y-67300I-384J-460D01*
G74*
G01*
X65650Y-67412D02*
G75*
G03X65400Y-67900I349J-487D01*
G74*
G01*
X65400Y-67900D02*
G75*
G03X65639Y-68379I600J0D01*
G74*
G01*
X66599Y-67900D02*
G75*
G03X66368Y-67427I-599J0D01*
G74*
G01*
X66368Y-68373D02*
G75*
G03X66600Y-67900I-368J473D01*
G74*
G01*
X65750Y-67900D02*
G75*
G03X66000Y-68150I250J0D01*
G74*
G01*
X65600Y-67900D02*
G75*
G03X66000Y-68300I400J0D01*
G74*
G01*
X66250Y-67900D02*
G75*
G03X66000Y-67650I-250J0D01*
G74*
G01*
X66400Y-67900D02*
G75*
G03X66000Y-67500I-400J0D01*
G74*
G01*
G54D17*
X65486Y-67286D02*
G75*
G03X65200Y-67900I513J-613D01*
G74*
G01*
X65201Y-67900D02*
G75*
G03X65623Y-68604I799J0D01*
G74*
G01*
X66798Y-67898D02*
G75*
G03X66515Y-67289I-798J-1D01*
G74*
G01*
X66397Y-68594D02*
G75*
G03X66800Y-67900I-397J694D01*
G74*
G01*
X65620Y-68604D02*
G75*
G03X66000Y-68700I379J704D01*
G74*
G01*
X66000Y-68699D02*
G75*
G03X66418Y-68581I0J799D01*
G74*
G01*
X77000Y-67280D02*
X76000Y-67280D01*
G54D19*
X76115Y-68360D02*
G75*
G03X76500Y-68500I384J460D01*
G74*
G01*
X76500Y-68499D02*
G75*
G03X76897Y-68348I0J599D01*
G74*
G01*
X76500Y-67300D02*
G75*
G03X76110Y-67444I0J-599D01*
G74*
G01*
X76884Y-67439D02*
G75*
G03X76500Y-67300I-384J-460D01*
G74*
G01*
X76150Y-67412D02*
G75*
G03X75900Y-67900I349J-487D01*
G74*
G01*
X75900Y-67900D02*
G75*
G03X76139Y-68379I600J0D01*
G74*
G01*
X77099Y-67900D02*
G75*
G03X76868Y-67427I-599J0D01*
G74*
G01*
X76868Y-68373D02*
G75*
G03X77100Y-67900I-368J473D01*
G74*
G01*
X76250Y-67900D02*
G75*
G03X76500Y-68150I250J0D01*
G74*
G01*
X76100Y-67900D02*
G75*
G03X76500Y-68300I400J0D01*
G74*
G01*
X76750Y-67900D02*
G75*
G03X76500Y-67650I-250J0D01*
G74*
G01*
X76900Y-67900D02*
G75*
G03X76500Y-67500I-400J0D01*
G74*
G01*
G54D17*
X75986Y-67286D02*
G75*
G03X75700Y-67900I513J-613D01*
G74*
G01*
X75701Y-67900D02*
G75*
G03X76123Y-68604I799J0D01*
G74*
G01*
X77298Y-67898D02*
G75*
G03X77015Y-67289I-798J-1D01*
G74*
G01*
X76897Y-68594D02*
G75*
G03X77300Y-67900I-397J694D01*
G74*
G01*
X76120Y-68604D02*
G75*
G03X76500Y-68700I379J704D01*
G74*
G01*
X76500Y-68699D02*
G75*
G03X76918Y-68581I0J799D01*
G74*
G01*
X107750Y-60780D02*
X106750Y-60780D01*
G54D19*
X106865Y-61860D02*
G75*
G03X107250Y-62000I384J460D01*
G74*
G01*
X107250Y-61999D02*
G75*
G03X107647Y-61848I0J599D01*
G74*
G01*
X107250Y-60800D02*
G75*
G03X106860Y-60944I0J-599D01*
G74*
G01*
X107634Y-60939D02*
G75*
G03X107250Y-60800I-384J-460D01*
G74*
G01*
X106900Y-60912D02*
G75*
G03X106650Y-61400I349J-487D01*
G74*
G01*
X106650Y-61400D02*
G75*
G03X106889Y-61879I600J0D01*
G74*
G01*
X107849Y-61400D02*
G75*
G03X107618Y-60927I-599J0D01*
G74*
G01*
X107618Y-61873D02*
G75*
G03X107850Y-61400I-368J473D01*
G74*
G01*
X107000Y-61400D02*
G75*
G03X107250Y-61650I250J0D01*
G74*
G01*
X106850Y-61400D02*
G75*
G03X107250Y-61800I400J0D01*
G74*
G01*
X107500Y-61400D02*
G75*
G03X107250Y-61150I-250J0D01*
G74*
G01*
X107650Y-61400D02*
G75*
G03X107250Y-61000I-400J0D01*
G74*
G01*
G54D17*
X106736Y-60786D02*
G75*
G03X106450Y-61400I513J-613D01*
G74*
G01*
X106451Y-61400D02*
G75*
G03X106873Y-62104I799J0D01*
G74*
G01*
X108048Y-61398D02*
G75*
G03X107765Y-60789I-798J-1D01*
G74*
G01*
X107647Y-62094D02*
G75*
G03X108050Y-61400I-397J694D01*
G74*
G01*
X106870Y-62104D02*
G75*
G03X107250Y-62200I379J704D01*
G74*
G01*
X107250Y-62199D02*
G75*
G03X107668Y-62081I0J799D01*
G74*
G01*
X87500Y-67280D02*
X86500Y-67280D01*
G54D19*
X86615Y-68360D02*
G75*
G03X87000Y-68500I384J460D01*
G74*
G01*
X87000Y-68499D02*
G75*
G03X87397Y-68348I0J599D01*
G74*
G01*
X87000Y-67300D02*
G75*
G03X86610Y-67444I0J-599D01*
G74*
G01*
X87384Y-67439D02*
G75*
G03X87000Y-67300I-384J-460D01*
G74*
G01*
X86650Y-67412D02*
G75*
G03X86400Y-67900I349J-487D01*
G74*
G01*
X86400Y-67900D02*
G75*
G03X86639Y-68379I600J0D01*
G74*
G01*
X87599Y-67900D02*
G75*
G03X87368Y-67427I-599J0D01*
G74*
G01*
X87368Y-68373D02*
G75*
G03X87600Y-67900I-368J473D01*
G74*
G01*
X86750Y-67900D02*
G75*
G03X87000Y-68150I250J0D01*
G74*
G01*
X86600Y-67900D02*
G75*
G03X87000Y-68300I400J0D01*
G74*
G01*
X87250Y-67900D02*
G75*
G03X87000Y-67650I-250J0D01*
G74*
G01*
X87400Y-67900D02*
G75*
G03X87000Y-67500I-400J0D01*
G74*
G01*
G54D17*
X86486Y-67286D02*
G75*
G03X86200Y-67900I513J-613D01*
G74*
G01*
X86201Y-67900D02*
G75*
G03X86623Y-68604I799J0D01*
G74*
G01*
X87798Y-67898D02*
G75*
G03X87515Y-67289I-798J-1D01*
G74*
G01*
X87397Y-68594D02*
G75*
G03X87800Y-67900I-397J694D01*
G74*
G01*
X86620Y-68604D02*
G75*
G03X87000Y-68700I379J704D01*
G74*
G01*
X87000Y-68699D02*
G75*
G03X87418Y-68581I0J799D01*
G74*
G01*
X98000Y-67280D02*
X97000Y-67280D01*
G54D19*
X97115Y-68360D02*
G75*
G03X97500Y-68500I384J460D01*
G74*
G01*
X97500Y-68499D02*
G75*
G03X97897Y-68348I0J599D01*
G74*
G01*
X97500Y-67300D02*
G75*
G03X97110Y-67444I0J-599D01*
G74*
G01*
X97884Y-67439D02*
G75*
G03X97500Y-67300I-384J-460D01*
G74*
G01*
X97150Y-67412D02*
G75*
G03X96900Y-67900I349J-487D01*
G74*
G01*
X96900Y-67900D02*
G75*
G03X97139Y-68379I600J0D01*
G74*
G01*
X98099Y-67900D02*
G75*
G03X97868Y-67427I-599J0D01*
G74*
G01*
X97868Y-68373D02*
G75*
G03X98100Y-67900I-368J473D01*
G74*
G01*
X97250Y-67900D02*
G75*
G03X97500Y-68150I250J0D01*
G74*
G01*
X97100Y-67900D02*
G75*
G03X97500Y-68300I400J0D01*
G74*
G01*
X97750Y-67900D02*
G75*
G03X97500Y-67650I-250J0D01*
G74*
G01*
X97900Y-67900D02*
G75*
G03X97500Y-67500I-400J0D01*
G74*
G01*
G54D17*
X96986Y-67286D02*
G75*
G03X96700Y-67900I513J-613D01*
G74*
G01*
X96701Y-67900D02*
G75*
G03X97123Y-68604I799J0D01*
G74*
G01*
X98298Y-67898D02*
G75*
G03X98015Y-67289I-798J-1D01*
G74*
G01*
X97897Y-68594D02*
G75*
G03X98300Y-67900I-397J694D01*
G74*
G01*
X97120Y-68604D02*
G75*
G03X97500Y-68700I379J704D01*
G74*
G01*
X97500Y-68699D02*
G75*
G03X97918Y-68581I0J799D01*
G74*
G01*
X103250Y-67280D02*
X102250Y-67280D01*
G54D19*
X102365Y-68360D02*
G75*
G03X102750Y-68500I384J460D01*
G74*
G01*
X102750Y-68499D02*
G75*
G03X103147Y-68348I0J599D01*
G74*
G01*
X102750Y-67300D02*
G75*
G03X102360Y-67444I0J-599D01*
G74*
G01*
X103134Y-67439D02*
G75*
G03X102750Y-67300I-384J-460D01*
G74*
G01*
X102400Y-67412D02*
G75*
G03X102150Y-67900I349J-487D01*
G74*
G01*
X102150Y-67900D02*
G75*
G03X102389Y-68379I600J0D01*
G74*
G01*
X103349Y-67900D02*
G75*
G03X103118Y-67427I-599J0D01*
G74*
G01*
X103118Y-68373D02*
G75*
G03X103350Y-67900I-368J473D01*
G74*
G01*
X102500Y-67900D02*
G75*
G03X102750Y-68150I250J0D01*
G74*
G01*
X102350Y-67900D02*
G75*
G03X102750Y-68300I400J0D01*
G74*
G01*
X103000Y-67900D02*
G75*
G03X102750Y-67650I-250J0D01*
G74*
G01*
X103150Y-67900D02*
G75*
G03X102750Y-67500I-400J0D01*
G74*
G01*
G54D17*
X102236Y-67286D02*
G75*
G03X101950Y-67900I513J-613D01*
G74*
G01*
X101951Y-67900D02*
G75*
G03X102373Y-68604I799J0D01*
G74*
G01*
X103548Y-67898D02*
G75*
G03X103265Y-67289I-798J-1D01*
G74*
G01*
X103147Y-68594D02*
G75*
G03X103550Y-67900I-397J694D01*
G74*
G01*
X102370Y-68604D02*
G75*
G03X102750Y-68700I379J704D01*
G74*
G01*
X102750Y-68699D02*
G75*
G03X103168Y-68581I0J799D01*
G74*
G01*
X92750Y-67280D02*
X91750Y-67280D01*
G54D19*
X91865Y-68360D02*
G75*
G03X92250Y-68500I384J460D01*
G74*
G01*
X92250Y-68499D02*
G75*
G03X92647Y-68348I0J599D01*
G74*
G01*
X92250Y-67300D02*
G75*
G03X91860Y-67444I0J-599D01*
G74*
G01*
X92634Y-67439D02*
G75*
G03X92250Y-67300I-384J-460D01*
G74*
G01*
X91900Y-67412D02*
G75*
G03X91650Y-67900I349J-487D01*
G74*
G01*
X91650Y-67900D02*
G75*
G03X91889Y-68379I600J0D01*
G74*
G01*
X92849Y-67900D02*
G75*
G03X92618Y-67427I-599J0D01*
G74*
G01*
X92618Y-68373D02*
G75*
G03X92850Y-67900I-368J473D01*
G74*
G01*
X92000Y-67900D02*
G75*
G03X92250Y-68150I250J0D01*
G74*
G01*
X91850Y-67900D02*
G75*
G03X92250Y-68300I400J0D01*
G74*
G01*
X92500Y-67900D02*
G75*
G03X92250Y-67650I-250J0D01*
G74*
G01*
X92650Y-67900D02*
G75*
G03X92250Y-67500I-400J0D01*
G74*
G01*
G54D17*
X91736Y-67286D02*
G75*
G03X91450Y-67900I513J-613D01*
G74*
G01*
X91451Y-67900D02*
G75*
G03X91873Y-68604I799J0D01*
G74*
G01*
X93048Y-67898D02*
G75*
G03X92765Y-67289I-798J-1D01*
G74*
G01*
X92647Y-68594D02*
G75*
G03X93050Y-67900I-397J694D01*
G74*
G01*
X91870Y-68604D02*
G75*
G03X92250Y-68700I379J704D01*
G74*
G01*
X92250Y-68699D02*
G75*
G03X92668Y-68581I0J799D01*
G74*
G01*
X82250Y-67280D02*
X81250Y-67280D01*
G54D19*
X81365Y-68360D02*
G75*
G03X81750Y-68500I384J460D01*
G74*
G01*
X81750Y-68499D02*
G75*
G03X82147Y-68348I0J599D01*
G74*
G01*
X81750Y-67300D02*
G75*
G03X81360Y-67444I0J-599D01*
G74*
G01*
X82134Y-67439D02*
G75*
G03X81750Y-67300I-384J-460D01*
G74*
G01*
X81400Y-67412D02*
G75*
G03X81150Y-67900I349J-487D01*
G74*
G01*
X81150Y-67900D02*
G75*
G03X81389Y-68379I600J0D01*
G74*
G01*
X82349Y-67900D02*
G75*
G03X82118Y-67427I-599J0D01*
G74*
G01*
X82118Y-68373D02*
G75*
G03X82350Y-67900I-368J473D01*
G74*
G01*
X81500Y-67900D02*
G75*
G03X81750Y-68150I250J0D01*
G74*
G01*
X81350Y-67900D02*
G75*
G03X81750Y-68300I400J0D01*
G74*
G01*
X82000Y-67900D02*
G75*
G03X81750Y-67650I-250J0D01*
G74*
G01*
X82150Y-67900D02*
G75*
G03X81750Y-67500I-400J0D01*
G74*
G01*
G54D17*
X81236Y-67286D02*
G75*
G03X80950Y-67900I513J-613D01*
G74*
G01*
X80951Y-67900D02*
G75*
G03X81373Y-68604I799J0D01*
G74*
G01*
X82548Y-67898D02*
G75*
G03X82265Y-67289I-798J-1D01*
G74*
G01*
X82147Y-68594D02*
G75*
G03X82550Y-67900I-397J694D01*
G74*
G01*
X81370Y-68604D02*
G75*
G03X81750Y-68700I379J704D01*
G74*
G01*
X81750Y-68699D02*
G75*
G03X82168Y-68581I0J799D01*
G74*
G01*
X71250Y-64500D02*
X71250Y-64000D01*
X71250Y-64000D02*
X72250Y-64000D01*
X72250Y-64000D02*
X72250Y-64500D01*
X70750Y-64500D02*
X70750Y-60500D01*
X70750Y-60500D02*
X72750Y-60500D01*
X72750Y-60500D02*
X72750Y-64500D01*
X72750Y-64500D02*
X70750Y-64500D01*
G54D20*
X75250Y-61000D02*
X90250Y-61000D01*
X90250Y-61000D02*
X90250Y-63000D01*
X90250Y-63000D02*
X75250Y-63000D01*
X75250Y-63000D02*
X75250Y-61000D01*
X75250Y-61500D02*
X75750Y-61500D01*
X75750Y-61500D02*
X75750Y-62500D01*
X75750Y-62500D02*
X75250Y-62500D01*
G54D13*
X66850Y-58500D02*
G75*
G03X66850Y-58500I-1600J0D01*
G74*
G01*
X101100Y-59750D02*
G75*
G03X101100Y-59750I-1600J0D01*
G74*
G01*
G54D18*
X70270Y-65500D02*
X72250Y-65500D01*
X72250Y-65500D02*
X72250Y-66500D01*
X72250Y-66500D02*
X70250Y-66500D01*
X70250Y-66500D02*
X70250Y-65500D01*
X70250Y-65750D02*
X70500Y-65500D01*
X67270Y-65500D02*
X69250Y-65500D01*
X69250Y-65500D02*
X69250Y-66500D01*
X69250Y-66500D02*
X67250Y-66500D01*
X67250Y-66500D02*
X67250Y-65500D01*
X67250Y-65750D02*
X67500Y-65500D01*
X85230Y-58250D02*
X83250Y-58250D01*
X83250Y-58250D02*
X83250Y-57250D01*
X83250Y-57250D02*
X85250Y-57250D01*
X85250Y-57250D02*
X85250Y-58250D01*
X85250Y-58000D02*
X85000Y-58250D01*
X70270Y-58000D02*
X72250Y-58000D01*
X72250Y-58000D02*
X72250Y-59000D01*
X72250Y-59000D02*
X70250Y-59000D01*
X70250Y-59000D02*
X70250Y-58000D01*
X70250Y-58250D02*
X70500Y-58000D01*
G54D13*
X60500Y-60350D02*
X63649Y-60350D01*
X63649Y-60350D02*
X63649Y-66649D01*
X63649Y-66649D02*
X60500Y-66649D01*
X60500Y-66649D02*
X58728Y-66649D01*
X58728Y-66649D02*
X58728Y-60350D01*
X58728Y-60350D02*
X60500Y-60350D01*
G54D20*
X108150Y-58000D02*
G75*
G03X108150Y-58000I-900J0D01*
G74*
G01*
X108150Y-75000D02*
G75*
G03X108150Y-75000I-900J0D01*
G74*
G01*
X61150Y-75000D02*
G75*
G03X61150Y-75000I-900J0D01*
G74*
G01*
X61150Y-58000D02*
G75*
G03X61150Y-58000I-900J0D01*
G74*
G01*
G54D13*
X93595Y-67178D02*
X93666Y-67202D01*
X93785Y-67202D01*
X93833Y-67178D01*
X93857Y-67154D01*
X93880Y-67107D01*
X93880Y-67059D01*
X93857Y-67011D01*
X93833Y-66988D01*
X93785Y-66964D01*
X93690Y-66940D01*
X93642Y-66916D01*
X93619Y-66892D01*
X93595Y-66845D01*
X93595Y-66797D01*
X93619Y-66750D01*
X93642Y-66726D01*
X93690Y-66702D01*
X93809Y-66702D01*
X93880Y-66726D01*
X94047Y-66702D02*
X94166Y-67202D01*
X94261Y-66845D01*
X94357Y-67202D01*
X94476Y-66702D01*
X94928Y-67202D02*
X94642Y-67202D01*
X94785Y-67202D02*
X94785Y-66702D01*
X94738Y-66773D01*
X94690Y-66821D01*
X94642Y-66845D01*
X95238Y-66702D02*
X95285Y-66702D01*
X95333Y-66726D01*
X95357Y-66750D01*
X95380Y-66797D01*
X95404Y-66892D01*
X95404Y-67011D01*
X95380Y-67107D01*
X95357Y-67154D01*
X95333Y-67178D01*
X95285Y-67202D01*
X95238Y-67202D01*
X95190Y-67178D01*
X95166Y-67154D01*
X95142Y-67107D01*
X95119Y-67011D01*
X95119Y-66892D01*
X95142Y-66797D01*
X95166Y-66750D01*
X95190Y-66726D01*
X95238Y-66702D01*
X100833Y-67178D02*
X100904Y-67202D01*
X101023Y-67202D01*
X101071Y-67178D01*
X101095Y-67154D01*
X101119Y-67107D01*
X101119Y-67059D01*
X101095Y-67011D01*
X101071Y-66988D01*
X101023Y-66964D01*
X100928Y-66940D01*
X100880Y-66916D01*
X100857Y-66892D01*
X100833Y-66845D01*
X100833Y-66797D01*
X100857Y-66750D01*
X100880Y-66726D01*
X100928Y-66702D01*
X101047Y-66702D01*
X101119Y-66726D01*
X101285Y-66702D02*
X101404Y-67202D01*
X101500Y-66845D01*
X101595Y-67202D01*
X101714Y-66702D01*
X101928Y-67202D02*
X102023Y-67202D01*
X102071Y-67178D01*
X102095Y-67154D01*
X102142Y-67083D01*
X102166Y-66988D01*
X102166Y-66797D01*
X102142Y-66750D01*
X102119Y-66726D01*
X102071Y-66702D01*
X101976Y-66702D01*
X101928Y-66726D01*
X101904Y-66750D01*
X101880Y-66797D01*
X101880Y-66916D01*
X101904Y-66964D01*
X101928Y-66988D01*
X101976Y-67011D01*
X102071Y-67011D01*
X102119Y-66988D01*
X102142Y-66964D01*
X102166Y-66916D01*
G54D21*
X0Y0D02*
X0Y0D01*
X0Y0D02*
X0Y0D01*
X0Y0D01*
X0Y0D02*
X0Y0D01*
X0Y0D01*
X0Y0D01*
X0Y0D01*
X0Y0D01*
X0Y0D01*
X0Y0D01*
X0Y0D01*
X0Y0D01*
X0Y0D01*
X0Y0D01*
X0Y0D01*
X0Y0D01*
X0Y0D01*
X0Y0D01*
X0Y0D01*
X0Y0D01*
X0Y0D01*
X0Y0D01*
X0Y0D02*
X0Y0D01*
X0Y0D02*
X0Y0D01*
X0Y0D02*
X0Y0D01*
X0Y0D01*
X0Y0D01*
X0Y0D01*
X0Y0D01*
X0Y0D01*
X0Y0D01*
X0Y0D01*
X0Y0D01*
X0Y0D02*
X0Y0D01*
X0Y0D01*
X0Y0D01*
X0Y0D01*
X0Y0D01*
X0Y0D01*
X0Y0D01*
X0Y0D01*
X0Y0D01*
X0Y0D01*
X0Y0D01*
X0Y0D01*
X0Y0D01*
X0Y0D01*
X0Y0D01*
X0Y0D01*
X0Y0D01*
X0Y0D01*
X0Y0D02*
X0Y0D01*
X0Y0D02*
X0Y0D01*
X0Y0D01*
X0Y0D02*
X0Y0D01*
X0Y0D01*
X0Y0D01*
X0Y0D01*
X0Y0D01*
X0Y0D01*
X0Y0D01*
X0Y0D01*
X0Y0D01*
X0Y0D01*
X0Y0D01*
X0Y0D01*
X0Y0D01*
X0Y0D01*
X0Y0D01*
X0Y0D01*
X0Y0D01*
X0Y0D01*
X0Y0D01*
X0Y0D02*
X0Y0D01*
X0Y0D02*
X0Y0D01*
X0Y0D02*
X0Y0D01*
X0Y0D01*
X0Y0D01*
X0Y0D01*
X0Y0D01*
X0Y0D01*
X0Y0D01*
X0Y0D01*
X0Y0D01*
X0Y0D02*
X0Y0D01*
X0Y0D01*
X0Y0D01*
X0Y0D01*
X0Y0D01*
X0Y0D01*
X0Y0D01*
X0Y0D01*
X0Y0D01*
X0Y0D01*
X0Y0D01*
X0Y0D01*
X0Y0D01*
X0Y0D01*
X0Y0D01*
X0Y0D01*
X0Y0D01*
X0Y0D01*
X0Y0D02*
X0Y0D01*
X0Y0D02*
X0Y0D01*
X0Y0D01*
X0Y0D02*
X0Y0D01*
X0Y0D01*
X0Y0D01*
X0Y0D01*
X0Y0D01*
X0Y0D01*
X0Y0D01*
X0Y0D01*
X0Y0D01*
X0Y0D01*
X0Y0D01*
X0Y0D01*
X0Y0D01*
X0Y0D01*
X0Y0D01*
X0Y0D01*
X0Y0D01*
X0Y0D01*
X0Y0D01*
X0Y0D02*
X0Y0D01*
X0Y0D02*
X0Y0D01*
X0Y0D02*
X0Y0D01*
X0Y0D01*
X0Y0D01*
X0Y0D01*
X0Y0D01*
X0Y0D01*
X0Y0D01*
X0Y0D01*
X0Y0D01*
X0Y0D02*
X0Y0D01*
X0Y0D01*
X0Y0D01*
X0Y0D01*
X0Y0D01*
X0Y0D01*
X0Y0D01*
X0Y0D01*
X0Y0D01*
X0Y0D01*
X0Y0D01*
X0Y0D01*
X0Y0D01*
X0Y0D01*
X0Y0D01*
X0Y0D01*
X0Y0D01*
X0Y0D01*
G54D18*
X60392Y-73242D02*
X60192Y-72957D01*
X60050Y-73242D02*
X60050Y-72642D01*
X60278Y-72642D01*
X60335Y-72671D01*
X60364Y-72700D01*
X60392Y-72757D01*
X60392Y-72842D01*
X60364Y-72900D01*
X60335Y-72928D01*
X60278Y-72957D01*
X60050Y-72957D01*
X60564Y-72642D02*
X60764Y-73242D01*
X60964Y-72642D01*
X61478Y-73242D02*
X61135Y-73242D01*
X61307Y-73242D02*
X61307Y-72642D01*
X61250Y-72728D01*
X61192Y-72785D01*
X61135Y-72814D01*
G54D17*
X90216Y-73892D02*
X90273Y-73911D01*
X90369Y-73911D01*
X90407Y-73892D01*
X90426Y-73873D01*
X90445Y-73835D01*
X90445Y-73797D01*
X90426Y-73759D01*
X90407Y-73740D01*
X90369Y-73721D01*
X90292Y-73702D01*
X90254Y-73683D01*
X90235Y-73664D01*
X90216Y-73626D01*
X90216Y-73588D01*
X90235Y-73550D01*
X90254Y-73530D01*
X90292Y-73511D01*
X90388Y-73511D01*
X90445Y-73530D01*
X90578Y-73511D02*
X90673Y-73911D01*
X90750Y-73626D01*
X90826Y-73911D01*
X90921Y-73511D01*
X91245Y-73511D02*
X91169Y-73511D01*
X91130Y-73530D01*
X91111Y-73550D01*
X91073Y-73607D01*
X91054Y-73683D01*
X91054Y-73835D01*
X91073Y-73873D01*
X91092Y-73892D01*
X91130Y-73911D01*
X91207Y-73911D01*
X91245Y-73892D01*
X91264Y-73873D01*
X91283Y-73835D01*
X91283Y-73740D01*
X91264Y-73702D01*
X91245Y-73683D01*
X91207Y-73664D01*
X91130Y-73664D01*
X91092Y-73683D01*
X91073Y-73702D01*
X91054Y-73740D01*
G54D18*
G54D17*
X95466Y-73892D02*
X95523Y-73911D01*
X95619Y-73911D01*
X95657Y-73892D01*
X95676Y-73873D01*
X95695Y-73835D01*
X95695Y-73797D01*
X95676Y-73759D01*
X95657Y-73740D01*
X95619Y-73721D01*
X95542Y-73702D01*
X95504Y-73683D01*
X95485Y-73664D01*
X95466Y-73626D01*
X95466Y-73588D01*
X95485Y-73550D01*
X95504Y-73530D01*
X95542Y-73511D01*
X95638Y-73511D01*
X95695Y-73530D01*
X95828Y-73511D02*
X95923Y-73911D01*
X96000Y-73626D01*
X96076Y-73911D01*
X96171Y-73511D01*
X96285Y-73511D02*
X96552Y-73511D01*
X96380Y-73911D01*
G54D18*
G54D17*
X100716Y-73892D02*
X100773Y-73911D01*
X100869Y-73911D01*
X100907Y-73892D01*
X100926Y-73873D01*
X100945Y-73835D01*
X100945Y-73797D01*
X100926Y-73759D01*
X100907Y-73740D01*
X100869Y-73721D01*
X100792Y-73702D01*
X100754Y-73683D01*
X100735Y-73664D01*
X100716Y-73626D01*
X100716Y-73588D01*
X100735Y-73550D01*
X100754Y-73530D01*
X100792Y-73511D01*
X100888Y-73511D01*
X100945Y-73530D01*
X101078Y-73511D02*
X101173Y-73911D01*
X101250Y-73626D01*
X101326Y-73911D01*
X101421Y-73511D01*
X101630Y-73683D02*
X101592Y-73664D01*
X101573Y-73645D01*
X101554Y-73607D01*
X101554Y-73588D01*
X101573Y-73550D01*
X101592Y-73530D01*
X101630Y-73511D01*
X101707Y-73511D01*
X101745Y-73530D01*
X101764Y-73550D01*
X101783Y-73588D01*
X101783Y-73607D01*
X101764Y-73645D01*
X101745Y-73664D01*
X101707Y-73683D01*
X101630Y-73683D01*
X101592Y-73702D01*
X101573Y-73721D01*
X101554Y-73759D01*
X101554Y-73835D01*
X101573Y-73873D01*
X101592Y-73892D01*
X101630Y-73911D01*
X101707Y-73911D01*
X101745Y-73892D01*
X101764Y-73873D01*
X101783Y-73835D01*
X101783Y-73759D01*
X101764Y-73721D01*
X101745Y-73702D01*
X101707Y-73683D01*
G54D18*
G54D17*
X63966Y-73892D02*
X64023Y-73911D01*
X64119Y-73911D01*
X64157Y-73892D01*
X64176Y-73873D01*
X64195Y-73835D01*
X64195Y-73797D01*
X64176Y-73759D01*
X64157Y-73740D01*
X64119Y-73721D01*
X64042Y-73702D01*
X64004Y-73683D01*
X63985Y-73664D01*
X63966Y-73626D01*
X63966Y-73588D01*
X63985Y-73550D01*
X64004Y-73530D01*
X64042Y-73511D01*
X64138Y-73511D01*
X64195Y-73530D01*
X64328Y-73511D02*
X64423Y-73911D01*
X64500Y-73626D01*
X64576Y-73911D01*
X64671Y-73511D01*
X65033Y-73911D02*
X64804Y-73911D01*
X64919Y-73911D02*
X64919Y-73511D01*
X64880Y-73569D01*
X64842Y-73607D01*
X64804Y-73626D01*
G54D18*
G54D17*
X69216Y-73892D02*
X69273Y-73911D01*
X69369Y-73911D01*
X69407Y-73892D01*
X69426Y-73873D01*
X69445Y-73835D01*
X69445Y-73797D01*
X69426Y-73759D01*
X69407Y-73740D01*
X69369Y-73721D01*
X69292Y-73702D01*
X69254Y-73683D01*
X69235Y-73664D01*
X69216Y-73626D01*
X69216Y-73588D01*
X69235Y-73550D01*
X69254Y-73530D01*
X69292Y-73511D01*
X69388Y-73511D01*
X69445Y-73530D01*
X69578Y-73511D02*
X69673Y-73911D01*
X69750Y-73626D01*
X69826Y-73911D01*
X69921Y-73511D01*
X70054Y-73550D02*
X70073Y-73530D01*
X70111Y-73511D01*
X70207Y-73511D01*
X70245Y-73530D01*
X70264Y-73550D01*
X70283Y-73588D01*
X70283Y-73626D01*
X70264Y-73683D01*
X70035Y-73911D01*
X70283Y-73911D01*
G54D18*
G54D17*
X74466Y-73892D02*
X74523Y-73911D01*
X74619Y-73911D01*
X74657Y-73892D01*
X74676Y-73873D01*
X74695Y-73835D01*
X74695Y-73797D01*
X74676Y-73759D01*
X74657Y-73740D01*
X74619Y-73721D01*
X74542Y-73702D01*
X74504Y-73683D01*
X74485Y-73664D01*
X74466Y-73626D01*
X74466Y-73588D01*
X74485Y-73550D01*
X74504Y-73530D01*
X74542Y-73511D01*
X74638Y-73511D01*
X74695Y-73530D01*
X74828Y-73511D02*
X74923Y-73911D01*
X75000Y-73626D01*
X75076Y-73911D01*
X75171Y-73511D01*
X75285Y-73511D02*
X75533Y-73511D01*
X75400Y-73664D01*
X75457Y-73664D01*
X75495Y-73683D01*
X75514Y-73702D01*
X75533Y-73740D01*
X75533Y-73835D01*
X75514Y-73873D01*
X75495Y-73892D01*
X75457Y-73911D01*
X75342Y-73911D01*
X75304Y-73892D01*
X75285Y-73873D01*
G54D18*
G54D17*
X79716Y-73892D02*
X79773Y-73911D01*
X79869Y-73911D01*
X79907Y-73892D01*
X79926Y-73873D01*
X79945Y-73835D01*
X79945Y-73797D01*
X79926Y-73759D01*
X79907Y-73740D01*
X79869Y-73721D01*
X79792Y-73702D01*
X79754Y-73683D01*
X79735Y-73664D01*
X79716Y-73626D01*
X79716Y-73588D01*
X79735Y-73550D01*
X79754Y-73530D01*
X79792Y-73511D01*
X79888Y-73511D01*
X79945Y-73530D01*
X80078Y-73511D02*
X80173Y-73911D01*
X80250Y-73626D01*
X80326Y-73911D01*
X80421Y-73511D01*
X80745Y-73645D02*
X80745Y-73911D01*
X80650Y-73492D02*
X80554Y-73778D01*
X80802Y-73778D01*
G54D18*
G54D17*
X84966Y-73892D02*
X85023Y-73911D01*
X85119Y-73911D01*
X85157Y-73892D01*
X85176Y-73873D01*
X85195Y-73835D01*
X85195Y-73797D01*
X85176Y-73759D01*
X85157Y-73740D01*
X85119Y-73721D01*
X85042Y-73702D01*
X85004Y-73683D01*
X84985Y-73664D01*
X84966Y-73626D01*
X84966Y-73588D01*
X84985Y-73550D01*
X85004Y-73530D01*
X85042Y-73511D01*
X85138Y-73511D01*
X85195Y-73530D01*
X85328Y-73511D02*
X85423Y-73911D01*
X85500Y-73626D01*
X85576Y-73911D01*
X85671Y-73511D01*
X86014Y-73511D02*
X85823Y-73511D01*
X85804Y-73702D01*
X85823Y-73683D01*
X85861Y-73664D01*
X85957Y-73664D01*
X85995Y-73683D01*
X86014Y-73702D01*
X86033Y-73740D01*
X86033Y-73835D01*
X86014Y-73873D01*
X85995Y-73892D01*
X85957Y-73911D01*
X85861Y-73911D01*
X85823Y-73892D01*
X85804Y-73873D01*
G54D18*
G54D13*
X66972Y-62583D02*
X66710Y-62750D01*
X66972Y-62869D02*
X66422Y-62869D01*
X66422Y-62678D01*
X66448Y-62630D01*
X66475Y-62607D01*
X66527Y-62583D01*
X66605Y-62583D01*
X66658Y-62607D01*
X66684Y-62630D01*
X66710Y-62678D01*
X66710Y-62869D01*
X66972Y-62345D02*
X66972Y-62250D01*
X66946Y-62202D01*
X66920Y-62178D01*
X66841Y-62130D01*
X66736Y-62107D01*
X66527Y-62107D01*
X66475Y-62130D01*
X66448Y-62154D01*
X66422Y-62202D01*
X66422Y-62297D01*
X66448Y-62345D01*
X66475Y-62369D01*
X66527Y-62392D01*
X66658Y-62392D01*
X66710Y-62369D01*
X66736Y-62345D01*
X66763Y-62297D01*
X66763Y-62202D01*
X66736Y-62154D01*
X66710Y-62130D01*
X66658Y-62107D01*
X62472Y-70583D02*
X62210Y-70750D01*
X62472Y-70869D02*
X61922Y-70869D01*
X61922Y-70678D01*
X61948Y-70630D01*
X61975Y-70607D01*
X62027Y-70583D01*
X62105Y-70583D01*
X62158Y-70607D01*
X62184Y-70630D01*
X62210Y-70678D01*
X62210Y-70869D01*
X62158Y-70297D02*
X62132Y-70345D01*
X62105Y-70369D01*
X62053Y-70392D01*
X62027Y-70392D01*
X61975Y-70369D01*
X61948Y-70345D01*
X61922Y-70297D01*
X61922Y-70202D01*
X61948Y-70154D01*
X61975Y-70130D01*
X62027Y-70107D01*
X62053Y-70107D01*
X62105Y-70130D01*
X62132Y-70154D01*
X62158Y-70202D01*
X62158Y-70297D01*
X62184Y-70345D01*
X62210Y-70369D01*
X62263Y-70392D01*
X62367Y-70392D01*
X62420Y-70369D01*
X62446Y-70345D01*
X62472Y-70297D01*
X62472Y-70202D01*
X62446Y-70154D01*
X62420Y-70130D01*
X62367Y-70107D01*
X62263Y-70107D01*
X62210Y-70130D01*
X62184Y-70154D01*
X62158Y-70202D01*
X68972Y-62583D02*
X68710Y-62750D01*
X68972Y-62869D02*
X68422Y-62869D01*
X68422Y-62678D01*
X68448Y-62630D01*
X68475Y-62607D01*
X68527Y-62583D01*
X68605Y-62583D01*
X68658Y-62607D01*
X68684Y-62630D01*
X68710Y-62678D01*
X68710Y-62869D01*
X68422Y-62416D02*
X68422Y-62083D01*
X68972Y-62297D01*
X88666Y-66222D02*
X88500Y-65960D01*
X88380Y-66222D02*
X88380Y-65672D01*
X88571Y-65672D01*
X88619Y-65698D01*
X88642Y-65725D01*
X88666Y-65777D01*
X88666Y-65855D01*
X88642Y-65908D01*
X88619Y-65934D01*
X88571Y-65960D01*
X88380Y-65960D01*
X88857Y-65725D02*
X88880Y-65698D01*
X88928Y-65672D01*
X89047Y-65672D01*
X89095Y-65698D01*
X89119Y-65725D01*
X89142Y-65777D01*
X89142Y-65829D01*
X89119Y-65908D01*
X88833Y-66222D01*
X89142Y-66222D01*
X82166Y-66222D02*
X82000Y-65960D01*
X81880Y-66222D02*
X81880Y-65672D01*
X82071Y-65672D01*
X82119Y-65698D01*
X82142Y-65725D01*
X82166Y-65777D01*
X82166Y-65855D01*
X82142Y-65908D01*
X82119Y-65934D01*
X82071Y-65960D01*
X81880Y-65960D01*
X82333Y-65672D02*
X82642Y-65672D01*
X82476Y-65882D01*
X82547Y-65882D01*
X82595Y-65908D01*
X82619Y-65934D01*
X82642Y-65986D01*
X82642Y-66117D01*
X82619Y-66170D01*
X82595Y-66196D01*
X82547Y-66222D01*
X82404Y-66222D01*
X82357Y-66196D01*
X82333Y-66170D01*
X107472Y-65583D02*
X107210Y-65750D01*
X107472Y-65869D02*
X106922Y-65869D01*
X106922Y-65678D01*
X106948Y-65630D01*
X106975Y-65607D01*
X107027Y-65583D01*
X107105Y-65583D01*
X107158Y-65607D01*
X107184Y-65630D01*
X107210Y-65678D01*
X107210Y-65869D01*
X106922Y-65130D02*
X106922Y-65369D01*
X107184Y-65392D01*
X107158Y-65369D01*
X107132Y-65321D01*
X107132Y-65202D01*
X107158Y-65154D01*
X107184Y-65130D01*
X107236Y-65107D01*
X107367Y-65107D01*
X107420Y-65130D01*
X107446Y-65154D01*
X107472Y-65202D01*
X107472Y-65321D01*
X107446Y-65369D01*
X107420Y-65392D01*
X74722Y-60583D02*
X74460Y-60750D01*
X74722Y-60869D02*
X74172Y-60869D01*
X74172Y-60678D01*
X74198Y-60630D01*
X74225Y-60607D01*
X74277Y-60583D01*
X74355Y-60583D01*
X74408Y-60607D01*
X74434Y-60630D01*
X74460Y-60678D01*
X74460Y-60869D01*
X74172Y-60154D02*
X74172Y-60250D01*
X74198Y-60297D01*
X74225Y-60321D01*
X74303Y-60369D01*
X74408Y-60392D01*
X74617Y-60392D01*
X74670Y-60369D01*
X74696Y-60345D01*
X74722Y-60297D01*
X74722Y-60202D01*
X74696Y-60154D01*
X74670Y-60130D01*
X74617Y-60107D01*
X74486Y-60107D01*
X74434Y-60130D01*
X74408Y-60154D01*
X74382Y-60202D01*
X74382Y-60297D01*
X74408Y-60345D01*
X74434Y-60369D01*
X74486Y-60392D01*
X75666Y-66222D02*
X75500Y-65960D01*
X75380Y-66222D02*
X75380Y-65672D01*
X75571Y-65672D01*
X75619Y-65698D01*
X75642Y-65725D01*
X75666Y-65777D01*
X75666Y-65855D01*
X75642Y-65908D01*
X75619Y-65934D01*
X75571Y-65960D01*
X75380Y-65960D01*
X76095Y-65855D02*
X76095Y-66222D01*
X75976Y-65646D02*
X75857Y-66039D01*
X76166Y-66039D01*
X94166Y-60972D02*
X94000Y-60710D01*
X93880Y-60972D02*
X93880Y-60422D01*
X94071Y-60422D01*
X94119Y-60448D01*
X94142Y-60475D01*
X94166Y-60527D01*
X94166Y-60605D01*
X94142Y-60658D01*
X94119Y-60684D01*
X94071Y-60710D01*
X93880Y-60710D01*
X94642Y-60972D02*
X94357Y-60972D01*
X94500Y-60972D02*
X94500Y-60422D01*
X94452Y-60501D01*
X94404Y-60553D01*
X94357Y-60579D01*
X87116Y-56511D02*
X87116Y-56797D01*
X87097Y-56854D01*
X87059Y-56892D01*
X87002Y-56911D01*
X86964Y-56911D01*
X87516Y-56911D02*
X87288Y-56911D01*
X87402Y-56911D02*
X87402Y-56511D01*
X87364Y-56569D01*
X87326Y-56607D01*
X87288Y-56626D01*
X96880Y-60202D02*
X96880Y-59702D01*
X97000Y-59702D01*
X97071Y-59726D01*
X97119Y-59773D01*
X97142Y-59821D01*
X97166Y-59916D01*
X97166Y-59988D01*
X97142Y-60083D01*
X97119Y-60130D01*
X97071Y-60178D01*
X97000Y-60202D01*
X96880Y-60202D01*
X97642Y-60202D02*
X97357Y-60202D01*
X97500Y-60202D02*
X97500Y-59702D01*
X97452Y-59773D01*
X97404Y-59821D01*
X97357Y-59845D01*
X72130Y-69202D02*
X72130Y-68702D01*
X72250Y-68702D01*
X72321Y-68726D01*
X72369Y-68773D01*
X72392Y-68821D01*
X72416Y-68916D01*
X72416Y-68988D01*
X72392Y-69083D01*
X72369Y-69130D01*
X72321Y-69178D01*
X72250Y-69202D01*
X72130Y-69202D01*
X72845Y-68869D02*
X72845Y-69202D01*
X72726Y-68678D02*
X72607Y-69035D01*
X72916Y-69035D01*
X66880Y-69202D02*
X66880Y-68702D01*
X67000Y-68702D01*
X67071Y-68726D01*
X67119Y-68773D01*
X67142Y-68821D01*
X67166Y-68916D01*
X67166Y-68988D01*
X67142Y-69083D01*
X67119Y-69130D01*
X67071Y-69178D01*
X67000Y-69202D01*
X66880Y-69202D01*
X67333Y-68702D02*
X67642Y-68702D01*
X67476Y-68892D01*
X67547Y-68892D01*
X67595Y-68916D01*
X67619Y-68940D01*
X67642Y-68988D01*
X67642Y-69107D01*
X67619Y-69154D01*
X67595Y-69178D01*
X67547Y-69202D01*
X67404Y-69202D01*
X67357Y-69178D01*
X67333Y-69154D01*
X77380Y-69202D02*
X77380Y-68702D01*
X77500Y-68702D01*
X77571Y-68726D01*
X77619Y-68773D01*
X77642Y-68821D01*
X77666Y-68916D01*
X77666Y-68988D01*
X77642Y-69083D01*
X77619Y-69130D01*
X77571Y-69178D01*
X77500Y-69202D01*
X77380Y-69202D01*
X78119Y-68702D02*
X77880Y-68702D01*
X77857Y-68940D01*
X77880Y-68916D01*
X77928Y-68892D01*
X78047Y-68892D01*
X78095Y-68916D01*
X78119Y-68940D01*
X78142Y-68988D01*
X78142Y-69107D01*
X78119Y-69154D01*
X78095Y-69178D01*
X78047Y-69202D01*
X77928Y-69202D01*
X77880Y-69178D01*
X77857Y-69154D01*
G54D22*
X106271Y-61021D02*
X105971Y-61021D01*
X105971Y-60950D01*
X105985Y-60907D01*
X106014Y-60878D01*
X106042Y-60864D01*
X106100Y-60850D01*
X106142Y-60850D01*
X106200Y-60864D01*
X106228Y-60878D01*
X106257Y-60907D01*
X106271Y-60950D01*
X106271Y-61021D01*
X106000Y-60735D02*
X105985Y-60721D01*
X105971Y-60692D01*
X105971Y-60621D01*
X105985Y-60592D01*
X106000Y-60578D01*
X106028Y-60564D01*
X106057Y-60564D01*
X106100Y-60578D01*
X106271Y-60750D01*
X106271Y-60564D01*
G54D13*
X87880Y-69202D02*
X87880Y-68702D01*
X88000Y-68702D01*
X88071Y-68726D01*
X88119Y-68773D01*
X88142Y-68821D01*
X88166Y-68916D01*
X88166Y-68988D01*
X88142Y-69083D01*
X88119Y-69130D01*
X88071Y-69178D01*
X88000Y-69202D01*
X87880Y-69202D01*
X88333Y-68702D02*
X88666Y-68702D01*
X88452Y-69202D01*
X98380Y-69202D02*
X98380Y-68702D01*
X98500Y-68702D01*
X98571Y-68726D01*
X98619Y-68773D01*
X98642Y-68821D01*
X98666Y-68916D01*
X98666Y-68988D01*
X98642Y-69083D01*
X98619Y-69130D01*
X98571Y-69178D01*
X98500Y-69202D01*
X98380Y-69202D01*
X98904Y-69202D02*
X99000Y-69202D01*
X99047Y-69178D01*
X99071Y-69154D01*
X99119Y-69083D01*
X99142Y-68988D01*
X99142Y-68797D01*
X99119Y-68750D01*
X99095Y-68726D01*
X99047Y-68702D01*
X98952Y-68702D01*
X98904Y-68726D01*
X98880Y-68750D01*
X98857Y-68797D01*
X98857Y-68916D01*
X98880Y-68964D01*
X98904Y-68988D01*
X98952Y-69011D01*
X99047Y-69011D01*
X99095Y-68988D01*
X99119Y-68964D01*
X99142Y-68916D01*
X103642Y-69202D02*
X103642Y-68702D01*
X103761Y-68702D01*
X103833Y-68726D01*
X103880Y-68773D01*
X103904Y-68821D01*
X103928Y-68916D01*
X103928Y-68988D01*
X103904Y-69083D01*
X103880Y-69130D01*
X103833Y-69178D01*
X103761Y-69202D01*
X103642Y-69202D01*
X104404Y-69202D02*
X104119Y-69202D01*
X104261Y-69202D02*
X104261Y-68702D01*
X104214Y-68773D01*
X104166Y-68821D01*
X104119Y-68845D01*
X104714Y-68702D02*
X104761Y-68702D01*
X104809Y-68726D01*
X104833Y-68750D01*
X104857Y-68797D01*
X104880Y-68892D01*
X104880Y-69011D01*
X104857Y-69107D01*
X104833Y-69154D01*
X104809Y-69178D01*
X104761Y-69202D01*
X104714Y-69202D01*
X104666Y-69178D01*
X104642Y-69154D01*
X104619Y-69107D01*
X104595Y-69011D01*
X104595Y-68892D01*
X104619Y-68797D01*
X104642Y-68750D01*
X104666Y-68726D01*
X104714Y-68702D01*
X93130Y-69202D02*
X93130Y-68702D01*
X93250Y-68702D01*
X93321Y-68726D01*
X93369Y-68773D01*
X93392Y-68821D01*
X93416Y-68916D01*
X93416Y-68988D01*
X93392Y-69083D01*
X93369Y-69130D01*
X93321Y-69178D01*
X93250Y-69202D01*
X93130Y-69202D01*
X93702Y-68916D02*
X93654Y-68892D01*
X93630Y-68869D01*
X93607Y-68821D01*
X93607Y-68797D01*
X93630Y-68750D01*
X93654Y-68726D01*
X93702Y-68702D01*
X93797Y-68702D01*
X93845Y-68726D01*
X93869Y-68750D01*
X93892Y-68797D01*
X93892Y-68821D01*
X93869Y-68869D01*
X93845Y-68892D01*
X93797Y-68916D01*
X93702Y-68916D01*
X93654Y-68940D01*
X93630Y-68964D01*
X93607Y-69011D01*
X93607Y-69107D01*
X93630Y-69154D01*
X93654Y-69178D01*
X93702Y-69202D01*
X93797Y-69202D01*
X93845Y-69178D01*
X93869Y-69154D01*
X93892Y-69107D01*
X93892Y-69011D01*
X93869Y-68964D01*
X93845Y-68940D01*
X93797Y-68916D01*
X82630Y-69202D02*
X82630Y-68702D01*
X82750Y-68702D01*
X82821Y-68726D01*
X82869Y-68773D01*
X82892Y-68821D01*
X82916Y-68916D01*
X82916Y-68988D01*
X82892Y-69083D01*
X82869Y-69130D01*
X82821Y-69178D01*
X82750Y-69202D01*
X82630Y-69202D01*
X83345Y-68702D02*
X83250Y-68702D01*
X83202Y-68726D01*
X83178Y-68750D01*
X83130Y-68821D01*
X83107Y-68916D01*
X83107Y-69107D01*
X83130Y-69154D01*
X83154Y-69178D01*
X83202Y-69202D01*
X83297Y-69202D01*
X83345Y-69178D01*
X83369Y-69154D01*
X83392Y-69107D01*
X83392Y-68988D01*
X83369Y-68940D01*
X83345Y-68916D01*
X83297Y-68892D01*
X83202Y-68892D01*
X83154Y-68916D01*
X83130Y-68940D01*
X83107Y-68988D01*
X71407Y-59702D02*
X71407Y-60107D01*
X71428Y-60154D01*
X71450Y-60178D01*
X71492Y-60202D01*
X71578Y-60202D01*
X71621Y-60178D01*
X71642Y-60154D01*
X71664Y-60107D01*
X71664Y-59702D01*
X72114Y-60202D02*
X71857Y-60202D01*
X71985Y-60202D02*
X71985Y-59702D01*
X71942Y-59773D01*
X71900Y-59821D01*
X71857Y-59845D01*
G54D23*
X77810Y-62242D02*
X77810Y-61642D01*
X78282Y-62185D02*
X78260Y-62214D01*
X78196Y-62242D01*
X78153Y-62242D01*
X78089Y-62214D01*
X78046Y-62157D01*
X78025Y-62100D01*
X78003Y-61985D01*
X78003Y-61900D01*
X78025Y-61785D01*
X78046Y-61728D01*
X78089Y-61671D01*
X78153Y-61642D01*
X78196Y-61642D01*
X78260Y-61671D01*
X78282Y-61700D01*
X78710Y-62242D02*
X78453Y-62242D01*
X78582Y-62242D02*
X78582Y-61642D01*
X78539Y-61728D01*
X78496Y-61785D01*
X78453Y-61814D01*
G54D18*
G54D13*
X65191Y-57873D02*
X65175Y-57892D01*
X65125Y-57911D01*
X65091Y-57911D01*
X65041Y-57892D01*
X65008Y-57854D01*
X64991Y-57816D01*
X64975Y-57740D01*
X64975Y-57683D01*
X64991Y-57607D01*
X65008Y-57569D01*
X65041Y-57530D01*
X65091Y-57511D01*
X65125Y-57511D01*
X65175Y-57530D01*
X65191Y-57550D01*
X65491Y-57511D02*
X65425Y-57511D01*
X65391Y-57530D01*
X65375Y-57550D01*
X65341Y-57607D01*
X65325Y-57683D01*
X65325Y-57835D01*
X65341Y-57873D01*
X65358Y-57892D01*
X65391Y-57911D01*
X65458Y-57911D01*
X65491Y-57892D01*
X65508Y-57873D01*
X65525Y-57835D01*
X65525Y-57740D01*
X65508Y-57702D01*
X65491Y-57683D01*
X65458Y-57664D01*
X65391Y-57664D01*
X65358Y-57683D01*
X65341Y-57702D01*
X65325Y-57740D01*
X98441Y-59873D02*
X98425Y-59892D01*
X98375Y-59911D01*
X98341Y-59911D01*
X98291Y-59892D01*
X98258Y-59854D01*
X98241Y-59816D01*
X98225Y-59740D01*
X98225Y-59683D01*
X98241Y-59607D01*
X98258Y-59569D01*
X98291Y-59530D01*
X98341Y-59511D01*
X98375Y-59511D01*
X98425Y-59530D01*
X98441Y-59550D01*
X98775Y-59911D02*
X98575Y-59911D01*
X98675Y-59911D02*
X98675Y-59511D01*
X98641Y-59569D01*
X98608Y-59607D01*
X98575Y-59626D01*
X71283Y-65223D02*
X71264Y-65242D01*
X71207Y-65261D01*
X71169Y-65261D01*
X71111Y-65242D01*
X71073Y-65204D01*
X71054Y-65166D01*
X71035Y-65090D01*
X71035Y-65033D01*
X71054Y-64957D01*
X71073Y-64919D01*
X71111Y-64880D01*
X71169Y-64861D01*
X71207Y-64861D01*
X71264Y-64880D01*
X71283Y-64900D01*
X71626Y-64995D02*
X71626Y-65261D01*
X71530Y-64842D02*
X71435Y-65128D01*
X71683Y-65128D01*
X68283Y-65223D02*
X68264Y-65242D01*
X68207Y-65261D01*
X68169Y-65261D01*
X68111Y-65242D01*
X68073Y-65204D01*
X68054Y-65166D01*
X68035Y-65090D01*
X68035Y-65033D01*
X68054Y-64957D01*
X68073Y-64919D01*
X68111Y-64880D01*
X68169Y-64861D01*
X68207Y-64861D01*
X68264Y-64880D01*
X68283Y-64900D01*
X68645Y-64861D02*
X68454Y-64861D01*
X68435Y-65052D01*
X68454Y-65033D01*
X68492Y-65014D01*
X68588Y-65014D01*
X68626Y-65033D01*
X68645Y-65052D01*
X68664Y-65090D01*
X68664Y-65185D01*
X68645Y-65223D01*
X68626Y-65242D01*
X68588Y-65261D01*
X68492Y-65261D01*
X68454Y-65242D01*
X68435Y-65223D01*
X84083Y-58773D02*
X84064Y-58792D01*
X84007Y-58811D01*
X83969Y-58811D01*
X83911Y-58792D01*
X83873Y-58754D01*
X83854Y-58716D01*
X83835Y-58640D01*
X83835Y-58583D01*
X83854Y-58507D01*
X83873Y-58469D01*
X83911Y-58430D01*
X83969Y-58411D01*
X84007Y-58411D01*
X84064Y-58430D01*
X84083Y-58450D01*
X84235Y-58450D02*
X84254Y-58430D01*
X84292Y-58411D01*
X84388Y-58411D01*
X84426Y-58430D01*
X84445Y-58450D01*
X84464Y-58488D01*
X84464Y-58526D01*
X84445Y-58583D01*
X84216Y-58811D01*
X84464Y-58811D01*
X71283Y-57723D02*
X71264Y-57742D01*
X71207Y-57761D01*
X71169Y-57761D01*
X71111Y-57742D01*
X71073Y-57704D01*
X71054Y-57666D01*
X71035Y-57590D01*
X71035Y-57533D01*
X71054Y-57457D01*
X71073Y-57419D01*
X71111Y-57380D01*
X71169Y-57361D01*
X71207Y-57361D01*
X71264Y-57380D01*
X71283Y-57400D01*
X71416Y-57361D02*
X71664Y-57361D01*
X71530Y-57514D01*
X71588Y-57514D01*
X71626Y-57533D01*
X71645Y-57552D01*
X71664Y-57590D01*
X71664Y-57685D01*
X71645Y-57723D01*
X71626Y-57742D01*
X71588Y-57761D01*
X71473Y-57761D01*
X71435Y-57742D01*
X71416Y-57723D01*
G54D18*
X64050Y-60392D02*
X64050Y-60821D01*
X64021Y-60907D01*
X63964Y-60964D01*
X63878Y-60992D01*
X63821Y-60992D01*
X64307Y-60450D02*
X64335Y-60421D01*
X64392Y-60392D01*
X64535Y-60392D01*
X64592Y-60421D01*
X64621Y-60450D01*
X64650Y-60507D01*
X64650Y-60564D01*
X64621Y-60650D01*
X64278Y-60992D01*
X64650Y-60992D01*
X105278Y-59428D02*
X105364Y-59457D01*
X105392Y-59485D01*
X105421Y-59542D01*
X105421Y-59628D01*
X105392Y-59685D01*
X105364Y-59714D01*
X105307Y-59742D01*
X105078Y-59742D01*
X105078Y-59142D01*
X105278Y-59142D01*
X105335Y-59171D01*
X105364Y-59200D01*
X105392Y-59257D01*
X105392Y-59314D01*
X105364Y-59371D01*
X105335Y-59400D01*
X105278Y-59428D01*
X105078Y-59428D01*
X105592Y-59142D02*
X105935Y-59142D01*
X105764Y-59742D02*
X105764Y-59142D01*
X106450Y-59742D02*
X106107Y-59742D01*
X106278Y-59742D02*
X106278Y-59142D01*
X106221Y-59228D01*
X106164Y-59285D01*
X106107Y-59314D01*
%LPC*%
G54D24*
X98210Y-64984D03*
X93290Y-64984D03*
X98210Y-63016D03*
X93290Y-63016D03*
X105210Y-64984D03*
X100290Y-64984D03*
X105210Y-63016D03*
X100290Y-63016D03*
G54D25*
X60250Y-71500D03*
X60250Y-70500D03*
X60250Y-69500D03*
G54D24*
X93234Y-70290D03*
X93234Y-75210D03*
X91266Y-70290D03*
X91266Y-75210D03*
X98484Y-70290D03*
X98484Y-75210D03*
X96516Y-70290D03*
X96516Y-75210D03*
X103734Y-70290D03*
X103734Y-75210D03*
X101766Y-70290D03*
X101766Y-75210D03*
X66984Y-70290D03*
X66984Y-75210D03*
X65016Y-70290D03*
X65016Y-75210D03*
X72234Y-70290D03*
X72234Y-75210D03*
X70266Y-70290D03*
X70266Y-75210D03*
X77484Y-70290D03*
X77484Y-75210D03*
X75516Y-70290D03*
X75516Y-75210D03*
X82734Y-70290D03*
X82734Y-75210D03*
X80766Y-70290D03*
X80766Y-75210D03*
X87984Y-70290D03*
X87984Y-75210D03*
X86016Y-70290D03*
X86016Y-75210D03*
G54D25*
X66750Y-64500D03*
X66750Y-60500D03*
X62250Y-68500D03*
X62250Y-72500D03*
X68750Y-60500D03*
X68750Y-64500D03*
X90750Y-66000D03*
X86750Y-66000D03*
X84250Y-66000D03*
X80250Y-66000D03*
X107250Y-63500D03*
X107250Y-67500D03*
X74500Y-62500D03*
X74500Y-58500D03*
X73750Y-66000D03*
X77750Y-66000D03*
X96250Y-60750D03*
X92250Y-60750D03*
G54D26*
X86250Y-58750D03*
G54D25*
X86250Y-57750D03*
X87250Y-58750D03*
X87250Y-57750D03*
X88250Y-58750D03*
X88250Y-57750D03*
G54D27*
X96250Y-59500D03*
X96250Y-58500D03*
X71250Y-68500D03*
X71250Y-67500D03*
X66000Y-68500D03*
X66000Y-67500D03*
X76500Y-68500D03*
X76500Y-67500D03*
X107250Y-62000D03*
X107250Y-61000D03*
X87000Y-68500D03*
X87000Y-67500D03*
X97500Y-68500D03*
X97500Y-67500D03*
X102750Y-68500D03*
X102750Y-67500D03*
X92250Y-68500D03*
X92250Y-67500D03*
X81750Y-68500D03*
X81750Y-67500D03*
G54D28*
X73250Y-64000D03*
G54D29*
X73250Y-63000D03*
X73250Y-62000D03*
X73250Y-61000D03*
X70250Y-61000D03*
X70250Y-62000D03*
X70250Y-63000D03*
X70250Y-64000D03*
X77250Y-63500D03*
X78250Y-63500D03*
X79250Y-63500D03*
X80250Y-63500D03*
X81250Y-63500D03*
X82250Y-63500D03*
X83250Y-63500D03*
X84250Y-63500D03*
X85250Y-63500D03*
X86250Y-63500D03*
X87250Y-63500D03*
X88250Y-63500D03*
X89250Y-63500D03*
G54D28*
X76250Y-63500D03*
G54D29*
X89250Y-60500D03*
X88250Y-60500D03*
X87250Y-60500D03*
X86250Y-60500D03*
X85250Y-60500D03*
X84250Y-60500D03*
X83250Y-60500D03*
X82250Y-60500D03*
X81250Y-60500D03*
X80250Y-60500D03*
X79250Y-60500D03*
X78250Y-60500D03*
X77250Y-60500D03*
X76250Y-60500D03*
G54D30*
X65750Y-58500D03*
G54D31*
X64750Y-58500D03*
G54D30*
X99500Y-59250D03*
G54D31*
X99500Y-60250D03*
G54D29*
X70750Y-66000D03*
X71750Y-66000D03*
X67750Y-66000D03*
X68750Y-66000D03*
X84750Y-57750D03*
X83750Y-57750D03*
X70750Y-58500D03*
X71750Y-58500D03*
G54D32*
X60500Y-63500D03*
X62468Y-61531D03*
X62468Y-65468D03*
G54D33*
X62468Y-63500D03*
G54D34*
X60500Y-65468D03*
X60500Y-61531D03*
X59515Y-61531D03*
X59515Y-65468D03*
G54D25*
X104250Y-60500D03*
X102250Y-60500D03*
G54D35*
X104250Y-58750D03*
X102250Y-58750D03*
X104250Y-57250D03*
X102250Y-57250D03*
G54D36*
X107250Y-58000D03*
X107250Y-75000D03*
X60250Y-75000D03*
X60250Y-58000D03*
M02*
