M48
;DRILL file {Pcbnew (2011-nov-30)-testing} date Mon 02 Jul 2012 09:15:35 AM EDT
;FORMAT={2:4/ absolute / inch / suppress trailing zeros}
FMAT,2
INCH,LZ
T1C0.025
T2C0.030
T3C0.031
T4C0.032
T5C0.040
T6C0.047
T7C0.064
T8C0.075
T9C0.130
%
G90
G05
M72
T1
X0065Y017
X0075Y016
X0085Y0025
X0095Y00975
X01Y017
X0125Y00775
X01275Y00875
X0145Y00275
X01625Y01525
X017Y00725
X017Y0175
X0175Y00625
X0175Y01
X0195Y00275
X02125Y01675
X02225Y01525
X023Y016
X02375Y00625
X024Y00575
X02425Y00775
X02475Y00525
X025Y0045
X025Y00975
X02525Y001
X02525Y002
X0255Y00725
X026Y002
X026Y00275
X02625Y0175
X026647Y002871
X027Y00675
X0272Y0014
X0275Y01675
X02975Y00575
X0305Y00375
X0308Y006
X0325Y00375
X03275Y00975
X0355Y002
X0365Y00725
X038Y00675
X041Y00775
X04325Y00625
X04475Y00525
T2
X021Y0065
X023Y0065
T3
X031871Y003007
X032186Y002535
X0325Y003007
X032814Y002535
X033129Y003007
T4
X001Y0045
X001Y006
X001Y01425
X001Y01525
X001Y01625
X0015Y0075
X0015Y0105
X002Y006
X002Y012
X002Y013
X0025Y0075
X0025Y0105
X00325Y012
X00325Y013
X0035Y006
X0035Y0075
X0035Y0105
X004Y003
X004Y0145
X004Y0185
X0045Y006
X0045Y0075
X0045Y0105
X0045Y012
X0045Y013
X005Y003
X005Y0045
X006Y0105
X006Y0115
X0065Y001
X0065Y005
X00775Y001
X00775Y005
X008Y007
X008Y008
X0085Y011
X0085Y012
X0105Y0015
X0105Y0045
X011Y006
X011Y01
X0115Y0015
X0115Y0045
X0125Y0015
X0125Y0045
X0125Y006
X0125Y01
X0135Y0015
X0135Y0045
X01375Y011
X01375Y012
X014Y006
X014Y007
X014Y0085
X014Y0095
X0145Y0015
X0145Y0045
X0155Y0015
X0155Y0045
X0155Y0065
X0155Y0075
X0155Y0085
X0155Y0095
X0165Y0015
X0165Y0045
X0175Y0015
X0175Y0045
X0185Y0015
X0185Y0045
X0185Y0065
X0185Y0075
X0185Y0085
X0185Y0095
X019Y011
X019Y012
X0195Y0015
X0195Y0045
X0205Y0015
X0205Y0045
X0205Y0085
X0205Y0095
X0215Y0015
X0215Y0045
X022Y0085
X022Y0095
X0225Y0015
X0225Y0045
X0235Y0015
X0235Y0045
X0235Y0085
X0235Y0095
X02425Y011
X02425Y012
X026Y0045
X026Y0085
X0275Y0045
X0275Y0085
X0295Y011
X0295Y012
X0305Y0045
X0305Y0085
X032Y0045
X032Y0085
X0335Y0045
X0335Y0085
X03475Y011
X03475Y012
X0365Y0015
X0365Y0025
X0365Y0045
X0365Y0085
X038Y0015
X038Y0025
X04Y011
X04Y012
X0425Y0015
X0425Y0025
X04525Y011
X04525Y012
T5
X02825Y001
X02825Y002
X02825Y003
X029Y0045
X029Y0085
X02925Y001
X02925Y002
X02925Y003
X035Y0045
X035Y0085
T6
X006516Y01354
X006516Y01846
X008484Y01354
X008484Y01846
X011766Y01354
X011766Y01846
X013734Y01354
X013734Y01846
X017016Y01354
X017016Y01846
X018984Y01354
X018984Y01846
X022266Y01354
X022266Y01846
X024234Y01354
X024234Y01846
X027516Y01354
X027516Y01846
X029484Y01354
X029484Y01846
X032766Y01354
X032766Y01846
X034734Y01354
X034734Y01846
X038016Y01354
X038016Y01846
X039016Y00404
X039016Y00896
X039984Y01354
X039984Y01846
X040984Y00404
X040984Y00896
X043266Y01354
X043266Y01846
X044266Y00404
X044266Y00896
X045234Y01354
X045234Y01846
X046234Y00404
X046234Y00896
T7
X004Y001
X004Y002
X005Y001
X005Y002
X0435Y0015
X0435Y0025
X0445Y0015
X0445Y0025
T8
X031063Y001
X033937Y001
T9
X00175Y00175
X00175Y01825
X04825Y00175
X04825Y018
T0
M30
