G04 (created by PCBNEW-RS274X (2011-nov-30)-testing) date Mon 02 Jul 2012 10:15:23 AM EDT*
%MOIN*%
G04 Gerber Fmt 3.4, Leading zero omitted, Abs format*
%FSLAX34Y34*%
G01*
G70*
G90*
G04 APERTURE LIST*
%ADD10C,0.006*%
%ADD11C,0.01*%
%ADD12C,0.012*%
%ADD13C,0.015*%
%ADD14C,0.008*%
%ADD15C,0.004*%
%ADD16C,0.0137*%
%ADD17C,0.003*%
%ADD18C,0.0125*%
%ADD19C,0.005*%
%ADD20C,0.0107*%
%ADD21C,0.0035*%
%ADD22C,0.0113*%
%ADD23C,0.08*%
%ADD24C,0.105*%
%ADD25R,0.075X0.075*%
%ADD26C,0.075*%
%ADD27R,0.08X0.08*%
%ADD28C,0.086*%
%ADD29C,0.076*%
%ADD30C,0.09*%
%ADD31R,0.09X0.09*%
%ADD32C,0.084*%
%ADD33R,0.085X0.085*%
%ADD34C,0.085*%
%ADD35C,0.26*%
%ADD36C,0.1263*%
G04 APERTURE END LIST*
G54D10*
G54D11*
X48321Y4096D02*
X48321Y4287D01*
X48493Y4058D02*
X47893Y4191D01*
X48493Y4325D01*
X48493Y4458D02*
X48093Y4458D01*
X48207Y4458D02*
X48150Y4477D01*
X48121Y4496D01*
X48093Y4534D01*
X48093Y4573D01*
X48093Y4649D02*
X48093Y4801D01*
X47893Y4706D02*
X48407Y4706D01*
X48464Y4725D01*
X48493Y4763D01*
X48493Y4801D01*
X48464Y5088D02*
X48493Y5050D01*
X48493Y4973D01*
X48464Y4935D01*
X48407Y4916D01*
X48179Y4916D01*
X48121Y4935D01*
X48093Y4973D01*
X48093Y5050D01*
X48121Y5088D01*
X48179Y5107D01*
X48236Y5107D01*
X48293Y4916D01*
X48493Y5278D02*
X48093Y5278D01*
X48150Y5278D02*
X48121Y5297D01*
X48093Y5335D01*
X48093Y5393D01*
X48121Y5431D01*
X48179Y5450D01*
X48493Y5450D01*
X48179Y5450D02*
X48121Y5469D01*
X48093Y5507D01*
X48093Y5564D01*
X48121Y5602D01*
X48179Y5621D01*
X48493Y5621D01*
X48493Y5811D02*
X48093Y5811D01*
X47893Y5811D02*
X47921Y5792D01*
X47950Y5811D01*
X47921Y5830D01*
X47893Y5811D01*
X47950Y5811D01*
X48464Y5982D02*
X48493Y6020D01*
X48493Y6096D01*
X48464Y6135D01*
X48407Y6154D01*
X48379Y6154D01*
X48321Y6135D01*
X48293Y6096D01*
X48293Y6039D01*
X48264Y6001D01*
X48207Y5982D01*
X48179Y5982D01*
X48121Y6001D01*
X48093Y6039D01*
X48093Y6096D01*
X48121Y6135D01*
X48464Y6611D02*
X48493Y6668D01*
X48493Y6764D01*
X48464Y6802D01*
X48436Y6821D01*
X48379Y6840D01*
X48321Y6840D01*
X48264Y6821D01*
X48236Y6802D01*
X48207Y6764D01*
X48179Y6687D01*
X48150Y6649D01*
X48121Y6630D01*
X48064Y6611D01*
X48007Y6611D01*
X47950Y6630D01*
X47921Y6649D01*
X47893Y6687D01*
X47893Y6783D01*
X47921Y6840D01*
X48093Y6973D02*
X48493Y7068D01*
X48093Y7164D02*
X48493Y7068D01*
X48636Y7030D01*
X48664Y7011D01*
X48693Y6973D01*
X48093Y7316D02*
X48493Y7316D01*
X48150Y7316D02*
X48121Y7335D01*
X48093Y7373D01*
X48093Y7431D01*
X48121Y7469D01*
X48179Y7488D01*
X48493Y7488D01*
X48093Y7621D02*
X48093Y7773D01*
X47893Y7678D02*
X48407Y7678D01*
X48464Y7697D01*
X48493Y7735D01*
X48493Y7773D01*
X48493Y7907D02*
X47893Y7907D01*
X48493Y8079D02*
X48179Y8079D01*
X48121Y8060D01*
X48093Y8022D01*
X48093Y7964D01*
X48121Y7926D01*
X48150Y7907D01*
X48464Y8422D02*
X48493Y8384D01*
X48493Y8307D01*
X48464Y8269D01*
X48407Y8250D01*
X48179Y8250D01*
X48121Y8269D01*
X48093Y8307D01*
X48093Y8384D01*
X48121Y8422D01*
X48179Y8441D01*
X48236Y8441D01*
X48293Y8250D01*
X48464Y8593D02*
X48493Y8631D01*
X48493Y8707D01*
X48464Y8746D01*
X48407Y8765D01*
X48379Y8765D01*
X48321Y8746D01*
X48293Y8707D01*
X48293Y8650D01*
X48264Y8612D01*
X48207Y8593D01*
X48179Y8593D01*
X48121Y8612D01*
X48093Y8650D01*
X48093Y8707D01*
X48121Y8746D01*
X48493Y8936D02*
X48093Y8936D01*
X47893Y8936D02*
X47921Y8917D01*
X47950Y8936D01*
X47921Y8955D01*
X47893Y8936D01*
X47950Y8936D01*
X48093Y9088D02*
X48093Y9298D01*
X48493Y9088D01*
X48493Y9298D01*
X48464Y9603D02*
X48493Y9565D01*
X48493Y9488D01*
X48464Y9450D01*
X48407Y9431D01*
X48179Y9431D01*
X48121Y9450D01*
X48093Y9488D01*
X48093Y9565D01*
X48121Y9603D01*
X48179Y9622D01*
X48236Y9622D01*
X48293Y9431D01*
X48493Y9793D02*
X48093Y9793D01*
X48207Y9793D02*
X48150Y9812D01*
X48121Y9831D01*
X48093Y9869D01*
X48093Y9908D01*
X48693Y10461D02*
X48693Y10365D01*
X47836Y10365D01*
X47836Y10461D01*
X48493Y10842D02*
X48207Y10708D01*
X48493Y10613D02*
X47893Y10613D01*
X47893Y10766D01*
X47921Y10804D01*
X47950Y10823D01*
X48007Y10842D01*
X48093Y10842D01*
X48150Y10823D01*
X48179Y10804D01*
X48207Y10766D01*
X48207Y10613D01*
X48464Y11166D02*
X48493Y11128D01*
X48493Y11051D01*
X48464Y11013D01*
X48407Y10994D01*
X48179Y10994D01*
X48121Y11013D01*
X48093Y11051D01*
X48093Y11128D01*
X48121Y11166D01*
X48179Y11185D01*
X48236Y11185D01*
X48293Y10994D01*
X48093Y11318D02*
X48493Y11413D01*
X48093Y11509D01*
X48321Y11947D02*
X48321Y12138D01*
X48493Y11909D02*
X47893Y12042D01*
X48493Y12176D01*
X48693Y12271D02*
X48693Y12366D01*
X47836Y12366D01*
X47836Y12271D01*
X49436Y4396D02*
X49464Y4377D01*
X49493Y4320D01*
X49493Y4282D01*
X49464Y4224D01*
X49407Y4186D01*
X49350Y4167D01*
X49236Y4148D01*
X49150Y4148D01*
X49036Y4167D01*
X48979Y4186D01*
X48921Y4224D01*
X48893Y4282D01*
X48893Y4320D01*
X48921Y4377D01*
X48950Y4396D01*
X48893Y4834D02*
X49493Y4929D01*
X49064Y5006D01*
X49493Y5082D01*
X48893Y5177D01*
X49493Y5386D02*
X49464Y5348D01*
X49436Y5329D01*
X49379Y5310D01*
X49207Y5310D01*
X49150Y5329D01*
X49121Y5348D01*
X49093Y5386D01*
X49093Y5444D01*
X49121Y5482D01*
X49150Y5501D01*
X49207Y5520D01*
X49379Y5520D01*
X49436Y5501D01*
X49464Y5482D01*
X49493Y5444D01*
X49493Y5386D01*
X49493Y5748D02*
X49464Y5710D01*
X49436Y5691D01*
X49379Y5672D01*
X49207Y5672D01*
X49150Y5691D01*
X49121Y5710D01*
X49093Y5748D01*
X49093Y5806D01*
X49121Y5844D01*
X49150Y5863D01*
X49207Y5882D01*
X49379Y5882D01*
X49436Y5863D01*
X49464Y5844D01*
X49493Y5806D01*
X49493Y5748D01*
X49493Y6225D02*
X48893Y6225D01*
X49464Y6225D02*
X49493Y6187D01*
X49493Y6110D01*
X49464Y6072D01*
X49436Y6053D01*
X49379Y6034D01*
X49207Y6034D01*
X49150Y6053D01*
X49121Y6072D01*
X49093Y6110D01*
X49093Y6187D01*
X49121Y6225D01*
X49493Y6587D02*
X49179Y6587D01*
X49121Y6568D01*
X49093Y6530D01*
X49093Y6453D01*
X49121Y6415D01*
X49464Y6587D02*
X49493Y6549D01*
X49493Y6453D01*
X49464Y6415D01*
X49407Y6396D01*
X49350Y6396D01*
X49293Y6415D01*
X49264Y6453D01*
X49264Y6549D01*
X49236Y6587D01*
X49493Y6834D02*
X49464Y6796D01*
X49407Y6777D01*
X48893Y6777D01*
X49493Y7044D02*
X49464Y7006D01*
X49407Y6987D01*
X48893Y6987D01*
X49264Y7502D02*
X49264Y7807D01*
X48893Y8417D02*
X49321Y8417D01*
X49407Y8397D01*
X49464Y8359D01*
X49493Y8302D01*
X49493Y8264D01*
X49093Y8779D02*
X49493Y8779D01*
X49093Y8607D02*
X49407Y8607D01*
X49464Y8626D01*
X49493Y8664D01*
X49493Y8722D01*
X49464Y8760D01*
X49436Y8779D01*
X49493Y9026D02*
X49464Y8988D01*
X49407Y8969D01*
X48893Y8969D01*
X49093Y9141D02*
X49493Y9236D01*
X49093Y9332D02*
X49493Y9236D01*
X49636Y9198D01*
X49664Y9179D01*
X49693Y9141D01*
X48950Y9770D02*
X48921Y9789D01*
X48893Y9827D01*
X48893Y9923D01*
X48921Y9961D01*
X48950Y9980D01*
X49007Y9999D01*
X49064Y9999D01*
X49150Y9980D01*
X49493Y9751D01*
X49493Y9999D01*
X48893Y10246D02*
X48893Y10285D01*
X48921Y10323D01*
X48950Y10342D01*
X49007Y10361D01*
X49121Y10380D01*
X49264Y10380D01*
X49379Y10361D01*
X49436Y10342D01*
X49464Y10323D01*
X49493Y10285D01*
X49493Y10246D01*
X49464Y10208D01*
X49436Y10189D01*
X49379Y10170D01*
X49264Y10151D01*
X49121Y10151D01*
X49007Y10170D01*
X48950Y10189D01*
X48921Y10208D01*
X48893Y10246D01*
X49493Y10761D02*
X49493Y10532D01*
X49493Y10646D02*
X48893Y10646D01*
X48979Y10608D01*
X49036Y10570D01*
X49064Y10532D01*
X48950Y10913D02*
X48921Y10932D01*
X48893Y10970D01*
X48893Y11066D01*
X48921Y11104D01*
X48950Y11123D01*
X49007Y11142D01*
X49064Y11142D01*
X49150Y11123D01*
X49493Y10894D01*
X49493Y11142D01*
X49264Y11618D02*
X49264Y11923D01*
X49464Y12571D02*
X49493Y12533D01*
X49493Y12456D01*
X49464Y12418D01*
X49407Y12399D01*
X49179Y12399D01*
X49121Y12418D01*
X49093Y12456D01*
X49093Y12533D01*
X49121Y12571D01*
X49179Y12590D01*
X49236Y12590D01*
X49293Y12399D01*
X49493Y12933D02*
X48893Y12933D01*
X49464Y12933D02*
X49493Y12895D01*
X49493Y12818D01*
X49464Y12780D01*
X49436Y12761D01*
X49379Y12742D01*
X49207Y12742D01*
X49150Y12761D01*
X49121Y12780D01*
X49093Y12818D01*
X49093Y12895D01*
X49121Y12933D01*
X49093Y13066D02*
X49093Y13218D01*
X49493Y13123D02*
X48979Y13123D01*
X48921Y13142D01*
X48893Y13180D01*
X48893Y13218D01*
X49436Y13352D02*
X49464Y13371D01*
X49493Y13352D01*
X49464Y13333D01*
X49436Y13352D01*
X49493Y13352D01*
X49493Y13542D02*
X48893Y13542D01*
X49121Y13542D02*
X49093Y13580D01*
X49093Y13657D01*
X49121Y13695D01*
X49150Y13714D01*
X49207Y13733D01*
X49379Y13733D01*
X49436Y13714D01*
X49464Y13695D01*
X49493Y13657D01*
X49493Y13580D01*
X49464Y13542D01*
X49093Y14076D02*
X49493Y14076D01*
X49093Y13904D02*
X49407Y13904D01*
X49464Y13923D01*
X49493Y13961D01*
X49493Y14019D01*
X49464Y14057D01*
X49436Y14076D01*
X49436Y14266D02*
X49464Y14285D01*
X49493Y14266D01*
X49464Y14247D01*
X49436Y14266D01*
X49493Y14266D01*
X49464Y14609D02*
X49493Y14571D01*
X49493Y14494D01*
X49464Y14456D01*
X49407Y14437D01*
X49179Y14437D01*
X49121Y14456D01*
X49093Y14494D01*
X49093Y14571D01*
X49121Y14609D01*
X49179Y14628D01*
X49236Y14628D01*
X49293Y14437D01*
X49493Y14971D02*
X48893Y14971D01*
X49464Y14971D02*
X49493Y14933D01*
X49493Y14856D01*
X49464Y14818D01*
X49436Y14799D01*
X49379Y14780D01*
X49207Y14780D01*
X49150Y14799D01*
X49121Y14818D01*
X49093Y14856D01*
X49093Y14933D01*
X49121Y14971D01*
X49093Y15333D02*
X49493Y15333D01*
X49093Y15161D02*
X49407Y15161D01*
X49464Y15180D01*
X49493Y15218D01*
X49493Y15276D01*
X49464Y15314D01*
X49436Y15333D01*
G54D12*
X41272Y17481D02*
X41729Y17481D01*
X41500Y17176D02*
X41500Y17786D01*
G54D13*
X50000Y20000D02*
X0Y20000D01*
X50000Y0D02*
X50000Y20000D01*
X0Y0D02*
X50000Y0D01*
X0Y20000D02*
X0Y0D01*
G54D11*
X-1000Y4750D02*
X-750Y4500D01*
X-750Y4500D02*
X-750Y5000D01*
X-750Y5000D02*
X-1000Y4750D01*
X-1000Y4750D02*
X-250Y4750D01*
X-250Y4750D02*
X-250Y4500D01*
X-250Y4500D02*
X-250Y5000D01*
X999Y6249D02*
X863Y6374D01*
X716Y6487D01*
X560Y6586D01*
X396Y6672D01*
X225Y6743D01*
X48Y6798D01*
X-132Y6838D01*
X-316Y6862D01*
X-500Y6871D01*
X-684Y6862D01*
X-868Y6838D01*
X-1048Y6798D01*
X-1225Y6743D01*
X-1396Y6672D01*
X-1560Y6586D01*
X-1716Y6487D01*
X-1863Y6374D01*
X-1999Y6249D01*
X-2124Y6113D01*
X-2237Y5966D01*
X-2336Y5810D01*
X-2422Y5646D01*
X-2493Y5475D01*
X-2548Y5298D01*
X-2588Y5118D01*
X-2612Y4934D01*
X-2621Y4750D01*
X-2612Y4566D01*
X-2588Y4382D01*
X-2548Y4202D01*
X-2493Y4025D01*
X-2422Y3854D01*
X-2336Y3690D01*
X-2237Y3534D01*
X-2124Y3387D01*
X-1999Y3251D01*
X-1863Y3126D01*
X-1716Y3013D01*
X-1560Y2914D01*
X-1396Y2828D01*
X-1225Y2757D01*
X-1048Y2702D01*
X-868Y2662D01*
X-684Y2638D01*
X-500Y2629D01*
X-316Y2638D01*
X-132Y2662D01*
X48Y2702D01*
X225Y2757D01*
X396Y2828D01*
X560Y2914D01*
X716Y3013D01*
X863Y3126D01*
X999Y3251D01*
X1000Y3250D02*
X1750Y3250D01*
X1750Y6250D02*
X1000Y6250D01*
X1750Y3250D02*
X1750Y6250D01*
G54D14*
X6989Y2032D02*
X7225Y2032D01*
X7225Y2032D02*
X7422Y2229D01*
X7578Y2032D02*
X7893Y2032D01*
X9074Y6362D02*
X9468Y6362D01*
X9862Y5968D02*
X9862Y2032D01*
X9468Y1638D02*
X9074Y1638D01*
X7893Y1638D02*
X7107Y1638D01*
X5926Y1638D02*
X5532Y1638D01*
X5138Y2032D02*
X5138Y5968D01*
X5532Y6362D02*
X5926Y6362D01*
X7107Y6362D02*
X7893Y6362D01*
G54D15*
X8472Y4000D02*
X8453Y3812D01*
X8398Y3630D01*
X8309Y3463D01*
X8189Y3316D01*
X8043Y3195D01*
X7876Y3104D01*
X7695Y3048D01*
X7506Y3029D01*
X7318Y3046D01*
X7136Y3099D01*
X6968Y3187D01*
X6820Y3306D01*
X6698Y3451D01*
X6607Y3618D01*
X6550Y3798D01*
X6529Y3987D01*
X6544Y4175D01*
X6597Y4357D01*
X6683Y4526D01*
X6801Y4675D01*
X6946Y4798D01*
X7111Y4890D01*
X7292Y4949D01*
X7480Y4971D01*
X7668Y4957D01*
X7851Y4906D01*
X8020Y4820D01*
X8170Y4703D01*
X8294Y4560D01*
X8387Y4395D01*
X8447Y4215D01*
X8471Y4027D01*
X8472Y4000D01*
G54D16*
X9354Y5771D02*
X9352Y5755D01*
X9347Y5740D01*
X9340Y5726D01*
X9329Y5713D01*
X9317Y5703D01*
X9303Y5695D01*
X9287Y5690D01*
X9271Y5689D01*
X9256Y5690D01*
X9240Y5695D01*
X9226Y5702D01*
X9213Y5712D01*
X9203Y5725D01*
X9195Y5739D01*
X9190Y5754D01*
X9189Y5770D01*
X9190Y5785D01*
X9194Y5801D01*
X9202Y5815D01*
X9212Y5828D01*
X9224Y5839D01*
X9238Y5847D01*
X9254Y5852D01*
X9270Y5853D01*
X9285Y5852D01*
X9301Y5848D01*
X9315Y5841D01*
X9328Y5831D01*
X9338Y5818D01*
X9346Y5804D01*
X9351Y5789D01*
X9353Y5773D01*
X9354Y5771D01*
X9354Y2229D02*
X9352Y2213D01*
X9347Y2198D01*
X9340Y2184D01*
X9329Y2171D01*
X9317Y2161D01*
X9303Y2153D01*
X9287Y2148D01*
X9271Y2147D01*
X9256Y2148D01*
X9240Y2153D01*
X9226Y2160D01*
X9213Y2170D01*
X9203Y2183D01*
X9195Y2197D01*
X9190Y2212D01*
X9189Y2228D01*
X9190Y2243D01*
X9194Y2259D01*
X9202Y2273D01*
X9212Y2286D01*
X9224Y2297D01*
X9238Y2305D01*
X9254Y2310D01*
X9270Y2311D01*
X9285Y2310D01*
X9301Y2306D01*
X9315Y2299D01*
X9328Y2289D01*
X9338Y2276D01*
X9346Y2262D01*
X9351Y2247D01*
X9353Y2231D01*
X9354Y2229D01*
X5812Y2229D02*
X5810Y2213D01*
X5805Y2198D01*
X5798Y2184D01*
X5787Y2171D01*
X5775Y2161D01*
X5761Y2153D01*
X5745Y2148D01*
X5729Y2147D01*
X5714Y2148D01*
X5698Y2153D01*
X5684Y2160D01*
X5671Y2170D01*
X5661Y2183D01*
X5653Y2197D01*
X5648Y2212D01*
X5647Y2228D01*
X5648Y2243D01*
X5652Y2259D01*
X5660Y2273D01*
X5670Y2286D01*
X5682Y2297D01*
X5696Y2305D01*
X5712Y2310D01*
X5728Y2311D01*
X5743Y2310D01*
X5759Y2306D01*
X5773Y2299D01*
X5786Y2289D01*
X5796Y2276D01*
X5804Y2262D01*
X5809Y2247D01*
X5811Y2231D01*
X5812Y2229D01*
X5812Y5771D02*
X5810Y5755D01*
X5805Y5740D01*
X5798Y5726D01*
X5787Y5713D01*
X5775Y5703D01*
X5761Y5695D01*
X5745Y5690D01*
X5729Y5689D01*
X5714Y5690D01*
X5698Y5695D01*
X5684Y5702D01*
X5671Y5712D01*
X5661Y5725D01*
X5653Y5739D01*
X5648Y5754D01*
X5647Y5770D01*
X5648Y5785D01*
X5652Y5801D01*
X5660Y5815D01*
X5670Y5828D01*
X5682Y5839D01*
X5696Y5847D01*
X5712Y5852D01*
X5728Y5853D01*
X5743Y5852D01*
X5759Y5848D01*
X5773Y5841D01*
X5786Y5831D01*
X5796Y5818D01*
X5804Y5804D01*
X5809Y5789D01*
X5811Y5773D01*
X5812Y5771D01*
G54D14*
X9862Y5968D02*
X9860Y6002D01*
X9856Y6036D01*
X9848Y6069D01*
X9838Y6102D01*
X9825Y6134D01*
X9809Y6164D01*
X9790Y6193D01*
X9769Y6221D01*
X9746Y6246D01*
X9721Y6269D01*
X9693Y6290D01*
X9665Y6309D01*
X9634Y6325D01*
X9602Y6338D01*
X9569Y6348D01*
X9536Y6356D01*
X9502Y6360D01*
X9468Y6362D01*
X9468Y1638D02*
X9502Y1640D01*
X9536Y1644D01*
X9569Y1652D01*
X9602Y1662D01*
X9634Y1675D01*
X9665Y1691D01*
X9693Y1710D01*
X9721Y1731D01*
X9746Y1754D01*
X9769Y1779D01*
X9790Y1807D01*
X9809Y1836D01*
X9825Y1866D01*
X9838Y1898D01*
X9848Y1931D01*
X9856Y1964D01*
X9860Y1998D01*
X9862Y2032D01*
X5138Y2032D02*
X5140Y1998D01*
X5144Y1964D01*
X5152Y1931D01*
X5162Y1898D01*
X5175Y1866D01*
X5191Y1836D01*
X5210Y1807D01*
X5231Y1779D01*
X5254Y1754D01*
X5279Y1731D01*
X5307Y1710D01*
X5336Y1691D01*
X5366Y1675D01*
X5398Y1662D01*
X5431Y1652D01*
X5464Y1644D01*
X5498Y1640D01*
X5532Y1638D01*
X5532Y6362D02*
X5498Y6360D01*
X5464Y6356D01*
X5431Y6348D01*
X5398Y6338D01*
X5366Y6325D01*
X5336Y6309D01*
X5307Y6290D01*
X5279Y6269D01*
X5254Y6246D01*
X5231Y6221D01*
X5210Y6193D01*
X5191Y6164D01*
X5175Y6134D01*
X5162Y6102D01*
X5152Y6069D01*
X5144Y6036D01*
X5140Y6002D01*
X5138Y5968D01*
X12239Y2032D02*
X12475Y2032D01*
X12475Y2032D02*
X12672Y2229D01*
X12828Y2032D02*
X13143Y2032D01*
X14324Y6362D02*
X14718Y6362D01*
X15112Y5968D02*
X15112Y2032D01*
X14718Y1638D02*
X14324Y1638D01*
X13143Y1638D02*
X12357Y1638D01*
X11176Y1638D02*
X10782Y1638D01*
X10388Y2032D02*
X10388Y5968D01*
X10782Y6362D02*
X11176Y6362D01*
X12357Y6362D02*
X13143Y6362D01*
G54D15*
X13722Y4000D02*
X13703Y3812D01*
X13648Y3630D01*
X13559Y3463D01*
X13439Y3316D01*
X13293Y3195D01*
X13126Y3104D01*
X12945Y3048D01*
X12756Y3029D01*
X12568Y3046D01*
X12386Y3099D01*
X12218Y3187D01*
X12070Y3306D01*
X11948Y3451D01*
X11857Y3618D01*
X11800Y3798D01*
X11779Y3987D01*
X11794Y4175D01*
X11847Y4357D01*
X11933Y4526D01*
X12051Y4675D01*
X12196Y4798D01*
X12361Y4890D01*
X12542Y4949D01*
X12730Y4971D01*
X12918Y4957D01*
X13101Y4906D01*
X13270Y4820D01*
X13420Y4703D01*
X13544Y4560D01*
X13637Y4395D01*
X13697Y4215D01*
X13721Y4027D01*
X13722Y4000D01*
G54D16*
X14604Y5771D02*
X14602Y5755D01*
X14597Y5740D01*
X14590Y5726D01*
X14579Y5713D01*
X14567Y5703D01*
X14553Y5695D01*
X14537Y5690D01*
X14521Y5689D01*
X14506Y5690D01*
X14490Y5695D01*
X14476Y5702D01*
X14463Y5712D01*
X14453Y5725D01*
X14445Y5739D01*
X14440Y5754D01*
X14439Y5770D01*
X14440Y5785D01*
X14444Y5801D01*
X14452Y5815D01*
X14462Y5828D01*
X14474Y5839D01*
X14488Y5847D01*
X14504Y5852D01*
X14520Y5853D01*
X14535Y5852D01*
X14551Y5848D01*
X14565Y5841D01*
X14578Y5831D01*
X14588Y5818D01*
X14596Y5804D01*
X14601Y5789D01*
X14603Y5773D01*
X14604Y5771D01*
X14604Y2229D02*
X14602Y2213D01*
X14597Y2198D01*
X14590Y2184D01*
X14579Y2171D01*
X14567Y2161D01*
X14553Y2153D01*
X14537Y2148D01*
X14521Y2147D01*
X14506Y2148D01*
X14490Y2153D01*
X14476Y2160D01*
X14463Y2170D01*
X14453Y2183D01*
X14445Y2197D01*
X14440Y2212D01*
X14439Y2228D01*
X14440Y2243D01*
X14444Y2259D01*
X14452Y2273D01*
X14462Y2286D01*
X14474Y2297D01*
X14488Y2305D01*
X14504Y2310D01*
X14520Y2311D01*
X14535Y2310D01*
X14551Y2306D01*
X14565Y2299D01*
X14578Y2289D01*
X14588Y2276D01*
X14596Y2262D01*
X14601Y2247D01*
X14603Y2231D01*
X14604Y2229D01*
X11062Y2229D02*
X11060Y2213D01*
X11055Y2198D01*
X11048Y2184D01*
X11037Y2171D01*
X11025Y2161D01*
X11011Y2153D01*
X10995Y2148D01*
X10979Y2147D01*
X10964Y2148D01*
X10948Y2153D01*
X10934Y2160D01*
X10921Y2170D01*
X10911Y2183D01*
X10903Y2197D01*
X10898Y2212D01*
X10897Y2228D01*
X10898Y2243D01*
X10902Y2259D01*
X10910Y2273D01*
X10920Y2286D01*
X10932Y2297D01*
X10946Y2305D01*
X10962Y2310D01*
X10978Y2311D01*
X10993Y2310D01*
X11009Y2306D01*
X11023Y2299D01*
X11036Y2289D01*
X11046Y2276D01*
X11054Y2262D01*
X11059Y2247D01*
X11061Y2231D01*
X11062Y2229D01*
X11062Y5771D02*
X11060Y5755D01*
X11055Y5740D01*
X11048Y5726D01*
X11037Y5713D01*
X11025Y5703D01*
X11011Y5695D01*
X10995Y5690D01*
X10979Y5689D01*
X10964Y5690D01*
X10948Y5695D01*
X10934Y5702D01*
X10921Y5712D01*
X10911Y5725D01*
X10903Y5739D01*
X10898Y5754D01*
X10897Y5770D01*
X10898Y5785D01*
X10902Y5801D01*
X10910Y5815D01*
X10920Y5828D01*
X10932Y5839D01*
X10946Y5847D01*
X10962Y5852D01*
X10978Y5853D01*
X10993Y5852D01*
X11009Y5848D01*
X11023Y5841D01*
X11036Y5831D01*
X11046Y5818D01*
X11054Y5804D01*
X11059Y5789D01*
X11061Y5773D01*
X11062Y5771D01*
G54D14*
X15112Y5968D02*
X15110Y6002D01*
X15106Y6036D01*
X15098Y6069D01*
X15088Y6102D01*
X15075Y6134D01*
X15059Y6164D01*
X15040Y6193D01*
X15019Y6221D01*
X14996Y6246D01*
X14971Y6269D01*
X14943Y6290D01*
X14915Y6309D01*
X14884Y6325D01*
X14852Y6338D01*
X14819Y6348D01*
X14786Y6356D01*
X14752Y6360D01*
X14718Y6362D01*
X14718Y1638D02*
X14752Y1640D01*
X14786Y1644D01*
X14819Y1652D01*
X14852Y1662D01*
X14884Y1675D01*
X14915Y1691D01*
X14943Y1710D01*
X14971Y1731D01*
X14996Y1754D01*
X15019Y1779D01*
X15040Y1807D01*
X15059Y1836D01*
X15075Y1866D01*
X15088Y1898D01*
X15098Y1931D01*
X15106Y1964D01*
X15110Y1998D01*
X15112Y2032D01*
X10388Y2032D02*
X10390Y1998D01*
X10394Y1964D01*
X10402Y1931D01*
X10412Y1898D01*
X10425Y1866D01*
X10441Y1836D01*
X10460Y1807D01*
X10481Y1779D01*
X10504Y1754D01*
X10529Y1731D01*
X10557Y1710D01*
X10586Y1691D01*
X10616Y1675D01*
X10648Y1662D01*
X10681Y1652D01*
X10714Y1644D01*
X10748Y1640D01*
X10782Y1638D01*
X10782Y6362D02*
X10748Y6360D01*
X10714Y6356D01*
X10681Y6348D01*
X10648Y6338D01*
X10616Y6325D01*
X10586Y6309D01*
X10557Y6290D01*
X10529Y6269D01*
X10504Y6246D01*
X10481Y6221D01*
X10460Y6193D01*
X10441Y6164D01*
X10425Y6134D01*
X10412Y6102D01*
X10402Y6069D01*
X10394Y6036D01*
X10390Y6002D01*
X10388Y5968D01*
X17489Y2032D02*
X17725Y2032D01*
X17725Y2032D02*
X17922Y2229D01*
X18078Y2032D02*
X18393Y2032D01*
X19574Y6362D02*
X19968Y6362D01*
X20362Y5968D02*
X20362Y2032D01*
X19968Y1638D02*
X19574Y1638D01*
X18393Y1638D02*
X17607Y1638D01*
X16426Y1638D02*
X16032Y1638D01*
X15638Y2032D02*
X15638Y5968D01*
X16032Y6362D02*
X16426Y6362D01*
X17607Y6362D02*
X18393Y6362D01*
G54D15*
X18972Y4000D02*
X18953Y3812D01*
X18898Y3630D01*
X18809Y3463D01*
X18689Y3316D01*
X18543Y3195D01*
X18376Y3104D01*
X18195Y3048D01*
X18006Y3029D01*
X17818Y3046D01*
X17636Y3099D01*
X17468Y3187D01*
X17320Y3306D01*
X17198Y3451D01*
X17107Y3618D01*
X17050Y3798D01*
X17029Y3987D01*
X17044Y4175D01*
X17097Y4357D01*
X17183Y4526D01*
X17301Y4675D01*
X17446Y4798D01*
X17611Y4890D01*
X17792Y4949D01*
X17980Y4971D01*
X18168Y4957D01*
X18351Y4906D01*
X18520Y4820D01*
X18670Y4703D01*
X18794Y4560D01*
X18887Y4395D01*
X18947Y4215D01*
X18971Y4027D01*
X18972Y4000D01*
G54D16*
X19854Y5771D02*
X19852Y5755D01*
X19847Y5740D01*
X19840Y5726D01*
X19829Y5713D01*
X19817Y5703D01*
X19803Y5695D01*
X19787Y5690D01*
X19771Y5689D01*
X19756Y5690D01*
X19740Y5695D01*
X19726Y5702D01*
X19713Y5712D01*
X19703Y5725D01*
X19695Y5739D01*
X19690Y5754D01*
X19689Y5770D01*
X19690Y5785D01*
X19694Y5801D01*
X19702Y5815D01*
X19712Y5828D01*
X19724Y5839D01*
X19738Y5847D01*
X19754Y5852D01*
X19770Y5853D01*
X19785Y5852D01*
X19801Y5848D01*
X19815Y5841D01*
X19828Y5831D01*
X19838Y5818D01*
X19846Y5804D01*
X19851Y5789D01*
X19853Y5773D01*
X19854Y5771D01*
X19854Y2229D02*
X19852Y2213D01*
X19847Y2198D01*
X19840Y2184D01*
X19829Y2171D01*
X19817Y2161D01*
X19803Y2153D01*
X19787Y2148D01*
X19771Y2147D01*
X19756Y2148D01*
X19740Y2153D01*
X19726Y2160D01*
X19713Y2170D01*
X19703Y2183D01*
X19695Y2197D01*
X19690Y2212D01*
X19689Y2228D01*
X19690Y2243D01*
X19694Y2259D01*
X19702Y2273D01*
X19712Y2286D01*
X19724Y2297D01*
X19738Y2305D01*
X19754Y2310D01*
X19770Y2311D01*
X19785Y2310D01*
X19801Y2306D01*
X19815Y2299D01*
X19828Y2289D01*
X19838Y2276D01*
X19846Y2262D01*
X19851Y2247D01*
X19853Y2231D01*
X19854Y2229D01*
X16312Y2229D02*
X16310Y2213D01*
X16305Y2198D01*
X16298Y2184D01*
X16287Y2171D01*
X16275Y2161D01*
X16261Y2153D01*
X16245Y2148D01*
X16229Y2147D01*
X16214Y2148D01*
X16198Y2153D01*
X16184Y2160D01*
X16171Y2170D01*
X16161Y2183D01*
X16153Y2197D01*
X16148Y2212D01*
X16147Y2228D01*
X16148Y2243D01*
X16152Y2259D01*
X16160Y2273D01*
X16170Y2286D01*
X16182Y2297D01*
X16196Y2305D01*
X16212Y2310D01*
X16228Y2311D01*
X16243Y2310D01*
X16259Y2306D01*
X16273Y2299D01*
X16286Y2289D01*
X16296Y2276D01*
X16304Y2262D01*
X16309Y2247D01*
X16311Y2231D01*
X16312Y2229D01*
X16312Y5771D02*
X16310Y5755D01*
X16305Y5740D01*
X16298Y5726D01*
X16287Y5713D01*
X16275Y5703D01*
X16261Y5695D01*
X16245Y5690D01*
X16229Y5689D01*
X16214Y5690D01*
X16198Y5695D01*
X16184Y5702D01*
X16171Y5712D01*
X16161Y5725D01*
X16153Y5739D01*
X16148Y5754D01*
X16147Y5770D01*
X16148Y5785D01*
X16152Y5801D01*
X16160Y5815D01*
X16170Y5828D01*
X16182Y5839D01*
X16196Y5847D01*
X16212Y5852D01*
X16228Y5853D01*
X16243Y5852D01*
X16259Y5848D01*
X16273Y5841D01*
X16286Y5831D01*
X16296Y5818D01*
X16304Y5804D01*
X16309Y5789D01*
X16311Y5773D01*
X16312Y5771D01*
G54D14*
X20362Y5968D02*
X20360Y6002D01*
X20356Y6036D01*
X20348Y6069D01*
X20338Y6102D01*
X20325Y6134D01*
X20309Y6164D01*
X20290Y6193D01*
X20269Y6221D01*
X20246Y6246D01*
X20221Y6269D01*
X20193Y6290D01*
X20165Y6309D01*
X20134Y6325D01*
X20102Y6338D01*
X20069Y6348D01*
X20036Y6356D01*
X20002Y6360D01*
X19968Y6362D01*
X19968Y1638D02*
X20002Y1640D01*
X20036Y1644D01*
X20069Y1652D01*
X20102Y1662D01*
X20134Y1675D01*
X20165Y1691D01*
X20193Y1710D01*
X20221Y1731D01*
X20246Y1754D01*
X20269Y1779D01*
X20290Y1807D01*
X20309Y1836D01*
X20325Y1866D01*
X20338Y1898D01*
X20348Y1931D01*
X20356Y1964D01*
X20360Y1998D01*
X20362Y2032D01*
X15638Y2032D02*
X15640Y1998D01*
X15644Y1964D01*
X15652Y1931D01*
X15662Y1898D01*
X15675Y1866D01*
X15691Y1836D01*
X15710Y1807D01*
X15731Y1779D01*
X15754Y1754D01*
X15779Y1731D01*
X15807Y1710D01*
X15836Y1691D01*
X15866Y1675D01*
X15898Y1662D01*
X15931Y1652D01*
X15964Y1644D01*
X15998Y1640D01*
X16032Y1638D01*
X16032Y6362D02*
X15998Y6360D01*
X15964Y6356D01*
X15931Y6348D01*
X15898Y6338D01*
X15866Y6325D01*
X15836Y6309D01*
X15807Y6290D01*
X15779Y6269D01*
X15754Y6246D01*
X15731Y6221D01*
X15710Y6193D01*
X15691Y6164D01*
X15675Y6134D01*
X15662Y6102D01*
X15652Y6069D01*
X15644Y6036D01*
X15640Y6002D01*
X15638Y5968D01*
X22739Y2032D02*
X22975Y2032D01*
X22975Y2032D02*
X23172Y2229D01*
X23328Y2032D02*
X23643Y2032D01*
X24824Y6362D02*
X25218Y6362D01*
X25612Y5968D02*
X25612Y2032D01*
X25218Y1638D02*
X24824Y1638D01*
X23643Y1638D02*
X22857Y1638D01*
X21676Y1638D02*
X21282Y1638D01*
X20888Y2032D02*
X20888Y5968D01*
X21282Y6362D02*
X21676Y6362D01*
X22857Y6362D02*
X23643Y6362D01*
G54D15*
X24222Y4000D02*
X24203Y3812D01*
X24148Y3630D01*
X24059Y3463D01*
X23939Y3316D01*
X23793Y3195D01*
X23626Y3104D01*
X23445Y3048D01*
X23256Y3029D01*
X23068Y3046D01*
X22886Y3099D01*
X22718Y3187D01*
X22570Y3306D01*
X22448Y3451D01*
X22357Y3618D01*
X22300Y3798D01*
X22279Y3987D01*
X22294Y4175D01*
X22347Y4357D01*
X22433Y4526D01*
X22551Y4675D01*
X22696Y4798D01*
X22861Y4890D01*
X23042Y4949D01*
X23230Y4971D01*
X23418Y4957D01*
X23601Y4906D01*
X23770Y4820D01*
X23920Y4703D01*
X24044Y4560D01*
X24137Y4395D01*
X24197Y4215D01*
X24221Y4027D01*
X24222Y4000D01*
G54D16*
X25104Y5771D02*
X25102Y5755D01*
X25097Y5740D01*
X25090Y5726D01*
X25079Y5713D01*
X25067Y5703D01*
X25053Y5695D01*
X25037Y5690D01*
X25021Y5689D01*
X25006Y5690D01*
X24990Y5695D01*
X24976Y5702D01*
X24963Y5712D01*
X24953Y5725D01*
X24945Y5739D01*
X24940Y5754D01*
X24939Y5770D01*
X24940Y5785D01*
X24944Y5801D01*
X24952Y5815D01*
X24962Y5828D01*
X24974Y5839D01*
X24988Y5847D01*
X25004Y5852D01*
X25020Y5853D01*
X25035Y5852D01*
X25051Y5848D01*
X25065Y5841D01*
X25078Y5831D01*
X25088Y5818D01*
X25096Y5804D01*
X25101Y5789D01*
X25103Y5773D01*
X25104Y5771D01*
X25104Y2229D02*
X25102Y2213D01*
X25097Y2198D01*
X25090Y2184D01*
X25079Y2171D01*
X25067Y2161D01*
X25053Y2153D01*
X25037Y2148D01*
X25021Y2147D01*
X25006Y2148D01*
X24990Y2153D01*
X24976Y2160D01*
X24963Y2170D01*
X24953Y2183D01*
X24945Y2197D01*
X24940Y2212D01*
X24939Y2228D01*
X24940Y2243D01*
X24944Y2259D01*
X24952Y2273D01*
X24962Y2286D01*
X24974Y2297D01*
X24988Y2305D01*
X25004Y2310D01*
X25020Y2311D01*
X25035Y2310D01*
X25051Y2306D01*
X25065Y2299D01*
X25078Y2289D01*
X25088Y2276D01*
X25096Y2262D01*
X25101Y2247D01*
X25103Y2231D01*
X25104Y2229D01*
X21562Y2229D02*
X21560Y2213D01*
X21555Y2198D01*
X21548Y2184D01*
X21537Y2171D01*
X21525Y2161D01*
X21511Y2153D01*
X21495Y2148D01*
X21479Y2147D01*
X21464Y2148D01*
X21448Y2153D01*
X21434Y2160D01*
X21421Y2170D01*
X21411Y2183D01*
X21403Y2197D01*
X21398Y2212D01*
X21397Y2228D01*
X21398Y2243D01*
X21402Y2259D01*
X21410Y2273D01*
X21420Y2286D01*
X21432Y2297D01*
X21446Y2305D01*
X21462Y2310D01*
X21478Y2311D01*
X21493Y2310D01*
X21509Y2306D01*
X21523Y2299D01*
X21536Y2289D01*
X21546Y2276D01*
X21554Y2262D01*
X21559Y2247D01*
X21561Y2231D01*
X21562Y2229D01*
X21562Y5771D02*
X21560Y5755D01*
X21555Y5740D01*
X21548Y5726D01*
X21537Y5713D01*
X21525Y5703D01*
X21511Y5695D01*
X21495Y5690D01*
X21479Y5689D01*
X21464Y5690D01*
X21448Y5695D01*
X21434Y5702D01*
X21421Y5712D01*
X21411Y5725D01*
X21403Y5739D01*
X21398Y5754D01*
X21397Y5770D01*
X21398Y5785D01*
X21402Y5801D01*
X21410Y5815D01*
X21420Y5828D01*
X21432Y5839D01*
X21446Y5847D01*
X21462Y5852D01*
X21478Y5853D01*
X21493Y5852D01*
X21509Y5848D01*
X21523Y5841D01*
X21536Y5831D01*
X21546Y5818D01*
X21554Y5804D01*
X21559Y5789D01*
X21561Y5773D01*
X21562Y5771D01*
G54D14*
X25612Y5968D02*
X25610Y6002D01*
X25606Y6036D01*
X25598Y6069D01*
X25588Y6102D01*
X25575Y6134D01*
X25559Y6164D01*
X25540Y6193D01*
X25519Y6221D01*
X25496Y6246D01*
X25471Y6269D01*
X25443Y6290D01*
X25415Y6309D01*
X25384Y6325D01*
X25352Y6338D01*
X25319Y6348D01*
X25286Y6356D01*
X25252Y6360D01*
X25218Y6362D01*
X25218Y1638D02*
X25252Y1640D01*
X25286Y1644D01*
X25319Y1652D01*
X25352Y1662D01*
X25384Y1675D01*
X25415Y1691D01*
X25443Y1710D01*
X25471Y1731D01*
X25496Y1754D01*
X25519Y1779D01*
X25540Y1807D01*
X25559Y1836D01*
X25575Y1866D01*
X25588Y1898D01*
X25598Y1931D01*
X25606Y1964D01*
X25610Y1998D01*
X25612Y2032D01*
X20888Y2032D02*
X20890Y1998D01*
X20894Y1964D01*
X20902Y1931D01*
X20912Y1898D01*
X20925Y1866D01*
X20941Y1836D01*
X20960Y1807D01*
X20981Y1779D01*
X21004Y1754D01*
X21029Y1731D01*
X21057Y1710D01*
X21086Y1691D01*
X21116Y1675D01*
X21148Y1662D01*
X21181Y1652D01*
X21214Y1644D01*
X21248Y1640D01*
X21282Y1638D01*
X21282Y6362D02*
X21248Y6360D01*
X21214Y6356D01*
X21181Y6348D01*
X21148Y6338D01*
X21116Y6325D01*
X21086Y6309D01*
X21057Y6290D01*
X21029Y6269D01*
X21004Y6246D01*
X20981Y6221D01*
X20960Y6193D01*
X20941Y6164D01*
X20925Y6134D01*
X20912Y6102D01*
X20902Y6069D01*
X20894Y6036D01*
X20890Y6002D01*
X20888Y5968D01*
X27989Y2032D02*
X28225Y2032D01*
X28225Y2032D02*
X28422Y2229D01*
X28578Y2032D02*
X28893Y2032D01*
X30074Y6362D02*
X30468Y6362D01*
X30862Y5968D02*
X30862Y2032D01*
X30468Y1638D02*
X30074Y1638D01*
X28893Y1638D02*
X28107Y1638D01*
X26926Y1638D02*
X26532Y1638D01*
X26138Y2032D02*
X26138Y5968D01*
X26532Y6362D02*
X26926Y6362D01*
X28107Y6362D02*
X28893Y6362D01*
G54D15*
X29472Y4000D02*
X29453Y3812D01*
X29398Y3630D01*
X29309Y3463D01*
X29189Y3316D01*
X29043Y3195D01*
X28876Y3104D01*
X28695Y3048D01*
X28506Y3029D01*
X28318Y3046D01*
X28136Y3099D01*
X27968Y3187D01*
X27820Y3306D01*
X27698Y3451D01*
X27607Y3618D01*
X27550Y3798D01*
X27529Y3987D01*
X27544Y4175D01*
X27597Y4357D01*
X27683Y4526D01*
X27801Y4675D01*
X27946Y4798D01*
X28111Y4890D01*
X28292Y4949D01*
X28480Y4971D01*
X28668Y4957D01*
X28851Y4906D01*
X29020Y4820D01*
X29170Y4703D01*
X29294Y4560D01*
X29387Y4395D01*
X29447Y4215D01*
X29471Y4027D01*
X29472Y4000D01*
G54D16*
X30354Y5771D02*
X30352Y5755D01*
X30347Y5740D01*
X30340Y5726D01*
X30329Y5713D01*
X30317Y5703D01*
X30303Y5695D01*
X30287Y5690D01*
X30271Y5689D01*
X30256Y5690D01*
X30240Y5695D01*
X30226Y5702D01*
X30213Y5712D01*
X30203Y5725D01*
X30195Y5739D01*
X30190Y5754D01*
X30189Y5770D01*
X30190Y5785D01*
X30194Y5801D01*
X30202Y5815D01*
X30212Y5828D01*
X30224Y5839D01*
X30238Y5847D01*
X30254Y5852D01*
X30270Y5853D01*
X30285Y5852D01*
X30301Y5848D01*
X30315Y5841D01*
X30328Y5831D01*
X30338Y5818D01*
X30346Y5804D01*
X30351Y5789D01*
X30353Y5773D01*
X30354Y5771D01*
X30354Y2229D02*
X30352Y2213D01*
X30347Y2198D01*
X30340Y2184D01*
X30329Y2171D01*
X30317Y2161D01*
X30303Y2153D01*
X30287Y2148D01*
X30271Y2147D01*
X30256Y2148D01*
X30240Y2153D01*
X30226Y2160D01*
X30213Y2170D01*
X30203Y2183D01*
X30195Y2197D01*
X30190Y2212D01*
X30189Y2228D01*
X30190Y2243D01*
X30194Y2259D01*
X30202Y2273D01*
X30212Y2286D01*
X30224Y2297D01*
X30238Y2305D01*
X30254Y2310D01*
X30270Y2311D01*
X30285Y2310D01*
X30301Y2306D01*
X30315Y2299D01*
X30328Y2289D01*
X30338Y2276D01*
X30346Y2262D01*
X30351Y2247D01*
X30353Y2231D01*
X30354Y2229D01*
X26812Y2229D02*
X26810Y2213D01*
X26805Y2198D01*
X26798Y2184D01*
X26787Y2171D01*
X26775Y2161D01*
X26761Y2153D01*
X26745Y2148D01*
X26729Y2147D01*
X26714Y2148D01*
X26698Y2153D01*
X26684Y2160D01*
X26671Y2170D01*
X26661Y2183D01*
X26653Y2197D01*
X26648Y2212D01*
X26647Y2228D01*
X26648Y2243D01*
X26652Y2259D01*
X26660Y2273D01*
X26670Y2286D01*
X26682Y2297D01*
X26696Y2305D01*
X26712Y2310D01*
X26728Y2311D01*
X26743Y2310D01*
X26759Y2306D01*
X26773Y2299D01*
X26786Y2289D01*
X26796Y2276D01*
X26804Y2262D01*
X26809Y2247D01*
X26811Y2231D01*
X26812Y2229D01*
X26812Y5771D02*
X26810Y5755D01*
X26805Y5740D01*
X26798Y5726D01*
X26787Y5713D01*
X26775Y5703D01*
X26761Y5695D01*
X26745Y5690D01*
X26729Y5689D01*
X26714Y5690D01*
X26698Y5695D01*
X26684Y5702D01*
X26671Y5712D01*
X26661Y5725D01*
X26653Y5739D01*
X26648Y5754D01*
X26647Y5770D01*
X26648Y5785D01*
X26652Y5801D01*
X26660Y5815D01*
X26670Y5828D01*
X26682Y5839D01*
X26696Y5847D01*
X26712Y5852D01*
X26728Y5853D01*
X26743Y5852D01*
X26759Y5848D01*
X26773Y5841D01*
X26786Y5831D01*
X26796Y5818D01*
X26804Y5804D01*
X26809Y5789D01*
X26811Y5773D01*
X26812Y5771D01*
G54D14*
X30862Y5968D02*
X30860Y6002D01*
X30856Y6036D01*
X30848Y6069D01*
X30838Y6102D01*
X30825Y6134D01*
X30809Y6164D01*
X30790Y6193D01*
X30769Y6221D01*
X30746Y6246D01*
X30721Y6269D01*
X30693Y6290D01*
X30665Y6309D01*
X30634Y6325D01*
X30602Y6338D01*
X30569Y6348D01*
X30536Y6356D01*
X30502Y6360D01*
X30468Y6362D01*
X30468Y1638D02*
X30502Y1640D01*
X30536Y1644D01*
X30569Y1652D01*
X30602Y1662D01*
X30634Y1675D01*
X30665Y1691D01*
X30693Y1710D01*
X30721Y1731D01*
X30746Y1754D01*
X30769Y1779D01*
X30790Y1807D01*
X30809Y1836D01*
X30825Y1866D01*
X30838Y1898D01*
X30848Y1931D01*
X30856Y1964D01*
X30860Y1998D01*
X30862Y2032D01*
X26138Y2032D02*
X26140Y1998D01*
X26144Y1964D01*
X26152Y1931D01*
X26162Y1898D01*
X26175Y1866D01*
X26191Y1836D01*
X26210Y1807D01*
X26231Y1779D01*
X26254Y1754D01*
X26279Y1731D01*
X26307Y1710D01*
X26336Y1691D01*
X26366Y1675D01*
X26398Y1662D01*
X26431Y1652D01*
X26464Y1644D01*
X26498Y1640D01*
X26532Y1638D01*
X26532Y6362D02*
X26498Y6360D01*
X26464Y6356D01*
X26431Y6348D01*
X26398Y6338D01*
X26366Y6325D01*
X26336Y6309D01*
X26307Y6290D01*
X26279Y6269D01*
X26254Y6246D01*
X26231Y6221D01*
X26210Y6193D01*
X26191Y6164D01*
X26175Y6134D01*
X26162Y6102D01*
X26152Y6069D01*
X26144Y6036D01*
X26140Y6002D01*
X26138Y5968D01*
X45761Y15468D02*
X45525Y15468D01*
X45525Y15468D02*
X45328Y15271D01*
X45172Y15468D02*
X44857Y15468D01*
X43676Y11138D02*
X43282Y11138D01*
X42888Y11532D02*
X42888Y15468D01*
X43282Y15862D02*
X43676Y15862D01*
X44857Y15862D02*
X45643Y15862D01*
X46824Y15862D02*
X47218Y15862D01*
X47612Y15468D02*
X47612Y11532D01*
X47218Y11138D02*
X46824Y11138D01*
X45643Y11138D02*
X44857Y11138D01*
G54D15*
X46222Y13500D02*
X46203Y13312D01*
X46148Y13130D01*
X46059Y12963D01*
X45939Y12816D01*
X45793Y12695D01*
X45626Y12604D01*
X45445Y12548D01*
X45256Y12529D01*
X45068Y12546D01*
X44886Y12599D01*
X44718Y12687D01*
X44570Y12806D01*
X44448Y12951D01*
X44357Y13118D01*
X44300Y13298D01*
X44279Y13487D01*
X44294Y13675D01*
X44347Y13857D01*
X44433Y14026D01*
X44551Y14175D01*
X44696Y14298D01*
X44861Y14390D01*
X45042Y14449D01*
X45230Y14471D01*
X45418Y14457D01*
X45601Y14406D01*
X45770Y14320D01*
X45920Y14203D01*
X46044Y14060D01*
X46137Y13895D01*
X46197Y13715D01*
X46221Y13527D01*
X46222Y13500D01*
G54D16*
X43562Y11729D02*
X43560Y11713D01*
X43555Y11698D01*
X43548Y11684D01*
X43537Y11671D01*
X43525Y11661D01*
X43511Y11653D01*
X43495Y11648D01*
X43479Y11647D01*
X43464Y11648D01*
X43448Y11653D01*
X43434Y11660D01*
X43421Y11670D01*
X43411Y11683D01*
X43403Y11697D01*
X43398Y11712D01*
X43397Y11728D01*
X43398Y11743D01*
X43402Y11759D01*
X43410Y11773D01*
X43420Y11786D01*
X43432Y11797D01*
X43446Y11805D01*
X43462Y11810D01*
X43478Y11811D01*
X43493Y11810D01*
X43509Y11806D01*
X43523Y11799D01*
X43536Y11789D01*
X43546Y11776D01*
X43554Y11762D01*
X43559Y11747D01*
X43561Y11731D01*
X43562Y11729D01*
X43562Y15271D02*
X43560Y15255D01*
X43555Y15240D01*
X43548Y15226D01*
X43537Y15213D01*
X43525Y15203D01*
X43511Y15195D01*
X43495Y15190D01*
X43479Y15189D01*
X43464Y15190D01*
X43448Y15195D01*
X43434Y15202D01*
X43421Y15212D01*
X43411Y15225D01*
X43403Y15239D01*
X43398Y15254D01*
X43397Y15270D01*
X43398Y15285D01*
X43402Y15301D01*
X43410Y15315D01*
X43420Y15328D01*
X43432Y15339D01*
X43446Y15347D01*
X43462Y15352D01*
X43478Y15353D01*
X43493Y15352D01*
X43509Y15348D01*
X43523Y15341D01*
X43536Y15331D01*
X43546Y15318D01*
X43554Y15304D01*
X43559Y15289D01*
X43561Y15273D01*
X43562Y15271D01*
X47104Y15271D02*
X47102Y15255D01*
X47097Y15240D01*
X47090Y15226D01*
X47079Y15213D01*
X47067Y15203D01*
X47053Y15195D01*
X47037Y15190D01*
X47021Y15189D01*
X47006Y15190D01*
X46990Y15195D01*
X46976Y15202D01*
X46963Y15212D01*
X46953Y15225D01*
X46945Y15239D01*
X46940Y15254D01*
X46939Y15270D01*
X46940Y15285D01*
X46944Y15301D01*
X46952Y15315D01*
X46962Y15328D01*
X46974Y15339D01*
X46988Y15347D01*
X47004Y15352D01*
X47020Y15353D01*
X47035Y15352D01*
X47051Y15348D01*
X47065Y15341D01*
X47078Y15331D01*
X47088Y15318D01*
X47096Y15304D01*
X47101Y15289D01*
X47103Y15273D01*
X47104Y15271D01*
X47104Y11729D02*
X47102Y11713D01*
X47097Y11698D01*
X47090Y11684D01*
X47079Y11671D01*
X47067Y11661D01*
X47053Y11653D01*
X47037Y11648D01*
X47021Y11647D01*
X47006Y11648D01*
X46990Y11653D01*
X46976Y11660D01*
X46963Y11670D01*
X46953Y11683D01*
X46945Y11697D01*
X46940Y11712D01*
X46939Y11728D01*
X46940Y11743D01*
X46944Y11759D01*
X46952Y11773D01*
X46962Y11786D01*
X46974Y11797D01*
X46988Y11805D01*
X47004Y11810D01*
X47020Y11811D01*
X47035Y11810D01*
X47051Y11806D01*
X47065Y11799D01*
X47078Y11789D01*
X47088Y11776D01*
X47096Y11762D01*
X47101Y11747D01*
X47103Y11731D01*
X47104Y11729D01*
G54D14*
X42888Y11532D02*
X42890Y11498D01*
X42894Y11464D01*
X42902Y11431D01*
X42912Y11398D01*
X42925Y11366D01*
X42941Y11336D01*
X42960Y11307D01*
X42981Y11279D01*
X43004Y11254D01*
X43029Y11231D01*
X43057Y11210D01*
X43086Y11191D01*
X43116Y11175D01*
X43148Y11162D01*
X43181Y11152D01*
X43214Y11144D01*
X43248Y11140D01*
X43282Y11138D01*
X43282Y15862D02*
X43248Y15860D01*
X43214Y15856D01*
X43181Y15848D01*
X43148Y15838D01*
X43116Y15825D01*
X43086Y15809D01*
X43057Y15790D01*
X43029Y15769D01*
X43004Y15746D01*
X42981Y15721D01*
X42960Y15693D01*
X42941Y15664D01*
X42925Y15634D01*
X42912Y15602D01*
X42902Y15569D01*
X42894Y15536D01*
X42890Y15502D01*
X42888Y15468D01*
X47612Y15468D02*
X47610Y15502D01*
X47606Y15536D01*
X47598Y15569D01*
X47588Y15602D01*
X47575Y15634D01*
X47559Y15664D01*
X47540Y15693D01*
X47519Y15721D01*
X47496Y15746D01*
X47471Y15769D01*
X47443Y15790D01*
X47415Y15809D01*
X47384Y15825D01*
X47352Y15838D01*
X47319Y15848D01*
X47286Y15856D01*
X47252Y15860D01*
X47218Y15862D01*
X47218Y11138D02*
X47252Y11140D01*
X47286Y11144D01*
X47319Y11152D01*
X47352Y11162D01*
X47384Y11175D01*
X47415Y11191D01*
X47443Y11210D01*
X47471Y11231D01*
X47496Y11254D01*
X47519Y11279D01*
X47540Y11307D01*
X47559Y11336D01*
X47575Y11366D01*
X47588Y11398D01*
X47598Y11431D01*
X47606Y11464D01*
X47610Y11498D01*
X47612Y11532D01*
X40511Y15468D02*
X40275Y15468D01*
X40275Y15468D02*
X40078Y15271D01*
X39922Y15468D02*
X39607Y15468D01*
X38426Y11138D02*
X38032Y11138D01*
X37638Y11532D02*
X37638Y15468D01*
X38032Y15862D02*
X38426Y15862D01*
X39607Y15862D02*
X40393Y15862D01*
X41574Y15862D02*
X41968Y15862D01*
X42362Y15468D02*
X42362Y11532D01*
X41968Y11138D02*
X41574Y11138D01*
X40393Y11138D02*
X39607Y11138D01*
G54D15*
X40972Y13500D02*
X40953Y13312D01*
X40898Y13130D01*
X40809Y12963D01*
X40689Y12816D01*
X40543Y12695D01*
X40376Y12604D01*
X40195Y12548D01*
X40006Y12529D01*
X39818Y12546D01*
X39636Y12599D01*
X39468Y12687D01*
X39320Y12806D01*
X39198Y12951D01*
X39107Y13118D01*
X39050Y13298D01*
X39029Y13487D01*
X39044Y13675D01*
X39097Y13857D01*
X39183Y14026D01*
X39301Y14175D01*
X39446Y14298D01*
X39611Y14390D01*
X39792Y14449D01*
X39980Y14471D01*
X40168Y14457D01*
X40351Y14406D01*
X40520Y14320D01*
X40670Y14203D01*
X40794Y14060D01*
X40887Y13895D01*
X40947Y13715D01*
X40971Y13527D01*
X40972Y13500D01*
G54D16*
X38312Y11729D02*
X38310Y11713D01*
X38305Y11698D01*
X38298Y11684D01*
X38287Y11671D01*
X38275Y11661D01*
X38261Y11653D01*
X38245Y11648D01*
X38229Y11647D01*
X38214Y11648D01*
X38198Y11653D01*
X38184Y11660D01*
X38171Y11670D01*
X38161Y11683D01*
X38153Y11697D01*
X38148Y11712D01*
X38147Y11728D01*
X38148Y11743D01*
X38152Y11759D01*
X38160Y11773D01*
X38170Y11786D01*
X38182Y11797D01*
X38196Y11805D01*
X38212Y11810D01*
X38228Y11811D01*
X38243Y11810D01*
X38259Y11806D01*
X38273Y11799D01*
X38286Y11789D01*
X38296Y11776D01*
X38304Y11762D01*
X38309Y11747D01*
X38311Y11731D01*
X38312Y11729D01*
X38312Y15271D02*
X38310Y15255D01*
X38305Y15240D01*
X38298Y15226D01*
X38287Y15213D01*
X38275Y15203D01*
X38261Y15195D01*
X38245Y15190D01*
X38229Y15189D01*
X38214Y15190D01*
X38198Y15195D01*
X38184Y15202D01*
X38171Y15212D01*
X38161Y15225D01*
X38153Y15239D01*
X38148Y15254D01*
X38147Y15270D01*
X38148Y15285D01*
X38152Y15301D01*
X38160Y15315D01*
X38170Y15328D01*
X38182Y15339D01*
X38196Y15347D01*
X38212Y15352D01*
X38228Y15353D01*
X38243Y15352D01*
X38259Y15348D01*
X38273Y15341D01*
X38286Y15331D01*
X38296Y15318D01*
X38304Y15304D01*
X38309Y15289D01*
X38311Y15273D01*
X38312Y15271D01*
X41854Y15271D02*
X41852Y15255D01*
X41847Y15240D01*
X41840Y15226D01*
X41829Y15213D01*
X41817Y15203D01*
X41803Y15195D01*
X41787Y15190D01*
X41771Y15189D01*
X41756Y15190D01*
X41740Y15195D01*
X41726Y15202D01*
X41713Y15212D01*
X41703Y15225D01*
X41695Y15239D01*
X41690Y15254D01*
X41689Y15270D01*
X41690Y15285D01*
X41694Y15301D01*
X41702Y15315D01*
X41712Y15328D01*
X41724Y15339D01*
X41738Y15347D01*
X41754Y15352D01*
X41770Y15353D01*
X41785Y15352D01*
X41801Y15348D01*
X41815Y15341D01*
X41828Y15331D01*
X41838Y15318D01*
X41846Y15304D01*
X41851Y15289D01*
X41853Y15273D01*
X41854Y15271D01*
X41854Y11729D02*
X41852Y11713D01*
X41847Y11698D01*
X41840Y11684D01*
X41829Y11671D01*
X41817Y11661D01*
X41803Y11653D01*
X41787Y11648D01*
X41771Y11647D01*
X41756Y11648D01*
X41740Y11653D01*
X41726Y11660D01*
X41713Y11670D01*
X41703Y11683D01*
X41695Y11697D01*
X41690Y11712D01*
X41689Y11728D01*
X41690Y11743D01*
X41694Y11759D01*
X41702Y11773D01*
X41712Y11786D01*
X41724Y11797D01*
X41738Y11805D01*
X41754Y11810D01*
X41770Y11811D01*
X41785Y11810D01*
X41801Y11806D01*
X41815Y11799D01*
X41828Y11789D01*
X41838Y11776D01*
X41846Y11762D01*
X41851Y11747D01*
X41853Y11731D01*
X41854Y11729D01*
G54D14*
X37638Y11532D02*
X37640Y11498D01*
X37644Y11464D01*
X37652Y11431D01*
X37662Y11398D01*
X37675Y11366D01*
X37691Y11336D01*
X37710Y11307D01*
X37731Y11279D01*
X37754Y11254D01*
X37779Y11231D01*
X37807Y11210D01*
X37836Y11191D01*
X37866Y11175D01*
X37898Y11162D01*
X37931Y11152D01*
X37964Y11144D01*
X37998Y11140D01*
X38032Y11138D01*
X38032Y15862D02*
X37998Y15860D01*
X37964Y15856D01*
X37931Y15848D01*
X37898Y15838D01*
X37866Y15825D01*
X37836Y15809D01*
X37807Y15790D01*
X37779Y15769D01*
X37754Y15746D01*
X37731Y15721D01*
X37710Y15693D01*
X37691Y15664D01*
X37675Y15634D01*
X37662Y15602D01*
X37652Y15569D01*
X37644Y15536D01*
X37640Y15502D01*
X37638Y15468D01*
X42362Y15468D02*
X42360Y15502D01*
X42356Y15536D01*
X42348Y15569D01*
X42338Y15602D01*
X42325Y15634D01*
X42309Y15664D01*
X42290Y15693D01*
X42269Y15721D01*
X42246Y15746D01*
X42221Y15769D01*
X42193Y15790D01*
X42165Y15809D01*
X42134Y15825D01*
X42102Y15838D01*
X42069Y15848D01*
X42036Y15856D01*
X42002Y15860D01*
X41968Y15862D01*
X41968Y11138D02*
X42002Y11140D01*
X42036Y11144D01*
X42069Y11152D01*
X42102Y11162D01*
X42134Y11175D01*
X42165Y11191D01*
X42193Y11210D01*
X42221Y11231D01*
X42246Y11254D01*
X42269Y11279D01*
X42290Y11307D01*
X42309Y11336D01*
X42325Y11366D01*
X42338Y11398D01*
X42348Y11431D01*
X42356Y11464D01*
X42360Y11498D01*
X42362Y11532D01*
X43739Y2032D02*
X43975Y2032D01*
X43975Y2032D02*
X44172Y2229D01*
X44328Y2032D02*
X44643Y2032D01*
X45824Y6362D02*
X46218Y6362D01*
X46612Y5968D02*
X46612Y2032D01*
X46218Y1638D02*
X45824Y1638D01*
X44643Y1638D02*
X43857Y1638D01*
X42676Y1638D02*
X42282Y1638D01*
X41888Y2032D02*
X41888Y5968D01*
X42282Y6362D02*
X42676Y6362D01*
X43857Y6362D02*
X44643Y6362D01*
G54D15*
X45222Y4000D02*
X45203Y3812D01*
X45148Y3630D01*
X45059Y3463D01*
X44939Y3316D01*
X44793Y3195D01*
X44626Y3104D01*
X44445Y3048D01*
X44256Y3029D01*
X44068Y3046D01*
X43886Y3099D01*
X43718Y3187D01*
X43570Y3306D01*
X43448Y3451D01*
X43357Y3618D01*
X43300Y3798D01*
X43279Y3987D01*
X43294Y4175D01*
X43347Y4357D01*
X43433Y4526D01*
X43551Y4675D01*
X43696Y4798D01*
X43861Y4890D01*
X44042Y4949D01*
X44230Y4971D01*
X44418Y4957D01*
X44601Y4906D01*
X44770Y4820D01*
X44920Y4703D01*
X45044Y4560D01*
X45137Y4395D01*
X45197Y4215D01*
X45221Y4027D01*
X45222Y4000D01*
G54D16*
X46104Y5771D02*
X46102Y5755D01*
X46097Y5740D01*
X46090Y5726D01*
X46079Y5713D01*
X46067Y5703D01*
X46053Y5695D01*
X46037Y5690D01*
X46021Y5689D01*
X46006Y5690D01*
X45990Y5695D01*
X45976Y5702D01*
X45963Y5712D01*
X45953Y5725D01*
X45945Y5739D01*
X45940Y5754D01*
X45939Y5770D01*
X45940Y5785D01*
X45944Y5801D01*
X45952Y5815D01*
X45962Y5828D01*
X45974Y5839D01*
X45988Y5847D01*
X46004Y5852D01*
X46020Y5853D01*
X46035Y5852D01*
X46051Y5848D01*
X46065Y5841D01*
X46078Y5831D01*
X46088Y5818D01*
X46096Y5804D01*
X46101Y5789D01*
X46103Y5773D01*
X46104Y5771D01*
X46104Y2229D02*
X46102Y2213D01*
X46097Y2198D01*
X46090Y2184D01*
X46079Y2171D01*
X46067Y2161D01*
X46053Y2153D01*
X46037Y2148D01*
X46021Y2147D01*
X46006Y2148D01*
X45990Y2153D01*
X45976Y2160D01*
X45963Y2170D01*
X45953Y2183D01*
X45945Y2197D01*
X45940Y2212D01*
X45939Y2228D01*
X45940Y2243D01*
X45944Y2259D01*
X45952Y2273D01*
X45962Y2286D01*
X45974Y2297D01*
X45988Y2305D01*
X46004Y2310D01*
X46020Y2311D01*
X46035Y2310D01*
X46051Y2306D01*
X46065Y2299D01*
X46078Y2289D01*
X46088Y2276D01*
X46096Y2262D01*
X46101Y2247D01*
X46103Y2231D01*
X46104Y2229D01*
X42562Y2229D02*
X42560Y2213D01*
X42555Y2198D01*
X42548Y2184D01*
X42537Y2171D01*
X42525Y2161D01*
X42511Y2153D01*
X42495Y2148D01*
X42479Y2147D01*
X42464Y2148D01*
X42448Y2153D01*
X42434Y2160D01*
X42421Y2170D01*
X42411Y2183D01*
X42403Y2197D01*
X42398Y2212D01*
X42397Y2228D01*
X42398Y2243D01*
X42402Y2259D01*
X42410Y2273D01*
X42420Y2286D01*
X42432Y2297D01*
X42446Y2305D01*
X42462Y2310D01*
X42478Y2311D01*
X42493Y2310D01*
X42509Y2306D01*
X42523Y2299D01*
X42536Y2289D01*
X42546Y2276D01*
X42554Y2262D01*
X42559Y2247D01*
X42561Y2231D01*
X42562Y2229D01*
X42562Y5771D02*
X42560Y5755D01*
X42555Y5740D01*
X42548Y5726D01*
X42537Y5713D01*
X42525Y5703D01*
X42511Y5695D01*
X42495Y5690D01*
X42479Y5689D01*
X42464Y5690D01*
X42448Y5695D01*
X42434Y5702D01*
X42421Y5712D01*
X42411Y5725D01*
X42403Y5739D01*
X42398Y5754D01*
X42397Y5770D01*
X42398Y5785D01*
X42402Y5801D01*
X42410Y5815D01*
X42420Y5828D01*
X42432Y5839D01*
X42446Y5847D01*
X42462Y5852D01*
X42478Y5853D01*
X42493Y5852D01*
X42509Y5848D01*
X42523Y5841D01*
X42536Y5831D01*
X42546Y5818D01*
X42554Y5804D01*
X42559Y5789D01*
X42561Y5773D01*
X42562Y5771D01*
G54D14*
X46612Y5968D02*
X46610Y6002D01*
X46606Y6036D01*
X46598Y6069D01*
X46588Y6102D01*
X46575Y6134D01*
X46559Y6164D01*
X46540Y6193D01*
X46519Y6221D01*
X46496Y6246D01*
X46471Y6269D01*
X46443Y6290D01*
X46415Y6309D01*
X46384Y6325D01*
X46352Y6338D01*
X46319Y6348D01*
X46286Y6356D01*
X46252Y6360D01*
X46218Y6362D01*
X46218Y1638D02*
X46252Y1640D01*
X46286Y1644D01*
X46319Y1652D01*
X46352Y1662D01*
X46384Y1675D01*
X46415Y1691D01*
X46443Y1710D01*
X46471Y1731D01*
X46496Y1754D01*
X46519Y1779D01*
X46540Y1807D01*
X46559Y1836D01*
X46575Y1866D01*
X46588Y1898D01*
X46598Y1931D01*
X46606Y1964D01*
X46610Y1998D01*
X46612Y2032D01*
X41888Y2032D02*
X41890Y1998D01*
X41894Y1964D01*
X41902Y1931D01*
X41912Y1898D01*
X41925Y1866D01*
X41941Y1836D01*
X41960Y1807D01*
X41981Y1779D01*
X42004Y1754D01*
X42029Y1731D01*
X42057Y1710D01*
X42086Y1691D01*
X42116Y1675D01*
X42148Y1662D01*
X42181Y1652D01*
X42214Y1644D01*
X42248Y1640D01*
X42282Y1638D01*
X42282Y6362D02*
X42248Y6360D01*
X42214Y6356D01*
X42181Y6348D01*
X42148Y6338D01*
X42116Y6325D01*
X42086Y6309D01*
X42057Y6290D01*
X42029Y6269D01*
X42004Y6246D01*
X41981Y6221D01*
X41960Y6193D01*
X41941Y6164D01*
X41925Y6134D01*
X41912Y6102D01*
X41902Y6069D01*
X41894Y6036D01*
X41890Y6002D01*
X41888Y5968D01*
X38489Y2032D02*
X38725Y2032D01*
X38725Y2032D02*
X38922Y2229D01*
X39078Y2032D02*
X39393Y2032D01*
X40574Y6362D02*
X40968Y6362D01*
X41362Y5968D02*
X41362Y2032D01*
X40968Y1638D02*
X40574Y1638D01*
X39393Y1638D02*
X38607Y1638D01*
X37426Y1638D02*
X37032Y1638D01*
X36638Y2032D02*
X36638Y5968D01*
X37032Y6362D02*
X37426Y6362D01*
X38607Y6362D02*
X39393Y6362D01*
G54D15*
X39972Y4000D02*
X39953Y3812D01*
X39898Y3630D01*
X39809Y3463D01*
X39689Y3316D01*
X39543Y3195D01*
X39376Y3104D01*
X39195Y3048D01*
X39006Y3029D01*
X38818Y3046D01*
X38636Y3099D01*
X38468Y3187D01*
X38320Y3306D01*
X38198Y3451D01*
X38107Y3618D01*
X38050Y3798D01*
X38029Y3987D01*
X38044Y4175D01*
X38097Y4357D01*
X38183Y4526D01*
X38301Y4675D01*
X38446Y4798D01*
X38611Y4890D01*
X38792Y4949D01*
X38980Y4971D01*
X39168Y4957D01*
X39351Y4906D01*
X39520Y4820D01*
X39670Y4703D01*
X39794Y4560D01*
X39887Y4395D01*
X39947Y4215D01*
X39971Y4027D01*
X39972Y4000D01*
G54D16*
X40854Y5771D02*
X40852Y5755D01*
X40847Y5740D01*
X40840Y5726D01*
X40829Y5713D01*
X40817Y5703D01*
X40803Y5695D01*
X40787Y5690D01*
X40771Y5689D01*
X40756Y5690D01*
X40740Y5695D01*
X40726Y5702D01*
X40713Y5712D01*
X40703Y5725D01*
X40695Y5739D01*
X40690Y5754D01*
X40689Y5770D01*
X40690Y5785D01*
X40694Y5801D01*
X40702Y5815D01*
X40712Y5828D01*
X40724Y5839D01*
X40738Y5847D01*
X40754Y5852D01*
X40770Y5853D01*
X40785Y5852D01*
X40801Y5848D01*
X40815Y5841D01*
X40828Y5831D01*
X40838Y5818D01*
X40846Y5804D01*
X40851Y5789D01*
X40853Y5773D01*
X40854Y5771D01*
X40854Y2229D02*
X40852Y2213D01*
X40847Y2198D01*
X40840Y2184D01*
X40829Y2171D01*
X40817Y2161D01*
X40803Y2153D01*
X40787Y2148D01*
X40771Y2147D01*
X40756Y2148D01*
X40740Y2153D01*
X40726Y2160D01*
X40713Y2170D01*
X40703Y2183D01*
X40695Y2197D01*
X40690Y2212D01*
X40689Y2228D01*
X40690Y2243D01*
X40694Y2259D01*
X40702Y2273D01*
X40712Y2286D01*
X40724Y2297D01*
X40738Y2305D01*
X40754Y2310D01*
X40770Y2311D01*
X40785Y2310D01*
X40801Y2306D01*
X40815Y2299D01*
X40828Y2289D01*
X40838Y2276D01*
X40846Y2262D01*
X40851Y2247D01*
X40853Y2231D01*
X40854Y2229D01*
X37312Y2229D02*
X37310Y2213D01*
X37305Y2198D01*
X37298Y2184D01*
X37287Y2171D01*
X37275Y2161D01*
X37261Y2153D01*
X37245Y2148D01*
X37229Y2147D01*
X37214Y2148D01*
X37198Y2153D01*
X37184Y2160D01*
X37171Y2170D01*
X37161Y2183D01*
X37153Y2197D01*
X37148Y2212D01*
X37147Y2228D01*
X37148Y2243D01*
X37152Y2259D01*
X37160Y2273D01*
X37170Y2286D01*
X37182Y2297D01*
X37196Y2305D01*
X37212Y2310D01*
X37228Y2311D01*
X37243Y2310D01*
X37259Y2306D01*
X37273Y2299D01*
X37286Y2289D01*
X37296Y2276D01*
X37304Y2262D01*
X37309Y2247D01*
X37311Y2231D01*
X37312Y2229D01*
X37312Y5771D02*
X37310Y5755D01*
X37305Y5740D01*
X37298Y5726D01*
X37287Y5713D01*
X37275Y5703D01*
X37261Y5695D01*
X37245Y5690D01*
X37229Y5689D01*
X37214Y5690D01*
X37198Y5695D01*
X37184Y5702D01*
X37171Y5712D01*
X37161Y5725D01*
X37153Y5739D01*
X37148Y5754D01*
X37147Y5770D01*
X37148Y5785D01*
X37152Y5801D01*
X37160Y5815D01*
X37170Y5828D01*
X37182Y5839D01*
X37196Y5847D01*
X37212Y5852D01*
X37228Y5853D01*
X37243Y5852D01*
X37259Y5848D01*
X37273Y5841D01*
X37286Y5831D01*
X37296Y5818D01*
X37304Y5804D01*
X37309Y5789D01*
X37311Y5773D01*
X37312Y5771D01*
G54D14*
X41362Y5968D02*
X41360Y6002D01*
X41356Y6036D01*
X41348Y6069D01*
X41338Y6102D01*
X41325Y6134D01*
X41309Y6164D01*
X41290Y6193D01*
X41269Y6221D01*
X41246Y6246D01*
X41221Y6269D01*
X41193Y6290D01*
X41165Y6309D01*
X41134Y6325D01*
X41102Y6338D01*
X41069Y6348D01*
X41036Y6356D01*
X41002Y6360D01*
X40968Y6362D01*
X40968Y1638D02*
X41002Y1640D01*
X41036Y1644D01*
X41069Y1652D01*
X41102Y1662D01*
X41134Y1675D01*
X41165Y1691D01*
X41193Y1710D01*
X41221Y1731D01*
X41246Y1754D01*
X41269Y1779D01*
X41290Y1807D01*
X41309Y1836D01*
X41325Y1866D01*
X41338Y1898D01*
X41348Y1931D01*
X41356Y1964D01*
X41360Y1998D01*
X41362Y2032D01*
X36638Y2032D02*
X36640Y1998D01*
X36644Y1964D01*
X36652Y1931D01*
X36662Y1898D01*
X36675Y1866D01*
X36691Y1836D01*
X36710Y1807D01*
X36731Y1779D01*
X36754Y1754D01*
X36779Y1731D01*
X36807Y1710D01*
X36836Y1691D01*
X36866Y1675D01*
X36898Y1662D01*
X36931Y1652D01*
X36964Y1644D01*
X36998Y1640D01*
X37032Y1638D01*
X37032Y6362D02*
X36998Y6360D01*
X36964Y6356D01*
X36931Y6348D01*
X36898Y6338D01*
X36866Y6325D01*
X36836Y6309D01*
X36807Y6290D01*
X36779Y6269D01*
X36754Y6246D01*
X36731Y6221D01*
X36710Y6193D01*
X36691Y6164D01*
X36675Y6134D01*
X36662Y6102D01*
X36652Y6069D01*
X36644Y6036D01*
X36640Y6002D01*
X36638Y5968D01*
X33239Y2032D02*
X33475Y2032D01*
X33475Y2032D02*
X33672Y2229D01*
X33828Y2032D02*
X34143Y2032D01*
X35324Y6362D02*
X35718Y6362D01*
X36112Y5968D02*
X36112Y2032D01*
X35718Y1638D02*
X35324Y1638D01*
X34143Y1638D02*
X33357Y1638D01*
X32176Y1638D02*
X31782Y1638D01*
X31388Y2032D02*
X31388Y5968D01*
X31782Y6362D02*
X32176Y6362D01*
X33357Y6362D02*
X34143Y6362D01*
G54D15*
X34722Y4000D02*
X34703Y3812D01*
X34648Y3630D01*
X34559Y3463D01*
X34439Y3316D01*
X34293Y3195D01*
X34126Y3104D01*
X33945Y3048D01*
X33756Y3029D01*
X33568Y3046D01*
X33386Y3099D01*
X33218Y3187D01*
X33070Y3306D01*
X32948Y3451D01*
X32857Y3618D01*
X32800Y3798D01*
X32779Y3987D01*
X32794Y4175D01*
X32847Y4357D01*
X32933Y4526D01*
X33051Y4675D01*
X33196Y4798D01*
X33361Y4890D01*
X33542Y4949D01*
X33730Y4971D01*
X33918Y4957D01*
X34101Y4906D01*
X34270Y4820D01*
X34420Y4703D01*
X34544Y4560D01*
X34637Y4395D01*
X34697Y4215D01*
X34721Y4027D01*
X34722Y4000D01*
G54D16*
X35604Y5771D02*
X35602Y5755D01*
X35597Y5740D01*
X35590Y5726D01*
X35579Y5713D01*
X35567Y5703D01*
X35553Y5695D01*
X35537Y5690D01*
X35521Y5689D01*
X35506Y5690D01*
X35490Y5695D01*
X35476Y5702D01*
X35463Y5712D01*
X35453Y5725D01*
X35445Y5739D01*
X35440Y5754D01*
X35439Y5770D01*
X35440Y5785D01*
X35444Y5801D01*
X35452Y5815D01*
X35462Y5828D01*
X35474Y5839D01*
X35488Y5847D01*
X35504Y5852D01*
X35520Y5853D01*
X35535Y5852D01*
X35551Y5848D01*
X35565Y5841D01*
X35578Y5831D01*
X35588Y5818D01*
X35596Y5804D01*
X35601Y5789D01*
X35603Y5773D01*
X35604Y5771D01*
X35604Y2229D02*
X35602Y2213D01*
X35597Y2198D01*
X35590Y2184D01*
X35579Y2171D01*
X35567Y2161D01*
X35553Y2153D01*
X35537Y2148D01*
X35521Y2147D01*
X35506Y2148D01*
X35490Y2153D01*
X35476Y2160D01*
X35463Y2170D01*
X35453Y2183D01*
X35445Y2197D01*
X35440Y2212D01*
X35439Y2228D01*
X35440Y2243D01*
X35444Y2259D01*
X35452Y2273D01*
X35462Y2286D01*
X35474Y2297D01*
X35488Y2305D01*
X35504Y2310D01*
X35520Y2311D01*
X35535Y2310D01*
X35551Y2306D01*
X35565Y2299D01*
X35578Y2289D01*
X35588Y2276D01*
X35596Y2262D01*
X35601Y2247D01*
X35603Y2231D01*
X35604Y2229D01*
X32062Y2229D02*
X32060Y2213D01*
X32055Y2198D01*
X32048Y2184D01*
X32037Y2171D01*
X32025Y2161D01*
X32011Y2153D01*
X31995Y2148D01*
X31979Y2147D01*
X31964Y2148D01*
X31948Y2153D01*
X31934Y2160D01*
X31921Y2170D01*
X31911Y2183D01*
X31903Y2197D01*
X31898Y2212D01*
X31897Y2228D01*
X31898Y2243D01*
X31902Y2259D01*
X31910Y2273D01*
X31920Y2286D01*
X31932Y2297D01*
X31946Y2305D01*
X31962Y2310D01*
X31978Y2311D01*
X31993Y2310D01*
X32009Y2306D01*
X32023Y2299D01*
X32036Y2289D01*
X32046Y2276D01*
X32054Y2262D01*
X32059Y2247D01*
X32061Y2231D01*
X32062Y2229D01*
X32062Y5771D02*
X32060Y5755D01*
X32055Y5740D01*
X32048Y5726D01*
X32037Y5713D01*
X32025Y5703D01*
X32011Y5695D01*
X31995Y5690D01*
X31979Y5689D01*
X31964Y5690D01*
X31948Y5695D01*
X31934Y5702D01*
X31921Y5712D01*
X31911Y5725D01*
X31903Y5739D01*
X31898Y5754D01*
X31897Y5770D01*
X31898Y5785D01*
X31902Y5801D01*
X31910Y5815D01*
X31920Y5828D01*
X31932Y5839D01*
X31946Y5847D01*
X31962Y5852D01*
X31978Y5853D01*
X31993Y5852D01*
X32009Y5848D01*
X32023Y5841D01*
X32036Y5831D01*
X32046Y5818D01*
X32054Y5804D01*
X32059Y5789D01*
X32061Y5773D01*
X32062Y5771D01*
G54D14*
X36112Y5968D02*
X36110Y6002D01*
X36106Y6036D01*
X36098Y6069D01*
X36088Y6102D01*
X36075Y6134D01*
X36059Y6164D01*
X36040Y6193D01*
X36019Y6221D01*
X35996Y6246D01*
X35971Y6269D01*
X35943Y6290D01*
X35915Y6309D01*
X35884Y6325D01*
X35852Y6338D01*
X35819Y6348D01*
X35786Y6356D01*
X35752Y6360D01*
X35718Y6362D01*
X35718Y1638D02*
X35752Y1640D01*
X35786Y1644D01*
X35819Y1652D01*
X35852Y1662D01*
X35884Y1675D01*
X35915Y1691D01*
X35943Y1710D01*
X35971Y1731D01*
X35996Y1754D01*
X36019Y1779D01*
X36040Y1807D01*
X36059Y1836D01*
X36075Y1866D01*
X36088Y1898D01*
X36098Y1931D01*
X36106Y1964D01*
X36110Y1998D01*
X36112Y2032D01*
X31388Y2032D02*
X31390Y1998D01*
X31394Y1964D01*
X31402Y1931D01*
X31412Y1898D01*
X31425Y1866D01*
X31441Y1836D01*
X31460Y1807D01*
X31481Y1779D01*
X31504Y1754D01*
X31529Y1731D01*
X31557Y1710D01*
X31586Y1691D01*
X31616Y1675D01*
X31648Y1662D01*
X31681Y1652D01*
X31714Y1644D01*
X31748Y1640D01*
X31782Y1638D01*
X31782Y6362D02*
X31748Y6360D01*
X31714Y6356D01*
X31681Y6348D01*
X31648Y6338D01*
X31616Y6325D01*
X31586Y6309D01*
X31557Y6290D01*
X31529Y6269D01*
X31504Y6246D01*
X31481Y6221D01*
X31460Y6193D01*
X31441Y6164D01*
X31425Y6134D01*
X31412Y6102D01*
X31402Y6069D01*
X31394Y6036D01*
X31390Y6002D01*
X31388Y5968D01*
G54D12*
X40000Y19000D02*
X41000Y19000D01*
X41000Y19000D02*
X41000Y17000D01*
X41000Y17000D02*
X40000Y17000D01*
X40000Y17000D02*
X40000Y19000D01*
X26000Y15500D02*
X26000Y15100D01*
X26000Y15100D02*
X26400Y15100D01*
X26400Y15100D02*
X26400Y11900D01*
X26400Y11900D02*
X25600Y11900D01*
X25600Y11900D02*
X25600Y15100D01*
X25600Y15100D02*
X26000Y15100D01*
X26200Y15100D02*
X26400Y14900D01*
X26000Y11500D02*
X26000Y11900D01*
X27500Y11500D02*
X27500Y11900D01*
X27500Y11900D02*
X27100Y11900D01*
X27100Y11900D02*
X27100Y15100D01*
X27100Y15100D02*
X27900Y15100D01*
X27900Y15100D02*
X27900Y11900D01*
X27900Y11900D02*
X27500Y11900D01*
X27300Y11900D02*
X27100Y12100D01*
X27500Y15500D02*
X27500Y15100D01*
X36500Y15500D02*
X36500Y15100D01*
X36500Y15100D02*
X36900Y15100D01*
X36900Y15100D02*
X36900Y11900D01*
X36900Y11900D02*
X36100Y11900D01*
X36100Y11900D02*
X36100Y15100D01*
X36100Y15100D02*
X36500Y15100D01*
X36700Y15100D02*
X36900Y14900D01*
X36500Y11500D02*
X36500Y11900D01*
X33500Y15500D02*
X33500Y15100D01*
X33500Y15100D02*
X33900Y15100D01*
X33900Y15100D02*
X33900Y11900D01*
X33900Y11900D02*
X33100Y11900D01*
X33100Y11900D02*
X33100Y15100D01*
X33100Y15100D02*
X33500Y15100D01*
X33700Y15100D02*
X33900Y14900D01*
X33500Y11500D02*
X33500Y11900D01*
X12500Y10000D02*
X12500Y10400D01*
X12500Y10400D02*
X12100Y10400D01*
X12100Y10400D02*
X12100Y13600D01*
X12100Y13600D02*
X12900Y13600D01*
X12900Y13600D02*
X12900Y10400D01*
X12900Y10400D02*
X12500Y10400D01*
X12300Y10400D02*
X12100Y10600D01*
X12500Y14000D02*
X12500Y13600D01*
X11000Y10000D02*
X11000Y10400D01*
X11000Y10400D02*
X10600Y10400D01*
X10600Y10400D02*
X10600Y13600D01*
X10600Y13600D02*
X11400Y13600D01*
X11400Y13600D02*
X11400Y10400D01*
X11400Y10400D02*
X11000Y10400D01*
X10800Y10400D02*
X10600Y10600D01*
X11000Y14000D02*
X11000Y13600D01*
X7750Y19000D02*
X7750Y18600D01*
X7750Y18600D02*
X8150Y18600D01*
X8150Y18600D02*
X8150Y15400D01*
X8150Y15400D02*
X7350Y15400D01*
X7350Y15400D02*
X7350Y18600D01*
X7350Y18600D02*
X7750Y18600D01*
X7950Y18600D02*
X8150Y18400D01*
X7750Y15000D02*
X7750Y15400D01*
X1000Y15500D02*
X1400Y15500D01*
X1400Y15500D02*
X1400Y15900D01*
X1400Y15900D02*
X4600Y15900D01*
X4600Y15900D02*
X4600Y15100D01*
X4600Y15100D02*
X1400Y15100D01*
X1400Y15100D02*
X1400Y15500D01*
X1400Y15700D02*
X1600Y15900D01*
X5000Y15500D02*
X4600Y15500D01*
X6500Y15000D02*
X6500Y15400D01*
X6500Y15400D02*
X6100Y15400D01*
X6100Y15400D02*
X6100Y18600D01*
X6100Y18600D02*
X6900Y18600D01*
X6900Y18600D02*
X6900Y15400D01*
X6900Y15400D02*
X6500Y15400D01*
X6300Y15400D02*
X6100Y15600D01*
X6500Y19000D02*
X6500Y18600D01*
X32000Y11500D02*
X32000Y11900D01*
X32000Y11900D02*
X31600Y11900D01*
X31600Y11900D02*
X31600Y15100D01*
X31600Y15100D02*
X32400Y15100D01*
X32400Y15100D02*
X32400Y11900D01*
X32400Y11900D02*
X32000Y11900D01*
X31800Y11900D02*
X31600Y12100D01*
X32000Y15500D02*
X32000Y15100D01*
X30500Y11500D02*
X30500Y11900D01*
X30500Y11900D02*
X30100Y11900D01*
X30100Y11900D02*
X30100Y15100D01*
X30100Y15100D02*
X30900Y15100D01*
X30900Y15100D02*
X30900Y11900D01*
X30900Y11900D02*
X30500Y11900D01*
X30300Y11900D02*
X30100Y12100D01*
X30500Y15500D02*
X30500Y15100D01*
G54D14*
X27750Y16500D02*
X27750Y19500D01*
X29750Y19500D02*
X29750Y16500D01*
X29750Y16500D02*
X27750Y16500D01*
X27750Y19500D02*
X29750Y19500D01*
X39250Y7380D02*
X40750Y7380D01*
G54D17*
X40707Y8400D02*
X40693Y8263D01*
X40653Y8131D01*
X40588Y8009D01*
X40501Y7902D01*
X40395Y7814D01*
X40273Y7749D01*
X40142Y7708D01*
X40004Y7694D01*
X39868Y7706D01*
X39736Y7745D01*
X39613Y7809D01*
X39506Y7895D01*
X39417Y8001D01*
X39351Y8122D01*
X39309Y8254D01*
X39294Y8391D01*
X39305Y8527D01*
X39343Y8660D01*
X39406Y8782D01*
X39492Y8891D01*
X39597Y8980D01*
X39717Y9047D01*
X39849Y9090D01*
X39986Y9106D01*
X40122Y9096D01*
X40255Y9059D01*
X40378Y8996D01*
X40487Y8911D01*
X40577Y8807D01*
X40645Y8687D01*
X40689Y8556D01*
X40706Y8419D01*
X40707Y8400D01*
G54D11*
X40750Y7401D02*
X40834Y7470D01*
X40912Y7546D01*
X40983Y7629D01*
X41047Y7718D01*
X41102Y7812D01*
X41149Y7910D01*
X41188Y8012D01*
X41217Y8117D01*
X41237Y8224D01*
X41248Y8333D01*
X41249Y8441D01*
X41240Y8550D01*
X41223Y8657D01*
X41196Y8763D01*
X41159Y8866D01*
X41114Y8965D01*
X41061Y9060D01*
X40999Y9150D01*
X40930Y9234D01*
X40854Y9312D01*
X40771Y9383D01*
X40682Y9447D01*
X40588Y9502D01*
X40490Y9549D01*
X40388Y9588D01*
X40283Y9617D01*
X40176Y9637D01*
X40067Y9648D01*
X39959Y9649D01*
X39850Y9640D01*
X39743Y9623D01*
X39637Y9596D01*
X39534Y9559D01*
X39435Y9514D01*
X39340Y9461D01*
X39250Y9399D01*
X39166Y9330D01*
X39088Y9254D01*
X39017Y9171D01*
X38953Y9082D01*
X38898Y8988D01*
X38851Y8890D01*
X38812Y8788D01*
X38783Y8683D01*
X38763Y8576D01*
X38752Y8467D01*
X38751Y8359D01*
X38760Y8250D01*
X38777Y8143D01*
X38804Y8037D01*
X38841Y7934D01*
X38886Y7835D01*
X38939Y7740D01*
X39001Y7650D01*
X39070Y7566D01*
X39146Y7488D01*
X39229Y7417D01*
X39250Y7401D01*
G54D10*
X40450Y8400D02*
X40448Y8439D01*
X40443Y8478D01*
X40434Y8516D01*
X40422Y8553D01*
X40407Y8590D01*
X40389Y8624D01*
X40368Y8658D01*
X40344Y8689D01*
X40318Y8718D01*
X40289Y8744D01*
X40258Y8768D01*
X40225Y8789D01*
X40190Y8807D01*
X40153Y8822D01*
X40116Y8834D01*
X40078Y8843D01*
X40039Y8848D01*
X40000Y8850D01*
X39550Y8400D02*
X39552Y8361D01*
X39557Y8322D01*
X39566Y8284D01*
X39578Y8247D01*
X39593Y8210D01*
X39611Y8176D01*
X39632Y8142D01*
X39656Y8111D01*
X39682Y8082D01*
X39711Y8056D01*
X39742Y8032D01*
X39776Y8011D01*
X39810Y7993D01*
X39847Y7978D01*
X39884Y7966D01*
X39922Y7957D01*
X39961Y7952D01*
X40000Y7950D01*
X40650Y8400D02*
X40647Y8456D01*
X40640Y8512D01*
X40627Y8568D01*
X40610Y8622D01*
X40589Y8674D01*
X40562Y8724D01*
X40532Y8772D01*
X40497Y8817D01*
X40459Y8859D01*
X40417Y8897D01*
X40372Y8932D01*
X40325Y8962D01*
X40274Y8989D01*
X40222Y9010D01*
X40168Y9027D01*
X40112Y9040D01*
X40056Y9047D01*
X40000Y9050D01*
X39350Y8400D02*
X39353Y8344D01*
X39360Y8288D01*
X39373Y8232D01*
X39390Y8178D01*
X39411Y8126D01*
X39438Y8076D01*
X39468Y8028D01*
X39503Y7983D01*
X39541Y7941D01*
X39583Y7903D01*
X39628Y7868D01*
X39676Y7838D01*
X39726Y7811D01*
X39778Y7790D01*
X39832Y7773D01*
X39888Y7760D01*
X39944Y7753D01*
X40000Y7750D01*
X40850Y8400D02*
X40846Y8474D01*
X40837Y8547D01*
X40821Y8619D01*
X40798Y8690D01*
X40770Y8759D01*
X40736Y8824D01*
X40696Y8887D01*
X40651Y8946D01*
X40601Y9001D01*
X40546Y9051D01*
X40487Y9096D01*
X40425Y9136D01*
X40359Y9170D01*
X40290Y9198D01*
X40219Y9221D01*
X40147Y9237D01*
X40074Y9246D01*
X40000Y9250D01*
X39150Y8400D02*
X39154Y8326D01*
X39163Y8253D01*
X39179Y8181D01*
X39202Y8110D01*
X39230Y8041D01*
X39264Y7976D01*
X39304Y7913D01*
X39349Y7854D01*
X39399Y7799D01*
X39454Y7749D01*
X39513Y7704D01*
X39576Y7664D01*
X39641Y7630D01*
X39710Y7602D01*
X39781Y7579D01*
X39853Y7563D01*
X39926Y7554D01*
X40000Y7550D01*
G54D14*
X34000Y7380D02*
X35500Y7380D01*
G54D17*
X35457Y8400D02*
X35443Y8263D01*
X35403Y8131D01*
X35338Y8009D01*
X35251Y7902D01*
X35145Y7814D01*
X35023Y7749D01*
X34892Y7708D01*
X34754Y7694D01*
X34618Y7706D01*
X34486Y7745D01*
X34363Y7809D01*
X34256Y7895D01*
X34167Y8001D01*
X34101Y8122D01*
X34059Y8254D01*
X34044Y8391D01*
X34055Y8527D01*
X34093Y8660D01*
X34156Y8782D01*
X34242Y8891D01*
X34347Y8980D01*
X34467Y9047D01*
X34599Y9090D01*
X34736Y9106D01*
X34872Y9096D01*
X35005Y9059D01*
X35128Y8996D01*
X35237Y8911D01*
X35327Y8807D01*
X35395Y8687D01*
X35439Y8556D01*
X35456Y8419D01*
X35457Y8400D01*
G54D11*
X35500Y7401D02*
X35584Y7470D01*
X35662Y7546D01*
X35733Y7629D01*
X35797Y7718D01*
X35852Y7812D01*
X35899Y7910D01*
X35938Y8012D01*
X35967Y8117D01*
X35987Y8224D01*
X35998Y8333D01*
X35999Y8441D01*
X35990Y8550D01*
X35973Y8657D01*
X35946Y8763D01*
X35909Y8866D01*
X35864Y8965D01*
X35811Y9060D01*
X35749Y9150D01*
X35680Y9234D01*
X35604Y9312D01*
X35521Y9383D01*
X35432Y9447D01*
X35338Y9502D01*
X35240Y9549D01*
X35138Y9588D01*
X35033Y9617D01*
X34926Y9637D01*
X34817Y9648D01*
X34709Y9649D01*
X34600Y9640D01*
X34493Y9623D01*
X34387Y9596D01*
X34284Y9559D01*
X34185Y9514D01*
X34090Y9461D01*
X34000Y9399D01*
X33916Y9330D01*
X33838Y9254D01*
X33767Y9171D01*
X33703Y9082D01*
X33648Y8988D01*
X33601Y8890D01*
X33562Y8788D01*
X33533Y8683D01*
X33513Y8576D01*
X33502Y8467D01*
X33501Y8359D01*
X33510Y8250D01*
X33527Y8143D01*
X33554Y8037D01*
X33591Y7934D01*
X33636Y7835D01*
X33689Y7740D01*
X33751Y7650D01*
X33820Y7566D01*
X33896Y7488D01*
X33979Y7417D01*
X34000Y7401D01*
G54D10*
X35200Y8400D02*
X35198Y8439D01*
X35193Y8478D01*
X35184Y8516D01*
X35172Y8553D01*
X35157Y8590D01*
X35139Y8624D01*
X35118Y8658D01*
X35094Y8689D01*
X35068Y8718D01*
X35039Y8744D01*
X35008Y8768D01*
X34975Y8789D01*
X34940Y8807D01*
X34903Y8822D01*
X34866Y8834D01*
X34828Y8843D01*
X34789Y8848D01*
X34750Y8850D01*
X34300Y8400D02*
X34302Y8361D01*
X34307Y8322D01*
X34316Y8284D01*
X34328Y8247D01*
X34343Y8210D01*
X34361Y8176D01*
X34382Y8142D01*
X34406Y8111D01*
X34432Y8082D01*
X34461Y8056D01*
X34492Y8032D01*
X34526Y8011D01*
X34560Y7993D01*
X34597Y7978D01*
X34634Y7966D01*
X34672Y7957D01*
X34711Y7952D01*
X34750Y7950D01*
X35400Y8400D02*
X35397Y8456D01*
X35390Y8512D01*
X35377Y8568D01*
X35360Y8622D01*
X35339Y8674D01*
X35312Y8724D01*
X35282Y8772D01*
X35247Y8817D01*
X35209Y8859D01*
X35167Y8897D01*
X35122Y8932D01*
X35075Y8962D01*
X35024Y8989D01*
X34972Y9010D01*
X34918Y9027D01*
X34862Y9040D01*
X34806Y9047D01*
X34750Y9050D01*
X34100Y8400D02*
X34103Y8344D01*
X34110Y8288D01*
X34123Y8232D01*
X34140Y8178D01*
X34161Y8126D01*
X34188Y8076D01*
X34218Y8028D01*
X34253Y7983D01*
X34291Y7941D01*
X34333Y7903D01*
X34378Y7868D01*
X34426Y7838D01*
X34476Y7811D01*
X34528Y7790D01*
X34582Y7773D01*
X34638Y7760D01*
X34694Y7753D01*
X34750Y7750D01*
X35600Y8400D02*
X35596Y8474D01*
X35587Y8547D01*
X35571Y8619D01*
X35548Y8690D01*
X35520Y8759D01*
X35486Y8824D01*
X35446Y8887D01*
X35401Y8946D01*
X35351Y9001D01*
X35296Y9051D01*
X35237Y9096D01*
X35175Y9136D01*
X35109Y9170D01*
X35040Y9198D01*
X34969Y9221D01*
X34897Y9237D01*
X34824Y9246D01*
X34750Y9250D01*
X33900Y8400D02*
X33904Y8326D01*
X33913Y8253D01*
X33929Y8181D01*
X33952Y8110D01*
X33980Y8041D01*
X34014Y7976D01*
X34054Y7913D01*
X34099Y7854D01*
X34149Y7799D01*
X34204Y7749D01*
X34263Y7704D01*
X34326Y7664D01*
X34391Y7630D01*
X34460Y7602D01*
X34531Y7579D01*
X34603Y7563D01*
X34676Y7554D01*
X34750Y7550D01*
G54D14*
X23500Y7380D02*
X25000Y7380D01*
G54D17*
X24957Y8400D02*
X24943Y8263D01*
X24903Y8131D01*
X24838Y8009D01*
X24751Y7902D01*
X24645Y7814D01*
X24523Y7749D01*
X24392Y7708D01*
X24254Y7694D01*
X24118Y7706D01*
X23986Y7745D01*
X23863Y7809D01*
X23756Y7895D01*
X23667Y8001D01*
X23601Y8122D01*
X23559Y8254D01*
X23544Y8391D01*
X23555Y8527D01*
X23593Y8660D01*
X23656Y8782D01*
X23742Y8891D01*
X23847Y8980D01*
X23967Y9047D01*
X24099Y9090D01*
X24236Y9106D01*
X24372Y9096D01*
X24505Y9059D01*
X24628Y8996D01*
X24737Y8911D01*
X24827Y8807D01*
X24895Y8687D01*
X24939Y8556D01*
X24956Y8419D01*
X24957Y8400D01*
G54D11*
X25000Y7401D02*
X25084Y7470D01*
X25162Y7546D01*
X25233Y7629D01*
X25297Y7718D01*
X25352Y7812D01*
X25399Y7910D01*
X25438Y8012D01*
X25467Y8117D01*
X25487Y8224D01*
X25498Y8333D01*
X25499Y8441D01*
X25490Y8550D01*
X25473Y8657D01*
X25446Y8763D01*
X25409Y8866D01*
X25364Y8965D01*
X25311Y9060D01*
X25249Y9150D01*
X25180Y9234D01*
X25104Y9312D01*
X25021Y9383D01*
X24932Y9447D01*
X24838Y9502D01*
X24740Y9549D01*
X24638Y9588D01*
X24533Y9617D01*
X24426Y9637D01*
X24317Y9648D01*
X24209Y9649D01*
X24100Y9640D01*
X23993Y9623D01*
X23887Y9596D01*
X23784Y9559D01*
X23685Y9514D01*
X23590Y9461D01*
X23500Y9399D01*
X23416Y9330D01*
X23338Y9254D01*
X23267Y9171D01*
X23203Y9082D01*
X23148Y8988D01*
X23101Y8890D01*
X23062Y8788D01*
X23033Y8683D01*
X23013Y8576D01*
X23002Y8467D01*
X23001Y8359D01*
X23010Y8250D01*
X23027Y8143D01*
X23054Y8037D01*
X23091Y7934D01*
X23136Y7835D01*
X23189Y7740D01*
X23251Y7650D01*
X23320Y7566D01*
X23396Y7488D01*
X23479Y7417D01*
X23500Y7401D01*
G54D10*
X24700Y8400D02*
X24698Y8439D01*
X24693Y8478D01*
X24684Y8516D01*
X24672Y8553D01*
X24657Y8590D01*
X24639Y8624D01*
X24618Y8658D01*
X24594Y8689D01*
X24568Y8718D01*
X24539Y8744D01*
X24508Y8768D01*
X24475Y8789D01*
X24440Y8807D01*
X24403Y8822D01*
X24366Y8834D01*
X24328Y8843D01*
X24289Y8848D01*
X24250Y8850D01*
X23800Y8400D02*
X23802Y8361D01*
X23807Y8322D01*
X23816Y8284D01*
X23828Y8247D01*
X23843Y8210D01*
X23861Y8176D01*
X23882Y8142D01*
X23906Y8111D01*
X23932Y8082D01*
X23961Y8056D01*
X23992Y8032D01*
X24026Y8011D01*
X24060Y7993D01*
X24097Y7978D01*
X24134Y7966D01*
X24172Y7957D01*
X24211Y7952D01*
X24250Y7950D01*
X24900Y8400D02*
X24897Y8456D01*
X24890Y8512D01*
X24877Y8568D01*
X24860Y8622D01*
X24839Y8674D01*
X24812Y8724D01*
X24782Y8772D01*
X24747Y8817D01*
X24709Y8859D01*
X24667Y8897D01*
X24622Y8932D01*
X24575Y8962D01*
X24524Y8989D01*
X24472Y9010D01*
X24418Y9027D01*
X24362Y9040D01*
X24306Y9047D01*
X24250Y9050D01*
X23600Y8400D02*
X23603Y8344D01*
X23610Y8288D01*
X23623Y8232D01*
X23640Y8178D01*
X23661Y8126D01*
X23688Y8076D01*
X23718Y8028D01*
X23753Y7983D01*
X23791Y7941D01*
X23833Y7903D01*
X23878Y7868D01*
X23926Y7838D01*
X23976Y7811D01*
X24028Y7790D01*
X24082Y7773D01*
X24138Y7760D01*
X24194Y7753D01*
X24250Y7750D01*
X25100Y8400D02*
X25096Y8474D01*
X25087Y8547D01*
X25071Y8619D01*
X25048Y8690D01*
X25020Y8759D01*
X24986Y8824D01*
X24946Y8887D01*
X24901Y8946D01*
X24851Y9001D01*
X24796Y9051D01*
X24737Y9096D01*
X24675Y9136D01*
X24609Y9170D01*
X24540Y9198D01*
X24469Y9221D01*
X24397Y9237D01*
X24324Y9246D01*
X24250Y9250D01*
X23400Y8400D02*
X23404Y8326D01*
X23413Y8253D01*
X23429Y8181D01*
X23452Y8110D01*
X23480Y8041D01*
X23514Y7976D01*
X23554Y7913D01*
X23599Y7854D01*
X23649Y7799D01*
X23704Y7749D01*
X23763Y7704D01*
X23826Y7664D01*
X23891Y7630D01*
X23960Y7602D01*
X24031Y7579D01*
X24103Y7563D01*
X24176Y7554D01*
X24250Y7550D01*
G54D14*
X7750Y7380D02*
X9250Y7380D01*
G54D17*
X9207Y8400D02*
X9193Y8263D01*
X9153Y8131D01*
X9088Y8009D01*
X9001Y7902D01*
X8895Y7814D01*
X8773Y7749D01*
X8642Y7708D01*
X8504Y7694D01*
X8368Y7706D01*
X8236Y7745D01*
X8113Y7809D01*
X8006Y7895D01*
X7917Y8001D01*
X7851Y8122D01*
X7809Y8254D01*
X7794Y8391D01*
X7805Y8527D01*
X7843Y8660D01*
X7906Y8782D01*
X7992Y8891D01*
X8097Y8980D01*
X8217Y9047D01*
X8349Y9090D01*
X8486Y9106D01*
X8622Y9096D01*
X8755Y9059D01*
X8878Y8996D01*
X8987Y8911D01*
X9077Y8807D01*
X9145Y8687D01*
X9189Y8556D01*
X9206Y8419D01*
X9207Y8400D01*
G54D11*
X9250Y7401D02*
X9334Y7470D01*
X9412Y7546D01*
X9483Y7629D01*
X9547Y7718D01*
X9602Y7812D01*
X9649Y7910D01*
X9688Y8012D01*
X9717Y8117D01*
X9737Y8224D01*
X9748Y8333D01*
X9749Y8441D01*
X9740Y8550D01*
X9723Y8657D01*
X9696Y8763D01*
X9659Y8866D01*
X9614Y8965D01*
X9561Y9060D01*
X9499Y9150D01*
X9430Y9234D01*
X9354Y9312D01*
X9271Y9383D01*
X9182Y9447D01*
X9088Y9502D01*
X8990Y9549D01*
X8888Y9588D01*
X8783Y9617D01*
X8676Y9637D01*
X8567Y9648D01*
X8459Y9649D01*
X8350Y9640D01*
X8243Y9623D01*
X8137Y9596D01*
X8034Y9559D01*
X7935Y9514D01*
X7840Y9461D01*
X7750Y9399D01*
X7666Y9330D01*
X7588Y9254D01*
X7517Y9171D01*
X7453Y9082D01*
X7398Y8988D01*
X7351Y8890D01*
X7312Y8788D01*
X7283Y8683D01*
X7263Y8576D01*
X7252Y8467D01*
X7251Y8359D01*
X7260Y8250D01*
X7277Y8143D01*
X7304Y8037D01*
X7341Y7934D01*
X7386Y7835D01*
X7439Y7740D01*
X7501Y7650D01*
X7570Y7566D01*
X7646Y7488D01*
X7729Y7417D01*
X7750Y7401D01*
G54D10*
X8950Y8400D02*
X8948Y8439D01*
X8943Y8478D01*
X8934Y8516D01*
X8922Y8553D01*
X8907Y8590D01*
X8889Y8624D01*
X8868Y8658D01*
X8844Y8689D01*
X8818Y8718D01*
X8789Y8744D01*
X8758Y8768D01*
X8725Y8789D01*
X8690Y8807D01*
X8653Y8822D01*
X8616Y8834D01*
X8578Y8843D01*
X8539Y8848D01*
X8500Y8850D01*
X8050Y8400D02*
X8052Y8361D01*
X8057Y8322D01*
X8066Y8284D01*
X8078Y8247D01*
X8093Y8210D01*
X8111Y8176D01*
X8132Y8142D01*
X8156Y8111D01*
X8182Y8082D01*
X8211Y8056D01*
X8242Y8032D01*
X8276Y8011D01*
X8310Y7993D01*
X8347Y7978D01*
X8384Y7966D01*
X8422Y7957D01*
X8461Y7952D01*
X8500Y7950D01*
X9150Y8400D02*
X9147Y8456D01*
X9140Y8512D01*
X9127Y8568D01*
X9110Y8622D01*
X9089Y8674D01*
X9062Y8724D01*
X9032Y8772D01*
X8997Y8817D01*
X8959Y8859D01*
X8917Y8897D01*
X8872Y8932D01*
X8825Y8962D01*
X8774Y8989D01*
X8722Y9010D01*
X8668Y9027D01*
X8612Y9040D01*
X8556Y9047D01*
X8500Y9050D01*
X7850Y8400D02*
X7853Y8344D01*
X7860Y8288D01*
X7873Y8232D01*
X7890Y8178D01*
X7911Y8126D01*
X7938Y8076D01*
X7968Y8028D01*
X8003Y7983D01*
X8041Y7941D01*
X8083Y7903D01*
X8128Y7868D01*
X8176Y7838D01*
X8226Y7811D01*
X8278Y7790D01*
X8332Y7773D01*
X8388Y7760D01*
X8444Y7753D01*
X8500Y7750D01*
X9350Y8400D02*
X9346Y8474D01*
X9337Y8547D01*
X9321Y8619D01*
X9298Y8690D01*
X9270Y8759D01*
X9236Y8824D01*
X9196Y8887D01*
X9151Y8946D01*
X9101Y9001D01*
X9046Y9051D01*
X8987Y9096D01*
X8925Y9136D01*
X8859Y9170D01*
X8790Y9198D01*
X8719Y9221D01*
X8647Y9237D01*
X8574Y9246D01*
X8500Y9250D01*
X7650Y8400D02*
X7654Y8326D01*
X7663Y8253D01*
X7679Y8181D01*
X7702Y8110D01*
X7730Y8041D01*
X7764Y7976D01*
X7804Y7913D01*
X7849Y7854D01*
X7899Y7799D01*
X7954Y7749D01*
X8013Y7704D01*
X8076Y7664D01*
X8141Y7630D01*
X8210Y7602D01*
X8281Y7579D01*
X8353Y7563D01*
X8426Y7554D01*
X8500Y7550D01*
G54D14*
X13000Y7380D02*
X14500Y7380D01*
G54D17*
X14457Y8400D02*
X14443Y8263D01*
X14403Y8131D01*
X14338Y8009D01*
X14251Y7902D01*
X14145Y7814D01*
X14023Y7749D01*
X13892Y7708D01*
X13754Y7694D01*
X13618Y7706D01*
X13486Y7745D01*
X13363Y7809D01*
X13256Y7895D01*
X13167Y8001D01*
X13101Y8122D01*
X13059Y8254D01*
X13044Y8391D01*
X13055Y8527D01*
X13093Y8660D01*
X13156Y8782D01*
X13242Y8891D01*
X13347Y8980D01*
X13467Y9047D01*
X13599Y9090D01*
X13736Y9106D01*
X13872Y9096D01*
X14005Y9059D01*
X14128Y8996D01*
X14237Y8911D01*
X14327Y8807D01*
X14395Y8687D01*
X14439Y8556D01*
X14456Y8419D01*
X14457Y8400D01*
G54D11*
X14500Y7401D02*
X14584Y7470D01*
X14662Y7546D01*
X14733Y7629D01*
X14797Y7718D01*
X14852Y7812D01*
X14899Y7910D01*
X14938Y8012D01*
X14967Y8117D01*
X14987Y8224D01*
X14998Y8333D01*
X14999Y8441D01*
X14990Y8550D01*
X14973Y8657D01*
X14946Y8763D01*
X14909Y8866D01*
X14864Y8965D01*
X14811Y9060D01*
X14749Y9150D01*
X14680Y9234D01*
X14604Y9312D01*
X14521Y9383D01*
X14432Y9447D01*
X14338Y9502D01*
X14240Y9549D01*
X14138Y9588D01*
X14033Y9617D01*
X13926Y9637D01*
X13817Y9648D01*
X13709Y9649D01*
X13600Y9640D01*
X13493Y9623D01*
X13387Y9596D01*
X13284Y9559D01*
X13185Y9514D01*
X13090Y9461D01*
X13000Y9399D01*
X12916Y9330D01*
X12838Y9254D01*
X12767Y9171D01*
X12703Y9082D01*
X12648Y8988D01*
X12601Y8890D01*
X12562Y8788D01*
X12533Y8683D01*
X12513Y8576D01*
X12502Y8467D01*
X12501Y8359D01*
X12510Y8250D01*
X12527Y8143D01*
X12554Y8037D01*
X12591Y7934D01*
X12636Y7835D01*
X12689Y7740D01*
X12751Y7650D01*
X12820Y7566D01*
X12896Y7488D01*
X12979Y7417D01*
X13000Y7401D01*
G54D10*
X14200Y8400D02*
X14198Y8439D01*
X14193Y8478D01*
X14184Y8516D01*
X14172Y8553D01*
X14157Y8590D01*
X14139Y8624D01*
X14118Y8658D01*
X14094Y8689D01*
X14068Y8718D01*
X14039Y8744D01*
X14008Y8768D01*
X13975Y8789D01*
X13940Y8807D01*
X13903Y8822D01*
X13866Y8834D01*
X13828Y8843D01*
X13789Y8848D01*
X13750Y8850D01*
X13300Y8400D02*
X13302Y8361D01*
X13307Y8322D01*
X13316Y8284D01*
X13328Y8247D01*
X13343Y8210D01*
X13361Y8176D01*
X13382Y8142D01*
X13406Y8111D01*
X13432Y8082D01*
X13461Y8056D01*
X13492Y8032D01*
X13526Y8011D01*
X13560Y7993D01*
X13597Y7978D01*
X13634Y7966D01*
X13672Y7957D01*
X13711Y7952D01*
X13750Y7950D01*
X14400Y8400D02*
X14397Y8456D01*
X14390Y8512D01*
X14377Y8568D01*
X14360Y8622D01*
X14339Y8674D01*
X14312Y8724D01*
X14282Y8772D01*
X14247Y8817D01*
X14209Y8859D01*
X14167Y8897D01*
X14122Y8932D01*
X14075Y8962D01*
X14024Y8989D01*
X13972Y9010D01*
X13918Y9027D01*
X13862Y9040D01*
X13806Y9047D01*
X13750Y9050D01*
X13100Y8400D02*
X13103Y8344D01*
X13110Y8288D01*
X13123Y8232D01*
X13140Y8178D01*
X13161Y8126D01*
X13188Y8076D01*
X13218Y8028D01*
X13253Y7983D01*
X13291Y7941D01*
X13333Y7903D01*
X13378Y7868D01*
X13426Y7838D01*
X13476Y7811D01*
X13528Y7790D01*
X13582Y7773D01*
X13638Y7760D01*
X13694Y7753D01*
X13750Y7750D01*
X14600Y8400D02*
X14596Y8474D01*
X14587Y8547D01*
X14571Y8619D01*
X14548Y8690D01*
X14520Y8759D01*
X14486Y8824D01*
X14446Y8887D01*
X14401Y8946D01*
X14351Y9001D01*
X14296Y9051D01*
X14237Y9096D01*
X14175Y9136D01*
X14109Y9170D01*
X14040Y9198D01*
X13969Y9221D01*
X13897Y9237D01*
X13824Y9246D01*
X13750Y9250D01*
X12900Y8400D02*
X12904Y8326D01*
X12913Y8253D01*
X12929Y8181D01*
X12952Y8110D01*
X12980Y8041D01*
X13014Y7976D01*
X13054Y7913D01*
X13099Y7854D01*
X13149Y7799D01*
X13204Y7749D01*
X13263Y7704D01*
X13326Y7664D01*
X13391Y7630D01*
X13460Y7602D01*
X13531Y7579D01*
X13603Y7563D01*
X13676Y7554D01*
X13750Y7550D01*
G54D14*
X18250Y7380D02*
X19750Y7380D01*
G54D17*
X19707Y8400D02*
X19693Y8263D01*
X19653Y8131D01*
X19588Y8009D01*
X19501Y7902D01*
X19395Y7814D01*
X19273Y7749D01*
X19142Y7708D01*
X19004Y7694D01*
X18868Y7706D01*
X18736Y7745D01*
X18613Y7809D01*
X18506Y7895D01*
X18417Y8001D01*
X18351Y8122D01*
X18309Y8254D01*
X18294Y8391D01*
X18305Y8527D01*
X18343Y8660D01*
X18406Y8782D01*
X18492Y8891D01*
X18597Y8980D01*
X18717Y9047D01*
X18849Y9090D01*
X18986Y9106D01*
X19122Y9096D01*
X19255Y9059D01*
X19378Y8996D01*
X19487Y8911D01*
X19577Y8807D01*
X19645Y8687D01*
X19689Y8556D01*
X19706Y8419D01*
X19707Y8400D01*
G54D11*
X19750Y7401D02*
X19834Y7470D01*
X19912Y7546D01*
X19983Y7629D01*
X20047Y7718D01*
X20102Y7812D01*
X20149Y7910D01*
X20188Y8012D01*
X20217Y8117D01*
X20237Y8224D01*
X20248Y8333D01*
X20249Y8441D01*
X20240Y8550D01*
X20223Y8657D01*
X20196Y8763D01*
X20159Y8866D01*
X20114Y8965D01*
X20061Y9060D01*
X19999Y9150D01*
X19930Y9234D01*
X19854Y9312D01*
X19771Y9383D01*
X19682Y9447D01*
X19588Y9502D01*
X19490Y9549D01*
X19388Y9588D01*
X19283Y9617D01*
X19176Y9637D01*
X19067Y9648D01*
X18959Y9649D01*
X18850Y9640D01*
X18743Y9623D01*
X18637Y9596D01*
X18534Y9559D01*
X18435Y9514D01*
X18340Y9461D01*
X18250Y9399D01*
X18166Y9330D01*
X18088Y9254D01*
X18017Y9171D01*
X17953Y9082D01*
X17898Y8988D01*
X17851Y8890D01*
X17812Y8788D01*
X17783Y8683D01*
X17763Y8576D01*
X17752Y8467D01*
X17751Y8359D01*
X17760Y8250D01*
X17777Y8143D01*
X17804Y8037D01*
X17841Y7934D01*
X17886Y7835D01*
X17939Y7740D01*
X18001Y7650D01*
X18070Y7566D01*
X18146Y7488D01*
X18229Y7417D01*
X18250Y7401D01*
G54D10*
X19450Y8400D02*
X19448Y8439D01*
X19443Y8478D01*
X19434Y8516D01*
X19422Y8553D01*
X19407Y8590D01*
X19389Y8624D01*
X19368Y8658D01*
X19344Y8689D01*
X19318Y8718D01*
X19289Y8744D01*
X19258Y8768D01*
X19225Y8789D01*
X19190Y8807D01*
X19153Y8822D01*
X19116Y8834D01*
X19078Y8843D01*
X19039Y8848D01*
X19000Y8850D01*
X18550Y8400D02*
X18552Y8361D01*
X18557Y8322D01*
X18566Y8284D01*
X18578Y8247D01*
X18593Y8210D01*
X18611Y8176D01*
X18632Y8142D01*
X18656Y8111D01*
X18682Y8082D01*
X18711Y8056D01*
X18742Y8032D01*
X18776Y8011D01*
X18810Y7993D01*
X18847Y7978D01*
X18884Y7966D01*
X18922Y7957D01*
X18961Y7952D01*
X19000Y7950D01*
X19650Y8400D02*
X19647Y8456D01*
X19640Y8512D01*
X19627Y8568D01*
X19610Y8622D01*
X19589Y8674D01*
X19562Y8724D01*
X19532Y8772D01*
X19497Y8817D01*
X19459Y8859D01*
X19417Y8897D01*
X19372Y8932D01*
X19325Y8962D01*
X19274Y8989D01*
X19222Y9010D01*
X19168Y9027D01*
X19112Y9040D01*
X19056Y9047D01*
X19000Y9050D01*
X18350Y8400D02*
X18353Y8344D01*
X18360Y8288D01*
X18373Y8232D01*
X18390Y8178D01*
X18411Y8126D01*
X18438Y8076D01*
X18468Y8028D01*
X18503Y7983D01*
X18541Y7941D01*
X18583Y7903D01*
X18628Y7868D01*
X18676Y7838D01*
X18726Y7811D01*
X18778Y7790D01*
X18832Y7773D01*
X18888Y7760D01*
X18944Y7753D01*
X19000Y7750D01*
X19850Y8400D02*
X19846Y8474D01*
X19837Y8547D01*
X19821Y8619D01*
X19798Y8690D01*
X19770Y8759D01*
X19736Y8824D01*
X19696Y8887D01*
X19651Y8946D01*
X19601Y9001D01*
X19546Y9051D01*
X19487Y9096D01*
X19425Y9136D01*
X19359Y9170D01*
X19290Y9198D01*
X19219Y9221D01*
X19147Y9237D01*
X19074Y9246D01*
X19000Y9250D01*
X18150Y8400D02*
X18154Y8326D01*
X18163Y8253D01*
X18179Y8181D01*
X18202Y8110D01*
X18230Y8041D01*
X18264Y7976D01*
X18304Y7913D01*
X18349Y7854D01*
X18399Y7799D01*
X18454Y7749D01*
X18513Y7704D01*
X18576Y7664D01*
X18641Y7630D01*
X18710Y7602D01*
X18781Y7579D01*
X18853Y7563D01*
X18926Y7554D01*
X19000Y7550D01*
G54D14*
X28750Y7380D02*
X30250Y7380D01*
G54D17*
X30207Y8400D02*
X30193Y8263D01*
X30153Y8131D01*
X30088Y8009D01*
X30001Y7902D01*
X29895Y7814D01*
X29773Y7749D01*
X29642Y7708D01*
X29504Y7694D01*
X29368Y7706D01*
X29236Y7745D01*
X29113Y7809D01*
X29006Y7895D01*
X28917Y8001D01*
X28851Y8122D01*
X28809Y8254D01*
X28794Y8391D01*
X28805Y8527D01*
X28843Y8660D01*
X28906Y8782D01*
X28992Y8891D01*
X29097Y8980D01*
X29217Y9047D01*
X29349Y9090D01*
X29486Y9106D01*
X29622Y9096D01*
X29755Y9059D01*
X29878Y8996D01*
X29987Y8911D01*
X30077Y8807D01*
X30145Y8687D01*
X30189Y8556D01*
X30206Y8419D01*
X30207Y8400D01*
G54D11*
X30250Y7401D02*
X30334Y7470D01*
X30412Y7546D01*
X30483Y7629D01*
X30547Y7718D01*
X30602Y7812D01*
X30649Y7910D01*
X30688Y8012D01*
X30717Y8117D01*
X30737Y8224D01*
X30748Y8333D01*
X30749Y8441D01*
X30740Y8550D01*
X30723Y8657D01*
X30696Y8763D01*
X30659Y8866D01*
X30614Y8965D01*
X30561Y9060D01*
X30499Y9150D01*
X30430Y9234D01*
X30354Y9312D01*
X30271Y9383D01*
X30182Y9447D01*
X30088Y9502D01*
X29990Y9549D01*
X29888Y9588D01*
X29783Y9617D01*
X29676Y9637D01*
X29567Y9648D01*
X29459Y9649D01*
X29350Y9640D01*
X29243Y9623D01*
X29137Y9596D01*
X29034Y9559D01*
X28935Y9514D01*
X28840Y9461D01*
X28750Y9399D01*
X28666Y9330D01*
X28588Y9254D01*
X28517Y9171D01*
X28453Y9082D01*
X28398Y8988D01*
X28351Y8890D01*
X28312Y8788D01*
X28283Y8683D01*
X28263Y8576D01*
X28252Y8467D01*
X28251Y8359D01*
X28260Y8250D01*
X28277Y8143D01*
X28304Y8037D01*
X28341Y7934D01*
X28386Y7835D01*
X28439Y7740D01*
X28501Y7650D01*
X28570Y7566D01*
X28646Y7488D01*
X28729Y7417D01*
X28750Y7401D01*
G54D10*
X29950Y8400D02*
X29948Y8439D01*
X29943Y8478D01*
X29934Y8516D01*
X29922Y8553D01*
X29907Y8590D01*
X29889Y8624D01*
X29868Y8658D01*
X29844Y8689D01*
X29818Y8718D01*
X29789Y8744D01*
X29758Y8768D01*
X29725Y8789D01*
X29690Y8807D01*
X29653Y8822D01*
X29616Y8834D01*
X29578Y8843D01*
X29539Y8848D01*
X29500Y8850D01*
X29050Y8400D02*
X29052Y8361D01*
X29057Y8322D01*
X29066Y8284D01*
X29078Y8247D01*
X29093Y8210D01*
X29111Y8176D01*
X29132Y8142D01*
X29156Y8111D01*
X29182Y8082D01*
X29211Y8056D01*
X29242Y8032D01*
X29276Y8011D01*
X29310Y7993D01*
X29347Y7978D01*
X29384Y7966D01*
X29422Y7957D01*
X29461Y7952D01*
X29500Y7950D01*
X30150Y8400D02*
X30147Y8456D01*
X30140Y8512D01*
X30127Y8568D01*
X30110Y8622D01*
X30089Y8674D01*
X30062Y8724D01*
X30032Y8772D01*
X29997Y8817D01*
X29959Y8859D01*
X29917Y8897D01*
X29872Y8932D01*
X29825Y8962D01*
X29774Y8989D01*
X29722Y9010D01*
X29668Y9027D01*
X29612Y9040D01*
X29556Y9047D01*
X29500Y9050D01*
X28850Y8400D02*
X28853Y8344D01*
X28860Y8288D01*
X28873Y8232D01*
X28890Y8178D01*
X28911Y8126D01*
X28938Y8076D01*
X28968Y8028D01*
X29003Y7983D01*
X29041Y7941D01*
X29083Y7903D01*
X29128Y7868D01*
X29176Y7838D01*
X29226Y7811D01*
X29278Y7790D01*
X29332Y7773D01*
X29388Y7760D01*
X29444Y7753D01*
X29500Y7750D01*
X30350Y8400D02*
X30346Y8474D01*
X30337Y8547D01*
X30321Y8619D01*
X30298Y8690D01*
X30270Y8759D01*
X30236Y8824D01*
X30196Y8887D01*
X30151Y8946D01*
X30101Y9001D01*
X30046Y9051D01*
X29987Y9096D01*
X29925Y9136D01*
X29859Y9170D01*
X29790Y9198D01*
X29719Y9221D01*
X29647Y9237D01*
X29574Y9246D01*
X29500Y9250D01*
X28650Y8400D02*
X28654Y8326D01*
X28663Y8253D01*
X28679Y8181D01*
X28702Y8110D01*
X28730Y8041D01*
X28764Y7976D01*
X28804Y7913D01*
X28849Y7854D01*
X28899Y7799D01*
X28954Y7749D01*
X29013Y7704D01*
X29076Y7664D01*
X29141Y7630D01*
X29210Y7602D01*
X29281Y7579D01*
X29353Y7563D01*
X29426Y7554D01*
X29500Y7550D01*
G54D14*
X44500Y7380D02*
X46000Y7380D01*
G54D17*
X45957Y8400D02*
X45943Y8263D01*
X45903Y8131D01*
X45838Y8009D01*
X45751Y7902D01*
X45645Y7814D01*
X45523Y7749D01*
X45392Y7708D01*
X45254Y7694D01*
X45118Y7706D01*
X44986Y7745D01*
X44863Y7809D01*
X44756Y7895D01*
X44667Y8001D01*
X44601Y8122D01*
X44559Y8254D01*
X44544Y8391D01*
X44555Y8527D01*
X44593Y8660D01*
X44656Y8782D01*
X44742Y8891D01*
X44847Y8980D01*
X44967Y9047D01*
X45099Y9090D01*
X45236Y9106D01*
X45372Y9096D01*
X45505Y9059D01*
X45628Y8996D01*
X45737Y8911D01*
X45827Y8807D01*
X45895Y8687D01*
X45939Y8556D01*
X45956Y8419D01*
X45957Y8400D01*
G54D11*
X46000Y7401D02*
X46084Y7470D01*
X46162Y7546D01*
X46233Y7629D01*
X46297Y7718D01*
X46352Y7812D01*
X46399Y7910D01*
X46438Y8012D01*
X46467Y8117D01*
X46487Y8224D01*
X46498Y8333D01*
X46499Y8441D01*
X46490Y8550D01*
X46473Y8657D01*
X46446Y8763D01*
X46409Y8866D01*
X46364Y8965D01*
X46311Y9060D01*
X46249Y9150D01*
X46180Y9234D01*
X46104Y9312D01*
X46021Y9383D01*
X45932Y9447D01*
X45838Y9502D01*
X45740Y9549D01*
X45638Y9588D01*
X45533Y9617D01*
X45426Y9637D01*
X45317Y9648D01*
X45209Y9649D01*
X45100Y9640D01*
X44993Y9623D01*
X44887Y9596D01*
X44784Y9559D01*
X44685Y9514D01*
X44590Y9461D01*
X44500Y9399D01*
X44416Y9330D01*
X44338Y9254D01*
X44267Y9171D01*
X44203Y9082D01*
X44148Y8988D01*
X44101Y8890D01*
X44062Y8788D01*
X44033Y8683D01*
X44013Y8576D01*
X44002Y8467D01*
X44001Y8359D01*
X44010Y8250D01*
X44027Y8143D01*
X44054Y8037D01*
X44091Y7934D01*
X44136Y7835D01*
X44189Y7740D01*
X44251Y7650D01*
X44320Y7566D01*
X44396Y7488D01*
X44479Y7417D01*
X44500Y7401D01*
G54D10*
X45700Y8400D02*
X45698Y8439D01*
X45693Y8478D01*
X45684Y8516D01*
X45672Y8553D01*
X45657Y8590D01*
X45639Y8624D01*
X45618Y8658D01*
X45594Y8689D01*
X45568Y8718D01*
X45539Y8744D01*
X45508Y8768D01*
X45475Y8789D01*
X45440Y8807D01*
X45403Y8822D01*
X45366Y8834D01*
X45328Y8843D01*
X45289Y8848D01*
X45250Y8850D01*
X44800Y8400D02*
X44802Y8361D01*
X44807Y8322D01*
X44816Y8284D01*
X44828Y8247D01*
X44843Y8210D01*
X44861Y8176D01*
X44882Y8142D01*
X44906Y8111D01*
X44932Y8082D01*
X44961Y8056D01*
X44992Y8032D01*
X45026Y8011D01*
X45060Y7993D01*
X45097Y7978D01*
X45134Y7966D01*
X45172Y7957D01*
X45211Y7952D01*
X45250Y7950D01*
X45900Y8400D02*
X45897Y8456D01*
X45890Y8512D01*
X45877Y8568D01*
X45860Y8622D01*
X45839Y8674D01*
X45812Y8724D01*
X45782Y8772D01*
X45747Y8817D01*
X45709Y8859D01*
X45667Y8897D01*
X45622Y8932D01*
X45575Y8962D01*
X45524Y8989D01*
X45472Y9010D01*
X45418Y9027D01*
X45362Y9040D01*
X45306Y9047D01*
X45250Y9050D01*
X44600Y8400D02*
X44603Y8344D01*
X44610Y8288D01*
X44623Y8232D01*
X44640Y8178D01*
X44661Y8126D01*
X44688Y8076D01*
X44718Y8028D01*
X44753Y7983D01*
X44791Y7941D01*
X44833Y7903D01*
X44878Y7868D01*
X44926Y7838D01*
X44976Y7811D01*
X45028Y7790D01*
X45082Y7773D01*
X45138Y7760D01*
X45194Y7753D01*
X45250Y7750D01*
X46100Y8400D02*
X46096Y8474D01*
X46087Y8547D01*
X46071Y8619D01*
X46048Y8690D01*
X46020Y8759D01*
X45986Y8824D01*
X45946Y8887D01*
X45901Y8946D01*
X45851Y9001D01*
X45796Y9051D01*
X45737Y9096D01*
X45675Y9136D01*
X45609Y9170D01*
X45540Y9198D01*
X45469Y9221D01*
X45397Y9237D01*
X45324Y9246D01*
X45250Y9250D01*
X44400Y8400D02*
X44404Y8326D01*
X44413Y8253D01*
X44429Y8181D01*
X44452Y8110D01*
X44480Y8041D01*
X44514Y7976D01*
X44554Y7913D01*
X44599Y7854D01*
X44649Y7799D01*
X44704Y7749D01*
X44763Y7704D01*
X44826Y7664D01*
X44891Y7630D01*
X44960Y7602D01*
X45031Y7579D01*
X45103Y7563D01*
X45176Y7554D01*
X45250Y7550D01*
G54D18*
X20750Y12500D02*
X23250Y12500D01*
X20750Y14500D02*
X23250Y14500D01*
X24250Y13500D02*
X24246Y13587D01*
X24234Y13673D01*
X24215Y13758D01*
X24189Y13842D01*
X24156Y13922D01*
X24116Y13999D01*
X24069Y14073D01*
X24016Y14142D01*
X23957Y14207D01*
X23892Y14266D01*
X23823Y14319D01*
X23750Y14366D01*
X23672Y14406D01*
X23592Y14439D01*
X23508Y14465D01*
X23423Y14484D01*
X23337Y14496D01*
X23250Y14500D01*
X23250Y12500D02*
X23337Y12504D01*
X23423Y12516D01*
X23508Y12535D01*
X23592Y12561D01*
X23672Y12594D01*
X23750Y12634D01*
X23823Y12681D01*
X23892Y12734D01*
X23957Y12793D01*
X24016Y12858D01*
X24069Y12927D01*
X24116Y13001D01*
X24156Y13078D01*
X24189Y13158D01*
X24215Y13242D01*
X24234Y13327D01*
X24246Y13413D01*
X24250Y13500D01*
X20750Y14500D02*
X20663Y14496D01*
X20577Y14484D01*
X20492Y14465D01*
X20408Y14439D01*
X20328Y14406D01*
X20251Y14366D01*
X20177Y14319D01*
X20108Y14266D01*
X20043Y14207D01*
X19984Y14142D01*
X19931Y14073D01*
X19884Y13999D01*
X19844Y13922D01*
X19811Y13842D01*
X19785Y13758D01*
X19766Y13673D01*
X19754Y13587D01*
X19750Y13500D01*
X19750Y13500D02*
X19754Y13413D01*
X19766Y13327D01*
X19785Y13242D01*
X19811Y13158D01*
X19844Y13078D01*
X19884Y13001D01*
X19931Y12927D01*
X19984Y12858D01*
X20043Y12793D01*
X20108Y12734D01*
X20177Y12681D01*
X20251Y12634D01*
X20328Y12594D01*
X20408Y12561D01*
X20492Y12535D01*
X20577Y12516D01*
X20663Y12504D01*
X20750Y12500D01*
G54D11*
X16500Y10000D02*
X16500Y10500D01*
X16500Y10500D02*
X17500Y10500D01*
X17500Y10500D02*
X17500Y10000D01*
X16000Y10000D02*
X16000Y14000D01*
X16000Y14000D02*
X18000Y14000D01*
X18000Y14000D02*
X18000Y10000D01*
X18000Y10000D02*
X16000Y10000D01*
X5000Y10500D02*
X4500Y10500D01*
X4500Y10500D02*
X4500Y11500D01*
X4500Y11500D02*
X5000Y11500D01*
X5000Y10000D02*
X1000Y10000D01*
X1000Y10000D02*
X1000Y12000D01*
X1000Y12000D02*
X5000Y12000D01*
X5000Y12000D02*
X5000Y10000D01*
G54D13*
X9500Y18000D02*
X24500Y18000D01*
X24500Y18000D02*
X24500Y16000D01*
X24500Y16000D02*
X9500Y16000D01*
X9500Y16000D02*
X9500Y18000D01*
X9500Y17500D02*
X10000Y17500D01*
X10000Y17500D02*
X10000Y16500D01*
X10000Y16500D02*
X9500Y16500D01*
G54D12*
X34500Y12000D02*
X34500Y15000D01*
X34500Y15000D02*
X35500Y15000D01*
X35500Y15000D02*
X35500Y12000D01*
X35500Y12000D02*
X34500Y12000D01*
X34500Y14750D02*
X35500Y14750D01*
X35500Y14500D02*
X34500Y14500D01*
X35000Y12000D02*
X35000Y11500D01*
X35000Y15000D02*
X35000Y15500D01*
X28500Y12000D02*
X28500Y15000D01*
X28500Y15000D02*
X29500Y15000D01*
X29500Y15000D02*
X29500Y12000D01*
X29500Y12000D02*
X28500Y12000D01*
X28500Y14750D02*
X29500Y14750D01*
X29500Y14500D02*
X28500Y14500D01*
X29000Y12000D02*
X29000Y11500D01*
X29000Y15000D02*
X29000Y15500D01*
X6500Y9980D02*
X6500Y8000D01*
X6500Y8000D02*
X5500Y8000D01*
X5500Y8000D02*
X5500Y10000D01*
X5500Y10000D02*
X6500Y10000D01*
X6250Y10000D02*
X6500Y9750D01*
X5000Y8480D02*
X5000Y6500D01*
X5000Y6500D02*
X4000Y6500D01*
X4000Y6500D02*
X4000Y8500D01*
X4000Y8500D02*
X5000Y8500D01*
X4750Y8500D02*
X5000Y8250D01*
X24000Y11980D02*
X24000Y10000D01*
X24000Y10000D02*
X23000Y10000D01*
X23000Y10000D02*
X23000Y12000D01*
X23000Y12000D02*
X24000Y12000D01*
X23750Y12000D02*
X24000Y11750D01*
X22500Y11980D02*
X22500Y10000D01*
X22500Y10000D02*
X21500Y10000D01*
X21500Y10000D02*
X21500Y12000D01*
X21500Y12000D02*
X22500Y12000D01*
X22250Y12000D02*
X22500Y11750D01*
X2500Y8480D02*
X2500Y6500D01*
X2500Y6500D02*
X1500Y6500D01*
X1500Y6500D02*
X1500Y8500D01*
X1500Y8500D02*
X2500Y8500D01*
X2250Y8500D02*
X2500Y8250D01*
X2480Y13500D02*
X500Y13500D01*
X500Y13500D02*
X500Y14500D01*
X500Y14500D02*
X2500Y14500D01*
X2500Y14500D02*
X2500Y13500D01*
X2500Y13750D02*
X2250Y13500D01*
X14500Y14480D02*
X14500Y12500D01*
X14500Y12500D02*
X13500Y12500D01*
X13500Y12500D02*
X13500Y14500D01*
X13500Y14500D02*
X14500Y14500D01*
X14250Y14500D02*
X14500Y14250D01*
X2750Y6520D02*
X2750Y8500D01*
X2750Y8500D02*
X3750Y8500D01*
X3750Y8500D02*
X3750Y6500D01*
X3750Y6500D02*
X2750Y6500D01*
X3000Y6500D02*
X2750Y6750D01*
X3020Y14500D02*
X5000Y14500D01*
X5000Y14500D02*
X5000Y13500D01*
X5000Y13500D02*
X3000Y13500D01*
X3000Y13500D02*
X3000Y14500D01*
X3000Y14250D02*
X3250Y14500D01*
X21000Y11980D02*
X21000Y10000D01*
X21000Y10000D02*
X20000Y10000D01*
X20000Y10000D02*
X20000Y12000D01*
X20000Y12000D02*
X21000Y12000D01*
X20750Y12000D02*
X21000Y11750D01*
X39500Y18980D02*
X39500Y17000D01*
X39500Y17000D02*
X38500Y17000D01*
X38500Y17000D02*
X38500Y19000D01*
X38500Y19000D02*
X39500Y19000D01*
X39250Y19000D02*
X39500Y18750D01*
X14500Y11980D02*
X14500Y10000D01*
X14500Y10000D02*
X13500Y10000D01*
X13500Y10000D02*
X13500Y12000D01*
X13500Y12000D02*
X14500Y12000D01*
X14250Y12000D02*
X14500Y11750D01*
X4000Y1500D02*
X4000Y1900D01*
X4000Y1900D02*
X3600Y1900D01*
X3600Y1900D02*
X3600Y5100D01*
X3600Y5100D02*
X4400Y5100D01*
X4400Y5100D02*
X4400Y1900D01*
X4400Y1900D02*
X4000Y1900D01*
X3800Y1900D02*
X3600Y2100D01*
X4000Y5500D02*
X4000Y5100D01*
G54D14*
X9600Y12500D02*
X9569Y12190D01*
X9479Y11891D01*
X9332Y11615D01*
X9135Y11373D01*
X8894Y11174D01*
X8620Y11026D01*
X8321Y10933D01*
X8011Y10901D01*
X7701Y10929D01*
X7401Y11017D01*
X7124Y11162D01*
X6881Y11357D01*
X6680Y11597D01*
X6530Y11870D01*
X6435Y12168D01*
X6401Y12478D01*
X6427Y12788D01*
X6513Y13088D01*
X6656Y13366D01*
X6850Y13611D01*
X7087Y13813D01*
X7360Y13966D01*
X7657Y14062D01*
X7967Y14099D01*
X8277Y14075D01*
X8578Y13991D01*
X8857Y13850D01*
X9103Y13658D01*
X9307Y13422D01*
X9461Y13150D01*
X9560Y12854D01*
X9599Y12544D01*
X9600Y12500D01*
G54D13*
X2650Y18250D02*
X2632Y18076D01*
X2582Y17908D01*
X2499Y17752D01*
X2388Y17616D01*
X2253Y17504D01*
X2098Y17421D01*
X1930Y17369D01*
X1756Y17351D01*
X1582Y17366D01*
X1413Y17416D01*
X1258Y17497D01*
X1121Y17607D01*
X1008Y17742D01*
X923Y17896D01*
X870Y18063D01*
X851Y18238D01*
X865Y18412D01*
X914Y18581D01*
X994Y18737D01*
X1103Y18875D01*
X1237Y18989D01*
X1390Y19074D01*
X1557Y19129D01*
X1732Y19149D01*
X1906Y19136D01*
X2075Y19089D01*
X2232Y19009D01*
X2370Y18901D01*
X2485Y18768D01*
X2572Y18616D01*
X2627Y18449D01*
X2649Y18275D01*
X2650Y18250D01*
X49150Y18250D02*
X49132Y18076D01*
X49082Y17908D01*
X48999Y17752D01*
X48888Y17616D01*
X48753Y17504D01*
X48598Y17421D01*
X48430Y17369D01*
X48256Y17351D01*
X48082Y17366D01*
X47913Y17416D01*
X47758Y17497D01*
X47621Y17607D01*
X47508Y17742D01*
X47423Y17896D01*
X47370Y18063D01*
X47351Y18238D01*
X47365Y18412D01*
X47414Y18581D01*
X47494Y18737D01*
X47603Y18875D01*
X47737Y18989D01*
X47890Y19074D01*
X48057Y19129D01*
X48232Y19149D01*
X48406Y19136D01*
X48575Y19089D01*
X48732Y19009D01*
X48870Y18901D01*
X48985Y18768D01*
X49072Y18616D01*
X49127Y18449D01*
X49149Y18275D01*
X49150Y18250D01*
X2650Y1750D02*
X2632Y1576D01*
X2582Y1408D01*
X2499Y1252D01*
X2388Y1116D01*
X2253Y1004D01*
X2098Y921D01*
X1930Y869D01*
X1756Y851D01*
X1582Y866D01*
X1413Y916D01*
X1258Y997D01*
X1121Y1107D01*
X1008Y1242D01*
X923Y1396D01*
X870Y1563D01*
X851Y1738D01*
X865Y1912D01*
X914Y2081D01*
X994Y2237D01*
X1103Y2375D01*
X1237Y2489D01*
X1390Y2574D01*
X1557Y2629D01*
X1732Y2649D01*
X1906Y2636D01*
X2075Y2589D01*
X2232Y2509D01*
X2370Y2401D01*
X2485Y2268D01*
X2572Y2116D01*
X2627Y1949D01*
X2649Y1775D01*
X2650Y1750D01*
X49150Y2000D02*
X49132Y1826D01*
X49082Y1658D01*
X48999Y1502D01*
X48888Y1366D01*
X48753Y1254D01*
X48598Y1171D01*
X48430Y1119D01*
X48256Y1101D01*
X48082Y1116D01*
X47913Y1166D01*
X47758Y1247D01*
X47621Y1357D01*
X47508Y1492D01*
X47423Y1646D01*
X47370Y1813D01*
X47351Y1988D01*
X47365Y2162D01*
X47414Y2331D01*
X47494Y2487D01*
X47603Y2625D01*
X47737Y2739D01*
X47890Y2824D01*
X48057Y2879D01*
X48232Y2899D01*
X48406Y2886D01*
X48575Y2839D01*
X48732Y2759D01*
X48870Y2651D01*
X48985Y2518D01*
X49072Y2366D01*
X49127Y2199D01*
X49149Y2025D01*
X49150Y2000D01*
G54D19*
X35900Y23050D02*
X31100Y23050D01*
X31100Y23050D02*
X31100Y16350D01*
X31100Y16350D02*
X35900Y16350D01*
X35900Y16350D02*
X35900Y23050D01*
G54D12*
X2743Y3894D02*
X2457Y3694D01*
X2743Y3551D02*
X2143Y3551D01*
X2143Y3779D01*
X2171Y3837D01*
X2200Y3865D01*
X2257Y3894D01*
X2343Y3894D01*
X2400Y3865D01*
X2429Y3837D01*
X2457Y3779D01*
X2457Y3551D01*
X2143Y4065D02*
X2743Y4265D01*
X2143Y4465D01*
X2743Y4979D02*
X2743Y4636D01*
X2743Y4808D02*
X2143Y4808D01*
X2229Y4751D01*
X2286Y4693D01*
X2314Y4636D01*
G54D11*
X8467Y4607D02*
X8524Y4588D01*
X8620Y4588D01*
X8658Y4607D01*
X8677Y4626D01*
X8696Y4664D01*
X8696Y4702D01*
X8677Y4740D01*
X8658Y4760D01*
X8620Y4779D01*
X8543Y4798D01*
X8505Y4817D01*
X8486Y4836D01*
X8467Y4874D01*
X8467Y4912D01*
X8486Y4950D01*
X8505Y4969D01*
X8543Y4988D01*
X8639Y4988D01*
X8696Y4969D01*
X8829Y4988D02*
X8924Y4588D01*
X9001Y4874D01*
X9077Y4588D01*
X9172Y4988D01*
X9305Y4950D02*
X9324Y4969D01*
X9362Y4988D01*
X9458Y4988D01*
X9496Y4969D01*
X9515Y4950D01*
X9534Y4912D01*
X9534Y4874D01*
X9515Y4817D01*
X9286Y4588D01*
X9534Y4588D01*
G54D12*
G54D11*
X13717Y4607D02*
X13774Y4588D01*
X13870Y4588D01*
X13908Y4607D01*
X13927Y4626D01*
X13946Y4664D01*
X13946Y4702D01*
X13927Y4740D01*
X13908Y4760D01*
X13870Y4779D01*
X13793Y4798D01*
X13755Y4817D01*
X13736Y4836D01*
X13717Y4874D01*
X13717Y4912D01*
X13736Y4950D01*
X13755Y4969D01*
X13793Y4988D01*
X13889Y4988D01*
X13946Y4969D01*
X14079Y4988D02*
X14174Y4588D01*
X14251Y4874D01*
X14327Y4588D01*
X14422Y4988D01*
X14536Y4988D02*
X14784Y4988D01*
X14650Y4836D01*
X14708Y4836D01*
X14746Y4817D01*
X14765Y4798D01*
X14784Y4760D01*
X14784Y4664D01*
X14765Y4626D01*
X14746Y4607D01*
X14708Y4588D01*
X14593Y4588D01*
X14555Y4607D01*
X14536Y4626D01*
G54D12*
G54D11*
X18967Y4607D02*
X19024Y4588D01*
X19120Y4588D01*
X19158Y4607D01*
X19177Y4626D01*
X19196Y4664D01*
X19196Y4702D01*
X19177Y4740D01*
X19158Y4760D01*
X19120Y4779D01*
X19043Y4798D01*
X19005Y4817D01*
X18986Y4836D01*
X18967Y4874D01*
X18967Y4912D01*
X18986Y4950D01*
X19005Y4969D01*
X19043Y4988D01*
X19139Y4988D01*
X19196Y4969D01*
X19329Y4988D02*
X19424Y4588D01*
X19501Y4874D01*
X19577Y4588D01*
X19672Y4988D01*
X19996Y4855D02*
X19996Y4588D01*
X19900Y5007D02*
X19805Y4721D01*
X20053Y4721D01*
G54D12*
G54D11*
X24217Y4857D02*
X24274Y4838D01*
X24370Y4838D01*
X24408Y4857D01*
X24427Y4876D01*
X24446Y4914D01*
X24446Y4952D01*
X24427Y4990D01*
X24408Y5010D01*
X24370Y5029D01*
X24293Y5048D01*
X24255Y5067D01*
X24236Y5086D01*
X24217Y5124D01*
X24217Y5162D01*
X24236Y5200D01*
X24255Y5219D01*
X24293Y5238D01*
X24389Y5238D01*
X24446Y5219D01*
X24579Y5238D02*
X24674Y4838D01*
X24751Y5124D01*
X24827Y4838D01*
X24922Y5238D01*
X25265Y5238D02*
X25074Y5238D01*
X25055Y5048D01*
X25074Y5067D01*
X25112Y5086D01*
X25208Y5086D01*
X25246Y5067D01*
X25265Y5048D01*
X25284Y5010D01*
X25284Y4914D01*
X25265Y4876D01*
X25246Y4857D01*
X25208Y4838D01*
X25112Y4838D01*
X25074Y4857D01*
X25055Y4876D01*
G54D12*
G54D11*
X29467Y4857D02*
X29524Y4838D01*
X29620Y4838D01*
X29658Y4857D01*
X29677Y4876D01*
X29696Y4914D01*
X29696Y4952D01*
X29677Y4990D01*
X29658Y5010D01*
X29620Y5029D01*
X29543Y5048D01*
X29505Y5067D01*
X29486Y5086D01*
X29467Y5124D01*
X29467Y5162D01*
X29486Y5200D01*
X29505Y5219D01*
X29543Y5238D01*
X29639Y5238D01*
X29696Y5219D01*
X29829Y5238D02*
X29924Y4838D01*
X30001Y5124D01*
X30077Y4838D01*
X30172Y5238D01*
X30496Y5238D02*
X30419Y5238D01*
X30381Y5219D01*
X30362Y5200D01*
X30324Y5143D01*
X30305Y5067D01*
X30305Y4914D01*
X30324Y4876D01*
X30343Y4857D01*
X30381Y4838D01*
X30458Y4838D01*
X30496Y4857D01*
X30515Y4876D01*
X30534Y4914D01*
X30534Y5010D01*
X30515Y5048D01*
X30496Y5067D01*
X30458Y5086D01*
X30381Y5086D01*
X30343Y5067D01*
X30324Y5048D01*
X30305Y5010D01*
G54D12*
G54D11*
X46026Y14357D02*
X46083Y14338D01*
X46179Y14338D01*
X46217Y14357D01*
X46236Y14376D01*
X46255Y14414D01*
X46255Y14452D01*
X46236Y14490D01*
X46217Y14510D01*
X46179Y14529D01*
X46102Y14548D01*
X46064Y14567D01*
X46045Y14586D01*
X46026Y14624D01*
X46026Y14662D01*
X46045Y14700D01*
X46064Y14719D01*
X46102Y14738D01*
X46198Y14738D01*
X46255Y14719D01*
X46388Y14738D02*
X46483Y14338D01*
X46560Y14624D01*
X46636Y14338D01*
X46731Y14738D01*
X47093Y14338D02*
X46864Y14338D01*
X46978Y14338D02*
X46978Y14738D01*
X46940Y14681D01*
X46902Y14643D01*
X46864Y14624D01*
X47474Y14338D02*
X47245Y14338D01*
X47359Y14338D02*
X47359Y14738D01*
X47321Y14681D01*
X47283Y14643D01*
X47245Y14624D01*
G54D12*
G54D11*
X40776Y14357D02*
X40833Y14338D01*
X40929Y14338D01*
X40967Y14357D01*
X40986Y14376D01*
X41005Y14414D01*
X41005Y14452D01*
X40986Y14490D01*
X40967Y14510D01*
X40929Y14529D01*
X40852Y14548D01*
X40814Y14567D01*
X40795Y14586D01*
X40776Y14624D01*
X40776Y14662D01*
X40795Y14700D01*
X40814Y14719D01*
X40852Y14738D01*
X40948Y14738D01*
X41005Y14719D01*
X41138Y14738D02*
X41233Y14338D01*
X41310Y14624D01*
X41386Y14338D01*
X41481Y14738D01*
X41843Y14338D02*
X41614Y14338D01*
X41728Y14338D02*
X41728Y14738D01*
X41690Y14681D01*
X41652Y14643D01*
X41614Y14624D01*
X42090Y14738D02*
X42129Y14738D01*
X42167Y14719D01*
X42186Y14700D01*
X42205Y14662D01*
X42224Y14586D01*
X42224Y14490D01*
X42205Y14414D01*
X42186Y14376D01*
X42167Y14357D01*
X42129Y14338D01*
X42090Y14338D01*
X42052Y14357D01*
X42033Y14376D01*
X42014Y14414D01*
X41995Y14490D01*
X41995Y14586D01*
X42014Y14662D01*
X42033Y14700D01*
X42052Y14719D01*
X42090Y14738D01*
G54D12*
G54D11*
X45217Y4857D02*
X45274Y4838D01*
X45370Y4838D01*
X45408Y4857D01*
X45427Y4876D01*
X45446Y4914D01*
X45446Y4952D01*
X45427Y4990D01*
X45408Y5010D01*
X45370Y5029D01*
X45293Y5048D01*
X45255Y5067D01*
X45236Y5086D01*
X45217Y5124D01*
X45217Y5162D01*
X45236Y5200D01*
X45255Y5219D01*
X45293Y5238D01*
X45389Y5238D01*
X45446Y5219D01*
X45579Y5238D02*
X45674Y4838D01*
X45751Y5124D01*
X45827Y4838D01*
X45922Y5238D01*
X46093Y4838D02*
X46169Y4838D01*
X46208Y4857D01*
X46227Y4876D01*
X46265Y4933D01*
X46284Y5010D01*
X46284Y5162D01*
X46265Y5200D01*
X46246Y5219D01*
X46208Y5238D01*
X46131Y5238D01*
X46093Y5219D01*
X46074Y5200D01*
X46055Y5162D01*
X46055Y5067D01*
X46074Y5029D01*
X46093Y5010D01*
X46131Y4990D01*
X46208Y4990D01*
X46246Y5010D01*
X46265Y5029D01*
X46284Y5067D01*
G54D12*
G54D11*
X39967Y4857D02*
X40024Y4838D01*
X40120Y4838D01*
X40158Y4857D01*
X40177Y4876D01*
X40196Y4914D01*
X40196Y4952D01*
X40177Y4990D01*
X40158Y5010D01*
X40120Y5029D01*
X40043Y5048D01*
X40005Y5067D01*
X39986Y5086D01*
X39967Y5124D01*
X39967Y5162D01*
X39986Y5200D01*
X40005Y5219D01*
X40043Y5238D01*
X40139Y5238D01*
X40196Y5219D01*
X40329Y5238D02*
X40424Y4838D01*
X40501Y5124D01*
X40577Y4838D01*
X40672Y5238D01*
X40881Y5067D02*
X40843Y5086D01*
X40824Y5105D01*
X40805Y5143D01*
X40805Y5162D01*
X40824Y5200D01*
X40843Y5219D01*
X40881Y5238D01*
X40958Y5238D01*
X40996Y5219D01*
X41015Y5200D01*
X41034Y5162D01*
X41034Y5143D01*
X41015Y5105D01*
X40996Y5086D01*
X40958Y5067D01*
X40881Y5067D01*
X40843Y5048D01*
X40824Y5029D01*
X40805Y4990D01*
X40805Y4914D01*
X40824Y4876D01*
X40843Y4857D01*
X40881Y4838D01*
X40958Y4838D01*
X40996Y4857D01*
X41015Y4876D01*
X41034Y4914D01*
X41034Y4990D01*
X41015Y5029D01*
X40996Y5048D01*
X40958Y5067D01*
G54D12*
G54D11*
X34717Y4607D02*
X34774Y4588D01*
X34870Y4588D01*
X34908Y4607D01*
X34927Y4626D01*
X34946Y4664D01*
X34946Y4702D01*
X34927Y4740D01*
X34908Y4760D01*
X34870Y4779D01*
X34793Y4798D01*
X34755Y4817D01*
X34736Y4836D01*
X34717Y4874D01*
X34717Y4912D01*
X34736Y4950D01*
X34755Y4969D01*
X34793Y4988D01*
X34889Y4988D01*
X34946Y4969D01*
X35079Y4988D02*
X35174Y4588D01*
X35251Y4874D01*
X35327Y4588D01*
X35422Y4988D01*
X35536Y4988D02*
X35803Y4988D01*
X35631Y4588D01*
G54D12*
G54D20*
X42275Y17724D02*
X41951Y17582D01*
X42275Y17480D02*
X41594Y17480D01*
X41594Y17643D01*
X41627Y17684D01*
X41659Y17704D01*
X41724Y17724D01*
X41821Y17724D01*
X41886Y17704D01*
X41918Y17684D01*
X41951Y17643D01*
X41951Y17480D01*
X42275Y18132D02*
X42275Y17888D01*
X42275Y18010D02*
X41594Y18010D01*
X41691Y17969D01*
X41756Y17928D01*
X41789Y17888D01*
X41594Y18397D02*
X41594Y18438D01*
X41627Y18479D01*
X41659Y18499D01*
X41724Y18520D01*
X41854Y18540D01*
X42016Y18540D01*
X42145Y18520D01*
X42210Y18499D01*
X42243Y18479D01*
X42275Y18438D01*
X42275Y18397D01*
X42243Y18357D01*
X42210Y18336D01*
X42145Y18316D01*
X42016Y18296D01*
X41854Y18296D01*
X41724Y18316D01*
X41659Y18336D01*
X41627Y18357D01*
X41594Y18397D01*
G54D12*
G54D14*
X26223Y13179D02*
X25961Y13012D01*
X26223Y12893D02*
X25673Y12893D01*
X25673Y13084D01*
X25699Y13131D01*
X25725Y13155D01*
X25777Y13179D01*
X25856Y13179D01*
X25908Y13155D01*
X25935Y13131D01*
X25961Y13084D01*
X25961Y12893D01*
X26223Y13655D02*
X26223Y13369D01*
X26223Y13512D02*
X25673Y13512D01*
X25751Y13464D01*
X25804Y13417D01*
X25830Y13369D01*
X25725Y13845D02*
X25699Y13869D01*
X25673Y13917D01*
X25673Y14036D01*
X25699Y14083D01*
X25725Y14107D01*
X25777Y14131D01*
X25830Y14131D01*
X25908Y14107D01*
X26223Y13821D01*
X26223Y14131D01*
X27723Y13179D02*
X27461Y13012D01*
X27723Y12893D02*
X27173Y12893D01*
X27173Y13084D01*
X27199Y13131D01*
X27225Y13155D01*
X27277Y13179D01*
X27356Y13179D01*
X27408Y13155D01*
X27435Y13131D01*
X27461Y13084D01*
X27461Y12893D01*
X27723Y13655D02*
X27723Y13369D01*
X27723Y13512D02*
X27173Y13512D01*
X27251Y13464D01*
X27304Y13417D01*
X27330Y13369D01*
X27173Y13821D02*
X27173Y14131D01*
X27382Y13964D01*
X27382Y14036D01*
X27408Y14083D01*
X27435Y14107D01*
X27487Y14131D01*
X27618Y14131D01*
X27670Y14107D01*
X27696Y14083D01*
X27723Y14036D01*
X27723Y13893D01*
X27696Y13845D01*
X27670Y13821D01*
X36723Y13179D02*
X36461Y13012D01*
X36723Y12893D02*
X36173Y12893D01*
X36173Y13084D01*
X36199Y13131D01*
X36225Y13155D01*
X36277Y13179D01*
X36356Y13179D01*
X36408Y13155D01*
X36435Y13131D01*
X36461Y13084D01*
X36461Y12893D01*
X36723Y13655D02*
X36723Y13369D01*
X36723Y13512D02*
X36173Y13512D01*
X36251Y13464D01*
X36304Y13417D01*
X36330Y13369D01*
X36723Y14131D02*
X36723Y13845D01*
X36723Y13988D02*
X36173Y13988D01*
X36251Y13940D01*
X36304Y13893D01*
X36330Y13845D01*
X33723Y13417D02*
X33461Y13250D01*
X33723Y13131D02*
X33173Y13131D01*
X33173Y13322D01*
X33199Y13369D01*
X33225Y13393D01*
X33277Y13417D01*
X33356Y13417D01*
X33408Y13393D01*
X33435Y13369D01*
X33461Y13322D01*
X33461Y13131D01*
X33723Y13893D02*
X33723Y13607D01*
X33723Y13750D02*
X33173Y13750D01*
X33251Y13702D01*
X33304Y13655D01*
X33330Y13607D01*
X12723Y11917D02*
X12461Y11750D01*
X12723Y11631D02*
X12173Y11631D01*
X12173Y11822D01*
X12199Y11869D01*
X12225Y11893D01*
X12277Y11917D01*
X12356Y11917D01*
X12408Y11893D01*
X12435Y11869D01*
X12461Y11822D01*
X12461Y11631D01*
X12723Y12155D02*
X12723Y12250D01*
X12696Y12298D01*
X12670Y12322D01*
X12592Y12369D01*
X12487Y12393D01*
X12277Y12393D01*
X12225Y12369D01*
X12199Y12345D01*
X12173Y12298D01*
X12173Y12202D01*
X12199Y12155D01*
X12225Y12131D01*
X12277Y12107D01*
X12408Y12107D01*
X12461Y12131D01*
X12487Y12155D01*
X12513Y12202D01*
X12513Y12298D01*
X12487Y12345D01*
X12461Y12369D01*
X12408Y12393D01*
X11223Y11679D02*
X10961Y11512D01*
X11223Y11393D02*
X10673Y11393D01*
X10673Y11584D01*
X10699Y11631D01*
X10725Y11655D01*
X10777Y11679D01*
X10856Y11679D01*
X10908Y11655D01*
X10935Y11631D01*
X10961Y11584D01*
X10961Y11393D01*
X11223Y12155D02*
X11223Y11869D01*
X11223Y12012D02*
X10673Y12012D01*
X10751Y11964D01*
X10804Y11917D01*
X10830Y11869D01*
X10856Y12583D02*
X11223Y12583D01*
X10646Y12464D02*
X11039Y12345D01*
X11039Y12655D01*
X7973Y16917D02*
X7711Y16750D01*
X7973Y16631D02*
X7423Y16631D01*
X7423Y16822D01*
X7449Y16869D01*
X7475Y16893D01*
X7527Y16917D01*
X7606Y16917D01*
X7658Y16893D01*
X7685Y16869D01*
X7711Y16822D01*
X7711Y16631D01*
X7658Y17202D02*
X7632Y17155D01*
X7606Y17131D01*
X7554Y17107D01*
X7527Y17107D01*
X7475Y17131D01*
X7449Y17155D01*
X7423Y17202D01*
X7423Y17298D01*
X7449Y17345D01*
X7475Y17369D01*
X7527Y17393D01*
X7554Y17393D01*
X7606Y17369D01*
X7632Y17345D01*
X7658Y17298D01*
X7658Y17202D01*
X7685Y17155D01*
X7711Y17131D01*
X7763Y17107D01*
X7868Y17107D01*
X7920Y17131D01*
X7946Y17155D01*
X7973Y17202D01*
X7973Y17298D01*
X7946Y17345D01*
X7920Y17369D01*
X7868Y17393D01*
X7763Y17393D01*
X7711Y17369D01*
X7685Y17345D01*
X7658Y17298D01*
X2679Y15277D02*
X2512Y15539D01*
X2393Y15277D02*
X2393Y15827D01*
X2584Y15827D01*
X2631Y15801D01*
X2655Y15775D01*
X2679Y15723D01*
X2679Y15644D01*
X2655Y15592D01*
X2631Y15565D01*
X2584Y15539D01*
X2393Y15539D01*
X3155Y15277D02*
X2869Y15277D01*
X3012Y15277D02*
X3012Y15827D01*
X2964Y15749D01*
X2917Y15696D01*
X2869Y15670D01*
X3607Y15827D02*
X3369Y15827D01*
X3345Y15565D01*
X3369Y15592D01*
X3417Y15618D01*
X3536Y15618D01*
X3583Y15592D01*
X3607Y15565D01*
X3631Y15513D01*
X3631Y15382D01*
X3607Y15330D01*
X3583Y15304D01*
X3536Y15277D01*
X3417Y15277D01*
X3369Y15304D01*
X3345Y15330D01*
X6723Y16679D02*
X6461Y16512D01*
X6723Y16393D02*
X6173Y16393D01*
X6173Y16584D01*
X6199Y16631D01*
X6225Y16655D01*
X6277Y16679D01*
X6356Y16679D01*
X6408Y16655D01*
X6435Y16631D01*
X6461Y16584D01*
X6461Y16393D01*
X6723Y17155D02*
X6723Y16869D01*
X6723Y17012D02*
X6173Y17012D01*
X6251Y16964D01*
X6304Y16917D01*
X6330Y16869D01*
X6173Y17583D02*
X6173Y17488D01*
X6199Y17440D01*
X6225Y17417D01*
X6304Y17369D01*
X6408Y17345D01*
X6618Y17345D01*
X6670Y17369D01*
X6696Y17393D01*
X6723Y17440D01*
X6723Y17536D01*
X6696Y17583D01*
X6670Y17607D01*
X6618Y17631D01*
X6487Y17631D01*
X6435Y17607D01*
X6408Y17583D01*
X6382Y17536D01*
X6382Y17440D01*
X6408Y17393D01*
X6435Y17369D01*
X6487Y17345D01*
X32223Y13417D02*
X31961Y13250D01*
X32223Y13131D02*
X31673Y13131D01*
X31673Y13322D01*
X31699Y13369D01*
X31725Y13393D01*
X31777Y13417D01*
X31856Y13417D01*
X31908Y13393D01*
X31935Y13369D01*
X31961Y13322D01*
X31961Y13131D01*
X31725Y13607D02*
X31699Y13631D01*
X31673Y13679D01*
X31673Y13798D01*
X31699Y13845D01*
X31725Y13869D01*
X31777Y13893D01*
X31830Y13893D01*
X31908Y13869D01*
X32223Y13583D01*
X32223Y13893D01*
X30723Y13417D02*
X30461Y13250D01*
X30723Y13131D02*
X30173Y13131D01*
X30173Y13322D01*
X30199Y13369D01*
X30225Y13393D01*
X30277Y13417D01*
X30356Y13417D01*
X30408Y13393D01*
X30435Y13369D01*
X30461Y13322D01*
X30461Y13131D01*
X30173Y13583D02*
X30173Y13893D01*
X30382Y13726D01*
X30382Y13798D01*
X30408Y13845D01*
X30435Y13869D01*
X30487Y13893D01*
X30618Y13893D01*
X30670Y13869D01*
X30696Y13845D01*
X30723Y13798D01*
X30723Y13655D01*
X30696Y13607D01*
X30670Y13583D01*
X30012Y17867D02*
X30298Y17867D01*
X30355Y17847D01*
X30393Y17809D01*
X30412Y17752D01*
X30412Y17714D01*
X30050Y18038D02*
X30031Y18057D01*
X30012Y18095D01*
X30012Y18191D01*
X30031Y18229D01*
X30050Y18248D01*
X30088Y18267D01*
X30126Y18267D01*
X30183Y18248D01*
X30412Y18019D01*
X30412Y18267D01*
G54D21*
X41871Y8278D02*
X41571Y8278D01*
X41571Y8350D01*
X41586Y8393D01*
X41614Y8421D01*
X41643Y8436D01*
X41700Y8450D01*
X41743Y8450D01*
X41800Y8436D01*
X41829Y8421D01*
X41857Y8393D01*
X41871Y8350D01*
X41871Y8278D01*
X41571Y8550D02*
X41571Y8736D01*
X41686Y8636D01*
X41686Y8678D01*
X41700Y8707D01*
X41714Y8721D01*
X41743Y8736D01*
X41814Y8736D01*
X41843Y8721D01*
X41857Y8707D01*
X41871Y8678D01*
X41871Y8593D01*
X41857Y8564D01*
X41843Y8550D01*
X36621Y8278D02*
X36321Y8278D01*
X36321Y8350D01*
X36336Y8393D01*
X36364Y8421D01*
X36393Y8436D01*
X36450Y8450D01*
X36493Y8450D01*
X36550Y8436D01*
X36579Y8421D01*
X36607Y8393D01*
X36621Y8350D01*
X36621Y8278D01*
X36321Y8721D02*
X36321Y8578D01*
X36464Y8564D01*
X36450Y8578D01*
X36436Y8607D01*
X36436Y8678D01*
X36450Y8707D01*
X36464Y8721D01*
X36493Y8736D01*
X36564Y8736D01*
X36593Y8721D01*
X36607Y8707D01*
X36621Y8678D01*
X36621Y8607D01*
X36607Y8578D01*
X36593Y8564D01*
X26121Y8278D02*
X25821Y8278D01*
X25821Y8350D01*
X25836Y8393D01*
X25864Y8421D01*
X25893Y8436D01*
X25950Y8450D01*
X25993Y8450D01*
X26050Y8436D01*
X26079Y8421D01*
X26107Y8393D01*
X26121Y8350D01*
X26121Y8278D01*
X25821Y8550D02*
X25821Y8750D01*
X26121Y8621D01*
X10371Y8278D02*
X10071Y8278D01*
X10071Y8350D01*
X10086Y8393D01*
X10114Y8421D01*
X10143Y8436D01*
X10200Y8450D01*
X10243Y8450D01*
X10300Y8436D01*
X10329Y8421D01*
X10357Y8393D01*
X10371Y8350D01*
X10371Y8278D01*
X10371Y8593D02*
X10371Y8650D01*
X10357Y8678D01*
X10343Y8693D01*
X10300Y8721D01*
X10243Y8736D01*
X10129Y8736D01*
X10100Y8721D01*
X10086Y8707D01*
X10071Y8678D01*
X10071Y8621D01*
X10086Y8593D01*
X10100Y8578D01*
X10129Y8564D01*
X10200Y8564D01*
X10229Y8578D01*
X10243Y8593D01*
X10257Y8621D01*
X10257Y8678D01*
X10243Y8707D01*
X10229Y8721D01*
X10200Y8736D01*
X15621Y8135D02*
X15321Y8135D01*
X15321Y8207D01*
X15336Y8250D01*
X15364Y8278D01*
X15393Y8293D01*
X15450Y8307D01*
X15493Y8307D01*
X15550Y8293D01*
X15579Y8278D01*
X15607Y8250D01*
X15621Y8207D01*
X15621Y8135D01*
X15621Y8593D02*
X15621Y8421D01*
X15621Y8507D02*
X15321Y8507D01*
X15364Y8478D01*
X15393Y8450D01*
X15407Y8421D01*
X15321Y8779D02*
X15321Y8807D01*
X15336Y8836D01*
X15350Y8850D01*
X15379Y8864D01*
X15436Y8879D01*
X15507Y8879D01*
X15564Y8864D01*
X15593Y8850D01*
X15607Y8836D01*
X15621Y8807D01*
X15621Y8779D01*
X15607Y8750D01*
X15593Y8736D01*
X15564Y8721D01*
X15507Y8707D01*
X15436Y8707D01*
X15379Y8721D01*
X15350Y8736D01*
X15336Y8750D01*
X15321Y8779D01*
X20871Y8278D02*
X20571Y8278D01*
X20571Y8350D01*
X20586Y8393D01*
X20614Y8421D01*
X20643Y8436D01*
X20700Y8450D01*
X20743Y8450D01*
X20800Y8436D01*
X20829Y8421D01*
X20857Y8393D01*
X20871Y8350D01*
X20871Y8278D01*
X20700Y8621D02*
X20686Y8593D01*
X20671Y8578D01*
X20643Y8564D01*
X20629Y8564D01*
X20600Y8578D01*
X20586Y8593D01*
X20571Y8621D01*
X20571Y8678D01*
X20586Y8707D01*
X20600Y8721D01*
X20629Y8736D01*
X20643Y8736D01*
X20671Y8721D01*
X20686Y8707D01*
X20700Y8678D01*
X20700Y8621D01*
X20714Y8593D01*
X20729Y8578D01*
X20757Y8564D01*
X20814Y8564D01*
X20843Y8578D01*
X20857Y8593D01*
X20871Y8621D01*
X20871Y8678D01*
X20857Y8707D01*
X20843Y8721D01*
X20814Y8736D01*
X20757Y8736D01*
X20729Y8721D01*
X20714Y8707D01*
X20700Y8678D01*
X31371Y8278D02*
X31071Y8278D01*
X31071Y8350D01*
X31086Y8393D01*
X31114Y8421D01*
X31143Y8436D01*
X31200Y8450D01*
X31243Y8450D01*
X31300Y8436D01*
X31329Y8421D01*
X31357Y8393D01*
X31371Y8350D01*
X31371Y8278D01*
X31071Y8707D02*
X31071Y8650D01*
X31086Y8621D01*
X31100Y8607D01*
X31143Y8578D01*
X31200Y8564D01*
X31314Y8564D01*
X31343Y8578D01*
X31357Y8593D01*
X31371Y8621D01*
X31371Y8678D01*
X31357Y8707D01*
X31343Y8721D01*
X31314Y8736D01*
X31243Y8736D01*
X31214Y8721D01*
X31200Y8707D01*
X31186Y8678D01*
X31186Y8621D01*
X31200Y8593D01*
X31214Y8578D01*
X31243Y8564D01*
X47121Y8278D02*
X46821Y8278D01*
X46821Y8350D01*
X46836Y8393D01*
X46864Y8421D01*
X46893Y8436D01*
X46950Y8450D01*
X46993Y8450D01*
X47050Y8436D01*
X47079Y8421D01*
X47107Y8393D01*
X47121Y8350D01*
X47121Y8278D01*
X46921Y8707D02*
X47121Y8707D01*
X46807Y8636D02*
X47021Y8564D01*
X47021Y8750D01*
G54D12*
X18765Y14857D02*
X19165Y14257D01*
X19165Y14857D02*
X18765Y14257D01*
X19707Y14257D02*
X19364Y14257D01*
X19536Y14257D02*
X19536Y14857D01*
X19479Y14771D01*
X19421Y14714D01*
X19364Y14686D01*
G54D14*
X16657Y9798D02*
X16657Y9393D01*
X16679Y9345D01*
X16700Y9321D01*
X16743Y9298D01*
X16829Y9298D01*
X16871Y9321D01*
X16893Y9345D01*
X16914Y9393D01*
X16914Y9798D01*
X17364Y9298D02*
X17107Y9298D01*
X17235Y9298D02*
X17235Y9798D01*
X17192Y9726D01*
X17150Y9679D01*
X17107Y9655D01*
X5202Y10657D02*
X5607Y10657D01*
X5655Y10679D01*
X5679Y10700D01*
X5702Y10743D01*
X5702Y10829D01*
X5679Y10871D01*
X5655Y10893D01*
X5607Y10914D01*
X5202Y10914D01*
X5250Y11107D02*
X5226Y11128D01*
X5202Y11171D01*
X5202Y11278D01*
X5226Y11321D01*
X5250Y11342D01*
X5298Y11364D01*
X5345Y11364D01*
X5417Y11342D01*
X5702Y11085D01*
X5702Y11364D01*
G54D22*
X12061Y16757D02*
X12061Y17357D01*
X12532Y16814D02*
X12511Y16786D01*
X12447Y16757D01*
X12404Y16757D01*
X12339Y16786D01*
X12297Y16843D01*
X12275Y16900D01*
X12254Y17014D01*
X12254Y17100D01*
X12275Y17214D01*
X12297Y17271D01*
X12339Y17329D01*
X12404Y17357D01*
X12447Y17357D01*
X12511Y17329D01*
X12532Y17300D01*
X12961Y16757D02*
X12704Y16757D01*
X12832Y16757D02*
X12832Y17357D01*
X12789Y17271D01*
X12747Y17214D01*
X12704Y17186D01*
G54D12*
G54D14*
X35202Y13205D02*
X34702Y13205D01*
X34702Y13300D01*
X34726Y13358D01*
X34774Y13396D01*
X34821Y13415D01*
X34917Y13434D01*
X34988Y13434D01*
X35083Y13415D01*
X35131Y13396D01*
X35179Y13358D01*
X35202Y13300D01*
X35202Y13205D01*
X35202Y13815D02*
X35202Y13586D01*
X35202Y13700D02*
X34702Y13700D01*
X34774Y13662D01*
X34821Y13624D01*
X34845Y13586D01*
X29202Y13205D02*
X28702Y13205D01*
X28702Y13300D01*
X28726Y13358D01*
X28774Y13396D01*
X28821Y13415D01*
X28917Y13434D01*
X28988Y13434D01*
X29083Y13415D01*
X29131Y13396D01*
X29179Y13358D01*
X29202Y13300D01*
X29202Y13205D01*
X28750Y13586D02*
X28726Y13605D01*
X28702Y13643D01*
X28702Y13739D01*
X28726Y13777D01*
X28750Y13796D01*
X28798Y13815D01*
X28845Y13815D01*
X28917Y13796D01*
X29202Y13567D01*
X29202Y13815D01*
X7024Y8643D02*
X7043Y8624D01*
X7062Y8567D01*
X7062Y8529D01*
X7043Y8471D01*
X7005Y8433D01*
X6967Y8414D01*
X6890Y8395D01*
X6833Y8395D01*
X6757Y8414D01*
X6719Y8433D01*
X6681Y8471D01*
X6662Y8529D01*
X6662Y8567D01*
X6681Y8624D01*
X6700Y8643D01*
X7062Y9024D02*
X7062Y8795D01*
X7062Y8909D02*
X6662Y8909D01*
X6719Y8871D01*
X6757Y8833D01*
X6776Y8795D01*
X7062Y9405D02*
X7062Y9176D01*
X7062Y9290D02*
X6662Y9290D01*
X6719Y9252D01*
X6757Y9214D01*
X6776Y9176D01*
X5624Y6934D02*
X5643Y6915D01*
X5662Y6858D01*
X5662Y6820D01*
X5643Y6762D01*
X5605Y6724D01*
X5567Y6705D01*
X5490Y6686D01*
X5433Y6686D01*
X5357Y6705D01*
X5319Y6724D01*
X5281Y6762D01*
X5262Y6820D01*
X5262Y6858D01*
X5281Y6915D01*
X5300Y6934D01*
X5662Y7124D02*
X5662Y7200D01*
X5643Y7239D01*
X5624Y7258D01*
X5567Y7296D01*
X5490Y7315D01*
X5338Y7315D01*
X5300Y7296D01*
X5281Y7277D01*
X5262Y7239D01*
X5262Y7162D01*
X5281Y7124D01*
X5300Y7105D01*
X5338Y7086D01*
X5433Y7086D01*
X5471Y7105D01*
X5490Y7124D01*
X5510Y7162D01*
X5510Y7239D01*
X5490Y7277D01*
X5471Y7296D01*
X5433Y7315D01*
X24434Y11376D02*
X24415Y11357D01*
X24358Y11338D01*
X24320Y11338D01*
X24262Y11357D01*
X24224Y11395D01*
X24205Y11433D01*
X24186Y11510D01*
X24186Y11567D01*
X24205Y11643D01*
X24224Y11681D01*
X24262Y11719D01*
X24320Y11738D01*
X24358Y11738D01*
X24415Y11719D01*
X24434Y11700D01*
X24567Y11738D02*
X24815Y11738D01*
X24681Y11586D01*
X24739Y11586D01*
X24777Y11567D01*
X24796Y11548D01*
X24815Y11510D01*
X24815Y11414D01*
X24796Y11376D01*
X24777Y11357D01*
X24739Y11338D01*
X24624Y11338D01*
X24586Y11357D01*
X24567Y11376D01*
X21934Y9376D02*
X21915Y9357D01*
X21858Y9338D01*
X21820Y9338D01*
X21762Y9357D01*
X21724Y9395D01*
X21705Y9433D01*
X21686Y9510D01*
X21686Y9567D01*
X21705Y9643D01*
X21724Y9681D01*
X21762Y9719D01*
X21820Y9738D01*
X21858Y9738D01*
X21915Y9719D01*
X21934Y9700D01*
X22086Y9700D02*
X22105Y9719D01*
X22143Y9738D01*
X22239Y9738D01*
X22277Y9719D01*
X22296Y9700D01*
X22315Y9662D01*
X22315Y9624D01*
X22296Y9567D01*
X22067Y9338D01*
X22315Y9338D01*
X2743Y5876D02*
X2724Y5857D01*
X2667Y5838D01*
X2629Y5838D01*
X2571Y5857D01*
X2533Y5895D01*
X2514Y5933D01*
X2495Y6010D01*
X2495Y6067D01*
X2514Y6143D01*
X2533Y6181D01*
X2571Y6219D01*
X2629Y6238D01*
X2667Y6238D01*
X2724Y6219D01*
X2743Y6200D01*
X3124Y5838D02*
X2895Y5838D01*
X3009Y5838D02*
X3009Y6238D01*
X2971Y6181D01*
X2933Y6143D01*
X2895Y6124D01*
X3276Y6200D02*
X3295Y6219D01*
X3333Y6238D01*
X3429Y6238D01*
X3467Y6219D01*
X3486Y6200D01*
X3505Y6162D01*
X3505Y6124D01*
X3486Y6067D01*
X3257Y5838D01*
X3505Y5838D01*
X1743Y14626D02*
X1724Y14607D01*
X1667Y14588D01*
X1629Y14588D01*
X1571Y14607D01*
X1533Y14645D01*
X1514Y14683D01*
X1495Y14760D01*
X1495Y14817D01*
X1514Y14893D01*
X1533Y14931D01*
X1571Y14969D01*
X1629Y14988D01*
X1667Y14988D01*
X1724Y14969D01*
X1743Y14950D01*
X2124Y14588D02*
X1895Y14588D01*
X2009Y14588D02*
X2009Y14988D01*
X1971Y14931D01*
X1933Y14893D01*
X1895Y14874D01*
X2257Y14988D02*
X2505Y14988D01*
X2371Y14836D01*
X2429Y14836D01*
X2467Y14817D01*
X2486Y14798D01*
X2505Y14760D01*
X2505Y14664D01*
X2486Y14626D01*
X2467Y14607D01*
X2429Y14588D01*
X2314Y14588D01*
X2276Y14607D01*
X2257Y14626D01*
X15024Y13334D02*
X15043Y13315D01*
X15062Y13258D01*
X15062Y13220D01*
X15043Y13162D01*
X15005Y13124D01*
X14967Y13105D01*
X14890Y13086D01*
X14833Y13086D01*
X14757Y13105D01*
X14719Y13124D01*
X14681Y13162D01*
X14662Y13220D01*
X14662Y13258D01*
X14681Y13315D01*
X14700Y13334D01*
X14662Y13696D02*
X14662Y13505D01*
X14852Y13486D01*
X14833Y13505D01*
X14814Y13543D01*
X14814Y13639D01*
X14833Y13677D01*
X14852Y13696D01*
X14890Y13715D01*
X14986Y13715D01*
X15024Y13696D01*
X15043Y13677D01*
X15062Y13639D01*
X15062Y13543D01*
X15043Y13505D01*
X15024Y13486D01*
X1124Y7934D02*
X1143Y7915D01*
X1162Y7858D01*
X1162Y7820D01*
X1143Y7762D01*
X1105Y7724D01*
X1067Y7705D01*
X990Y7686D01*
X933Y7686D01*
X857Y7705D01*
X819Y7724D01*
X781Y7762D01*
X762Y7820D01*
X762Y7858D01*
X781Y7915D01*
X800Y7934D01*
X933Y8162D02*
X914Y8124D01*
X895Y8105D01*
X857Y8086D01*
X838Y8086D01*
X800Y8105D01*
X781Y8124D01*
X762Y8162D01*
X762Y8239D01*
X781Y8277D01*
X800Y8296D01*
X838Y8315D01*
X857Y8315D01*
X895Y8296D01*
X914Y8277D01*
X933Y8239D01*
X933Y8162D01*
X952Y8124D01*
X971Y8105D01*
X1010Y8086D01*
X1086Y8086D01*
X1124Y8105D01*
X1143Y8124D01*
X1162Y8162D01*
X1162Y8239D01*
X1143Y8277D01*
X1124Y8296D01*
X1086Y8315D01*
X1010Y8315D01*
X971Y8296D01*
X952Y8277D01*
X933Y8239D01*
X3243Y14626D02*
X3224Y14607D01*
X3167Y14588D01*
X3129Y14588D01*
X3071Y14607D01*
X3033Y14645D01*
X3014Y14683D01*
X2995Y14760D01*
X2995Y14817D01*
X3014Y14893D01*
X3033Y14931D01*
X3071Y14969D01*
X3129Y14988D01*
X3167Y14988D01*
X3224Y14969D01*
X3243Y14950D01*
X3624Y14588D02*
X3395Y14588D01*
X3509Y14588D02*
X3509Y14988D01*
X3471Y14931D01*
X3433Y14893D01*
X3395Y14874D01*
X3967Y14855D02*
X3967Y14588D01*
X3871Y15007D02*
X3776Y14721D01*
X4024Y14721D01*
X20434Y9376D02*
X20415Y9357D01*
X20358Y9338D01*
X20320Y9338D01*
X20262Y9357D01*
X20224Y9395D01*
X20205Y9433D01*
X20186Y9510D01*
X20186Y9567D01*
X20205Y9643D01*
X20224Y9681D01*
X20262Y9719D01*
X20320Y9738D01*
X20358Y9738D01*
X20415Y9719D01*
X20434Y9700D01*
X20567Y9738D02*
X20834Y9738D01*
X20662Y9338D01*
X38124Y17184D02*
X38143Y17165D01*
X38162Y17108D01*
X38162Y17070D01*
X38143Y17012D01*
X38105Y16974D01*
X38067Y16955D01*
X37990Y16936D01*
X37933Y16936D01*
X37857Y16955D01*
X37819Y16974D01*
X37781Y17012D01*
X37762Y17070D01*
X37762Y17108D01*
X37781Y17165D01*
X37800Y17184D01*
X38162Y17565D02*
X38162Y17336D01*
X38162Y17450D02*
X37762Y17450D01*
X37819Y17412D01*
X37857Y17374D01*
X37876Y17336D01*
X15024Y10834D02*
X15043Y10815D01*
X15062Y10758D01*
X15062Y10720D01*
X15043Y10662D01*
X15005Y10624D01*
X14967Y10605D01*
X14890Y10586D01*
X14833Y10586D01*
X14757Y10605D01*
X14719Y10624D01*
X14681Y10662D01*
X14662Y10720D01*
X14662Y10758D01*
X14681Y10815D01*
X14700Y10834D01*
X14662Y11177D02*
X14662Y11100D01*
X14681Y11062D01*
X14700Y11043D01*
X14757Y11005D01*
X14833Y10986D01*
X14986Y10986D01*
X15024Y11005D01*
X15043Y11024D01*
X15062Y11062D01*
X15062Y11139D01*
X15043Y11177D01*
X15024Y11196D01*
X14986Y11215D01*
X14890Y11215D01*
X14852Y11196D01*
X14833Y11177D01*
X14814Y11139D01*
X14814Y11062D01*
X14833Y11024D01*
X14852Y11005D01*
X14890Y10986D01*
G54D12*
X1993Y16286D02*
X2079Y16257D01*
X2222Y16257D01*
X2279Y16286D01*
X2308Y16314D01*
X2336Y16371D01*
X2336Y16429D01*
X2308Y16486D01*
X2279Y16514D01*
X2222Y16543D01*
X2108Y16571D01*
X2050Y16600D01*
X2022Y16629D01*
X1993Y16686D01*
X1993Y16743D01*
X2022Y16800D01*
X2050Y16829D01*
X2108Y16857D01*
X2250Y16857D01*
X2336Y16829D01*
X2593Y16257D02*
X2593Y16857D01*
X2821Y16857D01*
X2879Y16829D01*
X2907Y16800D01*
X2936Y16743D01*
X2936Y16657D01*
X2907Y16600D01*
X2879Y16571D01*
X2821Y16543D01*
X2593Y16543D01*
X3507Y16257D02*
X3164Y16257D01*
X3336Y16257D02*
X3336Y16857D01*
X3279Y16771D01*
X3221Y16714D01*
X3164Y16686D01*
X45679Y17529D02*
X45707Y17615D01*
X45736Y17643D01*
X45793Y17672D01*
X45879Y17672D01*
X45936Y17643D01*
X45964Y17615D01*
X45993Y17557D01*
X45993Y17329D01*
X45393Y17329D01*
X45393Y17529D01*
X45421Y17586D01*
X45450Y17615D01*
X45507Y17643D01*
X45564Y17643D01*
X45621Y17615D01*
X45650Y17586D01*
X45679Y17529D01*
X45679Y17329D01*
X45393Y17843D02*
X45393Y18186D01*
X45993Y18015D02*
X45393Y18015D01*
X45993Y18700D02*
X45993Y18357D01*
X45993Y18529D02*
X45393Y18529D01*
X45479Y18472D01*
X45536Y18414D01*
X45564Y18357D01*
G54D14*
X4223Y3417D02*
X3961Y3250D01*
X4223Y3131D02*
X3673Y3131D01*
X3673Y3322D01*
X3699Y3369D01*
X3725Y3393D01*
X3777Y3417D01*
X3856Y3417D01*
X3908Y3393D01*
X3935Y3369D01*
X3961Y3322D01*
X3961Y3131D01*
X3856Y3845D02*
X4223Y3845D01*
X3646Y3726D02*
X4039Y3607D01*
X4039Y3917D01*
X7324Y12275D02*
X7343Y12259D01*
X7362Y12209D01*
X7362Y12175D01*
X7343Y12125D01*
X7305Y12092D01*
X7267Y12075D01*
X7190Y12059D01*
X7133Y12059D01*
X7057Y12075D01*
X7019Y12092D01*
X6981Y12125D01*
X6962Y12175D01*
X6962Y12209D01*
X6981Y12259D01*
X7000Y12275D01*
X7362Y12609D02*
X7362Y12409D01*
X7362Y12509D02*
X6962Y12509D01*
X7019Y12475D01*
X7057Y12442D01*
X7076Y12409D01*
X6962Y12825D02*
X6962Y12858D01*
X6981Y12892D01*
X7000Y12908D01*
X7038Y12925D01*
X7114Y12942D01*
X7210Y12942D01*
X7286Y12925D01*
X7324Y12908D01*
X7343Y12892D01*
X7362Y12858D01*
X7362Y12825D01*
X7343Y12792D01*
X7324Y12775D01*
X7286Y12758D01*
X7210Y12742D01*
X7114Y12742D01*
X7038Y12758D01*
X7000Y12775D01*
X6981Y12792D01*
X6962Y12825D01*
G54D12*
X33300Y21857D02*
X33300Y21429D01*
X33272Y21343D01*
X33215Y21286D01*
X33129Y21257D01*
X33072Y21257D01*
X33900Y21257D02*
X33557Y21257D01*
X33729Y21257D02*
X33729Y21857D01*
X33672Y21771D01*
X33614Y21714D01*
X33557Y21686D01*
%LPC*%
G54D23*
X1000Y3750D03*
X1000Y4750D03*
X1000Y5750D03*
G54D24*
X6516Y1540D03*
X6516Y6460D03*
X8484Y1540D03*
X8484Y6460D03*
X11766Y1540D03*
X11766Y6460D03*
X13734Y1540D03*
X13734Y6460D03*
X17016Y1540D03*
X17016Y6460D03*
X18984Y1540D03*
X18984Y6460D03*
X22266Y1540D03*
X22266Y6460D03*
X24234Y1540D03*
X24234Y6460D03*
X27516Y1540D03*
X27516Y6460D03*
X29484Y1540D03*
X29484Y6460D03*
X46234Y15960D03*
X46234Y11040D03*
X44266Y15960D03*
X44266Y11040D03*
X40984Y15960D03*
X40984Y11040D03*
X39016Y15960D03*
X39016Y11040D03*
X43266Y1540D03*
X43266Y6460D03*
X45234Y1540D03*
X45234Y6460D03*
X38016Y1540D03*
X38016Y6460D03*
X39984Y1540D03*
X39984Y6460D03*
X32766Y1540D03*
X32766Y6460D03*
X34734Y1540D03*
X34734Y6460D03*
G54D25*
X40500Y18500D03*
G54D26*
X40500Y17500D03*
G54D23*
X26000Y15500D03*
X26000Y11500D03*
X27500Y11500D03*
X27500Y15500D03*
X36500Y15500D03*
X36500Y11500D03*
X33500Y15500D03*
X33500Y11500D03*
X12500Y10000D03*
X12500Y14000D03*
X11000Y10000D03*
X11000Y14000D03*
X7750Y19000D03*
X7750Y15000D03*
X1000Y15500D03*
X5000Y15500D03*
X6500Y15000D03*
X6500Y19000D03*
X32000Y11500D03*
X32000Y15500D03*
X30500Y11500D03*
X30500Y15500D03*
G54D27*
X28250Y19000D03*
G54D23*
X29250Y19000D03*
X28250Y18000D03*
X29250Y18000D03*
X28250Y17000D03*
X29250Y17000D03*
G54D28*
X40000Y9000D03*
X40000Y8000D03*
X34750Y9000D03*
X34750Y8000D03*
X24250Y9000D03*
X24250Y8000D03*
X8500Y9000D03*
X8500Y8000D03*
X13750Y9000D03*
X13750Y8000D03*
X19000Y9000D03*
X19000Y8000D03*
X29500Y9000D03*
X29500Y8000D03*
X45250Y9000D03*
X45250Y8000D03*
G54D29*
X21000Y13500D03*
X23000Y13500D03*
G54D25*
X18500Y10500D03*
G54D26*
X18500Y11500D03*
X18500Y12500D03*
X18500Y13500D03*
X15500Y13500D03*
X15500Y12500D03*
X15500Y11500D03*
X15500Y10500D03*
G54D25*
X4500Y12500D03*
G54D26*
X3500Y12500D03*
X2500Y12500D03*
X1500Y12500D03*
X1500Y9500D03*
X2500Y9500D03*
X3500Y9500D03*
X4500Y9500D03*
X11500Y15500D03*
X12500Y15500D03*
X13500Y15500D03*
X14500Y15500D03*
X15500Y15500D03*
X16500Y15500D03*
X17500Y15500D03*
X18500Y15500D03*
X19500Y15500D03*
X20500Y15500D03*
X21500Y15500D03*
X22500Y15500D03*
X23500Y15500D03*
G54D25*
X10500Y15500D03*
G54D26*
X23500Y18500D03*
X22500Y18500D03*
X21500Y18500D03*
X20500Y18500D03*
X19500Y18500D03*
X18500Y18500D03*
X17500Y18500D03*
X16500Y18500D03*
X15500Y18500D03*
X14500Y18500D03*
X13500Y18500D03*
X12500Y18500D03*
X11500Y18500D03*
X10500Y18500D03*
G54D30*
X35000Y11500D03*
G54D31*
X35000Y15500D03*
G54D30*
X29000Y11500D03*
G54D31*
X29000Y15500D03*
G54D26*
X6000Y9500D03*
X6000Y8500D03*
X4500Y8000D03*
X4500Y7000D03*
X23500Y11500D03*
X23500Y10500D03*
X22000Y11500D03*
X22000Y10500D03*
X2000Y8000D03*
X2000Y7000D03*
X2000Y14000D03*
X1000Y14000D03*
X14000Y14000D03*
X14000Y13000D03*
X3250Y7000D03*
X3250Y8000D03*
X3500Y14000D03*
X4500Y14000D03*
X20500Y11500D03*
X20500Y10500D03*
X39000Y18500D03*
X39000Y17500D03*
X14000Y11500D03*
X14000Y10500D03*
G54D23*
X5000Y17000D03*
X4000Y17000D03*
G54D32*
X5000Y18000D03*
X4000Y18000D03*
X5000Y19000D03*
X4000Y19000D03*
G54D23*
X42500Y17500D03*
X42500Y18500D03*
G54D32*
X43500Y17500D03*
X43500Y18500D03*
X44500Y17500D03*
X44500Y18500D03*
G54D23*
X4000Y1500D03*
X4000Y5500D03*
G54D33*
X8000Y13000D03*
G54D34*
X8000Y12000D03*
G54D35*
X1750Y18250D03*
X48250Y18250D03*
X1750Y1750D03*
X48250Y2000D03*
G54D23*
X33000Y17150D03*
X34000Y17150D03*
X34000Y17937D03*
X33000Y17937D03*
G54D36*
X31138Y19000D03*
X35862Y19000D03*
M02*
