G04 (created by PCBNEW-RS274X (2011-nov-30)-testing) date Mon 02 Jul 2012 01:11:30 PM EDT*
%MOIN*%
G04 Gerber Fmt 3.4, Leading zero omitted, Abs format*
%FSLAX34Y34*%
G01*
G70*
G90*
G04 APERTURE LIST*
%ADD10C,0.006*%
%ADD11C,0.015*%
%ADD12C,0.06*%
%ADD13C,0.1063*%
%ADD14C,0.085*%
%ADD15R,0.055X0.055*%
%ADD16C,0.055*%
%ADD17R,0.06X0.06*%
%ADD18C,0.066*%
%ADD19C,0.056*%
%ADD20C,0.07*%
%ADD21R,0.07X0.07*%
%ADD22C,0.064*%
%ADD23R,0.065X0.065*%
%ADD24C,0.065*%
%ADD25C,0.24*%
%ADD26C,0.035*%
%ADD27C,0.01*%
%ADD28C,0.008*%
G04 APERTURE END LIST*
G54D10*
G54D11*
X50000Y20000D02*
X0Y20000D01*
X50000Y0D02*
X50000Y20000D01*
X0Y0D02*
X50000Y0D01*
X0Y20000D02*
X0Y0D01*
G54D12*
X33000Y17150D03*
X34000Y17150D03*
X34000Y17937D03*
X33000Y17937D03*
G54D13*
X31138Y19000D03*
X35862Y19000D03*
G54D12*
X1000Y3750D03*
X1000Y4750D03*
X1000Y5750D03*
G54D14*
X6516Y1540D03*
X6516Y6460D03*
X8484Y1540D03*
X8484Y6460D03*
X11766Y1540D03*
X11766Y6460D03*
X13734Y1540D03*
X13734Y6460D03*
X17016Y1540D03*
X17016Y6460D03*
X18984Y1540D03*
X18984Y6460D03*
X22266Y1540D03*
X22266Y6460D03*
X24234Y1540D03*
X24234Y6460D03*
X27516Y1540D03*
X27516Y6460D03*
X29484Y1540D03*
X29484Y6460D03*
X46234Y15960D03*
X46234Y11040D03*
X44266Y15960D03*
X44266Y11040D03*
X40984Y15960D03*
X40984Y11040D03*
X39016Y15960D03*
X39016Y11040D03*
X43266Y1540D03*
X43266Y6460D03*
X45234Y1540D03*
X45234Y6460D03*
X38016Y1540D03*
X38016Y6460D03*
X39984Y1540D03*
X39984Y6460D03*
X32766Y1540D03*
X32766Y6460D03*
X34734Y1540D03*
X34734Y6460D03*
G54D15*
X40000Y18500D03*
G54D16*
X40000Y17500D03*
G54D12*
X26000Y15500D03*
X26000Y11500D03*
X27500Y11500D03*
X27500Y15500D03*
X36500Y15500D03*
X36500Y11500D03*
X33500Y15500D03*
X33500Y11500D03*
X12000Y10000D03*
X12000Y14000D03*
X10750Y10000D03*
X10750Y14000D03*
X7750Y19000D03*
X7750Y15000D03*
X1000Y15500D03*
X5000Y15500D03*
X6500Y15000D03*
X6500Y19000D03*
X32000Y11500D03*
X32000Y15500D03*
X30500Y11500D03*
X30500Y15500D03*
G54D17*
X28250Y19000D03*
G54D12*
X29250Y19000D03*
X28250Y18000D03*
X29250Y18000D03*
X28250Y17000D03*
X29250Y17000D03*
G54D18*
X40000Y9000D03*
X40000Y8000D03*
X34750Y9000D03*
X34750Y8000D03*
X24250Y9000D03*
X24250Y8000D03*
X8500Y9000D03*
X8500Y8000D03*
X13750Y9000D03*
X13750Y8000D03*
X19000Y9000D03*
X19000Y8000D03*
X29500Y9000D03*
X29500Y8000D03*
X45250Y9000D03*
X45250Y8000D03*
G54D19*
X21000Y13500D03*
X23000Y13500D03*
G54D15*
X18000Y10000D03*
G54D16*
X18000Y11000D03*
X18000Y12000D03*
X18000Y13000D03*
X15000Y13000D03*
X15000Y12000D03*
X15000Y11000D03*
X15000Y10000D03*
G54D15*
X4500Y12500D03*
G54D16*
X3500Y12500D03*
X2500Y12500D03*
X1500Y12500D03*
X1500Y9500D03*
X2500Y9500D03*
X3500Y9500D03*
X4500Y9500D03*
X11500Y15500D03*
X12500Y15500D03*
X13500Y15500D03*
X14500Y15500D03*
X15500Y15500D03*
X16500Y15500D03*
X17500Y15500D03*
X18500Y15500D03*
X19500Y15500D03*
X20500Y15500D03*
X21500Y15500D03*
X22500Y15500D03*
X23500Y15500D03*
G54D15*
X10500Y15500D03*
G54D16*
X23500Y18500D03*
X22500Y18500D03*
X21500Y18500D03*
X20500Y18500D03*
X19500Y18500D03*
X18500Y18500D03*
X17500Y18500D03*
X16500Y18500D03*
X15500Y18500D03*
X14500Y18500D03*
X13500Y18500D03*
X12500Y18500D03*
X11500Y18500D03*
X10500Y18500D03*
G54D20*
X35000Y11500D03*
G54D21*
X35000Y15500D03*
G54D20*
X29000Y11500D03*
G54D21*
X29000Y15500D03*
G54D16*
X6000Y9500D03*
X6000Y8500D03*
X4500Y8000D03*
X4500Y7000D03*
X23500Y11500D03*
X23500Y10500D03*
X22000Y11500D03*
X22000Y10500D03*
X2000Y8000D03*
X2000Y7000D03*
X2000Y14000D03*
X1000Y14000D03*
X16500Y14250D03*
X17500Y14250D03*
X3250Y7000D03*
X3250Y8000D03*
X3500Y14000D03*
X4500Y14000D03*
X20500Y11500D03*
X20500Y10500D03*
X38500Y18500D03*
X38500Y17500D03*
X13250Y13000D03*
X13250Y12000D03*
G54D12*
X5000Y17000D03*
X4000Y17000D03*
G54D22*
X5000Y18000D03*
X4000Y18000D03*
X5000Y19000D03*
X4000Y19000D03*
G54D12*
X42500Y17500D03*
X42500Y18500D03*
G54D22*
X43500Y17500D03*
X43500Y18500D03*
X44500Y17500D03*
X44500Y18500D03*
G54D12*
X4000Y1500D03*
X4000Y5500D03*
G54D23*
X8000Y13000D03*
G54D24*
X8000Y12000D03*
G54D25*
X1750Y18250D03*
X48250Y18250D03*
X1750Y1750D03*
X48250Y2000D03*
G54D26*
X6500Y3000D03*
X10000Y3000D03*
X14750Y6500D03*
X26250Y2500D03*
X17000Y2500D03*
X16250Y4750D03*
X22250Y4750D03*
X21250Y7250D03*
X17000Y7500D03*
X27500Y3250D03*
X21250Y3250D03*
X32750Y10250D03*
X23750Y13750D03*
X25000Y10250D03*
X27000Y13250D03*
X38000Y13250D03*
X25000Y15500D03*
X43250Y13750D03*
X30800Y14000D03*
X27200Y18600D03*
X41000Y12250D03*
X24250Y12250D03*
X23000Y4000D03*
X8500Y17500D03*
X7500Y4000D03*
X46250Y19500D03*
X37500Y19500D03*
X37500Y18000D03*
X30750Y17750D03*
X32000Y16500D03*
X30500Y16500D03*
X33500Y14500D03*
X34250Y19500D03*
X35750Y14750D03*
X44750Y14750D03*
X18500Y17500D03*
X26647Y17129D03*
X15500Y9000D03*
X15500Y7250D03*
X12000Y7500D03*
X12000Y9000D03*
X9500Y10250D03*
X25250Y19000D03*
X25250Y18000D03*
X29750Y14250D03*
X18000Y16500D03*
X24250Y17250D03*
X26000Y18000D03*
X26000Y17250D03*
X19500Y17250D03*
X24750Y14750D03*
X36500Y12750D03*
X25500Y12750D03*
X24000Y14250D03*
X38500Y17500D03*
X35000Y16500D03*
X12000Y12000D03*
G54D27*
X6500Y1556D02*
X6516Y1540D01*
X6500Y3000D02*
X6500Y1556D01*
X6516Y4766D02*
X6516Y6460D01*
X6500Y3000D02*
X6516Y4766D01*
X10000Y14250D02*
X10000Y3000D01*
X10500Y14750D02*
X10000Y14250D01*
X11000Y14750D02*
X10500Y14750D01*
X11500Y15250D02*
X11000Y14750D01*
X11500Y15500D02*
X11500Y15250D01*
X12500Y15500D02*
X11500Y14500D01*
X11500Y6726D02*
X11766Y6460D01*
X11500Y14500D02*
X11500Y6726D01*
X11766Y1540D02*
X11766Y6460D01*
X13500Y15500D02*
X13500Y13750D01*
X13500Y13750D02*
X14000Y13250D01*
X14750Y9250D02*
X14750Y6500D01*
X14000Y10000D02*
X14750Y9250D01*
X14000Y13250D02*
X14000Y10000D01*
X17016Y6460D02*
X17016Y1540D01*
X27500Y10500D02*
X27750Y10500D01*
X26250Y9250D02*
X27500Y10500D01*
X26250Y2500D02*
X26250Y9250D01*
X17000Y1556D02*
X17016Y1540D01*
X17000Y2500D02*
X17000Y1556D01*
X30250Y10500D02*
X27750Y10500D01*
X30500Y10750D02*
X30250Y10500D01*
X30500Y11500D02*
X30500Y10750D01*
X15250Y13750D02*
X15750Y13250D01*
X14500Y15500D02*
X14500Y14000D01*
X15750Y9500D02*
X16250Y9000D01*
X15750Y13250D02*
X15750Y9500D01*
X14750Y13750D02*
X15250Y13750D01*
X14500Y14000D02*
X14750Y13750D01*
X22250Y4750D02*
X22250Y1556D01*
X22250Y1556D02*
X22266Y1540D01*
X22266Y6460D02*
X22266Y4766D01*
X16250Y9000D02*
X16250Y4750D01*
X22266Y4766D02*
X22250Y4750D01*
X17000Y12750D02*
X15500Y14250D01*
X15500Y14250D02*
X15500Y15500D01*
G54D28*
X15500Y14250D02*
X15500Y15500D01*
X15500Y15500D02*
X15500Y14250D01*
G54D27*
X21250Y7250D02*
X21250Y5250D01*
X17000Y12750D02*
X17000Y7500D01*
X21250Y5250D02*
X21250Y3250D01*
X27500Y3250D02*
X28000Y3250D01*
X32000Y7250D02*
X32000Y8000D01*
X28000Y3250D02*
X32000Y7250D01*
X27500Y3250D02*
X27500Y1556D01*
X27500Y1556D02*
X27516Y1540D01*
X27516Y6460D02*
X27516Y3266D01*
X27516Y3266D02*
X27500Y3250D01*
X32000Y8000D02*
X32000Y11500D01*
X32766Y6460D02*
X32766Y10234D01*
X32766Y10234D02*
X32750Y10250D01*
X32766Y1540D02*
X32766Y6460D01*
X23750Y13750D02*
X25000Y12500D01*
X25000Y12500D02*
X25000Y10250D01*
X25000Y12500D02*
X25000Y10250D01*
X25000Y15500D02*
X25000Y15250D01*
X25000Y15250D02*
X27000Y13250D01*
X38016Y6460D02*
X38016Y13234D01*
X38016Y13234D02*
X38000Y13250D01*
X38016Y1540D02*
X38016Y6460D01*
X43266Y6460D02*
X43266Y13734D01*
X43266Y13734D02*
X43250Y13750D01*
X43266Y1540D02*
X43266Y6460D01*
X28800Y13800D02*
X30600Y13800D01*
X30600Y13800D02*
X30800Y14000D01*
X28200Y14400D02*
X28800Y13800D01*
X28200Y16200D02*
X28200Y14400D01*
X28000Y16400D02*
X28200Y16200D01*
X27400Y16400D02*
X28000Y16400D01*
X27200Y16600D02*
X27400Y16400D01*
X27200Y18600D02*
X27200Y16600D01*
X41000Y12250D02*
X41000Y15944D01*
X41000Y15944D02*
X40984Y15960D01*
X41000Y12250D02*
X41000Y11056D01*
X41000Y11056D02*
X40984Y11040D01*
X41250Y15944D02*
X40984Y15960D01*
X41250Y15944D02*
X40984Y15960D01*
X23250Y8500D02*
X23250Y9500D01*
X24000Y9750D02*
X24250Y10000D01*
X23500Y9750D02*
X24000Y9750D01*
X23250Y9500D02*
X23500Y9750D01*
X24250Y10000D02*
X24250Y12250D01*
X23000Y4000D02*
X23000Y5250D01*
X24250Y10000D02*
X24250Y12250D01*
X23250Y5500D02*
X23250Y8500D01*
X23000Y5250D02*
X23250Y5500D01*
X8500Y14500D02*
X8500Y17500D01*
X8250Y14250D02*
X8500Y14500D01*
X7750Y14250D02*
X8250Y14250D01*
X7000Y13500D02*
X7750Y14250D01*
X7000Y10750D02*
X7000Y13500D01*
X7500Y10250D02*
X7000Y10750D01*
X7500Y4000D02*
X7500Y10250D01*
X46234Y17984D02*
X46234Y15960D01*
X46250Y18000D02*
X46234Y17984D01*
X46250Y19500D02*
X46250Y18000D01*
X37500Y18000D02*
X37500Y19500D01*
X30200Y18250D02*
X30250Y18250D01*
X30250Y18250D02*
X30750Y17750D01*
X30200Y18300D02*
X30200Y18250D01*
X10500Y18500D02*
X10500Y18750D01*
X10500Y18750D02*
X11250Y19500D01*
X11250Y19500D02*
X29750Y19500D01*
X29750Y19500D02*
X30000Y19250D01*
X30000Y19250D02*
X30000Y18500D01*
X30000Y18500D02*
X30200Y18300D01*
X46234Y15960D02*
X46234Y11040D01*
X18000Y11000D02*
X18750Y11000D01*
X20250Y12500D02*
X20250Y13750D01*
X18750Y11000D02*
X20250Y12500D01*
X22500Y17900D02*
X22500Y18500D01*
X22600Y17800D02*
X22500Y17900D01*
X24400Y17800D02*
X22600Y17800D01*
X24600Y17600D02*
X24400Y17800D01*
X24600Y15400D02*
X24600Y17600D01*
X23400Y14200D02*
X24600Y15400D01*
X20600Y14200D02*
X23400Y14200D01*
X20250Y13850D02*
X20600Y14200D01*
X20250Y13750D02*
X20250Y13850D01*
X30500Y15500D02*
X30500Y16500D01*
X32000Y16500D02*
X32000Y17250D01*
X32000Y17750D02*
X33000Y18750D01*
X32000Y17250D02*
X32000Y17750D01*
X34000Y17937D02*
X34000Y18750D01*
X33250Y19000D02*
X33000Y18750D01*
X33750Y19000D02*
X33250Y19000D01*
X34000Y18750D02*
X33750Y19000D01*
X33500Y14500D02*
X33500Y11500D01*
X35000Y14750D02*
X35000Y15500D01*
X34750Y14500D02*
X35000Y14750D01*
X33500Y14500D02*
X34750Y14500D01*
X34250Y19000D02*
X34250Y19500D01*
X35750Y17500D02*
X34250Y19000D01*
X35750Y14750D02*
X35750Y17500D01*
X44750Y14750D02*
X44750Y13000D01*
X45250Y12500D02*
X45250Y9000D01*
X44750Y13000D02*
X45250Y12500D01*
X14500Y18500D02*
X14500Y18000D01*
X15000Y17500D02*
X18500Y17500D01*
X14500Y18000D02*
X15000Y17500D01*
X26647Y14853D02*
X26647Y17129D01*
X29500Y9000D02*
X30500Y9000D01*
X30500Y9000D02*
X31250Y9750D01*
X31250Y9750D02*
X31250Y12500D01*
X31250Y12500D02*
X30750Y13000D01*
X30750Y13000D02*
X28500Y13000D01*
X28500Y13000D02*
X26647Y14853D01*
X15500Y7250D02*
X15500Y9000D01*
X12000Y9000D02*
X12000Y7500D01*
X9500Y17250D02*
X9500Y10250D01*
X12500Y17250D02*
X9500Y17250D01*
X13500Y18250D02*
X12500Y17250D01*
X13500Y18500D02*
X13500Y18250D01*
X9000Y10000D02*
X9500Y9500D01*
X9500Y9500D02*
X9500Y9250D01*
X8500Y8000D02*
X9250Y8000D01*
X9250Y8000D02*
X9500Y8250D01*
X9500Y9250D02*
X9500Y8250D01*
X9000Y17250D02*
X9000Y10000D01*
X9500Y17750D02*
X9000Y17250D01*
X12000Y17750D02*
X9500Y17750D01*
X12500Y18250D02*
X12000Y17750D01*
X12500Y18250D02*
X12500Y18500D01*
X25250Y18000D02*
X25250Y19000D01*
X29750Y16250D02*
X29750Y14250D01*
X30000Y16500D02*
X29750Y16250D01*
X30000Y17250D02*
X30000Y16500D01*
X29250Y18000D02*
X30000Y17250D01*
X15500Y16500D02*
X18000Y16500D01*
X10500Y15500D02*
X10500Y16000D01*
X10500Y16000D02*
X11000Y16500D01*
X11000Y16500D02*
X15500Y16500D01*
X23550Y14750D02*
X24200Y15400D01*
X18000Y12000D02*
X18250Y12000D01*
X20000Y14750D02*
X23550Y14750D01*
X19500Y14250D02*
X20000Y14750D01*
X19500Y13250D02*
X19500Y14250D01*
X18250Y12000D02*
X19500Y13250D01*
X24200Y16250D02*
X24200Y17200D01*
X24200Y17200D02*
X24250Y17250D01*
X26000Y17250D02*
X26000Y18000D01*
X24200Y15400D02*
X24200Y15500D01*
X24200Y15500D02*
X24200Y16250D01*
X19500Y18500D02*
X19500Y17250D01*
X22000Y12500D02*
X22000Y11500D01*
X21000Y13500D02*
X22000Y12500D01*
X23000Y12000D02*
X23500Y11500D01*
X23000Y13500D02*
X23000Y12000D01*
X26000Y13500D02*
X26000Y11500D01*
X24750Y14750D02*
X26000Y13500D01*
X27500Y11500D02*
X26000Y11500D01*
X40000Y17500D02*
X40000Y17000D01*
X40000Y17000D02*
X39750Y16750D01*
X36500Y15500D02*
X37750Y16750D01*
X37750Y16750D02*
X39750Y16750D01*
X36500Y12750D02*
X36500Y15500D01*
X24000Y14250D02*
X25500Y12750D01*
X34250Y16500D02*
X35000Y16500D01*
X33500Y16250D02*
X33750Y16500D01*
X33750Y16500D02*
X34250Y16500D01*
X33500Y15500D02*
X33500Y16250D01*
X33000Y17150D02*
X33000Y16000D01*
X33000Y16000D02*
X33500Y15500D01*
X1000Y3750D02*
X3000Y3750D01*
X4000Y2750D02*
X4000Y1500D01*
X3000Y3750D02*
X4000Y2750D01*
X3250Y7000D02*
X3250Y6250D01*
X3250Y6250D02*
X4000Y5500D01*
X3500Y13500D02*
X4500Y12500D01*
X3500Y14000D02*
X3500Y13500D01*
X2000Y15000D02*
X4000Y17000D01*
X2000Y14000D02*
X2000Y15000D01*
X2500Y13500D02*
X2000Y14000D01*
X2500Y12500D02*
X2500Y13500D01*
X12000Y12000D02*
X12000Y14000D01*
X500Y6000D02*
X500Y5000D01*
X750Y4750D02*
X1000Y4750D01*
X500Y5000D02*
X750Y4750D01*
X2750Y8750D02*
X3500Y9500D01*
X1250Y8750D02*
X2750Y8750D01*
X500Y8000D02*
X1250Y8750D01*
X500Y6000D02*
X500Y8000D01*
X4500Y8000D02*
X3000Y8000D01*
X5500Y14000D02*
X6500Y15000D01*
X4500Y14000D02*
X5500Y14000D01*
X1000Y14000D02*
X1000Y15500D01*
G54D10*
G36*
X49450Y550D02*
X45809Y550D01*
X45809Y1425D01*
X45809Y1654D01*
X45809Y6345D01*
X45809Y6574D01*
X45730Y6766D01*
X45730Y7904D01*
X45730Y8095D01*
X45730Y8904D01*
X45730Y9095D01*
X45657Y9271D01*
X45522Y9407D01*
X45450Y9437D01*
X45450Y12500D01*
X45435Y12576D01*
X45435Y12577D01*
X45391Y12641D01*
X44950Y13082D01*
X44950Y14490D01*
X45025Y14565D01*
X45075Y14685D01*
X45075Y14814D01*
X45026Y14934D01*
X44970Y14990D01*
X44970Y17406D01*
X44970Y17593D01*
X44970Y18406D01*
X44970Y18593D01*
X44899Y18766D01*
X44767Y18898D01*
X44594Y18970D01*
X44407Y18970D01*
X44234Y18899D01*
X44102Y18767D01*
X44030Y18594D01*
X44030Y18407D01*
X44101Y18234D01*
X44233Y18102D01*
X44406Y18030D01*
X44593Y18030D01*
X44766Y18101D01*
X44898Y18233D01*
X44970Y18406D01*
X44970Y17593D01*
X44899Y17766D01*
X44767Y17898D01*
X44594Y17970D01*
X44407Y17970D01*
X44234Y17899D01*
X44102Y17767D01*
X44030Y17594D01*
X44030Y17407D01*
X44101Y17234D01*
X44233Y17102D01*
X44406Y17030D01*
X44593Y17030D01*
X44766Y17101D01*
X44898Y17233D01*
X44970Y17406D01*
X44970Y14990D01*
X44935Y15025D01*
X44841Y15065D01*
X44841Y15845D01*
X44841Y16074D01*
X44754Y16285D01*
X44592Y16447D01*
X44381Y16535D01*
X44152Y16535D01*
X43970Y16460D01*
X43970Y17406D01*
X43970Y17593D01*
X43970Y18406D01*
X43970Y18593D01*
X43899Y18766D01*
X43767Y18898D01*
X43594Y18970D01*
X43407Y18970D01*
X43234Y18899D01*
X43102Y18767D01*
X43030Y18594D01*
X43030Y18407D01*
X43101Y18234D01*
X43233Y18102D01*
X43406Y18030D01*
X43593Y18030D01*
X43766Y18101D01*
X43898Y18233D01*
X43970Y18406D01*
X43970Y17593D01*
X43899Y17766D01*
X43767Y17898D01*
X43594Y17970D01*
X43407Y17970D01*
X43234Y17899D01*
X43102Y17767D01*
X43041Y17622D01*
X42972Y17801D01*
X42958Y17821D01*
X42949Y17824D01*
X42949Y18410D01*
X42949Y18589D01*
X42881Y18754D01*
X42755Y18880D01*
X42590Y18949D01*
X42411Y18949D01*
X42246Y18881D01*
X42120Y18755D01*
X42051Y18590D01*
X42051Y18411D01*
X42119Y18246D01*
X42245Y18120D01*
X42410Y18051D01*
X42403Y18051D01*
X42199Y17972D01*
X42179Y17958D01*
X42156Y17859D01*
X42500Y17514D01*
X42844Y17859D01*
X42821Y17958D01*
X42622Y18046D01*
X42410Y18051D01*
X42589Y18051D01*
X42754Y18119D01*
X42880Y18245D01*
X42949Y18410D01*
X42949Y17824D01*
X42859Y17844D01*
X42514Y17500D01*
X42859Y17156D01*
X42958Y17179D01*
X43043Y17374D01*
X43101Y17234D01*
X43233Y17102D01*
X43406Y17030D01*
X43593Y17030D01*
X43766Y17101D01*
X43898Y17233D01*
X43970Y17406D01*
X43970Y16460D01*
X43941Y16448D01*
X43779Y16286D01*
X43691Y16075D01*
X43691Y15846D01*
X43778Y15635D01*
X43940Y15473D01*
X44151Y15385D01*
X44380Y15385D01*
X44591Y15472D01*
X44753Y15634D01*
X44841Y15845D01*
X44841Y15065D01*
X44815Y15075D01*
X44686Y15075D01*
X44566Y15026D01*
X44475Y14935D01*
X44425Y14815D01*
X44425Y14686D01*
X44474Y14566D01*
X44550Y14490D01*
X44550Y13000D01*
X44565Y12923D01*
X44609Y12859D01*
X45050Y12418D01*
X45050Y9437D01*
X44979Y9407D01*
X44843Y9272D01*
X44841Y9268D01*
X44841Y10925D01*
X44841Y11154D01*
X44754Y11365D01*
X44592Y11527D01*
X44381Y11615D01*
X44152Y11615D01*
X43941Y11528D01*
X43779Y11366D01*
X43691Y11155D01*
X43691Y10926D01*
X43778Y10715D01*
X43940Y10553D01*
X44151Y10465D01*
X44380Y10465D01*
X44591Y10552D01*
X44753Y10714D01*
X44841Y10925D01*
X44841Y9268D01*
X44770Y9096D01*
X44770Y8905D01*
X44843Y8729D01*
X44978Y8593D01*
X45154Y8520D01*
X45345Y8520D01*
X45521Y8593D01*
X45657Y8728D01*
X45730Y8904D01*
X45730Y8095D01*
X45657Y8271D01*
X45522Y8407D01*
X45346Y8480D01*
X45155Y8480D01*
X44979Y8407D01*
X44843Y8272D01*
X44770Y8096D01*
X44770Y7905D01*
X44843Y7729D01*
X44978Y7593D01*
X45154Y7520D01*
X45345Y7520D01*
X45521Y7593D01*
X45657Y7728D01*
X45730Y7904D01*
X45730Y6766D01*
X45722Y6785D01*
X45560Y6947D01*
X45349Y7035D01*
X45120Y7035D01*
X44909Y6948D01*
X44747Y6786D01*
X44659Y6575D01*
X44659Y6346D01*
X44746Y6135D01*
X44908Y5973D01*
X45119Y5885D01*
X45348Y5885D01*
X45559Y5972D01*
X45721Y6134D01*
X45809Y6345D01*
X45809Y1654D01*
X45722Y1865D01*
X45560Y2027D01*
X45349Y2115D01*
X45120Y2115D01*
X44909Y2028D01*
X44747Y1866D01*
X44659Y1655D01*
X44659Y1426D01*
X44746Y1215D01*
X44908Y1053D01*
X45119Y965D01*
X45348Y965D01*
X45559Y1052D01*
X45721Y1214D01*
X45809Y1425D01*
X45809Y550D01*
X43841Y550D01*
X43841Y1425D01*
X43841Y1654D01*
X43754Y1865D01*
X43592Y2027D01*
X43466Y2080D01*
X43466Y5921D01*
X43591Y5972D01*
X43753Y6134D01*
X43841Y6345D01*
X43841Y6574D01*
X43754Y6785D01*
X43592Y6947D01*
X43466Y7000D01*
X43466Y13506D01*
X43525Y13565D01*
X43575Y13685D01*
X43575Y13814D01*
X43526Y13934D01*
X43435Y14025D01*
X43315Y14075D01*
X43186Y14075D01*
X43066Y14026D01*
X42975Y13935D01*
X42925Y13815D01*
X42925Y13686D01*
X42974Y13566D01*
X43065Y13475D01*
X43066Y13475D01*
X43066Y7000D01*
X42941Y6948D01*
X42844Y6851D01*
X42844Y17141D01*
X42500Y17486D01*
X42486Y17472D01*
X42486Y17500D01*
X42141Y17844D01*
X42042Y17821D01*
X41954Y17622D01*
X41949Y17403D01*
X42028Y17199D01*
X42042Y17179D01*
X42141Y17156D01*
X42486Y17500D01*
X42486Y17472D01*
X42156Y17141D01*
X42179Y17042D01*
X42378Y16954D01*
X42597Y16949D01*
X42801Y17028D01*
X42821Y17042D01*
X42844Y17141D01*
X42844Y6851D01*
X42779Y6786D01*
X42691Y6575D01*
X42691Y6346D01*
X42778Y6135D01*
X42940Y5973D01*
X43066Y5921D01*
X43066Y2080D01*
X42941Y2028D01*
X42779Y1866D01*
X42691Y1655D01*
X42691Y1426D01*
X42778Y1215D01*
X42940Y1053D01*
X43151Y965D01*
X43380Y965D01*
X43591Y1052D01*
X43753Y1214D01*
X43841Y1425D01*
X43841Y550D01*
X41559Y550D01*
X41559Y10925D01*
X41559Y11154D01*
X41472Y11365D01*
X41310Y11527D01*
X41200Y11573D01*
X41200Y11990D01*
X41275Y12065D01*
X41325Y12185D01*
X41325Y12314D01*
X41276Y12434D01*
X41200Y12510D01*
X41200Y15428D01*
X41309Y15472D01*
X41471Y15634D01*
X41559Y15845D01*
X41559Y16074D01*
X41472Y16285D01*
X41310Y16447D01*
X41099Y16535D01*
X40870Y16535D01*
X40659Y16448D01*
X40525Y16314D01*
X40525Y18428D01*
X40525Y18572D01*
X40524Y18824D01*
X40486Y18916D01*
X40416Y18986D01*
X40325Y19024D01*
X40226Y19024D01*
X40072Y19025D01*
X40010Y18963D01*
X40010Y18510D01*
X40463Y18510D01*
X40525Y18572D01*
X40525Y18428D01*
X40463Y18490D01*
X40010Y18490D01*
X40010Y18037D01*
X40072Y17975D01*
X40226Y17976D01*
X40325Y17976D01*
X40416Y18014D01*
X40486Y18084D01*
X40524Y18176D01*
X40525Y18428D01*
X40525Y16314D01*
X40497Y16286D01*
X40425Y16114D01*
X40425Y17415D01*
X40425Y17584D01*
X40361Y17740D01*
X40241Y17860D01*
X40085Y17925D01*
X39990Y17925D01*
X39990Y18037D01*
X39990Y18490D01*
X39990Y18510D01*
X39990Y18963D01*
X39928Y19025D01*
X39774Y19024D01*
X39675Y19024D01*
X39584Y18986D01*
X39514Y18916D01*
X39476Y18824D01*
X39475Y18572D01*
X39537Y18510D01*
X39990Y18510D01*
X39990Y18490D01*
X39537Y18490D01*
X39475Y18428D01*
X39476Y18176D01*
X39514Y18084D01*
X39584Y18014D01*
X39675Y17976D01*
X39774Y17976D01*
X39928Y17975D01*
X39990Y18037D01*
X39990Y17925D01*
X39916Y17925D01*
X39760Y17861D01*
X39640Y17741D01*
X39575Y17585D01*
X39575Y17416D01*
X39639Y17260D01*
X39759Y17140D01*
X39800Y17123D01*
X39800Y17083D01*
X39667Y16950D01*
X38925Y16950D01*
X38925Y17415D01*
X38925Y17584D01*
X38925Y18415D01*
X38925Y18584D01*
X38861Y18740D01*
X38741Y18860D01*
X38585Y18925D01*
X38416Y18925D01*
X38260Y18861D01*
X38140Y18741D01*
X38075Y18585D01*
X38075Y18416D01*
X38139Y18260D01*
X38259Y18140D01*
X38415Y18075D01*
X38584Y18075D01*
X38740Y18139D01*
X38860Y18259D01*
X38925Y18415D01*
X38925Y17584D01*
X38861Y17740D01*
X38741Y17860D01*
X38585Y17925D01*
X38416Y17925D01*
X38260Y17861D01*
X38140Y17741D01*
X38075Y17585D01*
X38075Y17416D01*
X38139Y17260D01*
X38259Y17140D01*
X38415Y17075D01*
X38584Y17075D01*
X38740Y17139D01*
X38860Y17259D01*
X38925Y17415D01*
X38925Y16950D01*
X37750Y16950D01*
X37673Y16935D01*
X37608Y16891D01*
X36644Y15927D01*
X36590Y15949D01*
X36411Y15949D01*
X36246Y15881D01*
X36120Y15755D01*
X36051Y15590D01*
X36051Y15411D01*
X36119Y15246D01*
X36245Y15120D01*
X36300Y15097D01*
X36300Y13010D01*
X36225Y12935D01*
X36175Y12815D01*
X36175Y12686D01*
X36224Y12566D01*
X36315Y12475D01*
X36435Y12425D01*
X36564Y12425D01*
X36684Y12474D01*
X36775Y12565D01*
X36825Y12685D01*
X36825Y12814D01*
X36776Y12934D01*
X36700Y13010D01*
X36700Y15097D01*
X36754Y15119D01*
X36880Y15245D01*
X36949Y15410D01*
X36949Y15589D01*
X36926Y15645D01*
X37832Y16550D01*
X39750Y16550D01*
X39750Y16551D01*
X39826Y16565D01*
X39827Y16565D01*
X39891Y16609D01*
X40141Y16858D01*
X40141Y16859D01*
X40185Y16923D01*
X40199Y17000D01*
X40200Y17000D01*
X40200Y17123D01*
X40240Y17139D01*
X40360Y17259D01*
X40425Y17415D01*
X40425Y16114D01*
X40409Y16075D01*
X40409Y15846D01*
X40496Y15635D01*
X40658Y15473D01*
X40800Y15414D01*
X40800Y12510D01*
X40725Y12435D01*
X40675Y12315D01*
X40675Y12186D01*
X40724Y12066D01*
X40800Y11990D01*
X40800Y11587D01*
X40659Y11528D01*
X40497Y11366D01*
X40409Y11155D01*
X40409Y10926D01*
X40496Y10715D01*
X40658Y10553D01*
X40869Y10465D01*
X41098Y10465D01*
X41309Y10552D01*
X41471Y10714D01*
X41559Y10925D01*
X41559Y550D01*
X40581Y550D01*
X40581Y9102D01*
X40498Y9317D01*
X40483Y9339D01*
X40380Y9366D01*
X40366Y9352D01*
X40366Y9380D01*
X40339Y9483D01*
X40128Y9576D01*
X39898Y9581D01*
X39683Y9498D01*
X39661Y9483D01*
X39634Y9380D01*
X40000Y9014D01*
X40366Y9380D01*
X40366Y9352D01*
X40014Y9000D01*
X40380Y8634D01*
X40483Y8661D01*
X40576Y8872D01*
X40581Y9102D01*
X40581Y550D01*
X40559Y550D01*
X40559Y1425D01*
X40559Y1654D01*
X40559Y6345D01*
X40559Y6574D01*
X40480Y6766D01*
X40480Y7904D01*
X40480Y8095D01*
X40407Y8271D01*
X40272Y8407D01*
X40175Y8448D01*
X40317Y8502D01*
X40339Y8517D01*
X40366Y8620D01*
X40000Y8986D01*
X39986Y8972D01*
X39986Y9000D01*
X39620Y9366D01*
X39591Y9359D01*
X39591Y10925D01*
X39591Y11154D01*
X39591Y15845D01*
X39591Y16074D01*
X39504Y16285D01*
X39342Y16447D01*
X39131Y16535D01*
X38902Y16535D01*
X38691Y16448D01*
X38529Y16286D01*
X38441Y16075D01*
X38441Y15846D01*
X38528Y15635D01*
X38690Y15473D01*
X38901Y15385D01*
X39130Y15385D01*
X39341Y15472D01*
X39503Y15634D01*
X39591Y15845D01*
X39591Y11154D01*
X39504Y11365D01*
X39342Y11527D01*
X39131Y11615D01*
X38902Y11615D01*
X38691Y11528D01*
X38529Y11366D01*
X38441Y11155D01*
X38441Y10926D01*
X38528Y10715D01*
X38690Y10553D01*
X38901Y10465D01*
X39130Y10465D01*
X39341Y10552D01*
X39503Y10714D01*
X39591Y10925D01*
X39591Y9359D01*
X39517Y9339D01*
X39424Y9128D01*
X39419Y8898D01*
X39502Y8683D01*
X39517Y8661D01*
X39620Y8634D01*
X39986Y9000D01*
X39986Y8972D01*
X39634Y8620D01*
X39661Y8517D01*
X39822Y8446D01*
X39729Y8407D01*
X39593Y8272D01*
X39520Y8096D01*
X39520Y7905D01*
X39593Y7729D01*
X39728Y7593D01*
X39904Y7520D01*
X40095Y7520D01*
X40271Y7593D01*
X40407Y7728D01*
X40480Y7904D01*
X40480Y6766D01*
X40472Y6785D01*
X40310Y6947D01*
X40099Y7035D01*
X39870Y7035D01*
X39659Y6948D01*
X39497Y6786D01*
X39409Y6575D01*
X39409Y6346D01*
X39496Y6135D01*
X39658Y5973D01*
X39869Y5885D01*
X40098Y5885D01*
X40309Y5972D01*
X40471Y6134D01*
X40559Y6345D01*
X40559Y1654D01*
X40472Y1865D01*
X40310Y2027D01*
X40099Y2115D01*
X39870Y2115D01*
X39659Y2028D01*
X39497Y1866D01*
X39409Y1655D01*
X39409Y1426D01*
X39496Y1215D01*
X39658Y1053D01*
X39869Y965D01*
X40098Y965D01*
X40309Y1052D01*
X40471Y1214D01*
X40559Y1425D01*
X40559Y550D01*
X38591Y550D01*
X38591Y1425D01*
X38591Y1654D01*
X38504Y1865D01*
X38342Y2027D01*
X38216Y2080D01*
X38216Y5921D01*
X38341Y5972D01*
X38503Y6134D01*
X38591Y6345D01*
X38591Y6574D01*
X38504Y6785D01*
X38342Y6947D01*
X38216Y7000D01*
X38216Y13006D01*
X38275Y13065D01*
X38325Y13185D01*
X38325Y13314D01*
X38276Y13434D01*
X38185Y13525D01*
X38065Y13575D01*
X37936Y13575D01*
X37816Y13526D01*
X37725Y13435D01*
X37675Y13315D01*
X37675Y13186D01*
X37724Y13066D01*
X37815Y12975D01*
X37816Y12975D01*
X37816Y7000D01*
X37691Y6948D01*
X37529Y6786D01*
X37441Y6575D01*
X37441Y6346D01*
X37528Y6135D01*
X37690Y5973D01*
X37816Y5921D01*
X37816Y2080D01*
X37691Y2028D01*
X37529Y1866D01*
X37441Y1655D01*
X37441Y1426D01*
X37528Y1215D01*
X37690Y1053D01*
X37901Y965D01*
X38130Y965D01*
X38341Y1052D01*
X38503Y1214D01*
X38591Y1425D01*
X38591Y550D01*
X36949Y550D01*
X36949Y11410D01*
X36949Y11589D01*
X36881Y11754D01*
X36755Y11880D01*
X36590Y11949D01*
X36411Y11949D01*
X36246Y11881D01*
X36120Y11755D01*
X36051Y11590D01*
X36051Y11411D01*
X36119Y11246D01*
X36245Y11120D01*
X36410Y11051D01*
X36589Y11051D01*
X36754Y11119D01*
X36880Y11245D01*
X36949Y11410D01*
X36949Y550D01*
X35499Y550D01*
X35499Y11401D01*
X35499Y11599D01*
X35423Y11782D01*
X35283Y11923D01*
X35099Y11999D01*
X34901Y11999D01*
X34718Y11923D01*
X34577Y11783D01*
X34501Y11599D01*
X34501Y11401D01*
X34577Y11218D01*
X34717Y11077D01*
X34901Y11001D01*
X35099Y11001D01*
X35282Y11077D01*
X35423Y11217D01*
X35499Y11401D01*
X35499Y550D01*
X35331Y550D01*
X35331Y9102D01*
X35248Y9317D01*
X35233Y9339D01*
X35130Y9366D01*
X35116Y9352D01*
X35116Y9380D01*
X35089Y9483D01*
X34878Y9576D01*
X34648Y9581D01*
X34433Y9498D01*
X34411Y9483D01*
X34384Y9380D01*
X34750Y9014D01*
X35116Y9380D01*
X35116Y9352D01*
X34764Y9000D01*
X35130Y8634D01*
X35233Y8661D01*
X35326Y8872D01*
X35331Y9102D01*
X35331Y550D01*
X35309Y550D01*
X35309Y1425D01*
X35309Y1654D01*
X35309Y6345D01*
X35309Y6574D01*
X35230Y6766D01*
X35230Y7904D01*
X35230Y8095D01*
X35157Y8271D01*
X35022Y8407D01*
X34925Y8448D01*
X35067Y8502D01*
X35089Y8517D01*
X35116Y8620D01*
X34750Y8986D01*
X34736Y8972D01*
X34736Y9000D01*
X34370Y9366D01*
X34267Y9339D01*
X34174Y9128D01*
X34169Y8898D01*
X34252Y8683D01*
X34267Y8661D01*
X34370Y8634D01*
X34736Y9000D01*
X34736Y8972D01*
X34384Y8620D01*
X34411Y8517D01*
X34572Y8446D01*
X34479Y8407D01*
X34343Y8272D01*
X34270Y8096D01*
X34270Y7905D01*
X34343Y7729D01*
X34478Y7593D01*
X34654Y7520D01*
X34845Y7520D01*
X35021Y7593D01*
X35157Y7728D01*
X35230Y7904D01*
X35230Y6766D01*
X35222Y6785D01*
X35060Y6947D01*
X34849Y7035D01*
X34620Y7035D01*
X34409Y6948D01*
X34247Y6786D01*
X34159Y6575D01*
X34159Y6346D01*
X34246Y6135D01*
X34408Y5973D01*
X34619Y5885D01*
X34848Y5885D01*
X35059Y5972D01*
X35221Y6134D01*
X35309Y6345D01*
X35309Y1654D01*
X35222Y1865D01*
X35060Y2027D01*
X34849Y2115D01*
X34620Y2115D01*
X34409Y2028D01*
X34247Y1866D01*
X34159Y1655D01*
X34159Y1426D01*
X34246Y1215D01*
X34408Y1053D01*
X34619Y965D01*
X34848Y965D01*
X35059Y1052D01*
X35221Y1214D01*
X35309Y1425D01*
X35309Y550D01*
X33341Y550D01*
X33341Y1425D01*
X33341Y1654D01*
X33254Y1865D01*
X33092Y2027D01*
X32966Y2080D01*
X32966Y5921D01*
X33091Y5972D01*
X33253Y6134D01*
X33341Y6345D01*
X33341Y6574D01*
X33254Y6785D01*
X33092Y6947D01*
X32966Y7000D01*
X32966Y10006D01*
X33025Y10065D01*
X33075Y10185D01*
X33075Y10314D01*
X33026Y10434D01*
X32935Y10525D01*
X32815Y10575D01*
X32686Y10575D01*
X32566Y10526D01*
X32475Y10435D01*
X32449Y10373D01*
X32449Y11410D01*
X32449Y11589D01*
X32449Y15410D01*
X32449Y15589D01*
X32381Y15754D01*
X32255Y15880D01*
X32090Y15949D01*
X31911Y15949D01*
X31746Y15881D01*
X31620Y15755D01*
X31551Y15590D01*
X31551Y15411D01*
X31619Y15246D01*
X31745Y15120D01*
X31910Y15051D01*
X32089Y15051D01*
X32254Y15119D01*
X32380Y15245D01*
X32449Y15410D01*
X32449Y11589D01*
X32381Y11754D01*
X32255Y11880D01*
X32090Y11949D01*
X31911Y11949D01*
X31746Y11881D01*
X31620Y11755D01*
X31551Y11590D01*
X31551Y11411D01*
X31619Y11246D01*
X31745Y11120D01*
X31800Y11097D01*
X31800Y8000D01*
X31800Y7333D01*
X31450Y6983D01*
X31450Y9750D01*
X31450Y12500D01*
X31435Y12576D01*
X31435Y12577D01*
X31391Y12641D01*
X31125Y12907D01*
X31125Y13935D01*
X31125Y14064D01*
X31076Y14184D01*
X30985Y14275D01*
X30865Y14325D01*
X30736Y14325D01*
X30616Y14276D01*
X30525Y14185D01*
X30475Y14065D01*
X30475Y14000D01*
X29960Y14000D01*
X30025Y14065D01*
X30075Y14185D01*
X30075Y14314D01*
X30026Y14434D01*
X29950Y14510D01*
X29950Y16168D01*
X30141Y16358D01*
X30141Y16359D01*
X30182Y16419D01*
X30224Y16316D01*
X30300Y16240D01*
X30300Y15904D01*
X30246Y15881D01*
X30120Y15755D01*
X30051Y15590D01*
X30051Y15411D01*
X30119Y15246D01*
X30245Y15120D01*
X30410Y15051D01*
X30589Y15051D01*
X30754Y15119D01*
X30880Y15245D01*
X30949Y15410D01*
X30949Y15589D01*
X30881Y15754D01*
X30755Y15880D01*
X30700Y15903D01*
X30700Y16240D01*
X30775Y16315D01*
X30825Y16435D01*
X30825Y16564D01*
X30776Y16684D01*
X30685Y16775D01*
X30565Y16825D01*
X30436Y16825D01*
X30316Y16776D01*
X30225Y16685D01*
X30200Y16625D01*
X30200Y17250D01*
X30185Y17327D01*
X30141Y17391D01*
X30141Y17392D01*
X29676Y17856D01*
X29699Y17910D01*
X29699Y18089D01*
X29631Y18254D01*
X29594Y18291D01*
X29594Y18641D01*
X29250Y18986D01*
X28906Y18641D01*
X28929Y18542D01*
X29128Y18454D01*
X29347Y18449D01*
X29551Y18528D01*
X29571Y18542D01*
X29594Y18641D01*
X29594Y18291D01*
X29505Y18380D01*
X29340Y18449D01*
X29161Y18449D01*
X28996Y18381D01*
X28870Y18255D01*
X28801Y18090D01*
X28801Y17911D01*
X28869Y17746D01*
X28995Y17620D01*
X29160Y17551D01*
X29339Y17551D01*
X29393Y17574D01*
X29800Y17168D01*
X29800Y16583D01*
X29699Y16482D01*
X29699Y16910D01*
X29699Y17089D01*
X29631Y17254D01*
X29505Y17380D01*
X29340Y17449D01*
X29161Y17449D01*
X28996Y17381D01*
X28870Y17255D01*
X28801Y17090D01*
X28801Y16911D01*
X28869Y16746D01*
X28995Y16620D01*
X29160Y16551D01*
X29339Y16551D01*
X29504Y16619D01*
X29630Y16745D01*
X29699Y16910D01*
X29699Y16482D01*
X29609Y16391D01*
X29565Y16327D01*
X29550Y16250D01*
X29550Y14510D01*
X29499Y14459D01*
X29499Y15121D01*
X29499Y15180D01*
X29499Y15880D01*
X29476Y15935D01*
X29434Y15977D01*
X29379Y15999D01*
X29320Y15999D01*
X28699Y15999D01*
X28699Y16910D01*
X28699Y17089D01*
X28699Y17910D01*
X28699Y18089D01*
X28631Y18254D01*
X28505Y18380D01*
X28340Y18449D01*
X28161Y18449D01*
X27996Y18381D01*
X27870Y18255D01*
X27801Y18090D01*
X27801Y17911D01*
X27869Y17746D01*
X27995Y17620D01*
X28160Y17551D01*
X28339Y17551D01*
X28504Y17619D01*
X28630Y17745D01*
X28699Y17910D01*
X28699Y17089D01*
X28631Y17254D01*
X28505Y17380D01*
X28340Y17449D01*
X28161Y17449D01*
X27996Y17381D01*
X27870Y17255D01*
X27801Y17090D01*
X27801Y16911D01*
X27869Y16746D01*
X27995Y16620D01*
X28160Y16551D01*
X28339Y16551D01*
X28504Y16619D01*
X28630Y16745D01*
X28699Y16910D01*
X28699Y15999D01*
X28620Y15999D01*
X28565Y15976D01*
X28523Y15934D01*
X28501Y15879D01*
X28501Y15820D01*
X28501Y15120D01*
X28524Y15065D01*
X28566Y15023D01*
X28621Y15001D01*
X28680Y15001D01*
X29380Y15001D01*
X29435Y15024D01*
X29477Y15066D01*
X29499Y15121D01*
X29499Y14459D01*
X29475Y14435D01*
X29425Y14315D01*
X29425Y14186D01*
X29474Y14066D01*
X29540Y14000D01*
X28882Y14000D01*
X28400Y14483D01*
X28400Y16200D01*
X28399Y16201D01*
X28385Y16277D01*
X28341Y16341D01*
X28341Y16342D01*
X28141Y16541D01*
X28077Y16585D01*
X28000Y16600D01*
X27482Y16600D01*
X27400Y16683D01*
X27400Y18340D01*
X27475Y18415D01*
X27525Y18535D01*
X27525Y18664D01*
X27476Y18784D01*
X27385Y18875D01*
X27265Y18925D01*
X27136Y18925D01*
X27016Y18876D01*
X26925Y18785D01*
X26875Y18665D01*
X26875Y18536D01*
X26924Y18416D01*
X27000Y18340D01*
X27000Y16600D01*
X27015Y16523D01*
X27059Y16459D01*
X27258Y16259D01*
X27259Y16259D01*
X27323Y16215D01*
X27399Y16201D01*
X27400Y16200D01*
X27917Y16200D01*
X28000Y16118D01*
X28000Y14400D01*
X28015Y14323D01*
X28059Y14259D01*
X28658Y13659D01*
X28659Y13659D01*
X28723Y13615D01*
X28800Y13600D01*
X30600Y13600D01*
X30600Y13601D01*
X30676Y13615D01*
X30677Y13615D01*
X30741Y13659D01*
X30757Y13675D01*
X30864Y13675D01*
X30984Y13724D01*
X31075Y13815D01*
X31125Y13935D01*
X31125Y12907D01*
X30891Y13141D01*
X30827Y13185D01*
X30750Y13200D01*
X28582Y13200D01*
X27949Y13834D01*
X27949Y15410D01*
X27949Y15589D01*
X27881Y15754D01*
X27755Y15880D01*
X27590Y15949D01*
X27411Y15949D01*
X27246Y15881D01*
X27120Y15755D01*
X27051Y15590D01*
X27051Y15411D01*
X27119Y15246D01*
X27245Y15120D01*
X27410Y15051D01*
X27589Y15051D01*
X27754Y15119D01*
X27880Y15245D01*
X27949Y15410D01*
X27949Y13834D01*
X26847Y14936D01*
X26847Y16869D01*
X26922Y16944D01*
X26972Y17064D01*
X26972Y17193D01*
X26923Y17313D01*
X26832Y17404D01*
X26712Y17454D01*
X26583Y17454D01*
X26463Y17405D01*
X26372Y17314D01*
X26325Y17202D01*
X26325Y17314D01*
X26276Y17434D01*
X26200Y17510D01*
X26200Y17740D01*
X26275Y17815D01*
X26325Y17935D01*
X26325Y18064D01*
X26276Y18184D01*
X26185Y18275D01*
X26065Y18325D01*
X25936Y18325D01*
X25816Y18276D01*
X25725Y18185D01*
X25675Y18065D01*
X25675Y17936D01*
X25724Y17816D01*
X25800Y17740D01*
X25800Y17510D01*
X25725Y17435D01*
X25675Y17315D01*
X25675Y17186D01*
X25724Y17066D01*
X25815Y16975D01*
X25935Y16925D01*
X26064Y16925D01*
X26184Y16974D01*
X26275Y17065D01*
X26322Y17178D01*
X26322Y17065D01*
X26371Y16945D01*
X26447Y16869D01*
X26447Y15824D01*
X26359Y15844D01*
X26344Y15830D01*
X26344Y15859D01*
X26321Y15958D01*
X26122Y16046D01*
X25903Y16051D01*
X25699Y15972D01*
X25679Y15958D01*
X25656Y15859D01*
X26000Y15514D01*
X26344Y15859D01*
X26344Y15830D01*
X26014Y15500D01*
X26359Y15156D01*
X26447Y15177D01*
X26447Y14853D01*
X26462Y14776D01*
X26506Y14712D01*
X28358Y12859D01*
X28359Y12859D01*
X28423Y12815D01*
X28500Y12800D01*
X30668Y12800D01*
X31050Y12418D01*
X31050Y9833D01*
X30949Y9732D01*
X30949Y11410D01*
X30949Y11589D01*
X30881Y11754D01*
X30755Y11880D01*
X30590Y11949D01*
X30411Y11949D01*
X30246Y11881D01*
X30120Y11755D01*
X30051Y11590D01*
X30051Y11411D01*
X30119Y11246D01*
X30245Y11120D01*
X30300Y11097D01*
X30300Y10833D01*
X30167Y10700D01*
X29499Y10700D01*
X29499Y11401D01*
X29499Y11599D01*
X29423Y11782D01*
X29283Y11923D01*
X29099Y11999D01*
X28901Y11999D01*
X28718Y11923D01*
X28577Y11783D01*
X28501Y11599D01*
X28501Y11401D01*
X28577Y11218D01*
X28717Y11077D01*
X28901Y11001D01*
X29099Y11001D01*
X29282Y11077D01*
X29423Y11217D01*
X29499Y11401D01*
X29499Y10700D01*
X27949Y10700D01*
X27949Y11410D01*
X27949Y11589D01*
X27881Y11754D01*
X27755Y11880D01*
X27590Y11949D01*
X27411Y11949D01*
X27246Y11881D01*
X27120Y11755D01*
X27097Y11700D01*
X26403Y11700D01*
X26381Y11754D01*
X26255Y11880D01*
X26200Y11903D01*
X26200Y13500D01*
X26199Y13501D01*
X26185Y13577D01*
X26141Y13641D01*
X26141Y13642D01*
X25075Y14708D01*
X25075Y14814D01*
X25026Y14934D01*
X24935Y15025D01*
X24815Y15075D01*
X24686Y15075D01*
X24566Y15026D01*
X24475Y14935D01*
X24425Y14815D01*
X24425Y14686D01*
X24474Y14566D01*
X24565Y14475D01*
X24685Y14425D01*
X24792Y14425D01*
X25800Y13418D01*
X25800Y12876D01*
X25776Y12934D01*
X25685Y13025D01*
X25565Y13075D01*
X25457Y13075D01*
X24325Y14208D01*
X24325Y14314D01*
X24276Y14434D01*
X24185Y14525D01*
X24065Y14575D01*
X24057Y14575D01*
X24741Y15259D01*
X24757Y15283D01*
X24802Y15238D01*
X24815Y15173D01*
X24859Y15109D01*
X26675Y13293D01*
X26675Y13186D01*
X26724Y13066D01*
X26815Y12975D01*
X26935Y12925D01*
X27064Y12925D01*
X27184Y12974D01*
X27275Y13065D01*
X27325Y13185D01*
X27325Y13314D01*
X27276Y13434D01*
X27185Y13525D01*
X27065Y13575D01*
X26957Y13575D01*
X26344Y14189D01*
X26344Y15141D01*
X26000Y15486D01*
X25986Y15472D01*
X25986Y15500D01*
X25641Y15844D01*
X25542Y15821D01*
X25454Y15622D01*
X25449Y15403D01*
X25528Y15199D01*
X25542Y15179D01*
X25641Y15156D01*
X25986Y15500D01*
X25986Y15472D01*
X25656Y15141D01*
X25679Y15042D01*
X25878Y14954D01*
X26097Y14949D01*
X26301Y15028D01*
X26321Y15042D01*
X26344Y15141D01*
X26344Y14189D01*
X25246Y15287D01*
X25275Y15315D01*
X25325Y15435D01*
X25325Y15564D01*
X25276Y15684D01*
X25185Y15775D01*
X25065Y15825D01*
X24936Y15825D01*
X24816Y15776D01*
X24800Y15760D01*
X24800Y17600D01*
X24799Y17601D01*
X24785Y17677D01*
X24741Y17741D01*
X24741Y17742D01*
X24541Y17941D01*
X24477Y17985D01*
X24400Y18000D01*
X23925Y18000D01*
X23925Y18415D01*
X23925Y18584D01*
X23861Y18740D01*
X23741Y18860D01*
X23585Y18925D01*
X23416Y18925D01*
X23260Y18861D01*
X23140Y18741D01*
X23075Y18585D01*
X23075Y18416D01*
X23139Y18260D01*
X23259Y18140D01*
X23415Y18075D01*
X23584Y18075D01*
X23740Y18139D01*
X23860Y18259D01*
X23925Y18415D01*
X23925Y18000D01*
X22700Y18000D01*
X22700Y18123D01*
X22740Y18139D01*
X22860Y18259D01*
X22925Y18415D01*
X22925Y18584D01*
X22861Y18740D01*
X22741Y18860D01*
X22585Y18925D01*
X22416Y18925D01*
X22260Y18861D01*
X22140Y18741D01*
X22075Y18585D01*
X22075Y18416D01*
X22139Y18260D01*
X22259Y18140D01*
X22300Y18123D01*
X22300Y17900D01*
X22315Y17823D01*
X22359Y17759D01*
X22458Y17659D01*
X22459Y17659D01*
X22523Y17615D01*
X22600Y17600D01*
X24317Y17600D01*
X24362Y17556D01*
X24315Y17575D01*
X24186Y17575D01*
X24066Y17526D01*
X23975Y17435D01*
X23925Y17315D01*
X23925Y17186D01*
X23974Y17066D01*
X24000Y17040D01*
X24000Y16250D01*
X24000Y15500D01*
X24000Y15483D01*
X23919Y15403D01*
X23925Y15415D01*
X23925Y15584D01*
X23861Y15740D01*
X23741Y15860D01*
X23585Y15925D01*
X23416Y15925D01*
X23260Y15861D01*
X23140Y15741D01*
X23075Y15585D01*
X23075Y15416D01*
X23139Y15260D01*
X23259Y15140D01*
X23415Y15075D01*
X23584Y15075D01*
X23598Y15082D01*
X23467Y14950D01*
X22925Y14950D01*
X22925Y15415D01*
X22925Y15584D01*
X22861Y15740D01*
X22741Y15860D01*
X22585Y15925D01*
X22416Y15925D01*
X22260Y15861D01*
X22140Y15741D01*
X22075Y15585D01*
X22075Y15416D01*
X22139Y15260D01*
X22259Y15140D01*
X22415Y15075D01*
X22584Y15075D01*
X22740Y15139D01*
X22860Y15259D01*
X22925Y15415D01*
X22925Y14950D01*
X21925Y14950D01*
X21925Y15415D01*
X21925Y15584D01*
X21925Y18415D01*
X21925Y18584D01*
X21861Y18740D01*
X21741Y18860D01*
X21585Y18925D01*
X21416Y18925D01*
X21260Y18861D01*
X21140Y18741D01*
X21075Y18585D01*
X21075Y18416D01*
X21139Y18260D01*
X21259Y18140D01*
X21415Y18075D01*
X21584Y18075D01*
X21740Y18139D01*
X21860Y18259D01*
X21925Y18415D01*
X21925Y15584D01*
X21861Y15740D01*
X21741Y15860D01*
X21585Y15925D01*
X21416Y15925D01*
X21260Y15861D01*
X21140Y15741D01*
X21075Y15585D01*
X21075Y15416D01*
X21139Y15260D01*
X21259Y15140D01*
X21415Y15075D01*
X21584Y15075D01*
X21740Y15139D01*
X21860Y15259D01*
X21925Y15415D01*
X21925Y14950D01*
X20925Y14950D01*
X20925Y15415D01*
X20925Y15584D01*
X20925Y18415D01*
X20925Y18584D01*
X20861Y18740D01*
X20741Y18860D01*
X20585Y18925D01*
X20416Y18925D01*
X20260Y18861D01*
X20140Y18741D01*
X20075Y18585D01*
X20075Y18416D01*
X20139Y18260D01*
X20259Y18140D01*
X20415Y18075D01*
X20584Y18075D01*
X20740Y18139D01*
X20860Y18259D01*
X20925Y18415D01*
X20925Y15584D01*
X20861Y15740D01*
X20741Y15860D01*
X20585Y15925D01*
X20416Y15925D01*
X20260Y15861D01*
X20140Y15741D01*
X20075Y15585D01*
X20075Y15416D01*
X20139Y15260D01*
X20259Y15140D01*
X20415Y15075D01*
X20584Y15075D01*
X20740Y15139D01*
X20860Y15259D01*
X20925Y15415D01*
X20925Y14950D01*
X20000Y14950D01*
X19925Y14936D01*
X19925Y15415D01*
X19925Y15584D01*
X19925Y18415D01*
X19925Y18584D01*
X19861Y18740D01*
X19741Y18860D01*
X19585Y18925D01*
X19416Y18925D01*
X19260Y18861D01*
X19140Y18741D01*
X19075Y18585D01*
X19075Y18416D01*
X19139Y18260D01*
X19259Y18140D01*
X19300Y18123D01*
X19300Y17510D01*
X19225Y17435D01*
X19175Y17315D01*
X19175Y17186D01*
X19224Y17066D01*
X19315Y16975D01*
X19435Y16925D01*
X19564Y16925D01*
X19684Y16974D01*
X19775Y17065D01*
X19825Y17185D01*
X19825Y17314D01*
X19776Y17434D01*
X19700Y17510D01*
X19700Y18123D01*
X19740Y18139D01*
X19860Y18259D01*
X19925Y18415D01*
X19925Y15584D01*
X19861Y15740D01*
X19741Y15860D01*
X19585Y15925D01*
X19416Y15925D01*
X19260Y15861D01*
X19140Y15741D01*
X19075Y15585D01*
X19075Y15416D01*
X19139Y15260D01*
X19259Y15140D01*
X19415Y15075D01*
X19584Y15075D01*
X19740Y15139D01*
X19860Y15259D01*
X19925Y15415D01*
X19925Y14936D01*
X19923Y14935D01*
X19859Y14891D01*
X19359Y14391D01*
X19315Y14327D01*
X19300Y14250D01*
X19300Y13333D01*
X19025Y13058D01*
X19025Y18593D01*
X18950Y18787D01*
X18938Y18806D01*
X18841Y18827D01*
X18827Y18813D01*
X18827Y18841D01*
X18806Y18938D01*
X18615Y19021D01*
X18407Y19025D01*
X18213Y18950D01*
X18194Y18938D01*
X18173Y18841D01*
X18500Y18514D01*
X18827Y18841D01*
X18827Y18813D01*
X18514Y18500D01*
X18841Y18173D01*
X18938Y18194D01*
X19021Y18385D01*
X19025Y18593D01*
X19025Y13058D01*
X18925Y12958D01*
X18925Y15415D01*
X18925Y15584D01*
X18861Y15740D01*
X18827Y15774D01*
X18827Y18159D01*
X18500Y18486D01*
X18486Y18472D01*
X18486Y18500D01*
X18159Y18827D01*
X18062Y18806D01*
X17979Y18615D01*
X17975Y18407D01*
X18050Y18213D01*
X18062Y18194D01*
X18159Y18173D01*
X18486Y18500D01*
X18486Y18472D01*
X18173Y18159D01*
X18194Y18062D01*
X18385Y17979D01*
X18593Y17975D01*
X18787Y18050D01*
X18806Y18062D01*
X18827Y18159D01*
X18827Y15774D01*
X18825Y15776D01*
X18825Y17435D01*
X18825Y17564D01*
X18776Y17684D01*
X18685Y17775D01*
X18565Y17825D01*
X18436Y17825D01*
X18316Y17776D01*
X18240Y17700D01*
X17925Y17700D01*
X17925Y18415D01*
X17925Y18584D01*
X17861Y18740D01*
X17741Y18860D01*
X17585Y18925D01*
X17416Y18925D01*
X17260Y18861D01*
X17140Y18741D01*
X17075Y18585D01*
X17075Y18416D01*
X17139Y18260D01*
X17259Y18140D01*
X17415Y18075D01*
X17584Y18075D01*
X17740Y18139D01*
X17860Y18259D01*
X17925Y18415D01*
X17925Y17700D01*
X16925Y17700D01*
X16925Y18415D01*
X16925Y18584D01*
X16861Y18740D01*
X16741Y18860D01*
X16585Y18925D01*
X16416Y18925D01*
X16260Y18861D01*
X16140Y18741D01*
X16075Y18585D01*
X16075Y18416D01*
X16139Y18260D01*
X16259Y18140D01*
X16415Y18075D01*
X16584Y18075D01*
X16740Y18139D01*
X16860Y18259D01*
X16925Y18415D01*
X16925Y17700D01*
X15925Y17700D01*
X15925Y18415D01*
X15925Y18584D01*
X15861Y18740D01*
X15741Y18860D01*
X15585Y18925D01*
X15416Y18925D01*
X15260Y18861D01*
X15140Y18741D01*
X15075Y18585D01*
X15075Y18416D01*
X15139Y18260D01*
X15259Y18140D01*
X15415Y18075D01*
X15584Y18075D01*
X15740Y18139D01*
X15860Y18259D01*
X15925Y18415D01*
X15925Y17700D01*
X15082Y17700D01*
X14700Y18082D01*
X14700Y18123D01*
X14740Y18139D01*
X14860Y18259D01*
X14925Y18415D01*
X14925Y18584D01*
X14861Y18740D01*
X14741Y18860D01*
X14585Y18925D01*
X14416Y18925D01*
X14260Y18861D01*
X14140Y18741D01*
X14075Y18585D01*
X14075Y18416D01*
X14139Y18260D01*
X14259Y18140D01*
X14300Y18123D01*
X14300Y18000D01*
X14315Y17923D01*
X14359Y17859D01*
X14859Y17359D01*
X14923Y17315D01*
X14924Y17315D01*
X15000Y17300D01*
X18240Y17300D01*
X18315Y17225D01*
X18435Y17175D01*
X18564Y17175D01*
X18684Y17224D01*
X18775Y17315D01*
X18825Y17435D01*
X18825Y15776D01*
X18741Y15860D01*
X18585Y15925D01*
X18416Y15925D01*
X18325Y15888D01*
X18325Y16435D01*
X18325Y16564D01*
X18276Y16684D01*
X18185Y16775D01*
X18065Y16825D01*
X17936Y16825D01*
X17816Y16776D01*
X17740Y16700D01*
X15500Y16700D01*
X13925Y16700D01*
X13925Y18415D01*
X13925Y18584D01*
X13861Y18740D01*
X13741Y18860D01*
X13585Y18925D01*
X13416Y18925D01*
X13260Y18861D01*
X13140Y18741D01*
X13075Y18585D01*
X13075Y18416D01*
X13139Y18260D01*
X13183Y18216D01*
X12417Y17450D01*
X9500Y17450D01*
X9477Y17446D01*
X9582Y17550D01*
X12000Y17550D01*
X12000Y17551D01*
X12076Y17565D01*
X12077Y17565D01*
X12141Y17609D01*
X12623Y18091D01*
X12740Y18139D01*
X12860Y18259D01*
X12925Y18415D01*
X12925Y18584D01*
X12861Y18740D01*
X12741Y18860D01*
X12585Y18925D01*
X12416Y18925D01*
X12260Y18861D01*
X12140Y18741D01*
X12075Y18585D01*
X12075Y18416D01*
X12139Y18260D01*
X12183Y18216D01*
X11925Y17958D01*
X11925Y18415D01*
X11925Y18584D01*
X11861Y18740D01*
X11741Y18860D01*
X11585Y18925D01*
X11416Y18925D01*
X11260Y18861D01*
X11140Y18741D01*
X11075Y18585D01*
X11075Y18416D01*
X11139Y18260D01*
X11259Y18140D01*
X11415Y18075D01*
X11584Y18075D01*
X11740Y18139D01*
X11860Y18259D01*
X11925Y18415D01*
X11925Y17958D01*
X11918Y17950D01*
X9500Y17950D01*
X9423Y17935D01*
X9359Y17891D01*
X8859Y17391D01*
X8825Y17342D01*
X8825Y17435D01*
X8825Y17564D01*
X8776Y17684D01*
X8685Y17775D01*
X8565Y17825D01*
X8436Y17825D01*
X8316Y17776D01*
X8301Y17761D01*
X8301Y19097D01*
X8222Y19301D01*
X8208Y19321D01*
X8109Y19344D01*
X7764Y19000D01*
X8109Y18656D01*
X8208Y18679D01*
X8296Y18878D01*
X8301Y19097D01*
X8301Y17761D01*
X8225Y17685D01*
X8175Y17565D01*
X8175Y17436D01*
X8224Y17316D01*
X8300Y17240D01*
X8300Y14583D01*
X8199Y14482D01*
X8199Y14910D01*
X8199Y15089D01*
X8131Y15254D01*
X8094Y15291D01*
X8094Y18641D01*
X7750Y18986D01*
X7736Y18972D01*
X7736Y19000D01*
X7391Y19344D01*
X7292Y19321D01*
X7204Y19122D01*
X7199Y18903D01*
X7278Y18699D01*
X7292Y18679D01*
X7391Y18656D01*
X7736Y19000D01*
X7736Y18972D01*
X7406Y18641D01*
X7429Y18542D01*
X7628Y18454D01*
X7847Y18449D01*
X8051Y18528D01*
X8071Y18542D01*
X8094Y18641D01*
X8094Y15291D01*
X8005Y15380D01*
X7840Y15449D01*
X7661Y15449D01*
X7496Y15381D01*
X7370Y15255D01*
X7301Y15090D01*
X7301Y14911D01*
X7369Y14746D01*
X7495Y14620D01*
X7660Y14551D01*
X7839Y14551D01*
X8004Y14619D01*
X8130Y14745D01*
X8199Y14910D01*
X8199Y14482D01*
X8167Y14450D01*
X7750Y14450D01*
X7673Y14435D01*
X7608Y14391D01*
X6949Y13732D01*
X6949Y14910D01*
X6949Y15089D01*
X6949Y18910D01*
X6949Y19089D01*
X6881Y19254D01*
X6755Y19380D01*
X6590Y19449D01*
X6411Y19449D01*
X6246Y19381D01*
X6120Y19255D01*
X6051Y19090D01*
X6051Y18911D01*
X6119Y18746D01*
X6245Y18620D01*
X6410Y18551D01*
X6589Y18551D01*
X6754Y18619D01*
X6880Y18745D01*
X6949Y18910D01*
X6949Y15089D01*
X6881Y15254D01*
X6755Y15380D01*
X6590Y15449D01*
X6411Y15449D01*
X6246Y15381D01*
X6120Y15255D01*
X6051Y15090D01*
X6051Y14911D01*
X6073Y14857D01*
X5470Y14254D01*
X5470Y17906D01*
X5470Y18093D01*
X5399Y18266D01*
X5267Y18398D01*
X5094Y18470D01*
X4907Y18470D01*
X4734Y18399D01*
X4602Y18267D01*
X4530Y18094D01*
X4530Y17907D01*
X4601Y17734D01*
X4733Y17602D01*
X4906Y17530D01*
X5093Y17530D01*
X5266Y17601D01*
X5398Y17733D01*
X5470Y17906D01*
X5470Y14254D01*
X5449Y14233D01*
X5449Y15410D01*
X5449Y15589D01*
X5449Y16910D01*
X5449Y17089D01*
X5381Y17254D01*
X5255Y17380D01*
X5090Y17449D01*
X4911Y17449D01*
X4746Y17381D01*
X4620Y17255D01*
X4551Y17090D01*
X4551Y16911D01*
X4619Y16746D01*
X4745Y16620D01*
X4910Y16551D01*
X5089Y16551D01*
X5254Y16619D01*
X5380Y16745D01*
X5449Y16910D01*
X5449Y15589D01*
X5381Y15754D01*
X5255Y15880D01*
X5090Y15949D01*
X4911Y15949D01*
X4746Y15881D01*
X4620Y15755D01*
X4551Y15590D01*
X4551Y15411D01*
X4619Y15246D01*
X4745Y15120D01*
X4910Y15051D01*
X5089Y15051D01*
X5254Y15119D01*
X5380Y15245D01*
X5449Y15410D01*
X5449Y14233D01*
X5417Y14200D01*
X4877Y14200D01*
X4861Y14240D01*
X4741Y14360D01*
X4585Y14425D01*
X4470Y14425D01*
X4470Y17906D01*
X4470Y18093D01*
X4399Y18266D01*
X4267Y18398D01*
X4094Y18470D01*
X3907Y18470D01*
X3734Y18399D01*
X3602Y18267D01*
X3530Y18094D01*
X3530Y17907D01*
X3601Y17734D01*
X3733Y17602D01*
X3906Y17530D01*
X4093Y17530D01*
X4266Y17601D01*
X4398Y17733D01*
X4470Y17906D01*
X4470Y14425D01*
X4449Y14425D01*
X4449Y16910D01*
X4449Y17089D01*
X4381Y17254D01*
X4255Y17380D01*
X4090Y17449D01*
X3911Y17449D01*
X3746Y17381D01*
X3620Y17255D01*
X3551Y17090D01*
X3551Y16911D01*
X3573Y16857D01*
X1859Y15141D01*
X1815Y15077D01*
X1800Y15000D01*
X1800Y14378D01*
X1760Y14361D01*
X1640Y14241D01*
X1575Y14085D01*
X1575Y13916D01*
X1639Y13760D01*
X1759Y13640D01*
X1915Y13575D01*
X2084Y13575D01*
X2125Y13593D01*
X2300Y13418D01*
X2300Y12878D01*
X2260Y12861D01*
X2140Y12741D01*
X2075Y12585D01*
X2075Y12416D01*
X2139Y12260D01*
X2259Y12140D01*
X2415Y12075D01*
X2584Y12075D01*
X2740Y12139D01*
X2860Y12259D01*
X2925Y12415D01*
X2925Y12584D01*
X2861Y12740D01*
X2741Y12860D01*
X2700Y12878D01*
X2700Y13500D01*
X2685Y13576D01*
X2685Y13577D01*
X2641Y13641D01*
X2407Y13875D01*
X2425Y13915D01*
X2425Y14084D01*
X2361Y14240D01*
X2241Y14360D01*
X2200Y14378D01*
X2200Y14918D01*
X3856Y16574D01*
X3910Y16551D01*
X4089Y16551D01*
X4254Y16619D01*
X4380Y16745D01*
X4449Y16910D01*
X4449Y14425D01*
X4416Y14425D01*
X4260Y14361D01*
X4140Y14241D01*
X4075Y14085D01*
X4075Y13916D01*
X4139Y13760D01*
X4259Y13640D01*
X4415Y13575D01*
X4584Y13575D01*
X4740Y13639D01*
X4860Y13759D01*
X4877Y13800D01*
X5500Y13800D01*
X5500Y13801D01*
X5576Y13815D01*
X5577Y13815D01*
X5641Y13859D01*
X6356Y14574D01*
X6410Y14551D01*
X6589Y14551D01*
X6754Y14619D01*
X6880Y14745D01*
X6949Y14910D01*
X6949Y13732D01*
X6859Y13641D01*
X6815Y13577D01*
X6800Y13500D01*
X6800Y10750D01*
X6815Y10673D01*
X6859Y10609D01*
X7300Y10168D01*
X7300Y4260D01*
X7225Y4185D01*
X7175Y4065D01*
X7175Y3936D01*
X7224Y3816D01*
X7315Y3725D01*
X7435Y3675D01*
X7564Y3675D01*
X7684Y3724D01*
X7775Y3815D01*
X7825Y3935D01*
X7825Y4064D01*
X7776Y4184D01*
X7700Y4260D01*
X7700Y10250D01*
X7685Y10326D01*
X7685Y10327D01*
X7641Y10391D01*
X7200Y10832D01*
X7200Y13418D01*
X7832Y14050D01*
X8250Y14050D01*
X8250Y14051D01*
X8326Y14065D01*
X8327Y14065D01*
X8391Y14109D01*
X8641Y14358D01*
X8641Y14359D01*
X8685Y14423D01*
X8699Y14500D01*
X8700Y14500D01*
X8700Y17240D01*
X8775Y17315D01*
X8825Y17435D01*
X8825Y17342D01*
X8815Y17327D01*
X8800Y17250D01*
X8800Y10000D01*
X8815Y9923D01*
X8859Y9859D01*
X9300Y9418D01*
X9300Y9250D01*
X9300Y8333D01*
X9167Y8200D01*
X9081Y8200D01*
X9081Y9102D01*
X8998Y9317D01*
X8983Y9339D01*
X8880Y9366D01*
X8866Y9352D01*
X8866Y9380D01*
X8839Y9483D01*
X8628Y9576D01*
X8475Y9580D01*
X8475Y11905D01*
X8475Y12094D01*
X8474Y12097D01*
X8474Y12646D01*
X8474Y12705D01*
X8474Y13355D01*
X8451Y13410D01*
X8409Y13452D01*
X8354Y13474D01*
X8295Y13474D01*
X7645Y13474D01*
X7590Y13451D01*
X7548Y13409D01*
X7526Y13354D01*
X7526Y13295D01*
X7526Y12645D01*
X7549Y12590D01*
X7591Y12548D01*
X7646Y12526D01*
X7705Y12526D01*
X8355Y12526D01*
X8410Y12549D01*
X8452Y12591D01*
X8474Y12646D01*
X8474Y12097D01*
X8403Y12269D01*
X8269Y12402D01*
X8095Y12475D01*
X7906Y12475D01*
X7731Y12403D01*
X7598Y12269D01*
X7525Y12095D01*
X7525Y11906D01*
X7597Y11731D01*
X7731Y11598D01*
X7905Y11525D01*
X8094Y11525D01*
X8269Y11597D01*
X8402Y11731D01*
X8475Y11905D01*
X8475Y9580D01*
X8398Y9581D01*
X8183Y9498D01*
X8161Y9483D01*
X8134Y9380D01*
X8500Y9014D01*
X8866Y9380D01*
X8866Y9352D01*
X8514Y9000D01*
X8880Y8634D01*
X8983Y8661D01*
X9076Y8872D01*
X9081Y9102D01*
X9081Y8200D01*
X8936Y8200D01*
X8907Y8271D01*
X8772Y8407D01*
X8675Y8448D01*
X8817Y8502D01*
X8839Y8517D01*
X8866Y8620D01*
X8500Y8986D01*
X8486Y8972D01*
X8486Y9000D01*
X8120Y9366D01*
X8017Y9339D01*
X7924Y9128D01*
X7919Y8898D01*
X8002Y8683D01*
X8017Y8661D01*
X8120Y8634D01*
X8486Y9000D01*
X8486Y8972D01*
X8134Y8620D01*
X8161Y8517D01*
X8322Y8446D01*
X8229Y8407D01*
X8093Y8272D01*
X8020Y8096D01*
X8020Y7905D01*
X8093Y7729D01*
X8228Y7593D01*
X8404Y7520D01*
X8595Y7520D01*
X8771Y7593D01*
X8907Y7728D01*
X8936Y7800D01*
X9250Y7800D01*
X9250Y7801D01*
X9326Y7815D01*
X9327Y7815D01*
X9391Y7859D01*
X9641Y8108D01*
X9641Y8109D01*
X9685Y8173D01*
X9699Y8250D01*
X9700Y8250D01*
X9700Y9250D01*
X9700Y9500D01*
X9685Y9576D01*
X9685Y9577D01*
X9641Y9641D01*
X9200Y10082D01*
X9200Y10125D01*
X9224Y10066D01*
X9315Y9975D01*
X9435Y9925D01*
X9564Y9925D01*
X9684Y9974D01*
X9775Y10065D01*
X9800Y10125D01*
X9800Y3260D01*
X9725Y3185D01*
X9675Y3065D01*
X9675Y2936D01*
X9724Y2816D01*
X9815Y2725D01*
X9935Y2675D01*
X10064Y2675D01*
X10184Y2724D01*
X10275Y2815D01*
X10325Y2935D01*
X10325Y3064D01*
X10276Y3184D01*
X10200Y3260D01*
X10200Y14168D01*
X10582Y14550D01*
X11000Y14550D01*
X11000Y14551D01*
X11076Y14565D01*
X11077Y14565D01*
X11141Y14609D01*
X11623Y15091D01*
X11740Y15139D01*
X11860Y15259D01*
X11925Y15415D01*
X11925Y15584D01*
X11861Y15740D01*
X11741Y15860D01*
X11585Y15925D01*
X11416Y15925D01*
X11260Y15861D01*
X11140Y15741D01*
X11075Y15585D01*
X11075Y15416D01*
X11139Y15260D01*
X11183Y15216D01*
X10918Y14950D01*
X10500Y14950D01*
X10423Y14935D01*
X10359Y14891D01*
X9859Y14391D01*
X9815Y14327D01*
X9800Y14250D01*
X9800Y10376D01*
X9776Y10434D01*
X9700Y10510D01*
X9700Y17050D01*
X12500Y17050D01*
X12500Y17051D01*
X12576Y17065D01*
X12577Y17065D01*
X12641Y17109D01*
X13624Y18092D01*
X13740Y18139D01*
X13860Y18259D01*
X13925Y18415D01*
X13925Y16700D01*
X11000Y16700D01*
X10923Y16685D01*
X10859Y16641D01*
X10359Y16141D01*
X10315Y16077D01*
X10300Y16000D01*
X10300Y15924D01*
X10195Y15924D01*
X10140Y15901D01*
X10098Y15859D01*
X10076Y15804D01*
X10076Y15745D01*
X10076Y15195D01*
X10099Y15140D01*
X10141Y15098D01*
X10196Y15076D01*
X10255Y15076D01*
X10805Y15076D01*
X10860Y15099D01*
X10902Y15141D01*
X10924Y15196D01*
X10924Y15255D01*
X10924Y15805D01*
X10901Y15860D01*
X10859Y15902D01*
X10804Y15924D01*
X10745Y15924D01*
X10706Y15924D01*
X11082Y16300D01*
X15500Y16300D01*
X17740Y16300D01*
X17815Y16225D01*
X17935Y16175D01*
X18064Y16175D01*
X18184Y16224D01*
X18275Y16315D01*
X18325Y16435D01*
X18325Y15888D01*
X18260Y15861D01*
X18140Y15741D01*
X18075Y15585D01*
X18075Y15416D01*
X18139Y15260D01*
X18259Y15140D01*
X18415Y15075D01*
X18584Y15075D01*
X18740Y15139D01*
X18860Y15259D01*
X18925Y15415D01*
X18925Y12958D01*
X18425Y12458D01*
X18425Y12915D01*
X18425Y13084D01*
X18361Y13240D01*
X18241Y13360D01*
X18085Y13425D01*
X17925Y13425D01*
X17925Y14165D01*
X17925Y14334D01*
X17925Y15415D01*
X17925Y15584D01*
X17861Y15740D01*
X17741Y15860D01*
X17585Y15925D01*
X17416Y15925D01*
X17260Y15861D01*
X17140Y15741D01*
X17075Y15585D01*
X17075Y15416D01*
X17139Y15260D01*
X17259Y15140D01*
X17415Y15075D01*
X17584Y15075D01*
X17740Y15139D01*
X17860Y15259D01*
X17925Y15415D01*
X17925Y14334D01*
X17861Y14490D01*
X17741Y14610D01*
X17585Y14675D01*
X17416Y14675D01*
X17260Y14611D01*
X17140Y14491D01*
X17075Y14335D01*
X17075Y14166D01*
X17139Y14010D01*
X17259Y13890D01*
X17415Y13825D01*
X17584Y13825D01*
X17740Y13889D01*
X17860Y14009D01*
X17925Y14165D01*
X17925Y13425D01*
X17916Y13425D01*
X17760Y13361D01*
X17640Y13241D01*
X17575Y13085D01*
X17575Y12916D01*
X17639Y12760D01*
X17759Y12640D01*
X17915Y12575D01*
X18084Y12575D01*
X18240Y12639D01*
X18360Y12759D01*
X18425Y12915D01*
X18425Y12458D01*
X18284Y12317D01*
X18241Y12360D01*
X18085Y12425D01*
X17916Y12425D01*
X17760Y12361D01*
X17640Y12241D01*
X17575Y12085D01*
X17575Y11916D01*
X17639Y11760D01*
X17759Y11640D01*
X17915Y11575D01*
X18084Y11575D01*
X18240Y11639D01*
X18360Y11759D01*
X18409Y11878D01*
X19641Y13108D01*
X19641Y13109D01*
X19685Y13173D01*
X19699Y13249D01*
X19700Y13250D01*
X19700Y14168D01*
X20082Y14550D01*
X23468Y14550D01*
X23318Y14400D01*
X20600Y14400D01*
X20523Y14385D01*
X20458Y14341D01*
X20109Y13991D01*
X20065Y13927D01*
X20050Y13850D01*
X20050Y13750D01*
X20050Y12583D01*
X18667Y11200D01*
X18377Y11200D01*
X18361Y11240D01*
X18241Y11360D01*
X18085Y11425D01*
X17916Y11425D01*
X17760Y11361D01*
X17640Y11241D01*
X17575Y11085D01*
X17575Y10916D01*
X17639Y10760D01*
X17759Y10640D01*
X17915Y10575D01*
X18084Y10575D01*
X18240Y10639D01*
X18360Y10759D01*
X18377Y10800D01*
X18750Y10800D01*
X18750Y10801D01*
X18826Y10815D01*
X18827Y10815D01*
X18891Y10859D01*
X20391Y12358D01*
X20391Y12359D01*
X20435Y12423D01*
X20449Y12500D01*
X20450Y12500D01*
X20450Y13750D01*
X20450Y13768D01*
X20682Y14000D01*
X23400Y14000D01*
X23400Y14001D01*
X23476Y14015D01*
X23477Y14015D01*
X23541Y14059D01*
X23675Y14193D01*
X23675Y14186D01*
X23720Y14075D01*
X23686Y14075D01*
X23566Y14026D01*
X23475Y13935D01*
X23425Y13815D01*
X23425Y13686D01*
X23474Y13566D01*
X23565Y13475D01*
X23685Y13425D01*
X23792Y13425D01*
X24800Y12418D01*
X24800Y10510D01*
X24725Y10435D01*
X24675Y10315D01*
X24675Y10186D01*
X24724Y10066D01*
X24815Y9975D01*
X24935Y9925D01*
X25064Y9925D01*
X25184Y9974D01*
X25275Y10065D01*
X25325Y10185D01*
X25325Y10314D01*
X25276Y10434D01*
X25200Y10510D01*
X25200Y12500D01*
X25199Y12501D01*
X25185Y12577D01*
X25141Y12641D01*
X25141Y12642D01*
X24075Y13708D01*
X24075Y13814D01*
X24029Y13925D01*
X24042Y13925D01*
X25175Y12793D01*
X25175Y12686D01*
X25224Y12566D01*
X25315Y12475D01*
X25435Y12425D01*
X25564Y12425D01*
X25684Y12474D01*
X25775Y12565D01*
X25800Y12625D01*
X25800Y11904D01*
X25746Y11881D01*
X25620Y11755D01*
X25551Y11590D01*
X25551Y11411D01*
X25619Y11246D01*
X25745Y11120D01*
X25910Y11051D01*
X26089Y11051D01*
X26254Y11119D01*
X26380Y11245D01*
X26403Y11300D01*
X27096Y11300D01*
X27119Y11246D01*
X27245Y11120D01*
X27410Y11051D01*
X27589Y11051D01*
X27754Y11119D01*
X27880Y11245D01*
X27949Y11410D01*
X27949Y10700D01*
X27750Y10700D01*
X27500Y10700D01*
X27423Y10685D01*
X27358Y10641D01*
X26109Y9391D01*
X26065Y9327D01*
X26050Y9250D01*
X26050Y2760D01*
X25975Y2685D01*
X25925Y2565D01*
X25925Y2436D01*
X25974Y2316D01*
X26065Y2225D01*
X26185Y2175D01*
X26314Y2175D01*
X26434Y2224D01*
X26525Y2315D01*
X26575Y2435D01*
X26575Y2564D01*
X26526Y2684D01*
X26450Y2760D01*
X26450Y9168D01*
X27582Y10300D01*
X27750Y10300D01*
X30250Y10300D01*
X30250Y10301D01*
X30326Y10315D01*
X30327Y10315D01*
X30391Y10359D01*
X30641Y10608D01*
X30641Y10609D01*
X30685Y10673D01*
X30699Y10750D01*
X30700Y10750D01*
X30700Y11097D01*
X30754Y11119D01*
X30880Y11245D01*
X30949Y11410D01*
X30949Y9732D01*
X30417Y9200D01*
X29936Y9200D01*
X29907Y9271D01*
X29772Y9407D01*
X29596Y9480D01*
X29405Y9480D01*
X29229Y9407D01*
X29093Y9272D01*
X29020Y9096D01*
X29020Y8905D01*
X29093Y8729D01*
X29228Y8593D01*
X29404Y8520D01*
X29595Y8520D01*
X29771Y8593D01*
X29907Y8728D01*
X29936Y8800D01*
X30500Y8800D01*
X30500Y8801D01*
X30576Y8815D01*
X30577Y8815D01*
X30641Y8859D01*
X31391Y9608D01*
X31391Y9609D01*
X31435Y9673D01*
X31449Y9750D01*
X31450Y9750D01*
X31450Y6983D01*
X30059Y5592D01*
X30059Y6345D01*
X30059Y6574D01*
X29980Y6766D01*
X29980Y7904D01*
X29980Y8095D01*
X29907Y8271D01*
X29772Y8407D01*
X29596Y8480D01*
X29405Y8480D01*
X29229Y8407D01*
X29093Y8272D01*
X29020Y8096D01*
X29020Y7905D01*
X29093Y7729D01*
X29228Y7593D01*
X29404Y7520D01*
X29595Y7520D01*
X29771Y7593D01*
X29907Y7728D01*
X29980Y7904D01*
X29980Y6766D01*
X29972Y6785D01*
X29810Y6947D01*
X29599Y7035D01*
X29370Y7035D01*
X29159Y6948D01*
X28997Y6786D01*
X28909Y6575D01*
X28909Y6346D01*
X28996Y6135D01*
X29158Y5973D01*
X29369Y5885D01*
X29598Y5885D01*
X29809Y5972D01*
X29971Y6134D01*
X30059Y6345D01*
X30059Y5592D01*
X27917Y3450D01*
X27760Y3450D01*
X27716Y3494D01*
X27716Y5921D01*
X27841Y5972D01*
X28003Y6134D01*
X28091Y6345D01*
X28091Y6574D01*
X28004Y6785D01*
X27842Y6947D01*
X27631Y7035D01*
X27402Y7035D01*
X27191Y6948D01*
X27029Y6786D01*
X26941Y6575D01*
X26941Y6346D01*
X27028Y6135D01*
X27190Y5973D01*
X27316Y5921D01*
X27316Y3526D01*
X27225Y3435D01*
X27175Y3315D01*
X27175Y3186D01*
X27224Y3066D01*
X27300Y2990D01*
X27300Y2073D01*
X27191Y2028D01*
X27029Y1866D01*
X26941Y1655D01*
X26941Y1426D01*
X27028Y1215D01*
X27190Y1053D01*
X27401Y965D01*
X27630Y965D01*
X27841Y1052D01*
X28003Y1214D01*
X28091Y1425D01*
X28091Y1654D01*
X28004Y1865D01*
X27842Y2027D01*
X27700Y2087D01*
X27700Y2990D01*
X27760Y3050D01*
X28000Y3050D01*
X28000Y3051D01*
X28076Y3065D01*
X28077Y3065D01*
X28141Y3109D01*
X32141Y7108D01*
X32141Y7109D01*
X32185Y7173D01*
X32199Y7249D01*
X32200Y7250D01*
X32200Y8000D01*
X32200Y11097D01*
X32254Y11119D01*
X32380Y11245D01*
X32449Y11410D01*
X32449Y10373D01*
X32425Y10315D01*
X32425Y10186D01*
X32474Y10066D01*
X32565Y9975D01*
X32566Y9975D01*
X32566Y7000D01*
X32441Y6948D01*
X32279Y6786D01*
X32191Y6575D01*
X32191Y6346D01*
X32278Y6135D01*
X32440Y5973D01*
X32566Y5921D01*
X32566Y2080D01*
X32441Y2028D01*
X32279Y1866D01*
X32191Y1655D01*
X32191Y1426D01*
X32278Y1215D01*
X32440Y1053D01*
X32651Y965D01*
X32880Y965D01*
X33091Y1052D01*
X33253Y1214D01*
X33341Y1425D01*
X33341Y550D01*
X30059Y550D01*
X30059Y1425D01*
X30059Y1654D01*
X29972Y1865D01*
X29810Y2027D01*
X29599Y2115D01*
X29370Y2115D01*
X29159Y2028D01*
X28997Y1866D01*
X28909Y1655D01*
X28909Y1426D01*
X28996Y1215D01*
X29158Y1053D01*
X29369Y965D01*
X29598Y965D01*
X29809Y1052D01*
X29971Y1214D01*
X30059Y1425D01*
X30059Y550D01*
X24831Y550D01*
X24831Y9102D01*
X24748Y9317D01*
X24733Y9339D01*
X24630Y9366D01*
X24616Y9352D01*
X24616Y9380D01*
X24589Y9483D01*
X24575Y9490D01*
X24575Y12185D01*
X24575Y12314D01*
X24526Y12434D01*
X24435Y12525D01*
X24315Y12575D01*
X24186Y12575D01*
X24066Y12526D01*
X23975Y12435D01*
X23925Y12315D01*
X23925Y12186D01*
X23974Y12066D01*
X24050Y11990D01*
X24050Y10083D01*
X23925Y9958D01*
X23925Y10415D01*
X23925Y10584D01*
X23925Y11415D01*
X23925Y11584D01*
X23861Y11740D01*
X23741Y11860D01*
X23585Y11925D01*
X23416Y11925D01*
X23374Y11908D01*
X23200Y12082D01*
X23200Y13118D01*
X23243Y13135D01*
X23364Y13256D01*
X23430Y13414D01*
X23430Y13585D01*
X23365Y13743D01*
X23244Y13864D01*
X23086Y13930D01*
X22915Y13930D01*
X22757Y13865D01*
X22636Y13744D01*
X22570Y13586D01*
X22570Y13415D01*
X22635Y13257D01*
X22756Y13136D01*
X22800Y13118D01*
X22800Y12000D01*
X22815Y11923D01*
X22859Y11859D01*
X23092Y11626D01*
X23075Y11585D01*
X23075Y11416D01*
X23139Y11260D01*
X23259Y11140D01*
X23415Y11075D01*
X23584Y11075D01*
X23740Y11139D01*
X23860Y11259D01*
X23925Y11415D01*
X23925Y10584D01*
X23861Y10740D01*
X23741Y10860D01*
X23585Y10925D01*
X23416Y10925D01*
X23260Y10861D01*
X23140Y10741D01*
X23075Y10585D01*
X23075Y10416D01*
X23139Y10260D01*
X23259Y10140D01*
X23415Y10075D01*
X23584Y10075D01*
X23740Y10139D01*
X23860Y10259D01*
X23925Y10415D01*
X23925Y9958D01*
X23917Y9950D01*
X23500Y9950D01*
X23423Y9935D01*
X23358Y9891D01*
X23109Y9641D01*
X23065Y9577D01*
X23050Y9500D01*
X23050Y8500D01*
X23050Y5583D01*
X22859Y5391D01*
X22815Y5327D01*
X22800Y5250D01*
X22800Y4260D01*
X22725Y4185D01*
X22675Y4065D01*
X22675Y3936D01*
X22724Y3816D01*
X22815Y3725D01*
X22935Y3675D01*
X23064Y3675D01*
X23184Y3724D01*
X23275Y3815D01*
X23325Y3935D01*
X23325Y4064D01*
X23276Y4184D01*
X23200Y4260D01*
X23200Y5168D01*
X23391Y5358D01*
X23391Y5359D01*
X23435Y5423D01*
X23449Y5500D01*
X23450Y5500D01*
X23450Y8500D01*
X23450Y9418D01*
X23582Y9550D01*
X24000Y9550D01*
X24000Y9551D01*
X24076Y9565D01*
X24077Y9565D01*
X24141Y9609D01*
X24391Y9858D01*
X24391Y9859D01*
X24435Y9923D01*
X24449Y10000D01*
X24450Y10000D01*
X24450Y11990D01*
X24525Y12065D01*
X24575Y12185D01*
X24575Y9490D01*
X24378Y9576D01*
X24148Y9581D01*
X23933Y9498D01*
X23911Y9483D01*
X23884Y9380D01*
X24250Y9014D01*
X24616Y9380D01*
X24616Y9352D01*
X24264Y9000D01*
X24630Y8634D01*
X24733Y8661D01*
X24826Y8872D01*
X24831Y9102D01*
X24831Y550D01*
X24809Y550D01*
X24809Y1425D01*
X24809Y1654D01*
X24809Y6345D01*
X24809Y6574D01*
X24730Y6766D01*
X24730Y7904D01*
X24730Y8095D01*
X24657Y8271D01*
X24522Y8407D01*
X24425Y8448D01*
X24567Y8502D01*
X24589Y8517D01*
X24616Y8620D01*
X24250Y8986D01*
X24236Y8972D01*
X24236Y9000D01*
X23870Y9366D01*
X23767Y9339D01*
X23674Y9128D01*
X23669Y8898D01*
X23752Y8683D01*
X23767Y8661D01*
X23870Y8634D01*
X24236Y9000D01*
X24236Y8972D01*
X23884Y8620D01*
X23911Y8517D01*
X24072Y8446D01*
X23979Y8407D01*
X23843Y8272D01*
X23770Y8096D01*
X23770Y7905D01*
X23843Y7729D01*
X23978Y7593D01*
X24154Y7520D01*
X24345Y7520D01*
X24521Y7593D01*
X24657Y7728D01*
X24730Y7904D01*
X24730Y6766D01*
X24722Y6785D01*
X24560Y6947D01*
X24349Y7035D01*
X24120Y7035D01*
X23909Y6948D01*
X23747Y6786D01*
X23659Y6575D01*
X23659Y6346D01*
X23746Y6135D01*
X23908Y5973D01*
X24119Y5885D01*
X24348Y5885D01*
X24559Y5972D01*
X24721Y6134D01*
X24809Y6345D01*
X24809Y1654D01*
X24722Y1865D01*
X24560Y2027D01*
X24349Y2115D01*
X24120Y2115D01*
X23909Y2028D01*
X23747Y1866D01*
X23659Y1655D01*
X23659Y1426D01*
X23746Y1215D01*
X23908Y1053D01*
X24119Y965D01*
X24348Y965D01*
X24559Y1052D01*
X24721Y1214D01*
X24809Y1425D01*
X24809Y550D01*
X22841Y550D01*
X22841Y1425D01*
X22841Y1654D01*
X22754Y1865D01*
X22592Y2027D01*
X22450Y2087D01*
X22450Y4490D01*
X22525Y4565D01*
X22575Y4685D01*
X22575Y4814D01*
X22526Y4934D01*
X22466Y4994D01*
X22466Y5921D01*
X22591Y5972D01*
X22753Y6134D01*
X22841Y6345D01*
X22841Y6574D01*
X22754Y6785D01*
X22592Y6947D01*
X22425Y7017D01*
X22425Y10415D01*
X22425Y10584D01*
X22425Y11415D01*
X22425Y11584D01*
X22361Y11740D01*
X22241Y11860D01*
X22200Y11878D01*
X22200Y12500D01*
X22185Y12577D01*
X22141Y12641D01*
X22141Y12642D01*
X21411Y13371D01*
X21430Y13414D01*
X21430Y13585D01*
X21365Y13743D01*
X21244Y13864D01*
X21086Y13930D01*
X20915Y13930D01*
X20757Y13865D01*
X20636Y13744D01*
X20570Y13586D01*
X20570Y13415D01*
X20635Y13257D01*
X20756Y13136D01*
X20914Y13070D01*
X21085Y13070D01*
X21129Y13089D01*
X21800Y12418D01*
X21800Y11878D01*
X21760Y11861D01*
X21640Y11741D01*
X21575Y11585D01*
X21575Y11416D01*
X21639Y11260D01*
X21759Y11140D01*
X21915Y11075D01*
X22084Y11075D01*
X22240Y11139D01*
X22360Y11259D01*
X22425Y11415D01*
X22425Y10584D01*
X22361Y10740D01*
X22241Y10860D01*
X22085Y10925D01*
X21916Y10925D01*
X21760Y10861D01*
X21640Y10741D01*
X21575Y10585D01*
X21575Y10416D01*
X21639Y10260D01*
X21759Y10140D01*
X21915Y10075D01*
X22084Y10075D01*
X22240Y10139D01*
X22360Y10259D01*
X22425Y10415D01*
X22425Y7017D01*
X22381Y7035D01*
X22152Y7035D01*
X21941Y6948D01*
X21779Y6786D01*
X21691Y6575D01*
X21691Y6346D01*
X21778Y6135D01*
X21940Y5973D01*
X22066Y5921D01*
X22066Y5026D01*
X21975Y4935D01*
X21925Y4815D01*
X21925Y4686D01*
X21974Y4566D01*
X22050Y4490D01*
X22050Y2073D01*
X21941Y2028D01*
X21779Y1866D01*
X21691Y1655D01*
X21691Y1426D01*
X21778Y1215D01*
X21940Y1053D01*
X22151Y965D01*
X22380Y965D01*
X22591Y1052D01*
X22753Y1214D01*
X22841Y1425D01*
X22841Y550D01*
X21575Y550D01*
X21575Y3185D01*
X21575Y3314D01*
X21526Y3434D01*
X21450Y3510D01*
X21450Y5250D01*
X21450Y6990D01*
X21525Y7065D01*
X21575Y7185D01*
X21575Y7314D01*
X21526Y7434D01*
X21435Y7525D01*
X21315Y7575D01*
X21186Y7575D01*
X21066Y7526D01*
X21025Y7485D01*
X21025Y10593D01*
X20950Y10787D01*
X20938Y10806D01*
X20925Y10809D01*
X20925Y11415D01*
X20925Y11584D01*
X20861Y11740D01*
X20741Y11860D01*
X20585Y11925D01*
X20416Y11925D01*
X20260Y11861D01*
X20140Y11741D01*
X20075Y11585D01*
X20075Y11416D01*
X20139Y11260D01*
X20259Y11140D01*
X20415Y11075D01*
X20584Y11075D01*
X20740Y11139D01*
X20860Y11259D01*
X20925Y11415D01*
X20925Y10809D01*
X20841Y10827D01*
X20827Y10813D01*
X20827Y10841D01*
X20806Y10938D01*
X20615Y11021D01*
X20407Y11025D01*
X20213Y10950D01*
X20194Y10938D01*
X20173Y10841D01*
X20500Y10514D01*
X20827Y10841D01*
X20827Y10813D01*
X20514Y10500D01*
X20841Y10173D01*
X20938Y10194D01*
X21021Y10385D01*
X21025Y10593D01*
X21025Y7485D01*
X20975Y7435D01*
X20925Y7315D01*
X20925Y7186D01*
X20974Y7066D01*
X21050Y6990D01*
X21050Y5250D01*
X21050Y3510D01*
X20975Y3435D01*
X20925Y3315D01*
X20925Y3186D01*
X20974Y3066D01*
X21065Y2975D01*
X21185Y2925D01*
X21314Y2925D01*
X21434Y2974D01*
X21525Y3065D01*
X21575Y3185D01*
X21575Y550D01*
X20827Y550D01*
X20827Y10159D01*
X20500Y10486D01*
X20486Y10472D01*
X20486Y10500D01*
X20159Y10827D01*
X20062Y10806D01*
X19979Y10615D01*
X19975Y10407D01*
X20050Y10213D01*
X20062Y10194D01*
X20159Y10173D01*
X20486Y10500D01*
X20486Y10472D01*
X20173Y10159D01*
X20194Y10062D01*
X20385Y9979D01*
X20593Y9975D01*
X20787Y10050D01*
X20806Y10062D01*
X20827Y10159D01*
X20827Y550D01*
X19559Y550D01*
X19559Y1425D01*
X19559Y1654D01*
X19559Y6345D01*
X19559Y6574D01*
X19480Y6766D01*
X19480Y7904D01*
X19480Y8095D01*
X19480Y8904D01*
X19480Y9095D01*
X19407Y9271D01*
X19272Y9407D01*
X19096Y9480D01*
X18905Y9480D01*
X18729Y9407D01*
X18593Y9272D01*
X18525Y9109D01*
X18525Y9928D01*
X18525Y10072D01*
X18524Y10324D01*
X18486Y10416D01*
X18416Y10486D01*
X18325Y10524D01*
X18226Y10524D01*
X18072Y10525D01*
X18010Y10463D01*
X18010Y10010D01*
X18463Y10010D01*
X18525Y10072D01*
X18525Y9928D01*
X18463Y9990D01*
X18010Y9990D01*
X18010Y9537D01*
X18072Y9475D01*
X18226Y9476D01*
X18325Y9476D01*
X18416Y9514D01*
X18486Y9584D01*
X18524Y9676D01*
X18525Y9928D01*
X18525Y9109D01*
X18520Y9096D01*
X18520Y8905D01*
X18593Y8729D01*
X18728Y8593D01*
X18904Y8520D01*
X19095Y8520D01*
X19271Y8593D01*
X19407Y8728D01*
X19480Y8904D01*
X19480Y8095D01*
X19407Y8271D01*
X19272Y8407D01*
X19096Y8480D01*
X18905Y8480D01*
X18729Y8407D01*
X18593Y8272D01*
X18520Y8096D01*
X18520Y7905D01*
X18593Y7729D01*
X18728Y7593D01*
X18904Y7520D01*
X19095Y7520D01*
X19271Y7593D01*
X19407Y7728D01*
X19480Y7904D01*
X19480Y6766D01*
X19472Y6785D01*
X19310Y6947D01*
X19099Y7035D01*
X18870Y7035D01*
X18659Y6948D01*
X18497Y6786D01*
X18409Y6575D01*
X18409Y6346D01*
X18496Y6135D01*
X18658Y5973D01*
X18869Y5885D01*
X19098Y5885D01*
X19309Y5972D01*
X19471Y6134D01*
X19559Y6345D01*
X19559Y1654D01*
X19472Y1865D01*
X19310Y2027D01*
X19099Y2115D01*
X18870Y2115D01*
X18659Y2028D01*
X18497Y1866D01*
X18409Y1655D01*
X18409Y1426D01*
X18496Y1215D01*
X18658Y1053D01*
X18869Y965D01*
X19098Y965D01*
X19309Y1052D01*
X19471Y1214D01*
X19559Y1425D01*
X19559Y550D01*
X17990Y550D01*
X17990Y9537D01*
X17990Y9990D01*
X17990Y10010D01*
X17990Y10463D01*
X17928Y10525D01*
X17774Y10524D01*
X17675Y10524D01*
X17584Y10486D01*
X17514Y10416D01*
X17476Y10324D01*
X17475Y10072D01*
X17537Y10010D01*
X17990Y10010D01*
X17990Y9990D01*
X17537Y9990D01*
X17475Y9928D01*
X17476Y9676D01*
X17514Y9584D01*
X17584Y9514D01*
X17675Y9476D01*
X17774Y9476D01*
X17928Y9475D01*
X17990Y9537D01*
X17990Y550D01*
X17591Y550D01*
X17591Y1425D01*
X17591Y1654D01*
X17504Y1865D01*
X17342Y2027D01*
X17216Y2080D01*
X17216Y2256D01*
X17275Y2315D01*
X17325Y2435D01*
X17325Y2564D01*
X17276Y2684D01*
X17216Y2744D01*
X17216Y5921D01*
X17341Y5972D01*
X17503Y6134D01*
X17591Y6345D01*
X17591Y6574D01*
X17504Y6785D01*
X17342Y6947D01*
X17325Y6955D01*
X17325Y7435D01*
X17325Y7564D01*
X17276Y7684D01*
X17200Y7760D01*
X17200Y12750D01*
X17185Y12827D01*
X17141Y12891D01*
X17141Y12892D01*
X17025Y13008D01*
X17025Y14343D01*
X17025Y15593D01*
X16950Y15787D01*
X16938Y15806D01*
X16841Y15827D01*
X16827Y15813D01*
X16827Y15841D01*
X16806Y15938D01*
X16615Y16021D01*
X16407Y16025D01*
X16213Y15950D01*
X16194Y15938D01*
X16173Y15841D01*
X16500Y15514D01*
X16827Y15841D01*
X16827Y15813D01*
X16514Y15500D01*
X16841Y15173D01*
X16938Y15194D01*
X17021Y15385D01*
X17025Y15593D01*
X17025Y14343D01*
X16950Y14537D01*
X16938Y14556D01*
X16841Y14577D01*
X16827Y14563D01*
X16827Y14591D01*
X16827Y15159D01*
X16500Y15486D01*
X16486Y15472D01*
X16486Y15500D01*
X16159Y15827D01*
X16062Y15806D01*
X15979Y15615D01*
X15975Y15407D01*
X16050Y15213D01*
X16062Y15194D01*
X16159Y15173D01*
X16486Y15500D01*
X16486Y15472D01*
X16173Y15159D01*
X16194Y15062D01*
X16385Y14979D01*
X16593Y14975D01*
X16787Y15050D01*
X16806Y15062D01*
X16827Y15159D01*
X16827Y14591D01*
X16806Y14688D01*
X16615Y14771D01*
X16407Y14775D01*
X16213Y14700D01*
X16194Y14688D01*
X16173Y14591D01*
X16500Y14264D01*
X16827Y14591D01*
X16827Y14563D01*
X16514Y14250D01*
X16841Y13923D01*
X16938Y13944D01*
X17021Y14135D01*
X17025Y14343D01*
X17025Y13008D01*
X16240Y13792D01*
X16385Y13729D01*
X16593Y13725D01*
X16787Y13800D01*
X16806Y13812D01*
X16827Y13909D01*
X16535Y14201D01*
X16500Y14236D01*
X16486Y14250D01*
X16451Y14285D01*
X16159Y14577D01*
X16062Y14556D01*
X15979Y14365D01*
X15975Y14157D01*
X16037Y13995D01*
X15700Y14333D01*
X15700Y15123D01*
X15740Y15139D01*
X15860Y15259D01*
X15925Y15415D01*
X15925Y15584D01*
X15861Y15740D01*
X15741Y15860D01*
X15585Y15925D01*
X15416Y15925D01*
X15260Y15861D01*
X15140Y15741D01*
X15075Y15585D01*
X15075Y15416D01*
X15139Y15260D01*
X15259Y15140D01*
X15300Y15123D01*
X15300Y14250D01*
X15315Y14173D01*
X15359Y14109D01*
X16800Y12668D01*
X16800Y7760D01*
X16725Y7685D01*
X16675Y7565D01*
X16675Y7436D01*
X16724Y7316D01*
X16815Y7225D01*
X16935Y7175D01*
X17064Y7175D01*
X17184Y7224D01*
X17275Y7315D01*
X17325Y7435D01*
X17325Y6955D01*
X17131Y7035D01*
X16902Y7035D01*
X16691Y6948D01*
X16529Y6786D01*
X16450Y6597D01*
X16450Y9000D01*
X16435Y9076D01*
X16435Y9077D01*
X16391Y9141D01*
X15950Y9582D01*
X15950Y13250D01*
X15935Y13326D01*
X15935Y13327D01*
X15891Y13391D01*
X15391Y13891D01*
X15327Y13935D01*
X15250Y13950D01*
X14832Y13950D01*
X14700Y14083D01*
X14700Y15123D01*
X14740Y15139D01*
X14860Y15259D01*
X14925Y15415D01*
X14925Y15584D01*
X14861Y15740D01*
X14741Y15860D01*
X14585Y15925D01*
X14416Y15925D01*
X14260Y15861D01*
X14140Y15741D01*
X14075Y15585D01*
X14075Y15416D01*
X14139Y15260D01*
X14259Y15140D01*
X14300Y15123D01*
X14300Y14000D01*
X14315Y13923D01*
X14359Y13859D01*
X14608Y13609D01*
X14609Y13609D01*
X14673Y13565D01*
X14750Y13550D01*
X15168Y13550D01*
X15550Y13168D01*
X15550Y9500D01*
X15565Y9423D01*
X15609Y9359D01*
X16050Y8918D01*
X16050Y5010D01*
X15975Y4935D01*
X15925Y4815D01*
X15925Y4686D01*
X15974Y4566D01*
X16065Y4475D01*
X16185Y4425D01*
X16314Y4425D01*
X16434Y4474D01*
X16525Y4565D01*
X16575Y4685D01*
X16575Y4814D01*
X16526Y4934D01*
X16450Y5010D01*
X16450Y6325D01*
X16528Y6135D01*
X16690Y5973D01*
X16816Y5921D01*
X16816Y2776D01*
X16725Y2685D01*
X16675Y2565D01*
X16675Y2436D01*
X16724Y2316D01*
X16800Y2240D01*
X16800Y2073D01*
X16691Y2028D01*
X16529Y1866D01*
X16441Y1655D01*
X16441Y1426D01*
X16528Y1215D01*
X16690Y1053D01*
X16901Y965D01*
X17130Y965D01*
X17341Y1052D01*
X17503Y1214D01*
X17591Y1425D01*
X17591Y550D01*
X15825Y550D01*
X15825Y7185D01*
X15825Y7314D01*
X15776Y7434D01*
X15700Y7510D01*
X15700Y8740D01*
X15775Y8815D01*
X15825Y8935D01*
X15825Y9064D01*
X15776Y9184D01*
X15685Y9275D01*
X15565Y9325D01*
X15436Y9325D01*
X15425Y9321D01*
X15425Y9915D01*
X15425Y10084D01*
X15425Y10915D01*
X15425Y11084D01*
X15425Y11915D01*
X15425Y12084D01*
X15425Y12915D01*
X15425Y13084D01*
X15361Y13240D01*
X15241Y13360D01*
X15085Y13425D01*
X14916Y13425D01*
X14760Y13361D01*
X14640Y13241D01*
X14575Y13085D01*
X14575Y12916D01*
X14639Y12760D01*
X14759Y12640D01*
X14915Y12575D01*
X15084Y12575D01*
X15240Y12639D01*
X15360Y12759D01*
X15425Y12915D01*
X15425Y12084D01*
X15361Y12240D01*
X15241Y12360D01*
X15085Y12425D01*
X14916Y12425D01*
X14760Y12361D01*
X14640Y12241D01*
X14575Y12085D01*
X14575Y11916D01*
X14639Y11760D01*
X14759Y11640D01*
X14915Y11575D01*
X15084Y11575D01*
X15240Y11639D01*
X15360Y11759D01*
X15425Y11915D01*
X15425Y11084D01*
X15361Y11240D01*
X15241Y11360D01*
X15085Y11425D01*
X14916Y11425D01*
X14760Y11361D01*
X14640Y11241D01*
X14575Y11085D01*
X14575Y10916D01*
X14639Y10760D01*
X14759Y10640D01*
X14915Y10575D01*
X15084Y10575D01*
X15240Y10639D01*
X15360Y10759D01*
X15425Y10915D01*
X15425Y10084D01*
X15361Y10240D01*
X15241Y10360D01*
X15085Y10425D01*
X14916Y10425D01*
X14760Y10361D01*
X14640Y10241D01*
X14575Y10085D01*
X14575Y9916D01*
X14639Y9760D01*
X14759Y9640D01*
X14915Y9575D01*
X15084Y9575D01*
X15240Y9639D01*
X15360Y9759D01*
X15425Y9915D01*
X15425Y9321D01*
X15316Y9276D01*
X15225Y9185D01*
X15175Y9065D01*
X15175Y8936D01*
X15224Y8816D01*
X15300Y8740D01*
X15300Y7510D01*
X15225Y7435D01*
X15175Y7315D01*
X15175Y7186D01*
X15224Y7066D01*
X15315Y6975D01*
X15435Y6925D01*
X15564Y6925D01*
X15684Y6974D01*
X15775Y7065D01*
X15825Y7185D01*
X15825Y550D01*
X15075Y550D01*
X15075Y6435D01*
X15075Y6564D01*
X15026Y6684D01*
X14950Y6760D01*
X14950Y9250D01*
X14935Y9327D01*
X14891Y9391D01*
X14891Y9392D01*
X14200Y10083D01*
X14200Y13250D01*
X14185Y13326D01*
X14185Y13327D01*
X14141Y13391D01*
X13700Y13832D01*
X13700Y15123D01*
X13740Y15139D01*
X13860Y15259D01*
X13925Y15415D01*
X13925Y15584D01*
X13861Y15740D01*
X13741Y15860D01*
X13585Y15925D01*
X13416Y15925D01*
X13260Y15861D01*
X13140Y15741D01*
X13075Y15585D01*
X13075Y15416D01*
X13139Y15260D01*
X13259Y15140D01*
X13300Y15123D01*
X13300Y13750D01*
X13315Y13673D01*
X13359Y13609D01*
X13800Y13168D01*
X13800Y10000D01*
X13815Y9923D01*
X13859Y9859D01*
X14550Y9168D01*
X14550Y6760D01*
X14475Y6685D01*
X14425Y6565D01*
X14425Y6436D01*
X14474Y6316D01*
X14565Y6225D01*
X14685Y6175D01*
X14814Y6175D01*
X14934Y6224D01*
X15025Y6315D01*
X15075Y6435D01*
X15075Y550D01*
X14309Y550D01*
X14309Y1425D01*
X14309Y1654D01*
X14309Y6345D01*
X14309Y6574D01*
X14230Y6766D01*
X14230Y7904D01*
X14230Y8095D01*
X14230Y8904D01*
X14230Y9095D01*
X14157Y9271D01*
X14022Y9407D01*
X13846Y9480D01*
X13675Y9480D01*
X13675Y11915D01*
X13675Y12084D01*
X13675Y12915D01*
X13675Y13084D01*
X13611Y13240D01*
X13491Y13360D01*
X13335Y13425D01*
X13166Y13425D01*
X13010Y13361D01*
X12925Y13276D01*
X12925Y15415D01*
X12925Y15584D01*
X12861Y15740D01*
X12741Y15860D01*
X12585Y15925D01*
X12416Y15925D01*
X12260Y15861D01*
X12140Y15741D01*
X12075Y15585D01*
X12075Y15416D01*
X12091Y15375D01*
X11359Y14641D01*
X11315Y14577D01*
X11300Y14500D01*
X11300Y6807D01*
X11279Y6786D01*
X11199Y6595D01*
X11199Y9910D01*
X11199Y10089D01*
X11199Y13910D01*
X11199Y14089D01*
X11131Y14254D01*
X11005Y14380D01*
X10840Y14449D01*
X10661Y14449D01*
X10496Y14381D01*
X10370Y14255D01*
X10301Y14090D01*
X10301Y13911D01*
X10369Y13746D01*
X10495Y13620D01*
X10660Y13551D01*
X10839Y13551D01*
X11004Y13619D01*
X11130Y13745D01*
X11199Y13910D01*
X11199Y10089D01*
X11131Y10254D01*
X11005Y10380D01*
X10840Y10449D01*
X10661Y10449D01*
X10496Y10381D01*
X10370Y10255D01*
X10301Y10090D01*
X10301Y9911D01*
X10369Y9746D01*
X10495Y9620D01*
X10660Y9551D01*
X10839Y9551D01*
X11004Y9619D01*
X11130Y9745D01*
X11199Y9910D01*
X11199Y6595D01*
X11191Y6575D01*
X11191Y6346D01*
X11278Y6135D01*
X11440Y5973D01*
X11566Y5921D01*
X11566Y2080D01*
X11441Y2028D01*
X11279Y1866D01*
X11191Y1655D01*
X11191Y1426D01*
X11278Y1215D01*
X11440Y1053D01*
X11651Y965D01*
X11880Y965D01*
X12091Y1052D01*
X12253Y1214D01*
X12341Y1425D01*
X12341Y1654D01*
X12254Y1865D01*
X12092Y2027D01*
X11966Y2080D01*
X11966Y5921D01*
X12091Y5972D01*
X12253Y6134D01*
X12341Y6345D01*
X12341Y6574D01*
X12254Y6785D01*
X12092Y6947D01*
X11881Y7035D01*
X11700Y7035D01*
X11700Y7375D01*
X11724Y7316D01*
X11815Y7225D01*
X11935Y7175D01*
X12064Y7175D01*
X12184Y7224D01*
X12275Y7315D01*
X12325Y7435D01*
X12325Y7564D01*
X12276Y7684D01*
X12200Y7760D01*
X12200Y8740D01*
X12275Y8815D01*
X12325Y8935D01*
X12325Y9064D01*
X12276Y9184D01*
X12185Y9275D01*
X12065Y9325D01*
X11936Y9325D01*
X11816Y9276D01*
X11725Y9185D01*
X11700Y9125D01*
X11700Y9533D01*
X11878Y9454D01*
X12097Y9449D01*
X12301Y9528D01*
X12321Y9542D01*
X12344Y9641D01*
X12035Y9951D01*
X12000Y9986D01*
X11986Y10000D01*
X12000Y10014D01*
X12035Y10049D01*
X12034Y10050D01*
X12344Y10359D01*
X12321Y10458D01*
X12122Y10546D01*
X11903Y10551D01*
X11700Y10473D01*
X11700Y11875D01*
X11724Y11816D01*
X11815Y11725D01*
X11935Y11675D01*
X12064Y11675D01*
X12184Y11724D01*
X12275Y11815D01*
X12325Y11935D01*
X12325Y12064D01*
X12276Y12184D01*
X12200Y12260D01*
X12200Y13597D01*
X12254Y13619D01*
X12380Y13745D01*
X12449Y13910D01*
X12449Y14089D01*
X12381Y14254D01*
X12255Y14380D01*
X12090Y14449D01*
X11911Y14449D01*
X11746Y14381D01*
X11700Y14335D01*
X11700Y14418D01*
X12374Y15092D01*
X12415Y15075D01*
X12584Y15075D01*
X12740Y15139D01*
X12860Y15259D01*
X12925Y15415D01*
X12925Y13276D01*
X12890Y13241D01*
X12825Y13085D01*
X12825Y12916D01*
X12889Y12760D01*
X13009Y12640D01*
X13165Y12575D01*
X13334Y12575D01*
X13490Y12639D01*
X13610Y12759D01*
X13675Y12915D01*
X13675Y12084D01*
X13611Y12240D01*
X13491Y12360D01*
X13335Y12425D01*
X13166Y12425D01*
X13010Y12361D01*
X12890Y12241D01*
X12825Y12085D01*
X12825Y11916D01*
X12889Y11760D01*
X13009Y11640D01*
X13165Y11575D01*
X13334Y11575D01*
X13490Y11639D01*
X13610Y11759D01*
X13675Y11915D01*
X13675Y9480D01*
X13655Y9480D01*
X13479Y9407D01*
X13343Y9272D01*
X13270Y9096D01*
X13270Y8905D01*
X13343Y8729D01*
X13478Y8593D01*
X13654Y8520D01*
X13845Y8520D01*
X14021Y8593D01*
X14157Y8728D01*
X14230Y8904D01*
X14230Y8095D01*
X14157Y8271D01*
X14022Y8407D01*
X13846Y8480D01*
X13655Y8480D01*
X13479Y8407D01*
X13343Y8272D01*
X13270Y8096D01*
X13270Y7905D01*
X13343Y7729D01*
X13478Y7593D01*
X13654Y7520D01*
X13845Y7520D01*
X14021Y7593D01*
X14157Y7728D01*
X14230Y7904D01*
X14230Y6766D01*
X14222Y6785D01*
X14060Y6947D01*
X13849Y7035D01*
X13620Y7035D01*
X13409Y6948D01*
X13247Y6786D01*
X13159Y6575D01*
X13159Y6346D01*
X13246Y6135D01*
X13408Y5973D01*
X13619Y5885D01*
X13848Y5885D01*
X14059Y5972D01*
X14221Y6134D01*
X14309Y6345D01*
X14309Y1654D01*
X14222Y1865D01*
X14060Y2027D01*
X13849Y2115D01*
X13620Y2115D01*
X13409Y2028D01*
X13247Y1866D01*
X13159Y1655D01*
X13159Y1426D01*
X13246Y1215D01*
X13408Y1053D01*
X13619Y965D01*
X13848Y965D01*
X14059Y1052D01*
X14221Y1214D01*
X14309Y1425D01*
X14309Y550D01*
X12551Y550D01*
X12551Y10097D01*
X12472Y10301D01*
X12458Y10321D01*
X12359Y10344D01*
X12014Y10000D01*
X12359Y9656D01*
X12458Y9679D01*
X12546Y9878D01*
X12551Y10097D01*
X12551Y550D01*
X9059Y550D01*
X9059Y1425D01*
X9059Y1654D01*
X9059Y6345D01*
X9059Y6574D01*
X8972Y6785D01*
X8810Y6947D01*
X8599Y7035D01*
X8370Y7035D01*
X8159Y6948D01*
X7997Y6786D01*
X7909Y6575D01*
X7909Y6346D01*
X7996Y6135D01*
X8158Y5973D01*
X8369Y5885D01*
X8598Y5885D01*
X8809Y5972D01*
X8971Y6134D01*
X9059Y6345D01*
X9059Y1654D01*
X8972Y1865D01*
X8810Y2027D01*
X8599Y2115D01*
X8370Y2115D01*
X8159Y2028D01*
X7997Y1866D01*
X7909Y1655D01*
X7909Y1426D01*
X7996Y1215D01*
X8158Y1053D01*
X8369Y965D01*
X8598Y965D01*
X8809Y1052D01*
X8971Y1214D01*
X9059Y1425D01*
X9059Y550D01*
X7091Y550D01*
X7091Y1425D01*
X7091Y1654D01*
X7004Y1865D01*
X6842Y2027D01*
X6700Y2087D01*
X6700Y2740D01*
X6775Y2815D01*
X6825Y2935D01*
X6825Y3064D01*
X6776Y3184D01*
X6702Y3258D01*
X6714Y4761D01*
X6715Y4764D01*
X6716Y4766D01*
X6716Y5921D01*
X6841Y5972D01*
X7003Y6134D01*
X7091Y6345D01*
X7091Y6574D01*
X7004Y6785D01*
X6842Y6947D01*
X6631Y7035D01*
X6425Y7035D01*
X6425Y8415D01*
X6425Y8584D01*
X6425Y9415D01*
X6425Y9584D01*
X6361Y9740D01*
X6241Y9860D01*
X6085Y9925D01*
X5916Y9925D01*
X5760Y9861D01*
X5640Y9741D01*
X5575Y9585D01*
X5575Y9416D01*
X5639Y9260D01*
X5759Y9140D01*
X5915Y9075D01*
X6084Y9075D01*
X6240Y9139D01*
X6360Y9259D01*
X6425Y9415D01*
X6425Y8584D01*
X6361Y8740D01*
X6241Y8860D01*
X6085Y8925D01*
X5916Y8925D01*
X5760Y8861D01*
X5640Y8741D01*
X5575Y8585D01*
X5575Y8416D01*
X5639Y8260D01*
X5759Y8140D01*
X5915Y8075D01*
X6084Y8075D01*
X6240Y8139D01*
X6360Y8259D01*
X6425Y8415D01*
X6425Y7035D01*
X6402Y7035D01*
X6191Y6948D01*
X6029Y6786D01*
X5941Y6575D01*
X5941Y6346D01*
X6028Y6135D01*
X6190Y5973D01*
X6316Y5921D01*
X6316Y4773D01*
X6315Y4768D01*
X6302Y3263D01*
X6225Y3185D01*
X6175Y3065D01*
X6175Y2936D01*
X6224Y2816D01*
X6300Y2740D01*
X6300Y2073D01*
X6191Y2028D01*
X6029Y1866D01*
X5941Y1655D01*
X5941Y1426D01*
X6028Y1215D01*
X6190Y1053D01*
X6401Y965D01*
X6630Y965D01*
X6841Y1052D01*
X7003Y1214D01*
X7091Y1425D01*
X7091Y550D01*
X4925Y550D01*
X4925Y6915D01*
X4925Y7084D01*
X4925Y7915D01*
X4925Y8084D01*
X4925Y9415D01*
X4925Y9584D01*
X4924Y9587D01*
X4924Y12196D01*
X4924Y12255D01*
X4924Y12805D01*
X4901Y12860D01*
X4859Y12902D01*
X4804Y12924D01*
X4745Y12924D01*
X4358Y12924D01*
X3700Y13583D01*
X3700Y13623D01*
X3740Y13639D01*
X3860Y13759D01*
X3925Y13915D01*
X3925Y14084D01*
X3861Y14240D01*
X3741Y14360D01*
X3585Y14425D01*
X3416Y14425D01*
X3260Y14361D01*
X3140Y14241D01*
X3075Y14085D01*
X3075Y13916D01*
X3139Y13760D01*
X3259Y13640D01*
X3300Y13623D01*
X3300Y13500D01*
X3315Y13423D01*
X3359Y13359D01*
X3759Y12959D01*
X3615Y13021D01*
X3407Y13025D01*
X3213Y12950D01*
X3194Y12938D01*
X3173Y12841D01*
X3465Y12549D01*
X3500Y12514D01*
X3514Y12500D01*
X3549Y12465D01*
X3841Y12173D01*
X3938Y12194D01*
X4021Y12385D01*
X4025Y12593D01*
X3962Y12756D01*
X4076Y12642D01*
X4076Y12195D01*
X4099Y12140D01*
X4141Y12098D01*
X4196Y12076D01*
X4255Y12076D01*
X4805Y12076D01*
X4860Y12099D01*
X4902Y12141D01*
X4924Y12196D01*
X4924Y9587D01*
X4861Y9740D01*
X4741Y9860D01*
X4585Y9925D01*
X4416Y9925D01*
X4260Y9861D01*
X4140Y9741D01*
X4075Y9585D01*
X4075Y9416D01*
X4139Y9260D01*
X4259Y9140D01*
X4415Y9075D01*
X4584Y9075D01*
X4740Y9139D01*
X4860Y9259D01*
X4925Y9415D01*
X4925Y8084D01*
X4861Y8240D01*
X4741Y8360D01*
X4585Y8425D01*
X4416Y8425D01*
X4260Y8361D01*
X4140Y8241D01*
X4122Y8200D01*
X3627Y8200D01*
X3611Y8240D01*
X3491Y8360D01*
X3335Y8425D01*
X3166Y8425D01*
X3010Y8361D01*
X2890Y8241D01*
X2831Y8102D01*
X2815Y8077D01*
X2800Y8000D01*
X2815Y7923D01*
X2832Y7898D01*
X2889Y7760D01*
X3009Y7640D01*
X3165Y7575D01*
X3334Y7575D01*
X3490Y7639D01*
X3610Y7759D01*
X3627Y7800D01*
X4122Y7800D01*
X4139Y7760D01*
X4259Y7640D01*
X4415Y7575D01*
X4584Y7575D01*
X4740Y7639D01*
X4860Y7759D01*
X4925Y7915D01*
X4925Y7084D01*
X4861Y7240D01*
X4741Y7360D01*
X4585Y7425D01*
X4416Y7425D01*
X4260Y7361D01*
X4140Y7241D01*
X4075Y7085D01*
X4075Y6916D01*
X4139Y6760D01*
X4259Y6640D01*
X4415Y6575D01*
X4584Y6575D01*
X4740Y6639D01*
X4860Y6759D01*
X4925Y6915D01*
X4925Y550D01*
X4449Y550D01*
X4449Y1410D01*
X4449Y1589D01*
X4449Y5410D01*
X4449Y5589D01*
X4381Y5754D01*
X4255Y5880D01*
X4090Y5949D01*
X3911Y5949D01*
X3856Y5927D01*
X3450Y6333D01*
X3450Y6623D01*
X3490Y6639D01*
X3610Y6759D01*
X3675Y6915D01*
X3675Y7084D01*
X3611Y7240D01*
X3491Y7360D01*
X3335Y7425D01*
X3166Y7425D01*
X3010Y7361D01*
X2890Y7241D01*
X2825Y7085D01*
X2825Y6916D01*
X2889Y6760D01*
X3009Y6640D01*
X3050Y6623D01*
X3050Y6250D01*
X3065Y6173D01*
X3109Y6109D01*
X3573Y5644D01*
X3551Y5590D01*
X3551Y5411D01*
X3619Y5246D01*
X3745Y5120D01*
X3910Y5051D01*
X4089Y5051D01*
X4254Y5119D01*
X4380Y5245D01*
X4449Y5410D01*
X4449Y1589D01*
X4381Y1754D01*
X4255Y1880D01*
X4200Y1903D01*
X4200Y2750D01*
X4185Y2827D01*
X4141Y2891D01*
X4141Y2892D01*
X3141Y3891D01*
X3077Y3935D01*
X3000Y3950D01*
X2525Y3950D01*
X2525Y7093D01*
X2450Y7287D01*
X2438Y7306D01*
X2425Y7309D01*
X2425Y7915D01*
X2425Y8084D01*
X2361Y8240D01*
X2241Y8360D01*
X2085Y8425D01*
X1916Y8425D01*
X1760Y8361D01*
X1640Y8241D01*
X1575Y8085D01*
X1575Y7916D01*
X1639Y7760D01*
X1759Y7640D01*
X1915Y7575D01*
X2084Y7575D01*
X2240Y7639D01*
X2360Y7759D01*
X2425Y7915D01*
X2425Y7309D01*
X2341Y7327D01*
X2327Y7313D01*
X2327Y7341D01*
X2306Y7438D01*
X2115Y7521D01*
X1907Y7525D01*
X1713Y7450D01*
X1694Y7438D01*
X1673Y7341D01*
X2000Y7014D01*
X2327Y7341D01*
X2327Y7313D01*
X2014Y7000D01*
X2341Y6673D01*
X2438Y6694D01*
X2521Y6885D01*
X2525Y7093D01*
X2525Y3950D01*
X2327Y3950D01*
X2327Y6659D01*
X2000Y6986D01*
X1986Y6972D01*
X1986Y7000D01*
X1659Y7327D01*
X1562Y7306D01*
X1479Y7115D01*
X1475Y6907D01*
X1550Y6713D01*
X1562Y6694D01*
X1659Y6673D01*
X1986Y7000D01*
X1986Y6972D01*
X1673Y6659D01*
X1694Y6562D01*
X1885Y6479D01*
X2093Y6475D01*
X2287Y6550D01*
X2306Y6562D01*
X2327Y6659D01*
X2327Y3950D01*
X1403Y3950D01*
X1381Y4004D01*
X1255Y4130D01*
X1090Y4199D01*
X911Y4199D01*
X746Y4131D01*
X620Y4005D01*
X551Y3840D01*
X551Y3661D01*
X619Y3496D01*
X745Y3370D01*
X910Y3301D01*
X1089Y3301D01*
X1254Y3369D01*
X1380Y3495D01*
X1403Y3550D01*
X2917Y3550D01*
X3800Y2668D01*
X3800Y1904D01*
X3746Y1881D01*
X3620Y1755D01*
X3551Y1590D01*
X3551Y1411D01*
X3619Y1246D01*
X3745Y1120D01*
X3910Y1051D01*
X4089Y1051D01*
X4254Y1119D01*
X4380Y1245D01*
X4449Y1410D01*
X4449Y550D01*
X2379Y550D01*
X2513Y605D01*
X2893Y984D01*
X3099Y1480D01*
X3100Y2017D01*
X2895Y2513D01*
X2516Y2893D01*
X2020Y3099D01*
X1483Y3100D01*
X987Y2895D01*
X607Y2516D01*
X550Y2379D01*
X550Y4668D01*
X551Y4667D01*
X551Y4661D01*
X619Y4496D01*
X745Y4370D01*
X910Y4301D01*
X1089Y4301D01*
X1254Y4369D01*
X1380Y4495D01*
X1449Y4660D01*
X1449Y4839D01*
X1381Y5004D01*
X1255Y5130D01*
X1090Y5199D01*
X911Y5199D01*
X746Y5131D01*
X700Y5085D01*
X700Y5415D01*
X745Y5370D01*
X910Y5301D01*
X1089Y5301D01*
X1254Y5369D01*
X1380Y5495D01*
X1449Y5660D01*
X1449Y5839D01*
X1381Y6004D01*
X1255Y6130D01*
X1090Y6199D01*
X911Y6199D01*
X746Y6131D01*
X700Y6085D01*
X700Y7918D01*
X1332Y8550D01*
X2750Y8550D01*
X2750Y8551D01*
X2826Y8565D01*
X2827Y8565D01*
X2891Y8609D01*
X3374Y9092D01*
X3415Y9075D01*
X3584Y9075D01*
X3740Y9139D01*
X3860Y9259D01*
X3925Y9415D01*
X3925Y9584D01*
X3861Y9740D01*
X3827Y9774D01*
X3827Y12159D01*
X3500Y12486D01*
X3486Y12472D01*
X3486Y12500D01*
X3159Y12827D01*
X3062Y12806D01*
X2979Y12615D01*
X2975Y12407D01*
X3050Y12213D01*
X3062Y12194D01*
X3159Y12173D01*
X3486Y12500D01*
X3486Y12472D01*
X3173Y12159D01*
X3194Y12062D01*
X3385Y11979D01*
X3593Y11975D01*
X3787Y12050D01*
X3806Y12062D01*
X3827Y12159D01*
X3827Y9774D01*
X3741Y9860D01*
X3585Y9925D01*
X3416Y9925D01*
X3260Y9861D01*
X3140Y9741D01*
X3075Y9585D01*
X3075Y9416D01*
X3091Y9375D01*
X2925Y9209D01*
X2925Y9415D01*
X2925Y9584D01*
X2861Y9740D01*
X2741Y9860D01*
X2585Y9925D01*
X2416Y9925D01*
X2260Y9861D01*
X2140Y9741D01*
X2075Y9585D01*
X2075Y9416D01*
X2139Y9260D01*
X2259Y9140D01*
X2415Y9075D01*
X2584Y9075D01*
X2740Y9139D01*
X2860Y9259D01*
X2925Y9415D01*
X2925Y9209D01*
X2667Y8950D01*
X1925Y8950D01*
X1925Y9415D01*
X1925Y9584D01*
X1925Y12415D01*
X1925Y12584D01*
X1861Y12740D01*
X1741Y12860D01*
X1585Y12925D01*
X1449Y12925D01*
X1449Y15410D01*
X1449Y15589D01*
X1381Y15754D01*
X1255Y15880D01*
X1090Y15949D01*
X911Y15949D01*
X746Y15881D01*
X620Y15755D01*
X551Y15590D01*
X551Y15411D01*
X619Y15246D01*
X745Y15120D01*
X800Y15097D01*
X800Y14378D01*
X760Y14361D01*
X640Y14241D01*
X575Y14085D01*
X575Y13916D01*
X639Y13760D01*
X759Y13640D01*
X915Y13575D01*
X1084Y13575D01*
X1240Y13639D01*
X1360Y13759D01*
X1425Y13915D01*
X1425Y14084D01*
X1361Y14240D01*
X1241Y14360D01*
X1200Y14378D01*
X1200Y15097D01*
X1254Y15119D01*
X1380Y15245D01*
X1449Y15410D01*
X1449Y12925D01*
X1416Y12925D01*
X1260Y12861D01*
X1140Y12741D01*
X1075Y12585D01*
X1075Y12416D01*
X1139Y12260D01*
X1259Y12140D01*
X1415Y12075D01*
X1584Y12075D01*
X1740Y12139D01*
X1860Y12259D01*
X1925Y12415D01*
X1925Y9584D01*
X1861Y9740D01*
X1741Y9860D01*
X1585Y9925D01*
X1416Y9925D01*
X1260Y9861D01*
X1140Y9741D01*
X1075Y9585D01*
X1075Y9416D01*
X1139Y9260D01*
X1259Y9140D01*
X1415Y9075D01*
X1584Y9075D01*
X1740Y9139D01*
X1860Y9259D01*
X1925Y9415D01*
X1925Y8950D01*
X1250Y8950D01*
X1173Y8935D01*
X1108Y8891D01*
X550Y8333D01*
X550Y17621D01*
X605Y17487D01*
X984Y17107D01*
X1480Y16901D01*
X2017Y16900D01*
X2513Y17105D01*
X2893Y17484D01*
X3099Y17980D01*
X3100Y18517D01*
X2895Y19013D01*
X2516Y19393D01*
X2378Y19450D01*
X3858Y19450D01*
X3734Y19399D01*
X3602Y19267D01*
X3530Y19094D01*
X3530Y18907D01*
X3601Y18734D01*
X3733Y18602D01*
X3906Y18530D01*
X4093Y18530D01*
X4266Y18601D01*
X4398Y18733D01*
X4470Y18906D01*
X4470Y19093D01*
X4399Y19266D01*
X4267Y19398D01*
X4142Y19450D01*
X4858Y19450D01*
X4734Y19399D01*
X4602Y19267D01*
X4530Y19094D01*
X4530Y18907D01*
X4601Y18734D01*
X4733Y18602D01*
X4906Y18530D01*
X5093Y18530D01*
X5266Y18601D01*
X5398Y18733D01*
X5470Y18906D01*
X5470Y19093D01*
X5399Y19266D01*
X5267Y19398D01*
X5142Y19450D01*
X7427Y19450D01*
X7406Y19359D01*
X7750Y19014D01*
X8094Y19359D01*
X8072Y19450D01*
X10917Y19450D01*
X10376Y18909D01*
X10260Y18861D01*
X10140Y18741D01*
X10075Y18585D01*
X10075Y18416D01*
X10139Y18260D01*
X10259Y18140D01*
X10415Y18075D01*
X10584Y18075D01*
X10740Y18139D01*
X10860Y18259D01*
X10925Y18415D01*
X10925Y18584D01*
X10861Y18740D01*
X10816Y18785D01*
X11332Y19300D01*
X25124Y19300D01*
X25066Y19276D01*
X24975Y19185D01*
X24925Y19065D01*
X24925Y18936D01*
X24974Y18816D01*
X25050Y18740D01*
X25050Y18260D01*
X24975Y18185D01*
X24925Y18065D01*
X24925Y17936D01*
X24974Y17816D01*
X25065Y17725D01*
X25185Y17675D01*
X25314Y17675D01*
X25434Y17724D01*
X25525Y17815D01*
X25575Y17935D01*
X25575Y18064D01*
X25526Y18184D01*
X25450Y18260D01*
X25450Y18740D01*
X25525Y18815D01*
X25575Y18935D01*
X25575Y19064D01*
X25526Y19184D01*
X25435Y19275D01*
X25375Y19300D01*
X27801Y19300D01*
X27801Y19270D01*
X27801Y18670D01*
X27824Y18615D01*
X27866Y18573D01*
X27921Y18551D01*
X27980Y18551D01*
X28580Y18551D01*
X28635Y18574D01*
X28677Y18616D01*
X28699Y18671D01*
X28699Y18730D01*
X28699Y18903D01*
X28778Y18699D01*
X28792Y18679D01*
X28891Y18656D01*
X29200Y18966D01*
X29201Y18965D01*
X29236Y19000D01*
X29250Y19014D01*
X29264Y19000D01*
X29299Y18965D01*
X29609Y18656D01*
X29708Y18679D01*
X29796Y18878D01*
X29800Y19054D01*
X29800Y18500D01*
X29815Y18423D01*
X29859Y18359D01*
X30007Y18210D01*
X30015Y18173D01*
X30059Y18109D01*
X30123Y18065D01*
X30160Y18058D01*
X30425Y17793D01*
X30425Y17686D01*
X30474Y17566D01*
X30565Y17475D01*
X30685Y17425D01*
X30814Y17425D01*
X30934Y17474D01*
X31025Y17565D01*
X31075Y17685D01*
X31075Y17814D01*
X31026Y17934D01*
X30935Y18025D01*
X30815Y18075D01*
X30707Y18075D01*
X30391Y18391D01*
X30362Y18411D01*
X30361Y18411D01*
X30361Y18412D01*
X30341Y18441D01*
X30341Y18442D01*
X30200Y18583D01*
X30200Y19250D01*
X30185Y19327D01*
X30141Y19391D01*
X30141Y19392D01*
X30082Y19450D01*
X30625Y19450D01*
X30561Y19386D01*
X30457Y19136D01*
X30457Y18865D01*
X30561Y18615D01*
X30752Y18423D01*
X31002Y18319D01*
X31273Y18319D01*
X31523Y18423D01*
X31715Y18614D01*
X31819Y18864D01*
X31819Y19135D01*
X31715Y19385D01*
X31650Y19450D01*
X33925Y19450D01*
X33925Y19436D01*
X33974Y19316D01*
X34050Y19240D01*
X34050Y19000D01*
X34054Y18979D01*
X33891Y19141D01*
X33827Y19185D01*
X33750Y19200D01*
X33250Y19200D01*
X33173Y19185D01*
X33108Y19141D01*
X32861Y18894D01*
X32858Y18891D01*
X31859Y17891D01*
X31815Y17827D01*
X31800Y17750D01*
X31800Y17250D01*
X31800Y16760D01*
X31725Y16685D01*
X31675Y16565D01*
X31675Y16436D01*
X31724Y16316D01*
X31815Y16225D01*
X31935Y16175D01*
X32064Y16175D01*
X32184Y16224D01*
X32275Y16315D01*
X32325Y16435D01*
X32325Y16564D01*
X32276Y16684D01*
X32200Y16760D01*
X32200Y17250D01*
X32200Y17668D01*
X32551Y18019D01*
X32551Y17848D01*
X32619Y17683D01*
X32745Y17557D01*
X32776Y17544D01*
X32746Y17531D01*
X32620Y17405D01*
X32551Y17240D01*
X32551Y17061D01*
X32619Y16896D01*
X32745Y16770D01*
X32800Y16747D01*
X32800Y16000D01*
X32815Y15923D01*
X32859Y15859D01*
X33073Y15645D01*
X33051Y15590D01*
X33051Y15411D01*
X33119Y15246D01*
X33245Y15120D01*
X33410Y15051D01*
X33589Y15051D01*
X33754Y15119D01*
X33880Y15245D01*
X33949Y15410D01*
X33949Y15589D01*
X33881Y15754D01*
X33755Y15880D01*
X33700Y15903D01*
X33700Y16168D01*
X33832Y16300D01*
X34250Y16300D01*
X34740Y16300D01*
X34815Y16225D01*
X34935Y16175D01*
X35064Y16175D01*
X35184Y16224D01*
X35275Y16315D01*
X35325Y16435D01*
X35325Y16564D01*
X35276Y16684D01*
X35185Y16775D01*
X35065Y16825D01*
X34936Y16825D01*
X34816Y16776D01*
X34740Y16700D01*
X34250Y16700D01*
X33750Y16700D01*
X33673Y16685D01*
X33608Y16641D01*
X33359Y16391D01*
X33315Y16327D01*
X33300Y16250D01*
X33300Y15982D01*
X33200Y16082D01*
X33200Y16747D01*
X33254Y16769D01*
X33380Y16895D01*
X33449Y17060D01*
X33449Y17239D01*
X33381Y17404D01*
X33255Y17530D01*
X33223Y17544D01*
X33254Y17556D01*
X33380Y17682D01*
X33449Y17847D01*
X33449Y18026D01*
X33381Y18191D01*
X33255Y18317D01*
X33090Y18386D01*
X32918Y18386D01*
X33141Y18608D01*
X33141Y18609D01*
X33143Y18612D01*
X33332Y18800D01*
X33667Y18800D01*
X33800Y18668D01*
X33800Y18341D01*
X33746Y18318D01*
X33620Y18192D01*
X33551Y18027D01*
X33551Y17848D01*
X33619Y17683D01*
X33745Y17557D01*
X33776Y17544D01*
X33746Y17531D01*
X33620Y17405D01*
X33551Y17240D01*
X33551Y17061D01*
X33619Y16896D01*
X33745Y16770D01*
X33910Y16701D01*
X34089Y16701D01*
X34254Y16769D01*
X34380Y16895D01*
X34449Y17060D01*
X34449Y17239D01*
X34381Y17404D01*
X34255Y17530D01*
X34223Y17544D01*
X34254Y17556D01*
X34380Y17682D01*
X34449Y17847D01*
X34449Y18026D01*
X34381Y18191D01*
X34255Y18317D01*
X34200Y18340D01*
X34200Y18750D01*
X34195Y18773D01*
X35550Y17418D01*
X35550Y15010D01*
X35499Y14959D01*
X35499Y15121D01*
X35499Y15180D01*
X35499Y15880D01*
X35476Y15935D01*
X35434Y15977D01*
X35379Y15999D01*
X35320Y15999D01*
X34620Y15999D01*
X34565Y15976D01*
X34523Y15934D01*
X34501Y15879D01*
X34501Y15820D01*
X34501Y15120D01*
X34524Y15065D01*
X34566Y15023D01*
X34621Y15001D01*
X34680Y15001D01*
X34800Y15001D01*
X34800Y14833D01*
X34667Y14700D01*
X33760Y14700D01*
X33685Y14775D01*
X33565Y14825D01*
X33436Y14825D01*
X33316Y14776D01*
X33225Y14685D01*
X33175Y14565D01*
X33175Y14436D01*
X33224Y14316D01*
X33300Y14240D01*
X33300Y11904D01*
X33246Y11881D01*
X33120Y11755D01*
X33051Y11590D01*
X33051Y11411D01*
X33119Y11246D01*
X33245Y11120D01*
X33410Y11051D01*
X33589Y11051D01*
X33754Y11119D01*
X33880Y11245D01*
X33949Y11410D01*
X33949Y11589D01*
X33881Y11754D01*
X33755Y11880D01*
X33700Y11903D01*
X33700Y14240D01*
X33760Y14300D01*
X34750Y14300D01*
X34750Y14301D01*
X34826Y14315D01*
X34827Y14315D01*
X34891Y14359D01*
X35141Y14608D01*
X35141Y14609D01*
X35185Y14673D01*
X35199Y14750D01*
X35200Y14750D01*
X35200Y15001D01*
X35380Y15001D01*
X35435Y15024D01*
X35477Y15066D01*
X35499Y15121D01*
X35499Y14959D01*
X35475Y14935D01*
X35425Y14815D01*
X35425Y14686D01*
X35474Y14566D01*
X35565Y14475D01*
X35685Y14425D01*
X35814Y14425D01*
X35934Y14474D01*
X36025Y14565D01*
X36075Y14685D01*
X36075Y14814D01*
X36026Y14934D01*
X35950Y15010D01*
X35950Y17500D01*
X35935Y17577D01*
X35891Y17641D01*
X35891Y17642D01*
X34450Y19083D01*
X34450Y19240D01*
X34525Y19315D01*
X34575Y19435D01*
X34575Y19450D01*
X35349Y19450D01*
X35285Y19386D01*
X35181Y19136D01*
X35181Y18865D01*
X35285Y18615D01*
X35476Y18423D01*
X35726Y18319D01*
X35997Y18319D01*
X36247Y18423D01*
X36439Y18614D01*
X36543Y18864D01*
X36543Y19135D01*
X36439Y19385D01*
X36374Y19450D01*
X37175Y19450D01*
X37175Y19436D01*
X37224Y19316D01*
X37300Y19240D01*
X37300Y18260D01*
X37225Y18185D01*
X37175Y18065D01*
X37175Y17936D01*
X37224Y17816D01*
X37315Y17725D01*
X37435Y17675D01*
X37564Y17675D01*
X37684Y17724D01*
X37775Y17815D01*
X37825Y17935D01*
X37825Y18064D01*
X37776Y18184D01*
X37700Y18260D01*
X37700Y19240D01*
X37775Y19315D01*
X37825Y19435D01*
X37825Y19450D01*
X45925Y19450D01*
X45925Y19436D01*
X45974Y19316D01*
X46050Y19240D01*
X46050Y18063D01*
X46049Y18061D01*
X46034Y17984D01*
X46034Y16500D01*
X45909Y16448D01*
X45747Y16286D01*
X45659Y16075D01*
X45659Y15846D01*
X45746Y15635D01*
X45908Y15473D01*
X46034Y15421D01*
X46034Y11580D01*
X45909Y11528D01*
X45747Y11366D01*
X45659Y11155D01*
X45659Y10926D01*
X45746Y10715D01*
X45908Y10553D01*
X46119Y10465D01*
X46348Y10465D01*
X46559Y10552D01*
X46721Y10714D01*
X46809Y10925D01*
X46809Y11154D01*
X46722Y11365D01*
X46560Y11527D01*
X46434Y11580D01*
X46434Y15421D01*
X46559Y15472D01*
X46721Y15634D01*
X46809Y15845D01*
X46809Y16074D01*
X46722Y16285D01*
X46560Y16447D01*
X46434Y16500D01*
X46434Y17922D01*
X46435Y17923D01*
X46449Y18000D01*
X46450Y18000D01*
X46450Y19240D01*
X46525Y19315D01*
X46575Y19435D01*
X46575Y19450D01*
X47620Y19450D01*
X47487Y19395D01*
X47107Y19016D01*
X46901Y18520D01*
X46900Y17983D01*
X47105Y17487D01*
X47484Y17107D01*
X47980Y16901D01*
X48517Y16900D01*
X49013Y17105D01*
X49393Y17484D01*
X49450Y17622D01*
X49450Y2630D01*
X49395Y2763D01*
X49016Y3143D01*
X48520Y3349D01*
X47983Y3350D01*
X47487Y3145D01*
X47107Y2766D01*
X46901Y2270D01*
X46900Y1733D01*
X47105Y1237D01*
X47484Y857D01*
X47980Y651D01*
X48517Y650D01*
X49013Y855D01*
X49393Y1234D01*
X49450Y1372D01*
X49450Y550D01*
X49450Y550D01*
G37*
G54D27*
X49450Y550D02*
X45809Y550D01*
X45809Y1425D01*
X45809Y1654D01*
X45809Y6345D01*
X45809Y6574D01*
X45730Y6766D01*
X45730Y7904D01*
X45730Y8095D01*
X45730Y8904D01*
X45730Y9095D01*
X45657Y9271D01*
X45522Y9407D01*
X45450Y9437D01*
X45450Y12500D01*
X45435Y12576D01*
X45435Y12577D01*
X45391Y12641D01*
X44950Y13082D01*
X44950Y14490D01*
X45025Y14565D01*
X45075Y14685D01*
X45075Y14814D01*
X45026Y14934D01*
X44970Y14990D01*
X44970Y17406D01*
X44970Y17593D01*
X44970Y18406D01*
X44970Y18593D01*
X44899Y18766D01*
X44767Y18898D01*
X44594Y18970D01*
X44407Y18970D01*
X44234Y18899D01*
X44102Y18767D01*
X44030Y18594D01*
X44030Y18407D01*
X44101Y18234D01*
X44233Y18102D01*
X44406Y18030D01*
X44593Y18030D01*
X44766Y18101D01*
X44898Y18233D01*
X44970Y18406D01*
X44970Y17593D01*
X44899Y17766D01*
X44767Y17898D01*
X44594Y17970D01*
X44407Y17970D01*
X44234Y17899D01*
X44102Y17767D01*
X44030Y17594D01*
X44030Y17407D01*
X44101Y17234D01*
X44233Y17102D01*
X44406Y17030D01*
X44593Y17030D01*
X44766Y17101D01*
X44898Y17233D01*
X44970Y17406D01*
X44970Y14990D01*
X44935Y15025D01*
X44841Y15065D01*
X44841Y15845D01*
X44841Y16074D01*
X44754Y16285D01*
X44592Y16447D01*
X44381Y16535D01*
X44152Y16535D01*
X43970Y16460D01*
X43970Y17406D01*
X43970Y17593D01*
X43970Y18406D01*
X43970Y18593D01*
X43899Y18766D01*
X43767Y18898D01*
X43594Y18970D01*
X43407Y18970D01*
X43234Y18899D01*
X43102Y18767D01*
X43030Y18594D01*
X43030Y18407D01*
X43101Y18234D01*
X43233Y18102D01*
X43406Y18030D01*
X43593Y18030D01*
X43766Y18101D01*
X43898Y18233D01*
X43970Y18406D01*
X43970Y17593D01*
X43899Y17766D01*
X43767Y17898D01*
X43594Y17970D01*
X43407Y17970D01*
X43234Y17899D01*
X43102Y17767D01*
X43041Y17622D01*
X42972Y17801D01*
X42958Y17821D01*
X42949Y17824D01*
X42949Y18410D01*
X42949Y18589D01*
X42881Y18754D01*
X42755Y18880D01*
X42590Y18949D01*
X42411Y18949D01*
X42246Y18881D01*
X42120Y18755D01*
X42051Y18590D01*
X42051Y18411D01*
X42119Y18246D01*
X42245Y18120D01*
X42410Y18051D01*
X42403Y18051D01*
X42199Y17972D01*
X42179Y17958D01*
X42156Y17859D01*
X42500Y17514D01*
X42844Y17859D01*
X42821Y17958D01*
X42622Y18046D01*
X42410Y18051D01*
X42589Y18051D01*
X42754Y18119D01*
X42880Y18245D01*
X42949Y18410D01*
X42949Y17824D01*
X42859Y17844D01*
X42514Y17500D01*
X42859Y17156D01*
X42958Y17179D01*
X43043Y17374D01*
X43101Y17234D01*
X43233Y17102D01*
X43406Y17030D01*
X43593Y17030D01*
X43766Y17101D01*
X43898Y17233D01*
X43970Y17406D01*
X43970Y16460D01*
X43941Y16448D01*
X43779Y16286D01*
X43691Y16075D01*
X43691Y15846D01*
X43778Y15635D01*
X43940Y15473D01*
X44151Y15385D01*
X44380Y15385D01*
X44591Y15472D01*
X44753Y15634D01*
X44841Y15845D01*
X44841Y15065D01*
X44815Y15075D01*
X44686Y15075D01*
X44566Y15026D01*
X44475Y14935D01*
X44425Y14815D01*
X44425Y14686D01*
X44474Y14566D01*
X44550Y14490D01*
X44550Y13000D01*
X44565Y12923D01*
X44609Y12859D01*
X45050Y12418D01*
X45050Y9437D01*
X44979Y9407D01*
X44843Y9272D01*
X44841Y9268D01*
X44841Y10925D01*
X44841Y11154D01*
X44754Y11365D01*
X44592Y11527D01*
X44381Y11615D01*
X44152Y11615D01*
X43941Y11528D01*
X43779Y11366D01*
X43691Y11155D01*
X43691Y10926D01*
X43778Y10715D01*
X43940Y10553D01*
X44151Y10465D01*
X44380Y10465D01*
X44591Y10552D01*
X44753Y10714D01*
X44841Y10925D01*
X44841Y9268D01*
X44770Y9096D01*
X44770Y8905D01*
X44843Y8729D01*
X44978Y8593D01*
X45154Y8520D01*
X45345Y8520D01*
X45521Y8593D01*
X45657Y8728D01*
X45730Y8904D01*
X45730Y8095D01*
X45657Y8271D01*
X45522Y8407D01*
X45346Y8480D01*
X45155Y8480D01*
X44979Y8407D01*
X44843Y8272D01*
X44770Y8096D01*
X44770Y7905D01*
X44843Y7729D01*
X44978Y7593D01*
X45154Y7520D01*
X45345Y7520D01*
X45521Y7593D01*
X45657Y7728D01*
X45730Y7904D01*
X45730Y6766D01*
X45722Y6785D01*
X45560Y6947D01*
X45349Y7035D01*
X45120Y7035D01*
X44909Y6948D01*
X44747Y6786D01*
X44659Y6575D01*
X44659Y6346D01*
X44746Y6135D01*
X44908Y5973D01*
X45119Y5885D01*
X45348Y5885D01*
X45559Y5972D01*
X45721Y6134D01*
X45809Y6345D01*
X45809Y1654D01*
X45722Y1865D01*
X45560Y2027D01*
X45349Y2115D01*
X45120Y2115D01*
X44909Y2028D01*
X44747Y1866D01*
X44659Y1655D01*
X44659Y1426D01*
X44746Y1215D01*
X44908Y1053D01*
X45119Y965D01*
X45348Y965D01*
X45559Y1052D01*
X45721Y1214D01*
X45809Y1425D01*
X45809Y550D01*
X43841Y550D01*
X43841Y1425D01*
X43841Y1654D01*
X43754Y1865D01*
X43592Y2027D01*
X43466Y2080D01*
X43466Y5921D01*
X43591Y5972D01*
X43753Y6134D01*
X43841Y6345D01*
X43841Y6574D01*
X43754Y6785D01*
X43592Y6947D01*
X43466Y7000D01*
X43466Y13506D01*
X43525Y13565D01*
X43575Y13685D01*
X43575Y13814D01*
X43526Y13934D01*
X43435Y14025D01*
X43315Y14075D01*
X43186Y14075D01*
X43066Y14026D01*
X42975Y13935D01*
X42925Y13815D01*
X42925Y13686D01*
X42974Y13566D01*
X43065Y13475D01*
X43066Y13475D01*
X43066Y7000D01*
X42941Y6948D01*
X42844Y6851D01*
X42844Y17141D01*
X42500Y17486D01*
X42486Y17472D01*
X42486Y17500D01*
X42141Y17844D01*
X42042Y17821D01*
X41954Y17622D01*
X41949Y17403D01*
X42028Y17199D01*
X42042Y17179D01*
X42141Y17156D01*
X42486Y17500D01*
X42486Y17472D01*
X42156Y17141D01*
X42179Y17042D01*
X42378Y16954D01*
X42597Y16949D01*
X42801Y17028D01*
X42821Y17042D01*
X42844Y17141D01*
X42844Y6851D01*
X42779Y6786D01*
X42691Y6575D01*
X42691Y6346D01*
X42778Y6135D01*
X42940Y5973D01*
X43066Y5921D01*
X43066Y2080D01*
X42941Y2028D01*
X42779Y1866D01*
X42691Y1655D01*
X42691Y1426D01*
X42778Y1215D01*
X42940Y1053D01*
X43151Y965D01*
X43380Y965D01*
X43591Y1052D01*
X43753Y1214D01*
X43841Y1425D01*
X43841Y550D01*
X41559Y550D01*
X41559Y10925D01*
X41559Y11154D01*
X41472Y11365D01*
X41310Y11527D01*
X41200Y11573D01*
X41200Y11990D01*
X41275Y12065D01*
X41325Y12185D01*
X41325Y12314D01*
X41276Y12434D01*
X41200Y12510D01*
X41200Y15428D01*
X41309Y15472D01*
X41471Y15634D01*
X41559Y15845D01*
X41559Y16074D01*
X41472Y16285D01*
X41310Y16447D01*
X41099Y16535D01*
X40870Y16535D01*
X40659Y16448D01*
X40525Y16314D01*
X40525Y18428D01*
X40525Y18572D01*
X40524Y18824D01*
X40486Y18916D01*
X40416Y18986D01*
X40325Y19024D01*
X40226Y19024D01*
X40072Y19025D01*
X40010Y18963D01*
X40010Y18510D01*
X40463Y18510D01*
X40525Y18572D01*
X40525Y18428D01*
X40463Y18490D01*
X40010Y18490D01*
X40010Y18037D01*
X40072Y17975D01*
X40226Y17976D01*
X40325Y17976D01*
X40416Y18014D01*
X40486Y18084D01*
X40524Y18176D01*
X40525Y18428D01*
X40525Y16314D01*
X40497Y16286D01*
X40425Y16114D01*
X40425Y17415D01*
X40425Y17584D01*
X40361Y17740D01*
X40241Y17860D01*
X40085Y17925D01*
X39990Y17925D01*
X39990Y18037D01*
X39990Y18490D01*
X39990Y18510D01*
X39990Y18963D01*
X39928Y19025D01*
X39774Y19024D01*
X39675Y19024D01*
X39584Y18986D01*
X39514Y18916D01*
X39476Y18824D01*
X39475Y18572D01*
X39537Y18510D01*
X39990Y18510D01*
X39990Y18490D01*
X39537Y18490D01*
X39475Y18428D01*
X39476Y18176D01*
X39514Y18084D01*
X39584Y18014D01*
X39675Y17976D01*
X39774Y17976D01*
X39928Y17975D01*
X39990Y18037D01*
X39990Y17925D01*
X39916Y17925D01*
X39760Y17861D01*
X39640Y17741D01*
X39575Y17585D01*
X39575Y17416D01*
X39639Y17260D01*
X39759Y17140D01*
X39800Y17123D01*
X39800Y17083D01*
X39667Y16950D01*
X38925Y16950D01*
X38925Y17415D01*
X38925Y17584D01*
X38925Y18415D01*
X38925Y18584D01*
X38861Y18740D01*
X38741Y18860D01*
X38585Y18925D01*
X38416Y18925D01*
X38260Y18861D01*
X38140Y18741D01*
X38075Y18585D01*
X38075Y18416D01*
X38139Y18260D01*
X38259Y18140D01*
X38415Y18075D01*
X38584Y18075D01*
X38740Y18139D01*
X38860Y18259D01*
X38925Y18415D01*
X38925Y17584D01*
X38861Y17740D01*
X38741Y17860D01*
X38585Y17925D01*
X38416Y17925D01*
X38260Y17861D01*
X38140Y17741D01*
X38075Y17585D01*
X38075Y17416D01*
X38139Y17260D01*
X38259Y17140D01*
X38415Y17075D01*
X38584Y17075D01*
X38740Y17139D01*
X38860Y17259D01*
X38925Y17415D01*
X38925Y16950D01*
X37750Y16950D01*
X37673Y16935D01*
X37608Y16891D01*
X36644Y15927D01*
X36590Y15949D01*
X36411Y15949D01*
X36246Y15881D01*
X36120Y15755D01*
X36051Y15590D01*
X36051Y15411D01*
X36119Y15246D01*
X36245Y15120D01*
X36300Y15097D01*
X36300Y13010D01*
X36225Y12935D01*
X36175Y12815D01*
X36175Y12686D01*
X36224Y12566D01*
X36315Y12475D01*
X36435Y12425D01*
X36564Y12425D01*
X36684Y12474D01*
X36775Y12565D01*
X36825Y12685D01*
X36825Y12814D01*
X36776Y12934D01*
X36700Y13010D01*
X36700Y15097D01*
X36754Y15119D01*
X36880Y15245D01*
X36949Y15410D01*
X36949Y15589D01*
X36926Y15645D01*
X37832Y16550D01*
X39750Y16550D01*
X39750Y16551D01*
X39826Y16565D01*
X39827Y16565D01*
X39891Y16609D01*
X40141Y16858D01*
X40141Y16859D01*
X40185Y16923D01*
X40199Y17000D01*
X40200Y17000D01*
X40200Y17123D01*
X40240Y17139D01*
X40360Y17259D01*
X40425Y17415D01*
X40425Y16114D01*
X40409Y16075D01*
X40409Y15846D01*
X40496Y15635D01*
X40658Y15473D01*
X40800Y15414D01*
X40800Y12510D01*
X40725Y12435D01*
X40675Y12315D01*
X40675Y12186D01*
X40724Y12066D01*
X40800Y11990D01*
X40800Y11587D01*
X40659Y11528D01*
X40497Y11366D01*
X40409Y11155D01*
X40409Y10926D01*
X40496Y10715D01*
X40658Y10553D01*
X40869Y10465D01*
X41098Y10465D01*
X41309Y10552D01*
X41471Y10714D01*
X41559Y10925D01*
X41559Y550D01*
X40581Y550D01*
X40581Y9102D01*
X40498Y9317D01*
X40483Y9339D01*
X40380Y9366D01*
X40366Y9352D01*
X40366Y9380D01*
X40339Y9483D01*
X40128Y9576D01*
X39898Y9581D01*
X39683Y9498D01*
X39661Y9483D01*
X39634Y9380D01*
X40000Y9014D01*
X40366Y9380D01*
X40366Y9352D01*
X40014Y9000D01*
X40380Y8634D01*
X40483Y8661D01*
X40576Y8872D01*
X40581Y9102D01*
X40581Y550D01*
X40559Y550D01*
X40559Y1425D01*
X40559Y1654D01*
X40559Y6345D01*
X40559Y6574D01*
X40480Y6766D01*
X40480Y7904D01*
X40480Y8095D01*
X40407Y8271D01*
X40272Y8407D01*
X40175Y8448D01*
X40317Y8502D01*
X40339Y8517D01*
X40366Y8620D01*
X40000Y8986D01*
X39986Y8972D01*
X39986Y9000D01*
X39620Y9366D01*
X39591Y9359D01*
X39591Y10925D01*
X39591Y11154D01*
X39591Y15845D01*
X39591Y16074D01*
X39504Y16285D01*
X39342Y16447D01*
X39131Y16535D01*
X38902Y16535D01*
X38691Y16448D01*
X38529Y16286D01*
X38441Y16075D01*
X38441Y15846D01*
X38528Y15635D01*
X38690Y15473D01*
X38901Y15385D01*
X39130Y15385D01*
X39341Y15472D01*
X39503Y15634D01*
X39591Y15845D01*
X39591Y11154D01*
X39504Y11365D01*
X39342Y11527D01*
X39131Y11615D01*
X38902Y11615D01*
X38691Y11528D01*
X38529Y11366D01*
X38441Y11155D01*
X38441Y10926D01*
X38528Y10715D01*
X38690Y10553D01*
X38901Y10465D01*
X39130Y10465D01*
X39341Y10552D01*
X39503Y10714D01*
X39591Y10925D01*
X39591Y9359D01*
X39517Y9339D01*
X39424Y9128D01*
X39419Y8898D01*
X39502Y8683D01*
X39517Y8661D01*
X39620Y8634D01*
X39986Y9000D01*
X39986Y8972D01*
X39634Y8620D01*
X39661Y8517D01*
X39822Y8446D01*
X39729Y8407D01*
X39593Y8272D01*
X39520Y8096D01*
X39520Y7905D01*
X39593Y7729D01*
X39728Y7593D01*
X39904Y7520D01*
X40095Y7520D01*
X40271Y7593D01*
X40407Y7728D01*
X40480Y7904D01*
X40480Y6766D01*
X40472Y6785D01*
X40310Y6947D01*
X40099Y7035D01*
X39870Y7035D01*
X39659Y6948D01*
X39497Y6786D01*
X39409Y6575D01*
X39409Y6346D01*
X39496Y6135D01*
X39658Y5973D01*
X39869Y5885D01*
X40098Y5885D01*
X40309Y5972D01*
X40471Y6134D01*
X40559Y6345D01*
X40559Y1654D01*
X40472Y1865D01*
X40310Y2027D01*
X40099Y2115D01*
X39870Y2115D01*
X39659Y2028D01*
X39497Y1866D01*
X39409Y1655D01*
X39409Y1426D01*
X39496Y1215D01*
X39658Y1053D01*
X39869Y965D01*
X40098Y965D01*
X40309Y1052D01*
X40471Y1214D01*
X40559Y1425D01*
X40559Y550D01*
X38591Y550D01*
X38591Y1425D01*
X38591Y1654D01*
X38504Y1865D01*
X38342Y2027D01*
X38216Y2080D01*
X38216Y5921D01*
X38341Y5972D01*
X38503Y6134D01*
X38591Y6345D01*
X38591Y6574D01*
X38504Y6785D01*
X38342Y6947D01*
X38216Y7000D01*
X38216Y13006D01*
X38275Y13065D01*
X38325Y13185D01*
X38325Y13314D01*
X38276Y13434D01*
X38185Y13525D01*
X38065Y13575D01*
X37936Y13575D01*
X37816Y13526D01*
X37725Y13435D01*
X37675Y13315D01*
X37675Y13186D01*
X37724Y13066D01*
X37815Y12975D01*
X37816Y12975D01*
X37816Y7000D01*
X37691Y6948D01*
X37529Y6786D01*
X37441Y6575D01*
X37441Y6346D01*
X37528Y6135D01*
X37690Y5973D01*
X37816Y5921D01*
X37816Y2080D01*
X37691Y2028D01*
X37529Y1866D01*
X37441Y1655D01*
X37441Y1426D01*
X37528Y1215D01*
X37690Y1053D01*
X37901Y965D01*
X38130Y965D01*
X38341Y1052D01*
X38503Y1214D01*
X38591Y1425D01*
X38591Y550D01*
X36949Y550D01*
X36949Y11410D01*
X36949Y11589D01*
X36881Y11754D01*
X36755Y11880D01*
X36590Y11949D01*
X36411Y11949D01*
X36246Y11881D01*
X36120Y11755D01*
X36051Y11590D01*
X36051Y11411D01*
X36119Y11246D01*
X36245Y11120D01*
X36410Y11051D01*
X36589Y11051D01*
X36754Y11119D01*
X36880Y11245D01*
X36949Y11410D01*
X36949Y550D01*
X35499Y550D01*
X35499Y11401D01*
X35499Y11599D01*
X35423Y11782D01*
X35283Y11923D01*
X35099Y11999D01*
X34901Y11999D01*
X34718Y11923D01*
X34577Y11783D01*
X34501Y11599D01*
X34501Y11401D01*
X34577Y11218D01*
X34717Y11077D01*
X34901Y11001D01*
X35099Y11001D01*
X35282Y11077D01*
X35423Y11217D01*
X35499Y11401D01*
X35499Y550D01*
X35331Y550D01*
X35331Y9102D01*
X35248Y9317D01*
X35233Y9339D01*
X35130Y9366D01*
X35116Y9352D01*
X35116Y9380D01*
X35089Y9483D01*
X34878Y9576D01*
X34648Y9581D01*
X34433Y9498D01*
X34411Y9483D01*
X34384Y9380D01*
X34750Y9014D01*
X35116Y9380D01*
X35116Y9352D01*
X34764Y9000D01*
X35130Y8634D01*
X35233Y8661D01*
X35326Y8872D01*
X35331Y9102D01*
X35331Y550D01*
X35309Y550D01*
X35309Y1425D01*
X35309Y1654D01*
X35309Y6345D01*
X35309Y6574D01*
X35230Y6766D01*
X35230Y7904D01*
X35230Y8095D01*
X35157Y8271D01*
X35022Y8407D01*
X34925Y8448D01*
X35067Y8502D01*
X35089Y8517D01*
X35116Y8620D01*
X34750Y8986D01*
X34736Y8972D01*
X34736Y9000D01*
X34370Y9366D01*
X34267Y9339D01*
X34174Y9128D01*
X34169Y8898D01*
X34252Y8683D01*
X34267Y8661D01*
X34370Y8634D01*
X34736Y9000D01*
X34736Y8972D01*
X34384Y8620D01*
X34411Y8517D01*
X34572Y8446D01*
X34479Y8407D01*
X34343Y8272D01*
X34270Y8096D01*
X34270Y7905D01*
X34343Y7729D01*
X34478Y7593D01*
X34654Y7520D01*
X34845Y7520D01*
X35021Y7593D01*
X35157Y7728D01*
X35230Y7904D01*
X35230Y6766D01*
X35222Y6785D01*
X35060Y6947D01*
X34849Y7035D01*
X34620Y7035D01*
X34409Y6948D01*
X34247Y6786D01*
X34159Y6575D01*
X34159Y6346D01*
X34246Y6135D01*
X34408Y5973D01*
X34619Y5885D01*
X34848Y5885D01*
X35059Y5972D01*
X35221Y6134D01*
X35309Y6345D01*
X35309Y1654D01*
X35222Y1865D01*
X35060Y2027D01*
X34849Y2115D01*
X34620Y2115D01*
X34409Y2028D01*
X34247Y1866D01*
X34159Y1655D01*
X34159Y1426D01*
X34246Y1215D01*
X34408Y1053D01*
X34619Y965D01*
X34848Y965D01*
X35059Y1052D01*
X35221Y1214D01*
X35309Y1425D01*
X35309Y550D01*
X33341Y550D01*
X33341Y1425D01*
X33341Y1654D01*
X33254Y1865D01*
X33092Y2027D01*
X32966Y2080D01*
X32966Y5921D01*
X33091Y5972D01*
X33253Y6134D01*
X33341Y6345D01*
X33341Y6574D01*
X33254Y6785D01*
X33092Y6947D01*
X32966Y7000D01*
X32966Y10006D01*
X33025Y10065D01*
X33075Y10185D01*
X33075Y10314D01*
X33026Y10434D01*
X32935Y10525D01*
X32815Y10575D01*
X32686Y10575D01*
X32566Y10526D01*
X32475Y10435D01*
X32449Y10373D01*
X32449Y11410D01*
X32449Y11589D01*
X32449Y15410D01*
X32449Y15589D01*
X32381Y15754D01*
X32255Y15880D01*
X32090Y15949D01*
X31911Y15949D01*
X31746Y15881D01*
X31620Y15755D01*
X31551Y15590D01*
X31551Y15411D01*
X31619Y15246D01*
X31745Y15120D01*
X31910Y15051D01*
X32089Y15051D01*
X32254Y15119D01*
X32380Y15245D01*
X32449Y15410D01*
X32449Y11589D01*
X32381Y11754D01*
X32255Y11880D01*
X32090Y11949D01*
X31911Y11949D01*
X31746Y11881D01*
X31620Y11755D01*
X31551Y11590D01*
X31551Y11411D01*
X31619Y11246D01*
X31745Y11120D01*
X31800Y11097D01*
X31800Y8000D01*
X31800Y7333D01*
X31450Y6983D01*
X31450Y9750D01*
X31450Y12500D01*
X31435Y12576D01*
X31435Y12577D01*
X31391Y12641D01*
X31125Y12907D01*
X31125Y13935D01*
X31125Y14064D01*
X31076Y14184D01*
X30985Y14275D01*
X30865Y14325D01*
X30736Y14325D01*
X30616Y14276D01*
X30525Y14185D01*
X30475Y14065D01*
X30475Y14000D01*
X29960Y14000D01*
X30025Y14065D01*
X30075Y14185D01*
X30075Y14314D01*
X30026Y14434D01*
X29950Y14510D01*
X29950Y16168D01*
X30141Y16358D01*
X30141Y16359D01*
X30182Y16419D01*
X30224Y16316D01*
X30300Y16240D01*
X30300Y15904D01*
X30246Y15881D01*
X30120Y15755D01*
X30051Y15590D01*
X30051Y15411D01*
X30119Y15246D01*
X30245Y15120D01*
X30410Y15051D01*
X30589Y15051D01*
X30754Y15119D01*
X30880Y15245D01*
X30949Y15410D01*
X30949Y15589D01*
X30881Y15754D01*
X30755Y15880D01*
X30700Y15903D01*
X30700Y16240D01*
X30775Y16315D01*
X30825Y16435D01*
X30825Y16564D01*
X30776Y16684D01*
X30685Y16775D01*
X30565Y16825D01*
X30436Y16825D01*
X30316Y16776D01*
X30225Y16685D01*
X30200Y16625D01*
X30200Y17250D01*
X30185Y17327D01*
X30141Y17391D01*
X30141Y17392D01*
X29676Y17856D01*
X29699Y17910D01*
X29699Y18089D01*
X29631Y18254D01*
X29594Y18291D01*
X29594Y18641D01*
X29250Y18986D01*
X28906Y18641D01*
X28929Y18542D01*
X29128Y18454D01*
X29347Y18449D01*
X29551Y18528D01*
X29571Y18542D01*
X29594Y18641D01*
X29594Y18291D01*
X29505Y18380D01*
X29340Y18449D01*
X29161Y18449D01*
X28996Y18381D01*
X28870Y18255D01*
X28801Y18090D01*
X28801Y17911D01*
X28869Y17746D01*
X28995Y17620D01*
X29160Y17551D01*
X29339Y17551D01*
X29393Y17574D01*
X29800Y17168D01*
X29800Y16583D01*
X29699Y16482D01*
X29699Y16910D01*
X29699Y17089D01*
X29631Y17254D01*
X29505Y17380D01*
X29340Y17449D01*
X29161Y17449D01*
X28996Y17381D01*
X28870Y17255D01*
X28801Y17090D01*
X28801Y16911D01*
X28869Y16746D01*
X28995Y16620D01*
X29160Y16551D01*
X29339Y16551D01*
X29504Y16619D01*
X29630Y16745D01*
X29699Y16910D01*
X29699Y16482D01*
X29609Y16391D01*
X29565Y16327D01*
X29550Y16250D01*
X29550Y14510D01*
X29499Y14459D01*
X29499Y15121D01*
X29499Y15180D01*
X29499Y15880D01*
X29476Y15935D01*
X29434Y15977D01*
X29379Y15999D01*
X29320Y15999D01*
X28699Y15999D01*
X28699Y16910D01*
X28699Y17089D01*
X28699Y17910D01*
X28699Y18089D01*
X28631Y18254D01*
X28505Y18380D01*
X28340Y18449D01*
X28161Y18449D01*
X27996Y18381D01*
X27870Y18255D01*
X27801Y18090D01*
X27801Y17911D01*
X27869Y17746D01*
X27995Y17620D01*
X28160Y17551D01*
X28339Y17551D01*
X28504Y17619D01*
X28630Y17745D01*
X28699Y17910D01*
X28699Y17089D01*
X28631Y17254D01*
X28505Y17380D01*
X28340Y17449D01*
X28161Y17449D01*
X27996Y17381D01*
X27870Y17255D01*
X27801Y17090D01*
X27801Y16911D01*
X27869Y16746D01*
X27995Y16620D01*
X28160Y16551D01*
X28339Y16551D01*
X28504Y16619D01*
X28630Y16745D01*
X28699Y16910D01*
X28699Y15999D01*
X28620Y15999D01*
X28565Y15976D01*
X28523Y15934D01*
X28501Y15879D01*
X28501Y15820D01*
X28501Y15120D01*
X28524Y15065D01*
X28566Y15023D01*
X28621Y15001D01*
X28680Y15001D01*
X29380Y15001D01*
X29435Y15024D01*
X29477Y15066D01*
X29499Y15121D01*
X29499Y14459D01*
X29475Y14435D01*
X29425Y14315D01*
X29425Y14186D01*
X29474Y14066D01*
X29540Y14000D01*
X28882Y14000D01*
X28400Y14483D01*
X28400Y16200D01*
X28399Y16201D01*
X28385Y16277D01*
X28341Y16341D01*
X28341Y16342D01*
X28141Y16541D01*
X28077Y16585D01*
X28000Y16600D01*
X27482Y16600D01*
X27400Y16683D01*
X27400Y18340D01*
X27475Y18415D01*
X27525Y18535D01*
X27525Y18664D01*
X27476Y18784D01*
X27385Y18875D01*
X27265Y18925D01*
X27136Y18925D01*
X27016Y18876D01*
X26925Y18785D01*
X26875Y18665D01*
X26875Y18536D01*
X26924Y18416D01*
X27000Y18340D01*
X27000Y16600D01*
X27015Y16523D01*
X27059Y16459D01*
X27258Y16259D01*
X27259Y16259D01*
X27323Y16215D01*
X27399Y16201D01*
X27400Y16200D01*
X27917Y16200D01*
X28000Y16118D01*
X28000Y14400D01*
X28015Y14323D01*
X28059Y14259D01*
X28658Y13659D01*
X28659Y13659D01*
X28723Y13615D01*
X28800Y13600D01*
X30600Y13600D01*
X30600Y13601D01*
X30676Y13615D01*
X30677Y13615D01*
X30741Y13659D01*
X30757Y13675D01*
X30864Y13675D01*
X30984Y13724D01*
X31075Y13815D01*
X31125Y13935D01*
X31125Y12907D01*
X30891Y13141D01*
X30827Y13185D01*
X30750Y13200D01*
X28582Y13200D01*
X27949Y13834D01*
X27949Y15410D01*
X27949Y15589D01*
X27881Y15754D01*
X27755Y15880D01*
X27590Y15949D01*
X27411Y15949D01*
X27246Y15881D01*
X27120Y15755D01*
X27051Y15590D01*
X27051Y15411D01*
X27119Y15246D01*
X27245Y15120D01*
X27410Y15051D01*
X27589Y15051D01*
X27754Y15119D01*
X27880Y15245D01*
X27949Y15410D01*
X27949Y13834D01*
X26847Y14936D01*
X26847Y16869D01*
X26922Y16944D01*
X26972Y17064D01*
X26972Y17193D01*
X26923Y17313D01*
X26832Y17404D01*
X26712Y17454D01*
X26583Y17454D01*
X26463Y17405D01*
X26372Y17314D01*
X26325Y17202D01*
X26325Y17314D01*
X26276Y17434D01*
X26200Y17510D01*
X26200Y17740D01*
X26275Y17815D01*
X26325Y17935D01*
X26325Y18064D01*
X26276Y18184D01*
X26185Y18275D01*
X26065Y18325D01*
X25936Y18325D01*
X25816Y18276D01*
X25725Y18185D01*
X25675Y18065D01*
X25675Y17936D01*
X25724Y17816D01*
X25800Y17740D01*
X25800Y17510D01*
X25725Y17435D01*
X25675Y17315D01*
X25675Y17186D01*
X25724Y17066D01*
X25815Y16975D01*
X25935Y16925D01*
X26064Y16925D01*
X26184Y16974D01*
X26275Y17065D01*
X26322Y17178D01*
X26322Y17065D01*
X26371Y16945D01*
X26447Y16869D01*
X26447Y15824D01*
X26359Y15844D01*
X26344Y15830D01*
X26344Y15859D01*
X26321Y15958D01*
X26122Y16046D01*
X25903Y16051D01*
X25699Y15972D01*
X25679Y15958D01*
X25656Y15859D01*
X26000Y15514D01*
X26344Y15859D01*
X26344Y15830D01*
X26014Y15500D01*
X26359Y15156D01*
X26447Y15177D01*
X26447Y14853D01*
X26462Y14776D01*
X26506Y14712D01*
X28358Y12859D01*
X28359Y12859D01*
X28423Y12815D01*
X28500Y12800D01*
X30668Y12800D01*
X31050Y12418D01*
X31050Y9833D01*
X30949Y9732D01*
X30949Y11410D01*
X30949Y11589D01*
X30881Y11754D01*
X30755Y11880D01*
X30590Y11949D01*
X30411Y11949D01*
X30246Y11881D01*
X30120Y11755D01*
X30051Y11590D01*
X30051Y11411D01*
X30119Y11246D01*
X30245Y11120D01*
X30300Y11097D01*
X30300Y10833D01*
X30167Y10700D01*
X29499Y10700D01*
X29499Y11401D01*
X29499Y11599D01*
X29423Y11782D01*
X29283Y11923D01*
X29099Y11999D01*
X28901Y11999D01*
X28718Y11923D01*
X28577Y11783D01*
X28501Y11599D01*
X28501Y11401D01*
X28577Y11218D01*
X28717Y11077D01*
X28901Y11001D01*
X29099Y11001D01*
X29282Y11077D01*
X29423Y11217D01*
X29499Y11401D01*
X29499Y10700D01*
X27949Y10700D01*
X27949Y11410D01*
X27949Y11589D01*
X27881Y11754D01*
X27755Y11880D01*
X27590Y11949D01*
X27411Y11949D01*
X27246Y11881D01*
X27120Y11755D01*
X27097Y11700D01*
X26403Y11700D01*
X26381Y11754D01*
X26255Y11880D01*
X26200Y11903D01*
X26200Y13500D01*
X26199Y13501D01*
X26185Y13577D01*
X26141Y13641D01*
X26141Y13642D01*
X25075Y14708D01*
X25075Y14814D01*
X25026Y14934D01*
X24935Y15025D01*
X24815Y15075D01*
X24686Y15075D01*
X24566Y15026D01*
X24475Y14935D01*
X24425Y14815D01*
X24425Y14686D01*
X24474Y14566D01*
X24565Y14475D01*
X24685Y14425D01*
X24792Y14425D01*
X25800Y13418D01*
X25800Y12876D01*
X25776Y12934D01*
X25685Y13025D01*
X25565Y13075D01*
X25457Y13075D01*
X24325Y14208D01*
X24325Y14314D01*
X24276Y14434D01*
X24185Y14525D01*
X24065Y14575D01*
X24057Y14575D01*
X24741Y15259D01*
X24757Y15283D01*
X24802Y15238D01*
X24815Y15173D01*
X24859Y15109D01*
X26675Y13293D01*
X26675Y13186D01*
X26724Y13066D01*
X26815Y12975D01*
X26935Y12925D01*
X27064Y12925D01*
X27184Y12974D01*
X27275Y13065D01*
X27325Y13185D01*
X27325Y13314D01*
X27276Y13434D01*
X27185Y13525D01*
X27065Y13575D01*
X26957Y13575D01*
X26344Y14189D01*
X26344Y15141D01*
X26000Y15486D01*
X25986Y15472D01*
X25986Y15500D01*
X25641Y15844D01*
X25542Y15821D01*
X25454Y15622D01*
X25449Y15403D01*
X25528Y15199D01*
X25542Y15179D01*
X25641Y15156D01*
X25986Y15500D01*
X25986Y15472D01*
X25656Y15141D01*
X25679Y15042D01*
X25878Y14954D01*
X26097Y14949D01*
X26301Y15028D01*
X26321Y15042D01*
X26344Y15141D01*
X26344Y14189D01*
X25246Y15287D01*
X25275Y15315D01*
X25325Y15435D01*
X25325Y15564D01*
X25276Y15684D01*
X25185Y15775D01*
X25065Y15825D01*
X24936Y15825D01*
X24816Y15776D01*
X24800Y15760D01*
X24800Y17600D01*
X24799Y17601D01*
X24785Y17677D01*
X24741Y17741D01*
X24741Y17742D01*
X24541Y17941D01*
X24477Y17985D01*
X24400Y18000D01*
X23925Y18000D01*
X23925Y18415D01*
X23925Y18584D01*
X23861Y18740D01*
X23741Y18860D01*
X23585Y18925D01*
X23416Y18925D01*
X23260Y18861D01*
X23140Y18741D01*
X23075Y18585D01*
X23075Y18416D01*
X23139Y18260D01*
X23259Y18140D01*
X23415Y18075D01*
X23584Y18075D01*
X23740Y18139D01*
X23860Y18259D01*
X23925Y18415D01*
X23925Y18000D01*
X22700Y18000D01*
X22700Y18123D01*
X22740Y18139D01*
X22860Y18259D01*
X22925Y18415D01*
X22925Y18584D01*
X22861Y18740D01*
X22741Y18860D01*
X22585Y18925D01*
X22416Y18925D01*
X22260Y18861D01*
X22140Y18741D01*
X22075Y18585D01*
X22075Y18416D01*
X22139Y18260D01*
X22259Y18140D01*
X22300Y18123D01*
X22300Y17900D01*
X22315Y17823D01*
X22359Y17759D01*
X22458Y17659D01*
X22459Y17659D01*
X22523Y17615D01*
X22600Y17600D01*
X24317Y17600D01*
X24362Y17556D01*
X24315Y17575D01*
X24186Y17575D01*
X24066Y17526D01*
X23975Y17435D01*
X23925Y17315D01*
X23925Y17186D01*
X23974Y17066D01*
X24000Y17040D01*
X24000Y16250D01*
X24000Y15500D01*
X24000Y15483D01*
X23919Y15403D01*
X23925Y15415D01*
X23925Y15584D01*
X23861Y15740D01*
X23741Y15860D01*
X23585Y15925D01*
X23416Y15925D01*
X23260Y15861D01*
X23140Y15741D01*
X23075Y15585D01*
X23075Y15416D01*
X23139Y15260D01*
X23259Y15140D01*
X23415Y15075D01*
X23584Y15075D01*
X23598Y15082D01*
X23467Y14950D01*
X22925Y14950D01*
X22925Y15415D01*
X22925Y15584D01*
X22861Y15740D01*
X22741Y15860D01*
X22585Y15925D01*
X22416Y15925D01*
X22260Y15861D01*
X22140Y15741D01*
X22075Y15585D01*
X22075Y15416D01*
X22139Y15260D01*
X22259Y15140D01*
X22415Y15075D01*
X22584Y15075D01*
X22740Y15139D01*
X22860Y15259D01*
X22925Y15415D01*
X22925Y14950D01*
X21925Y14950D01*
X21925Y15415D01*
X21925Y15584D01*
X21925Y18415D01*
X21925Y18584D01*
X21861Y18740D01*
X21741Y18860D01*
X21585Y18925D01*
X21416Y18925D01*
X21260Y18861D01*
X21140Y18741D01*
X21075Y18585D01*
X21075Y18416D01*
X21139Y18260D01*
X21259Y18140D01*
X21415Y18075D01*
X21584Y18075D01*
X21740Y18139D01*
X21860Y18259D01*
X21925Y18415D01*
X21925Y15584D01*
X21861Y15740D01*
X21741Y15860D01*
X21585Y15925D01*
X21416Y15925D01*
X21260Y15861D01*
X21140Y15741D01*
X21075Y15585D01*
X21075Y15416D01*
X21139Y15260D01*
X21259Y15140D01*
X21415Y15075D01*
X21584Y15075D01*
X21740Y15139D01*
X21860Y15259D01*
X21925Y15415D01*
X21925Y14950D01*
X20925Y14950D01*
X20925Y15415D01*
X20925Y15584D01*
X20925Y18415D01*
X20925Y18584D01*
X20861Y18740D01*
X20741Y18860D01*
X20585Y18925D01*
X20416Y18925D01*
X20260Y18861D01*
X20140Y18741D01*
X20075Y18585D01*
X20075Y18416D01*
X20139Y18260D01*
X20259Y18140D01*
X20415Y18075D01*
X20584Y18075D01*
X20740Y18139D01*
X20860Y18259D01*
X20925Y18415D01*
X20925Y15584D01*
X20861Y15740D01*
X20741Y15860D01*
X20585Y15925D01*
X20416Y15925D01*
X20260Y15861D01*
X20140Y15741D01*
X20075Y15585D01*
X20075Y15416D01*
X20139Y15260D01*
X20259Y15140D01*
X20415Y15075D01*
X20584Y15075D01*
X20740Y15139D01*
X20860Y15259D01*
X20925Y15415D01*
X20925Y14950D01*
X20000Y14950D01*
X19925Y14936D01*
X19925Y15415D01*
X19925Y15584D01*
X19925Y18415D01*
X19925Y18584D01*
X19861Y18740D01*
X19741Y18860D01*
X19585Y18925D01*
X19416Y18925D01*
X19260Y18861D01*
X19140Y18741D01*
X19075Y18585D01*
X19075Y18416D01*
X19139Y18260D01*
X19259Y18140D01*
X19300Y18123D01*
X19300Y17510D01*
X19225Y17435D01*
X19175Y17315D01*
X19175Y17186D01*
X19224Y17066D01*
X19315Y16975D01*
X19435Y16925D01*
X19564Y16925D01*
X19684Y16974D01*
X19775Y17065D01*
X19825Y17185D01*
X19825Y17314D01*
X19776Y17434D01*
X19700Y17510D01*
X19700Y18123D01*
X19740Y18139D01*
X19860Y18259D01*
X19925Y18415D01*
X19925Y15584D01*
X19861Y15740D01*
X19741Y15860D01*
X19585Y15925D01*
X19416Y15925D01*
X19260Y15861D01*
X19140Y15741D01*
X19075Y15585D01*
X19075Y15416D01*
X19139Y15260D01*
X19259Y15140D01*
X19415Y15075D01*
X19584Y15075D01*
X19740Y15139D01*
X19860Y15259D01*
X19925Y15415D01*
X19925Y14936D01*
X19923Y14935D01*
X19859Y14891D01*
X19359Y14391D01*
X19315Y14327D01*
X19300Y14250D01*
X19300Y13333D01*
X19025Y13058D01*
X19025Y18593D01*
X18950Y18787D01*
X18938Y18806D01*
X18841Y18827D01*
X18827Y18813D01*
X18827Y18841D01*
X18806Y18938D01*
X18615Y19021D01*
X18407Y19025D01*
X18213Y18950D01*
X18194Y18938D01*
X18173Y18841D01*
X18500Y18514D01*
X18827Y18841D01*
X18827Y18813D01*
X18514Y18500D01*
X18841Y18173D01*
X18938Y18194D01*
X19021Y18385D01*
X19025Y18593D01*
X19025Y13058D01*
X18925Y12958D01*
X18925Y15415D01*
X18925Y15584D01*
X18861Y15740D01*
X18827Y15774D01*
X18827Y18159D01*
X18500Y18486D01*
X18486Y18472D01*
X18486Y18500D01*
X18159Y18827D01*
X18062Y18806D01*
X17979Y18615D01*
X17975Y18407D01*
X18050Y18213D01*
X18062Y18194D01*
X18159Y18173D01*
X18486Y18500D01*
X18486Y18472D01*
X18173Y18159D01*
X18194Y18062D01*
X18385Y17979D01*
X18593Y17975D01*
X18787Y18050D01*
X18806Y18062D01*
X18827Y18159D01*
X18827Y15774D01*
X18825Y15776D01*
X18825Y17435D01*
X18825Y17564D01*
X18776Y17684D01*
X18685Y17775D01*
X18565Y17825D01*
X18436Y17825D01*
X18316Y17776D01*
X18240Y17700D01*
X17925Y17700D01*
X17925Y18415D01*
X17925Y18584D01*
X17861Y18740D01*
X17741Y18860D01*
X17585Y18925D01*
X17416Y18925D01*
X17260Y18861D01*
X17140Y18741D01*
X17075Y18585D01*
X17075Y18416D01*
X17139Y18260D01*
X17259Y18140D01*
X17415Y18075D01*
X17584Y18075D01*
X17740Y18139D01*
X17860Y18259D01*
X17925Y18415D01*
X17925Y17700D01*
X16925Y17700D01*
X16925Y18415D01*
X16925Y18584D01*
X16861Y18740D01*
X16741Y18860D01*
X16585Y18925D01*
X16416Y18925D01*
X16260Y18861D01*
X16140Y18741D01*
X16075Y18585D01*
X16075Y18416D01*
X16139Y18260D01*
X16259Y18140D01*
X16415Y18075D01*
X16584Y18075D01*
X16740Y18139D01*
X16860Y18259D01*
X16925Y18415D01*
X16925Y17700D01*
X15925Y17700D01*
X15925Y18415D01*
X15925Y18584D01*
X15861Y18740D01*
X15741Y18860D01*
X15585Y18925D01*
X15416Y18925D01*
X15260Y18861D01*
X15140Y18741D01*
X15075Y18585D01*
X15075Y18416D01*
X15139Y18260D01*
X15259Y18140D01*
X15415Y18075D01*
X15584Y18075D01*
X15740Y18139D01*
X15860Y18259D01*
X15925Y18415D01*
X15925Y17700D01*
X15082Y17700D01*
X14700Y18082D01*
X14700Y18123D01*
X14740Y18139D01*
X14860Y18259D01*
X14925Y18415D01*
X14925Y18584D01*
X14861Y18740D01*
X14741Y18860D01*
X14585Y18925D01*
X14416Y18925D01*
X14260Y18861D01*
X14140Y18741D01*
X14075Y18585D01*
X14075Y18416D01*
X14139Y18260D01*
X14259Y18140D01*
X14300Y18123D01*
X14300Y18000D01*
X14315Y17923D01*
X14359Y17859D01*
X14859Y17359D01*
X14923Y17315D01*
X14924Y17315D01*
X15000Y17300D01*
X18240Y17300D01*
X18315Y17225D01*
X18435Y17175D01*
X18564Y17175D01*
X18684Y17224D01*
X18775Y17315D01*
X18825Y17435D01*
X18825Y15776D01*
X18741Y15860D01*
X18585Y15925D01*
X18416Y15925D01*
X18325Y15888D01*
X18325Y16435D01*
X18325Y16564D01*
X18276Y16684D01*
X18185Y16775D01*
X18065Y16825D01*
X17936Y16825D01*
X17816Y16776D01*
X17740Y16700D01*
X15500Y16700D01*
X13925Y16700D01*
X13925Y18415D01*
X13925Y18584D01*
X13861Y18740D01*
X13741Y18860D01*
X13585Y18925D01*
X13416Y18925D01*
X13260Y18861D01*
X13140Y18741D01*
X13075Y18585D01*
X13075Y18416D01*
X13139Y18260D01*
X13183Y18216D01*
X12417Y17450D01*
X9500Y17450D01*
X9477Y17446D01*
X9582Y17550D01*
X12000Y17550D01*
X12000Y17551D01*
X12076Y17565D01*
X12077Y17565D01*
X12141Y17609D01*
X12623Y18091D01*
X12740Y18139D01*
X12860Y18259D01*
X12925Y18415D01*
X12925Y18584D01*
X12861Y18740D01*
X12741Y18860D01*
X12585Y18925D01*
X12416Y18925D01*
X12260Y18861D01*
X12140Y18741D01*
X12075Y18585D01*
X12075Y18416D01*
X12139Y18260D01*
X12183Y18216D01*
X11925Y17958D01*
X11925Y18415D01*
X11925Y18584D01*
X11861Y18740D01*
X11741Y18860D01*
X11585Y18925D01*
X11416Y18925D01*
X11260Y18861D01*
X11140Y18741D01*
X11075Y18585D01*
X11075Y18416D01*
X11139Y18260D01*
X11259Y18140D01*
X11415Y18075D01*
X11584Y18075D01*
X11740Y18139D01*
X11860Y18259D01*
X11925Y18415D01*
X11925Y17958D01*
X11918Y17950D01*
X9500Y17950D01*
X9423Y17935D01*
X9359Y17891D01*
X8859Y17391D01*
X8825Y17342D01*
X8825Y17435D01*
X8825Y17564D01*
X8776Y17684D01*
X8685Y17775D01*
X8565Y17825D01*
X8436Y17825D01*
X8316Y17776D01*
X8301Y17761D01*
X8301Y19097D01*
X8222Y19301D01*
X8208Y19321D01*
X8109Y19344D01*
X7764Y19000D01*
X8109Y18656D01*
X8208Y18679D01*
X8296Y18878D01*
X8301Y19097D01*
X8301Y17761D01*
X8225Y17685D01*
X8175Y17565D01*
X8175Y17436D01*
X8224Y17316D01*
X8300Y17240D01*
X8300Y14583D01*
X8199Y14482D01*
X8199Y14910D01*
X8199Y15089D01*
X8131Y15254D01*
X8094Y15291D01*
X8094Y18641D01*
X7750Y18986D01*
X7736Y18972D01*
X7736Y19000D01*
X7391Y19344D01*
X7292Y19321D01*
X7204Y19122D01*
X7199Y18903D01*
X7278Y18699D01*
X7292Y18679D01*
X7391Y18656D01*
X7736Y19000D01*
X7736Y18972D01*
X7406Y18641D01*
X7429Y18542D01*
X7628Y18454D01*
X7847Y18449D01*
X8051Y18528D01*
X8071Y18542D01*
X8094Y18641D01*
X8094Y15291D01*
X8005Y15380D01*
X7840Y15449D01*
X7661Y15449D01*
X7496Y15381D01*
X7370Y15255D01*
X7301Y15090D01*
X7301Y14911D01*
X7369Y14746D01*
X7495Y14620D01*
X7660Y14551D01*
X7839Y14551D01*
X8004Y14619D01*
X8130Y14745D01*
X8199Y14910D01*
X8199Y14482D01*
X8167Y14450D01*
X7750Y14450D01*
X7673Y14435D01*
X7608Y14391D01*
X6949Y13732D01*
X6949Y14910D01*
X6949Y15089D01*
X6949Y18910D01*
X6949Y19089D01*
X6881Y19254D01*
X6755Y19380D01*
X6590Y19449D01*
X6411Y19449D01*
X6246Y19381D01*
X6120Y19255D01*
X6051Y19090D01*
X6051Y18911D01*
X6119Y18746D01*
X6245Y18620D01*
X6410Y18551D01*
X6589Y18551D01*
X6754Y18619D01*
X6880Y18745D01*
X6949Y18910D01*
X6949Y15089D01*
X6881Y15254D01*
X6755Y15380D01*
X6590Y15449D01*
X6411Y15449D01*
X6246Y15381D01*
X6120Y15255D01*
X6051Y15090D01*
X6051Y14911D01*
X6073Y14857D01*
X5470Y14254D01*
X5470Y17906D01*
X5470Y18093D01*
X5399Y18266D01*
X5267Y18398D01*
X5094Y18470D01*
X4907Y18470D01*
X4734Y18399D01*
X4602Y18267D01*
X4530Y18094D01*
X4530Y17907D01*
X4601Y17734D01*
X4733Y17602D01*
X4906Y17530D01*
X5093Y17530D01*
X5266Y17601D01*
X5398Y17733D01*
X5470Y17906D01*
X5470Y14254D01*
X5449Y14233D01*
X5449Y15410D01*
X5449Y15589D01*
X5449Y16910D01*
X5449Y17089D01*
X5381Y17254D01*
X5255Y17380D01*
X5090Y17449D01*
X4911Y17449D01*
X4746Y17381D01*
X4620Y17255D01*
X4551Y17090D01*
X4551Y16911D01*
X4619Y16746D01*
X4745Y16620D01*
X4910Y16551D01*
X5089Y16551D01*
X5254Y16619D01*
X5380Y16745D01*
X5449Y16910D01*
X5449Y15589D01*
X5381Y15754D01*
X5255Y15880D01*
X5090Y15949D01*
X4911Y15949D01*
X4746Y15881D01*
X4620Y15755D01*
X4551Y15590D01*
X4551Y15411D01*
X4619Y15246D01*
X4745Y15120D01*
X4910Y15051D01*
X5089Y15051D01*
X5254Y15119D01*
X5380Y15245D01*
X5449Y15410D01*
X5449Y14233D01*
X5417Y14200D01*
X4877Y14200D01*
X4861Y14240D01*
X4741Y14360D01*
X4585Y14425D01*
X4470Y14425D01*
X4470Y17906D01*
X4470Y18093D01*
X4399Y18266D01*
X4267Y18398D01*
X4094Y18470D01*
X3907Y18470D01*
X3734Y18399D01*
X3602Y18267D01*
X3530Y18094D01*
X3530Y17907D01*
X3601Y17734D01*
X3733Y17602D01*
X3906Y17530D01*
X4093Y17530D01*
X4266Y17601D01*
X4398Y17733D01*
X4470Y17906D01*
X4470Y14425D01*
X4449Y14425D01*
X4449Y16910D01*
X4449Y17089D01*
X4381Y17254D01*
X4255Y17380D01*
X4090Y17449D01*
X3911Y17449D01*
X3746Y17381D01*
X3620Y17255D01*
X3551Y17090D01*
X3551Y16911D01*
X3573Y16857D01*
X1859Y15141D01*
X1815Y15077D01*
X1800Y15000D01*
X1800Y14378D01*
X1760Y14361D01*
X1640Y14241D01*
X1575Y14085D01*
X1575Y13916D01*
X1639Y13760D01*
X1759Y13640D01*
X1915Y13575D01*
X2084Y13575D01*
X2125Y13593D01*
X2300Y13418D01*
X2300Y12878D01*
X2260Y12861D01*
X2140Y12741D01*
X2075Y12585D01*
X2075Y12416D01*
X2139Y12260D01*
X2259Y12140D01*
X2415Y12075D01*
X2584Y12075D01*
X2740Y12139D01*
X2860Y12259D01*
X2925Y12415D01*
X2925Y12584D01*
X2861Y12740D01*
X2741Y12860D01*
X2700Y12878D01*
X2700Y13500D01*
X2685Y13576D01*
X2685Y13577D01*
X2641Y13641D01*
X2407Y13875D01*
X2425Y13915D01*
X2425Y14084D01*
X2361Y14240D01*
X2241Y14360D01*
X2200Y14378D01*
X2200Y14918D01*
X3856Y16574D01*
X3910Y16551D01*
X4089Y16551D01*
X4254Y16619D01*
X4380Y16745D01*
X4449Y16910D01*
X4449Y14425D01*
X4416Y14425D01*
X4260Y14361D01*
X4140Y14241D01*
X4075Y14085D01*
X4075Y13916D01*
X4139Y13760D01*
X4259Y13640D01*
X4415Y13575D01*
X4584Y13575D01*
X4740Y13639D01*
X4860Y13759D01*
X4877Y13800D01*
X5500Y13800D01*
X5500Y13801D01*
X5576Y13815D01*
X5577Y13815D01*
X5641Y13859D01*
X6356Y14574D01*
X6410Y14551D01*
X6589Y14551D01*
X6754Y14619D01*
X6880Y14745D01*
X6949Y14910D01*
X6949Y13732D01*
X6859Y13641D01*
X6815Y13577D01*
X6800Y13500D01*
X6800Y10750D01*
X6815Y10673D01*
X6859Y10609D01*
X7300Y10168D01*
X7300Y4260D01*
X7225Y4185D01*
X7175Y4065D01*
X7175Y3936D01*
X7224Y3816D01*
X7315Y3725D01*
X7435Y3675D01*
X7564Y3675D01*
X7684Y3724D01*
X7775Y3815D01*
X7825Y3935D01*
X7825Y4064D01*
X7776Y4184D01*
X7700Y4260D01*
X7700Y10250D01*
X7685Y10326D01*
X7685Y10327D01*
X7641Y10391D01*
X7200Y10832D01*
X7200Y13418D01*
X7832Y14050D01*
X8250Y14050D01*
X8250Y14051D01*
X8326Y14065D01*
X8327Y14065D01*
X8391Y14109D01*
X8641Y14358D01*
X8641Y14359D01*
X8685Y14423D01*
X8699Y14500D01*
X8700Y14500D01*
X8700Y17240D01*
X8775Y17315D01*
X8825Y17435D01*
X8825Y17342D01*
X8815Y17327D01*
X8800Y17250D01*
X8800Y10000D01*
X8815Y9923D01*
X8859Y9859D01*
X9300Y9418D01*
X9300Y9250D01*
X9300Y8333D01*
X9167Y8200D01*
X9081Y8200D01*
X9081Y9102D01*
X8998Y9317D01*
X8983Y9339D01*
X8880Y9366D01*
X8866Y9352D01*
X8866Y9380D01*
X8839Y9483D01*
X8628Y9576D01*
X8475Y9580D01*
X8475Y11905D01*
X8475Y12094D01*
X8474Y12097D01*
X8474Y12646D01*
X8474Y12705D01*
X8474Y13355D01*
X8451Y13410D01*
X8409Y13452D01*
X8354Y13474D01*
X8295Y13474D01*
X7645Y13474D01*
X7590Y13451D01*
X7548Y13409D01*
X7526Y13354D01*
X7526Y13295D01*
X7526Y12645D01*
X7549Y12590D01*
X7591Y12548D01*
X7646Y12526D01*
X7705Y12526D01*
X8355Y12526D01*
X8410Y12549D01*
X8452Y12591D01*
X8474Y12646D01*
X8474Y12097D01*
X8403Y12269D01*
X8269Y12402D01*
X8095Y12475D01*
X7906Y12475D01*
X7731Y12403D01*
X7598Y12269D01*
X7525Y12095D01*
X7525Y11906D01*
X7597Y11731D01*
X7731Y11598D01*
X7905Y11525D01*
X8094Y11525D01*
X8269Y11597D01*
X8402Y11731D01*
X8475Y11905D01*
X8475Y9580D01*
X8398Y9581D01*
X8183Y9498D01*
X8161Y9483D01*
X8134Y9380D01*
X8500Y9014D01*
X8866Y9380D01*
X8866Y9352D01*
X8514Y9000D01*
X8880Y8634D01*
X8983Y8661D01*
X9076Y8872D01*
X9081Y9102D01*
X9081Y8200D01*
X8936Y8200D01*
X8907Y8271D01*
X8772Y8407D01*
X8675Y8448D01*
X8817Y8502D01*
X8839Y8517D01*
X8866Y8620D01*
X8500Y8986D01*
X8486Y8972D01*
X8486Y9000D01*
X8120Y9366D01*
X8017Y9339D01*
X7924Y9128D01*
X7919Y8898D01*
X8002Y8683D01*
X8017Y8661D01*
X8120Y8634D01*
X8486Y9000D01*
X8486Y8972D01*
X8134Y8620D01*
X8161Y8517D01*
X8322Y8446D01*
X8229Y8407D01*
X8093Y8272D01*
X8020Y8096D01*
X8020Y7905D01*
X8093Y7729D01*
X8228Y7593D01*
X8404Y7520D01*
X8595Y7520D01*
X8771Y7593D01*
X8907Y7728D01*
X8936Y7800D01*
X9250Y7800D01*
X9250Y7801D01*
X9326Y7815D01*
X9327Y7815D01*
X9391Y7859D01*
X9641Y8108D01*
X9641Y8109D01*
X9685Y8173D01*
X9699Y8250D01*
X9700Y8250D01*
X9700Y9250D01*
X9700Y9500D01*
X9685Y9576D01*
X9685Y9577D01*
X9641Y9641D01*
X9200Y10082D01*
X9200Y10125D01*
X9224Y10066D01*
X9315Y9975D01*
X9435Y9925D01*
X9564Y9925D01*
X9684Y9974D01*
X9775Y10065D01*
X9800Y10125D01*
X9800Y3260D01*
X9725Y3185D01*
X9675Y3065D01*
X9675Y2936D01*
X9724Y2816D01*
X9815Y2725D01*
X9935Y2675D01*
X10064Y2675D01*
X10184Y2724D01*
X10275Y2815D01*
X10325Y2935D01*
X10325Y3064D01*
X10276Y3184D01*
X10200Y3260D01*
X10200Y14168D01*
X10582Y14550D01*
X11000Y14550D01*
X11000Y14551D01*
X11076Y14565D01*
X11077Y14565D01*
X11141Y14609D01*
X11623Y15091D01*
X11740Y15139D01*
X11860Y15259D01*
X11925Y15415D01*
X11925Y15584D01*
X11861Y15740D01*
X11741Y15860D01*
X11585Y15925D01*
X11416Y15925D01*
X11260Y15861D01*
X11140Y15741D01*
X11075Y15585D01*
X11075Y15416D01*
X11139Y15260D01*
X11183Y15216D01*
X10918Y14950D01*
X10500Y14950D01*
X10423Y14935D01*
X10359Y14891D01*
X9859Y14391D01*
X9815Y14327D01*
X9800Y14250D01*
X9800Y10376D01*
X9776Y10434D01*
X9700Y10510D01*
X9700Y17050D01*
X12500Y17050D01*
X12500Y17051D01*
X12576Y17065D01*
X12577Y17065D01*
X12641Y17109D01*
X13624Y18092D01*
X13740Y18139D01*
X13860Y18259D01*
X13925Y18415D01*
X13925Y16700D01*
X11000Y16700D01*
X10923Y16685D01*
X10859Y16641D01*
X10359Y16141D01*
X10315Y16077D01*
X10300Y16000D01*
X10300Y15924D01*
X10195Y15924D01*
X10140Y15901D01*
X10098Y15859D01*
X10076Y15804D01*
X10076Y15745D01*
X10076Y15195D01*
X10099Y15140D01*
X10141Y15098D01*
X10196Y15076D01*
X10255Y15076D01*
X10805Y15076D01*
X10860Y15099D01*
X10902Y15141D01*
X10924Y15196D01*
X10924Y15255D01*
X10924Y15805D01*
X10901Y15860D01*
X10859Y15902D01*
X10804Y15924D01*
X10745Y15924D01*
X10706Y15924D01*
X11082Y16300D01*
X15500Y16300D01*
X17740Y16300D01*
X17815Y16225D01*
X17935Y16175D01*
X18064Y16175D01*
X18184Y16224D01*
X18275Y16315D01*
X18325Y16435D01*
X18325Y15888D01*
X18260Y15861D01*
X18140Y15741D01*
X18075Y15585D01*
X18075Y15416D01*
X18139Y15260D01*
X18259Y15140D01*
X18415Y15075D01*
X18584Y15075D01*
X18740Y15139D01*
X18860Y15259D01*
X18925Y15415D01*
X18925Y12958D01*
X18425Y12458D01*
X18425Y12915D01*
X18425Y13084D01*
X18361Y13240D01*
X18241Y13360D01*
X18085Y13425D01*
X17925Y13425D01*
X17925Y14165D01*
X17925Y14334D01*
X17925Y15415D01*
X17925Y15584D01*
X17861Y15740D01*
X17741Y15860D01*
X17585Y15925D01*
X17416Y15925D01*
X17260Y15861D01*
X17140Y15741D01*
X17075Y15585D01*
X17075Y15416D01*
X17139Y15260D01*
X17259Y15140D01*
X17415Y15075D01*
X17584Y15075D01*
X17740Y15139D01*
X17860Y15259D01*
X17925Y15415D01*
X17925Y14334D01*
X17861Y14490D01*
X17741Y14610D01*
X17585Y14675D01*
X17416Y14675D01*
X17260Y14611D01*
X17140Y14491D01*
X17075Y14335D01*
X17075Y14166D01*
X17139Y14010D01*
X17259Y13890D01*
X17415Y13825D01*
X17584Y13825D01*
X17740Y13889D01*
X17860Y14009D01*
X17925Y14165D01*
X17925Y13425D01*
X17916Y13425D01*
X17760Y13361D01*
X17640Y13241D01*
X17575Y13085D01*
X17575Y12916D01*
X17639Y12760D01*
X17759Y12640D01*
X17915Y12575D01*
X18084Y12575D01*
X18240Y12639D01*
X18360Y12759D01*
X18425Y12915D01*
X18425Y12458D01*
X18284Y12317D01*
X18241Y12360D01*
X18085Y12425D01*
X17916Y12425D01*
X17760Y12361D01*
X17640Y12241D01*
X17575Y12085D01*
X17575Y11916D01*
X17639Y11760D01*
X17759Y11640D01*
X17915Y11575D01*
X18084Y11575D01*
X18240Y11639D01*
X18360Y11759D01*
X18409Y11878D01*
X19641Y13108D01*
X19641Y13109D01*
X19685Y13173D01*
X19699Y13249D01*
X19700Y13250D01*
X19700Y14168D01*
X20082Y14550D01*
X23468Y14550D01*
X23318Y14400D01*
X20600Y14400D01*
X20523Y14385D01*
X20458Y14341D01*
X20109Y13991D01*
X20065Y13927D01*
X20050Y13850D01*
X20050Y13750D01*
X20050Y12583D01*
X18667Y11200D01*
X18377Y11200D01*
X18361Y11240D01*
X18241Y11360D01*
X18085Y11425D01*
X17916Y11425D01*
X17760Y11361D01*
X17640Y11241D01*
X17575Y11085D01*
X17575Y10916D01*
X17639Y10760D01*
X17759Y10640D01*
X17915Y10575D01*
X18084Y10575D01*
X18240Y10639D01*
X18360Y10759D01*
X18377Y10800D01*
X18750Y10800D01*
X18750Y10801D01*
X18826Y10815D01*
X18827Y10815D01*
X18891Y10859D01*
X20391Y12358D01*
X20391Y12359D01*
X20435Y12423D01*
X20449Y12500D01*
X20450Y12500D01*
X20450Y13750D01*
X20450Y13768D01*
X20682Y14000D01*
X23400Y14000D01*
X23400Y14001D01*
X23476Y14015D01*
X23477Y14015D01*
X23541Y14059D01*
X23675Y14193D01*
X23675Y14186D01*
X23720Y14075D01*
X23686Y14075D01*
X23566Y14026D01*
X23475Y13935D01*
X23425Y13815D01*
X23425Y13686D01*
X23474Y13566D01*
X23565Y13475D01*
X23685Y13425D01*
X23792Y13425D01*
X24800Y12418D01*
X24800Y10510D01*
X24725Y10435D01*
X24675Y10315D01*
X24675Y10186D01*
X24724Y10066D01*
X24815Y9975D01*
X24935Y9925D01*
X25064Y9925D01*
X25184Y9974D01*
X25275Y10065D01*
X25325Y10185D01*
X25325Y10314D01*
X25276Y10434D01*
X25200Y10510D01*
X25200Y12500D01*
X25199Y12501D01*
X25185Y12577D01*
X25141Y12641D01*
X25141Y12642D01*
X24075Y13708D01*
X24075Y13814D01*
X24029Y13925D01*
X24042Y13925D01*
X25175Y12793D01*
X25175Y12686D01*
X25224Y12566D01*
X25315Y12475D01*
X25435Y12425D01*
X25564Y12425D01*
X25684Y12474D01*
X25775Y12565D01*
X25800Y12625D01*
X25800Y11904D01*
X25746Y11881D01*
X25620Y11755D01*
X25551Y11590D01*
X25551Y11411D01*
X25619Y11246D01*
X25745Y11120D01*
X25910Y11051D01*
X26089Y11051D01*
X26254Y11119D01*
X26380Y11245D01*
X26403Y11300D01*
X27096Y11300D01*
X27119Y11246D01*
X27245Y11120D01*
X27410Y11051D01*
X27589Y11051D01*
X27754Y11119D01*
X27880Y11245D01*
X27949Y11410D01*
X27949Y10700D01*
X27750Y10700D01*
X27500Y10700D01*
X27423Y10685D01*
X27358Y10641D01*
X26109Y9391D01*
X26065Y9327D01*
X26050Y9250D01*
X26050Y2760D01*
X25975Y2685D01*
X25925Y2565D01*
X25925Y2436D01*
X25974Y2316D01*
X26065Y2225D01*
X26185Y2175D01*
X26314Y2175D01*
X26434Y2224D01*
X26525Y2315D01*
X26575Y2435D01*
X26575Y2564D01*
X26526Y2684D01*
X26450Y2760D01*
X26450Y9168D01*
X27582Y10300D01*
X27750Y10300D01*
X30250Y10300D01*
X30250Y10301D01*
X30326Y10315D01*
X30327Y10315D01*
X30391Y10359D01*
X30641Y10608D01*
X30641Y10609D01*
X30685Y10673D01*
X30699Y10750D01*
X30700Y10750D01*
X30700Y11097D01*
X30754Y11119D01*
X30880Y11245D01*
X30949Y11410D01*
X30949Y9732D01*
X30417Y9200D01*
X29936Y9200D01*
X29907Y9271D01*
X29772Y9407D01*
X29596Y9480D01*
X29405Y9480D01*
X29229Y9407D01*
X29093Y9272D01*
X29020Y9096D01*
X29020Y8905D01*
X29093Y8729D01*
X29228Y8593D01*
X29404Y8520D01*
X29595Y8520D01*
X29771Y8593D01*
X29907Y8728D01*
X29936Y8800D01*
X30500Y8800D01*
X30500Y8801D01*
X30576Y8815D01*
X30577Y8815D01*
X30641Y8859D01*
X31391Y9608D01*
X31391Y9609D01*
X31435Y9673D01*
X31449Y9750D01*
X31450Y9750D01*
X31450Y6983D01*
X30059Y5592D01*
X30059Y6345D01*
X30059Y6574D01*
X29980Y6766D01*
X29980Y7904D01*
X29980Y8095D01*
X29907Y8271D01*
X29772Y8407D01*
X29596Y8480D01*
X29405Y8480D01*
X29229Y8407D01*
X29093Y8272D01*
X29020Y8096D01*
X29020Y7905D01*
X29093Y7729D01*
X29228Y7593D01*
X29404Y7520D01*
X29595Y7520D01*
X29771Y7593D01*
X29907Y7728D01*
X29980Y7904D01*
X29980Y6766D01*
X29972Y6785D01*
X29810Y6947D01*
X29599Y7035D01*
X29370Y7035D01*
X29159Y6948D01*
X28997Y6786D01*
X28909Y6575D01*
X28909Y6346D01*
X28996Y6135D01*
X29158Y5973D01*
X29369Y5885D01*
X29598Y5885D01*
X29809Y5972D01*
X29971Y6134D01*
X30059Y6345D01*
X30059Y5592D01*
X27917Y3450D01*
X27760Y3450D01*
X27716Y3494D01*
X27716Y5921D01*
X27841Y5972D01*
X28003Y6134D01*
X28091Y6345D01*
X28091Y6574D01*
X28004Y6785D01*
X27842Y6947D01*
X27631Y7035D01*
X27402Y7035D01*
X27191Y6948D01*
X27029Y6786D01*
X26941Y6575D01*
X26941Y6346D01*
X27028Y6135D01*
X27190Y5973D01*
X27316Y5921D01*
X27316Y3526D01*
X27225Y3435D01*
X27175Y3315D01*
X27175Y3186D01*
X27224Y3066D01*
X27300Y2990D01*
X27300Y2073D01*
X27191Y2028D01*
X27029Y1866D01*
X26941Y1655D01*
X26941Y1426D01*
X27028Y1215D01*
X27190Y1053D01*
X27401Y965D01*
X27630Y965D01*
X27841Y1052D01*
X28003Y1214D01*
X28091Y1425D01*
X28091Y1654D01*
X28004Y1865D01*
X27842Y2027D01*
X27700Y2087D01*
X27700Y2990D01*
X27760Y3050D01*
X28000Y3050D01*
X28000Y3051D01*
X28076Y3065D01*
X28077Y3065D01*
X28141Y3109D01*
X32141Y7108D01*
X32141Y7109D01*
X32185Y7173D01*
X32199Y7249D01*
X32200Y7250D01*
X32200Y8000D01*
X32200Y11097D01*
X32254Y11119D01*
X32380Y11245D01*
X32449Y11410D01*
X32449Y10373D01*
X32425Y10315D01*
X32425Y10186D01*
X32474Y10066D01*
X32565Y9975D01*
X32566Y9975D01*
X32566Y7000D01*
X32441Y6948D01*
X32279Y6786D01*
X32191Y6575D01*
X32191Y6346D01*
X32278Y6135D01*
X32440Y5973D01*
X32566Y5921D01*
X32566Y2080D01*
X32441Y2028D01*
X32279Y1866D01*
X32191Y1655D01*
X32191Y1426D01*
X32278Y1215D01*
X32440Y1053D01*
X32651Y965D01*
X32880Y965D01*
X33091Y1052D01*
X33253Y1214D01*
X33341Y1425D01*
X33341Y550D01*
X30059Y550D01*
X30059Y1425D01*
X30059Y1654D01*
X29972Y1865D01*
X29810Y2027D01*
X29599Y2115D01*
X29370Y2115D01*
X29159Y2028D01*
X28997Y1866D01*
X28909Y1655D01*
X28909Y1426D01*
X28996Y1215D01*
X29158Y1053D01*
X29369Y965D01*
X29598Y965D01*
X29809Y1052D01*
X29971Y1214D01*
X30059Y1425D01*
X30059Y550D01*
X24831Y550D01*
X24831Y9102D01*
X24748Y9317D01*
X24733Y9339D01*
X24630Y9366D01*
X24616Y9352D01*
X24616Y9380D01*
X24589Y9483D01*
X24575Y9490D01*
X24575Y12185D01*
X24575Y12314D01*
X24526Y12434D01*
X24435Y12525D01*
X24315Y12575D01*
X24186Y12575D01*
X24066Y12526D01*
X23975Y12435D01*
X23925Y12315D01*
X23925Y12186D01*
X23974Y12066D01*
X24050Y11990D01*
X24050Y10083D01*
X23925Y9958D01*
X23925Y10415D01*
X23925Y10584D01*
X23925Y11415D01*
X23925Y11584D01*
X23861Y11740D01*
X23741Y11860D01*
X23585Y11925D01*
X23416Y11925D01*
X23374Y11908D01*
X23200Y12082D01*
X23200Y13118D01*
X23243Y13135D01*
X23364Y13256D01*
X23430Y13414D01*
X23430Y13585D01*
X23365Y13743D01*
X23244Y13864D01*
X23086Y13930D01*
X22915Y13930D01*
X22757Y13865D01*
X22636Y13744D01*
X22570Y13586D01*
X22570Y13415D01*
X22635Y13257D01*
X22756Y13136D01*
X22800Y13118D01*
X22800Y12000D01*
X22815Y11923D01*
X22859Y11859D01*
X23092Y11626D01*
X23075Y11585D01*
X23075Y11416D01*
X23139Y11260D01*
X23259Y11140D01*
X23415Y11075D01*
X23584Y11075D01*
X23740Y11139D01*
X23860Y11259D01*
X23925Y11415D01*
X23925Y10584D01*
X23861Y10740D01*
X23741Y10860D01*
X23585Y10925D01*
X23416Y10925D01*
X23260Y10861D01*
X23140Y10741D01*
X23075Y10585D01*
X23075Y10416D01*
X23139Y10260D01*
X23259Y10140D01*
X23415Y10075D01*
X23584Y10075D01*
X23740Y10139D01*
X23860Y10259D01*
X23925Y10415D01*
X23925Y9958D01*
X23917Y9950D01*
X23500Y9950D01*
X23423Y9935D01*
X23358Y9891D01*
X23109Y9641D01*
X23065Y9577D01*
X23050Y9500D01*
X23050Y8500D01*
X23050Y5583D01*
X22859Y5391D01*
X22815Y5327D01*
X22800Y5250D01*
X22800Y4260D01*
X22725Y4185D01*
X22675Y4065D01*
X22675Y3936D01*
X22724Y3816D01*
X22815Y3725D01*
X22935Y3675D01*
X23064Y3675D01*
X23184Y3724D01*
X23275Y3815D01*
X23325Y3935D01*
X23325Y4064D01*
X23276Y4184D01*
X23200Y4260D01*
X23200Y5168D01*
X23391Y5358D01*
X23391Y5359D01*
X23435Y5423D01*
X23449Y5500D01*
X23450Y5500D01*
X23450Y8500D01*
X23450Y9418D01*
X23582Y9550D01*
X24000Y9550D01*
X24000Y9551D01*
X24076Y9565D01*
X24077Y9565D01*
X24141Y9609D01*
X24391Y9858D01*
X24391Y9859D01*
X24435Y9923D01*
X24449Y10000D01*
X24450Y10000D01*
X24450Y11990D01*
X24525Y12065D01*
X24575Y12185D01*
X24575Y9490D01*
X24378Y9576D01*
X24148Y9581D01*
X23933Y9498D01*
X23911Y9483D01*
X23884Y9380D01*
X24250Y9014D01*
X24616Y9380D01*
X24616Y9352D01*
X24264Y9000D01*
X24630Y8634D01*
X24733Y8661D01*
X24826Y8872D01*
X24831Y9102D01*
X24831Y550D01*
X24809Y550D01*
X24809Y1425D01*
X24809Y1654D01*
X24809Y6345D01*
X24809Y6574D01*
X24730Y6766D01*
X24730Y7904D01*
X24730Y8095D01*
X24657Y8271D01*
X24522Y8407D01*
X24425Y8448D01*
X24567Y8502D01*
X24589Y8517D01*
X24616Y8620D01*
X24250Y8986D01*
X24236Y8972D01*
X24236Y9000D01*
X23870Y9366D01*
X23767Y9339D01*
X23674Y9128D01*
X23669Y8898D01*
X23752Y8683D01*
X23767Y8661D01*
X23870Y8634D01*
X24236Y9000D01*
X24236Y8972D01*
X23884Y8620D01*
X23911Y8517D01*
X24072Y8446D01*
X23979Y8407D01*
X23843Y8272D01*
X23770Y8096D01*
X23770Y7905D01*
X23843Y7729D01*
X23978Y7593D01*
X24154Y7520D01*
X24345Y7520D01*
X24521Y7593D01*
X24657Y7728D01*
X24730Y7904D01*
X24730Y6766D01*
X24722Y6785D01*
X24560Y6947D01*
X24349Y7035D01*
X24120Y7035D01*
X23909Y6948D01*
X23747Y6786D01*
X23659Y6575D01*
X23659Y6346D01*
X23746Y6135D01*
X23908Y5973D01*
X24119Y5885D01*
X24348Y5885D01*
X24559Y5972D01*
X24721Y6134D01*
X24809Y6345D01*
X24809Y1654D01*
X24722Y1865D01*
X24560Y2027D01*
X24349Y2115D01*
X24120Y2115D01*
X23909Y2028D01*
X23747Y1866D01*
X23659Y1655D01*
X23659Y1426D01*
X23746Y1215D01*
X23908Y1053D01*
X24119Y965D01*
X24348Y965D01*
X24559Y1052D01*
X24721Y1214D01*
X24809Y1425D01*
X24809Y550D01*
X22841Y550D01*
X22841Y1425D01*
X22841Y1654D01*
X22754Y1865D01*
X22592Y2027D01*
X22450Y2087D01*
X22450Y4490D01*
X22525Y4565D01*
X22575Y4685D01*
X22575Y4814D01*
X22526Y4934D01*
X22466Y4994D01*
X22466Y5921D01*
X22591Y5972D01*
X22753Y6134D01*
X22841Y6345D01*
X22841Y6574D01*
X22754Y6785D01*
X22592Y6947D01*
X22425Y7017D01*
X22425Y10415D01*
X22425Y10584D01*
X22425Y11415D01*
X22425Y11584D01*
X22361Y11740D01*
X22241Y11860D01*
X22200Y11878D01*
X22200Y12500D01*
X22185Y12577D01*
X22141Y12641D01*
X22141Y12642D01*
X21411Y13371D01*
X21430Y13414D01*
X21430Y13585D01*
X21365Y13743D01*
X21244Y13864D01*
X21086Y13930D01*
X20915Y13930D01*
X20757Y13865D01*
X20636Y13744D01*
X20570Y13586D01*
X20570Y13415D01*
X20635Y13257D01*
X20756Y13136D01*
X20914Y13070D01*
X21085Y13070D01*
X21129Y13089D01*
X21800Y12418D01*
X21800Y11878D01*
X21760Y11861D01*
X21640Y11741D01*
X21575Y11585D01*
X21575Y11416D01*
X21639Y11260D01*
X21759Y11140D01*
X21915Y11075D01*
X22084Y11075D01*
X22240Y11139D01*
X22360Y11259D01*
X22425Y11415D01*
X22425Y10584D01*
X22361Y10740D01*
X22241Y10860D01*
X22085Y10925D01*
X21916Y10925D01*
X21760Y10861D01*
X21640Y10741D01*
X21575Y10585D01*
X21575Y10416D01*
X21639Y10260D01*
X21759Y10140D01*
X21915Y10075D01*
X22084Y10075D01*
X22240Y10139D01*
X22360Y10259D01*
X22425Y10415D01*
X22425Y7017D01*
X22381Y7035D01*
X22152Y7035D01*
X21941Y6948D01*
X21779Y6786D01*
X21691Y6575D01*
X21691Y6346D01*
X21778Y6135D01*
X21940Y5973D01*
X22066Y5921D01*
X22066Y5026D01*
X21975Y4935D01*
X21925Y4815D01*
X21925Y4686D01*
X21974Y4566D01*
X22050Y4490D01*
X22050Y2073D01*
X21941Y2028D01*
X21779Y1866D01*
X21691Y1655D01*
X21691Y1426D01*
X21778Y1215D01*
X21940Y1053D01*
X22151Y965D01*
X22380Y965D01*
X22591Y1052D01*
X22753Y1214D01*
X22841Y1425D01*
X22841Y550D01*
X21575Y550D01*
X21575Y3185D01*
X21575Y3314D01*
X21526Y3434D01*
X21450Y3510D01*
X21450Y5250D01*
X21450Y6990D01*
X21525Y7065D01*
X21575Y7185D01*
X21575Y7314D01*
X21526Y7434D01*
X21435Y7525D01*
X21315Y7575D01*
X21186Y7575D01*
X21066Y7526D01*
X21025Y7485D01*
X21025Y10593D01*
X20950Y10787D01*
X20938Y10806D01*
X20925Y10809D01*
X20925Y11415D01*
X20925Y11584D01*
X20861Y11740D01*
X20741Y11860D01*
X20585Y11925D01*
X20416Y11925D01*
X20260Y11861D01*
X20140Y11741D01*
X20075Y11585D01*
X20075Y11416D01*
X20139Y11260D01*
X20259Y11140D01*
X20415Y11075D01*
X20584Y11075D01*
X20740Y11139D01*
X20860Y11259D01*
X20925Y11415D01*
X20925Y10809D01*
X20841Y10827D01*
X20827Y10813D01*
X20827Y10841D01*
X20806Y10938D01*
X20615Y11021D01*
X20407Y11025D01*
X20213Y10950D01*
X20194Y10938D01*
X20173Y10841D01*
X20500Y10514D01*
X20827Y10841D01*
X20827Y10813D01*
X20514Y10500D01*
X20841Y10173D01*
X20938Y10194D01*
X21021Y10385D01*
X21025Y10593D01*
X21025Y7485D01*
X20975Y7435D01*
X20925Y7315D01*
X20925Y7186D01*
X20974Y7066D01*
X21050Y6990D01*
X21050Y5250D01*
X21050Y3510D01*
X20975Y3435D01*
X20925Y3315D01*
X20925Y3186D01*
X20974Y3066D01*
X21065Y2975D01*
X21185Y2925D01*
X21314Y2925D01*
X21434Y2974D01*
X21525Y3065D01*
X21575Y3185D01*
X21575Y550D01*
X20827Y550D01*
X20827Y10159D01*
X20500Y10486D01*
X20486Y10472D01*
X20486Y10500D01*
X20159Y10827D01*
X20062Y10806D01*
X19979Y10615D01*
X19975Y10407D01*
X20050Y10213D01*
X20062Y10194D01*
X20159Y10173D01*
X20486Y10500D01*
X20486Y10472D01*
X20173Y10159D01*
X20194Y10062D01*
X20385Y9979D01*
X20593Y9975D01*
X20787Y10050D01*
X20806Y10062D01*
X20827Y10159D01*
X20827Y550D01*
X19559Y550D01*
X19559Y1425D01*
X19559Y1654D01*
X19559Y6345D01*
X19559Y6574D01*
X19480Y6766D01*
X19480Y7904D01*
X19480Y8095D01*
X19480Y8904D01*
X19480Y9095D01*
X19407Y9271D01*
X19272Y9407D01*
X19096Y9480D01*
X18905Y9480D01*
X18729Y9407D01*
X18593Y9272D01*
X18525Y9109D01*
X18525Y9928D01*
X18525Y10072D01*
X18524Y10324D01*
X18486Y10416D01*
X18416Y10486D01*
X18325Y10524D01*
X18226Y10524D01*
X18072Y10525D01*
X18010Y10463D01*
X18010Y10010D01*
X18463Y10010D01*
X18525Y10072D01*
X18525Y9928D01*
X18463Y9990D01*
X18010Y9990D01*
X18010Y9537D01*
X18072Y9475D01*
X18226Y9476D01*
X18325Y9476D01*
X18416Y9514D01*
X18486Y9584D01*
X18524Y9676D01*
X18525Y9928D01*
X18525Y9109D01*
X18520Y9096D01*
X18520Y8905D01*
X18593Y8729D01*
X18728Y8593D01*
X18904Y8520D01*
X19095Y8520D01*
X19271Y8593D01*
X19407Y8728D01*
X19480Y8904D01*
X19480Y8095D01*
X19407Y8271D01*
X19272Y8407D01*
X19096Y8480D01*
X18905Y8480D01*
X18729Y8407D01*
X18593Y8272D01*
X18520Y8096D01*
X18520Y7905D01*
X18593Y7729D01*
X18728Y7593D01*
X18904Y7520D01*
X19095Y7520D01*
X19271Y7593D01*
X19407Y7728D01*
X19480Y7904D01*
X19480Y6766D01*
X19472Y6785D01*
X19310Y6947D01*
X19099Y7035D01*
X18870Y7035D01*
X18659Y6948D01*
X18497Y6786D01*
X18409Y6575D01*
X18409Y6346D01*
X18496Y6135D01*
X18658Y5973D01*
X18869Y5885D01*
X19098Y5885D01*
X19309Y5972D01*
X19471Y6134D01*
X19559Y6345D01*
X19559Y1654D01*
X19472Y1865D01*
X19310Y2027D01*
X19099Y2115D01*
X18870Y2115D01*
X18659Y2028D01*
X18497Y1866D01*
X18409Y1655D01*
X18409Y1426D01*
X18496Y1215D01*
X18658Y1053D01*
X18869Y965D01*
X19098Y965D01*
X19309Y1052D01*
X19471Y1214D01*
X19559Y1425D01*
X19559Y550D01*
X17990Y550D01*
X17990Y9537D01*
X17990Y9990D01*
X17990Y10010D01*
X17990Y10463D01*
X17928Y10525D01*
X17774Y10524D01*
X17675Y10524D01*
X17584Y10486D01*
X17514Y10416D01*
X17476Y10324D01*
X17475Y10072D01*
X17537Y10010D01*
X17990Y10010D01*
X17990Y9990D01*
X17537Y9990D01*
X17475Y9928D01*
X17476Y9676D01*
X17514Y9584D01*
X17584Y9514D01*
X17675Y9476D01*
X17774Y9476D01*
X17928Y9475D01*
X17990Y9537D01*
X17990Y550D01*
X17591Y550D01*
X17591Y1425D01*
X17591Y1654D01*
X17504Y1865D01*
X17342Y2027D01*
X17216Y2080D01*
X17216Y2256D01*
X17275Y2315D01*
X17325Y2435D01*
X17325Y2564D01*
X17276Y2684D01*
X17216Y2744D01*
X17216Y5921D01*
X17341Y5972D01*
X17503Y6134D01*
X17591Y6345D01*
X17591Y6574D01*
X17504Y6785D01*
X17342Y6947D01*
X17325Y6955D01*
X17325Y7435D01*
X17325Y7564D01*
X17276Y7684D01*
X17200Y7760D01*
X17200Y12750D01*
X17185Y12827D01*
X17141Y12891D01*
X17141Y12892D01*
X17025Y13008D01*
X17025Y14343D01*
X17025Y15593D01*
X16950Y15787D01*
X16938Y15806D01*
X16841Y15827D01*
X16827Y15813D01*
X16827Y15841D01*
X16806Y15938D01*
X16615Y16021D01*
X16407Y16025D01*
X16213Y15950D01*
X16194Y15938D01*
X16173Y15841D01*
X16500Y15514D01*
X16827Y15841D01*
X16827Y15813D01*
X16514Y15500D01*
X16841Y15173D01*
X16938Y15194D01*
X17021Y15385D01*
X17025Y15593D01*
X17025Y14343D01*
X16950Y14537D01*
X16938Y14556D01*
X16841Y14577D01*
X16827Y14563D01*
X16827Y14591D01*
X16827Y15159D01*
X16500Y15486D01*
X16486Y15472D01*
X16486Y15500D01*
X16159Y15827D01*
X16062Y15806D01*
X15979Y15615D01*
X15975Y15407D01*
X16050Y15213D01*
X16062Y15194D01*
X16159Y15173D01*
X16486Y15500D01*
X16486Y15472D01*
X16173Y15159D01*
X16194Y15062D01*
X16385Y14979D01*
X16593Y14975D01*
X16787Y15050D01*
X16806Y15062D01*
X16827Y15159D01*
X16827Y14591D01*
X16806Y14688D01*
X16615Y14771D01*
X16407Y14775D01*
X16213Y14700D01*
X16194Y14688D01*
X16173Y14591D01*
X16500Y14264D01*
X16827Y14591D01*
X16827Y14563D01*
X16514Y14250D01*
X16841Y13923D01*
X16938Y13944D01*
X17021Y14135D01*
X17025Y14343D01*
X17025Y13008D01*
X16240Y13792D01*
X16385Y13729D01*
X16593Y13725D01*
X16787Y13800D01*
X16806Y13812D01*
X16827Y13909D01*
X16535Y14201D01*
X16500Y14236D01*
X16486Y14250D01*
X16451Y14285D01*
X16159Y14577D01*
X16062Y14556D01*
X15979Y14365D01*
X15975Y14157D01*
X16037Y13995D01*
X15700Y14333D01*
X15700Y15123D01*
X15740Y15139D01*
X15860Y15259D01*
X15925Y15415D01*
X15925Y15584D01*
X15861Y15740D01*
X15741Y15860D01*
X15585Y15925D01*
X15416Y15925D01*
X15260Y15861D01*
X15140Y15741D01*
X15075Y15585D01*
X15075Y15416D01*
X15139Y15260D01*
X15259Y15140D01*
X15300Y15123D01*
X15300Y14250D01*
X15315Y14173D01*
X15359Y14109D01*
X16800Y12668D01*
X16800Y7760D01*
X16725Y7685D01*
X16675Y7565D01*
X16675Y7436D01*
X16724Y7316D01*
X16815Y7225D01*
X16935Y7175D01*
X17064Y7175D01*
X17184Y7224D01*
X17275Y7315D01*
X17325Y7435D01*
X17325Y6955D01*
X17131Y7035D01*
X16902Y7035D01*
X16691Y6948D01*
X16529Y6786D01*
X16450Y6597D01*
X16450Y9000D01*
X16435Y9076D01*
X16435Y9077D01*
X16391Y9141D01*
X15950Y9582D01*
X15950Y13250D01*
X15935Y13326D01*
X15935Y13327D01*
X15891Y13391D01*
X15391Y13891D01*
X15327Y13935D01*
X15250Y13950D01*
X14832Y13950D01*
X14700Y14083D01*
X14700Y15123D01*
X14740Y15139D01*
X14860Y15259D01*
X14925Y15415D01*
X14925Y15584D01*
X14861Y15740D01*
X14741Y15860D01*
X14585Y15925D01*
X14416Y15925D01*
X14260Y15861D01*
X14140Y15741D01*
X14075Y15585D01*
X14075Y15416D01*
X14139Y15260D01*
X14259Y15140D01*
X14300Y15123D01*
X14300Y14000D01*
X14315Y13923D01*
X14359Y13859D01*
X14608Y13609D01*
X14609Y13609D01*
X14673Y13565D01*
X14750Y13550D01*
X15168Y13550D01*
X15550Y13168D01*
X15550Y9500D01*
X15565Y9423D01*
X15609Y9359D01*
X16050Y8918D01*
X16050Y5010D01*
X15975Y4935D01*
X15925Y4815D01*
X15925Y4686D01*
X15974Y4566D01*
X16065Y4475D01*
X16185Y4425D01*
X16314Y4425D01*
X16434Y4474D01*
X16525Y4565D01*
X16575Y4685D01*
X16575Y4814D01*
X16526Y4934D01*
X16450Y5010D01*
X16450Y6325D01*
X16528Y6135D01*
X16690Y5973D01*
X16816Y5921D01*
X16816Y2776D01*
X16725Y2685D01*
X16675Y2565D01*
X16675Y2436D01*
X16724Y2316D01*
X16800Y2240D01*
X16800Y2073D01*
X16691Y2028D01*
X16529Y1866D01*
X16441Y1655D01*
X16441Y1426D01*
X16528Y1215D01*
X16690Y1053D01*
X16901Y965D01*
X17130Y965D01*
X17341Y1052D01*
X17503Y1214D01*
X17591Y1425D01*
X17591Y550D01*
X15825Y550D01*
X15825Y7185D01*
X15825Y7314D01*
X15776Y7434D01*
X15700Y7510D01*
X15700Y8740D01*
X15775Y8815D01*
X15825Y8935D01*
X15825Y9064D01*
X15776Y9184D01*
X15685Y9275D01*
X15565Y9325D01*
X15436Y9325D01*
X15425Y9321D01*
X15425Y9915D01*
X15425Y10084D01*
X15425Y10915D01*
X15425Y11084D01*
X15425Y11915D01*
X15425Y12084D01*
X15425Y12915D01*
X15425Y13084D01*
X15361Y13240D01*
X15241Y13360D01*
X15085Y13425D01*
X14916Y13425D01*
X14760Y13361D01*
X14640Y13241D01*
X14575Y13085D01*
X14575Y12916D01*
X14639Y12760D01*
X14759Y12640D01*
X14915Y12575D01*
X15084Y12575D01*
X15240Y12639D01*
X15360Y12759D01*
X15425Y12915D01*
X15425Y12084D01*
X15361Y12240D01*
X15241Y12360D01*
X15085Y12425D01*
X14916Y12425D01*
X14760Y12361D01*
X14640Y12241D01*
X14575Y12085D01*
X14575Y11916D01*
X14639Y11760D01*
X14759Y11640D01*
X14915Y11575D01*
X15084Y11575D01*
X15240Y11639D01*
X15360Y11759D01*
X15425Y11915D01*
X15425Y11084D01*
X15361Y11240D01*
X15241Y11360D01*
X15085Y11425D01*
X14916Y11425D01*
X14760Y11361D01*
X14640Y11241D01*
X14575Y11085D01*
X14575Y10916D01*
X14639Y10760D01*
X14759Y10640D01*
X14915Y10575D01*
X15084Y10575D01*
X15240Y10639D01*
X15360Y10759D01*
X15425Y10915D01*
X15425Y10084D01*
X15361Y10240D01*
X15241Y10360D01*
X15085Y10425D01*
X14916Y10425D01*
X14760Y10361D01*
X14640Y10241D01*
X14575Y10085D01*
X14575Y9916D01*
X14639Y9760D01*
X14759Y9640D01*
X14915Y9575D01*
X15084Y9575D01*
X15240Y9639D01*
X15360Y9759D01*
X15425Y9915D01*
X15425Y9321D01*
X15316Y9276D01*
X15225Y9185D01*
X15175Y9065D01*
X15175Y8936D01*
X15224Y8816D01*
X15300Y8740D01*
X15300Y7510D01*
X15225Y7435D01*
X15175Y7315D01*
X15175Y7186D01*
X15224Y7066D01*
X15315Y6975D01*
X15435Y6925D01*
X15564Y6925D01*
X15684Y6974D01*
X15775Y7065D01*
X15825Y7185D01*
X15825Y550D01*
X15075Y550D01*
X15075Y6435D01*
X15075Y6564D01*
X15026Y6684D01*
X14950Y6760D01*
X14950Y9250D01*
X14935Y9327D01*
X14891Y9391D01*
X14891Y9392D01*
X14200Y10083D01*
X14200Y13250D01*
X14185Y13326D01*
X14185Y13327D01*
X14141Y13391D01*
X13700Y13832D01*
X13700Y15123D01*
X13740Y15139D01*
X13860Y15259D01*
X13925Y15415D01*
X13925Y15584D01*
X13861Y15740D01*
X13741Y15860D01*
X13585Y15925D01*
X13416Y15925D01*
X13260Y15861D01*
X13140Y15741D01*
X13075Y15585D01*
X13075Y15416D01*
X13139Y15260D01*
X13259Y15140D01*
X13300Y15123D01*
X13300Y13750D01*
X13315Y13673D01*
X13359Y13609D01*
X13800Y13168D01*
X13800Y10000D01*
X13815Y9923D01*
X13859Y9859D01*
X14550Y9168D01*
X14550Y6760D01*
X14475Y6685D01*
X14425Y6565D01*
X14425Y6436D01*
X14474Y6316D01*
X14565Y6225D01*
X14685Y6175D01*
X14814Y6175D01*
X14934Y6224D01*
X15025Y6315D01*
X15075Y6435D01*
X15075Y550D01*
X14309Y550D01*
X14309Y1425D01*
X14309Y1654D01*
X14309Y6345D01*
X14309Y6574D01*
X14230Y6766D01*
X14230Y7904D01*
X14230Y8095D01*
X14230Y8904D01*
X14230Y9095D01*
X14157Y9271D01*
X14022Y9407D01*
X13846Y9480D01*
X13675Y9480D01*
X13675Y11915D01*
X13675Y12084D01*
X13675Y12915D01*
X13675Y13084D01*
X13611Y13240D01*
X13491Y13360D01*
X13335Y13425D01*
X13166Y13425D01*
X13010Y13361D01*
X12925Y13276D01*
X12925Y15415D01*
X12925Y15584D01*
X12861Y15740D01*
X12741Y15860D01*
X12585Y15925D01*
X12416Y15925D01*
X12260Y15861D01*
X12140Y15741D01*
X12075Y15585D01*
X12075Y15416D01*
X12091Y15375D01*
X11359Y14641D01*
X11315Y14577D01*
X11300Y14500D01*
X11300Y6807D01*
X11279Y6786D01*
X11199Y6595D01*
X11199Y9910D01*
X11199Y10089D01*
X11199Y13910D01*
X11199Y14089D01*
X11131Y14254D01*
X11005Y14380D01*
X10840Y14449D01*
X10661Y14449D01*
X10496Y14381D01*
X10370Y14255D01*
X10301Y14090D01*
X10301Y13911D01*
X10369Y13746D01*
X10495Y13620D01*
X10660Y13551D01*
X10839Y13551D01*
X11004Y13619D01*
X11130Y13745D01*
X11199Y13910D01*
X11199Y10089D01*
X11131Y10254D01*
X11005Y10380D01*
X10840Y10449D01*
X10661Y10449D01*
X10496Y10381D01*
X10370Y10255D01*
X10301Y10090D01*
X10301Y9911D01*
X10369Y9746D01*
X10495Y9620D01*
X10660Y9551D01*
X10839Y9551D01*
X11004Y9619D01*
X11130Y9745D01*
X11199Y9910D01*
X11199Y6595D01*
X11191Y6575D01*
X11191Y6346D01*
X11278Y6135D01*
X11440Y5973D01*
X11566Y5921D01*
X11566Y2080D01*
X11441Y2028D01*
X11279Y1866D01*
X11191Y1655D01*
X11191Y1426D01*
X11278Y1215D01*
X11440Y1053D01*
X11651Y965D01*
X11880Y965D01*
X12091Y1052D01*
X12253Y1214D01*
X12341Y1425D01*
X12341Y1654D01*
X12254Y1865D01*
X12092Y2027D01*
X11966Y2080D01*
X11966Y5921D01*
X12091Y5972D01*
X12253Y6134D01*
X12341Y6345D01*
X12341Y6574D01*
X12254Y6785D01*
X12092Y6947D01*
X11881Y7035D01*
X11700Y7035D01*
X11700Y7375D01*
X11724Y7316D01*
X11815Y7225D01*
X11935Y7175D01*
X12064Y7175D01*
X12184Y7224D01*
X12275Y7315D01*
X12325Y7435D01*
X12325Y7564D01*
X12276Y7684D01*
X12200Y7760D01*
X12200Y8740D01*
X12275Y8815D01*
X12325Y8935D01*
X12325Y9064D01*
X12276Y9184D01*
X12185Y9275D01*
X12065Y9325D01*
X11936Y9325D01*
X11816Y9276D01*
X11725Y9185D01*
X11700Y9125D01*
X11700Y9533D01*
X11878Y9454D01*
X12097Y9449D01*
X12301Y9528D01*
X12321Y9542D01*
X12344Y9641D01*
X12035Y9951D01*
X12000Y9986D01*
X11986Y10000D01*
X12000Y10014D01*
X12035Y10049D01*
X12034Y10050D01*
X12344Y10359D01*
X12321Y10458D01*
X12122Y10546D01*
X11903Y10551D01*
X11700Y10473D01*
X11700Y11875D01*
X11724Y11816D01*
X11815Y11725D01*
X11935Y11675D01*
X12064Y11675D01*
X12184Y11724D01*
X12275Y11815D01*
X12325Y11935D01*
X12325Y12064D01*
X12276Y12184D01*
X12200Y12260D01*
X12200Y13597D01*
X12254Y13619D01*
X12380Y13745D01*
X12449Y13910D01*
X12449Y14089D01*
X12381Y14254D01*
X12255Y14380D01*
X12090Y14449D01*
X11911Y14449D01*
X11746Y14381D01*
X11700Y14335D01*
X11700Y14418D01*
X12374Y15092D01*
X12415Y15075D01*
X12584Y15075D01*
X12740Y15139D01*
X12860Y15259D01*
X12925Y15415D01*
X12925Y13276D01*
X12890Y13241D01*
X12825Y13085D01*
X12825Y12916D01*
X12889Y12760D01*
X13009Y12640D01*
X13165Y12575D01*
X13334Y12575D01*
X13490Y12639D01*
X13610Y12759D01*
X13675Y12915D01*
X13675Y12084D01*
X13611Y12240D01*
X13491Y12360D01*
X13335Y12425D01*
X13166Y12425D01*
X13010Y12361D01*
X12890Y12241D01*
X12825Y12085D01*
X12825Y11916D01*
X12889Y11760D01*
X13009Y11640D01*
X13165Y11575D01*
X13334Y11575D01*
X13490Y11639D01*
X13610Y11759D01*
X13675Y11915D01*
X13675Y9480D01*
X13655Y9480D01*
X13479Y9407D01*
X13343Y9272D01*
X13270Y9096D01*
X13270Y8905D01*
X13343Y8729D01*
X13478Y8593D01*
X13654Y8520D01*
X13845Y8520D01*
X14021Y8593D01*
X14157Y8728D01*
X14230Y8904D01*
X14230Y8095D01*
X14157Y8271D01*
X14022Y8407D01*
X13846Y8480D01*
X13655Y8480D01*
X13479Y8407D01*
X13343Y8272D01*
X13270Y8096D01*
X13270Y7905D01*
X13343Y7729D01*
X13478Y7593D01*
X13654Y7520D01*
X13845Y7520D01*
X14021Y7593D01*
X14157Y7728D01*
X14230Y7904D01*
X14230Y6766D01*
X14222Y6785D01*
X14060Y6947D01*
X13849Y7035D01*
X13620Y7035D01*
X13409Y6948D01*
X13247Y6786D01*
X13159Y6575D01*
X13159Y6346D01*
X13246Y6135D01*
X13408Y5973D01*
X13619Y5885D01*
X13848Y5885D01*
X14059Y5972D01*
X14221Y6134D01*
X14309Y6345D01*
X14309Y1654D01*
X14222Y1865D01*
X14060Y2027D01*
X13849Y2115D01*
X13620Y2115D01*
X13409Y2028D01*
X13247Y1866D01*
X13159Y1655D01*
X13159Y1426D01*
X13246Y1215D01*
X13408Y1053D01*
X13619Y965D01*
X13848Y965D01*
X14059Y1052D01*
X14221Y1214D01*
X14309Y1425D01*
X14309Y550D01*
X12551Y550D01*
X12551Y10097D01*
X12472Y10301D01*
X12458Y10321D01*
X12359Y10344D01*
X12014Y10000D01*
X12359Y9656D01*
X12458Y9679D01*
X12546Y9878D01*
X12551Y10097D01*
X12551Y550D01*
X9059Y550D01*
X9059Y1425D01*
X9059Y1654D01*
X9059Y6345D01*
X9059Y6574D01*
X8972Y6785D01*
X8810Y6947D01*
X8599Y7035D01*
X8370Y7035D01*
X8159Y6948D01*
X7997Y6786D01*
X7909Y6575D01*
X7909Y6346D01*
X7996Y6135D01*
X8158Y5973D01*
X8369Y5885D01*
X8598Y5885D01*
X8809Y5972D01*
X8971Y6134D01*
X9059Y6345D01*
X9059Y1654D01*
X8972Y1865D01*
X8810Y2027D01*
X8599Y2115D01*
X8370Y2115D01*
X8159Y2028D01*
X7997Y1866D01*
X7909Y1655D01*
X7909Y1426D01*
X7996Y1215D01*
X8158Y1053D01*
X8369Y965D01*
X8598Y965D01*
X8809Y1052D01*
X8971Y1214D01*
X9059Y1425D01*
X9059Y550D01*
X7091Y550D01*
X7091Y1425D01*
X7091Y1654D01*
X7004Y1865D01*
X6842Y2027D01*
X6700Y2087D01*
X6700Y2740D01*
X6775Y2815D01*
X6825Y2935D01*
X6825Y3064D01*
X6776Y3184D01*
X6702Y3258D01*
X6714Y4761D01*
X6715Y4764D01*
X6716Y4766D01*
X6716Y5921D01*
X6841Y5972D01*
X7003Y6134D01*
X7091Y6345D01*
X7091Y6574D01*
X7004Y6785D01*
X6842Y6947D01*
X6631Y7035D01*
X6425Y7035D01*
X6425Y8415D01*
X6425Y8584D01*
X6425Y9415D01*
X6425Y9584D01*
X6361Y9740D01*
X6241Y9860D01*
X6085Y9925D01*
X5916Y9925D01*
X5760Y9861D01*
X5640Y9741D01*
X5575Y9585D01*
X5575Y9416D01*
X5639Y9260D01*
X5759Y9140D01*
X5915Y9075D01*
X6084Y9075D01*
X6240Y9139D01*
X6360Y9259D01*
X6425Y9415D01*
X6425Y8584D01*
X6361Y8740D01*
X6241Y8860D01*
X6085Y8925D01*
X5916Y8925D01*
X5760Y8861D01*
X5640Y8741D01*
X5575Y8585D01*
X5575Y8416D01*
X5639Y8260D01*
X5759Y8140D01*
X5915Y8075D01*
X6084Y8075D01*
X6240Y8139D01*
X6360Y8259D01*
X6425Y8415D01*
X6425Y7035D01*
X6402Y7035D01*
X6191Y6948D01*
X6029Y6786D01*
X5941Y6575D01*
X5941Y6346D01*
X6028Y6135D01*
X6190Y5973D01*
X6316Y5921D01*
X6316Y4773D01*
X6315Y4768D01*
X6302Y3263D01*
X6225Y3185D01*
X6175Y3065D01*
X6175Y2936D01*
X6224Y2816D01*
X6300Y2740D01*
X6300Y2073D01*
X6191Y2028D01*
X6029Y1866D01*
X5941Y1655D01*
X5941Y1426D01*
X6028Y1215D01*
X6190Y1053D01*
X6401Y965D01*
X6630Y965D01*
X6841Y1052D01*
X7003Y1214D01*
X7091Y1425D01*
X7091Y550D01*
X4925Y550D01*
X4925Y6915D01*
X4925Y7084D01*
X4925Y7915D01*
X4925Y8084D01*
X4925Y9415D01*
X4925Y9584D01*
X4924Y9587D01*
X4924Y12196D01*
X4924Y12255D01*
X4924Y12805D01*
X4901Y12860D01*
X4859Y12902D01*
X4804Y12924D01*
X4745Y12924D01*
X4358Y12924D01*
X3700Y13583D01*
X3700Y13623D01*
X3740Y13639D01*
X3860Y13759D01*
X3925Y13915D01*
X3925Y14084D01*
X3861Y14240D01*
X3741Y14360D01*
X3585Y14425D01*
X3416Y14425D01*
X3260Y14361D01*
X3140Y14241D01*
X3075Y14085D01*
X3075Y13916D01*
X3139Y13760D01*
X3259Y13640D01*
X3300Y13623D01*
X3300Y13500D01*
X3315Y13423D01*
X3359Y13359D01*
X3759Y12959D01*
X3615Y13021D01*
X3407Y13025D01*
X3213Y12950D01*
X3194Y12938D01*
X3173Y12841D01*
X3465Y12549D01*
X3500Y12514D01*
X3514Y12500D01*
X3549Y12465D01*
X3841Y12173D01*
X3938Y12194D01*
X4021Y12385D01*
X4025Y12593D01*
X3962Y12756D01*
X4076Y12642D01*
X4076Y12195D01*
X4099Y12140D01*
X4141Y12098D01*
X4196Y12076D01*
X4255Y12076D01*
X4805Y12076D01*
X4860Y12099D01*
X4902Y12141D01*
X4924Y12196D01*
X4924Y9587D01*
X4861Y9740D01*
X4741Y9860D01*
X4585Y9925D01*
X4416Y9925D01*
X4260Y9861D01*
X4140Y9741D01*
X4075Y9585D01*
X4075Y9416D01*
X4139Y9260D01*
X4259Y9140D01*
X4415Y9075D01*
X4584Y9075D01*
X4740Y9139D01*
X4860Y9259D01*
X4925Y9415D01*
X4925Y8084D01*
X4861Y8240D01*
X4741Y8360D01*
X4585Y8425D01*
X4416Y8425D01*
X4260Y8361D01*
X4140Y8241D01*
X4122Y8200D01*
X3627Y8200D01*
X3611Y8240D01*
X3491Y8360D01*
X3335Y8425D01*
X3166Y8425D01*
X3010Y8361D01*
X2890Y8241D01*
X2831Y8102D01*
X2815Y8077D01*
X2800Y8000D01*
X2815Y7923D01*
X2832Y7898D01*
X2889Y7760D01*
X3009Y7640D01*
X3165Y7575D01*
X3334Y7575D01*
X3490Y7639D01*
X3610Y7759D01*
X3627Y7800D01*
X4122Y7800D01*
X4139Y7760D01*
X4259Y7640D01*
X4415Y7575D01*
X4584Y7575D01*
X4740Y7639D01*
X4860Y7759D01*
X4925Y7915D01*
X4925Y7084D01*
X4861Y7240D01*
X4741Y7360D01*
X4585Y7425D01*
X4416Y7425D01*
X4260Y7361D01*
X4140Y7241D01*
X4075Y7085D01*
X4075Y6916D01*
X4139Y6760D01*
X4259Y6640D01*
X4415Y6575D01*
X4584Y6575D01*
X4740Y6639D01*
X4860Y6759D01*
X4925Y6915D01*
X4925Y550D01*
X4449Y550D01*
X4449Y1410D01*
X4449Y1589D01*
X4449Y5410D01*
X4449Y5589D01*
X4381Y5754D01*
X4255Y5880D01*
X4090Y5949D01*
X3911Y5949D01*
X3856Y5927D01*
X3450Y6333D01*
X3450Y6623D01*
X3490Y6639D01*
X3610Y6759D01*
X3675Y6915D01*
X3675Y7084D01*
X3611Y7240D01*
X3491Y7360D01*
X3335Y7425D01*
X3166Y7425D01*
X3010Y7361D01*
X2890Y7241D01*
X2825Y7085D01*
X2825Y6916D01*
X2889Y6760D01*
X3009Y6640D01*
X3050Y6623D01*
X3050Y6250D01*
X3065Y6173D01*
X3109Y6109D01*
X3573Y5644D01*
X3551Y5590D01*
X3551Y5411D01*
X3619Y5246D01*
X3745Y5120D01*
X3910Y5051D01*
X4089Y5051D01*
X4254Y5119D01*
X4380Y5245D01*
X4449Y5410D01*
X4449Y1589D01*
X4381Y1754D01*
X4255Y1880D01*
X4200Y1903D01*
X4200Y2750D01*
X4185Y2827D01*
X4141Y2891D01*
X4141Y2892D01*
X3141Y3891D01*
X3077Y3935D01*
X3000Y3950D01*
X2525Y3950D01*
X2525Y7093D01*
X2450Y7287D01*
X2438Y7306D01*
X2425Y7309D01*
X2425Y7915D01*
X2425Y8084D01*
X2361Y8240D01*
X2241Y8360D01*
X2085Y8425D01*
X1916Y8425D01*
X1760Y8361D01*
X1640Y8241D01*
X1575Y8085D01*
X1575Y7916D01*
X1639Y7760D01*
X1759Y7640D01*
X1915Y7575D01*
X2084Y7575D01*
X2240Y7639D01*
X2360Y7759D01*
X2425Y7915D01*
X2425Y7309D01*
X2341Y7327D01*
X2327Y7313D01*
X2327Y7341D01*
X2306Y7438D01*
X2115Y7521D01*
X1907Y7525D01*
X1713Y7450D01*
X1694Y7438D01*
X1673Y7341D01*
X2000Y7014D01*
X2327Y7341D01*
X2327Y7313D01*
X2014Y7000D01*
X2341Y6673D01*
X2438Y6694D01*
X2521Y6885D01*
X2525Y7093D01*
X2525Y3950D01*
X2327Y3950D01*
X2327Y6659D01*
X2000Y6986D01*
X1986Y6972D01*
X1986Y7000D01*
X1659Y7327D01*
X1562Y7306D01*
X1479Y7115D01*
X1475Y6907D01*
X1550Y6713D01*
X1562Y6694D01*
X1659Y6673D01*
X1986Y7000D01*
X1986Y6972D01*
X1673Y6659D01*
X1694Y6562D01*
X1885Y6479D01*
X2093Y6475D01*
X2287Y6550D01*
X2306Y6562D01*
X2327Y6659D01*
X2327Y3950D01*
X1403Y3950D01*
X1381Y4004D01*
X1255Y4130D01*
X1090Y4199D01*
X911Y4199D01*
X746Y4131D01*
X620Y4005D01*
X551Y3840D01*
X551Y3661D01*
X619Y3496D01*
X745Y3370D01*
X910Y3301D01*
X1089Y3301D01*
X1254Y3369D01*
X1380Y3495D01*
X1403Y3550D01*
X2917Y3550D01*
X3800Y2668D01*
X3800Y1904D01*
X3746Y1881D01*
X3620Y1755D01*
X3551Y1590D01*
X3551Y1411D01*
X3619Y1246D01*
X3745Y1120D01*
X3910Y1051D01*
X4089Y1051D01*
X4254Y1119D01*
X4380Y1245D01*
X4449Y1410D01*
X4449Y550D01*
X2379Y550D01*
X2513Y605D01*
X2893Y984D01*
X3099Y1480D01*
X3100Y2017D01*
X2895Y2513D01*
X2516Y2893D01*
X2020Y3099D01*
X1483Y3100D01*
X987Y2895D01*
X607Y2516D01*
X550Y2379D01*
X550Y4668D01*
X551Y4667D01*
X551Y4661D01*
X619Y4496D01*
X745Y4370D01*
X910Y4301D01*
X1089Y4301D01*
X1254Y4369D01*
X1380Y4495D01*
X1449Y4660D01*
X1449Y4839D01*
X1381Y5004D01*
X1255Y5130D01*
X1090Y5199D01*
X911Y5199D01*
X746Y5131D01*
X700Y5085D01*
X700Y5415D01*
X745Y5370D01*
X910Y5301D01*
X1089Y5301D01*
X1254Y5369D01*
X1380Y5495D01*
X1449Y5660D01*
X1449Y5839D01*
X1381Y6004D01*
X1255Y6130D01*
X1090Y6199D01*
X911Y6199D01*
X746Y6131D01*
X700Y6085D01*
X700Y7918D01*
X1332Y8550D01*
X2750Y8550D01*
X2750Y8551D01*
X2826Y8565D01*
X2827Y8565D01*
X2891Y8609D01*
X3374Y9092D01*
X3415Y9075D01*
X3584Y9075D01*
X3740Y9139D01*
X3860Y9259D01*
X3925Y9415D01*
X3925Y9584D01*
X3861Y9740D01*
X3827Y9774D01*
X3827Y12159D01*
X3500Y12486D01*
X3486Y12472D01*
X3486Y12500D01*
X3159Y12827D01*
X3062Y12806D01*
X2979Y12615D01*
X2975Y12407D01*
X3050Y12213D01*
X3062Y12194D01*
X3159Y12173D01*
X3486Y12500D01*
X3486Y12472D01*
X3173Y12159D01*
X3194Y12062D01*
X3385Y11979D01*
X3593Y11975D01*
X3787Y12050D01*
X3806Y12062D01*
X3827Y12159D01*
X3827Y9774D01*
X3741Y9860D01*
X3585Y9925D01*
X3416Y9925D01*
X3260Y9861D01*
X3140Y9741D01*
X3075Y9585D01*
X3075Y9416D01*
X3091Y9375D01*
X2925Y9209D01*
X2925Y9415D01*
X2925Y9584D01*
X2861Y9740D01*
X2741Y9860D01*
X2585Y9925D01*
X2416Y9925D01*
X2260Y9861D01*
X2140Y9741D01*
X2075Y9585D01*
X2075Y9416D01*
X2139Y9260D01*
X2259Y9140D01*
X2415Y9075D01*
X2584Y9075D01*
X2740Y9139D01*
X2860Y9259D01*
X2925Y9415D01*
X2925Y9209D01*
X2667Y8950D01*
X1925Y8950D01*
X1925Y9415D01*
X1925Y9584D01*
X1925Y12415D01*
X1925Y12584D01*
X1861Y12740D01*
X1741Y12860D01*
X1585Y12925D01*
X1449Y12925D01*
X1449Y15410D01*
X1449Y15589D01*
X1381Y15754D01*
X1255Y15880D01*
X1090Y15949D01*
X911Y15949D01*
X746Y15881D01*
X620Y15755D01*
X551Y15590D01*
X551Y15411D01*
X619Y15246D01*
X745Y15120D01*
X800Y15097D01*
X800Y14378D01*
X760Y14361D01*
X640Y14241D01*
X575Y14085D01*
X575Y13916D01*
X639Y13760D01*
X759Y13640D01*
X915Y13575D01*
X1084Y13575D01*
X1240Y13639D01*
X1360Y13759D01*
X1425Y13915D01*
X1425Y14084D01*
X1361Y14240D01*
X1241Y14360D01*
X1200Y14378D01*
X1200Y15097D01*
X1254Y15119D01*
X1380Y15245D01*
X1449Y15410D01*
X1449Y12925D01*
X1416Y12925D01*
X1260Y12861D01*
X1140Y12741D01*
X1075Y12585D01*
X1075Y12416D01*
X1139Y12260D01*
X1259Y12140D01*
X1415Y12075D01*
X1584Y12075D01*
X1740Y12139D01*
X1860Y12259D01*
X1925Y12415D01*
X1925Y9584D01*
X1861Y9740D01*
X1741Y9860D01*
X1585Y9925D01*
X1416Y9925D01*
X1260Y9861D01*
X1140Y9741D01*
X1075Y9585D01*
X1075Y9416D01*
X1139Y9260D01*
X1259Y9140D01*
X1415Y9075D01*
X1584Y9075D01*
X1740Y9139D01*
X1860Y9259D01*
X1925Y9415D01*
X1925Y8950D01*
X1250Y8950D01*
X1173Y8935D01*
X1108Y8891D01*
X550Y8333D01*
X550Y17621D01*
X605Y17487D01*
X984Y17107D01*
X1480Y16901D01*
X2017Y16900D01*
X2513Y17105D01*
X2893Y17484D01*
X3099Y17980D01*
X3100Y18517D01*
X2895Y19013D01*
X2516Y19393D01*
X2378Y19450D01*
X3858Y19450D01*
X3734Y19399D01*
X3602Y19267D01*
X3530Y19094D01*
X3530Y18907D01*
X3601Y18734D01*
X3733Y18602D01*
X3906Y18530D01*
X4093Y18530D01*
X4266Y18601D01*
X4398Y18733D01*
X4470Y18906D01*
X4470Y19093D01*
X4399Y19266D01*
X4267Y19398D01*
X4142Y19450D01*
X4858Y19450D01*
X4734Y19399D01*
X4602Y19267D01*
X4530Y19094D01*
X4530Y18907D01*
X4601Y18734D01*
X4733Y18602D01*
X4906Y18530D01*
X5093Y18530D01*
X5266Y18601D01*
X5398Y18733D01*
X5470Y18906D01*
X5470Y19093D01*
X5399Y19266D01*
X5267Y19398D01*
X5142Y19450D01*
X7427Y19450D01*
X7406Y19359D01*
X7750Y19014D01*
X8094Y19359D01*
X8072Y19450D01*
X10917Y19450D01*
X10376Y18909D01*
X10260Y18861D01*
X10140Y18741D01*
X10075Y18585D01*
X10075Y18416D01*
X10139Y18260D01*
X10259Y18140D01*
X10415Y18075D01*
X10584Y18075D01*
X10740Y18139D01*
X10860Y18259D01*
X10925Y18415D01*
X10925Y18584D01*
X10861Y18740D01*
X10816Y18785D01*
X11332Y19300D01*
X25124Y19300D01*
X25066Y19276D01*
X24975Y19185D01*
X24925Y19065D01*
X24925Y18936D01*
X24974Y18816D01*
X25050Y18740D01*
X25050Y18260D01*
X24975Y18185D01*
X24925Y18065D01*
X24925Y17936D01*
X24974Y17816D01*
X25065Y17725D01*
X25185Y17675D01*
X25314Y17675D01*
X25434Y17724D01*
X25525Y17815D01*
X25575Y17935D01*
X25575Y18064D01*
X25526Y18184D01*
X25450Y18260D01*
X25450Y18740D01*
X25525Y18815D01*
X25575Y18935D01*
X25575Y19064D01*
X25526Y19184D01*
X25435Y19275D01*
X25375Y19300D01*
X27801Y19300D01*
X27801Y19270D01*
X27801Y18670D01*
X27824Y18615D01*
X27866Y18573D01*
X27921Y18551D01*
X27980Y18551D01*
X28580Y18551D01*
X28635Y18574D01*
X28677Y18616D01*
X28699Y18671D01*
X28699Y18730D01*
X28699Y18903D01*
X28778Y18699D01*
X28792Y18679D01*
X28891Y18656D01*
X29200Y18966D01*
X29201Y18965D01*
X29236Y19000D01*
X29250Y19014D01*
X29264Y19000D01*
X29299Y18965D01*
X29609Y18656D01*
X29708Y18679D01*
X29796Y18878D01*
X29800Y19054D01*
X29800Y18500D01*
X29815Y18423D01*
X29859Y18359D01*
X30007Y18210D01*
X30015Y18173D01*
X30059Y18109D01*
X30123Y18065D01*
X30160Y18058D01*
X30425Y17793D01*
X30425Y17686D01*
X30474Y17566D01*
X30565Y17475D01*
X30685Y17425D01*
X30814Y17425D01*
X30934Y17474D01*
X31025Y17565D01*
X31075Y17685D01*
X31075Y17814D01*
X31026Y17934D01*
X30935Y18025D01*
X30815Y18075D01*
X30707Y18075D01*
X30391Y18391D01*
X30362Y18411D01*
X30361Y18411D01*
X30361Y18412D01*
X30341Y18441D01*
X30341Y18442D01*
X30200Y18583D01*
X30200Y19250D01*
X30185Y19327D01*
X30141Y19391D01*
X30141Y19392D01*
X30082Y19450D01*
X30625Y19450D01*
X30561Y19386D01*
X30457Y19136D01*
X30457Y18865D01*
X30561Y18615D01*
X30752Y18423D01*
X31002Y18319D01*
X31273Y18319D01*
X31523Y18423D01*
X31715Y18614D01*
X31819Y18864D01*
X31819Y19135D01*
X31715Y19385D01*
X31650Y19450D01*
X33925Y19450D01*
X33925Y19436D01*
X33974Y19316D01*
X34050Y19240D01*
X34050Y19000D01*
X34054Y18979D01*
X33891Y19141D01*
X33827Y19185D01*
X33750Y19200D01*
X33250Y19200D01*
X33173Y19185D01*
X33108Y19141D01*
X32861Y18894D01*
X32858Y18891D01*
X31859Y17891D01*
X31815Y17827D01*
X31800Y17750D01*
X31800Y17250D01*
X31800Y16760D01*
X31725Y16685D01*
X31675Y16565D01*
X31675Y16436D01*
X31724Y16316D01*
X31815Y16225D01*
X31935Y16175D01*
X32064Y16175D01*
X32184Y16224D01*
X32275Y16315D01*
X32325Y16435D01*
X32325Y16564D01*
X32276Y16684D01*
X32200Y16760D01*
X32200Y17250D01*
X32200Y17668D01*
X32551Y18019D01*
X32551Y17848D01*
X32619Y17683D01*
X32745Y17557D01*
X32776Y17544D01*
X32746Y17531D01*
X32620Y17405D01*
X32551Y17240D01*
X32551Y17061D01*
X32619Y16896D01*
X32745Y16770D01*
X32800Y16747D01*
X32800Y16000D01*
X32815Y15923D01*
X32859Y15859D01*
X33073Y15645D01*
X33051Y15590D01*
X33051Y15411D01*
X33119Y15246D01*
X33245Y15120D01*
X33410Y15051D01*
X33589Y15051D01*
X33754Y15119D01*
X33880Y15245D01*
X33949Y15410D01*
X33949Y15589D01*
X33881Y15754D01*
X33755Y15880D01*
X33700Y15903D01*
X33700Y16168D01*
X33832Y16300D01*
X34250Y16300D01*
X34740Y16300D01*
X34815Y16225D01*
X34935Y16175D01*
X35064Y16175D01*
X35184Y16224D01*
X35275Y16315D01*
X35325Y16435D01*
X35325Y16564D01*
X35276Y16684D01*
X35185Y16775D01*
X35065Y16825D01*
X34936Y16825D01*
X34816Y16776D01*
X34740Y16700D01*
X34250Y16700D01*
X33750Y16700D01*
X33673Y16685D01*
X33608Y16641D01*
X33359Y16391D01*
X33315Y16327D01*
X33300Y16250D01*
X33300Y15982D01*
X33200Y16082D01*
X33200Y16747D01*
X33254Y16769D01*
X33380Y16895D01*
X33449Y17060D01*
X33449Y17239D01*
X33381Y17404D01*
X33255Y17530D01*
X33223Y17544D01*
X33254Y17556D01*
X33380Y17682D01*
X33449Y17847D01*
X33449Y18026D01*
X33381Y18191D01*
X33255Y18317D01*
X33090Y18386D01*
X32918Y18386D01*
X33141Y18608D01*
X33141Y18609D01*
X33143Y18612D01*
X33332Y18800D01*
X33667Y18800D01*
X33800Y18668D01*
X33800Y18341D01*
X33746Y18318D01*
X33620Y18192D01*
X33551Y18027D01*
X33551Y17848D01*
X33619Y17683D01*
X33745Y17557D01*
X33776Y17544D01*
X33746Y17531D01*
X33620Y17405D01*
X33551Y17240D01*
X33551Y17061D01*
X33619Y16896D01*
X33745Y16770D01*
X33910Y16701D01*
X34089Y16701D01*
X34254Y16769D01*
X34380Y16895D01*
X34449Y17060D01*
X34449Y17239D01*
X34381Y17404D01*
X34255Y17530D01*
X34223Y17544D01*
X34254Y17556D01*
X34380Y17682D01*
X34449Y17847D01*
X34449Y18026D01*
X34381Y18191D01*
X34255Y18317D01*
X34200Y18340D01*
X34200Y18750D01*
X34195Y18773D01*
X35550Y17418D01*
X35550Y15010D01*
X35499Y14959D01*
X35499Y15121D01*
X35499Y15180D01*
X35499Y15880D01*
X35476Y15935D01*
X35434Y15977D01*
X35379Y15999D01*
X35320Y15999D01*
X34620Y15999D01*
X34565Y15976D01*
X34523Y15934D01*
X34501Y15879D01*
X34501Y15820D01*
X34501Y15120D01*
X34524Y15065D01*
X34566Y15023D01*
X34621Y15001D01*
X34680Y15001D01*
X34800Y15001D01*
X34800Y14833D01*
X34667Y14700D01*
X33760Y14700D01*
X33685Y14775D01*
X33565Y14825D01*
X33436Y14825D01*
X33316Y14776D01*
X33225Y14685D01*
X33175Y14565D01*
X33175Y14436D01*
X33224Y14316D01*
X33300Y14240D01*
X33300Y11904D01*
X33246Y11881D01*
X33120Y11755D01*
X33051Y11590D01*
X33051Y11411D01*
X33119Y11246D01*
X33245Y11120D01*
X33410Y11051D01*
X33589Y11051D01*
X33754Y11119D01*
X33880Y11245D01*
X33949Y11410D01*
X33949Y11589D01*
X33881Y11754D01*
X33755Y11880D01*
X33700Y11903D01*
X33700Y14240D01*
X33760Y14300D01*
X34750Y14300D01*
X34750Y14301D01*
X34826Y14315D01*
X34827Y14315D01*
X34891Y14359D01*
X35141Y14608D01*
X35141Y14609D01*
X35185Y14673D01*
X35199Y14750D01*
X35200Y14750D01*
X35200Y15001D01*
X35380Y15001D01*
X35435Y15024D01*
X35477Y15066D01*
X35499Y15121D01*
X35499Y14959D01*
X35475Y14935D01*
X35425Y14815D01*
X35425Y14686D01*
X35474Y14566D01*
X35565Y14475D01*
X35685Y14425D01*
X35814Y14425D01*
X35934Y14474D01*
X36025Y14565D01*
X36075Y14685D01*
X36075Y14814D01*
X36026Y14934D01*
X35950Y15010D01*
X35950Y17500D01*
X35935Y17577D01*
X35891Y17641D01*
X35891Y17642D01*
X34450Y19083D01*
X34450Y19240D01*
X34525Y19315D01*
X34575Y19435D01*
X34575Y19450D01*
X35349Y19450D01*
X35285Y19386D01*
X35181Y19136D01*
X35181Y18865D01*
X35285Y18615D01*
X35476Y18423D01*
X35726Y18319D01*
X35997Y18319D01*
X36247Y18423D01*
X36439Y18614D01*
X36543Y18864D01*
X36543Y19135D01*
X36439Y19385D01*
X36374Y19450D01*
X37175Y19450D01*
X37175Y19436D01*
X37224Y19316D01*
X37300Y19240D01*
X37300Y18260D01*
X37225Y18185D01*
X37175Y18065D01*
X37175Y17936D01*
X37224Y17816D01*
X37315Y17725D01*
X37435Y17675D01*
X37564Y17675D01*
X37684Y17724D01*
X37775Y17815D01*
X37825Y17935D01*
X37825Y18064D01*
X37776Y18184D01*
X37700Y18260D01*
X37700Y19240D01*
X37775Y19315D01*
X37825Y19435D01*
X37825Y19450D01*
X45925Y19450D01*
X45925Y19436D01*
X45974Y19316D01*
X46050Y19240D01*
X46050Y18063D01*
X46049Y18061D01*
X46034Y17984D01*
X46034Y16500D01*
X45909Y16448D01*
X45747Y16286D01*
X45659Y16075D01*
X45659Y15846D01*
X45746Y15635D01*
X45908Y15473D01*
X46034Y15421D01*
X46034Y11580D01*
X45909Y11528D01*
X45747Y11366D01*
X45659Y11155D01*
X45659Y10926D01*
X45746Y10715D01*
X45908Y10553D01*
X46119Y10465D01*
X46348Y10465D01*
X46559Y10552D01*
X46721Y10714D01*
X46809Y10925D01*
X46809Y11154D01*
X46722Y11365D01*
X46560Y11527D01*
X46434Y11580D01*
X46434Y15421D01*
X46559Y15472D01*
X46721Y15634D01*
X46809Y15845D01*
X46809Y16074D01*
X46722Y16285D01*
X46560Y16447D01*
X46434Y16500D01*
X46434Y17922D01*
X46435Y17923D01*
X46449Y18000D01*
X46450Y18000D01*
X46450Y19240D01*
X46525Y19315D01*
X46575Y19435D01*
X46575Y19450D01*
X47620Y19450D01*
X47487Y19395D01*
X47107Y19016D01*
X46901Y18520D01*
X46900Y17983D01*
X47105Y17487D01*
X47484Y17107D01*
X47980Y16901D01*
X48517Y16900D01*
X49013Y17105D01*
X49393Y17484D01*
X49450Y17622D01*
X49450Y2630D01*
X49395Y2763D01*
X49016Y3143D01*
X48520Y3349D01*
X47983Y3350D01*
X47487Y3145D01*
X47107Y2766D01*
X46901Y2270D01*
X46900Y1733D01*
X47105Y1237D01*
X47484Y857D01*
X47980Y651D01*
X48517Y650D01*
X49013Y855D01*
X49393Y1234D01*
X49450Y1372D01*
X49450Y550D01*
M02*
