G04 (created by PCBNEW-RS274X (2011-nov-30)-testing) date Mon 02 Jul 2012 10:15:23 AM EDT*
%MOIN*%
G04 Gerber Fmt 3.4, Leading zero omitted, Abs format*
%FSLAX34Y34*%
G01*
G70*
G90*
G04 APERTURE LIST*
%ADD10C,0.006*%
%ADD11C,0.015*%
%ADD12C,0.06*%
%ADD13C,0.085*%
%ADD14R,0.055X0.055*%
%ADD15C,0.055*%
%ADD16R,0.06X0.06*%
%ADD17C,0.066*%
%ADD18C,0.056*%
%ADD19C,0.07*%
%ADD20R,0.07X0.07*%
%ADD21C,0.064*%
%ADD22R,0.065X0.065*%
%ADD23C,0.065*%
%ADD24C,0.24*%
%ADD25C,0.1063*%
%ADD26C,0.035*%
%ADD27C,0.01*%
G04 APERTURE END LIST*
G54D10*
G54D11*
X50000Y20000D02*
X0Y20000D01*
X50000Y0D02*
X50000Y20000D01*
X0Y0D02*
X50000Y0D01*
X0Y20000D02*
X0Y0D01*
G54D12*
X1000Y3750D03*
X1000Y4750D03*
X1000Y5750D03*
G54D13*
X6516Y1540D03*
X6516Y6460D03*
X8484Y1540D03*
X8484Y6460D03*
X11766Y1540D03*
X11766Y6460D03*
X13734Y1540D03*
X13734Y6460D03*
X17016Y1540D03*
X17016Y6460D03*
X18984Y1540D03*
X18984Y6460D03*
X22266Y1540D03*
X22266Y6460D03*
X24234Y1540D03*
X24234Y6460D03*
X27516Y1540D03*
X27516Y6460D03*
X29484Y1540D03*
X29484Y6460D03*
X46234Y15960D03*
X46234Y11040D03*
X44266Y15960D03*
X44266Y11040D03*
X40984Y15960D03*
X40984Y11040D03*
X39016Y15960D03*
X39016Y11040D03*
X43266Y1540D03*
X43266Y6460D03*
X45234Y1540D03*
X45234Y6460D03*
X38016Y1540D03*
X38016Y6460D03*
X39984Y1540D03*
X39984Y6460D03*
X32766Y1540D03*
X32766Y6460D03*
X34734Y1540D03*
X34734Y6460D03*
G54D14*
X40500Y18500D03*
G54D15*
X40500Y17500D03*
G54D12*
X26000Y15500D03*
X26000Y11500D03*
X27500Y11500D03*
X27500Y15500D03*
X36500Y15500D03*
X36500Y11500D03*
X33500Y15500D03*
X33500Y11500D03*
X12500Y10000D03*
X12500Y14000D03*
X11000Y10000D03*
X11000Y14000D03*
X7750Y19000D03*
X7750Y15000D03*
X1000Y15500D03*
X5000Y15500D03*
X6500Y15000D03*
X6500Y19000D03*
X32000Y11500D03*
X32000Y15500D03*
X30500Y11500D03*
X30500Y15500D03*
G54D16*
X28250Y19000D03*
G54D12*
X29250Y19000D03*
X28250Y18000D03*
X29250Y18000D03*
X28250Y17000D03*
X29250Y17000D03*
G54D17*
X40000Y9000D03*
X40000Y8000D03*
X34750Y9000D03*
X34750Y8000D03*
X24250Y9000D03*
X24250Y8000D03*
X8500Y9000D03*
X8500Y8000D03*
X13750Y9000D03*
X13750Y8000D03*
X19000Y9000D03*
X19000Y8000D03*
X29500Y9000D03*
X29500Y8000D03*
X45250Y9000D03*
X45250Y8000D03*
G54D18*
X21000Y13500D03*
X23000Y13500D03*
G54D14*
X18500Y10500D03*
G54D15*
X18500Y11500D03*
X18500Y12500D03*
X18500Y13500D03*
X15500Y13500D03*
X15500Y12500D03*
X15500Y11500D03*
X15500Y10500D03*
G54D14*
X4500Y12500D03*
G54D15*
X3500Y12500D03*
X2500Y12500D03*
X1500Y12500D03*
X1500Y9500D03*
X2500Y9500D03*
X3500Y9500D03*
X4500Y9500D03*
X11500Y15500D03*
X12500Y15500D03*
X13500Y15500D03*
X14500Y15500D03*
X15500Y15500D03*
X16500Y15500D03*
X17500Y15500D03*
X18500Y15500D03*
X19500Y15500D03*
X20500Y15500D03*
X21500Y15500D03*
X22500Y15500D03*
X23500Y15500D03*
G54D14*
X10500Y15500D03*
G54D15*
X23500Y18500D03*
X22500Y18500D03*
X21500Y18500D03*
X20500Y18500D03*
X19500Y18500D03*
X18500Y18500D03*
X17500Y18500D03*
X16500Y18500D03*
X15500Y18500D03*
X14500Y18500D03*
X13500Y18500D03*
X12500Y18500D03*
X11500Y18500D03*
X10500Y18500D03*
G54D19*
X35000Y11500D03*
G54D20*
X35000Y15500D03*
G54D19*
X29000Y11500D03*
G54D20*
X29000Y15500D03*
G54D15*
X6000Y9500D03*
X6000Y8500D03*
X4500Y8000D03*
X4500Y7000D03*
X23500Y11500D03*
X23500Y10500D03*
X22000Y11500D03*
X22000Y10500D03*
X2000Y8000D03*
X2000Y7000D03*
X2000Y14000D03*
X1000Y14000D03*
X14000Y14000D03*
X14000Y13000D03*
X3250Y7000D03*
X3250Y8000D03*
X3500Y14000D03*
X4500Y14000D03*
X20500Y11500D03*
X20500Y10500D03*
X39000Y18500D03*
X39000Y17500D03*
X14000Y11500D03*
X14000Y10500D03*
G54D12*
X5000Y17000D03*
X4000Y17000D03*
G54D21*
X5000Y18000D03*
X4000Y18000D03*
X5000Y19000D03*
X4000Y19000D03*
G54D12*
X42500Y17500D03*
X42500Y18500D03*
G54D21*
X43500Y17500D03*
X43500Y18500D03*
X44500Y17500D03*
X44500Y18500D03*
G54D12*
X4000Y1500D03*
X4000Y5500D03*
G54D22*
X8000Y13000D03*
G54D23*
X8000Y12000D03*
G54D24*
X1750Y18250D03*
X48250Y18250D03*
X1750Y1750D03*
X48250Y2000D03*
G54D12*
X33000Y17150D03*
X34000Y17150D03*
X34000Y17937D03*
X33000Y17937D03*
G54D25*
X31138Y19000D03*
X35862Y19000D03*
G54D26*
X6500Y3000D03*
X10000Y3000D03*
X17000Y12750D03*
X26250Y2500D03*
X17000Y2500D03*
X22250Y4750D03*
X16250Y4750D03*
X27500Y3250D03*
X17500Y10000D03*
X17500Y13750D03*
X21250Y3250D03*
X32750Y10250D03*
X23750Y13750D03*
X25000Y10250D03*
X27000Y13250D03*
X38000Y13250D03*
X25000Y15500D03*
X43250Y13750D03*
X30800Y14000D03*
X27200Y18600D03*
X41000Y12250D03*
X24250Y12250D03*
X23000Y4000D03*
X8500Y17500D03*
X7500Y4000D03*
X30750Y17750D03*
X38250Y18000D03*
X35000Y17900D03*
X32000Y16500D03*
X30500Y16500D03*
X33500Y14500D03*
X44750Y14750D03*
X26647Y17129D03*
X14500Y17250D03*
X9500Y10250D03*
X25250Y19000D03*
X25250Y18000D03*
X29750Y14250D03*
X26000Y18000D03*
X26000Y17250D03*
X19500Y17250D03*
X24750Y14750D03*
X36500Y12750D03*
X25500Y12750D03*
X24000Y14250D03*
X12500Y12250D03*
X13000Y11000D03*
X11000Y11000D03*
G54D27*
X10000Y3000D02*
X6500Y3000D01*
X17000Y13500D02*
X17000Y12750D01*
X15750Y14750D02*
X17000Y13500D01*
X13750Y14750D02*
X15750Y14750D01*
X13500Y15000D02*
X13750Y14750D01*
X13500Y15500D02*
X13500Y15000D01*
X25750Y2500D02*
X26250Y2500D01*
X25750Y2500D02*
X17000Y2500D01*
X22250Y4750D02*
X20500Y4750D01*
X20500Y4750D02*
X16250Y4750D01*
X17500Y11750D02*
X17500Y13750D01*
X27500Y3250D02*
X27000Y3250D01*
X17500Y11750D02*
X17500Y10000D01*
X21250Y3250D02*
X27000Y3250D01*
X32750Y10250D02*
X32250Y10250D01*
X25000Y10250D02*
X32250Y10250D01*
X23250Y14250D02*
X23750Y13750D01*
X22000Y14250D02*
X23250Y14250D01*
X21750Y14500D02*
X22000Y14250D01*
X20750Y14500D02*
X21750Y14500D01*
X20500Y14750D02*
X20750Y14500D01*
X20500Y15500D02*
X20500Y14750D01*
X27000Y13250D02*
X38000Y13250D01*
X23500Y15500D02*
X25000Y15500D01*
X39250Y13750D02*
X39250Y13800D01*
X39300Y13800D02*
X39250Y13750D01*
X43200Y13800D02*
X39300Y13800D01*
X43250Y13750D02*
X43200Y13800D01*
X23800Y18600D02*
X27200Y18600D01*
X30800Y14000D02*
X31000Y13800D01*
X31000Y13800D02*
X39250Y13800D01*
X23500Y18500D02*
X23700Y18500D01*
X23700Y18500D02*
X23800Y18600D01*
X40750Y12250D02*
X41000Y12250D01*
X24250Y12250D02*
X40750Y12250D01*
X23000Y4000D02*
X7500Y4000D01*
X11500Y17750D02*
X11500Y18500D01*
X11250Y17500D02*
X11500Y17750D01*
X8500Y17500D02*
X11250Y17500D01*
X30750Y17750D02*
X31450Y17750D01*
X34150Y18750D02*
X35000Y17900D01*
X32450Y18750D02*
X34150Y18750D01*
X31450Y17750D02*
X32450Y18750D01*
X45000Y19500D02*
X45250Y19250D01*
X38250Y18000D02*
X38250Y19250D01*
X38500Y19500D02*
X39000Y19500D01*
X38250Y19250D02*
X38500Y19500D01*
X46234Y15960D02*
X46234Y18266D01*
X46234Y18266D02*
X46250Y18250D01*
X46250Y18250D02*
X45250Y19250D01*
X44750Y19500D02*
X45000Y19500D01*
X39000Y19500D02*
X44750Y19500D01*
X30750Y16500D02*
X32000Y16500D01*
X30500Y16500D02*
X30750Y16500D01*
X30500Y15500D02*
X29000Y15500D01*
X32000Y15500D02*
X32000Y14750D01*
X32250Y14500D02*
X33500Y14500D01*
X32000Y14750D02*
X32250Y14500D01*
X34000Y17150D02*
X34000Y16500D01*
X34000Y16500D02*
X35000Y15500D01*
X32350Y19746D02*
X33754Y19746D01*
X33754Y19746D02*
X35430Y18070D01*
X32000Y19746D02*
X32350Y19746D01*
X35430Y18070D02*
X37250Y16250D01*
X44750Y14750D02*
X43750Y14750D01*
X38750Y14750D02*
X43750Y14750D01*
X32000Y19746D02*
X16746Y19746D01*
X15500Y18500D02*
X16746Y19746D01*
X37250Y16250D02*
X38750Y14750D01*
X45250Y9000D02*
X43000Y9000D01*
X43000Y9000D02*
X42000Y8000D01*
X42000Y8000D02*
X40000Y8000D01*
X16138Y16862D02*
X26380Y16862D01*
X26380Y16862D02*
X26647Y17129D01*
X14500Y17250D02*
X14888Y16862D01*
X14888Y16862D02*
X16138Y16862D01*
X32250Y8000D02*
X34750Y8000D01*
X31250Y9000D02*
X32250Y8000D01*
X29500Y9000D02*
X31250Y9000D01*
X14500Y18509D02*
X14500Y18500D01*
X14478Y18531D02*
X14500Y18509D01*
X14677Y18414D02*
X14619Y18472D01*
X21500Y8000D02*
X24250Y8000D01*
X20500Y9000D02*
X21500Y8000D01*
X19000Y9000D02*
X20500Y9000D01*
X16000Y9000D02*
X19000Y9000D01*
X15250Y9750D02*
X16000Y9000D01*
X13250Y9750D02*
X15250Y9750D01*
X12750Y9250D02*
X13250Y9750D01*
X10500Y9250D02*
X12750Y9250D01*
X9500Y10250D02*
X10500Y9250D01*
X12000Y8000D02*
X8500Y8000D01*
X13000Y9000D02*
X13750Y9000D01*
X12000Y8000D02*
X13000Y9000D01*
X20500Y18500D02*
X20500Y18000D01*
X25250Y19000D02*
X28250Y19000D01*
X20500Y18000D02*
X25250Y18000D01*
X19000Y13500D02*
X18500Y13500D01*
X19750Y12750D02*
X19000Y13500D01*
X23500Y12750D02*
X19750Y12750D01*
X25000Y14250D02*
X23500Y12750D01*
X29750Y14250D02*
X25000Y14250D01*
X29750Y18000D02*
X29250Y18000D01*
X30000Y18250D02*
X29750Y18000D01*
X30000Y19250D02*
X30000Y18250D01*
X29750Y19500D02*
X30000Y19250D01*
X22000Y19500D02*
X29750Y19500D01*
X21500Y19000D02*
X22000Y19500D01*
X21500Y18500D02*
X21500Y19000D01*
X10500Y16000D02*
X10500Y15500D01*
X11000Y16500D02*
X10500Y16000D01*
X27750Y16500D02*
X11000Y16500D01*
X28250Y17000D02*
X27750Y16500D01*
X8000Y15500D02*
X10500Y15500D01*
X7750Y15250D02*
X8000Y15500D01*
X7750Y15000D02*
X7750Y15250D01*
X26000Y18000D02*
X28250Y18000D01*
X19500Y17250D02*
X26000Y17250D01*
X20250Y13500D02*
X21000Y13500D01*
X18500Y15250D02*
X20250Y13500D01*
X18500Y15500D02*
X18500Y15250D01*
X22000Y13500D02*
X23000Y13500D01*
X21250Y14250D02*
X22000Y13500D01*
X20500Y14250D02*
X21250Y14250D01*
X19500Y15250D02*
X20500Y14250D01*
X19500Y15500D02*
X19500Y15250D01*
X22750Y14750D02*
X24750Y14750D01*
X22500Y15000D02*
X22750Y14750D01*
X22500Y15500D02*
X22500Y15000D01*
X25500Y12750D02*
X36500Y12750D01*
X23750Y14500D02*
X24000Y14250D01*
X22250Y14500D02*
X23750Y14500D01*
X21500Y15250D02*
X22250Y14500D01*
X21500Y15500D02*
X21500Y15250D01*
X3500Y15250D02*
X3500Y14000D01*
X5000Y16750D02*
X3500Y15250D01*
X5000Y17000D02*
X5000Y16750D01*
X12500Y12250D02*
X13087Y12250D01*
X15250Y12500D02*
X15500Y12500D01*
X15000Y12250D02*
X15250Y12500D01*
X13087Y12250D02*
X15000Y12250D01*
X13087Y11413D02*
X14000Y10500D01*
X13087Y12250D02*
X13087Y11413D01*
X11000Y11000D02*
X13000Y11000D01*
X6000Y9500D02*
X8000Y11500D01*
X8000Y11500D02*
X8000Y12000D01*
X5500Y9000D02*
X6000Y9500D01*
X1500Y9000D02*
X5500Y9000D01*
X1500Y9500D02*
X1500Y9000D01*
X4500Y9500D02*
X4500Y10000D01*
X7500Y13000D02*
X8000Y13000D01*
X4500Y10000D02*
X7500Y13000D01*
X10079Y10921D02*
X11000Y10000D01*
X9279Y10921D02*
X10079Y10921D01*
X6358Y8000D02*
X9279Y10921D01*
X4500Y8000D02*
X6358Y8000D01*
G54D10*
G36*
X49450Y2850D02*
X49072Y3228D01*
X48540Y3449D01*
X47963Y3450D01*
X47430Y3230D01*
X47022Y2822D01*
X46909Y2550D01*
X46909Y10905D01*
X46909Y11174D01*
X46806Y11422D01*
X46617Y11612D01*
X46369Y11715D01*
X46100Y11715D01*
X45852Y11612D01*
X45662Y11423D01*
X45559Y11175D01*
X45559Y10906D01*
X45662Y10658D01*
X45851Y10468D01*
X46099Y10365D01*
X46368Y10365D01*
X46616Y10468D01*
X46806Y10657D01*
X46909Y10905D01*
X46909Y2550D01*
X46801Y2290D01*
X46800Y1713D01*
X47020Y1180D01*
X47428Y772D01*
X47960Y551D01*
X48537Y550D01*
X45913Y550D01*
X45913Y1428D01*
X45913Y6348D01*
X45904Y6616D01*
X45833Y6789D01*
X45833Y7912D01*
X45830Y7981D01*
X45830Y8884D01*
X45830Y9115D01*
X45742Y9328D01*
X45579Y9491D01*
X45366Y9580D01*
X45135Y9580D01*
X44945Y9502D01*
X44945Y10928D01*
X44936Y11196D01*
X44851Y11403D01*
X44743Y11446D01*
X44672Y11375D01*
X44672Y11517D01*
X44629Y11625D01*
X44378Y11719D01*
X44110Y11710D01*
X43903Y11625D01*
X43860Y11517D01*
X44266Y11111D01*
X44672Y11517D01*
X44672Y11375D01*
X44337Y11040D01*
X44743Y10634D01*
X44851Y10677D01*
X44945Y10928D01*
X44945Y9502D01*
X44922Y9492D01*
X44759Y9329D01*
X44746Y9300D01*
X44672Y9300D01*
X44672Y10563D01*
X44266Y10969D01*
X44195Y10898D01*
X44195Y11040D01*
X43789Y11446D01*
X43681Y11403D01*
X43675Y11387D01*
X43675Y13665D01*
X43675Y13834D01*
X43611Y13990D01*
X43491Y14110D01*
X43335Y14175D01*
X43166Y14175D01*
X43010Y14111D01*
X42999Y14100D01*
X39300Y14100D01*
X39275Y14095D01*
X39250Y14100D01*
X37049Y14100D01*
X37049Y15391D01*
X37049Y15609D01*
X36965Y15811D01*
X36811Y15965D01*
X36609Y16049D01*
X36391Y16049D01*
X36189Y15965D01*
X36035Y15811D01*
X35951Y15609D01*
X35951Y15391D01*
X36035Y15189D01*
X36189Y15035D01*
X36391Y14951D01*
X36609Y14951D01*
X36811Y15035D01*
X36965Y15189D01*
X37049Y15391D01*
X37049Y14100D01*
X34049Y14100D01*
X34049Y15391D01*
X34049Y15609D01*
X33965Y15811D01*
X33811Y15965D01*
X33609Y16049D01*
X33391Y16049D01*
X33189Y15965D01*
X33035Y15811D01*
X32951Y15609D01*
X32951Y15391D01*
X33035Y15189D01*
X33189Y15035D01*
X33391Y14951D01*
X33609Y14951D01*
X33811Y15035D01*
X33965Y15189D01*
X34049Y15391D01*
X34049Y14100D01*
X33644Y14100D01*
X33740Y14139D01*
X33860Y14259D01*
X33925Y14415D01*
X33925Y14584D01*
X33861Y14740D01*
X33741Y14860D01*
X33585Y14925D01*
X33416Y14925D01*
X33260Y14861D01*
X33199Y14800D01*
X32374Y14800D01*
X32300Y14875D01*
X32300Y15031D01*
X32311Y15035D01*
X32465Y15189D01*
X32549Y15391D01*
X32549Y15609D01*
X32465Y15811D01*
X32425Y15851D01*
X32425Y16415D01*
X32425Y16584D01*
X32361Y16740D01*
X32241Y16860D01*
X32085Y16925D01*
X31916Y16925D01*
X31760Y16861D01*
X31699Y16800D01*
X30801Y16800D01*
X30741Y16860D01*
X30585Y16925D01*
X30416Y16925D01*
X30260Y16861D01*
X30140Y16741D01*
X30075Y16585D01*
X30075Y16416D01*
X30139Y16260D01*
X30259Y16140D01*
X30415Y16075D01*
X30584Y16075D01*
X30740Y16139D01*
X30801Y16200D01*
X31699Y16200D01*
X31759Y16140D01*
X31915Y16075D01*
X32084Y16075D01*
X32240Y16139D01*
X32360Y16259D01*
X32425Y16415D01*
X32425Y15851D01*
X32311Y15965D01*
X32109Y16049D01*
X31891Y16049D01*
X31689Y15965D01*
X31535Y15811D01*
X31451Y15609D01*
X31451Y15391D01*
X31535Y15189D01*
X31689Y15035D01*
X31700Y15031D01*
X31700Y14750D01*
X31723Y14635D01*
X31788Y14538D01*
X32037Y14288D01*
X32038Y14288D01*
X32135Y14223D01*
X32250Y14200D01*
X33199Y14200D01*
X33259Y14140D01*
X33355Y14100D01*
X31218Y14100D01*
X31161Y14240D01*
X31049Y14352D01*
X31049Y15391D01*
X31049Y15609D01*
X30965Y15811D01*
X30811Y15965D01*
X30609Y16049D01*
X30391Y16049D01*
X30189Y15965D01*
X30035Y15811D01*
X30030Y15800D01*
X29803Y15800D01*
X29803Y16919D01*
X29792Y17137D01*
X29730Y17286D01*
X29635Y17315D01*
X29321Y17000D01*
X29635Y16685D01*
X29730Y16714D01*
X29803Y16919D01*
X29803Y15800D01*
X29599Y15800D01*
X29599Y15899D01*
X29565Y15982D01*
X29565Y16615D01*
X29250Y16929D01*
X28935Y16615D01*
X28964Y16520D01*
X29169Y16447D01*
X29387Y16458D01*
X29536Y16520D01*
X29565Y16615D01*
X29565Y15982D01*
X29561Y15991D01*
X29491Y16061D01*
X29400Y16099D01*
X29301Y16099D01*
X28601Y16099D01*
X28509Y16061D01*
X28439Y15991D01*
X28401Y15900D01*
X28401Y15801D01*
X28401Y15101D01*
X28439Y15009D01*
X28509Y14939D01*
X28600Y14901D01*
X28699Y14901D01*
X29399Y14901D01*
X29491Y14939D01*
X29561Y15009D01*
X29599Y15100D01*
X29599Y15199D01*
X29599Y15200D01*
X30030Y15200D01*
X30035Y15189D01*
X30189Y15035D01*
X30391Y14951D01*
X30609Y14951D01*
X30811Y15035D01*
X30965Y15189D01*
X31049Y15391D01*
X31049Y14352D01*
X31041Y14360D01*
X30885Y14425D01*
X30716Y14425D01*
X30560Y14361D01*
X30440Y14241D01*
X30375Y14085D01*
X30375Y13916D01*
X30439Y13760D01*
X30559Y13640D01*
X30715Y13575D01*
X30806Y13575D01*
X30807Y13575D01*
X30844Y13550D01*
X30175Y13550D01*
X30175Y14165D01*
X30175Y14334D01*
X30111Y14490D01*
X29991Y14610D01*
X29835Y14675D01*
X29666Y14675D01*
X29510Y14611D01*
X29449Y14550D01*
X28053Y14550D01*
X28053Y15419D01*
X28042Y15637D01*
X27980Y15786D01*
X27885Y15815D01*
X27815Y15745D01*
X27815Y15885D01*
X27786Y15980D01*
X27581Y16053D01*
X27363Y16042D01*
X27214Y15980D01*
X27185Y15885D01*
X27500Y15571D01*
X27815Y15885D01*
X27815Y15745D01*
X27571Y15500D01*
X27885Y15185D01*
X27980Y15214D01*
X28053Y15419D01*
X28053Y14550D01*
X27815Y14550D01*
X27815Y15115D01*
X27500Y15429D01*
X27429Y15359D01*
X27429Y15500D01*
X27115Y15815D01*
X27020Y15786D01*
X26947Y15581D01*
X26958Y15363D01*
X27020Y15214D01*
X27115Y15185D01*
X27429Y15500D01*
X27429Y15359D01*
X27185Y15115D01*
X27214Y15020D01*
X27419Y14947D01*
X27637Y14958D01*
X27786Y15020D01*
X27815Y15115D01*
X27815Y14550D01*
X26549Y14550D01*
X26549Y15391D01*
X26549Y15609D01*
X26465Y15811D01*
X26311Y15965D01*
X26109Y16049D01*
X25891Y16049D01*
X25689Y15965D01*
X25535Y15811D01*
X25451Y15609D01*
X25451Y15391D01*
X25535Y15189D01*
X25689Y15035D01*
X25891Y14951D01*
X26109Y14951D01*
X26311Y15035D01*
X26465Y15189D01*
X26549Y15391D01*
X26549Y14550D01*
X25127Y14550D01*
X25175Y14665D01*
X25175Y14834D01*
X25111Y14990D01*
X25026Y15075D01*
X25084Y15075D01*
X25240Y15139D01*
X25360Y15259D01*
X25425Y15415D01*
X25425Y15584D01*
X25361Y15740D01*
X25241Y15860D01*
X25085Y15925D01*
X24916Y15925D01*
X24760Y15861D01*
X24699Y15800D01*
X23942Y15800D01*
X23798Y15945D01*
X23605Y16025D01*
X23396Y16025D01*
X23203Y15945D01*
X23055Y15798D01*
X22999Y15665D01*
X22945Y15797D01*
X22798Y15945D01*
X22605Y16025D01*
X22396Y16025D01*
X22203Y15945D01*
X22055Y15798D01*
X21999Y15665D01*
X21945Y15797D01*
X21798Y15945D01*
X21605Y16025D01*
X21396Y16025D01*
X21203Y15945D01*
X21055Y15798D01*
X20999Y15665D01*
X20945Y15797D01*
X20798Y15945D01*
X20605Y16025D01*
X20396Y16025D01*
X20203Y15945D01*
X20055Y15798D01*
X19999Y15665D01*
X19945Y15797D01*
X19798Y15945D01*
X19605Y16025D01*
X19396Y16025D01*
X19203Y15945D01*
X19055Y15798D01*
X18999Y15665D01*
X18945Y15797D01*
X18798Y15945D01*
X18605Y16025D01*
X18396Y16025D01*
X18203Y15945D01*
X18055Y15798D01*
X18002Y15671D01*
X17960Y15772D01*
X17868Y15797D01*
X17797Y15726D01*
X17797Y15868D01*
X17772Y15960D01*
X17576Y16030D01*
X17368Y16018D01*
X17228Y15960D01*
X17203Y15868D01*
X17500Y15571D01*
X17797Y15868D01*
X17797Y15726D01*
X17571Y15500D01*
X17868Y15203D01*
X17960Y15228D01*
X17999Y15338D01*
X18055Y15203D01*
X18202Y15055D01*
X18319Y15007D01*
X20037Y13288D01*
X20038Y13288D01*
X20135Y13223D01*
X20249Y13201D01*
X20250Y13200D01*
X20551Y13200D01*
X20699Y13051D01*
X20701Y13050D01*
X19874Y13050D01*
X19212Y13712D01*
X19115Y13777D01*
X19000Y13800D01*
X18942Y13800D01*
X18798Y13945D01*
X18605Y14025D01*
X18396Y14025D01*
X18203Y13945D01*
X18055Y13798D01*
X17975Y13605D01*
X17975Y13396D01*
X18055Y13203D01*
X18202Y13055D01*
X18335Y13000D01*
X18203Y12945D01*
X18055Y12798D01*
X17975Y12605D01*
X17975Y12396D01*
X18055Y12203D01*
X18202Y12055D01*
X18335Y12000D01*
X18203Y11945D01*
X18055Y11798D01*
X17975Y11605D01*
X17975Y11396D01*
X18055Y11203D01*
X18202Y11055D01*
X18276Y11024D01*
X18176Y11024D01*
X18084Y10986D01*
X18014Y10916D01*
X17976Y10825D01*
X17976Y10726D01*
X17976Y10176D01*
X18014Y10084D01*
X18084Y10014D01*
X18175Y9976D01*
X18274Y9976D01*
X18824Y9976D01*
X18916Y10014D01*
X18986Y10084D01*
X19024Y10175D01*
X19024Y10274D01*
X19024Y10824D01*
X18986Y10916D01*
X18916Y10986D01*
X18825Y11024D01*
X18726Y11024D01*
X18722Y11024D01*
X18797Y11055D01*
X18945Y11202D01*
X19025Y11395D01*
X19025Y11604D01*
X18945Y11797D01*
X18798Y11945D01*
X18664Y12001D01*
X18797Y12055D01*
X18945Y12202D01*
X19025Y12395D01*
X19025Y12604D01*
X18945Y12797D01*
X18798Y12945D01*
X18664Y13001D01*
X18797Y13055D01*
X18909Y13167D01*
X19537Y12538D01*
X19538Y12538D01*
X19635Y12473D01*
X19750Y12450D01*
X23500Y12450D01*
X23615Y12473D01*
X23712Y12538D01*
X25124Y13950D01*
X29449Y13950D01*
X29509Y13890D01*
X29665Y13825D01*
X29834Y13825D01*
X29990Y13889D01*
X30110Y14009D01*
X30175Y14165D01*
X30175Y13550D01*
X27301Y13550D01*
X27241Y13610D01*
X27085Y13675D01*
X26916Y13675D01*
X26760Y13611D01*
X26640Y13491D01*
X26575Y13335D01*
X26575Y13166D01*
X26622Y13050D01*
X25801Y13050D01*
X25741Y13110D01*
X25585Y13175D01*
X25416Y13175D01*
X25260Y13111D01*
X25140Y12991D01*
X25075Y12835D01*
X25075Y12666D01*
X25122Y12550D01*
X24551Y12550D01*
X24491Y12610D01*
X24335Y12675D01*
X24166Y12675D01*
X24010Y12611D01*
X23890Y12491D01*
X23825Y12335D01*
X23825Y12166D01*
X23889Y12010D01*
X24009Y11890D01*
X24165Y11825D01*
X24334Y11825D01*
X24490Y11889D01*
X24551Y11950D01*
X25674Y11950D01*
X25535Y11811D01*
X25451Y11609D01*
X25451Y11391D01*
X25535Y11189D01*
X25689Y11035D01*
X25891Y10951D01*
X26109Y10951D01*
X26311Y11035D01*
X26465Y11189D01*
X26549Y11391D01*
X26549Y11609D01*
X26465Y11811D01*
X26326Y11950D01*
X27174Y11950D01*
X27035Y11811D01*
X26951Y11609D01*
X26951Y11391D01*
X27035Y11189D01*
X27189Y11035D01*
X27391Y10951D01*
X27609Y10951D01*
X27811Y11035D01*
X27965Y11189D01*
X28049Y11391D01*
X28049Y11609D01*
X27965Y11811D01*
X27826Y11950D01*
X28658Y11950D01*
X28649Y11921D01*
X29000Y11571D01*
X29351Y11921D01*
X29341Y11950D01*
X30174Y11950D01*
X30035Y11811D01*
X29951Y11609D01*
X29951Y11391D01*
X30035Y11189D01*
X30189Y11035D01*
X30391Y10951D01*
X30609Y10951D01*
X30811Y11035D01*
X30965Y11189D01*
X31049Y11391D01*
X31049Y11609D01*
X30965Y11811D01*
X30826Y11950D01*
X31674Y11950D01*
X31535Y11811D01*
X31451Y11609D01*
X31451Y11391D01*
X31535Y11189D01*
X31689Y11035D01*
X31891Y10951D01*
X32109Y10951D01*
X32311Y11035D01*
X32465Y11189D01*
X32549Y11391D01*
X32549Y11609D01*
X32465Y11811D01*
X32326Y11950D01*
X33174Y11950D01*
X33035Y11811D01*
X32951Y11609D01*
X32951Y11391D01*
X33035Y11189D01*
X33189Y11035D01*
X33391Y10951D01*
X33609Y10951D01*
X33811Y11035D01*
X33965Y11189D01*
X34049Y11391D01*
X34049Y11609D01*
X33965Y11811D01*
X33826Y11950D01*
X34658Y11950D01*
X34649Y11921D01*
X35000Y11571D01*
X35351Y11921D01*
X35341Y11950D01*
X36204Y11950D01*
X36185Y11885D01*
X36500Y11571D01*
X36815Y11885D01*
X36795Y11950D01*
X40699Y11950D01*
X40759Y11890D01*
X40915Y11825D01*
X41084Y11825D01*
X41240Y11889D01*
X41360Y12009D01*
X41425Y12165D01*
X41425Y12334D01*
X41361Y12490D01*
X41241Y12610D01*
X41085Y12675D01*
X40916Y12675D01*
X40760Y12611D01*
X40699Y12550D01*
X36877Y12550D01*
X36925Y12665D01*
X36925Y12834D01*
X36877Y12950D01*
X37699Y12950D01*
X37759Y12890D01*
X37915Y12825D01*
X38084Y12825D01*
X38240Y12889D01*
X38360Y13009D01*
X38425Y13165D01*
X38425Y13334D01*
X38361Y13490D01*
X38351Y13500D01*
X39094Y13500D01*
X39135Y13473D01*
X39250Y13450D01*
X39365Y13473D01*
X39405Y13500D01*
X42899Y13500D01*
X43009Y13390D01*
X43165Y13325D01*
X43334Y13325D01*
X43490Y13389D01*
X43610Y13509D01*
X43675Y13665D01*
X43675Y11387D01*
X43587Y11152D01*
X43596Y10884D01*
X43681Y10677D01*
X43789Y10634D01*
X44195Y11040D01*
X44195Y10898D01*
X43860Y10563D01*
X43903Y10455D01*
X44154Y10361D01*
X44422Y10370D01*
X44629Y10455D01*
X44672Y10563D01*
X44672Y9300D01*
X43000Y9300D01*
X42885Y9277D01*
X42788Y9212D01*
X41876Y8300D01*
X41659Y8300D01*
X41659Y10905D01*
X41659Y11174D01*
X41556Y11422D01*
X41367Y11612D01*
X41119Y11715D01*
X40850Y11715D01*
X40602Y11612D01*
X40412Y11423D01*
X40309Y11175D01*
X40309Y10906D01*
X40412Y10658D01*
X40601Y10468D01*
X40849Y10365D01*
X41118Y10365D01*
X41366Y10468D01*
X41556Y10657D01*
X41659Y10905D01*
X41659Y8300D01*
X40503Y8300D01*
X40492Y8328D01*
X40329Y8491D01*
X40308Y8500D01*
X40328Y8508D01*
X40491Y8671D01*
X40580Y8884D01*
X40580Y9115D01*
X40492Y9328D01*
X40329Y9491D01*
X40116Y9580D01*
X39885Y9580D01*
X39695Y9502D01*
X39695Y10928D01*
X39686Y11196D01*
X39601Y11403D01*
X39493Y11446D01*
X39422Y11375D01*
X39422Y11517D01*
X39379Y11625D01*
X39128Y11719D01*
X38860Y11710D01*
X38653Y11625D01*
X38610Y11517D01*
X39016Y11111D01*
X39422Y11517D01*
X39422Y11375D01*
X39087Y11040D01*
X39493Y10634D01*
X39601Y10677D01*
X39695Y10928D01*
X39695Y9502D01*
X39672Y9492D01*
X39509Y9329D01*
X39422Y9121D01*
X39422Y10563D01*
X39016Y10969D01*
X38945Y10898D01*
X38945Y11040D01*
X38539Y11446D01*
X38431Y11403D01*
X38337Y11152D01*
X38346Y10884D01*
X38431Y10677D01*
X38539Y10634D01*
X38945Y11040D01*
X38945Y10898D01*
X38610Y10563D01*
X38653Y10455D01*
X38904Y10361D01*
X39172Y10370D01*
X39379Y10455D01*
X39422Y10563D01*
X39422Y9121D01*
X39420Y9116D01*
X39420Y8885D01*
X39508Y8672D01*
X39671Y8509D01*
X39691Y8501D01*
X39672Y8492D01*
X39509Y8329D01*
X39420Y8116D01*
X39420Y7885D01*
X39508Y7672D01*
X39671Y7509D01*
X39884Y7420D01*
X40115Y7420D01*
X40328Y7508D01*
X40491Y7671D01*
X40503Y7700D01*
X42000Y7700D01*
X42115Y7723D01*
X42212Y7788D01*
X43124Y8700D01*
X44746Y8700D01*
X44758Y8672D01*
X44921Y8509D01*
X44943Y8500D01*
X44913Y8407D01*
X45250Y8071D01*
X45587Y8407D01*
X45556Y8500D01*
X45578Y8508D01*
X45741Y8671D01*
X45830Y8884D01*
X45830Y7981D01*
X45823Y8141D01*
X45755Y8305D01*
X45657Y8337D01*
X45321Y8000D01*
X45657Y7663D01*
X45755Y7695D01*
X45833Y7912D01*
X45833Y6789D01*
X45819Y6823D01*
X45711Y6866D01*
X45640Y6795D01*
X45640Y6937D01*
X45597Y7045D01*
X45587Y7049D01*
X45587Y7593D01*
X45250Y7929D01*
X45179Y7859D01*
X45179Y8000D01*
X44843Y8337D01*
X44745Y8305D01*
X44667Y8088D01*
X44677Y7859D01*
X44745Y7695D01*
X44843Y7663D01*
X45179Y8000D01*
X45179Y7859D01*
X44913Y7593D01*
X44945Y7495D01*
X45162Y7417D01*
X45391Y7427D01*
X45555Y7495D01*
X45587Y7593D01*
X45587Y7049D01*
X45346Y7139D01*
X45078Y7130D01*
X44871Y7045D01*
X44828Y6937D01*
X45234Y6531D01*
X45640Y6937D01*
X45640Y6795D01*
X45305Y6460D01*
X45711Y6054D01*
X45819Y6097D01*
X45913Y6348D01*
X45913Y1428D01*
X45904Y1696D01*
X45819Y1903D01*
X45711Y1946D01*
X45640Y1875D01*
X45640Y2017D01*
X45640Y5983D01*
X45234Y6389D01*
X45163Y6318D01*
X45163Y6460D01*
X44757Y6866D01*
X44649Y6823D01*
X44555Y6572D01*
X44564Y6304D01*
X44649Y6097D01*
X44757Y6054D01*
X45163Y6460D01*
X45163Y6318D01*
X44828Y5983D01*
X44871Y5875D01*
X45122Y5781D01*
X45390Y5790D01*
X45597Y5875D01*
X45640Y5983D01*
X45640Y2017D01*
X45597Y2125D01*
X45346Y2219D01*
X45078Y2210D01*
X44871Y2125D01*
X44828Y2017D01*
X45234Y1611D01*
X45640Y2017D01*
X45640Y1875D01*
X45305Y1540D01*
X45711Y1134D01*
X45819Y1177D01*
X45913Y1428D01*
X45913Y550D01*
X45640Y550D01*
X45640Y1063D01*
X45234Y1469D01*
X45163Y1398D01*
X45163Y1540D01*
X44757Y1946D01*
X44649Y1903D01*
X44555Y1652D01*
X44564Y1384D01*
X44649Y1177D01*
X44757Y1134D01*
X45163Y1540D01*
X45163Y1398D01*
X44828Y1063D01*
X44871Y955D01*
X45122Y861D01*
X45390Y870D01*
X45597Y955D01*
X45640Y1063D01*
X45640Y550D01*
X43941Y550D01*
X43941Y1405D01*
X43941Y1674D01*
X43941Y6325D01*
X43941Y6594D01*
X43838Y6842D01*
X43649Y7032D01*
X43401Y7135D01*
X43132Y7135D01*
X42884Y7032D01*
X42694Y6843D01*
X42591Y6595D01*
X42591Y6326D01*
X42694Y6078D01*
X42883Y5888D01*
X43131Y5785D01*
X43400Y5785D01*
X43648Y5888D01*
X43838Y6077D01*
X43941Y6325D01*
X43941Y1674D01*
X43838Y1922D01*
X43649Y2112D01*
X43401Y2215D01*
X43132Y2215D01*
X42884Y2112D01*
X42694Y1923D01*
X42591Y1675D01*
X42591Y1406D01*
X42694Y1158D01*
X42883Y968D01*
X43131Y865D01*
X43400Y865D01*
X43648Y968D01*
X43838Y1157D01*
X43941Y1405D01*
X43941Y550D01*
X40663Y550D01*
X40663Y1428D01*
X40663Y6348D01*
X40654Y6616D01*
X40569Y6823D01*
X40461Y6866D01*
X40390Y6795D01*
X40390Y6937D01*
X40347Y7045D01*
X40096Y7139D01*
X39828Y7130D01*
X39621Y7045D01*
X39578Y6937D01*
X39984Y6531D01*
X40390Y6937D01*
X40390Y6795D01*
X40055Y6460D01*
X40461Y6054D01*
X40569Y6097D01*
X40663Y6348D01*
X40663Y1428D01*
X40654Y1696D01*
X40569Y1903D01*
X40461Y1946D01*
X40390Y1875D01*
X40390Y2017D01*
X40390Y5983D01*
X39984Y6389D01*
X39913Y6318D01*
X39913Y6460D01*
X39507Y6866D01*
X39399Y6823D01*
X39305Y6572D01*
X39314Y6304D01*
X39399Y6097D01*
X39507Y6054D01*
X39913Y6460D01*
X39913Y6318D01*
X39578Y5983D01*
X39621Y5875D01*
X39872Y5781D01*
X40140Y5790D01*
X40347Y5875D01*
X40390Y5983D01*
X40390Y2017D01*
X40347Y2125D01*
X40096Y2219D01*
X39828Y2210D01*
X39621Y2125D01*
X39578Y2017D01*
X39984Y1611D01*
X40390Y2017D01*
X40390Y1875D01*
X40055Y1540D01*
X40461Y1134D01*
X40569Y1177D01*
X40663Y1428D01*
X40663Y550D01*
X40390Y550D01*
X40390Y1063D01*
X39984Y1469D01*
X39913Y1398D01*
X39913Y1540D01*
X39507Y1946D01*
X39399Y1903D01*
X39305Y1652D01*
X39314Y1384D01*
X39399Y1177D01*
X39507Y1134D01*
X39913Y1540D01*
X39913Y1398D01*
X39578Y1063D01*
X39621Y955D01*
X39872Y861D01*
X40140Y870D01*
X40347Y955D01*
X40390Y1063D01*
X40390Y550D01*
X38691Y550D01*
X38691Y1405D01*
X38691Y1674D01*
X38691Y6325D01*
X38691Y6594D01*
X38588Y6842D01*
X38399Y7032D01*
X38151Y7135D01*
X37882Y7135D01*
X37634Y7032D01*
X37444Y6843D01*
X37341Y6595D01*
X37341Y6326D01*
X37444Y6078D01*
X37633Y5888D01*
X37881Y5785D01*
X38150Y5785D01*
X38398Y5888D01*
X38588Y6077D01*
X38691Y6325D01*
X38691Y1674D01*
X38588Y1922D01*
X38399Y2112D01*
X38151Y2215D01*
X37882Y2215D01*
X37634Y2112D01*
X37444Y1923D01*
X37341Y1675D01*
X37341Y1406D01*
X37444Y1158D01*
X37633Y968D01*
X37881Y865D01*
X38150Y865D01*
X38398Y968D01*
X38588Y1157D01*
X38691Y1405D01*
X38691Y550D01*
X37053Y550D01*
X37053Y11419D01*
X37042Y11637D01*
X36980Y11786D01*
X36885Y11815D01*
X36571Y11500D01*
X36885Y11185D01*
X36980Y11214D01*
X37053Y11419D01*
X37053Y550D01*
X36815Y550D01*
X36815Y11115D01*
X36500Y11429D01*
X36429Y11359D01*
X36429Y11500D01*
X36115Y11815D01*
X36020Y11786D01*
X35947Y11581D01*
X35958Y11363D01*
X36020Y11214D01*
X36115Y11185D01*
X36429Y11500D01*
X36429Y11359D01*
X36185Y11115D01*
X36214Y11020D01*
X36419Y10947D01*
X36637Y10958D01*
X36786Y11020D01*
X36815Y11115D01*
X36815Y550D01*
X35603Y550D01*
X35603Y11406D01*
X35593Y11644D01*
X35521Y11817D01*
X35421Y11851D01*
X35071Y11500D01*
X35421Y11149D01*
X35521Y11183D01*
X35603Y11406D01*
X35603Y550D01*
X35413Y550D01*
X35413Y1428D01*
X35413Y6348D01*
X35404Y6616D01*
X35351Y6746D01*
X35351Y11079D01*
X35000Y11429D01*
X34929Y11359D01*
X34929Y11500D01*
X34579Y11851D01*
X34479Y11817D01*
X34397Y11594D01*
X34407Y11356D01*
X34479Y11183D01*
X34579Y11149D01*
X34929Y11500D01*
X34929Y11359D01*
X34649Y11079D01*
X34683Y10979D01*
X34906Y10897D01*
X35144Y10907D01*
X35317Y10979D01*
X35351Y11079D01*
X35351Y6746D01*
X35330Y6797D01*
X35330Y7884D01*
X35330Y8115D01*
X35242Y8328D01*
X35079Y8491D01*
X35058Y8500D01*
X35078Y8508D01*
X35241Y8671D01*
X35330Y8884D01*
X35330Y9115D01*
X35242Y9328D01*
X35079Y9491D01*
X34866Y9580D01*
X34635Y9580D01*
X34422Y9492D01*
X34259Y9329D01*
X34170Y9116D01*
X34170Y8885D01*
X34258Y8672D01*
X34421Y8509D01*
X34441Y8501D01*
X34422Y8492D01*
X34259Y8329D01*
X34246Y8300D01*
X33175Y8300D01*
X33175Y10165D01*
X33175Y10334D01*
X33111Y10490D01*
X32991Y10610D01*
X32835Y10675D01*
X32666Y10675D01*
X32510Y10611D01*
X32449Y10550D01*
X32250Y10550D01*
X29603Y10550D01*
X29603Y11406D01*
X29593Y11644D01*
X29521Y11817D01*
X29421Y11851D01*
X29071Y11500D01*
X29421Y11149D01*
X29521Y11183D01*
X29603Y11406D01*
X29603Y10550D01*
X29351Y10550D01*
X29351Y11079D01*
X29000Y11429D01*
X28929Y11359D01*
X28929Y11500D01*
X28579Y11851D01*
X28479Y11817D01*
X28397Y11594D01*
X28407Y11356D01*
X28479Y11183D01*
X28579Y11149D01*
X28929Y11500D01*
X28929Y11359D01*
X28649Y11079D01*
X28683Y10979D01*
X28906Y10897D01*
X29144Y10907D01*
X29317Y10979D01*
X29351Y11079D01*
X29351Y10550D01*
X25301Y10550D01*
X25241Y10610D01*
X25085Y10675D01*
X24916Y10675D01*
X24760Y10611D01*
X24640Y10491D01*
X24575Y10335D01*
X24575Y10166D01*
X24639Y10010D01*
X24759Y9890D01*
X24915Y9825D01*
X25084Y9825D01*
X25240Y9889D01*
X25301Y9950D01*
X32250Y9950D01*
X32449Y9950D01*
X32509Y9890D01*
X32665Y9825D01*
X32834Y9825D01*
X32990Y9889D01*
X33110Y10009D01*
X33175Y10165D01*
X33175Y8300D01*
X32374Y8300D01*
X31462Y9212D01*
X31365Y9277D01*
X31250Y9300D01*
X30003Y9300D01*
X29992Y9328D01*
X29829Y9491D01*
X29616Y9580D01*
X29385Y9580D01*
X29172Y9492D01*
X29009Y9329D01*
X28920Y9116D01*
X28920Y8885D01*
X29008Y8672D01*
X29171Y8509D01*
X29193Y8500D01*
X29163Y8407D01*
X29500Y8071D01*
X29837Y8407D01*
X29806Y8500D01*
X29828Y8508D01*
X29991Y8671D01*
X30003Y8700D01*
X31126Y8700D01*
X32038Y7788D01*
X32135Y7723D01*
X32250Y7700D01*
X34246Y7700D01*
X34258Y7672D01*
X34421Y7509D01*
X34634Y7420D01*
X34865Y7420D01*
X35078Y7508D01*
X35241Y7671D01*
X35330Y7884D01*
X35330Y6797D01*
X35319Y6823D01*
X35211Y6866D01*
X35140Y6795D01*
X35140Y6937D01*
X35097Y7045D01*
X34846Y7139D01*
X34578Y7130D01*
X34371Y7045D01*
X34328Y6937D01*
X34734Y6531D01*
X35140Y6937D01*
X35140Y6795D01*
X34805Y6460D01*
X35211Y6054D01*
X35319Y6097D01*
X35413Y6348D01*
X35413Y1428D01*
X35404Y1696D01*
X35319Y1903D01*
X35211Y1946D01*
X35140Y1875D01*
X35140Y2017D01*
X35140Y5983D01*
X34734Y6389D01*
X34663Y6318D01*
X34663Y6460D01*
X34257Y6866D01*
X34149Y6823D01*
X34055Y6572D01*
X34064Y6304D01*
X34149Y6097D01*
X34257Y6054D01*
X34663Y6460D01*
X34663Y6318D01*
X34328Y5983D01*
X34371Y5875D01*
X34622Y5781D01*
X34890Y5790D01*
X35097Y5875D01*
X35140Y5983D01*
X35140Y2017D01*
X35097Y2125D01*
X34846Y2219D01*
X34578Y2210D01*
X34371Y2125D01*
X34328Y2017D01*
X34734Y1611D01*
X35140Y2017D01*
X35140Y1875D01*
X34805Y1540D01*
X35211Y1134D01*
X35319Y1177D01*
X35413Y1428D01*
X35413Y550D01*
X35140Y550D01*
X35140Y1063D01*
X34734Y1469D01*
X34663Y1398D01*
X34663Y1540D01*
X34257Y1946D01*
X34149Y1903D01*
X34055Y1652D01*
X34064Y1384D01*
X34149Y1177D01*
X34257Y1134D01*
X34663Y1540D01*
X34663Y1398D01*
X34328Y1063D01*
X34371Y955D01*
X34622Y861D01*
X34890Y870D01*
X35097Y955D01*
X35140Y1063D01*
X35140Y550D01*
X33441Y550D01*
X33441Y1405D01*
X33441Y1674D01*
X33441Y6325D01*
X33441Y6594D01*
X33338Y6842D01*
X33149Y7032D01*
X32901Y7135D01*
X32632Y7135D01*
X32384Y7032D01*
X32194Y6843D01*
X32091Y6595D01*
X32091Y6326D01*
X32194Y6078D01*
X32383Y5888D01*
X32631Y5785D01*
X32900Y5785D01*
X33148Y5888D01*
X33338Y6077D01*
X33441Y6325D01*
X33441Y1674D01*
X33338Y1922D01*
X33149Y2112D01*
X32901Y2215D01*
X32632Y2215D01*
X32384Y2112D01*
X32194Y1923D01*
X32091Y1675D01*
X32091Y1406D01*
X32194Y1158D01*
X32383Y968D01*
X32631Y865D01*
X32900Y865D01*
X33148Y968D01*
X33338Y1157D01*
X33441Y1405D01*
X33441Y550D01*
X30163Y550D01*
X30163Y1428D01*
X30163Y6348D01*
X30154Y6616D01*
X30083Y6789D01*
X30083Y7912D01*
X30073Y8141D01*
X30005Y8305D01*
X29907Y8337D01*
X29571Y8000D01*
X29907Y7663D01*
X30005Y7695D01*
X30083Y7912D01*
X30083Y6789D01*
X30069Y6823D01*
X29961Y6866D01*
X29890Y6795D01*
X29890Y6937D01*
X29847Y7045D01*
X29837Y7049D01*
X29837Y7593D01*
X29500Y7929D01*
X29429Y7859D01*
X29429Y8000D01*
X29093Y8337D01*
X28995Y8305D01*
X28917Y8088D01*
X28927Y7859D01*
X28995Y7695D01*
X29093Y7663D01*
X29429Y8000D01*
X29429Y7859D01*
X29163Y7593D01*
X29195Y7495D01*
X29412Y7417D01*
X29641Y7427D01*
X29805Y7495D01*
X29837Y7593D01*
X29837Y7049D01*
X29596Y7139D01*
X29328Y7130D01*
X29121Y7045D01*
X29078Y6937D01*
X29484Y6531D01*
X29890Y6937D01*
X29890Y6795D01*
X29555Y6460D01*
X29961Y6054D01*
X30069Y6097D01*
X30163Y6348D01*
X30163Y1428D01*
X30154Y1696D01*
X30069Y1903D01*
X29961Y1946D01*
X29890Y1875D01*
X29890Y2017D01*
X29890Y5983D01*
X29484Y6389D01*
X29413Y6318D01*
X29413Y6460D01*
X29007Y6866D01*
X28899Y6823D01*
X28805Y6572D01*
X28814Y6304D01*
X28899Y6097D01*
X29007Y6054D01*
X29413Y6460D01*
X29413Y6318D01*
X29078Y5983D01*
X29121Y5875D01*
X29372Y5781D01*
X29640Y5790D01*
X29847Y5875D01*
X29890Y5983D01*
X29890Y2017D01*
X29847Y2125D01*
X29596Y2219D01*
X29328Y2210D01*
X29121Y2125D01*
X29078Y2017D01*
X29484Y1611D01*
X29890Y2017D01*
X29890Y1875D01*
X29555Y1540D01*
X29961Y1134D01*
X30069Y1177D01*
X30163Y1428D01*
X30163Y550D01*
X29890Y550D01*
X29890Y1063D01*
X29484Y1469D01*
X29413Y1398D01*
X29413Y1540D01*
X29007Y1946D01*
X28899Y1903D01*
X28805Y1652D01*
X28814Y1384D01*
X28899Y1177D01*
X29007Y1134D01*
X29413Y1540D01*
X29413Y1398D01*
X29078Y1063D01*
X29121Y955D01*
X29372Y861D01*
X29640Y870D01*
X29847Y955D01*
X29890Y1063D01*
X29890Y550D01*
X28191Y550D01*
X28191Y1405D01*
X28191Y1674D01*
X28191Y6325D01*
X28191Y6594D01*
X28088Y6842D01*
X27899Y7032D01*
X27651Y7135D01*
X27382Y7135D01*
X27134Y7032D01*
X26944Y6843D01*
X26841Y6595D01*
X26841Y6326D01*
X26944Y6078D01*
X27133Y5888D01*
X27381Y5785D01*
X27650Y5785D01*
X27898Y5888D01*
X28088Y6077D01*
X28191Y6325D01*
X28191Y1674D01*
X28088Y1922D01*
X27925Y2086D01*
X27925Y3165D01*
X27925Y3334D01*
X27861Y3490D01*
X27741Y3610D01*
X27585Y3675D01*
X27416Y3675D01*
X27260Y3611D01*
X27199Y3550D01*
X27000Y3550D01*
X24913Y3550D01*
X24913Y6348D01*
X24904Y6616D01*
X24830Y6797D01*
X24830Y7884D01*
X24830Y8115D01*
X24742Y8328D01*
X24579Y8491D01*
X24558Y8500D01*
X24578Y8508D01*
X24741Y8671D01*
X24830Y8884D01*
X24830Y9115D01*
X24742Y9328D01*
X24579Y9491D01*
X24366Y9580D01*
X24135Y9580D01*
X24030Y9537D01*
X24030Y10424D01*
X24025Y10511D01*
X24025Y11395D01*
X24025Y11604D01*
X23945Y11797D01*
X23798Y11945D01*
X23605Y12025D01*
X23396Y12025D01*
X23203Y11945D01*
X23055Y11798D01*
X22975Y11605D01*
X22975Y11396D01*
X23055Y11203D01*
X23202Y11055D01*
X23329Y11003D01*
X23228Y10960D01*
X23203Y10868D01*
X23500Y10571D01*
X23797Y10868D01*
X23772Y10960D01*
X23662Y11000D01*
X23797Y11055D01*
X23945Y11202D01*
X24025Y11395D01*
X24025Y10511D01*
X24018Y10632D01*
X23960Y10772D01*
X23868Y10797D01*
X23571Y10500D01*
X23868Y10203D01*
X23960Y10228D01*
X24030Y10424D01*
X24030Y9537D01*
X23922Y9492D01*
X23797Y9367D01*
X23797Y10132D01*
X23500Y10429D01*
X23429Y10358D01*
X23429Y10500D01*
X23132Y10797D01*
X23040Y10772D01*
X22970Y10576D01*
X22982Y10368D01*
X23040Y10228D01*
X23132Y10203D01*
X23429Y10500D01*
X23429Y10358D01*
X23203Y10132D01*
X23228Y10040D01*
X23424Y9970D01*
X23632Y9982D01*
X23772Y10040D01*
X23797Y10132D01*
X23797Y9367D01*
X23759Y9329D01*
X23670Y9116D01*
X23670Y8885D01*
X23758Y8672D01*
X23921Y8509D01*
X23941Y8501D01*
X23922Y8492D01*
X23759Y8329D01*
X23746Y8300D01*
X22530Y8300D01*
X22530Y10424D01*
X22525Y10511D01*
X22525Y11395D01*
X22525Y11604D01*
X22445Y11797D01*
X22298Y11945D01*
X22105Y12025D01*
X21896Y12025D01*
X21703Y11945D01*
X21555Y11798D01*
X21475Y11605D01*
X21475Y11396D01*
X21555Y11203D01*
X21702Y11055D01*
X21829Y11003D01*
X21728Y10960D01*
X21703Y10868D01*
X22000Y10571D01*
X22297Y10868D01*
X22272Y10960D01*
X22162Y11000D01*
X22297Y11055D01*
X22445Y11202D01*
X22525Y11395D01*
X22525Y10511D01*
X22518Y10632D01*
X22460Y10772D01*
X22368Y10797D01*
X22071Y10500D01*
X22368Y10203D01*
X22460Y10228D01*
X22530Y10424D01*
X22530Y8300D01*
X22297Y8300D01*
X22297Y10132D01*
X22000Y10429D01*
X21929Y10358D01*
X21929Y10500D01*
X21632Y10797D01*
X21540Y10772D01*
X21470Y10576D01*
X21482Y10368D01*
X21540Y10228D01*
X21632Y10203D01*
X21929Y10500D01*
X21929Y10358D01*
X21703Y10132D01*
X21728Y10040D01*
X21924Y9970D01*
X22132Y9982D01*
X22272Y10040D01*
X22297Y10132D01*
X22297Y8300D01*
X21624Y8300D01*
X21030Y8894D01*
X21030Y11424D01*
X21018Y11632D01*
X20960Y11772D01*
X20868Y11797D01*
X20797Y11726D01*
X20797Y11868D01*
X20772Y11960D01*
X20576Y12030D01*
X20368Y12018D01*
X20228Y11960D01*
X20203Y11868D01*
X20500Y11571D01*
X20797Y11868D01*
X20797Y11726D01*
X20571Y11500D01*
X20868Y11203D01*
X20960Y11228D01*
X21030Y11424D01*
X21030Y8894D01*
X21025Y8899D01*
X21025Y10395D01*
X21025Y10604D01*
X20945Y10797D01*
X20798Y10945D01*
X20670Y10998D01*
X20772Y11040D01*
X20797Y11132D01*
X20500Y11429D01*
X20429Y11358D01*
X20429Y11500D01*
X20132Y11797D01*
X20040Y11772D01*
X19970Y11576D01*
X19982Y11368D01*
X20040Y11228D01*
X20132Y11203D01*
X20429Y11500D01*
X20429Y11358D01*
X20203Y11132D01*
X20228Y11040D01*
X20337Y11001D01*
X20203Y10945D01*
X20055Y10798D01*
X19975Y10605D01*
X19975Y10396D01*
X20055Y10203D01*
X20202Y10055D01*
X20395Y9975D01*
X20604Y9975D01*
X20797Y10055D01*
X20945Y10202D01*
X21025Y10395D01*
X21025Y8899D01*
X20712Y9212D01*
X20615Y9277D01*
X20500Y9300D01*
X19503Y9300D01*
X19492Y9328D01*
X19329Y9491D01*
X19116Y9580D01*
X18885Y9580D01*
X18672Y9492D01*
X18509Y9329D01*
X18496Y9300D01*
X16124Y9300D01*
X16030Y9394D01*
X16030Y11424D01*
X16030Y13424D01*
X16018Y13632D01*
X15960Y13772D01*
X15868Y13797D01*
X15797Y13726D01*
X15797Y13868D01*
X15772Y13960D01*
X15576Y14030D01*
X15368Y14018D01*
X15228Y13960D01*
X15203Y13868D01*
X15500Y13571D01*
X15797Y13868D01*
X15797Y13726D01*
X15571Y13500D01*
X15868Y13203D01*
X15960Y13228D01*
X16030Y13424D01*
X16030Y11424D01*
X16018Y11632D01*
X15960Y11772D01*
X15868Y11797D01*
X15571Y11500D01*
X15868Y11203D01*
X15960Y11228D01*
X16030Y11424D01*
X16030Y9394D01*
X15462Y9962D01*
X15442Y9975D01*
X15604Y9975D01*
X15797Y10055D01*
X15945Y10202D01*
X16025Y10395D01*
X16025Y10604D01*
X15945Y10797D01*
X15798Y10945D01*
X15670Y10998D01*
X15772Y11040D01*
X15797Y11132D01*
X15500Y11429D01*
X15429Y11358D01*
X15429Y11500D01*
X15132Y11797D01*
X15040Y11772D01*
X14970Y11576D01*
X14982Y11368D01*
X15040Y11228D01*
X15132Y11203D01*
X15429Y11500D01*
X15429Y11358D01*
X15203Y11132D01*
X15228Y11040D01*
X15337Y11001D01*
X15203Y10945D01*
X15055Y10798D01*
X14975Y10605D01*
X14975Y10396D01*
X15055Y10203D01*
X15202Y10055D01*
X15214Y10050D01*
X14530Y10050D01*
X14530Y11424D01*
X14518Y11632D01*
X14460Y11772D01*
X14368Y11797D01*
X14071Y11500D01*
X14368Y11203D01*
X14460Y11228D01*
X14530Y11424D01*
X14530Y10050D01*
X14284Y10050D01*
X14297Y10055D01*
X14445Y10202D01*
X14525Y10395D01*
X14525Y10604D01*
X14445Y10797D01*
X14298Y10945D01*
X14170Y10998D01*
X14272Y11040D01*
X14297Y11132D01*
X14035Y11394D01*
X14000Y11429D01*
X13929Y11500D01*
X13894Y11535D01*
X13632Y11797D01*
X13540Y11772D01*
X13470Y11576D01*
X13477Y11447D01*
X13387Y11537D01*
X13387Y11950D01*
X13725Y11950D01*
X13703Y11868D01*
X14000Y11571D01*
X14297Y11868D01*
X14274Y11950D01*
X15000Y11950D01*
X15115Y11973D01*
X15212Y12038D01*
X15221Y12048D01*
X15329Y12003D01*
X15228Y11960D01*
X15203Y11868D01*
X15500Y11571D01*
X15797Y11868D01*
X15772Y11960D01*
X15662Y12000D01*
X15797Y12055D01*
X15945Y12202D01*
X16025Y12395D01*
X16025Y12604D01*
X15945Y12797D01*
X15798Y12945D01*
X15670Y12998D01*
X15772Y13040D01*
X15797Y13132D01*
X15500Y13429D01*
X15429Y13358D01*
X15429Y13500D01*
X15132Y13797D01*
X15040Y13772D01*
X14970Y13576D01*
X14982Y13368D01*
X15040Y13228D01*
X15132Y13203D01*
X15429Y13500D01*
X15429Y13358D01*
X15203Y13132D01*
X15228Y13040D01*
X15337Y13001D01*
X15203Y12945D01*
X15055Y12798D01*
X15006Y12682D01*
X14875Y12550D01*
X14530Y12550D01*
X14530Y12924D01*
X14518Y13132D01*
X14460Y13272D01*
X14368Y13297D01*
X14071Y13000D01*
X14368Y12703D01*
X14460Y12728D01*
X14530Y12924D01*
X14530Y12550D01*
X14274Y12550D01*
X14297Y12632D01*
X14000Y12929D01*
X13929Y12858D01*
X13929Y13000D01*
X13632Y13297D01*
X13540Y13272D01*
X13470Y13076D01*
X13482Y12868D01*
X13540Y12728D01*
X13632Y12703D01*
X13929Y13000D01*
X13929Y12858D01*
X13703Y12632D01*
X13725Y12550D01*
X13087Y12550D01*
X13049Y12550D01*
X13049Y13891D01*
X13049Y14109D01*
X12965Y14311D01*
X12811Y14465D01*
X12609Y14549D01*
X12391Y14549D01*
X12189Y14465D01*
X12035Y14311D01*
X11951Y14109D01*
X11951Y13891D01*
X12035Y13689D01*
X12189Y13535D01*
X12391Y13451D01*
X12609Y13451D01*
X12811Y13535D01*
X12965Y13689D01*
X13049Y13891D01*
X13049Y12550D01*
X12801Y12550D01*
X12741Y12610D01*
X12585Y12675D01*
X12416Y12675D01*
X12260Y12611D01*
X12140Y12491D01*
X12075Y12335D01*
X12075Y12166D01*
X12139Y12010D01*
X12259Y11890D01*
X12415Y11825D01*
X12584Y11825D01*
X12740Y11889D01*
X12787Y11936D01*
X12787Y11413D01*
X12794Y11376D01*
X12760Y11361D01*
X12699Y11300D01*
X11549Y11300D01*
X11549Y13891D01*
X11549Y14109D01*
X11465Y14311D01*
X11311Y14465D01*
X11109Y14549D01*
X10891Y14549D01*
X10689Y14465D01*
X10535Y14311D01*
X10451Y14109D01*
X10451Y13891D01*
X10535Y13689D01*
X10689Y13535D01*
X10891Y13451D01*
X11109Y13451D01*
X11311Y13535D01*
X11465Y13689D01*
X11549Y13891D01*
X11549Y11300D01*
X11301Y11300D01*
X11241Y11360D01*
X11085Y11425D01*
X10916Y11425D01*
X10760Y11361D01*
X10640Y11241D01*
X10575Y11085D01*
X10575Y10916D01*
X10621Y10803D01*
X10291Y11133D01*
X10194Y11198D01*
X10079Y11221D01*
X9279Y11221D01*
X9164Y11198D01*
X9067Y11133D01*
X9066Y11133D01*
X9066Y11132D01*
X6520Y8587D01*
X6518Y8632D01*
X6460Y8772D01*
X6368Y8797D01*
X6106Y8535D01*
X6071Y8500D01*
X6000Y8429D01*
X5929Y8500D01*
X6000Y8571D01*
X6035Y8606D01*
X6297Y8868D01*
X6272Y8960D01*
X6162Y9000D01*
X6297Y9055D01*
X6445Y9202D01*
X6525Y9395D01*
X6525Y9601D01*
X8212Y11288D01*
X8277Y11385D01*
X8300Y11500D01*
X8300Y11502D01*
X8325Y11512D01*
X8487Y11674D01*
X8575Y11885D01*
X8575Y12114D01*
X8488Y12325D01*
X8383Y12430D01*
X8466Y12464D01*
X8536Y12534D01*
X8574Y12625D01*
X8574Y12724D01*
X8574Y13374D01*
X8536Y13466D01*
X8466Y13536D01*
X8375Y13574D01*
X8276Y13574D01*
X7626Y13574D01*
X7534Y13536D01*
X7464Y13466D01*
X7426Y13375D01*
X7426Y13286D01*
X7385Y13277D01*
X7287Y13212D01*
X7053Y12978D01*
X7053Y18919D01*
X7042Y19137D01*
X6980Y19286D01*
X6885Y19315D01*
X6571Y19000D01*
X6885Y18685D01*
X6980Y18714D01*
X7053Y18919D01*
X7053Y12978D01*
X7049Y12974D01*
X7049Y14891D01*
X7049Y15109D01*
X6965Y15311D01*
X6815Y15461D01*
X6815Y18615D01*
X6500Y18929D01*
X6429Y18859D01*
X6429Y19000D01*
X6115Y19315D01*
X6020Y19286D01*
X5947Y19081D01*
X5958Y18863D01*
X6020Y18714D01*
X6115Y18685D01*
X6429Y19000D01*
X6429Y18859D01*
X6185Y18615D01*
X6214Y18520D01*
X6419Y18447D01*
X6637Y18458D01*
X6786Y18520D01*
X6815Y18615D01*
X6815Y15461D01*
X6811Y15465D01*
X6609Y15549D01*
X6391Y15549D01*
X6189Y15465D01*
X6035Y15311D01*
X5951Y15109D01*
X5951Y14891D01*
X6035Y14689D01*
X6189Y14535D01*
X6391Y14451D01*
X6609Y14451D01*
X6811Y14535D01*
X6965Y14689D01*
X7049Y14891D01*
X7049Y12974D01*
X5553Y11478D01*
X5553Y15419D01*
X5542Y15637D01*
X5480Y15786D01*
X5385Y15815D01*
X5315Y15745D01*
X5315Y15885D01*
X5286Y15980D01*
X5081Y16053D01*
X4863Y16042D01*
X4714Y15980D01*
X4685Y15885D01*
X5000Y15571D01*
X5315Y15885D01*
X5315Y15745D01*
X5071Y15500D01*
X5385Y15185D01*
X5480Y15214D01*
X5553Y15419D01*
X5553Y11478D01*
X5315Y11240D01*
X5315Y15115D01*
X5000Y15429D01*
X4929Y15359D01*
X4929Y15500D01*
X4615Y15815D01*
X4520Y15786D01*
X4447Y15581D01*
X4458Y15363D01*
X4520Y15214D01*
X4615Y15185D01*
X4929Y15500D01*
X4929Y15359D01*
X4685Y15115D01*
X4714Y15020D01*
X4919Y14947D01*
X5137Y14958D01*
X5286Y15020D01*
X5315Y15115D01*
X5315Y11240D01*
X5024Y10949D01*
X5024Y12175D01*
X5024Y12274D01*
X5024Y12824D01*
X4986Y12916D01*
X4916Y12986D01*
X4825Y13024D01*
X4726Y13024D01*
X4176Y13024D01*
X4084Y12986D01*
X4014Y12916D01*
X3976Y12825D01*
X3976Y12726D01*
X3976Y12723D01*
X3945Y12797D01*
X3798Y12945D01*
X3605Y13025D01*
X3396Y13025D01*
X3203Y12945D01*
X3055Y12798D01*
X2999Y12665D01*
X2945Y12797D01*
X2798Y12945D01*
X2605Y13025D01*
X2396Y13025D01*
X2203Y12945D01*
X2055Y12798D01*
X2002Y12671D01*
X1960Y12772D01*
X1868Y12797D01*
X1797Y12726D01*
X1797Y12868D01*
X1772Y12960D01*
X1576Y13030D01*
X1368Y13018D01*
X1228Y12960D01*
X1203Y12868D01*
X1500Y12571D01*
X1797Y12868D01*
X1797Y12726D01*
X1571Y12500D01*
X1868Y12203D01*
X1960Y12228D01*
X1999Y12338D01*
X2055Y12203D01*
X2202Y12055D01*
X2395Y11975D01*
X2604Y11975D01*
X2797Y12055D01*
X2945Y12202D01*
X3000Y12336D01*
X3055Y12203D01*
X3202Y12055D01*
X3395Y11975D01*
X3604Y11975D01*
X3797Y12055D01*
X3945Y12202D01*
X3976Y12277D01*
X3976Y12176D01*
X4014Y12084D01*
X4084Y12014D01*
X4175Y11976D01*
X4274Y11976D01*
X4824Y11976D01*
X4916Y12014D01*
X4986Y12084D01*
X5024Y12175D01*
X5024Y10949D01*
X4288Y10212D01*
X4223Y10115D01*
X4200Y10000D01*
X4200Y9943D01*
X4055Y9798D01*
X3999Y9665D01*
X3945Y9797D01*
X3798Y9945D01*
X3605Y10025D01*
X3396Y10025D01*
X3203Y9945D01*
X3055Y9798D01*
X3002Y9671D01*
X2960Y9772D01*
X2868Y9797D01*
X2797Y9726D01*
X2797Y9868D01*
X2772Y9960D01*
X2576Y10030D01*
X2368Y10018D01*
X2228Y9960D01*
X2203Y9868D01*
X2500Y9571D01*
X2797Y9868D01*
X2797Y9726D01*
X2606Y9535D01*
X2571Y9500D01*
X2500Y9429D01*
X2429Y9500D01*
X2394Y9535D01*
X2132Y9797D01*
X2040Y9772D01*
X2000Y9663D01*
X1945Y9797D01*
X1798Y9945D01*
X1797Y9946D01*
X1797Y12132D01*
X1500Y12429D01*
X1429Y12358D01*
X1429Y12500D01*
X1132Y12797D01*
X1040Y12772D01*
X970Y12576D01*
X982Y12368D01*
X1040Y12228D01*
X1132Y12203D01*
X1429Y12500D01*
X1429Y12358D01*
X1203Y12132D01*
X1228Y12040D01*
X1424Y11970D01*
X1632Y11982D01*
X1772Y12040D01*
X1797Y12132D01*
X1797Y9946D01*
X1605Y10025D01*
X1396Y10025D01*
X1203Y9945D01*
X1055Y9798D01*
X975Y9605D01*
X975Y9396D01*
X1055Y9203D01*
X1200Y9058D01*
X1200Y9000D01*
X1223Y8885D01*
X1288Y8788D01*
X1385Y8723D01*
X1500Y8700D01*
X5500Y8700D01*
X5515Y8704D01*
X5470Y8576D01*
X5482Y8368D01*
X5510Y8300D01*
X4942Y8300D01*
X4798Y8445D01*
X4605Y8525D01*
X4396Y8525D01*
X4203Y8445D01*
X4055Y8298D01*
X3975Y8105D01*
X3975Y7896D01*
X4055Y7703D01*
X4202Y7555D01*
X4329Y7503D01*
X4228Y7460D01*
X4203Y7368D01*
X4500Y7071D01*
X4797Y7368D01*
X4772Y7460D01*
X4662Y7500D01*
X4797Y7555D01*
X4942Y7700D01*
X6358Y7700D01*
X6473Y7723D01*
X6570Y7788D01*
X7935Y9154D01*
X7920Y9116D01*
X7920Y8885D01*
X8008Y8672D01*
X8171Y8509D01*
X8191Y8501D01*
X8172Y8492D01*
X8009Y8329D01*
X7920Y8116D01*
X7920Y7885D01*
X8008Y7672D01*
X8171Y7509D01*
X8384Y7420D01*
X8615Y7420D01*
X8828Y7508D01*
X8991Y7671D01*
X9003Y7700D01*
X12000Y7700D01*
X12115Y7723D01*
X12212Y7788D01*
X13124Y8700D01*
X13246Y8700D01*
X13258Y8672D01*
X13421Y8509D01*
X13443Y8500D01*
X13413Y8407D01*
X13750Y8071D01*
X14087Y8407D01*
X14056Y8500D01*
X14078Y8508D01*
X14241Y8671D01*
X14330Y8884D01*
X14330Y9115D01*
X14242Y9328D01*
X14120Y9450D01*
X15125Y9450D01*
X15787Y8788D01*
X15788Y8788D01*
X15885Y8723D01*
X16000Y8700D01*
X18496Y8700D01*
X18508Y8672D01*
X18671Y8509D01*
X18693Y8500D01*
X18663Y8407D01*
X19000Y8071D01*
X19337Y8407D01*
X19306Y8500D01*
X19328Y8508D01*
X19491Y8671D01*
X19503Y8700D01*
X20376Y8700D01*
X21288Y7788D01*
X21385Y7723D01*
X21500Y7700D01*
X23746Y7700D01*
X23758Y7672D01*
X23921Y7509D01*
X24134Y7420D01*
X24365Y7420D01*
X24578Y7508D01*
X24741Y7671D01*
X24830Y7884D01*
X24830Y6797D01*
X24819Y6823D01*
X24711Y6866D01*
X24640Y6795D01*
X24640Y6937D01*
X24597Y7045D01*
X24346Y7139D01*
X24078Y7130D01*
X23871Y7045D01*
X23828Y6937D01*
X24234Y6531D01*
X24640Y6937D01*
X24640Y6795D01*
X24305Y6460D01*
X24711Y6054D01*
X24819Y6097D01*
X24913Y6348D01*
X24913Y3550D01*
X24640Y3550D01*
X24640Y5983D01*
X24234Y6389D01*
X24163Y6318D01*
X24163Y6460D01*
X23757Y6866D01*
X23649Y6823D01*
X23555Y6572D01*
X23564Y6304D01*
X23649Y6097D01*
X23757Y6054D01*
X24163Y6460D01*
X24163Y6318D01*
X23828Y5983D01*
X23871Y5875D01*
X24122Y5781D01*
X24390Y5790D01*
X24597Y5875D01*
X24640Y5983D01*
X24640Y3550D01*
X23425Y3550D01*
X23425Y3915D01*
X23425Y4084D01*
X23361Y4240D01*
X23241Y4360D01*
X23085Y4425D01*
X22941Y4425D01*
X22941Y6325D01*
X22941Y6594D01*
X22838Y6842D01*
X22649Y7032D01*
X22401Y7135D01*
X22132Y7135D01*
X21884Y7032D01*
X21694Y6843D01*
X21591Y6595D01*
X21591Y6326D01*
X21694Y6078D01*
X21883Y5888D01*
X22131Y5785D01*
X22400Y5785D01*
X22648Y5888D01*
X22838Y6077D01*
X22941Y6325D01*
X22941Y4425D01*
X22916Y4425D01*
X22760Y4361D01*
X22699Y4300D01*
X22675Y4300D01*
X22675Y4665D01*
X22675Y4834D01*
X22611Y4990D01*
X22491Y5110D01*
X22335Y5175D01*
X22166Y5175D01*
X22010Y5111D01*
X21949Y5050D01*
X20500Y5050D01*
X19663Y5050D01*
X19663Y6348D01*
X19654Y6616D01*
X19583Y6789D01*
X19583Y7912D01*
X19573Y8141D01*
X19505Y8305D01*
X19407Y8337D01*
X19071Y8000D01*
X19407Y7663D01*
X19505Y7695D01*
X19583Y7912D01*
X19583Y6789D01*
X19569Y6823D01*
X19461Y6866D01*
X19390Y6795D01*
X19390Y6937D01*
X19347Y7045D01*
X19337Y7049D01*
X19337Y7593D01*
X19000Y7929D01*
X18929Y7859D01*
X18929Y8000D01*
X18593Y8337D01*
X18495Y8305D01*
X18417Y8088D01*
X18427Y7859D01*
X18495Y7695D01*
X18593Y7663D01*
X18929Y8000D01*
X18929Y7859D01*
X18663Y7593D01*
X18695Y7495D01*
X18912Y7417D01*
X19141Y7427D01*
X19305Y7495D01*
X19337Y7593D01*
X19337Y7049D01*
X19096Y7139D01*
X18828Y7130D01*
X18621Y7045D01*
X18578Y6937D01*
X18984Y6531D01*
X19390Y6937D01*
X19390Y6795D01*
X19055Y6460D01*
X19461Y6054D01*
X19569Y6097D01*
X19663Y6348D01*
X19663Y5050D01*
X19390Y5050D01*
X19390Y5983D01*
X18984Y6389D01*
X18913Y6318D01*
X18913Y6460D01*
X18507Y6866D01*
X18399Y6823D01*
X18305Y6572D01*
X18314Y6304D01*
X18399Y6097D01*
X18507Y6054D01*
X18913Y6460D01*
X18913Y6318D01*
X18578Y5983D01*
X18621Y5875D01*
X18872Y5781D01*
X19140Y5790D01*
X19347Y5875D01*
X19390Y5983D01*
X19390Y5050D01*
X17691Y5050D01*
X17691Y6325D01*
X17691Y6594D01*
X17588Y6842D01*
X17399Y7032D01*
X17151Y7135D01*
X16882Y7135D01*
X16634Y7032D01*
X16444Y6843D01*
X16341Y6595D01*
X16341Y6326D01*
X16444Y6078D01*
X16633Y5888D01*
X16881Y5785D01*
X17150Y5785D01*
X17398Y5888D01*
X17588Y6077D01*
X17691Y6325D01*
X17691Y5050D01*
X16551Y5050D01*
X16491Y5110D01*
X16335Y5175D01*
X16166Y5175D01*
X16010Y5111D01*
X15890Y4991D01*
X15825Y4835D01*
X15825Y4666D01*
X15889Y4510D01*
X16009Y4390D01*
X16165Y4325D01*
X16334Y4325D01*
X16490Y4389D01*
X16551Y4450D01*
X20500Y4450D01*
X21949Y4450D01*
X22009Y4390D01*
X22165Y4325D01*
X22334Y4325D01*
X22490Y4389D01*
X22610Y4509D01*
X22675Y4665D01*
X22675Y4300D01*
X14413Y4300D01*
X14413Y6348D01*
X14404Y6616D01*
X14333Y6789D01*
X14333Y7912D01*
X14323Y8141D01*
X14255Y8305D01*
X14157Y8337D01*
X13821Y8000D01*
X14157Y7663D01*
X14255Y7695D01*
X14333Y7912D01*
X14333Y6789D01*
X14319Y6823D01*
X14211Y6866D01*
X14140Y6795D01*
X14140Y6937D01*
X14097Y7045D01*
X14087Y7049D01*
X14087Y7593D01*
X13750Y7929D01*
X13679Y7859D01*
X13679Y8000D01*
X13343Y8337D01*
X13245Y8305D01*
X13167Y8088D01*
X13177Y7859D01*
X13245Y7695D01*
X13343Y7663D01*
X13679Y8000D01*
X13679Y7859D01*
X13413Y7593D01*
X13445Y7495D01*
X13662Y7417D01*
X13891Y7427D01*
X14055Y7495D01*
X14087Y7593D01*
X14087Y7049D01*
X13846Y7139D01*
X13578Y7130D01*
X13371Y7045D01*
X13328Y6937D01*
X13734Y6531D01*
X14140Y6937D01*
X14140Y6795D01*
X13805Y6460D01*
X14211Y6054D01*
X14319Y6097D01*
X14413Y6348D01*
X14413Y4300D01*
X14140Y4300D01*
X14140Y5983D01*
X13734Y6389D01*
X13663Y6318D01*
X13663Y6460D01*
X13257Y6866D01*
X13149Y6823D01*
X13055Y6572D01*
X13064Y6304D01*
X13149Y6097D01*
X13257Y6054D01*
X13663Y6460D01*
X13663Y6318D01*
X13328Y5983D01*
X13371Y5875D01*
X13622Y5781D01*
X13890Y5790D01*
X14097Y5875D01*
X14140Y5983D01*
X14140Y4300D01*
X12441Y4300D01*
X12441Y6325D01*
X12441Y6594D01*
X12338Y6842D01*
X12149Y7032D01*
X11901Y7135D01*
X11632Y7135D01*
X11384Y7032D01*
X11194Y6843D01*
X11091Y6595D01*
X11091Y6326D01*
X11194Y6078D01*
X11383Y5888D01*
X11631Y5785D01*
X11900Y5785D01*
X12148Y5888D01*
X12338Y6077D01*
X12441Y6325D01*
X12441Y4300D01*
X9163Y4300D01*
X9163Y6348D01*
X9154Y6616D01*
X9069Y6823D01*
X8961Y6866D01*
X8890Y6795D01*
X8890Y6937D01*
X8847Y7045D01*
X8596Y7139D01*
X8328Y7130D01*
X8121Y7045D01*
X8078Y6937D01*
X8484Y6531D01*
X8890Y6937D01*
X8890Y6795D01*
X8555Y6460D01*
X8961Y6054D01*
X9069Y6097D01*
X9163Y6348D01*
X9163Y4300D01*
X8890Y4300D01*
X8890Y5983D01*
X8484Y6389D01*
X8413Y6318D01*
X8413Y6460D01*
X8007Y6866D01*
X7899Y6823D01*
X7805Y6572D01*
X7814Y6304D01*
X7899Y6097D01*
X8007Y6054D01*
X8413Y6460D01*
X8413Y6318D01*
X8078Y5983D01*
X8121Y5875D01*
X8372Y5781D01*
X8640Y5790D01*
X8847Y5875D01*
X8890Y5983D01*
X8890Y4300D01*
X7801Y4300D01*
X7741Y4360D01*
X7585Y4425D01*
X7416Y4425D01*
X7260Y4361D01*
X7191Y4292D01*
X7191Y6325D01*
X7191Y6594D01*
X7088Y6842D01*
X6899Y7032D01*
X6651Y7135D01*
X6382Y7135D01*
X6134Y7032D01*
X5944Y6843D01*
X5841Y6595D01*
X5841Y6326D01*
X5944Y6078D01*
X6133Y5888D01*
X6381Y5785D01*
X6650Y5785D01*
X6898Y5888D01*
X7088Y6077D01*
X7191Y6325D01*
X7191Y4292D01*
X7140Y4241D01*
X7075Y4085D01*
X7075Y3916D01*
X7139Y3760D01*
X7259Y3640D01*
X7415Y3575D01*
X7584Y3575D01*
X7740Y3639D01*
X7801Y3700D01*
X22699Y3700D01*
X22759Y3640D01*
X22915Y3575D01*
X23084Y3575D01*
X23240Y3639D01*
X23360Y3759D01*
X23425Y3915D01*
X23425Y3550D01*
X21551Y3550D01*
X21491Y3610D01*
X21335Y3675D01*
X21166Y3675D01*
X21010Y3611D01*
X20890Y3491D01*
X20825Y3335D01*
X20825Y3166D01*
X20889Y3010D01*
X21009Y2890D01*
X21165Y2825D01*
X21334Y2825D01*
X21490Y2889D01*
X21551Y2950D01*
X27000Y2950D01*
X27199Y2950D01*
X27259Y2890D01*
X27415Y2825D01*
X27584Y2825D01*
X27740Y2889D01*
X27860Y3009D01*
X27925Y3165D01*
X27925Y2086D01*
X27899Y2112D01*
X27651Y2215D01*
X27382Y2215D01*
X27134Y2112D01*
X26944Y1923D01*
X26841Y1675D01*
X26841Y1406D01*
X26944Y1158D01*
X27133Y968D01*
X27381Y865D01*
X27650Y865D01*
X27898Y968D01*
X28088Y1157D01*
X28191Y1405D01*
X28191Y550D01*
X26675Y550D01*
X26675Y2415D01*
X26675Y2584D01*
X26611Y2740D01*
X26491Y2860D01*
X26335Y2925D01*
X26166Y2925D01*
X26010Y2861D01*
X25949Y2800D01*
X25750Y2800D01*
X17301Y2800D01*
X17241Y2860D01*
X17085Y2925D01*
X16916Y2925D01*
X16760Y2861D01*
X16640Y2741D01*
X16575Y2585D01*
X16575Y2416D01*
X16639Y2260D01*
X16742Y2157D01*
X16634Y2112D01*
X16444Y1923D01*
X16341Y1675D01*
X16341Y1406D01*
X16444Y1158D01*
X16633Y968D01*
X16881Y865D01*
X17150Y865D01*
X17398Y968D01*
X17588Y1157D01*
X17691Y1405D01*
X17691Y1674D01*
X17588Y1922D01*
X17399Y2112D01*
X17267Y2167D01*
X17301Y2200D01*
X18803Y2200D01*
X18621Y2125D01*
X18578Y2017D01*
X18984Y1611D01*
X19390Y2017D01*
X19347Y2125D01*
X19146Y2200D01*
X22095Y2200D01*
X21884Y2112D01*
X21694Y1923D01*
X21591Y1675D01*
X21591Y1406D01*
X21694Y1158D01*
X21883Y968D01*
X22131Y865D01*
X22400Y865D01*
X22648Y968D01*
X22838Y1157D01*
X22941Y1405D01*
X22941Y1674D01*
X22838Y1922D01*
X22649Y2112D01*
X22437Y2200D01*
X24053Y2200D01*
X23871Y2125D01*
X23828Y2017D01*
X24234Y1611D01*
X24640Y2017D01*
X24597Y2125D01*
X24396Y2200D01*
X25750Y2200D01*
X25949Y2200D01*
X26009Y2140D01*
X26165Y2075D01*
X26334Y2075D01*
X26490Y2139D01*
X26610Y2259D01*
X26675Y2415D01*
X26675Y550D01*
X24913Y550D01*
X24913Y1428D01*
X24904Y1696D01*
X24819Y1903D01*
X24711Y1946D01*
X24305Y1540D01*
X24711Y1134D01*
X24819Y1177D01*
X24913Y1428D01*
X24913Y550D01*
X24640Y550D01*
X24640Y1063D01*
X24234Y1469D01*
X24163Y1398D01*
X24163Y1540D01*
X23757Y1946D01*
X23649Y1903D01*
X23555Y1652D01*
X23564Y1384D01*
X23649Y1177D01*
X23757Y1134D01*
X24163Y1540D01*
X24163Y1398D01*
X23828Y1063D01*
X23871Y955D01*
X24122Y861D01*
X24390Y870D01*
X24597Y955D01*
X24640Y1063D01*
X24640Y550D01*
X19663Y550D01*
X19663Y1428D01*
X19654Y1696D01*
X19569Y1903D01*
X19461Y1946D01*
X19055Y1540D01*
X19461Y1134D01*
X19569Y1177D01*
X19663Y1428D01*
X19663Y550D01*
X19390Y550D01*
X19390Y1063D01*
X18984Y1469D01*
X18913Y1398D01*
X18913Y1540D01*
X18507Y1946D01*
X18399Y1903D01*
X18305Y1652D01*
X18314Y1384D01*
X18399Y1177D01*
X18507Y1134D01*
X18913Y1540D01*
X18913Y1398D01*
X18578Y1063D01*
X18621Y955D01*
X18872Y861D01*
X19140Y870D01*
X19347Y955D01*
X19390Y1063D01*
X19390Y550D01*
X14413Y550D01*
X14413Y1428D01*
X14404Y1696D01*
X14319Y1903D01*
X14211Y1946D01*
X14140Y1875D01*
X14140Y2017D01*
X14097Y2125D01*
X13846Y2219D01*
X13578Y2210D01*
X13371Y2125D01*
X13328Y2017D01*
X13734Y1611D01*
X14140Y2017D01*
X14140Y1875D01*
X13805Y1540D01*
X14211Y1134D01*
X14319Y1177D01*
X14413Y1428D01*
X14413Y550D01*
X14140Y550D01*
X14140Y1063D01*
X13734Y1469D01*
X13663Y1398D01*
X13663Y1540D01*
X13257Y1946D01*
X13149Y1903D01*
X13055Y1652D01*
X13064Y1384D01*
X13149Y1177D01*
X13257Y1134D01*
X13663Y1540D01*
X13663Y1398D01*
X13328Y1063D01*
X13371Y955D01*
X13622Y861D01*
X13890Y870D01*
X14097Y955D01*
X14140Y1063D01*
X14140Y550D01*
X12441Y550D01*
X12441Y1405D01*
X12441Y1674D01*
X12338Y1922D01*
X12149Y2112D01*
X11901Y2215D01*
X11632Y2215D01*
X11384Y2112D01*
X11194Y1923D01*
X11091Y1675D01*
X11091Y1406D01*
X11194Y1158D01*
X11383Y968D01*
X11631Y865D01*
X11900Y865D01*
X12148Y968D01*
X12338Y1157D01*
X12441Y1405D01*
X12441Y550D01*
X10425Y550D01*
X10425Y2915D01*
X10425Y3084D01*
X10361Y3240D01*
X10241Y3360D01*
X10085Y3425D01*
X9916Y3425D01*
X9760Y3361D01*
X9699Y3300D01*
X6801Y3300D01*
X6741Y3360D01*
X6585Y3425D01*
X6416Y3425D01*
X6260Y3361D01*
X6140Y3241D01*
X6075Y3085D01*
X6075Y2916D01*
X6139Y2760D01*
X6259Y2640D01*
X6415Y2575D01*
X6584Y2575D01*
X6740Y2639D01*
X6801Y2700D01*
X9699Y2700D01*
X9759Y2640D01*
X9915Y2575D01*
X10084Y2575D01*
X10240Y2639D01*
X10360Y2759D01*
X10425Y2915D01*
X10425Y550D01*
X9163Y550D01*
X9163Y1428D01*
X9154Y1696D01*
X9069Y1903D01*
X8961Y1946D01*
X8890Y1875D01*
X8890Y2017D01*
X8847Y2125D01*
X8596Y2219D01*
X8328Y2210D01*
X8121Y2125D01*
X8078Y2017D01*
X8484Y1611D01*
X8890Y2017D01*
X8890Y1875D01*
X8555Y1540D01*
X8961Y1134D01*
X9069Y1177D01*
X9163Y1428D01*
X9163Y550D01*
X8890Y550D01*
X8890Y1063D01*
X8484Y1469D01*
X8413Y1398D01*
X8413Y1540D01*
X8007Y1946D01*
X7899Y1903D01*
X7805Y1652D01*
X7814Y1384D01*
X7899Y1177D01*
X8007Y1134D01*
X8413Y1540D01*
X8413Y1398D01*
X8078Y1063D01*
X8121Y955D01*
X8372Y861D01*
X8640Y870D01*
X8847Y955D01*
X8890Y1063D01*
X8890Y550D01*
X7191Y550D01*
X7191Y1405D01*
X7191Y1674D01*
X7088Y1922D01*
X6899Y2112D01*
X6651Y2215D01*
X6382Y2215D01*
X6134Y2112D01*
X5944Y1923D01*
X5841Y1675D01*
X5841Y1406D01*
X5944Y1158D01*
X6133Y968D01*
X6381Y865D01*
X6650Y865D01*
X6898Y968D01*
X7088Y1157D01*
X7191Y1405D01*
X7191Y550D01*
X5030Y550D01*
X5030Y6924D01*
X5018Y7132D01*
X4960Y7272D01*
X4868Y7297D01*
X4571Y7000D01*
X4868Y6703D01*
X4960Y6728D01*
X5030Y6924D01*
X5030Y550D01*
X4797Y550D01*
X4797Y6632D01*
X4500Y6929D01*
X4429Y6858D01*
X4429Y7000D01*
X4132Y7297D01*
X4040Y7272D01*
X3970Y7076D01*
X3982Y6868D01*
X4040Y6728D01*
X4132Y6703D01*
X4429Y7000D01*
X4429Y6858D01*
X4203Y6632D01*
X4228Y6540D01*
X4424Y6470D01*
X4632Y6482D01*
X4772Y6540D01*
X4797Y6632D01*
X4797Y550D01*
X4549Y550D01*
X4549Y1391D01*
X4549Y1609D01*
X4549Y5391D01*
X4549Y5609D01*
X4465Y5811D01*
X4311Y5965D01*
X4109Y6049D01*
X3891Y6049D01*
X3775Y6001D01*
X3775Y6895D01*
X3775Y7104D01*
X3695Y7297D01*
X3548Y7445D01*
X3414Y7501D01*
X3547Y7555D01*
X3695Y7702D01*
X3775Y7895D01*
X3775Y8104D01*
X3695Y8297D01*
X3548Y8445D01*
X3355Y8525D01*
X3146Y8525D01*
X2953Y8445D01*
X2805Y8298D01*
X2725Y8105D01*
X2725Y7896D01*
X2805Y7703D01*
X2952Y7555D01*
X3085Y7500D01*
X2953Y7445D01*
X2805Y7298D01*
X2725Y7105D01*
X2725Y6896D01*
X2805Y6703D01*
X2952Y6555D01*
X3145Y6475D01*
X3354Y6475D01*
X3547Y6555D01*
X3695Y6702D01*
X3775Y6895D01*
X3775Y6001D01*
X3689Y5965D01*
X3535Y5811D01*
X3451Y5609D01*
X3451Y5391D01*
X3535Y5189D01*
X3689Y5035D01*
X3891Y4951D01*
X4109Y4951D01*
X4311Y5035D01*
X4465Y5189D01*
X4549Y5391D01*
X4549Y1609D01*
X4465Y1811D01*
X4311Y1965D01*
X4109Y2049D01*
X3891Y2049D01*
X3689Y1965D01*
X3535Y1811D01*
X3451Y1609D01*
X3451Y1391D01*
X3535Y1189D01*
X3689Y1035D01*
X3891Y951D01*
X4109Y951D01*
X4311Y1035D01*
X4465Y1189D01*
X4549Y1391D01*
X4549Y550D01*
X2600Y550D01*
X2978Y928D01*
X3199Y1460D01*
X3200Y2037D01*
X2980Y2570D01*
X2572Y2978D01*
X2530Y2996D01*
X2530Y7924D01*
X2518Y8132D01*
X2460Y8272D01*
X2368Y8297D01*
X2297Y8226D01*
X2297Y8368D01*
X2272Y8460D01*
X2076Y8530D01*
X1868Y8518D01*
X1728Y8460D01*
X1703Y8368D01*
X2000Y8071D01*
X2297Y8368D01*
X2297Y8226D01*
X2071Y8000D01*
X2368Y7703D01*
X2460Y7728D01*
X2530Y7924D01*
X2530Y2996D01*
X2525Y2998D01*
X2525Y6895D01*
X2525Y7104D01*
X2445Y7297D01*
X2298Y7445D01*
X2170Y7498D01*
X2272Y7540D01*
X2297Y7632D01*
X2000Y7929D01*
X1929Y7858D01*
X1929Y8000D01*
X1632Y8297D01*
X1540Y8272D01*
X1470Y8076D01*
X1482Y7868D01*
X1540Y7728D01*
X1632Y7703D01*
X1929Y8000D01*
X1929Y7858D01*
X1703Y7632D01*
X1728Y7540D01*
X1837Y7501D01*
X1703Y7445D01*
X1555Y7298D01*
X1475Y7105D01*
X1475Y6896D01*
X1555Y6703D01*
X1702Y6555D01*
X1895Y6475D01*
X2104Y6475D01*
X2297Y6555D01*
X2445Y6702D01*
X2525Y6895D01*
X2525Y2998D01*
X2040Y3199D01*
X1553Y3200D01*
X1553Y5669D01*
X1542Y5887D01*
X1480Y6036D01*
X1385Y6065D01*
X1315Y5995D01*
X1315Y6135D01*
X1286Y6230D01*
X1081Y6303D01*
X863Y6292D01*
X714Y6230D01*
X685Y6135D01*
X1000Y5821D01*
X1315Y6135D01*
X1315Y5995D01*
X1071Y5750D01*
X1385Y5435D01*
X1480Y5464D01*
X1553Y5669D01*
X1553Y3200D01*
X1463Y3200D01*
X930Y2980D01*
X550Y2600D01*
X550Y3424D01*
X689Y3285D01*
X891Y3201D01*
X1109Y3201D01*
X1311Y3285D01*
X1465Y3439D01*
X1549Y3641D01*
X1549Y3859D01*
X1465Y4061D01*
X1311Y4215D01*
X1226Y4250D01*
X1311Y4285D01*
X1465Y4439D01*
X1549Y4641D01*
X1549Y4859D01*
X1465Y5061D01*
X1311Y5215D01*
X1232Y5248D01*
X1286Y5270D01*
X1315Y5365D01*
X1000Y5679D01*
X685Y5365D01*
X714Y5270D01*
X771Y5250D01*
X689Y5215D01*
X550Y5076D01*
X550Y5455D01*
X615Y5435D01*
X929Y5750D01*
X615Y6065D01*
X550Y6046D01*
X550Y13716D01*
X555Y13703D01*
X702Y13555D01*
X895Y13475D01*
X1104Y13475D01*
X1297Y13555D01*
X1445Y13702D01*
X1500Y13836D01*
X1555Y13703D01*
X1702Y13555D01*
X1895Y13475D01*
X2104Y13475D01*
X2297Y13555D01*
X2445Y13702D01*
X2525Y13895D01*
X2525Y14104D01*
X2445Y14297D01*
X2298Y14445D01*
X2105Y14525D01*
X1896Y14525D01*
X1703Y14445D01*
X1555Y14298D01*
X1499Y14165D01*
X1445Y14297D01*
X1298Y14445D01*
X1105Y14525D01*
X896Y14525D01*
X703Y14445D01*
X555Y14298D01*
X550Y14286D01*
X550Y15174D01*
X689Y15035D01*
X891Y14951D01*
X1109Y14951D01*
X1311Y15035D01*
X1465Y15189D01*
X1549Y15391D01*
X1549Y15609D01*
X1465Y15811D01*
X1311Y15965D01*
X1109Y16049D01*
X891Y16049D01*
X689Y15965D01*
X550Y15826D01*
X550Y17400D01*
X928Y17022D01*
X1460Y16801D01*
X2037Y16800D01*
X2570Y17020D01*
X2978Y17428D01*
X3199Y17960D01*
X3200Y18537D01*
X2980Y19070D01*
X2600Y19450D01*
X3644Y19450D01*
X3517Y19323D01*
X3430Y19114D01*
X3430Y18887D01*
X3517Y18677D01*
X3677Y18517D01*
X3717Y18500D01*
X3677Y18483D01*
X3517Y18323D01*
X3430Y18114D01*
X3430Y17887D01*
X3517Y17677D01*
X3677Y17517D01*
X3745Y17489D01*
X3689Y17465D01*
X3535Y17311D01*
X3451Y17109D01*
X3451Y16891D01*
X3535Y16689D01*
X3689Y16535D01*
X3891Y16451D01*
X4109Y16451D01*
X4311Y16535D01*
X4465Y16689D01*
X4500Y16774D01*
X4529Y16704D01*
X3288Y15462D01*
X3223Y15365D01*
X3200Y15250D01*
X3200Y14443D01*
X3055Y14298D01*
X2975Y14105D01*
X2975Y13896D01*
X3055Y13703D01*
X3202Y13555D01*
X3395Y13475D01*
X3604Y13475D01*
X3797Y13555D01*
X3945Y13702D01*
X4000Y13836D01*
X4055Y13703D01*
X4202Y13555D01*
X4395Y13475D01*
X4604Y13475D01*
X4797Y13555D01*
X4945Y13702D01*
X5025Y13895D01*
X5025Y14104D01*
X4945Y14297D01*
X4798Y14445D01*
X4605Y14525D01*
X4396Y14525D01*
X4203Y14445D01*
X4055Y14298D01*
X3999Y14165D01*
X3945Y14297D01*
X3800Y14443D01*
X3800Y15126D01*
X5136Y16463D01*
X5311Y16535D01*
X5465Y16689D01*
X5549Y16891D01*
X5549Y17109D01*
X5465Y17311D01*
X5311Y17465D01*
X5254Y17489D01*
X5323Y17517D01*
X5483Y17677D01*
X5570Y17886D01*
X5570Y18113D01*
X5483Y18323D01*
X5323Y18483D01*
X5282Y18501D01*
X5323Y18517D01*
X5483Y18677D01*
X5570Y18886D01*
X5570Y19113D01*
X5483Y19323D01*
X5356Y19450D01*
X6204Y19450D01*
X6185Y19385D01*
X6500Y19071D01*
X6815Y19385D01*
X6795Y19450D01*
X7424Y19450D01*
X7285Y19311D01*
X7201Y19109D01*
X7201Y18891D01*
X7285Y18689D01*
X7439Y18535D01*
X7641Y18451D01*
X7859Y18451D01*
X8061Y18535D01*
X8215Y18689D01*
X8299Y18891D01*
X8299Y19109D01*
X8215Y19311D01*
X8076Y19450D01*
X16026Y19450D01*
X15601Y19025D01*
X15396Y19025D01*
X15203Y18945D01*
X15055Y18798D01*
X14999Y18665D01*
X14945Y18797D01*
X14798Y18945D01*
X14605Y19025D01*
X14396Y19025D01*
X14203Y18945D01*
X14055Y18798D01*
X13999Y18665D01*
X13945Y18797D01*
X13798Y18945D01*
X13605Y19025D01*
X13396Y19025D01*
X13203Y18945D01*
X13055Y18798D01*
X12999Y18665D01*
X12945Y18797D01*
X12798Y18945D01*
X12605Y19025D01*
X12396Y19025D01*
X12203Y18945D01*
X12055Y18798D01*
X11999Y18665D01*
X11945Y18797D01*
X11798Y18945D01*
X11605Y19025D01*
X11396Y19025D01*
X11203Y18945D01*
X11055Y18798D01*
X10999Y18665D01*
X10945Y18797D01*
X10798Y18945D01*
X10605Y19025D01*
X10396Y19025D01*
X10203Y18945D01*
X10055Y18798D01*
X9975Y18605D01*
X9975Y18396D01*
X10055Y18203D01*
X10202Y18055D01*
X10395Y17975D01*
X10604Y17975D01*
X10797Y18055D01*
X10945Y18202D01*
X11000Y18336D01*
X11055Y18203D01*
X11200Y18058D01*
X11200Y17875D01*
X11125Y17800D01*
X8801Y17800D01*
X8741Y17860D01*
X8585Y17925D01*
X8416Y17925D01*
X8260Y17861D01*
X8140Y17741D01*
X8075Y17585D01*
X8075Y17416D01*
X8139Y17260D01*
X8259Y17140D01*
X8415Y17075D01*
X8584Y17075D01*
X8740Y17139D01*
X8801Y17200D01*
X11250Y17200D01*
X11365Y17223D01*
X11462Y17288D01*
X11712Y17537D01*
X11712Y17538D01*
X11777Y17635D01*
X11799Y17750D01*
X11800Y17750D01*
X11800Y18058D01*
X11945Y18202D01*
X12000Y18336D01*
X12055Y18203D01*
X12202Y18055D01*
X12395Y17975D01*
X12604Y17975D01*
X12797Y18055D01*
X12945Y18202D01*
X13000Y18336D01*
X13055Y18203D01*
X13202Y18055D01*
X13395Y17975D01*
X13604Y17975D01*
X13797Y18055D01*
X13945Y18202D01*
X14000Y18336D01*
X14055Y18203D01*
X14202Y18055D01*
X14395Y17975D01*
X14604Y17975D01*
X14797Y18055D01*
X14945Y18202D01*
X15000Y18336D01*
X15055Y18203D01*
X15202Y18055D01*
X15395Y17975D01*
X15604Y17975D01*
X15797Y18055D01*
X15945Y18202D01*
X15997Y18330D01*
X16040Y18228D01*
X16132Y18203D01*
X16394Y18465D01*
X16429Y18500D01*
X16500Y18571D01*
X16535Y18606D01*
X16797Y18868D01*
X16772Y18960D01*
X16576Y19030D01*
X16446Y19023D01*
X16870Y19446D01*
X21522Y19446D01*
X21288Y19212D01*
X21223Y19115D01*
X21200Y19000D01*
X21200Y18943D01*
X21055Y18798D01*
X20999Y18665D01*
X20945Y18797D01*
X20798Y18945D01*
X20605Y19025D01*
X20396Y19025D01*
X20203Y18945D01*
X20055Y18798D01*
X19999Y18665D01*
X19945Y18797D01*
X19798Y18945D01*
X19605Y19025D01*
X19396Y19025D01*
X19203Y18945D01*
X19055Y18798D01*
X18999Y18665D01*
X18945Y18797D01*
X18798Y18945D01*
X18605Y19025D01*
X18396Y19025D01*
X18203Y18945D01*
X18055Y18798D01*
X17999Y18665D01*
X17945Y18797D01*
X17798Y18945D01*
X17605Y19025D01*
X17396Y19025D01*
X17203Y18945D01*
X17055Y18798D01*
X17002Y18671D01*
X16960Y18772D01*
X16868Y18797D01*
X16571Y18500D01*
X16868Y18203D01*
X16960Y18228D01*
X16999Y18338D01*
X17055Y18203D01*
X17202Y18055D01*
X17395Y17975D01*
X17604Y17975D01*
X17797Y18055D01*
X17945Y18202D01*
X18000Y18336D01*
X18055Y18203D01*
X18202Y18055D01*
X18395Y17975D01*
X18604Y17975D01*
X18797Y18055D01*
X18945Y18202D01*
X19000Y18336D01*
X19055Y18203D01*
X19202Y18055D01*
X19395Y17975D01*
X19604Y17975D01*
X19797Y18055D01*
X19945Y18202D01*
X20000Y18336D01*
X20055Y18203D01*
X20200Y18058D01*
X20200Y18000D01*
X20223Y17885D01*
X20288Y17788D01*
X20385Y17723D01*
X20500Y17700D01*
X24949Y17700D01*
X25009Y17640D01*
X25165Y17575D01*
X25334Y17575D01*
X25490Y17639D01*
X25610Y17759D01*
X25624Y17795D01*
X25639Y17760D01*
X25759Y17640D01*
X25794Y17626D01*
X25760Y17611D01*
X25699Y17550D01*
X19801Y17550D01*
X19741Y17610D01*
X19585Y17675D01*
X19416Y17675D01*
X19260Y17611D01*
X19140Y17491D01*
X19075Y17335D01*
X19075Y17166D01*
X19076Y17162D01*
X16797Y17162D01*
X16797Y18132D01*
X16500Y18429D01*
X16203Y18132D01*
X16228Y18040D01*
X16424Y17970D01*
X16632Y17982D01*
X16772Y18040D01*
X16797Y18132D01*
X16797Y17162D01*
X16138Y17162D01*
X15012Y17162D01*
X14925Y17250D01*
X14925Y17334D01*
X14861Y17490D01*
X14741Y17610D01*
X14585Y17675D01*
X14416Y17675D01*
X14260Y17611D01*
X14140Y17491D01*
X14075Y17335D01*
X14075Y17166D01*
X14139Y17010D01*
X14259Y16890D01*
X14415Y16825D01*
X14500Y16825D01*
X14525Y16800D01*
X11000Y16800D01*
X10885Y16777D01*
X10788Y16712D01*
X10288Y16212D01*
X10223Y16115D01*
X10204Y16024D01*
X10176Y16024D01*
X10084Y15986D01*
X10014Y15916D01*
X9976Y15825D01*
X9976Y15800D01*
X8000Y15800D01*
X7885Y15777D01*
X7787Y15712D01*
X7613Y15538D01*
X7439Y15465D01*
X7285Y15311D01*
X7201Y15109D01*
X7201Y14891D01*
X7285Y14689D01*
X7439Y14535D01*
X7641Y14451D01*
X7859Y14451D01*
X8061Y14535D01*
X8215Y14689D01*
X8299Y14891D01*
X8299Y15109D01*
X8261Y15200D01*
X9976Y15200D01*
X9976Y15176D01*
X10014Y15084D01*
X10084Y15014D01*
X10175Y14976D01*
X10274Y14976D01*
X10824Y14976D01*
X10916Y15014D01*
X10986Y15084D01*
X11024Y15175D01*
X11024Y15274D01*
X11024Y15278D01*
X11055Y15203D01*
X11202Y15055D01*
X11395Y14975D01*
X11604Y14975D01*
X11797Y15055D01*
X11945Y15202D01*
X12000Y15336D01*
X12055Y15203D01*
X12202Y15055D01*
X12395Y14975D01*
X12604Y14975D01*
X12797Y15055D01*
X12945Y15202D01*
X13000Y15336D01*
X13055Y15203D01*
X13200Y15058D01*
X13200Y15000D01*
X13223Y14885D01*
X13288Y14788D01*
X13537Y14538D01*
X13538Y14538D01*
X13635Y14473D01*
X13726Y14455D01*
X13703Y14445D01*
X13555Y14298D01*
X13475Y14105D01*
X13475Y13896D01*
X13555Y13703D01*
X13702Y13555D01*
X13829Y13503D01*
X13728Y13460D01*
X13703Y13368D01*
X14000Y13071D01*
X14297Y13368D01*
X14272Y13460D01*
X14162Y13500D01*
X14297Y13555D01*
X14445Y13702D01*
X14525Y13895D01*
X14525Y14104D01*
X14445Y14297D01*
X14298Y14445D01*
X14285Y14450D01*
X15625Y14450D01*
X16700Y13376D01*
X16700Y13051D01*
X16640Y12991D01*
X16575Y12835D01*
X16575Y12666D01*
X16639Y12510D01*
X16759Y12390D01*
X16915Y12325D01*
X17084Y12325D01*
X17200Y12373D01*
X17200Y11750D01*
X17200Y10301D01*
X17140Y10241D01*
X17075Y10085D01*
X17075Y9916D01*
X17139Y9760D01*
X17259Y9640D01*
X17415Y9575D01*
X17584Y9575D01*
X17740Y9639D01*
X17860Y9759D01*
X17925Y9915D01*
X17925Y10084D01*
X17861Y10240D01*
X17800Y10301D01*
X17800Y11750D01*
X17800Y13449D01*
X17860Y13509D01*
X17925Y13665D01*
X17925Y13834D01*
X17861Y13990D01*
X17797Y14054D01*
X17797Y15132D01*
X17500Y15429D01*
X17203Y15132D01*
X17228Y15040D01*
X17424Y14970D01*
X17632Y14982D01*
X17772Y15040D01*
X17797Y15132D01*
X17797Y14054D01*
X17741Y14110D01*
X17585Y14175D01*
X17416Y14175D01*
X17260Y14111D01*
X17140Y13991D01*
X17079Y13846D01*
X15962Y14962D01*
X15865Y15027D01*
X15773Y15046D01*
X15797Y15055D01*
X15945Y15202D01*
X16000Y15336D01*
X16055Y15203D01*
X16202Y15055D01*
X16395Y14975D01*
X16604Y14975D01*
X16797Y15055D01*
X16945Y15202D01*
X16997Y15330D01*
X17040Y15228D01*
X17132Y15203D01*
X17429Y15500D01*
X17132Y15797D01*
X17040Y15772D01*
X17000Y15663D01*
X16945Y15797D01*
X16798Y15945D01*
X16605Y16025D01*
X16396Y16025D01*
X16203Y15945D01*
X16055Y15798D01*
X15999Y15665D01*
X15945Y15797D01*
X15798Y15945D01*
X15605Y16025D01*
X15396Y16025D01*
X15203Y15945D01*
X15055Y15798D01*
X14999Y15665D01*
X14945Y15797D01*
X14798Y15945D01*
X14605Y16025D01*
X14396Y16025D01*
X14203Y15945D01*
X14055Y15798D01*
X13999Y15665D01*
X13945Y15797D01*
X13798Y15945D01*
X13605Y16025D01*
X13396Y16025D01*
X13203Y15945D01*
X13055Y15798D01*
X12999Y15665D01*
X12945Y15797D01*
X12798Y15945D01*
X12605Y16025D01*
X12396Y16025D01*
X12203Y15945D01*
X12055Y15798D01*
X11999Y15665D01*
X11945Y15797D01*
X11798Y15945D01*
X11605Y16025D01*
X11396Y16025D01*
X11203Y15945D01*
X11055Y15798D01*
X11024Y15724D01*
X11024Y15824D01*
X10986Y15916D01*
X10916Y15986D01*
X10911Y15988D01*
X11124Y16200D01*
X27750Y16200D01*
X27865Y16223D01*
X27962Y16288D01*
X28129Y16456D01*
X28141Y16451D01*
X28359Y16451D01*
X28561Y16535D01*
X28715Y16689D01*
X28747Y16768D01*
X28770Y16714D01*
X28865Y16685D01*
X29179Y17000D01*
X28865Y17315D01*
X28770Y17286D01*
X28749Y17229D01*
X28715Y17311D01*
X28561Y17465D01*
X28476Y17500D01*
X28561Y17535D01*
X28715Y17689D01*
X28750Y17774D01*
X28785Y17689D01*
X28939Y17535D01*
X29017Y17503D01*
X28964Y17480D01*
X28935Y17385D01*
X29250Y17071D01*
X29565Y17385D01*
X29536Y17480D01*
X29478Y17501D01*
X29561Y17535D01*
X29715Y17689D01*
X29719Y17700D01*
X29750Y17700D01*
X29865Y17723D01*
X29962Y17788D01*
X30212Y18037D01*
X30212Y18038D01*
X30277Y18135D01*
X30299Y18250D01*
X30300Y18250D01*
X30300Y19250D01*
X30277Y19365D01*
X30223Y19446D01*
X30479Y19446D01*
X30476Y19443D01*
X30357Y19156D01*
X30357Y18845D01*
X30476Y18558D01*
X30695Y18338D01*
X30982Y18219D01*
X31293Y18219D01*
X31580Y18338D01*
X31800Y18557D01*
X31919Y18844D01*
X31919Y19155D01*
X31800Y19442D01*
X31796Y19446D01*
X32000Y19446D01*
X32350Y19446D01*
X33630Y19446D01*
X34026Y19050D01*
X32450Y19050D01*
X32335Y19027D01*
X32238Y18962D01*
X31326Y18050D01*
X31051Y18050D01*
X30991Y18110D01*
X30835Y18175D01*
X30666Y18175D01*
X30510Y18111D01*
X30390Y17991D01*
X30325Y17835D01*
X30325Y17666D01*
X30389Y17510D01*
X30509Y17390D01*
X30665Y17325D01*
X30834Y17325D01*
X30990Y17389D01*
X31051Y17450D01*
X31450Y17450D01*
X31565Y17473D01*
X31662Y17538D01*
X32574Y18450D01*
X32793Y18450D01*
X32714Y18417D01*
X32685Y18322D01*
X33000Y18008D01*
X33315Y18322D01*
X33286Y18417D01*
X33193Y18450D01*
X33804Y18450D01*
X33689Y18402D01*
X33535Y18248D01*
X33502Y18170D01*
X33480Y18223D01*
X33385Y18252D01*
X33071Y17937D01*
X33385Y17622D01*
X33480Y17651D01*
X33500Y17709D01*
X33535Y17626D01*
X33617Y17544D01*
X33535Y17461D01*
X33500Y17377D01*
X33465Y17461D01*
X33311Y17615D01*
X33209Y17658D01*
X33000Y17866D01*
X32929Y17796D01*
X32929Y17937D01*
X32615Y18252D01*
X32520Y18223D01*
X32447Y18018D01*
X32458Y17800D01*
X32520Y17651D01*
X32615Y17622D01*
X32929Y17937D01*
X32929Y17796D01*
X32790Y17658D01*
X32689Y17615D01*
X32535Y17461D01*
X32451Y17259D01*
X32451Y17041D01*
X32535Y16839D01*
X32689Y16685D01*
X32891Y16601D01*
X33109Y16601D01*
X33311Y16685D01*
X33465Y16839D01*
X33500Y16924D01*
X33535Y16839D01*
X33689Y16685D01*
X33700Y16681D01*
X33700Y16500D01*
X33723Y16385D01*
X33788Y16288D01*
X34401Y15675D01*
X34401Y15101D01*
X34439Y15009D01*
X34509Y14939D01*
X34600Y14901D01*
X34699Y14901D01*
X35399Y14901D01*
X35491Y14939D01*
X35561Y15009D01*
X35599Y15100D01*
X35599Y15199D01*
X35599Y15899D01*
X35561Y15991D01*
X35491Y16061D01*
X35400Y16099D01*
X35301Y16099D01*
X34825Y16099D01*
X34300Y16624D01*
X34300Y16681D01*
X34311Y16685D01*
X34465Y16839D01*
X34549Y17041D01*
X34549Y17259D01*
X34465Y17461D01*
X34382Y17544D01*
X34465Y17626D01*
X34549Y17828D01*
X34549Y17927D01*
X34575Y17901D01*
X34575Y17816D01*
X34639Y17660D01*
X34759Y17540D01*
X34915Y17475D01*
X35084Y17475D01*
X35240Y17539D01*
X35360Y17659D01*
X35376Y17700D01*
X37037Y16038D01*
X37038Y16038D01*
X37039Y16037D01*
X38538Y14538D01*
X38635Y14473D01*
X38750Y14450D01*
X43750Y14450D01*
X44449Y14450D01*
X44509Y14390D01*
X44665Y14325D01*
X44834Y14325D01*
X44990Y14389D01*
X45110Y14509D01*
X45175Y14665D01*
X45175Y14834D01*
X45111Y14990D01*
X45070Y15031D01*
X45070Y17386D01*
X45070Y17613D01*
X44983Y17823D01*
X44823Y17983D01*
X44782Y18001D01*
X44823Y18017D01*
X44983Y18177D01*
X45070Y18386D01*
X45070Y18613D01*
X44983Y18823D01*
X44823Y18983D01*
X44614Y19070D01*
X44387Y19070D01*
X44177Y18983D01*
X44017Y18823D01*
X43999Y18783D01*
X43983Y18823D01*
X43823Y18983D01*
X43614Y19070D01*
X43387Y19070D01*
X43177Y18983D01*
X43017Y18823D01*
X42990Y18761D01*
X42980Y18786D01*
X42885Y18815D01*
X42815Y18745D01*
X42815Y18885D01*
X42786Y18980D01*
X42581Y19053D01*
X42363Y19042D01*
X42214Y18980D01*
X42185Y18885D01*
X42500Y18571D01*
X42815Y18885D01*
X42815Y18745D01*
X42571Y18500D01*
X42885Y18185D01*
X42980Y18214D01*
X42990Y18243D01*
X43017Y18177D01*
X43177Y18017D01*
X43217Y18000D01*
X43177Y17983D01*
X43017Y17823D01*
X42988Y17755D01*
X42965Y17811D01*
X42811Y17965D01*
X42732Y17998D01*
X42786Y18020D01*
X42815Y18115D01*
X42500Y18429D01*
X42429Y18359D01*
X42429Y18500D01*
X42115Y18815D01*
X42020Y18786D01*
X41947Y18581D01*
X41958Y18363D01*
X42020Y18214D01*
X42115Y18185D01*
X42429Y18500D01*
X42429Y18359D01*
X42185Y18115D01*
X42214Y18020D01*
X42271Y18000D01*
X42189Y17965D01*
X42035Y17811D01*
X41951Y17609D01*
X41951Y17391D01*
X42035Y17189D01*
X42189Y17035D01*
X42391Y16951D01*
X42609Y16951D01*
X42811Y17035D01*
X42965Y17189D01*
X42988Y17246D01*
X43017Y17177D01*
X43177Y17017D01*
X43386Y16930D01*
X43613Y16930D01*
X43823Y17017D01*
X43983Y17177D01*
X44000Y17218D01*
X44017Y17177D01*
X44177Y17017D01*
X44386Y16930D01*
X44613Y16930D01*
X44823Y17017D01*
X44983Y17177D01*
X45070Y17386D01*
X45070Y15031D01*
X44991Y15110D01*
X44945Y15130D01*
X44945Y15848D01*
X44936Y16116D01*
X44851Y16323D01*
X44743Y16366D01*
X44672Y16295D01*
X44672Y16437D01*
X44629Y16545D01*
X44378Y16639D01*
X44110Y16630D01*
X43903Y16545D01*
X43860Y16437D01*
X44266Y16031D01*
X44672Y16437D01*
X44672Y16295D01*
X44337Y15960D01*
X44743Y15554D01*
X44851Y15597D01*
X44945Y15848D01*
X44945Y15130D01*
X44835Y15175D01*
X44672Y15175D01*
X44672Y15483D01*
X44266Y15889D01*
X44195Y15818D01*
X44195Y15960D01*
X43789Y16366D01*
X43681Y16323D01*
X43587Y16072D01*
X43596Y15804D01*
X43681Y15597D01*
X43789Y15554D01*
X44195Y15960D01*
X44195Y15818D01*
X43860Y15483D01*
X43903Y15375D01*
X44154Y15281D01*
X44422Y15290D01*
X44629Y15375D01*
X44672Y15483D01*
X44672Y15175D01*
X44666Y15175D01*
X44510Y15111D01*
X44449Y15050D01*
X43750Y15050D01*
X41659Y15050D01*
X41659Y15825D01*
X41659Y16094D01*
X41556Y16342D01*
X41367Y16532D01*
X41119Y16635D01*
X41025Y16635D01*
X41025Y17395D01*
X41025Y17604D01*
X40945Y17797D01*
X40798Y17945D01*
X40723Y17976D01*
X40824Y17976D01*
X40916Y18014D01*
X40986Y18084D01*
X41024Y18175D01*
X41024Y18274D01*
X41024Y18824D01*
X40986Y18916D01*
X40916Y18986D01*
X40825Y19024D01*
X40726Y19024D01*
X40176Y19024D01*
X40084Y18986D01*
X40014Y18916D01*
X39976Y18825D01*
X39976Y18726D01*
X39976Y18176D01*
X40014Y18084D01*
X40084Y18014D01*
X40175Y17976D01*
X40274Y17976D01*
X40203Y17945D01*
X40055Y17798D01*
X39975Y17605D01*
X39975Y17396D01*
X40055Y17203D01*
X40202Y17055D01*
X40395Y16975D01*
X40604Y16975D01*
X40797Y17055D01*
X40945Y17202D01*
X41025Y17395D01*
X41025Y16635D01*
X40850Y16635D01*
X40602Y16532D01*
X40412Y16343D01*
X40309Y16095D01*
X40309Y15826D01*
X40412Y15578D01*
X40601Y15388D01*
X40849Y15285D01*
X41118Y15285D01*
X41366Y15388D01*
X41556Y15577D01*
X41659Y15825D01*
X41659Y15050D01*
X39695Y15050D01*
X39695Y15848D01*
X39686Y16116D01*
X39601Y16323D01*
X39530Y16352D01*
X39530Y18424D01*
X39518Y18632D01*
X39460Y18772D01*
X39368Y18797D01*
X39297Y18726D01*
X39297Y18868D01*
X39272Y18960D01*
X39076Y19030D01*
X38868Y19018D01*
X38728Y18960D01*
X38703Y18868D01*
X39000Y18571D01*
X39297Y18868D01*
X39297Y18726D01*
X39071Y18500D01*
X39368Y18203D01*
X39460Y18228D01*
X39530Y18424D01*
X39530Y16352D01*
X39493Y16366D01*
X39422Y16295D01*
X39422Y16437D01*
X39379Y16545D01*
X39128Y16639D01*
X38860Y16630D01*
X38653Y16545D01*
X38610Y16437D01*
X39016Y16031D01*
X39422Y16437D01*
X39422Y16295D01*
X39087Y15960D01*
X39493Y15554D01*
X39601Y15597D01*
X39695Y15848D01*
X39695Y15050D01*
X39422Y15050D01*
X39422Y15483D01*
X39016Y15889D01*
X38945Y15818D01*
X38945Y15960D01*
X38539Y16366D01*
X38431Y16323D01*
X38337Y16072D01*
X38346Y15804D01*
X38431Y15597D01*
X38539Y15554D01*
X38945Y15960D01*
X38945Y15818D01*
X38610Y15483D01*
X38653Y15375D01*
X38904Y15281D01*
X39172Y15290D01*
X39379Y15375D01*
X39422Y15483D01*
X39422Y15050D01*
X38874Y15050D01*
X37463Y16461D01*
X37462Y16462D01*
X37462Y16463D01*
X35706Y18219D01*
X36017Y18219D01*
X36304Y18338D01*
X36524Y18557D01*
X36643Y18844D01*
X36643Y19155D01*
X36524Y19442D01*
X36516Y19450D01*
X38029Y19450D01*
X37973Y19365D01*
X37950Y19250D01*
X37950Y18301D01*
X37890Y18241D01*
X37825Y18085D01*
X37825Y17916D01*
X37889Y17760D01*
X38009Y17640D01*
X38165Y17575D01*
X38334Y17575D01*
X38488Y17639D01*
X38475Y17605D01*
X38475Y17396D01*
X38555Y17203D01*
X38702Y17055D01*
X38895Y16975D01*
X39104Y16975D01*
X39297Y17055D01*
X39445Y17202D01*
X39525Y17395D01*
X39525Y17604D01*
X39445Y17797D01*
X39298Y17945D01*
X39170Y17998D01*
X39272Y18040D01*
X39297Y18132D01*
X39035Y18394D01*
X39000Y18429D01*
X38929Y18500D01*
X38894Y18535D01*
X38632Y18797D01*
X38550Y18775D01*
X38550Y19126D01*
X38624Y19200D01*
X39000Y19200D01*
X44750Y19200D01*
X44875Y19200D01*
X45037Y19038D01*
X45038Y19038D01*
X45039Y19037D01*
X45934Y18142D01*
X45934Y16567D01*
X45852Y16532D01*
X45662Y16343D01*
X45559Y16095D01*
X45559Y15826D01*
X45662Y15578D01*
X45851Y15388D01*
X46099Y15285D01*
X46368Y15285D01*
X46616Y15388D01*
X46806Y15577D01*
X46909Y15825D01*
X46909Y16094D01*
X46806Y16342D01*
X46617Y16532D01*
X46534Y16567D01*
X46534Y18171D01*
X46534Y18173D01*
X46549Y18250D01*
X46550Y18250D01*
X46527Y18365D01*
X46462Y18462D01*
X46462Y18463D01*
X46446Y18478D01*
X45474Y19450D01*
X47400Y19450D01*
X47022Y19072D01*
X46801Y18540D01*
X46800Y17963D01*
X47020Y17430D01*
X47428Y17022D01*
X47960Y16801D01*
X48537Y16800D01*
X49070Y17020D01*
X49450Y17400D01*
X49450Y2850D01*
X49450Y2850D01*
G37*
G54D27*
X49450Y2850D02*
X49072Y3228D01*
X48540Y3449D01*
X47963Y3450D01*
X47430Y3230D01*
X47022Y2822D01*
X46909Y2550D01*
X46909Y10905D01*
X46909Y11174D01*
X46806Y11422D01*
X46617Y11612D01*
X46369Y11715D01*
X46100Y11715D01*
X45852Y11612D01*
X45662Y11423D01*
X45559Y11175D01*
X45559Y10906D01*
X45662Y10658D01*
X45851Y10468D01*
X46099Y10365D01*
X46368Y10365D01*
X46616Y10468D01*
X46806Y10657D01*
X46909Y10905D01*
X46909Y2550D01*
X46801Y2290D01*
X46800Y1713D01*
X47020Y1180D01*
X47428Y772D01*
X47960Y551D01*
X48537Y550D01*
X45913Y550D01*
X45913Y1428D01*
X45913Y6348D01*
X45904Y6616D01*
X45833Y6789D01*
X45833Y7912D01*
X45830Y7981D01*
X45830Y8884D01*
X45830Y9115D01*
X45742Y9328D01*
X45579Y9491D01*
X45366Y9580D01*
X45135Y9580D01*
X44945Y9502D01*
X44945Y10928D01*
X44936Y11196D01*
X44851Y11403D01*
X44743Y11446D01*
X44672Y11375D01*
X44672Y11517D01*
X44629Y11625D01*
X44378Y11719D01*
X44110Y11710D01*
X43903Y11625D01*
X43860Y11517D01*
X44266Y11111D01*
X44672Y11517D01*
X44672Y11375D01*
X44337Y11040D01*
X44743Y10634D01*
X44851Y10677D01*
X44945Y10928D01*
X44945Y9502D01*
X44922Y9492D01*
X44759Y9329D01*
X44746Y9300D01*
X44672Y9300D01*
X44672Y10563D01*
X44266Y10969D01*
X44195Y10898D01*
X44195Y11040D01*
X43789Y11446D01*
X43681Y11403D01*
X43675Y11387D01*
X43675Y13665D01*
X43675Y13834D01*
X43611Y13990D01*
X43491Y14110D01*
X43335Y14175D01*
X43166Y14175D01*
X43010Y14111D01*
X42999Y14100D01*
X39300Y14100D01*
X39275Y14095D01*
X39250Y14100D01*
X37049Y14100D01*
X37049Y15391D01*
X37049Y15609D01*
X36965Y15811D01*
X36811Y15965D01*
X36609Y16049D01*
X36391Y16049D01*
X36189Y15965D01*
X36035Y15811D01*
X35951Y15609D01*
X35951Y15391D01*
X36035Y15189D01*
X36189Y15035D01*
X36391Y14951D01*
X36609Y14951D01*
X36811Y15035D01*
X36965Y15189D01*
X37049Y15391D01*
X37049Y14100D01*
X34049Y14100D01*
X34049Y15391D01*
X34049Y15609D01*
X33965Y15811D01*
X33811Y15965D01*
X33609Y16049D01*
X33391Y16049D01*
X33189Y15965D01*
X33035Y15811D01*
X32951Y15609D01*
X32951Y15391D01*
X33035Y15189D01*
X33189Y15035D01*
X33391Y14951D01*
X33609Y14951D01*
X33811Y15035D01*
X33965Y15189D01*
X34049Y15391D01*
X34049Y14100D01*
X33644Y14100D01*
X33740Y14139D01*
X33860Y14259D01*
X33925Y14415D01*
X33925Y14584D01*
X33861Y14740D01*
X33741Y14860D01*
X33585Y14925D01*
X33416Y14925D01*
X33260Y14861D01*
X33199Y14800D01*
X32374Y14800D01*
X32300Y14875D01*
X32300Y15031D01*
X32311Y15035D01*
X32465Y15189D01*
X32549Y15391D01*
X32549Y15609D01*
X32465Y15811D01*
X32425Y15851D01*
X32425Y16415D01*
X32425Y16584D01*
X32361Y16740D01*
X32241Y16860D01*
X32085Y16925D01*
X31916Y16925D01*
X31760Y16861D01*
X31699Y16800D01*
X30801Y16800D01*
X30741Y16860D01*
X30585Y16925D01*
X30416Y16925D01*
X30260Y16861D01*
X30140Y16741D01*
X30075Y16585D01*
X30075Y16416D01*
X30139Y16260D01*
X30259Y16140D01*
X30415Y16075D01*
X30584Y16075D01*
X30740Y16139D01*
X30801Y16200D01*
X31699Y16200D01*
X31759Y16140D01*
X31915Y16075D01*
X32084Y16075D01*
X32240Y16139D01*
X32360Y16259D01*
X32425Y16415D01*
X32425Y15851D01*
X32311Y15965D01*
X32109Y16049D01*
X31891Y16049D01*
X31689Y15965D01*
X31535Y15811D01*
X31451Y15609D01*
X31451Y15391D01*
X31535Y15189D01*
X31689Y15035D01*
X31700Y15031D01*
X31700Y14750D01*
X31723Y14635D01*
X31788Y14538D01*
X32037Y14288D01*
X32038Y14288D01*
X32135Y14223D01*
X32250Y14200D01*
X33199Y14200D01*
X33259Y14140D01*
X33355Y14100D01*
X31218Y14100D01*
X31161Y14240D01*
X31049Y14352D01*
X31049Y15391D01*
X31049Y15609D01*
X30965Y15811D01*
X30811Y15965D01*
X30609Y16049D01*
X30391Y16049D01*
X30189Y15965D01*
X30035Y15811D01*
X30030Y15800D01*
X29803Y15800D01*
X29803Y16919D01*
X29792Y17137D01*
X29730Y17286D01*
X29635Y17315D01*
X29321Y17000D01*
X29635Y16685D01*
X29730Y16714D01*
X29803Y16919D01*
X29803Y15800D01*
X29599Y15800D01*
X29599Y15899D01*
X29565Y15982D01*
X29565Y16615D01*
X29250Y16929D01*
X28935Y16615D01*
X28964Y16520D01*
X29169Y16447D01*
X29387Y16458D01*
X29536Y16520D01*
X29565Y16615D01*
X29565Y15982D01*
X29561Y15991D01*
X29491Y16061D01*
X29400Y16099D01*
X29301Y16099D01*
X28601Y16099D01*
X28509Y16061D01*
X28439Y15991D01*
X28401Y15900D01*
X28401Y15801D01*
X28401Y15101D01*
X28439Y15009D01*
X28509Y14939D01*
X28600Y14901D01*
X28699Y14901D01*
X29399Y14901D01*
X29491Y14939D01*
X29561Y15009D01*
X29599Y15100D01*
X29599Y15199D01*
X29599Y15200D01*
X30030Y15200D01*
X30035Y15189D01*
X30189Y15035D01*
X30391Y14951D01*
X30609Y14951D01*
X30811Y15035D01*
X30965Y15189D01*
X31049Y15391D01*
X31049Y14352D01*
X31041Y14360D01*
X30885Y14425D01*
X30716Y14425D01*
X30560Y14361D01*
X30440Y14241D01*
X30375Y14085D01*
X30375Y13916D01*
X30439Y13760D01*
X30559Y13640D01*
X30715Y13575D01*
X30806Y13575D01*
X30807Y13575D01*
X30844Y13550D01*
X30175Y13550D01*
X30175Y14165D01*
X30175Y14334D01*
X30111Y14490D01*
X29991Y14610D01*
X29835Y14675D01*
X29666Y14675D01*
X29510Y14611D01*
X29449Y14550D01*
X28053Y14550D01*
X28053Y15419D01*
X28042Y15637D01*
X27980Y15786D01*
X27885Y15815D01*
X27815Y15745D01*
X27815Y15885D01*
X27786Y15980D01*
X27581Y16053D01*
X27363Y16042D01*
X27214Y15980D01*
X27185Y15885D01*
X27500Y15571D01*
X27815Y15885D01*
X27815Y15745D01*
X27571Y15500D01*
X27885Y15185D01*
X27980Y15214D01*
X28053Y15419D01*
X28053Y14550D01*
X27815Y14550D01*
X27815Y15115D01*
X27500Y15429D01*
X27429Y15359D01*
X27429Y15500D01*
X27115Y15815D01*
X27020Y15786D01*
X26947Y15581D01*
X26958Y15363D01*
X27020Y15214D01*
X27115Y15185D01*
X27429Y15500D01*
X27429Y15359D01*
X27185Y15115D01*
X27214Y15020D01*
X27419Y14947D01*
X27637Y14958D01*
X27786Y15020D01*
X27815Y15115D01*
X27815Y14550D01*
X26549Y14550D01*
X26549Y15391D01*
X26549Y15609D01*
X26465Y15811D01*
X26311Y15965D01*
X26109Y16049D01*
X25891Y16049D01*
X25689Y15965D01*
X25535Y15811D01*
X25451Y15609D01*
X25451Y15391D01*
X25535Y15189D01*
X25689Y15035D01*
X25891Y14951D01*
X26109Y14951D01*
X26311Y15035D01*
X26465Y15189D01*
X26549Y15391D01*
X26549Y14550D01*
X25127Y14550D01*
X25175Y14665D01*
X25175Y14834D01*
X25111Y14990D01*
X25026Y15075D01*
X25084Y15075D01*
X25240Y15139D01*
X25360Y15259D01*
X25425Y15415D01*
X25425Y15584D01*
X25361Y15740D01*
X25241Y15860D01*
X25085Y15925D01*
X24916Y15925D01*
X24760Y15861D01*
X24699Y15800D01*
X23942Y15800D01*
X23798Y15945D01*
X23605Y16025D01*
X23396Y16025D01*
X23203Y15945D01*
X23055Y15798D01*
X22999Y15665D01*
X22945Y15797D01*
X22798Y15945D01*
X22605Y16025D01*
X22396Y16025D01*
X22203Y15945D01*
X22055Y15798D01*
X21999Y15665D01*
X21945Y15797D01*
X21798Y15945D01*
X21605Y16025D01*
X21396Y16025D01*
X21203Y15945D01*
X21055Y15798D01*
X20999Y15665D01*
X20945Y15797D01*
X20798Y15945D01*
X20605Y16025D01*
X20396Y16025D01*
X20203Y15945D01*
X20055Y15798D01*
X19999Y15665D01*
X19945Y15797D01*
X19798Y15945D01*
X19605Y16025D01*
X19396Y16025D01*
X19203Y15945D01*
X19055Y15798D01*
X18999Y15665D01*
X18945Y15797D01*
X18798Y15945D01*
X18605Y16025D01*
X18396Y16025D01*
X18203Y15945D01*
X18055Y15798D01*
X18002Y15671D01*
X17960Y15772D01*
X17868Y15797D01*
X17797Y15726D01*
X17797Y15868D01*
X17772Y15960D01*
X17576Y16030D01*
X17368Y16018D01*
X17228Y15960D01*
X17203Y15868D01*
X17500Y15571D01*
X17797Y15868D01*
X17797Y15726D01*
X17571Y15500D01*
X17868Y15203D01*
X17960Y15228D01*
X17999Y15338D01*
X18055Y15203D01*
X18202Y15055D01*
X18319Y15007D01*
X20037Y13288D01*
X20038Y13288D01*
X20135Y13223D01*
X20249Y13201D01*
X20250Y13200D01*
X20551Y13200D01*
X20699Y13051D01*
X20701Y13050D01*
X19874Y13050D01*
X19212Y13712D01*
X19115Y13777D01*
X19000Y13800D01*
X18942Y13800D01*
X18798Y13945D01*
X18605Y14025D01*
X18396Y14025D01*
X18203Y13945D01*
X18055Y13798D01*
X17975Y13605D01*
X17975Y13396D01*
X18055Y13203D01*
X18202Y13055D01*
X18335Y13000D01*
X18203Y12945D01*
X18055Y12798D01*
X17975Y12605D01*
X17975Y12396D01*
X18055Y12203D01*
X18202Y12055D01*
X18335Y12000D01*
X18203Y11945D01*
X18055Y11798D01*
X17975Y11605D01*
X17975Y11396D01*
X18055Y11203D01*
X18202Y11055D01*
X18276Y11024D01*
X18176Y11024D01*
X18084Y10986D01*
X18014Y10916D01*
X17976Y10825D01*
X17976Y10726D01*
X17976Y10176D01*
X18014Y10084D01*
X18084Y10014D01*
X18175Y9976D01*
X18274Y9976D01*
X18824Y9976D01*
X18916Y10014D01*
X18986Y10084D01*
X19024Y10175D01*
X19024Y10274D01*
X19024Y10824D01*
X18986Y10916D01*
X18916Y10986D01*
X18825Y11024D01*
X18726Y11024D01*
X18722Y11024D01*
X18797Y11055D01*
X18945Y11202D01*
X19025Y11395D01*
X19025Y11604D01*
X18945Y11797D01*
X18798Y11945D01*
X18664Y12001D01*
X18797Y12055D01*
X18945Y12202D01*
X19025Y12395D01*
X19025Y12604D01*
X18945Y12797D01*
X18798Y12945D01*
X18664Y13001D01*
X18797Y13055D01*
X18909Y13167D01*
X19537Y12538D01*
X19538Y12538D01*
X19635Y12473D01*
X19750Y12450D01*
X23500Y12450D01*
X23615Y12473D01*
X23712Y12538D01*
X25124Y13950D01*
X29449Y13950D01*
X29509Y13890D01*
X29665Y13825D01*
X29834Y13825D01*
X29990Y13889D01*
X30110Y14009D01*
X30175Y14165D01*
X30175Y13550D01*
X27301Y13550D01*
X27241Y13610D01*
X27085Y13675D01*
X26916Y13675D01*
X26760Y13611D01*
X26640Y13491D01*
X26575Y13335D01*
X26575Y13166D01*
X26622Y13050D01*
X25801Y13050D01*
X25741Y13110D01*
X25585Y13175D01*
X25416Y13175D01*
X25260Y13111D01*
X25140Y12991D01*
X25075Y12835D01*
X25075Y12666D01*
X25122Y12550D01*
X24551Y12550D01*
X24491Y12610D01*
X24335Y12675D01*
X24166Y12675D01*
X24010Y12611D01*
X23890Y12491D01*
X23825Y12335D01*
X23825Y12166D01*
X23889Y12010D01*
X24009Y11890D01*
X24165Y11825D01*
X24334Y11825D01*
X24490Y11889D01*
X24551Y11950D01*
X25674Y11950D01*
X25535Y11811D01*
X25451Y11609D01*
X25451Y11391D01*
X25535Y11189D01*
X25689Y11035D01*
X25891Y10951D01*
X26109Y10951D01*
X26311Y11035D01*
X26465Y11189D01*
X26549Y11391D01*
X26549Y11609D01*
X26465Y11811D01*
X26326Y11950D01*
X27174Y11950D01*
X27035Y11811D01*
X26951Y11609D01*
X26951Y11391D01*
X27035Y11189D01*
X27189Y11035D01*
X27391Y10951D01*
X27609Y10951D01*
X27811Y11035D01*
X27965Y11189D01*
X28049Y11391D01*
X28049Y11609D01*
X27965Y11811D01*
X27826Y11950D01*
X28658Y11950D01*
X28649Y11921D01*
X29000Y11571D01*
X29351Y11921D01*
X29341Y11950D01*
X30174Y11950D01*
X30035Y11811D01*
X29951Y11609D01*
X29951Y11391D01*
X30035Y11189D01*
X30189Y11035D01*
X30391Y10951D01*
X30609Y10951D01*
X30811Y11035D01*
X30965Y11189D01*
X31049Y11391D01*
X31049Y11609D01*
X30965Y11811D01*
X30826Y11950D01*
X31674Y11950D01*
X31535Y11811D01*
X31451Y11609D01*
X31451Y11391D01*
X31535Y11189D01*
X31689Y11035D01*
X31891Y10951D01*
X32109Y10951D01*
X32311Y11035D01*
X32465Y11189D01*
X32549Y11391D01*
X32549Y11609D01*
X32465Y11811D01*
X32326Y11950D01*
X33174Y11950D01*
X33035Y11811D01*
X32951Y11609D01*
X32951Y11391D01*
X33035Y11189D01*
X33189Y11035D01*
X33391Y10951D01*
X33609Y10951D01*
X33811Y11035D01*
X33965Y11189D01*
X34049Y11391D01*
X34049Y11609D01*
X33965Y11811D01*
X33826Y11950D01*
X34658Y11950D01*
X34649Y11921D01*
X35000Y11571D01*
X35351Y11921D01*
X35341Y11950D01*
X36204Y11950D01*
X36185Y11885D01*
X36500Y11571D01*
X36815Y11885D01*
X36795Y11950D01*
X40699Y11950D01*
X40759Y11890D01*
X40915Y11825D01*
X41084Y11825D01*
X41240Y11889D01*
X41360Y12009D01*
X41425Y12165D01*
X41425Y12334D01*
X41361Y12490D01*
X41241Y12610D01*
X41085Y12675D01*
X40916Y12675D01*
X40760Y12611D01*
X40699Y12550D01*
X36877Y12550D01*
X36925Y12665D01*
X36925Y12834D01*
X36877Y12950D01*
X37699Y12950D01*
X37759Y12890D01*
X37915Y12825D01*
X38084Y12825D01*
X38240Y12889D01*
X38360Y13009D01*
X38425Y13165D01*
X38425Y13334D01*
X38361Y13490D01*
X38351Y13500D01*
X39094Y13500D01*
X39135Y13473D01*
X39250Y13450D01*
X39365Y13473D01*
X39405Y13500D01*
X42899Y13500D01*
X43009Y13390D01*
X43165Y13325D01*
X43334Y13325D01*
X43490Y13389D01*
X43610Y13509D01*
X43675Y13665D01*
X43675Y11387D01*
X43587Y11152D01*
X43596Y10884D01*
X43681Y10677D01*
X43789Y10634D01*
X44195Y11040D01*
X44195Y10898D01*
X43860Y10563D01*
X43903Y10455D01*
X44154Y10361D01*
X44422Y10370D01*
X44629Y10455D01*
X44672Y10563D01*
X44672Y9300D01*
X43000Y9300D01*
X42885Y9277D01*
X42788Y9212D01*
X41876Y8300D01*
X41659Y8300D01*
X41659Y10905D01*
X41659Y11174D01*
X41556Y11422D01*
X41367Y11612D01*
X41119Y11715D01*
X40850Y11715D01*
X40602Y11612D01*
X40412Y11423D01*
X40309Y11175D01*
X40309Y10906D01*
X40412Y10658D01*
X40601Y10468D01*
X40849Y10365D01*
X41118Y10365D01*
X41366Y10468D01*
X41556Y10657D01*
X41659Y10905D01*
X41659Y8300D01*
X40503Y8300D01*
X40492Y8328D01*
X40329Y8491D01*
X40308Y8500D01*
X40328Y8508D01*
X40491Y8671D01*
X40580Y8884D01*
X40580Y9115D01*
X40492Y9328D01*
X40329Y9491D01*
X40116Y9580D01*
X39885Y9580D01*
X39695Y9502D01*
X39695Y10928D01*
X39686Y11196D01*
X39601Y11403D01*
X39493Y11446D01*
X39422Y11375D01*
X39422Y11517D01*
X39379Y11625D01*
X39128Y11719D01*
X38860Y11710D01*
X38653Y11625D01*
X38610Y11517D01*
X39016Y11111D01*
X39422Y11517D01*
X39422Y11375D01*
X39087Y11040D01*
X39493Y10634D01*
X39601Y10677D01*
X39695Y10928D01*
X39695Y9502D01*
X39672Y9492D01*
X39509Y9329D01*
X39422Y9121D01*
X39422Y10563D01*
X39016Y10969D01*
X38945Y10898D01*
X38945Y11040D01*
X38539Y11446D01*
X38431Y11403D01*
X38337Y11152D01*
X38346Y10884D01*
X38431Y10677D01*
X38539Y10634D01*
X38945Y11040D01*
X38945Y10898D01*
X38610Y10563D01*
X38653Y10455D01*
X38904Y10361D01*
X39172Y10370D01*
X39379Y10455D01*
X39422Y10563D01*
X39422Y9121D01*
X39420Y9116D01*
X39420Y8885D01*
X39508Y8672D01*
X39671Y8509D01*
X39691Y8501D01*
X39672Y8492D01*
X39509Y8329D01*
X39420Y8116D01*
X39420Y7885D01*
X39508Y7672D01*
X39671Y7509D01*
X39884Y7420D01*
X40115Y7420D01*
X40328Y7508D01*
X40491Y7671D01*
X40503Y7700D01*
X42000Y7700D01*
X42115Y7723D01*
X42212Y7788D01*
X43124Y8700D01*
X44746Y8700D01*
X44758Y8672D01*
X44921Y8509D01*
X44943Y8500D01*
X44913Y8407D01*
X45250Y8071D01*
X45587Y8407D01*
X45556Y8500D01*
X45578Y8508D01*
X45741Y8671D01*
X45830Y8884D01*
X45830Y7981D01*
X45823Y8141D01*
X45755Y8305D01*
X45657Y8337D01*
X45321Y8000D01*
X45657Y7663D01*
X45755Y7695D01*
X45833Y7912D01*
X45833Y6789D01*
X45819Y6823D01*
X45711Y6866D01*
X45640Y6795D01*
X45640Y6937D01*
X45597Y7045D01*
X45587Y7049D01*
X45587Y7593D01*
X45250Y7929D01*
X45179Y7859D01*
X45179Y8000D01*
X44843Y8337D01*
X44745Y8305D01*
X44667Y8088D01*
X44677Y7859D01*
X44745Y7695D01*
X44843Y7663D01*
X45179Y8000D01*
X45179Y7859D01*
X44913Y7593D01*
X44945Y7495D01*
X45162Y7417D01*
X45391Y7427D01*
X45555Y7495D01*
X45587Y7593D01*
X45587Y7049D01*
X45346Y7139D01*
X45078Y7130D01*
X44871Y7045D01*
X44828Y6937D01*
X45234Y6531D01*
X45640Y6937D01*
X45640Y6795D01*
X45305Y6460D01*
X45711Y6054D01*
X45819Y6097D01*
X45913Y6348D01*
X45913Y1428D01*
X45904Y1696D01*
X45819Y1903D01*
X45711Y1946D01*
X45640Y1875D01*
X45640Y2017D01*
X45640Y5983D01*
X45234Y6389D01*
X45163Y6318D01*
X45163Y6460D01*
X44757Y6866D01*
X44649Y6823D01*
X44555Y6572D01*
X44564Y6304D01*
X44649Y6097D01*
X44757Y6054D01*
X45163Y6460D01*
X45163Y6318D01*
X44828Y5983D01*
X44871Y5875D01*
X45122Y5781D01*
X45390Y5790D01*
X45597Y5875D01*
X45640Y5983D01*
X45640Y2017D01*
X45597Y2125D01*
X45346Y2219D01*
X45078Y2210D01*
X44871Y2125D01*
X44828Y2017D01*
X45234Y1611D01*
X45640Y2017D01*
X45640Y1875D01*
X45305Y1540D01*
X45711Y1134D01*
X45819Y1177D01*
X45913Y1428D01*
X45913Y550D01*
X45640Y550D01*
X45640Y1063D01*
X45234Y1469D01*
X45163Y1398D01*
X45163Y1540D01*
X44757Y1946D01*
X44649Y1903D01*
X44555Y1652D01*
X44564Y1384D01*
X44649Y1177D01*
X44757Y1134D01*
X45163Y1540D01*
X45163Y1398D01*
X44828Y1063D01*
X44871Y955D01*
X45122Y861D01*
X45390Y870D01*
X45597Y955D01*
X45640Y1063D01*
X45640Y550D01*
X43941Y550D01*
X43941Y1405D01*
X43941Y1674D01*
X43941Y6325D01*
X43941Y6594D01*
X43838Y6842D01*
X43649Y7032D01*
X43401Y7135D01*
X43132Y7135D01*
X42884Y7032D01*
X42694Y6843D01*
X42591Y6595D01*
X42591Y6326D01*
X42694Y6078D01*
X42883Y5888D01*
X43131Y5785D01*
X43400Y5785D01*
X43648Y5888D01*
X43838Y6077D01*
X43941Y6325D01*
X43941Y1674D01*
X43838Y1922D01*
X43649Y2112D01*
X43401Y2215D01*
X43132Y2215D01*
X42884Y2112D01*
X42694Y1923D01*
X42591Y1675D01*
X42591Y1406D01*
X42694Y1158D01*
X42883Y968D01*
X43131Y865D01*
X43400Y865D01*
X43648Y968D01*
X43838Y1157D01*
X43941Y1405D01*
X43941Y550D01*
X40663Y550D01*
X40663Y1428D01*
X40663Y6348D01*
X40654Y6616D01*
X40569Y6823D01*
X40461Y6866D01*
X40390Y6795D01*
X40390Y6937D01*
X40347Y7045D01*
X40096Y7139D01*
X39828Y7130D01*
X39621Y7045D01*
X39578Y6937D01*
X39984Y6531D01*
X40390Y6937D01*
X40390Y6795D01*
X40055Y6460D01*
X40461Y6054D01*
X40569Y6097D01*
X40663Y6348D01*
X40663Y1428D01*
X40654Y1696D01*
X40569Y1903D01*
X40461Y1946D01*
X40390Y1875D01*
X40390Y2017D01*
X40390Y5983D01*
X39984Y6389D01*
X39913Y6318D01*
X39913Y6460D01*
X39507Y6866D01*
X39399Y6823D01*
X39305Y6572D01*
X39314Y6304D01*
X39399Y6097D01*
X39507Y6054D01*
X39913Y6460D01*
X39913Y6318D01*
X39578Y5983D01*
X39621Y5875D01*
X39872Y5781D01*
X40140Y5790D01*
X40347Y5875D01*
X40390Y5983D01*
X40390Y2017D01*
X40347Y2125D01*
X40096Y2219D01*
X39828Y2210D01*
X39621Y2125D01*
X39578Y2017D01*
X39984Y1611D01*
X40390Y2017D01*
X40390Y1875D01*
X40055Y1540D01*
X40461Y1134D01*
X40569Y1177D01*
X40663Y1428D01*
X40663Y550D01*
X40390Y550D01*
X40390Y1063D01*
X39984Y1469D01*
X39913Y1398D01*
X39913Y1540D01*
X39507Y1946D01*
X39399Y1903D01*
X39305Y1652D01*
X39314Y1384D01*
X39399Y1177D01*
X39507Y1134D01*
X39913Y1540D01*
X39913Y1398D01*
X39578Y1063D01*
X39621Y955D01*
X39872Y861D01*
X40140Y870D01*
X40347Y955D01*
X40390Y1063D01*
X40390Y550D01*
X38691Y550D01*
X38691Y1405D01*
X38691Y1674D01*
X38691Y6325D01*
X38691Y6594D01*
X38588Y6842D01*
X38399Y7032D01*
X38151Y7135D01*
X37882Y7135D01*
X37634Y7032D01*
X37444Y6843D01*
X37341Y6595D01*
X37341Y6326D01*
X37444Y6078D01*
X37633Y5888D01*
X37881Y5785D01*
X38150Y5785D01*
X38398Y5888D01*
X38588Y6077D01*
X38691Y6325D01*
X38691Y1674D01*
X38588Y1922D01*
X38399Y2112D01*
X38151Y2215D01*
X37882Y2215D01*
X37634Y2112D01*
X37444Y1923D01*
X37341Y1675D01*
X37341Y1406D01*
X37444Y1158D01*
X37633Y968D01*
X37881Y865D01*
X38150Y865D01*
X38398Y968D01*
X38588Y1157D01*
X38691Y1405D01*
X38691Y550D01*
X37053Y550D01*
X37053Y11419D01*
X37042Y11637D01*
X36980Y11786D01*
X36885Y11815D01*
X36571Y11500D01*
X36885Y11185D01*
X36980Y11214D01*
X37053Y11419D01*
X37053Y550D01*
X36815Y550D01*
X36815Y11115D01*
X36500Y11429D01*
X36429Y11359D01*
X36429Y11500D01*
X36115Y11815D01*
X36020Y11786D01*
X35947Y11581D01*
X35958Y11363D01*
X36020Y11214D01*
X36115Y11185D01*
X36429Y11500D01*
X36429Y11359D01*
X36185Y11115D01*
X36214Y11020D01*
X36419Y10947D01*
X36637Y10958D01*
X36786Y11020D01*
X36815Y11115D01*
X36815Y550D01*
X35603Y550D01*
X35603Y11406D01*
X35593Y11644D01*
X35521Y11817D01*
X35421Y11851D01*
X35071Y11500D01*
X35421Y11149D01*
X35521Y11183D01*
X35603Y11406D01*
X35603Y550D01*
X35413Y550D01*
X35413Y1428D01*
X35413Y6348D01*
X35404Y6616D01*
X35351Y6746D01*
X35351Y11079D01*
X35000Y11429D01*
X34929Y11359D01*
X34929Y11500D01*
X34579Y11851D01*
X34479Y11817D01*
X34397Y11594D01*
X34407Y11356D01*
X34479Y11183D01*
X34579Y11149D01*
X34929Y11500D01*
X34929Y11359D01*
X34649Y11079D01*
X34683Y10979D01*
X34906Y10897D01*
X35144Y10907D01*
X35317Y10979D01*
X35351Y11079D01*
X35351Y6746D01*
X35330Y6797D01*
X35330Y7884D01*
X35330Y8115D01*
X35242Y8328D01*
X35079Y8491D01*
X35058Y8500D01*
X35078Y8508D01*
X35241Y8671D01*
X35330Y8884D01*
X35330Y9115D01*
X35242Y9328D01*
X35079Y9491D01*
X34866Y9580D01*
X34635Y9580D01*
X34422Y9492D01*
X34259Y9329D01*
X34170Y9116D01*
X34170Y8885D01*
X34258Y8672D01*
X34421Y8509D01*
X34441Y8501D01*
X34422Y8492D01*
X34259Y8329D01*
X34246Y8300D01*
X33175Y8300D01*
X33175Y10165D01*
X33175Y10334D01*
X33111Y10490D01*
X32991Y10610D01*
X32835Y10675D01*
X32666Y10675D01*
X32510Y10611D01*
X32449Y10550D01*
X32250Y10550D01*
X29603Y10550D01*
X29603Y11406D01*
X29593Y11644D01*
X29521Y11817D01*
X29421Y11851D01*
X29071Y11500D01*
X29421Y11149D01*
X29521Y11183D01*
X29603Y11406D01*
X29603Y10550D01*
X29351Y10550D01*
X29351Y11079D01*
X29000Y11429D01*
X28929Y11359D01*
X28929Y11500D01*
X28579Y11851D01*
X28479Y11817D01*
X28397Y11594D01*
X28407Y11356D01*
X28479Y11183D01*
X28579Y11149D01*
X28929Y11500D01*
X28929Y11359D01*
X28649Y11079D01*
X28683Y10979D01*
X28906Y10897D01*
X29144Y10907D01*
X29317Y10979D01*
X29351Y11079D01*
X29351Y10550D01*
X25301Y10550D01*
X25241Y10610D01*
X25085Y10675D01*
X24916Y10675D01*
X24760Y10611D01*
X24640Y10491D01*
X24575Y10335D01*
X24575Y10166D01*
X24639Y10010D01*
X24759Y9890D01*
X24915Y9825D01*
X25084Y9825D01*
X25240Y9889D01*
X25301Y9950D01*
X32250Y9950D01*
X32449Y9950D01*
X32509Y9890D01*
X32665Y9825D01*
X32834Y9825D01*
X32990Y9889D01*
X33110Y10009D01*
X33175Y10165D01*
X33175Y8300D01*
X32374Y8300D01*
X31462Y9212D01*
X31365Y9277D01*
X31250Y9300D01*
X30003Y9300D01*
X29992Y9328D01*
X29829Y9491D01*
X29616Y9580D01*
X29385Y9580D01*
X29172Y9492D01*
X29009Y9329D01*
X28920Y9116D01*
X28920Y8885D01*
X29008Y8672D01*
X29171Y8509D01*
X29193Y8500D01*
X29163Y8407D01*
X29500Y8071D01*
X29837Y8407D01*
X29806Y8500D01*
X29828Y8508D01*
X29991Y8671D01*
X30003Y8700D01*
X31126Y8700D01*
X32038Y7788D01*
X32135Y7723D01*
X32250Y7700D01*
X34246Y7700D01*
X34258Y7672D01*
X34421Y7509D01*
X34634Y7420D01*
X34865Y7420D01*
X35078Y7508D01*
X35241Y7671D01*
X35330Y7884D01*
X35330Y6797D01*
X35319Y6823D01*
X35211Y6866D01*
X35140Y6795D01*
X35140Y6937D01*
X35097Y7045D01*
X34846Y7139D01*
X34578Y7130D01*
X34371Y7045D01*
X34328Y6937D01*
X34734Y6531D01*
X35140Y6937D01*
X35140Y6795D01*
X34805Y6460D01*
X35211Y6054D01*
X35319Y6097D01*
X35413Y6348D01*
X35413Y1428D01*
X35404Y1696D01*
X35319Y1903D01*
X35211Y1946D01*
X35140Y1875D01*
X35140Y2017D01*
X35140Y5983D01*
X34734Y6389D01*
X34663Y6318D01*
X34663Y6460D01*
X34257Y6866D01*
X34149Y6823D01*
X34055Y6572D01*
X34064Y6304D01*
X34149Y6097D01*
X34257Y6054D01*
X34663Y6460D01*
X34663Y6318D01*
X34328Y5983D01*
X34371Y5875D01*
X34622Y5781D01*
X34890Y5790D01*
X35097Y5875D01*
X35140Y5983D01*
X35140Y2017D01*
X35097Y2125D01*
X34846Y2219D01*
X34578Y2210D01*
X34371Y2125D01*
X34328Y2017D01*
X34734Y1611D01*
X35140Y2017D01*
X35140Y1875D01*
X34805Y1540D01*
X35211Y1134D01*
X35319Y1177D01*
X35413Y1428D01*
X35413Y550D01*
X35140Y550D01*
X35140Y1063D01*
X34734Y1469D01*
X34663Y1398D01*
X34663Y1540D01*
X34257Y1946D01*
X34149Y1903D01*
X34055Y1652D01*
X34064Y1384D01*
X34149Y1177D01*
X34257Y1134D01*
X34663Y1540D01*
X34663Y1398D01*
X34328Y1063D01*
X34371Y955D01*
X34622Y861D01*
X34890Y870D01*
X35097Y955D01*
X35140Y1063D01*
X35140Y550D01*
X33441Y550D01*
X33441Y1405D01*
X33441Y1674D01*
X33441Y6325D01*
X33441Y6594D01*
X33338Y6842D01*
X33149Y7032D01*
X32901Y7135D01*
X32632Y7135D01*
X32384Y7032D01*
X32194Y6843D01*
X32091Y6595D01*
X32091Y6326D01*
X32194Y6078D01*
X32383Y5888D01*
X32631Y5785D01*
X32900Y5785D01*
X33148Y5888D01*
X33338Y6077D01*
X33441Y6325D01*
X33441Y1674D01*
X33338Y1922D01*
X33149Y2112D01*
X32901Y2215D01*
X32632Y2215D01*
X32384Y2112D01*
X32194Y1923D01*
X32091Y1675D01*
X32091Y1406D01*
X32194Y1158D01*
X32383Y968D01*
X32631Y865D01*
X32900Y865D01*
X33148Y968D01*
X33338Y1157D01*
X33441Y1405D01*
X33441Y550D01*
X30163Y550D01*
X30163Y1428D01*
X30163Y6348D01*
X30154Y6616D01*
X30083Y6789D01*
X30083Y7912D01*
X30073Y8141D01*
X30005Y8305D01*
X29907Y8337D01*
X29571Y8000D01*
X29907Y7663D01*
X30005Y7695D01*
X30083Y7912D01*
X30083Y6789D01*
X30069Y6823D01*
X29961Y6866D01*
X29890Y6795D01*
X29890Y6937D01*
X29847Y7045D01*
X29837Y7049D01*
X29837Y7593D01*
X29500Y7929D01*
X29429Y7859D01*
X29429Y8000D01*
X29093Y8337D01*
X28995Y8305D01*
X28917Y8088D01*
X28927Y7859D01*
X28995Y7695D01*
X29093Y7663D01*
X29429Y8000D01*
X29429Y7859D01*
X29163Y7593D01*
X29195Y7495D01*
X29412Y7417D01*
X29641Y7427D01*
X29805Y7495D01*
X29837Y7593D01*
X29837Y7049D01*
X29596Y7139D01*
X29328Y7130D01*
X29121Y7045D01*
X29078Y6937D01*
X29484Y6531D01*
X29890Y6937D01*
X29890Y6795D01*
X29555Y6460D01*
X29961Y6054D01*
X30069Y6097D01*
X30163Y6348D01*
X30163Y1428D01*
X30154Y1696D01*
X30069Y1903D01*
X29961Y1946D01*
X29890Y1875D01*
X29890Y2017D01*
X29890Y5983D01*
X29484Y6389D01*
X29413Y6318D01*
X29413Y6460D01*
X29007Y6866D01*
X28899Y6823D01*
X28805Y6572D01*
X28814Y6304D01*
X28899Y6097D01*
X29007Y6054D01*
X29413Y6460D01*
X29413Y6318D01*
X29078Y5983D01*
X29121Y5875D01*
X29372Y5781D01*
X29640Y5790D01*
X29847Y5875D01*
X29890Y5983D01*
X29890Y2017D01*
X29847Y2125D01*
X29596Y2219D01*
X29328Y2210D01*
X29121Y2125D01*
X29078Y2017D01*
X29484Y1611D01*
X29890Y2017D01*
X29890Y1875D01*
X29555Y1540D01*
X29961Y1134D01*
X30069Y1177D01*
X30163Y1428D01*
X30163Y550D01*
X29890Y550D01*
X29890Y1063D01*
X29484Y1469D01*
X29413Y1398D01*
X29413Y1540D01*
X29007Y1946D01*
X28899Y1903D01*
X28805Y1652D01*
X28814Y1384D01*
X28899Y1177D01*
X29007Y1134D01*
X29413Y1540D01*
X29413Y1398D01*
X29078Y1063D01*
X29121Y955D01*
X29372Y861D01*
X29640Y870D01*
X29847Y955D01*
X29890Y1063D01*
X29890Y550D01*
X28191Y550D01*
X28191Y1405D01*
X28191Y1674D01*
X28191Y6325D01*
X28191Y6594D01*
X28088Y6842D01*
X27899Y7032D01*
X27651Y7135D01*
X27382Y7135D01*
X27134Y7032D01*
X26944Y6843D01*
X26841Y6595D01*
X26841Y6326D01*
X26944Y6078D01*
X27133Y5888D01*
X27381Y5785D01*
X27650Y5785D01*
X27898Y5888D01*
X28088Y6077D01*
X28191Y6325D01*
X28191Y1674D01*
X28088Y1922D01*
X27925Y2086D01*
X27925Y3165D01*
X27925Y3334D01*
X27861Y3490D01*
X27741Y3610D01*
X27585Y3675D01*
X27416Y3675D01*
X27260Y3611D01*
X27199Y3550D01*
X27000Y3550D01*
X24913Y3550D01*
X24913Y6348D01*
X24904Y6616D01*
X24830Y6797D01*
X24830Y7884D01*
X24830Y8115D01*
X24742Y8328D01*
X24579Y8491D01*
X24558Y8500D01*
X24578Y8508D01*
X24741Y8671D01*
X24830Y8884D01*
X24830Y9115D01*
X24742Y9328D01*
X24579Y9491D01*
X24366Y9580D01*
X24135Y9580D01*
X24030Y9537D01*
X24030Y10424D01*
X24025Y10511D01*
X24025Y11395D01*
X24025Y11604D01*
X23945Y11797D01*
X23798Y11945D01*
X23605Y12025D01*
X23396Y12025D01*
X23203Y11945D01*
X23055Y11798D01*
X22975Y11605D01*
X22975Y11396D01*
X23055Y11203D01*
X23202Y11055D01*
X23329Y11003D01*
X23228Y10960D01*
X23203Y10868D01*
X23500Y10571D01*
X23797Y10868D01*
X23772Y10960D01*
X23662Y11000D01*
X23797Y11055D01*
X23945Y11202D01*
X24025Y11395D01*
X24025Y10511D01*
X24018Y10632D01*
X23960Y10772D01*
X23868Y10797D01*
X23571Y10500D01*
X23868Y10203D01*
X23960Y10228D01*
X24030Y10424D01*
X24030Y9537D01*
X23922Y9492D01*
X23797Y9367D01*
X23797Y10132D01*
X23500Y10429D01*
X23429Y10358D01*
X23429Y10500D01*
X23132Y10797D01*
X23040Y10772D01*
X22970Y10576D01*
X22982Y10368D01*
X23040Y10228D01*
X23132Y10203D01*
X23429Y10500D01*
X23429Y10358D01*
X23203Y10132D01*
X23228Y10040D01*
X23424Y9970D01*
X23632Y9982D01*
X23772Y10040D01*
X23797Y10132D01*
X23797Y9367D01*
X23759Y9329D01*
X23670Y9116D01*
X23670Y8885D01*
X23758Y8672D01*
X23921Y8509D01*
X23941Y8501D01*
X23922Y8492D01*
X23759Y8329D01*
X23746Y8300D01*
X22530Y8300D01*
X22530Y10424D01*
X22525Y10511D01*
X22525Y11395D01*
X22525Y11604D01*
X22445Y11797D01*
X22298Y11945D01*
X22105Y12025D01*
X21896Y12025D01*
X21703Y11945D01*
X21555Y11798D01*
X21475Y11605D01*
X21475Y11396D01*
X21555Y11203D01*
X21702Y11055D01*
X21829Y11003D01*
X21728Y10960D01*
X21703Y10868D01*
X22000Y10571D01*
X22297Y10868D01*
X22272Y10960D01*
X22162Y11000D01*
X22297Y11055D01*
X22445Y11202D01*
X22525Y11395D01*
X22525Y10511D01*
X22518Y10632D01*
X22460Y10772D01*
X22368Y10797D01*
X22071Y10500D01*
X22368Y10203D01*
X22460Y10228D01*
X22530Y10424D01*
X22530Y8300D01*
X22297Y8300D01*
X22297Y10132D01*
X22000Y10429D01*
X21929Y10358D01*
X21929Y10500D01*
X21632Y10797D01*
X21540Y10772D01*
X21470Y10576D01*
X21482Y10368D01*
X21540Y10228D01*
X21632Y10203D01*
X21929Y10500D01*
X21929Y10358D01*
X21703Y10132D01*
X21728Y10040D01*
X21924Y9970D01*
X22132Y9982D01*
X22272Y10040D01*
X22297Y10132D01*
X22297Y8300D01*
X21624Y8300D01*
X21030Y8894D01*
X21030Y11424D01*
X21018Y11632D01*
X20960Y11772D01*
X20868Y11797D01*
X20797Y11726D01*
X20797Y11868D01*
X20772Y11960D01*
X20576Y12030D01*
X20368Y12018D01*
X20228Y11960D01*
X20203Y11868D01*
X20500Y11571D01*
X20797Y11868D01*
X20797Y11726D01*
X20571Y11500D01*
X20868Y11203D01*
X20960Y11228D01*
X21030Y11424D01*
X21030Y8894D01*
X21025Y8899D01*
X21025Y10395D01*
X21025Y10604D01*
X20945Y10797D01*
X20798Y10945D01*
X20670Y10998D01*
X20772Y11040D01*
X20797Y11132D01*
X20500Y11429D01*
X20429Y11358D01*
X20429Y11500D01*
X20132Y11797D01*
X20040Y11772D01*
X19970Y11576D01*
X19982Y11368D01*
X20040Y11228D01*
X20132Y11203D01*
X20429Y11500D01*
X20429Y11358D01*
X20203Y11132D01*
X20228Y11040D01*
X20337Y11001D01*
X20203Y10945D01*
X20055Y10798D01*
X19975Y10605D01*
X19975Y10396D01*
X20055Y10203D01*
X20202Y10055D01*
X20395Y9975D01*
X20604Y9975D01*
X20797Y10055D01*
X20945Y10202D01*
X21025Y10395D01*
X21025Y8899D01*
X20712Y9212D01*
X20615Y9277D01*
X20500Y9300D01*
X19503Y9300D01*
X19492Y9328D01*
X19329Y9491D01*
X19116Y9580D01*
X18885Y9580D01*
X18672Y9492D01*
X18509Y9329D01*
X18496Y9300D01*
X16124Y9300D01*
X16030Y9394D01*
X16030Y11424D01*
X16030Y13424D01*
X16018Y13632D01*
X15960Y13772D01*
X15868Y13797D01*
X15797Y13726D01*
X15797Y13868D01*
X15772Y13960D01*
X15576Y14030D01*
X15368Y14018D01*
X15228Y13960D01*
X15203Y13868D01*
X15500Y13571D01*
X15797Y13868D01*
X15797Y13726D01*
X15571Y13500D01*
X15868Y13203D01*
X15960Y13228D01*
X16030Y13424D01*
X16030Y11424D01*
X16018Y11632D01*
X15960Y11772D01*
X15868Y11797D01*
X15571Y11500D01*
X15868Y11203D01*
X15960Y11228D01*
X16030Y11424D01*
X16030Y9394D01*
X15462Y9962D01*
X15442Y9975D01*
X15604Y9975D01*
X15797Y10055D01*
X15945Y10202D01*
X16025Y10395D01*
X16025Y10604D01*
X15945Y10797D01*
X15798Y10945D01*
X15670Y10998D01*
X15772Y11040D01*
X15797Y11132D01*
X15500Y11429D01*
X15429Y11358D01*
X15429Y11500D01*
X15132Y11797D01*
X15040Y11772D01*
X14970Y11576D01*
X14982Y11368D01*
X15040Y11228D01*
X15132Y11203D01*
X15429Y11500D01*
X15429Y11358D01*
X15203Y11132D01*
X15228Y11040D01*
X15337Y11001D01*
X15203Y10945D01*
X15055Y10798D01*
X14975Y10605D01*
X14975Y10396D01*
X15055Y10203D01*
X15202Y10055D01*
X15214Y10050D01*
X14530Y10050D01*
X14530Y11424D01*
X14518Y11632D01*
X14460Y11772D01*
X14368Y11797D01*
X14071Y11500D01*
X14368Y11203D01*
X14460Y11228D01*
X14530Y11424D01*
X14530Y10050D01*
X14284Y10050D01*
X14297Y10055D01*
X14445Y10202D01*
X14525Y10395D01*
X14525Y10604D01*
X14445Y10797D01*
X14298Y10945D01*
X14170Y10998D01*
X14272Y11040D01*
X14297Y11132D01*
X14035Y11394D01*
X14000Y11429D01*
X13929Y11500D01*
X13894Y11535D01*
X13632Y11797D01*
X13540Y11772D01*
X13470Y11576D01*
X13477Y11447D01*
X13387Y11537D01*
X13387Y11950D01*
X13725Y11950D01*
X13703Y11868D01*
X14000Y11571D01*
X14297Y11868D01*
X14274Y11950D01*
X15000Y11950D01*
X15115Y11973D01*
X15212Y12038D01*
X15221Y12048D01*
X15329Y12003D01*
X15228Y11960D01*
X15203Y11868D01*
X15500Y11571D01*
X15797Y11868D01*
X15772Y11960D01*
X15662Y12000D01*
X15797Y12055D01*
X15945Y12202D01*
X16025Y12395D01*
X16025Y12604D01*
X15945Y12797D01*
X15798Y12945D01*
X15670Y12998D01*
X15772Y13040D01*
X15797Y13132D01*
X15500Y13429D01*
X15429Y13358D01*
X15429Y13500D01*
X15132Y13797D01*
X15040Y13772D01*
X14970Y13576D01*
X14982Y13368D01*
X15040Y13228D01*
X15132Y13203D01*
X15429Y13500D01*
X15429Y13358D01*
X15203Y13132D01*
X15228Y13040D01*
X15337Y13001D01*
X15203Y12945D01*
X15055Y12798D01*
X15006Y12682D01*
X14875Y12550D01*
X14530Y12550D01*
X14530Y12924D01*
X14518Y13132D01*
X14460Y13272D01*
X14368Y13297D01*
X14071Y13000D01*
X14368Y12703D01*
X14460Y12728D01*
X14530Y12924D01*
X14530Y12550D01*
X14274Y12550D01*
X14297Y12632D01*
X14000Y12929D01*
X13929Y12858D01*
X13929Y13000D01*
X13632Y13297D01*
X13540Y13272D01*
X13470Y13076D01*
X13482Y12868D01*
X13540Y12728D01*
X13632Y12703D01*
X13929Y13000D01*
X13929Y12858D01*
X13703Y12632D01*
X13725Y12550D01*
X13087Y12550D01*
X13049Y12550D01*
X13049Y13891D01*
X13049Y14109D01*
X12965Y14311D01*
X12811Y14465D01*
X12609Y14549D01*
X12391Y14549D01*
X12189Y14465D01*
X12035Y14311D01*
X11951Y14109D01*
X11951Y13891D01*
X12035Y13689D01*
X12189Y13535D01*
X12391Y13451D01*
X12609Y13451D01*
X12811Y13535D01*
X12965Y13689D01*
X13049Y13891D01*
X13049Y12550D01*
X12801Y12550D01*
X12741Y12610D01*
X12585Y12675D01*
X12416Y12675D01*
X12260Y12611D01*
X12140Y12491D01*
X12075Y12335D01*
X12075Y12166D01*
X12139Y12010D01*
X12259Y11890D01*
X12415Y11825D01*
X12584Y11825D01*
X12740Y11889D01*
X12787Y11936D01*
X12787Y11413D01*
X12794Y11376D01*
X12760Y11361D01*
X12699Y11300D01*
X11549Y11300D01*
X11549Y13891D01*
X11549Y14109D01*
X11465Y14311D01*
X11311Y14465D01*
X11109Y14549D01*
X10891Y14549D01*
X10689Y14465D01*
X10535Y14311D01*
X10451Y14109D01*
X10451Y13891D01*
X10535Y13689D01*
X10689Y13535D01*
X10891Y13451D01*
X11109Y13451D01*
X11311Y13535D01*
X11465Y13689D01*
X11549Y13891D01*
X11549Y11300D01*
X11301Y11300D01*
X11241Y11360D01*
X11085Y11425D01*
X10916Y11425D01*
X10760Y11361D01*
X10640Y11241D01*
X10575Y11085D01*
X10575Y10916D01*
X10621Y10803D01*
X10291Y11133D01*
X10194Y11198D01*
X10079Y11221D01*
X9279Y11221D01*
X9164Y11198D01*
X9067Y11133D01*
X9066Y11133D01*
X9066Y11132D01*
X6520Y8587D01*
X6518Y8632D01*
X6460Y8772D01*
X6368Y8797D01*
X6106Y8535D01*
X6071Y8500D01*
X6000Y8429D01*
X5929Y8500D01*
X6000Y8571D01*
X6035Y8606D01*
X6297Y8868D01*
X6272Y8960D01*
X6162Y9000D01*
X6297Y9055D01*
X6445Y9202D01*
X6525Y9395D01*
X6525Y9601D01*
X8212Y11288D01*
X8277Y11385D01*
X8300Y11500D01*
X8300Y11502D01*
X8325Y11512D01*
X8487Y11674D01*
X8575Y11885D01*
X8575Y12114D01*
X8488Y12325D01*
X8383Y12430D01*
X8466Y12464D01*
X8536Y12534D01*
X8574Y12625D01*
X8574Y12724D01*
X8574Y13374D01*
X8536Y13466D01*
X8466Y13536D01*
X8375Y13574D01*
X8276Y13574D01*
X7626Y13574D01*
X7534Y13536D01*
X7464Y13466D01*
X7426Y13375D01*
X7426Y13286D01*
X7385Y13277D01*
X7287Y13212D01*
X7053Y12978D01*
X7053Y18919D01*
X7042Y19137D01*
X6980Y19286D01*
X6885Y19315D01*
X6571Y19000D01*
X6885Y18685D01*
X6980Y18714D01*
X7053Y18919D01*
X7053Y12978D01*
X7049Y12974D01*
X7049Y14891D01*
X7049Y15109D01*
X6965Y15311D01*
X6815Y15461D01*
X6815Y18615D01*
X6500Y18929D01*
X6429Y18859D01*
X6429Y19000D01*
X6115Y19315D01*
X6020Y19286D01*
X5947Y19081D01*
X5958Y18863D01*
X6020Y18714D01*
X6115Y18685D01*
X6429Y19000D01*
X6429Y18859D01*
X6185Y18615D01*
X6214Y18520D01*
X6419Y18447D01*
X6637Y18458D01*
X6786Y18520D01*
X6815Y18615D01*
X6815Y15461D01*
X6811Y15465D01*
X6609Y15549D01*
X6391Y15549D01*
X6189Y15465D01*
X6035Y15311D01*
X5951Y15109D01*
X5951Y14891D01*
X6035Y14689D01*
X6189Y14535D01*
X6391Y14451D01*
X6609Y14451D01*
X6811Y14535D01*
X6965Y14689D01*
X7049Y14891D01*
X7049Y12974D01*
X5553Y11478D01*
X5553Y15419D01*
X5542Y15637D01*
X5480Y15786D01*
X5385Y15815D01*
X5315Y15745D01*
X5315Y15885D01*
X5286Y15980D01*
X5081Y16053D01*
X4863Y16042D01*
X4714Y15980D01*
X4685Y15885D01*
X5000Y15571D01*
X5315Y15885D01*
X5315Y15745D01*
X5071Y15500D01*
X5385Y15185D01*
X5480Y15214D01*
X5553Y15419D01*
X5553Y11478D01*
X5315Y11240D01*
X5315Y15115D01*
X5000Y15429D01*
X4929Y15359D01*
X4929Y15500D01*
X4615Y15815D01*
X4520Y15786D01*
X4447Y15581D01*
X4458Y15363D01*
X4520Y15214D01*
X4615Y15185D01*
X4929Y15500D01*
X4929Y15359D01*
X4685Y15115D01*
X4714Y15020D01*
X4919Y14947D01*
X5137Y14958D01*
X5286Y15020D01*
X5315Y15115D01*
X5315Y11240D01*
X5024Y10949D01*
X5024Y12175D01*
X5024Y12274D01*
X5024Y12824D01*
X4986Y12916D01*
X4916Y12986D01*
X4825Y13024D01*
X4726Y13024D01*
X4176Y13024D01*
X4084Y12986D01*
X4014Y12916D01*
X3976Y12825D01*
X3976Y12726D01*
X3976Y12723D01*
X3945Y12797D01*
X3798Y12945D01*
X3605Y13025D01*
X3396Y13025D01*
X3203Y12945D01*
X3055Y12798D01*
X2999Y12665D01*
X2945Y12797D01*
X2798Y12945D01*
X2605Y13025D01*
X2396Y13025D01*
X2203Y12945D01*
X2055Y12798D01*
X2002Y12671D01*
X1960Y12772D01*
X1868Y12797D01*
X1797Y12726D01*
X1797Y12868D01*
X1772Y12960D01*
X1576Y13030D01*
X1368Y13018D01*
X1228Y12960D01*
X1203Y12868D01*
X1500Y12571D01*
X1797Y12868D01*
X1797Y12726D01*
X1571Y12500D01*
X1868Y12203D01*
X1960Y12228D01*
X1999Y12338D01*
X2055Y12203D01*
X2202Y12055D01*
X2395Y11975D01*
X2604Y11975D01*
X2797Y12055D01*
X2945Y12202D01*
X3000Y12336D01*
X3055Y12203D01*
X3202Y12055D01*
X3395Y11975D01*
X3604Y11975D01*
X3797Y12055D01*
X3945Y12202D01*
X3976Y12277D01*
X3976Y12176D01*
X4014Y12084D01*
X4084Y12014D01*
X4175Y11976D01*
X4274Y11976D01*
X4824Y11976D01*
X4916Y12014D01*
X4986Y12084D01*
X5024Y12175D01*
X5024Y10949D01*
X4288Y10212D01*
X4223Y10115D01*
X4200Y10000D01*
X4200Y9943D01*
X4055Y9798D01*
X3999Y9665D01*
X3945Y9797D01*
X3798Y9945D01*
X3605Y10025D01*
X3396Y10025D01*
X3203Y9945D01*
X3055Y9798D01*
X3002Y9671D01*
X2960Y9772D01*
X2868Y9797D01*
X2797Y9726D01*
X2797Y9868D01*
X2772Y9960D01*
X2576Y10030D01*
X2368Y10018D01*
X2228Y9960D01*
X2203Y9868D01*
X2500Y9571D01*
X2797Y9868D01*
X2797Y9726D01*
X2606Y9535D01*
X2571Y9500D01*
X2500Y9429D01*
X2429Y9500D01*
X2394Y9535D01*
X2132Y9797D01*
X2040Y9772D01*
X2000Y9663D01*
X1945Y9797D01*
X1798Y9945D01*
X1797Y9946D01*
X1797Y12132D01*
X1500Y12429D01*
X1429Y12358D01*
X1429Y12500D01*
X1132Y12797D01*
X1040Y12772D01*
X970Y12576D01*
X982Y12368D01*
X1040Y12228D01*
X1132Y12203D01*
X1429Y12500D01*
X1429Y12358D01*
X1203Y12132D01*
X1228Y12040D01*
X1424Y11970D01*
X1632Y11982D01*
X1772Y12040D01*
X1797Y12132D01*
X1797Y9946D01*
X1605Y10025D01*
X1396Y10025D01*
X1203Y9945D01*
X1055Y9798D01*
X975Y9605D01*
X975Y9396D01*
X1055Y9203D01*
X1200Y9058D01*
X1200Y9000D01*
X1223Y8885D01*
X1288Y8788D01*
X1385Y8723D01*
X1500Y8700D01*
X5500Y8700D01*
X5515Y8704D01*
X5470Y8576D01*
X5482Y8368D01*
X5510Y8300D01*
X4942Y8300D01*
X4798Y8445D01*
X4605Y8525D01*
X4396Y8525D01*
X4203Y8445D01*
X4055Y8298D01*
X3975Y8105D01*
X3975Y7896D01*
X4055Y7703D01*
X4202Y7555D01*
X4329Y7503D01*
X4228Y7460D01*
X4203Y7368D01*
X4500Y7071D01*
X4797Y7368D01*
X4772Y7460D01*
X4662Y7500D01*
X4797Y7555D01*
X4942Y7700D01*
X6358Y7700D01*
X6473Y7723D01*
X6570Y7788D01*
X7935Y9154D01*
X7920Y9116D01*
X7920Y8885D01*
X8008Y8672D01*
X8171Y8509D01*
X8191Y8501D01*
X8172Y8492D01*
X8009Y8329D01*
X7920Y8116D01*
X7920Y7885D01*
X8008Y7672D01*
X8171Y7509D01*
X8384Y7420D01*
X8615Y7420D01*
X8828Y7508D01*
X8991Y7671D01*
X9003Y7700D01*
X12000Y7700D01*
X12115Y7723D01*
X12212Y7788D01*
X13124Y8700D01*
X13246Y8700D01*
X13258Y8672D01*
X13421Y8509D01*
X13443Y8500D01*
X13413Y8407D01*
X13750Y8071D01*
X14087Y8407D01*
X14056Y8500D01*
X14078Y8508D01*
X14241Y8671D01*
X14330Y8884D01*
X14330Y9115D01*
X14242Y9328D01*
X14120Y9450D01*
X15125Y9450D01*
X15787Y8788D01*
X15788Y8788D01*
X15885Y8723D01*
X16000Y8700D01*
X18496Y8700D01*
X18508Y8672D01*
X18671Y8509D01*
X18693Y8500D01*
X18663Y8407D01*
X19000Y8071D01*
X19337Y8407D01*
X19306Y8500D01*
X19328Y8508D01*
X19491Y8671D01*
X19503Y8700D01*
X20376Y8700D01*
X21288Y7788D01*
X21385Y7723D01*
X21500Y7700D01*
X23746Y7700D01*
X23758Y7672D01*
X23921Y7509D01*
X24134Y7420D01*
X24365Y7420D01*
X24578Y7508D01*
X24741Y7671D01*
X24830Y7884D01*
X24830Y6797D01*
X24819Y6823D01*
X24711Y6866D01*
X24640Y6795D01*
X24640Y6937D01*
X24597Y7045D01*
X24346Y7139D01*
X24078Y7130D01*
X23871Y7045D01*
X23828Y6937D01*
X24234Y6531D01*
X24640Y6937D01*
X24640Y6795D01*
X24305Y6460D01*
X24711Y6054D01*
X24819Y6097D01*
X24913Y6348D01*
X24913Y3550D01*
X24640Y3550D01*
X24640Y5983D01*
X24234Y6389D01*
X24163Y6318D01*
X24163Y6460D01*
X23757Y6866D01*
X23649Y6823D01*
X23555Y6572D01*
X23564Y6304D01*
X23649Y6097D01*
X23757Y6054D01*
X24163Y6460D01*
X24163Y6318D01*
X23828Y5983D01*
X23871Y5875D01*
X24122Y5781D01*
X24390Y5790D01*
X24597Y5875D01*
X24640Y5983D01*
X24640Y3550D01*
X23425Y3550D01*
X23425Y3915D01*
X23425Y4084D01*
X23361Y4240D01*
X23241Y4360D01*
X23085Y4425D01*
X22941Y4425D01*
X22941Y6325D01*
X22941Y6594D01*
X22838Y6842D01*
X22649Y7032D01*
X22401Y7135D01*
X22132Y7135D01*
X21884Y7032D01*
X21694Y6843D01*
X21591Y6595D01*
X21591Y6326D01*
X21694Y6078D01*
X21883Y5888D01*
X22131Y5785D01*
X22400Y5785D01*
X22648Y5888D01*
X22838Y6077D01*
X22941Y6325D01*
X22941Y4425D01*
X22916Y4425D01*
X22760Y4361D01*
X22699Y4300D01*
X22675Y4300D01*
X22675Y4665D01*
X22675Y4834D01*
X22611Y4990D01*
X22491Y5110D01*
X22335Y5175D01*
X22166Y5175D01*
X22010Y5111D01*
X21949Y5050D01*
X20500Y5050D01*
X19663Y5050D01*
X19663Y6348D01*
X19654Y6616D01*
X19583Y6789D01*
X19583Y7912D01*
X19573Y8141D01*
X19505Y8305D01*
X19407Y8337D01*
X19071Y8000D01*
X19407Y7663D01*
X19505Y7695D01*
X19583Y7912D01*
X19583Y6789D01*
X19569Y6823D01*
X19461Y6866D01*
X19390Y6795D01*
X19390Y6937D01*
X19347Y7045D01*
X19337Y7049D01*
X19337Y7593D01*
X19000Y7929D01*
X18929Y7859D01*
X18929Y8000D01*
X18593Y8337D01*
X18495Y8305D01*
X18417Y8088D01*
X18427Y7859D01*
X18495Y7695D01*
X18593Y7663D01*
X18929Y8000D01*
X18929Y7859D01*
X18663Y7593D01*
X18695Y7495D01*
X18912Y7417D01*
X19141Y7427D01*
X19305Y7495D01*
X19337Y7593D01*
X19337Y7049D01*
X19096Y7139D01*
X18828Y7130D01*
X18621Y7045D01*
X18578Y6937D01*
X18984Y6531D01*
X19390Y6937D01*
X19390Y6795D01*
X19055Y6460D01*
X19461Y6054D01*
X19569Y6097D01*
X19663Y6348D01*
X19663Y5050D01*
X19390Y5050D01*
X19390Y5983D01*
X18984Y6389D01*
X18913Y6318D01*
X18913Y6460D01*
X18507Y6866D01*
X18399Y6823D01*
X18305Y6572D01*
X18314Y6304D01*
X18399Y6097D01*
X18507Y6054D01*
X18913Y6460D01*
X18913Y6318D01*
X18578Y5983D01*
X18621Y5875D01*
X18872Y5781D01*
X19140Y5790D01*
X19347Y5875D01*
X19390Y5983D01*
X19390Y5050D01*
X17691Y5050D01*
X17691Y6325D01*
X17691Y6594D01*
X17588Y6842D01*
X17399Y7032D01*
X17151Y7135D01*
X16882Y7135D01*
X16634Y7032D01*
X16444Y6843D01*
X16341Y6595D01*
X16341Y6326D01*
X16444Y6078D01*
X16633Y5888D01*
X16881Y5785D01*
X17150Y5785D01*
X17398Y5888D01*
X17588Y6077D01*
X17691Y6325D01*
X17691Y5050D01*
X16551Y5050D01*
X16491Y5110D01*
X16335Y5175D01*
X16166Y5175D01*
X16010Y5111D01*
X15890Y4991D01*
X15825Y4835D01*
X15825Y4666D01*
X15889Y4510D01*
X16009Y4390D01*
X16165Y4325D01*
X16334Y4325D01*
X16490Y4389D01*
X16551Y4450D01*
X20500Y4450D01*
X21949Y4450D01*
X22009Y4390D01*
X22165Y4325D01*
X22334Y4325D01*
X22490Y4389D01*
X22610Y4509D01*
X22675Y4665D01*
X22675Y4300D01*
X14413Y4300D01*
X14413Y6348D01*
X14404Y6616D01*
X14333Y6789D01*
X14333Y7912D01*
X14323Y8141D01*
X14255Y8305D01*
X14157Y8337D01*
X13821Y8000D01*
X14157Y7663D01*
X14255Y7695D01*
X14333Y7912D01*
X14333Y6789D01*
X14319Y6823D01*
X14211Y6866D01*
X14140Y6795D01*
X14140Y6937D01*
X14097Y7045D01*
X14087Y7049D01*
X14087Y7593D01*
X13750Y7929D01*
X13679Y7859D01*
X13679Y8000D01*
X13343Y8337D01*
X13245Y8305D01*
X13167Y8088D01*
X13177Y7859D01*
X13245Y7695D01*
X13343Y7663D01*
X13679Y8000D01*
X13679Y7859D01*
X13413Y7593D01*
X13445Y7495D01*
X13662Y7417D01*
X13891Y7427D01*
X14055Y7495D01*
X14087Y7593D01*
X14087Y7049D01*
X13846Y7139D01*
X13578Y7130D01*
X13371Y7045D01*
X13328Y6937D01*
X13734Y6531D01*
X14140Y6937D01*
X14140Y6795D01*
X13805Y6460D01*
X14211Y6054D01*
X14319Y6097D01*
X14413Y6348D01*
X14413Y4300D01*
X14140Y4300D01*
X14140Y5983D01*
X13734Y6389D01*
X13663Y6318D01*
X13663Y6460D01*
X13257Y6866D01*
X13149Y6823D01*
X13055Y6572D01*
X13064Y6304D01*
X13149Y6097D01*
X13257Y6054D01*
X13663Y6460D01*
X13663Y6318D01*
X13328Y5983D01*
X13371Y5875D01*
X13622Y5781D01*
X13890Y5790D01*
X14097Y5875D01*
X14140Y5983D01*
X14140Y4300D01*
X12441Y4300D01*
X12441Y6325D01*
X12441Y6594D01*
X12338Y6842D01*
X12149Y7032D01*
X11901Y7135D01*
X11632Y7135D01*
X11384Y7032D01*
X11194Y6843D01*
X11091Y6595D01*
X11091Y6326D01*
X11194Y6078D01*
X11383Y5888D01*
X11631Y5785D01*
X11900Y5785D01*
X12148Y5888D01*
X12338Y6077D01*
X12441Y6325D01*
X12441Y4300D01*
X9163Y4300D01*
X9163Y6348D01*
X9154Y6616D01*
X9069Y6823D01*
X8961Y6866D01*
X8890Y6795D01*
X8890Y6937D01*
X8847Y7045D01*
X8596Y7139D01*
X8328Y7130D01*
X8121Y7045D01*
X8078Y6937D01*
X8484Y6531D01*
X8890Y6937D01*
X8890Y6795D01*
X8555Y6460D01*
X8961Y6054D01*
X9069Y6097D01*
X9163Y6348D01*
X9163Y4300D01*
X8890Y4300D01*
X8890Y5983D01*
X8484Y6389D01*
X8413Y6318D01*
X8413Y6460D01*
X8007Y6866D01*
X7899Y6823D01*
X7805Y6572D01*
X7814Y6304D01*
X7899Y6097D01*
X8007Y6054D01*
X8413Y6460D01*
X8413Y6318D01*
X8078Y5983D01*
X8121Y5875D01*
X8372Y5781D01*
X8640Y5790D01*
X8847Y5875D01*
X8890Y5983D01*
X8890Y4300D01*
X7801Y4300D01*
X7741Y4360D01*
X7585Y4425D01*
X7416Y4425D01*
X7260Y4361D01*
X7191Y4292D01*
X7191Y6325D01*
X7191Y6594D01*
X7088Y6842D01*
X6899Y7032D01*
X6651Y7135D01*
X6382Y7135D01*
X6134Y7032D01*
X5944Y6843D01*
X5841Y6595D01*
X5841Y6326D01*
X5944Y6078D01*
X6133Y5888D01*
X6381Y5785D01*
X6650Y5785D01*
X6898Y5888D01*
X7088Y6077D01*
X7191Y6325D01*
X7191Y4292D01*
X7140Y4241D01*
X7075Y4085D01*
X7075Y3916D01*
X7139Y3760D01*
X7259Y3640D01*
X7415Y3575D01*
X7584Y3575D01*
X7740Y3639D01*
X7801Y3700D01*
X22699Y3700D01*
X22759Y3640D01*
X22915Y3575D01*
X23084Y3575D01*
X23240Y3639D01*
X23360Y3759D01*
X23425Y3915D01*
X23425Y3550D01*
X21551Y3550D01*
X21491Y3610D01*
X21335Y3675D01*
X21166Y3675D01*
X21010Y3611D01*
X20890Y3491D01*
X20825Y3335D01*
X20825Y3166D01*
X20889Y3010D01*
X21009Y2890D01*
X21165Y2825D01*
X21334Y2825D01*
X21490Y2889D01*
X21551Y2950D01*
X27000Y2950D01*
X27199Y2950D01*
X27259Y2890D01*
X27415Y2825D01*
X27584Y2825D01*
X27740Y2889D01*
X27860Y3009D01*
X27925Y3165D01*
X27925Y2086D01*
X27899Y2112D01*
X27651Y2215D01*
X27382Y2215D01*
X27134Y2112D01*
X26944Y1923D01*
X26841Y1675D01*
X26841Y1406D01*
X26944Y1158D01*
X27133Y968D01*
X27381Y865D01*
X27650Y865D01*
X27898Y968D01*
X28088Y1157D01*
X28191Y1405D01*
X28191Y550D01*
X26675Y550D01*
X26675Y2415D01*
X26675Y2584D01*
X26611Y2740D01*
X26491Y2860D01*
X26335Y2925D01*
X26166Y2925D01*
X26010Y2861D01*
X25949Y2800D01*
X25750Y2800D01*
X17301Y2800D01*
X17241Y2860D01*
X17085Y2925D01*
X16916Y2925D01*
X16760Y2861D01*
X16640Y2741D01*
X16575Y2585D01*
X16575Y2416D01*
X16639Y2260D01*
X16742Y2157D01*
X16634Y2112D01*
X16444Y1923D01*
X16341Y1675D01*
X16341Y1406D01*
X16444Y1158D01*
X16633Y968D01*
X16881Y865D01*
X17150Y865D01*
X17398Y968D01*
X17588Y1157D01*
X17691Y1405D01*
X17691Y1674D01*
X17588Y1922D01*
X17399Y2112D01*
X17267Y2167D01*
X17301Y2200D01*
X18803Y2200D01*
X18621Y2125D01*
X18578Y2017D01*
X18984Y1611D01*
X19390Y2017D01*
X19347Y2125D01*
X19146Y2200D01*
X22095Y2200D01*
X21884Y2112D01*
X21694Y1923D01*
X21591Y1675D01*
X21591Y1406D01*
X21694Y1158D01*
X21883Y968D01*
X22131Y865D01*
X22400Y865D01*
X22648Y968D01*
X22838Y1157D01*
X22941Y1405D01*
X22941Y1674D01*
X22838Y1922D01*
X22649Y2112D01*
X22437Y2200D01*
X24053Y2200D01*
X23871Y2125D01*
X23828Y2017D01*
X24234Y1611D01*
X24640Y2017D01*
X24597Y2125D01*
X24396Y2200D01*
X25750Y2200D01*
X25949Y2200D01*
X26009Y2140D01*
X26165Y2075D01*
X26334Y2075D01*
X26490Y2139D01*
X26610Y2259D01*
X26675Y2415D01*
X26675Y550D01*
X24913Y550D01*
X24913Y1428D01*
X24904Y1696D01*
X24819Y1903D01*
X24711Y1946D01*
X24305Y1540D01*
X24711Y1134D01*
X24819Y1177D01*
X24913Y1428D01*
X24913Y550D01*
X24640Y550D01*
X24640Y1063D01*
X24234Y1469D01*
X24163Y1398D01*
X24163Y1540D01*
X23757Y1946D01*
X23649Y1903D01*
X23555Y1652D01*
X23564Y1384D01*
X23649Y1177D01*
X23757Y1134D01*
X24163Y1540D01*
X24163Y1398D01*
X23828Y1063D01*
X23871Y955D01*
X24122Y861D01*
X24390Y870D01*
X24597Y955D01*
X24640Y1063D01*
X24640Y550D01*
X19663Y550D01*
X19663Y1428D01*
X19654Y1696D01*
X19569Y1903D01*
X19461Y1946D01*
X19055Y1540D01*
X19461Y1134D01*
X19569Y1177D01*
X19663Y1428D01*
X19663Y550D01*
X19390Y550D01*
X19390Y1063D01*
X18984Y1469D01*
X18913Y1398D01*
X18913Y1540D01*
X18507Y1946D01*
X18399Y1903D01*
X18305Y1652D01*
X18314Y1384D01*
X18399Y1177D01*
X18507Y1134D01*
X18913Y1540D01*
X18913Y1398D01*
X18578Y1063D01*
X18621Y955D01*
X18872Y861D01*
X19140Y870D01*
X19347Y955D01*
X19390Y1063D01*
X19390Y550D01*
X14413Y550D01*
X14413Y1428D01*
X14404Y1696D01*
X14319Y1903D01*
X14211Y1946D01*
X14140Y1875D01*
X14140Y2017D01*
X14097Y2125D01*
X13846Y2219D01*
X13578Y2210D01*
X13371Y2125D01*
X13328Y2017D01*
X13734Y1611D01*
X14140Y2017D01*
X14140Y1875D01*
X13805Y1540D01*
X14211Y1134D01*
X14319Y1177D01*
X14413Y1428D01*
X14413Y550D01*
X14140Y550D01*
X14140Y1063D01*
X13734Y1469D01*
X13663Y1398D01*
X13663Y1540D01*
X13257Y1946D01*
X13149Y1903D01*
X13055Y1652D01*
X13064Y1384D01*
X13149Y1177D01*
X13257Y1134D01*
X13663Y1540D01*
X13663Y1398D01*
X13328Y1063D01*
X13371Y955D01*
X13622Y861D01*
X13890Y870D01*
X14097Y955D01*
X14140Y1063D01*
X14140Y550D01*
X12441Y550D01*
X12441Y1405D01*
X12441Y1674D01*
X12338Y1922D01*
X12149Y2112D01*
X11901Y2215D01*
X11632Y2215D01*
X11384Y2112D01*
X11194Y1923D01*
X11091Y1675D01*
X11091Y1406D01*
X11194Y1158D01*
X11383Y968D01*
X11631Y865D01*
X11900Y865D01*
X12148Y968D01*
X12338Y1157D01*
X12441Y1405D01*
X12441Y550D01*
X10425Y550D01*
X10425Y2915D01*
X10425Y3084D01*
X10361Y3240D01*
X10241Y3360D01*
X10085Y3425D01*
X9916Y3425D01*
X9760Y3361D01*
X9699Y3300D01*
X6801Y3300D01*
X6741Y3360D01*
X6585Y3425D01*
X6416Y3425D01*
X6260Y3361D01*
X6140Y3241D01*
X6075Y3085D01*
X6075Y2916D01*
X6139Y2760D01*
X6259Y2640D01*
X6415Y2575D01*
X6584Y2575D01*
X6740Y2639D01*
X6801Y2700D01*
X9699Y2700D01*
X9759Y2640D01*
X9915Y2575D01*
X10084Y2575D01*
X10240Y2639D01*
X10360Y2759D01*
X10425Y2915D01*
X10425Y550D01*
X9163Y550D01*
X9163Y1428D01*
X9154Y1696D01*
X9069Y1903D01*
X8961Y1946D01*
X8890Y1875D01*
X8890Y2017D01*
X8847Y2125D01*
X8596Y2219D01*
X8328Y2210D01*
X8121Y2125D01*
X8078Y2017D01*
X8484Y1611D01*
X8890Y2017D01*
X8890Y1875D01*
X8555Y1540D01*
X8961Y1134D01*
X9069Y1177D01*
X9163Y1428D01*
X9163Y550D01*
X8890Y550D01*
X8890Y1063D01*
X8484Y1469D01*
X8413Y1398D01*
X8413Y1540D01*
X8007Y1946D01*
X7899Y1903D01*
X7805Y1652D01*
X7814Y1384D01*
X7899Y1177D01*
X8007Y1134D01*
X8413Y1540D01*
X8413Y1398D01*
X8078Y1063D01*
X8121Y955D01*
X8372Y861D01*
X8640Y870D01*
X8847Y955D01*
X8890Y1063D01*
X8890Y550D01*
X7191Y550D01*
X7191Y1405D01*
X7191Y1674D01*
X7088Y1922D01*
X6899Y2112D01*
X6651Y2215D01*
X6382Y2215D01*
X6134Y2112D01*
X5944Y1923D01*
X5841Y1675D01*
X5841Y1406D01*
X5944Y1158D01*
X6133Y968D01*
X6381Y865D01*
X6650Y865D01*
X6898Y968D01*
X7088Y1157D01*
X7191Y1405D01*
X7191Y550D01*
X5030Y550D01*
X5030Y6924D01*
X5018Y7132D01*
X4960Y7272D01*
X4868Y7297D01*
X4571Y7000D01*
X4868Y6703D01*
X4960Y6728D01*
X5030Y6924D01*
X5030Y550D01*
X4797Y550D01*
X4797Y6632D01*
X4500Y6929D01*
X4429Y6858D01*
X4429Y7000D01*
X4132Y7297D01*
X4040Y7272D01*
X3970Y7076D01*
X3982Y6868D01*
X4040Y6728D01*
X4132Y6703D01*
X4429Y7000D01*
X4429Y6858D01*
X4203Y6632D01*
X4228Y6540D01*
X4424Y6470D01*
X4632Y6482D01*
X4772Y6540D01*
X4797Y6632D01*
X4797Y550D01*
X4549Y550D01*
X4549Y1391D01*
X4549Y1609D01*
X4549Y5391D01*
X4549Y5609D01*
X4465Y5811D01*
X4311Y5965D01*
X4109Y6049D01*
X3891Y6049D01*
X3775Y6001D01*
X3775Y6895D01*
X3775Y7104D01*
X3695Y7297D01*
X3548Y7445D01*
X3414Y7501D01*
X3547Y7555D01*
X3695Y7702D01*
X3775Y7895D01*
X3775Y8104D01*
X3695Y8297D01*
X3548Y8445D01*
X3355Y8525D01*
X3146Y8525D01*
X2953Y8445D01*
X2805Y8298D01*
X2725Y8105D01*
X2725Y7896D01*
X2805Y7703D01*
X2952Y7555D01*
X3085Y7500D01*
X2953Y7445D01*
X2805Y7298D01*
X2725Y7105D01*
X2725Y6896D01*
X2805Y6703D01*
X2952Y6555D01*
X3145Y6475D01*
X3354Y6475D01*
X3547Y6555D01*
X3695Y6702D01*
X3775Y6895D01*
X3775Y6001D01*
X3689Y5965D01*
X3535Y5811D01*
X3451Y5609D01*
X3451Y5391D01*
X3535Y5189D01*
X3689Y5035D01*
X3891Y4951D01*
X4109Y4951D01*
X4311Y5035D01*
X4465Y5189D01*
X4549Y5391D01*
X4549Y1609D01*
X4465Y1811D01*
X4311Y1965D01*
X4109Y2049D01*
X3891Y2049D01*
X3689Y1965D01*
X3535Y1811D01*
X3451Y1609D01*
X3451Y1391D01*
X3535Y1189D01*
X3689Y1035D01*
X3891Y951D01*
X4109Y951D01*
X4311Y1035D01*
X4465Y1189D01*
X4549Y1391D01*
X4549Y550D01*
X2600Y550D01*
X2978Y928D01*
X3199Y1460D01*
X3200Y2037D01*
X2980Y2570D01*
X2572Y2978D01*
X2530Y2996D01*
X2530Y7924D01*
X2518Y8132D01*
X2460Y8272D01*
X2368Y8297D01*
X2297Y8226D01*
X2297Y8368D01*
X2272Y8460D01*
X2076Y8530D01*
X1868Y8518D01*
X1728Y8460D01*
X1703Y8368D01*
X2000Y8071D01*
X2297Y8368D01*
X2297Y8226D01*
X2071Y8000D01*
X2368Y7703D01*
X2460Y7728D01*
X2530Y7924D01*
X2530Y2996D01*
X2525Y2998D01*
X2525Y6895D01*
X2525Y7104D01*
X2445Y7297D01*
X2298Y7445D01*
X2170Y7498D01*
X2272Y7540D01*
X2297Y7632D01*
X2000Y7929D01*
X1929Y7858D01*
X1929Y8000D01*
X1632Y8297D01*
X1540Y8272D01*
X1470Y8076D01*
X1482Y7868D01*
X1540Y7728D01*
X1632Y7703D01*
X1929Y8000D01*
X1929Y7858D01*
X1703Y7632D01*
X1728Y7540D01*
X1837Y7501D01*
X1703Y7445D01*
X1555Y7298D01*
X1475Y7105D01*
X1475Y6896D01*
X1555Y6703D01*
X1702Y6555D01*
X1895Y6475D01*
X2104Y6475D01*
X2297Y6555D01*
X2445Y6702D01*
X2525Y6895D01*
X2525Y2998D01*
X2040Y3199D01*
X1553Y3200D01*
X1553Y5669D01*
X1542Y5887D01*
X1480Y6036D01*
X1385Y6065D01*
X1315Y5995D01*
X1315Y6135D01*
X1286Y6230D01*
X1081Y6303D01*
X863Y6292D01*
X714Y6230D01*
X685Y6135D01*
X1000Y5821D01*
X1315Y6135D01*
X1315Y5995D01*
X1071Y5750D01*
X1385Y5435D01*
X1480Y5464D01*
X1553Y5669D01*
X1553Y3200D01*
X1463Y3200D01*
X930Y2980D01*
X550Y2600D01*
X550Y3424D01*
X689Y3285D01*
X891Y3201D01*
X1109Y3201D01*
X1311Y3285D01*
X1465Y3439D01*
X1549Y3641D01*
X1549Y3859D01*
X1465Y4061D01*
X1311Y4215D01*
X1226Y4250D01*
X1311Y4285D01*
X1465Y4439D01*
X1549Y4641D01*
X1549Y4859D01*
X1465Y5061D01*
X1311Y5215D01*
X1232Y5248D01*
X1286Y5270D01*
X1315Y5365D01*
X1000Y5679D01*
X685Y5365D01*
X714Y5270D01*
X771Y5250D01*
X689Y5215D01*
X550Y5076D01*
X550Y5455D01*
X615Y5435D01*
X929Y5750D01*
X615Y6065D01*
X550Y6046D01*
X550Y13716D01*
X555Y13703D01*
X702Y13555D01*
X895Y13475D01*
X1104Y13475D01*
X1297Y13555D01*
X1445Y13702D01*
X1500Y13836D01*
X1555Y13703D01*
X1702Y13555D01*
X1895Y13475D01*
X2104Y13475D01*
X2297Y13555D01*
X2445Y13702D01*
X2525Y13895D01*
X2525Y14104D01*
X2445Y14297D01*
X2298Y14445D01*
X2105Y14525D01*
X1896Y14525D01*
X1703Y14445D01*
X1555Y14298D01*
X1499Y14165D01*
X1445Y14297D01*
X1298Y14445D01*
X1105Y14525D01*
X896Y14525D01*
X703Y14445D01*
X555Y14298D01*
X550Y14286D01*
X550Y15174D01*
X689Y15035D01*
X891Y14951D01*
X1109Y14951D01*
X1311Y15035D01*
X1465Y15189D01*
X1549Y15391D01*
X1549Y15609D01*
X1465Y15811D01*
X1311Y15965D01*
X1109Y16049D01*
X891Y16049D01*
X689Y15965D01*
X550Y15826D01*
X550Y17400D01*
X928Y17022D01*
X1460Y16801D01*
X2037Y16800D01*
X2570Y17020D01*
X2978Y17428D01*
X3199Y17960D01*
X3200Y18537D01*
X2980Y19070D01*
X2600Y19450D01*
X3644Y19450D01*
X3517Y19323D01*
X3430Y19114D01*
X3430Y18887D01*
X3517Y18677D01*
X3677Y18517D01*
X3717Y18500D01*
X3677Y18483D01*
X3517Y18323D01*
X3430Y18114D01*
X3430Y17887D01*
X3517Y17677D01*
X3677Y17517D01*
X3745Y17489D01*
X3689Y17465D01*
X3535Y17311D01*
X3451Y17109D01*
X3451Y16891D01*
X3535Y16689D01*
X3689Y16535D01*
X3891Y16451D01*
X4109Y16451D01*
X4311Y16535D01*
X4465Y16689D01*
X4500Y16774D01*
X4529Y16704D01*
X3288Y15462D01*
X3223Y15365D01*
X3200Y15250D01*
X3200Y14443D01*
X3055Y14298D01*
X2975Y14105D01*
X2975Y13896D01*
X3055Y13703D01*
X3202Y13555D01*
X3395Y13475D01*
X3604Y13475D01*
X3797Y13555D01*
X3945Y13702D01*
X4000Y13836D01*
X4055Y13703D01*
X4202Y13555D01*
X4395Y13475D01*
X4604Y13475D01*
X4797Y13555D01*
X4945Y13702D01*
X5025Y13895D01*
X5025Y14104D01*
X4945Y14297D01*
X4798Y14445D01*
X4605Y14525D01*
X4396Y14525D01*
X4203Y14445D01*
X4055Y14298D01*
X3999Y14165D01*
X3945Y14297D01*
X3800Y14443D01*
X3800Y15126D01*
X5136Y16463D01*
X5311Y16535D01*
X5465Y16689D01*
X5549Y16891D01*
X5549Y17109D01*
X5465Y17311D01*
X5311Y17465D01*
X5254Y17489D01*
X5323Y17517D01*
X5483Y17677D01*
X5570Y17886D01*
X5570Y18113D01*
X5483Y18323D01*
X5323Y18483D01*
X5282Y18501D01*
X5323Y18517D01*
X5483Y18677D01*
X5570Y18886D01*
X5570Y19113D01*
X5483Y19323D01*
X5356Y19450D01*
X6204Y19450D01*
X6185Y19385D01*
X6500Y19071D01*
X6815Y19385D01*
X6795Y19450D01*
X7424Y19450D01*
X7285Y19311D01*
X7201Y19109D01*
X7201Y18891D01*
X7285Y18689D01*
X7439Y18535D01*
X7641Y18451D01*
X7859Y18451D01*
X8061Y18535D01*
X8215Y18689D01*
X8299Y18891D01*
X8299Y19109D01*
X8215Y19311D01*
X8076Y19450D01*
X16026Y19450D01*
X15601Y19025D01*
X15396Y19025D01*
X15203Y18945D01*
X15055Y18798D01*
X14999Y18665D01*
X14945Y18797D01*
X14798Y18945D01*
X14605Y19025D01*
X14396Y19025D01*
X14203Y18945D01*
X14055Y18798D01*
X13999Y18665D01*
X13945Y18797D01*
X13798Y18945D01*
X13605Y19025D01*
X13396Y19025D01*
X13203Y18945D01*
X13055Y18798D01*
X12999Y18665D01*
X12945Y18797D01*
X12798Y18945D01*
X12605Y19025D01*
X12396Y19025D01*
X12203Y18945D01*
X12055Y18798D01*
X11999Y18665D01*
X11945Y18797D01*
X11798Y18945D01*
X11605Y19025D01*
X11396Y19025D01*
X11203Y18945D01*
X11055Y18798D01*
X10999Y18665D01*
X10945Y18797D01*
X10798Y18945D01*
X10605Y19025D01*
X10396Y19025D01*
X10203Y18945D01*
X10055Y18798D01*
X9975Y18605D01*
X9975Y18396D01*
X10055Y18203D01*
X10202Y18055D01*
X10395Y17975D01*
X10604Y17975D01*
X10797Y18055D01*
X10945Y18202D01*
X11000Y18336D01*
X11055Y18203D01*
X11200Y18058D01*
X11200Y17875D01*
X11125Y17800D01*
X8801Y17800D01*
X8741Y17860D01*
X8585Y17925D01*
X8416Y17925D01*
X8260Y17861D01*
X8140Y17741D01*
X8075Y17585D01*
X8075Y17416D01*
X8139Y17260D01*
X8259Y17140D01*
X8415Y17075D01*
X8584Y17075D01*
X8740Y17139D01*
X8801Y17200D01*
X11250Y17200D01*
X11365Y17223D01*
X11462Y17288D01*
X11712Y17537D01*
X11712Y17538D01*
X11777Y17635D01*
X11799Y17750D01*
X11800Y17750D01*
X11800Y18058D01*
X11945Y18202D01*
X12000Y18336D01*
X12055Y18203D01*
X12202Y18055D01*
X12395Y17975D01*
X12604Y17975D01*
X12797Y18055D01*
X12945Y18202D01*
X13000Y18336D01*
X13055Y18203D01*
X13202Y18055D01*
X13395Y17975D01*
X13604Y17975D01*
X13797Y18055D01*
X13945Y18202D01*
X14000Y18336D01*
X14055Y18203D01*
X14202Y18055D01*
X14395Y17975D01*
X14604Y17975D01*
X14797Y18055D01*
X14945Y18202D01*
X15000Y18336D01*
X15055Y18203D01*
X15202Y18055D01*
X15395Y17975D01*
X15604Y17975D01*
X15797Y18055D01*
X15945Y18202D01*
X15997Y18330D01*
X16040Y18228D01*
X16132Y18203D01*
X16394Y18465D01*
X16429Y18500D01*
X16500Y18571D01*
X16535Y18606D01*
X16797Y18868D01*
X16772Y18960D01*
X16576Y19030D01*
X16446Y19023D01*
X16870Y19446D01*
X21522Y19446D01*
X21288Y19212D01*
X21223Y19115D01*
X21200Y19000D01*
X21200Y18943D01*
X21055Y18798D01*
X20999Y18665D01*
X20945Y18797D01*
X20798Y18945D01*
X20605Y19025D01*
X20396Y19025D01*
X20203Y18945D01*
X20055Y18798D01*
X19999Y18665D01*
X19945Y18797D01*
X19798Y18945D01*
X19605Y19025D01*
X19396Y19025D01*
X19203Y18945D01*
X19055Y18798D01*
X18999Y18665D01*
X18945Y18797D01*
X18798Y18945D01*
X18605Y19025D01*
X18396Y19025D01*
X18203Y18945D01*
X18055Y18798D01*
X17999Y18665D01*
X17945Y18797D01*
X17798Y18945D01*
X17605Y19025D01*
X17396Y19025D01*
X17203Y18945D01*
X17055Y18798D01*
X17002Y18671D01*
X16960Y18772D01*
X16868Y18797D01*
X16571Y18500D01*
X16868Y18203D01*
X16960Y18228D01*
X16999Y18338D01*
X17055Y18203D01*
X17202Y18055D01*
X17395Y17975D01*
X17604Y17975D01*
X17797Y18055D01*
X17945Y18202D01*
X18000Y18336D01*
X18055Y18203D01*
X18202Y18055D01*
X18395Y17975D01*
X18604Y17975D01*
X18797Y18055D01*
X18945Y18202D01*
X19000Y18336D01*
X19055Y18203D01*
X19202Y18055D01*
X19395Y17975D01*
X19604Y17975D01*
X19797Y18055D01*
X19945Y18202D01*
X20000Y18336D01*
X20055Y18203D01*
X20200Y18058D01*
X20200Y18000D01*
X20223Y17885D01*
X20288Y17788D01*
X20385Y17723D01*
X20500Y17700D01*
X24949Y17700D01*
X25009Y17640D01*
X25165Y17575D01*
X25334Y17575D01*
X25490Y17639D01*
X25610Y17759D01*
X25624Y17795D01*
X25639Y17760D01*
X25759Y17640D01*
X25794Y17626D01*
X25760Y17611D01*
X25699Y17550D01*
X19801Y17550D01*
X19741Y17610D01*
X19585Y17675D01*
X19416Y17675D01*
X19260Y17611D01*
X19140Y17491D01*
X19075Y17335D01*
X19075Y17166D01*
X19076Y17162D01*
X16797Y17162D01*
X16797Y18132D01*
X16500Y18429D01*
X16203Y18132D01*
X16228Y18040D01*
X16424Y17970D01*
X16632Y17982D01*
X16772Y18040D01*
X16797Y18132D01*
X16797Y17162D01*
X16138Y17162D01*
X15012Y17162D01*
X14925Y17250D01*
X14925Y17334D01*
X14861Y17490D01*
X14741Y17610D01*
X14585Y17675D01*
X14416Y17675D01*
X14260Y17611D01*
X14140Y17491D01*
X14075Y17335D01*
X14075Y17166D01*
X14139Y17010D01*
X14259Y16890D01*
X14415Y16825D01*
X14500Y16825D01*
X14525Y16800D01*
X11000Y16800D01*
X10885Y16777D01*
X10788Y16712D01*
X10288Y16212D01*
X10223Y16115D01*
X10204Y16024D01*
X10176Y16024D01*
X10084Y15986D01*
X10014Y15916D01*
X9976Y15825D01*
X9976Y15800D01*
X8000Y15800D01*
X7885Y15777D01*
X7787Y15712D01*
X7613Y15538D01*
X7439Y15465D01*
X7285Y15311D01*
X7201Y15109D01*
X7201Y14891D01*
X7285Y14689D01*
X7439Y14535D01*
X7641Y14451D01*
X7859Y14451D01*
X8061Y14535D01*
X8215Y14689D01*
X8299Y14891D01*
X8299Y15109D01*
X8261Y15200D01*
X9976Y15200D01*
X9976Y15176D01*
X10014Y15084D01*
X10084Y15014D01*
X10175Y14976D01*
X10274Y14976D01*
X10824Y14976D01*
X10916Y15014D01*
X10986Y15084D01*
X11024Y15175D01*
X11024Y15274D01*
X11024Y15278D01*
X11055Y15203D01*
X11202Y15055D01*
X11395Y14975D01*
X11604Y14975D01*
X11797Y15055D01*
X11945Y15202D01*
X12000Y15336D01*
X12055Y15203D01*
X12202Y15055D01*
X12395Y14975D01*
X12604Y14975D01*
X12797Y15055D01*
X12945Y15202D01*
X13000Y15336D01*
X13055Y15203D01*
X13200Y15058D01*
X13200Y15000D01*
X13223Y14885D01*
X13288Y14788D01*
X13537Y14538D01*
X13538Y14538D01*
X13635Y14473D01*
X13726Y14455D01*
X13703Y14445D01*
X13555Y14298D01*
X13475Y14105D01*
X13475Y13896D01*
X13555Y13703D01*
X13702Y13555D01*
X13829Y13503D01*
X13728Y13460D01*
X13703Y13368D01*
X14000Y13071D01*
X14297Y13368D01*
X14272Y13460D01*
X14162Y13500D01*
X14297Y13555D01*
X14445Y13702D01*
X14525Y13895D01*
X14525Y14104D01*
X14445Y14297D01*
X14298Y14445D01*
X14285Y14450D01*
X15625Y14450D01*
X16700Y13376D01*
X16700Y13051D01*
X16640Y12991D01*
X16575Y12835D01*
X16575Y12666D01*
X16639Y12510D01*
X16759Y12390D01*
X16915Y12325D01*
X17084Y12325D01*
X17200Y12373D01*
X17200Y11750D01*
X17200Y10301D01*
X17140Y10241D01*
X17075Y10085D01*
X17075Y9916D01*
X17139Y9760D01*
X17259Y9640D01*
X17415Y9575D01*
X17584Y9575D01*
X17740Y9639D01*
X17860Y9759D01*
X17925Y9915D01*
X17925Y10084D01*
X17861Y10240D01*
X17800Y10301D01*
X17800Y11750D01*
X17800Y13449D01*
X17860Y13509D01*
X17925Y13665D01*
X17925Y13834D01*
X17861Y13990D01*
X17797Y14054D01*
X17797Y15132D01*
X17500Y15429D01*
X17203Y15132D01*
X17228Y15040D01*
X17424Y14970D01*
X17632Y14982D01*
X17772Y15040D01*
X17797Y15132D01*
X17797Y14054D01*
X17741Y14110D01*
X17585Y14175D01*
X17416Y14175D01*
X17260Y14111D01*
X17140Y13991D01*
X17079Y13846D01*
X15962Y14962D01*
X15865Y15027D01*
X15773Y15046D01*
X15797Y15055D01*
X15945Y15202D01*
X16000Y15336D01*
X16055Y15203D01*
X16202Y15055D01*
X16395Y14975D01*
X16604Y14975D01*
X16797Y15055D01*
X16945Y15202D01*
X16997Y15330D01*
X17040Y15228D01*
X17132Y15203D01*
X17429Y15500D01*
X17132Y15797D01*
X17040Y15772D01*
X17000Y15663D01*
X16945Y15797D01*
X16798Y15945D01*
X16605Y16025D01*
X16396Y16025D01*
X16203Y15945D01*
X16055Y15798D01*
X15999Y15665D01*
X15945Y15797D01*
X15798Y15945D01*
X15605Y16025D01*
X15396Y16025D01*
X15203Y15945D01*
X15055Y15798D01*
X14999Y15665D01*
X14945Y15797D01*
X14798Y15945D01*
X14605Y16025D01*
X14396Y16025D01*
X14203Y15945D01*
X14055Y15798D01*
X13999Y15665D01*
X13945Y15797D01*
X13798Y15945D01*
X13605Y16025D01*
X13396Y16025D01*
X13203Y15945D01*
X13055Y15798D01*
X12999Y15665D01*
X12945Y15797D01*
X12798Y15945D01*
X12605Y16025D01*
X12396Y16025D01*
X12203Y15945D01*
X12055Y15798D01*
X11999Y15665D01*
X11945Y15797D01*
X11798Y15945D01*
X11605Y16025D01*
X11396Y16025D01*
X11203Y15945D01*
X11055Y15798D01*
X11024Y15724D01*
X11024Y15824D01*
X10986Y15916D01*
X10916Y15986D01*
X10911Y15988D01*
X11124Y16200D01*
X27750Y16200D01*
X27865Y16223D01*
X27962Y16288D01*
X28129Y16456D01*
X28141Y16451D01*
X28359Y16451D01*
X28561Y16535D01*
X28715Y16689D01*
X28747Y16768D01*
X28770Y16714D01*
X28865Y16685D01*
X29179Y17000D01*
X28865Y17315D01*
X28770Y17286D01*
X28749Y17229D01*
X28715Y17311D01*
X28561Y17465D01*
X28476Y17500D01*
X28561Y17535D01*
X28715Y17689D01*
X28750Y17774D01*
X28785Y17689D01*
X28939Y17535D01*
X29017Y17503D01*
X28964Y17480D01*
X28935Y17385D01*
X29250Y17071D01*
X29565Y17385D01*
X29536Y17480D01*
X29478Y17501D01*
X29561Y17535D01*
X29715Y17689D01*
X29719Y17700D01*
X29750Y17700D01*
X29865Y17723D01*
X29962Y17788D01*
X30212Y18037D01*
X30212Y18038D01*
X30277Y18135D01*
X30299Y18250D01*
X30300Y18250D01*
X30300Y19250D01*
X30277Y19365D01*
X30223Y19446D01*
X30479Y19446D01*
X30476Y19443D01*
X30357Y19156D01*
X30357Y18845D01*
X30476Y18558D01*
X30695Y18338D01*
X30982Y18219D01*
X31293Y18219D01*
X31580Y18338D01*
X31800Y18557D01*
X31919Y18844D01*
X31919Y19155D01*
X31800Y19442D01*
X31796Y19446D01*
X32000Y19446D01*
X32350Y19446D01*
X33630Y19446D01*
X34026Y19050D01*
X32450Y19050D01*
X32335Y19027D01*
X32238Y18962D01*
X31326Y18050D01*
X31051Y18050D01*
X30991Y18110D01*
X30835Y18175D01*
X30666Y18175D01*
X30510Y18111D01*
X30390Y17991D01*
X30325Y17835D01*
X30325Y17666D01*
X30389Y17510D01*
X30509Y17390D01*
X30665Y17325D01*
X30834Y17325D01*
X30990Y17389D01*
X31051Y17450D01*
X31450Y17450D01*
X31565Y17473D01*
X31662Y17538D01*
X32574Y18450D01*
X32793Y18450D01*
X32714Y18417D01*
X32685Y18322D01*
X33000Y18008D01*
X33315Y18322D01*
X33286Y18417D01*
X33193Y18450D01*
X33804Y18450D01*
X33689Y18402D01*
X33535Y18248D01*
X33502Y18170D01*
X33480Y18223D01*
X33385Y18252D01*
X33071Y17937D01*
X33385Y17622D01*
X33480Y17651D01*
X33500Y17709D01*
X33535Y17626D01*
X33617Y17544D01*
X33535Y17461D01*
X33500Y17377D01*
X33465Y17461D01*
X33311Y17615D01*
X33209Y17658D01*
X33000Y17866D01*
X32929Y17796D01*
X32929Y17937D01*
X32615Y18252D01*
X32520Y18223D01*
X32447Y18018D01*
X32458Y17800D01*
X32520Y17651D01*
X32615Y17622D01*
X32929Y17937D01*
X32929Y17796D01*
X32790Y17658D01*
X32689Y17615D01*
X32535Y17461D01*
X32451Y17259D01*
X32451Y17041D01*
X32535Y16839D01*
X32689Y16685D01*
X32891Y16601D01*
X33109Y16601D01*
X33311Y16685D01*
X33465Y16839D01*
X33500Y16924D01*
X33535Y16839D01*
X33689Y16685D01*
X33700Y16681D01*
X33700Y16500D01*
X33723Y16385D01*
X33788Y16288D01*
X34401Y15675D01*
X34401Y15101D01*
X34439Y15009D01*
X34509Y14939D01*
X34600Y14901D01*
X34699Y14901D01*
X35399Y14901D01*
X35491Y14939D01*
X35561Y15009D01*
X35599Y15100D01*
X35599Y15199D01*
X35599Y15899D01*
X35561Y15991D01*
X35491Y16061D01*
X35400Y16099D01*
X35301Y16099D01*
X34825Y16099D01*
X34300Y16624D01*
X34300Y16681D01*
X34311Y16685D01*
X34465Y16839D01*
X34549Y17041D01*
X34549Y17259D01*
X34465Y17461D01*
X34382Y17544D01*
X34465Y17626D01*
X34549Y17828D01*
X34549Y17927D01*
X34575Y17901D01*
X34575Y17816D01*
X34639Y17660D01*
X34759Y17540D01*
X34915Y17475D01*
X35084Y17475D01*
X35240Y17539D01*
X35360Y17659D01*
X35376Y17700D01*
X37037Y16038D01*
X37038Y16038D01*
X37039Y16037D01*
X38538Y14538D01*
X38635Y14473D01*
X38750Y14450D01*
X43750Y14450D01*
X44449Y14450D01*
X44509Y14390D01*
X44665Y14325D01*
X44834Y14325D01*
X44990Y14389D01*
X45110Y14509D01*
X45175Y14665D01*
X45175Y14834D01*
X45111Y14990D01*
X45070Y15031D01*
X45070Y17386D01*
X45070Y17613D01*
X44983Y17823D01*
X44823Y17983D01*
X44782Y18001D01*
X44823Y18017D01*
X44983Y18177D01*
X45070Y18386D01*
X45070Y18613D01*
X44983Y18823D01*
X44823Y18983D01*
X44614Y19070D01*
X44387Y19070D01*
X44177Y18983D01*
X44017Y18823D01*
X43999Y18783D01*
X43983Y18823D01*
X43823Y18983D01*
X43614Y19070D01*
X43387Y19070D01*
X43177Y18983D01*
X43017Y18823D01*
X42990Y18761D01*
X42980Y18786D01*
X42885Y18815D01*
X42815Y18745D01*
X42815Y18885D01*
X42786Y18980D01*
X42581Y19053D01*
X42363Y19042D01*
X42214Y18980D01*
X42185Y18885D01*
X42500Y18571D01*
X42815Y18885D01*
X42815Y18745D01*
X42571Y18500D01*
X42885Y18185D01*
X42980Y18214D01*
X42990Y18243D01*
X43017Y18177D01*
X43177Y18017D01*
X43217Y18000D01*
X43177Y17983D01*
X43017Y17823D01*
X42988Y17755D01*
X42965Y17811D01*
X42811Y17965D01*
X42732Y17998D01*
X42786Y18020D01*
X42815Y18115D01*
X42500Y18429D01*
X42429Y18359D01*
X42429Y18500D01*
X42115Y18815D01*
X42020Y18786D01*
X41947Y18581D01*
X41958Y18363D01*
X42020Y18214D01*
X42115Y18185D01*
X42429Y18500D01*
X42429Y18359D01*
X42185Y18115D01*
X42214Y18020D01*
X42271Y18000D01*
X42189Y17965D01*
X42035Y17811D01*
X41951Y17609D01*
X41951Y17391D01*
X42035Y17189D01*
X42189Y17035D01*
X42391Y16951D01*
X42609Y16951D01*
X42811Y17035D01*
X42965Y17189D01*
X42988Y17246D01*
X43017Y17177D01*
X43177Y17017D01*
X43386Y16930D01*
X43613Y16930D01*
X43823Y17017D01*
X43983Y17177D01*
X44000Y17218D01*
X44017Y17177D01*
X44177Y17017D01*
X44386Y16930D01*
X44613Y16930D01*
X44823Y17017D01*
X44983Y17177D01*
X45070Y17386D01*
X45070Y15031D01*
X44991Y15110D01*
X44945Y15130D01*
X44945Y15848D01*
X44936Y16116D01*
X44851Y16323D01*
X44743Y16366D01*
X44672Y16295D01*
X44672Y16437D01*
X44629Y16545D01*
X44378Y16639D01*
X44110Y16630D01*
X43903Y16545D01*
X43860Y16437D01*
X44266Y16031D01*
X44672Y16437D01*
X44672Y16295D01*
X44337Y15960D01*
X44743Y15554D01*
X44851Y15597D01*
X44945Y15848D01*
X44945Y15130D01*
X44835Y15175D01*
X44672Y15175D01*
X44672Y15483D01*
X44266Y15889D01*
X44195Y15818D01*
X44195Y15960D01*
X43789Y16366D01*
X43681Y16323D01*
X43587Y16072D01*
X43596Y15804D01*
X43681Y15597D01*
X43789Y15554D01*
X44195Y15960D01*
X44195Y15818D01*
X43860Y15483D01*
X43903Y15375D01*
X44154Y15281D01*
X44422Y15290D01*
X44629Y15375D01*
X44672Y15483D01*
X44672Y15175D01*
X44666Y15175D01*
X44510Y15111D01*
X44449Y15050D01*
X43750Y15050D01*
X41659Y15050D01*
X41659Y15825D01*
X41659Y16094D01*
X41556Y16342D01*
X41367Y16532D01*
X41119Y16635D01*
X41025Y16635D01*
X41025Y17395D01*
X41025Y17604D01*
X40945Y17797D01*
X40798Y17945D01*
X40723Y17976D01*
X40824Y17976D01*
X40916Y18014D01*
X40986Y18084D01*
X41024Y18175D01*
X41024Y18274D01*
X41024Y18824D01*
X40986Y18916D01*
X40916Y18986D01*
X40825Y19024D01*
X40726Y19024D01*
X40176Y19024D01*
X40084Y18986D01*
X40014Y18916D01*
X39976Y18825D01*
X39976Y18726D01*
X39976Y18176D01*
X40014Y18084D01*
X40084Y18014D01*
X40175Y17976D01*
X40274Y17976D01*
X40203Y17945D01*
X40055Y17798D01*
X39975Y17605D01*
X39975Y17396D01*
X40055Y17203D01*
X40202Y17055D01*
X40395Y16975D01*
X40604Y16975D01*
X40797Y17055D01*
X40945Y17202D01*
X41025Y17395D01*
X41025Y16635D01*
X40850Y16635D01*
X40602Y16532D01*
X40412Y16343D01*
X40309Y16095D01*
X40309Y15826D01*
X40412Y15578D01*
X40601Y15388D01*
X40849Y15285D01*
X41118Y15285D01*
X41366Y15388D01*
X41556Y15577D01*
X41659Y15825D01*
X41659Y15050D01*
X39695Y15050D01*
X39695Y15848D01*
X39686Y16116D01*
X39601Y16323D01*
X39530Y16352D01*
X39530Y18424D01*
X39518Y18632D01*
X39460Y18772D01*
X39368Y18797D01*
X39297Y18726D01*
X39297Y18868D01*
X39272Y18960D01*
X39076Y19030D01*
X38868Y19018D01*
X38728Y18960D01*
X38703Y18868D01*
X39000Y18571D01*
X39297Y18868D01*
X39297Y18726D01*
X39071Y18500D01*
X39368Y18203D01*
X39460Y18228D01*
X39530Y18424D01*
X39530Y16352D01*
X39493Y16366D01*
X39422Y16295D01*
X39422Y16437D01*
X39379Y16545D01*
X39128Y16639D01*
X38860Y16630D01*
X38653Y16545D01*
X38610Y16437D01*
X39016Y16031D01*
X39422Y16437D01*
X39422Y16295D01*
X39087Y15960D01*
X39493Y15554D01*
X39601Y15597D01*
X39695Y15848D01*
X39695Y15050D01*
X39422Y15050D01*
X39422Y15483D01*
X39016Y15889D01*
X38945Y15818D01*
X38945Y15960D01*
X38539Y16366D01*
X38431Y16323D01*
X38337Y16072D01*
X38346Y15804D01*
X38431Y15597D01*
X38539Y15554D01*
X38945Y15960D01*
X38945Y15818D01*
X38610Y15483D01*
X38653Y15375D01*
X38904Y15281D01*
X39172Y15290D01*
X39379Y15375D01*
X39422Y15483D01*
X39422Y15050D01*
X38874Y15050D01*
X37463Y16461D01*
X37462Y16462D01*
X37462Y16463D01*
X35706Y18219D01*
X36017Y18219D01*
X36304Y18338D01*
X36524Y18557D01*
X36643Y18844D01*
X36643Y19155D01*
X36524Y19442D01*
X36516Y19450D01*
X38029Y19450D01*
X37973Y19365D01*
X37950Y19250D01*
X37950Y18301D01*
X37890Y18241D01*
X37825Y18085D01*
X37825Y17916D01*
X37889Y17760D01*
X38009Y17640D01*
X38165Y17575D01*
X38334Y17575D01*
X38488Y17639D01*
X38475Y17605D01*
X38475Y17396D01*
X38555Y17203D01*
X38702Y17055D01*
X38895Y16975D01*
X39104Y16975D01*
X39297Y17055D01*
X39445Y17202D01*
X39525Y17395D01*
X39525Y17604D01*
X39445Y17797D01*
X39298Y17945D01*
X39170Y17998D01*
X39272Y18040D01*
X39297Y18132D01*
X39035Y18394D01*
X39000Y18429D01*
X38929Y18500D01*
X38894Y18535D01*
X38632Y18797D01*
X38550Y18775D01*
X38550Y19126D01*
X38624Y19200D01*
X39000Y19200D01*
X44750Y19200D01*
X44875Y19200D01*
X45037Y19038D01*
X45038Y19038D01*
X45039Y19037D01*
X45934Y18142D01*
X45934Y16567D01*
X45852Y16532D01*
X45662Y16343D01*
X45559Y16095D01*
X45559Y15826D01*
X45662Y15578D01*
X45851Y15388D01*
X46099Y15285D01*
X46368Y15285D01*
X46616Y15388D01*
X46806Y15577D01*
X46909Y15825D01*
X46909Y16094D01*
X46806Y16342D01*
X46617Y16532D01*
X46534Y16567D01*
X46534Y18171D01*
X46534Y18173D01*
X46549Y18250D01*
X46550Y18250D01*
X46527Y18365D01*
X46462Y18462D01*
X46462Y18463D01*
X46446Y18478D01*
X45474Y19450D01*
X47400Y19450D01*
X47022Y19072D01*
X46801Y18540D01*
X46800Y17963D01*
X47020Y17430D01*
X47428Y17022D01*
X47960Y16801D01*
X48537Y16800D01*
X49070Y17020D01*
X49450Y17400D01*
X49450Y2850D01*
M02*
